<?xml version="1.0" encoding="UTF-8" standalone="no"?>
<!DOCTYPE svg PUBLIC "-//W3C//DTD SVG 1.1//EN"
 "http://www.w3.org/Graphics/SVG/1.1/DTD/svg11.dtd">
<!-- Generated by graphviz version 2.38.0 (20140413.2041)
 -->
<!-- Title: fgl Pages: 1 -->
<svg width="288pt" height="288pt"
 viewBox="0.00 0.00 288.00 288.00" xmlns="http://www.w3.org/2000/svg" xmlns:xlink="http://www.w3.org/1999/xlink">
<g id="graph0" class="graph" transform="scale(0.595041 0.595041) rotate(0) translate(4 480)">
<title>fgl</title>
<polygon fill="white" stroke="none" points="-4,4 -4,-480 480,-480 480,4 -4,4"/>
<!-- 1 -->
<g id="node1" class="node"><title>1</title>
<ellipse fill="#90a9cb" stroke="#0b4faa" cx="22" cy="-238" rx="18" ry="18"/>
<ellipse fill="none" stroke="#0b4faa" cx="22" cy="-238" rx="22" ry="22"/>
<text text-anchor="middle" x="22" y="-234.3" font-family="Junction" font-size="14.00">1</text>
</g>
<!-- 2 -->
<g id="node2" class="node"><title>2</title>
<ellipse fill="none" stroke="black" cx="98" cy="-238" rx="18" ry="18"/>
<text text-anchor="middle" x="98" y="-234.3" font-family="Junction" font-size="14.00">2</text>
</g>
<!-- 1&#45;&gt;2 -->
<g id="edge1" class="edge"><title>1&#45;&gt;2</title>
<path fill="none" stroke="black" d="M44.0075,-238C51.9392,-238 61.0851,-238 69.5222,-238"/>
<polygon fill="black" stroke="black" points="69.6854,-241.5 79.6853,-238 69.6853,-234.5 69.6854,-241.5"/>
</g>
<!-- 3 -->
<g id="node3" class="node"><title>3</title>
<ellipse fill="none" stroke="black" cx="170" cy="-238" rx="18" ry="18"/>
<text text-anchor="middle" x="170" y="-234.3" font-family="Junction" font-size="14.00">3</text>
</g>
<!-- 2&#45;&gt;3 -->
<g id="edge2" class="edge"><title>2&#45;&gt;3</title>
<path fill="none" stroke="black" d="M116.303,-238C124.017,-238 133.288,-238 141.888,-238"/>
<polygon fill="black" stroke="black" points="141.896,-241.5 151.896,-238 141.896,-234.5 141.896,-241.5"/>
</g>
<!-- 4 -->
<g id="node4" class="node"><title>4</title>
<ellipse fill="none" stroke="black" cx="242" cy="-238" rx="18" ry="18"/>
<text text-anchor="middle" x="242" y="-234.3" font-family="Junction" font-size="14.00">4</text>
</g>
<!-- 3&#45;&gt;4 -->
<g id="edge3" class="edge"><title>3&#45;&gt;4</title>
<path fill="none" stroke="black" d="M188.303,-238C196.017,-238 205.288,-238 213.888,-238"/>
<polygon fill="black" stroke="black" points="213.896,-241.5 223.896,-238 213.896,-234.5 213.896,-241.5"/>
</g>
<!-- 5 -->
<g id="node5" class="node"><title>5</title>
<ellipse fill="none" stroke="black" cx="314" cy="-238" rx="18" ry="18"/>
<text text-anchor="middle" x="314" y="-234.3" font-family="Junction" font-size="14.00">5</text>
</g>
<!-- 4&#45;&gt;5 -->
<g id="edge4" class="edge"><title>4&#45;&gt;5</title>
<path fill="none" stroke="black" d="M260.303,-238C268.017,-238 277.288,-238 285.888,-238"/>
<polygon fill="black" stroke="black" points="285.896,-241.5 295.896,-238 285.896,-234.5 285.896,-241.5"/>
</g>
<!-- 6 -->
<g id="node6" class="node"><title>6</title>
<ellipse fill="none" stroke="black" cx="386" cy="-238" rx="18" ry="18"/>
<text text-anchor="middle" x="386" y="-234.3" font-family="Junction" font-size="14.00">6</text>
</g>
<!-- 5&#45;&gt;6 -->
<g id="edge5" class="edge"><title>5&#45;&gt;6</title>
<path fill="none" stroke="black" d="M332.303,-238C340.017,-238 349.288,-238 357.888,-238"/>
<polygon fill="black" stroke="black" points="357.896,-241.5 367.896,-238 357.896,-234.5 357.896,-241.5"/>
</g>
<!-- 7 -->
<g id="node7" class="node"><title>7</title>
<ellipse fill="none" stroke="black" cx="458" cy="-238" rx="18" ry="18"/>
<text text-anchor="middle" x="458" y="-234.3" font-family="Junction" font-size="14.00">7</text>
</g>
<!-- 6&#45;&gt;7 -->
<g id="edge6" class="edge"><title>6&#45;&gt;7</title>
<path fill="none" stroke="black" d="M404.303,-238C412.017,-238 421.288,-238 429.888,-238"/>
<polygon fill="black" stroke="black" points="429.896,-241.5 439.896,-238 429.896,-234.5 429.896,-241.5"/>
</g>
</g>
</svg>
