<?xml version="1.0" encoding="UTF-8" standalone="no"?>
<!DOCTYPE svg PUBLIC "-//W3C//DTD SVG 1.1//EN"
 "http://www.w3.org/Graphics/SVG/1.1/DTD/svg11.dtd">
<!-- Generated by graphviz version 2.38.0 (20140413.2041)
 -->
<!-- Title: fgl Pages: 1 -->
<svg width="288pt" height="288pt"
 viewBox="0.00 0.00 288.00 288.00" xmlns="http://www.w3.org/2000/svg" xmlns:xlink="http://www.w3.org/1999/xlink">
<g id="graph0" class="graph" transform="scale(0.605042 0.605042) rotate(0) translate(4 472)">
<title>fgl</title>
<polygon fill="white" stroke="none" points="-4,4 -4,-472 472,-472 472,4 -4,4"/>
<!-- 1 -->
<g id="node1" class="node"><title>1</title>
<ellipse fill="white" stroke="white" cx="18" cy="-234" rx="18" ry="18"/>
<text text-anchor="middle" x="18" y="-230.3" font-family="Junction" font-size="14.00" fill="white">1</text>
</g>
<!-- 2 -->
<g id="node2" class="node"><title>2</title>
<ellipse fill="none" stroke="black" cx="90" cy="-234" rx="18" ry="18"/>
<text text-anchor="middle" x="90" y="-230.3" font-family="Junction" font-size="14.00">2</text>
</g>
<!-- 1&#45;&gt;2 -->
<g id="edge1" class="edge"><title>1&#45;&gt;2</title>
<path fill="none" stroke="white" d="M36.3034,-234C44.0173,-234 53.2875,-234 61.8876,-234"/>
<polygon fill="white" stroke="white" points="61.8957,-237.5 71.8957,-234 61.8956,-230.5 61.8957,-237.5"/>
</g>
<!-- 3 -->
<g id="node3" class="node"><title>3</title>
<ellipse fill="none" stroke="black" cx="162" cy="-234" rx="18" ry="18"/>
<text text-anchor="middle" x="162" y="-230.3" font-family="Junction" font-size="14.00">3</text>
</g>
<!-- 2&#45;&gt;3 -->
<g id="edge2" class="edge"><title>2&#45;&gt;3</title>
<path fill="none" stroke="black" d="M108.303,-234C116.017,-234 125.288,-234 133.888,-234"/>
<polygon fill="black" stroke="black" points="133.896,-237.5 143.896,-234 133.896,-230.5 133.896,-237.5"/>
</g>
<!-- 4 -->
<g id="node4" class="node"><title>4</title>
<ellipse fill="none" stroke="black" cx="234" cy="-234" rx="18" ry="18"/>
<text text-anchor="middle" x="234" y="-230.3" font-family="Junction" font-size="14.00">4</text>
</g>
<!-- 3&#45;&gt;4 -->
<g id="edge3" class="edge"><title>3&#45;&gt;4</title>
<path fill="none" stroke="black" d="M180.303,-234C188.017,-234 197.288,-234 205.888,-234"/>
<polygon fill="black" stroke="black" points="205.896,-237.5 215.896,-234 205.896,-230.5 205.896,-237.5"/>
</g>
<!-- 5 -->
<g id="node5" class="node"><title>5</title>
<ellipse fill="none" stroke="black" cx="306" cy="-234" rx="18" ry="18"/>
<text text-anchor="middle" x="306" y="-230.3" font-family="Junction" font-size="14.00">5</text>
</g>
<!-- 4&#45;&gt;5 -->
<g id="edge4" class="edge"><title>4&#45;&gt;5</title>
<path fill="none" stroke="black" d="M252.303,-234C260.017,-234 269.288,-234 277.888,-234"/>
<polygon fill="black" stroke="black" points="277.896,-237.5 287.896,-234 277.896,-230.5 277.896,-237.5"/>
</g>
<!-- 6 -->
<g id="node6" class="node"><title>6</title>
<ellipse fill="none" stroke="black" cx="378" cy="-234" rx="18" ry="18"/>
<text text-anchor="middle" x="378" y="-230.3" font-family="Junction" font-size="14.00">6</text>
</g>
<!-- 5&#45;&gt;6 -->
<g id="edge5" class="edge"><title>5&#45;&gt;6</title>
<path fill="none" stroke="black" d="M324.303,-234C332.017,-234 341.288,-234 349.888,-234"/>
<polygon fill="black" stroke="black" points="349.896,-237.5 359.896,-234 349.896,-230.5 349.896,-237.5"/>
</g>
<!-- 7 -->
<g id="node7" class="node"><title>7</title>
<ellipse fill="none" stroke="black" cx="450" cy="-234" rx="18" ry="18"/>
<text text-anchor="middle" x="450" y="-230.3" font-family="Junction" font-size="14.00">7</text>
</g>
<!-- 6&#45;&gt;7 -->
<g id="edge6" class="edge"><title>6&#45;&gt;7</title>
<path fill="none" stroke="black" d="M396.303,-234C404.017,-234 413.288,-234 421.888,-234"/>
<polygon fill="black" stroke="black" points="421.896,-237.5 431.896,-234 421.896,-230.5 421.896,-237.5"/>
</g>
</g>
</svg>
