<?xml version="1.0" encoding="UTF-8" standalone="no"?>
<!DOCTYPE svg PUBLIC "-//W3C//DTD SVG 1.1//EN"
 "http://www.w3.org/Graphics/SVG/1.1/DTD/svg11.dtd">
<!-- Generated by graphviz version 2.38.0 (20140413.2041)
 -->
<!-- Title: fgl Pages: 1 -->
<svg width="270pt" height="284pt"
 viewBox="0.00 0.00 269.89 284.43" xmlns="http://www.w3.org/2000/svg" xmlns:xlink="http://www.w3.org/1999/xlink">
<g id="graph0" class="graph" transform="scale(1 1) rotate(0) translate(-7.74944 286.214)">
<title>fgl</title>
<polygon fill="white" stroke="none" points="7.74944,-1.78588 7.74944,-286.214 277.64,-286.214 277.64,-1.78588 7.74944,-1.78588"/>
<!-- 1 -->
<g id="node1" class="node"><title>1</title>
<ellipse fill="none" stroke="black" cx="150.485" cy="-215.356" rx="18" ry="18"/>
<text text-anchor="middle" x="150.485" y="-211.656" font-family="Junction" font-size="14.00">1</text>
</g>
<!-- 2 -->
<g id="node2" class="node"><title>2</title>
<ellipse fill="#90a9cb" stroke="#0b4faa" cx="251.64" cy="-163.867" rx="18" ry="18"/>
<ellipse fill="none" stroke="#0b4faa" cx="251.64" cy="-163.867" rx="22" ry="22"/>
<text text-anchor="middle" x="251.64" y="-160.167" font-family="Junction" font-size="14.00">2</text>
</g>
<!-- 3 -->
<g id="node3" class="node"><title>3</title>
<ellipse fill="none" stroke="black" cx="123.014" cy="-23.7859" rx="18" ry="18"/>
<text text-anchor="middle" x="123.014" y="-20.0859" font-family="Junction" font-size="14.00">3</text>
</g>
<!-- 4 -->
<g id="node4" class="node"><title>4</title>
<ellipse fill="none" stroke="black" cx="29.7494" cy="-199.741" rx="18" ry="18"/>
<text text-anchor="middle" x="29.7494" y="-196.041" font-family="Junction" font-size="14.00">4</text>
</g>
<!-- 4&#45;&gt;1 -->
<g id="edge1" class="edge"><title>4&#45;&gt;1</title>
<path fill="none" stroke="black" d="M47.8247,-202.079C67.4739,-204.62 99.1364,-208.715 122.108,-211.686"/>
<polygon fill="black" stroke="black" points="121.919,-215.191 132.286,-213.002 122.817,-208.249 121.919,-215.191"/>
</g>
<!-- 5 -->
<g id="node5" class="node"><title>5</title>
<ellipse fill="none" stroke="black" cx="254.875" cy="-264.214" rx="18" ry="18"/>
<text text-anchor="middle" x="254.875" y="-260.514" font-family="Junction" font-size="14.00">5</text>
</g>
<!-- 5&#45;&gt;1 -->
<g id="edge2" class="edge"><title>5&#45;&gt;1</title>
<path fill="none" stroke="black" d="M238.564,-256.58C221.885,-248.774 195.731,-236.533 176.25,-227.415"/>
<polygon fill="black" stroke="black" points="177.566,-224.167 167.026,-223.098 174.599,-230.507 177.566,-224.167"/>
</g>
<!-- 5&#45;&gt;2 -->
<g id="edge3" class="edge"><title>5&#45;&gt;2</title>
<path fill="none" stroke="#0b4faa" d="M254.282,-245.809C253.836,-231.977 253.213,-212.674 252.685,-196.277"/>
<polygon fill="none" stroke="#0b4faa" points="256.174,-195.891 252.354,-186.009 249.178,-196.116 256.174,-195.891"/>
</g>
<!-- 6 -->
<g id="node6" class="node"><title>6</title>
<ellipse fill="none" stroke="black" cx="210.983" cy="-94.8192" rx="18" ry="18"/>
<text text-anchor="middle" x="210.983" y="-91.1192" font-family="Junction" font-size="14.00">6</text>
</g>
<!-- 6&#45;&gt;1 -->
<g id="edge4" class="edge"><title>6&#45;&gt;1</title>
<path fill="none" stroke="black" d="M202.824,-111.075C192.676,-131.295 175.234,-166.046 163.295,-189.832"/>
<polygon fill="black" stroke="black" points="160.065,-188.465 158.708,-198.973 166.322,-191.605 160.065,-188.465"/>
</g>
<!-- 6&#45;&gt;2 -->
<g id="edge5" class="edge"><title>6&#45;&gt;2</title>
<path fill="none" stroke="#0b4faa" d="M220.209,-110.487C224.66,-118.047 230.136,-127.347 235.263,-136.054"/>
<polygon fill="none" stroke="#0b4faa" points="232.332,-137.975 240.422,-144.816 238.364,-134.423 232.332,-137.975"/>
</g>
<!-- 6&#45;&gt;3 -->
<g id="edge6" class="edge"><title>6&#45;&gt;3</title>
<path fill="none" stroke="black" d="M196.85,-83.4065C182.87,-72.1185 161.274,-54.6801 145.043,-41.5737"/>
<polygon fill="black" stroke="black" points="147.092,-38.7296 137.113,-35.1703 142.694,-44.1758 147.092,-38.7296"/>
</g>
<!-- 7 -->
<g id="node7" class="node"><title>7</title>
<ellipse fill="none" stroke="black" cx="98.6122" cy="-118.549" rx="18" ry="18"/>
<text text-anchor="middle" x="98.6122" y="-114.849" font-family="Junction" font-size="14.00">7</text>
</g>
<!-- 7&#45;&gt;2 -->
<g id="edge7" class="edge"><title>7&#45;&gt;2</title>
<path fill="none" stroke="#0b4faa" d="M116.166,-123.747C141.669,-131.299 189.344,-145.418 220.791,-154.731"/>
<polygon fill="none" stroke="#0b4faa" points="219.8,-158.088 230.382,-157.571 221.787,-151.376 219.8,-158.088"/>
</g>
<!-- 7&#45;&gt;3 -->
<g id="edge8" class="edge"><title>7&#45;&gt;3</title>
<path fill="none" stroke="black" d="M103.202,-100.724C106.781,-86.8267 111.814,-67.28 115.912,-51.3668"/>
<polygon fill="black" stroke="black" points="119.341,-52.087 118.445,-41.5301 112.562,-50.3414 119.341,-52.087"/>
</g>
<!-- 7&#45;&gt;4 -->
<g id="edge9" class="edge"><title>7&#45;&gt;4</title>
<path fill="none" stroke="black" d="M86.9306,-132.322C76.3451,-144.803 60.567,-163.406 48.2646,-177.911"/>
<polygon fill="black" stroke="black" points="45.2874,-176.01 41.4884,-185.901 50.6259,-180.538 45.2874,-176.01"/>
</g>
</g>
</svg>
