<?xml version="1.0" encoding="UTF-8" standalone="no"?>
<!DOCTYPE svg PUBLIC "-//W3C//DTD SVG 1.1//EN"
 "http://www.w3.org/Graphics/SVG/1.1/DTD/svg11.dtd">
<!-- Generated by graphviz version 2.38.0 (20140413.2041)
 -->
<!-- Title: fgl Pages: 1 -->
<svg width="272pt" height="284pt"
 viewBox="0.00 0.00 271.80 284.43" xmlns="http://www.w3.org/2000/svg" xmlns:xlink="http://www.w3.org/1999/xlink">
<g id="graph0" class="graph" transform="scale(1 1) rotate(0) translate(-8.10222 286.214)">
<title>fgl</title>
<polygon fill="white" stroke="none" points="8.10222,-1.78588 8.10222,-286.214 279.898,-286.214 279.898,-1.78588 8.10222,-1.78588"/>
<!-- 1 -->
<g id="node1" class="node"><title>1</title>
<ellipse fill="white" stroke="white" cx="152.269" cy="-215.356" rx="18" ry="18"/>
<text text-anchor="middle" x="152.269" y="-211.656" font-family="Junction" font-size="14.00" fill="white">1</text>
</g>
<!-- 2 -->
<g id="node2" class="node"><title>2</title>
<ellipse fill="white" stroke="white" cx="254.624" cy="-163.867" rx="18" ry="18"/>
<text text-anchor="middle" x="254.624" y="-160.167" font-family="Junction" font-size="14.00" fill="white">2</text>
</g>
<!-- 3 -->
<g id="node3" class="node"><title>3</title>
<ellipse fill="none" stroke="black" cx="124.473" cy="-23.7859" rx="18" ry="18"/>
<text text-anchor="middle" x="124.473" y="-20.0859" font-family="Junction" font-size="14.00">3</text>
</g>
<!-- 4 -->
<g id="node4" class="node"><title>4</title>
<ellipse fill="white" stroke="white" cx="30.1022" cy="-199.741" rx="18" ry="18"/>
<text text-anchor="middle" x="30.1022" y="-196.041" font-family="Junction" font-size="14.00" fill="white">4</text>
</g>
<!-- 4&#45;&gt;1 -->
<g id="edge1" class="edge"><title>4&#45;&gt;1</title>
<path fill="none" stroke="white" d="M48.1284,-202.045C68.1584,-204.606 100.756,-208.772 124.148,-211.762"/>
<polygon fill="white" stroke="white" points="123.806,-215.246 134.169,-213.043 124.693,-208.303 123.806,-215.246"/>
</g>
<!-- 5 -->
<g id="node5" class="node"><title>5</title>
<ellipse fill="white" stroke="white" cx="257.898" cy="-264.214" rx="18" ry="18"/>
<text text-anchor="middle" x="257.898" y="-260.514" font-family="Junction" font-size="14.00" fill="white">5</text>
</g>
<!-- 5&#45;&gt;1 -->
<g id="edge2" class="edge"><title>5&#45;&gt;1</title>
<path fill="none" stroke="white" d="M241.393,-256.58C224.417,-248.728 197.741,-236.389 177.993,-227.255"/>
<polygon fill="white" stroke="white" points="179.203,-223.958 168.658,-222.937 176.264,-230.311 179.203,-223.958"/>
</g>
<!-- 5&#45;&gt;2 -->
<g id="edge3" class="edge"><title>5&#45;&gt;2</title>
<path fill="none" stroke="white" d="M257.297,-245.809C256.808,-230.815 256.109,-209.391 255.548,-192.209"/>
<polygon fill="white" stroke="white" points="259.045,-192.036 255.22,-182.155 252.048,-192.264 259.045,-192.036"/>
</g>
<!-- 6 -->
<g id="node6" class="node"><title>6</title>
<ellipse fill="#90a9cb" stroke="#0b4faa" cx="213.485" cy="-94.8192" rx="18" ry="18"/>
<ellipse fill="none" stroke="#0b4faa" cx="213.485" cy="-94.8192" rx="22" ry="22"/>
<text text-anchor="middle" x="213.485" y="-91.1192" font-family="Junction" font-size="14.00">6</text>
</g>
<!-- 6&#45;&gt;1 -->
<g id="edge4" class="edge"><title>6&#45;&gt;1</title>
<path fill="none" stroke="white" d="M203.514,-114.454C193.019,-135.117 176.467,-167.709 165.028,-190.234"/>
<polygon fill="white" stroke="white" points="161.878,-188.706 160.471,-199.206 168.12,-191.875 161.878,-188.706"/>
</g>
<!-- 6&#45;&gt;2 -->
<g id="edge5" class="edge"><title>6&#45;&gt;2</title>
<path fill="none" stroke="white" d="M224.945,-114.053C229.624,-121.906 235.091,-131.083 240.049,-139.404"/>
<polygon fill="white" stroke="white" points="237.043,-141.197 245.168,-147.996 243.056,-137.614 237.043,-141.197"/>
</g>
<!-- 6&#45;&gt;3 -->
<g id="edge6" class="edge"><title>6&#45;&gt;3</title>
<path fill="none" stroke="#0b4faa" d="M195.899,-80.7853C181.792,-69.5275 161.905,-53.657 146.696,-41.5202"/>
<polygon fill="none" stroke="#0b4faa" points="148.794,-38.7165 138.794,-35.2146 144.428,-44.1879 148.794,-38.7165"/>
</g>
<!-- 7 -->
<g id="node7" class="node"><title>7</title>
<ellipse fill="white" stroke="white" cx="99.7816" cy="-118.549" rx="18" ry="18"/>
<text text-anchor="middle" x="99.7816" y="-114.849" font-family="Junction" font-size="14.00" fill="white">7</text>
</g>
<!-- 7&#45;&gt;2 -->
<g id="edge7" class="edge"><title>7&#45;&gt;2</title>
<path fill="none" stroke="white" d="M117.243,-123.659C143.961,-131.479 195.228,-146.483 227.018,-155.787"/>
<polygon fill="white" stroke="white" points="226.408,-159.255 236.988,-158.705 228.374,-152.537 226.408,-159.255"/>
</g>
<!-- 7&#45;&gt;3 -->
<g id="edge8" class="edge"><title>7&#45;&gt;3</title>
<path fill="none" stroke="white" d="M104.426,-100.724C108.07,-86.7387 113.205,-67.0324 117.365,-51.0651"/>
<polygon fill="white" stroke="white" points="120.798,-51.7694 119.933,-41.2099 114.025,-50.0043 120.798,-51.7694"/>
</g>
<!-- 7&#45;&gt;4 -->
<g id="edge9" class="edge"><title>7&#45;&gt;4</title>
<path fill="none" stroke="white" d="M87.9614,-132.322C77.2504,-144.803 61.2852,-163.406 48.837,-177.911"/>
<polygon fill="white" stroke="white" points="45.8369,-176.033 41.9804,-185.901 51.1489,-180.591 45.8369,-176.033"/>
</g>
</g>
</svg>
