<?xml version="1.0" encoding="UTF-8" standalone="no"?>
<!DOCTYPE svg PUBLIC "-//W3C//DTD SVG 1.1//EN"
 "http://www.w3.org/Graphics/SVG/1.1/DTD/svg11.dtd">
<!-- Generated by graphviz version 2.38.0 (20140413.2041)
 -->
<!-- Title: fgl Pages: 1 -->
<svg width="272pt" height="284pt"
 viewBox="0.00 0.00 271.80 284.10" xmlns="http://www.w3.org/2000/svg" xmlns:xlink="http://www.w3.org/1999/xlink">
<g id="graph0" class="graph" transform="scale(1 1) rotate(0) translate(-8.10222 286.643)">
<title>fgl</title>
<polygon fill="white" stroke="none" points="8.10222,-2.54769 8.10222,-286.643 279.898,-286.643 279.898,-2.54769 8.10222,-2.54769"/>
<!-- 1 -->
<g id="node1" class="node"><title>1</title>
<ellipse fill="white" stroke="white" cx="152.269" cy="-216.665" rx="18" ry="18"/>
<text text-anchor="middle" x="152.269" y="-212.965" font-family="Junction" font-size="14.00" fill="white">1</text>
</g>
<!-- 2 -->
<g id="node2" class="node"><title>2</title>
<ellipse fill="white" stroke="white" cx="254.624" cy="-166.104" rx="18" ry="18"/>
<text text-anchor="middle" x="254.624" y="-162.404" font-family="Junction" font-size="14.00" fill="white">2</text>
</g>
<!-- 3 -->
<g id="node3" class="node"><title>3</title>
<ellipse fill="#90a9cb" stroke="#0b4faa" cx="124.473" cy="-28.5477" rx="18" ry="18"/>
<ellipse fill="none" stroke="#0b4faa" cx="124.473" cy="-28.5477" rx="22" ry="22"/>
<text text-anchor="middle" x="124.473" y="-24.8477" font-family="Junction" font-size="14.00">3</text>
</g>
<!-- 4 -->
<g id="node4" class="node"><title>4</title>
<ellipse fill="white" stroke="white" cx="30.1022" cy="-201.332" rx="18" ry="18"/>
<text text-anchor="middle" x="30.1022" y="-197.632" font-family="Junction" font-size="14.00" fill="white">4</text>
</g>
<!-- 4&#45;&gt;1 -->
<g id="edge1" class="edge"><title>4&#45;&gt;1</title>
<path fill="none" stroke="white" d="M48.1284,-203.595C68.1584,-206.109 100.756,-210.2 124.148,-213.136"/>
<polygon fill="white" stroke="white" points="123.811,-216.621 134.169,-214.394 124.683,-209.675 123.811,-216.621"/>
</g>
<!-- 5 -->
<g id="node5" class="node"><title>5</title>
<ellipse fill="white" stroke="white" cx="257.898" cy="-264.643" rx="18" ry="18"/>
<text text-anchor="middle" x="257.898" y="-260.943" font-family="Junction" font-size="14.00" fill="white">5</text>
</g>
<!-- 5&#45;&gt;1 -->
<g id="edge2" class="edge"><title>5&#45;&gt;1</title>
<path fill="none" stroke="white" d="M241.393,-257.146C224.517,-249.481 198.053,-237.461 178.34,-228.507"/>
<polygon fill="white" stroke="white" points="179.559,-225.216 169.006,-224.267 176.664,-231.59 179.559,-225.216"/>
</g>
<!-- 5&#45;&gt;2 -->
<g id="edge3" class="edge"><title>5&#45;&gt;2</title>
<path fill="none" stroke="white" d="M257.297,-246.569C256.816,-232.076 256.131,-211.463 255.575,-194.73"/>
<polygon fill="white" stroke="white" points="259.062,-194.275 255.231,-184.396 252.066,-194.507 259.062,-194.275"/>
</g>
<!-- 6 -->
<g id="node6" class="node"><title>6</title>
<ellipse fill="white" stroke="white" cx="213.485" cy="-98.3008" rx="18" ry="18"/>
<text text-anchor="middle" x="213.485" y="-94.6008" font-family="Junction" font-size="14.00" fill="white">6</text>
</g>
<!-- 6&#45;&gt;1 -->
<g id="edge4" class="edge"><title>6&#45;&gt;1</title>
<path fill="none" stroke="white" d="M204.973,-114.759C194.694,-134.634 177.295,-168.276 165.318,-191.435"/>
<polygon fill="white" stroke="white" points="162.194,-189.857 160.709,-200.347 168.411,-193.072 162.194,-189.857"/>
</g>
<!-- 6&#45;&gt;2 -->
<g id="edge5" class="edge"><title>6&#45;&gt;2</title>
<path fill="none" stroke="white" d="M223.027,-114.027C228.011,-122.242 234.222,-132.479 239.815,-141.697"/>
<polygon fill="white" stroke="white" points="236.954,-143.729 245.134,-150.463 242.939,-140.098 236.954,-143.729"/>
</g>
<!-- 6&#45;&gt;3 -->
<g id="edge6" class="edge"><title>6&#45;&gt;3</title>
<path fill="none" stroke="white" d="M199.184,-87.0938C185.876,-76.6651 165.746,-60.8905 149.733,-48.3421"/>
<polygon fill="white" stroke="white" points="151.822,-45.5329 141.792,-42.1196 147.504,-51.0427 151.822,-45.5329"/>
</g>
<!-- 7 -->
<g id="node7" class="node"><title>7</title>
<ellipse fill="white" stroke="white" cx="99.7816" cy="-121.603" rx="18" ry="18"/>
<text text-anchor="middle" x="99.7816" y="-117.903" font-family="Junction" font-size="14.00" fill="white">7</text>
</g>
<!-- 7&#45;&gt;2 -->
<g id="edge7" class="edge"><title>7&#45;&gt;2</title>
<path fill="none" stroke="white" d="M117.243,-126.621C143.961,-134.3 195.228,-149.033 227.018,-158.17"/>
<polygon fill="white" stroke="white" points="226.411,-161.637 236.988,-161.035 228.344,-154.909 226.411,-161.637"/>
</g>
<!-- 7&#45;&gt;3 -->
<g id="edge8" class="edge"><title>7&#45;&gt;3</title>
<path fill="none" stroke="white" d="M104.426,-104.1C107.74,-91.6089 112.287,-74.4716 116.213,-59.6759"/>
<polygon fill="white" stroke="white" points="119.627,-60.4559 118.809,-49.8927 112.862,-58.6606 119.627,-60.4559"/>
</g>
<!-- 7&#45;&gt;4 -->
<g id="edge9" class="edge"><title>7&#45;&gt;4</title>
<path fill="none" stroke="white" d="M87.6443,-135.49C76.9534,-147.723 61.2107,-165.737 48.893,-179.831"/>
<polygon fill="white" stroke="white" points="46.0455,-177.77 42.1003,-187.603 51.3163,-182.377 46.0455,-177.77"/>
</g>
</g>
</svg>
