<?xml version="1.0" encoding="UTF-8" standalone="no"?>
<!DOCTYPE svg PUBLIC "-//W3C//DTD SVG 1.1//EN"
 "http://www.w3.org/Graphics/SVG/1.1/DTD/svg11.dtd">
<!-- Generated by graphviz version 2.38.0 (20140413.2041)
 -->
<!-- Title: fgl Pages: 1 -->
<svg width="271pt" height="284pt"
 viewBox="0.00 0.00 270.62 284.43" xmlns="http://www.w3.org/2000/svg" xmlns:xlink="http://www.w3.org/1999/xlink">
<g id="graph0" class="graph" transform="scale(1 1) rotate(0) translate(-9.95644 286.214)">
<title>fgl</title>
<polygon fill="white" stroke="none" points="9.95644,-1.78588 9.95644,-286.214 280.581,-286.214 280.581,-1.78588 9.95644,-1.78588"/>
<!-- 1 -->
<g id="node1" class="node"><title>1</title>
<ellipse fill="white" stroke="white" cx="155.35" cy="-215.356" rx="18" ry="18"/>
<text text-anchor="middle" x="155.35" y="-211.656" font-family="Junction" font-size="14.00" fill="white">1</text>
</g>
<!-- 2 -->
<g id="node2" class="node"><title>2</title>
<ellipse fill="none" stroke="black" cx="255.381" cy="-163.867" rx="18" ry="18"/>
<text text-anchor="middle" x="255.381" y="-160.167" font-family="Junction" font-size="14.00">2</text>
</g>
<!-- 3 -->
<g id="node3" class="node"><title>3</title>
<ellipse fill="none" stroke="black" cx="128.185" cy="-23.7859" rx="18" ry="18"/>
<text text-anchor="middle" x="128.185" y="-20.0859" font-family="Junction" font-size="14.00">3</text>
</g>
<!-- 4 -->
<g id="node4" class="node"><title>4</title>
<ellipse fill="#90a9cb" stroke="#0b4faa" cx="35.9564" cy="-199.741" rx="18" ry="18"/>
<ellipse fill="none" stroke="#0b4faa" cx="35.9564" cy="-199.741" rx="22" ry="22"/>
<text text-anchor="middle" x="35.9564" y="-196.041" font-family="Junction" font-size="14.00">4</text>
</g>
<!-- 4&#45;&gt;1 -->
<g id="edge1" class="edge"><title>4&#45;&gt;1</title>
<path fill="none" stroke="white" d="M57.8551,-202.605C77.4358,-205.166 106.233,-208.932 127.456,-211.708"/>
<polygon fill="white" stroke="white" points="127.114,-215.193 137.484,-213.019 128.022,-208.252 127.114,-215.193"/>
</g>
<!-- 5 -->
<g id="node5" class="node"><title>5</title>
<ellipse fill="none" stroke="black" cx="258.581" cy="-264.214" rx="18" ry="18"/>
<text text-anchor="middle" x="258.581" y="-260.514" font-family="Junction" font-size="14.00">5</text>
</g>
<!-- 5&#45;&gt;1 -->
<g id="edge2" class="edge"><title>5&#45;&gt;1</title>
<path fill="none" stroke="white" d="M241.995,-256.364C225.515,-248.565 200.015,-236.496 180.939,-227.467"/>
<polygon fill="white" stroke="white" points="182.431,-224.301 171.895,-223.186 179.436,-230.628 182.431,-224.301"/>
</g>
<!-- 5&#45;&gt;2 -->
<g id="edge3" class="edge"><title>5&#45;&gt;2</title>
<path fill="none" stroke="black" d="M257.994,-245.809C257.516,-230.815 256.833,-209.391 256.285,-192.209"/>
<polygon fill="black" stroke="black" points="259.781,-192.038 255.964,-182.155 252.785,-192.262 259.781,-192.038"/>
</g>
<!-- 6 -->
<g id="node6" class="node"><title>6</title>
<ellipse fill="none" stroke="black" cx="215.177" cy="-94.8192" rx="18" ry="18"/>
<text text-anchor="middle" x="215.177" y="-91.1192" font-family="Junction" font-size="14.00">6</text>
</g>
<!-- 6&#45;&gt;1 -->
<g id="edge4" class="edge"><title>6&#45;&gt;1</title>
<path fill="none" stroke="white" d="M207.108,-111.075C197.073,-131.295 179.824,-166.046 168.019,-189.832"/>
<polygon fill="white" stroke="white" points="164.793,-188.459 163.482,-198.973 171.063,-191.571 164.793,-188.459"/>
</g>
<!-- 6&#45;&gt;2 -->
<g id="edge5" class="edge"><title>6&#45;&gt;2</title>
<path fill="none" stroke="black" d="M224.3,-110.487C229.286,-119.05 235.572,-129.846 241.184,-139.485"/>
<polygon fill="black" stroke="black" points="238.238,-141.38 246.294,-148.261 244.287,-137.858 238.238,-141.38"/>
</g>
<!-- 6&#45;&gt;3 -->
<g id="edge6" class="edge"><title>6&#45;&gt;3</title>
<path fill="none" stroke="black" d="M201.2,-83.4065C187.458,-72.1853 166.272,-54.8863 150.255,-41.8068"/>
<polygon fill="black" stroke="black" points="152.375,-39.0201 142.416,-35.4063 147.948,-44.4422 152.375,-39.0201"/>
</g>
<!-- 7 -->
<g id="node7" class="node"><title>7</title>
<ellipse fill="none" stroke="black" cx="104.054" cy="-118.549" rx="18" ry="18"/>
<text text-anchor="middle" x="104.054" y="-114.849" font-family="Junction" font-size="14.00">7</text>
</g>
<!-- 7&#45;&gt;2 -->
<g id="edge7" class="edge"><title>7&#45;&gt;2</title>
<path fill="none" stroke="black" d="M121.413,-123.747C147.5,-131.559 197.047,-146.397 228.025,-155.674"/>
<polygon fill="black" stroke="black" points="227.175,-159.073 237.758,-158.589 229.183,-152.367 227.175,-159.073"/>
</g>
<!-- 7&#45;&gt;3 -->
<g id="edge8" class="edge"><title>7&#45;&gt;3</title>
<path fill="none" stroke="black" d="M108.593,-100.724C112.132,-86.8267 117.109,-67.28 121.162,-51.3668"/>
<polygon fill="black" stroke="black" points="124.59,-52.0846 123.667,-41.5301 117.807,-50.3571 124.59,-52.0846"/>
</g>
<!-- 7&#45;&gt;4 -->
<g id="edge9" class="edge"><title>7&#45;&gt;4</title>
<path fill="none" stroke="#0b4faa" d="M92.1924,-132.691C82.4449,-144.313 68.4005,-161.058 56.7857,-174.907"/>
<polygon fill="none" stroke="#0b4faa" points="54.0231,-172.754 50.2786,-182.665 59.3865,-177.252 54.0231,-172.754"/>
</g>
</g>
</svg>
