<?xml version="1.0" encoding="UTF-8" standalone="no"?>
<!DOCTYPE svg PUBLIC "-//W3C//DTD SVG 1.1//EN"
 "http://www.w3.org/Graphics/SVG/1.1/DTD/svg11.dtd">
<!-- Generated by graphviz version 2.38.0 (20140413.2041)
 -->
<!-- Title: fgl Pages: 1 -->
<svg width="272pt" height="284pt"
 viewBox="0.00 0.00 271.80 284.43" xmlns="http://www.w3.org/2000/svg" xmlns:xlink="http://www.w3.org/1999/xlink">
<g id="graph0" class="graph" transform="scale(1 1) rotate(0) translate(-8.10222 286.214)">
<title>fgl</title>
<polygon fill="white" stroke="none" points="8.10222,-1.78588 8.10222,-286.214 279.898,-286.214 279.898,-1.78588 8.10222,-1.78588"/>
<!-- 1 -->
<g id="node1" class="node"><title>1</title>
<ellipse fill="white" stroke="white" cx="152.269" cy="-215.356" rx="18" ry="18"/>
<text text-anchor="middle" x="152.269" y="-211.656" font-family="Junction" font-size="14.00" fill="white">1</text>
</g>
<!-- 2 -->
<g id="node2" class="node"><title>2</title>
<ellipse fill="none" stroke="black" cx="254.624" cy="-163.867" rx="18" ry="18"/>
<text text-anchor="middle" x="254.624" y="-160.167" font-family="Junction" font-size="14.00">2</text>
</g>
<!-- 3 -->
<g id="node3" class="node"><title>3</title>
<ellipse fill="none" stroke="black" cx="124.473" cy="-23.7859" rx="18" ry="18"/>
<text text-anchor="middle" x="124.473" y="-20.0859" font-family="Junction" font-size="14.00">3</text>
</g>
<!-- 4 -->
<g id="node4" class="node"><title>4</title>
<ellipse fill="white" stroke="white" cx="30.1022" cy="-199.741" rx="18" ry="18"/>
<text text-anchor="middle" x="30.1022" y="-196.041" font-family="Junction" font-size="14.00" fill="white">4</text>
</g>
<!-- 4&#45;&gt;1 -->
<g id="edge1" class="edge"><title>4&#45;&gt;1</title>
<path fill="none" stroke="white" d="M48.1284,-202.045C68.1584,-204.606 100.756,-208.772 124.148,-211.762"/>
<polygon fill="white" stroke="white" points="123.806,-215.246 134.169,-213.043 124.693,-208.303 123.806,-215.246"/>
</g>
<!-- 5 -->
<g id="node5" class="node"><title>5</title>
<ellipse fill="none" stroke="black" cx="257.898" cy="-264.214" rx="18" ry="18"/>
<text text-anchor="middle" x="257.898" y="-260.514" font-family="Junction" font-size="14.00">5</text>
</g>
<!-- 5&#45;&gt;1 -->
<g id="edge2" class="edge"><title>5&#45;&gt;1</title>
<path fill="none" stroke="white" d="M241.393,-256.58C224.417,-248.728 197.741,-236.389 177.993,-227.255"/>
<polygon fill="white" stroke="white" points="179.203,-223.958 168.658,-222.937 176.264,-230.311 179.203,-223.958"/>
</g>
<!-- 5&#45;&gt;2 -->
<g id="edge3" class="edge"><title>5&#45;&gt;2</title>
<path fill="none" stroke="black" d="M257.297,-245.809C256.808,-230.815 256.109,-209.391 255.548,-192.209"/>
<polygon fill="black" stroke="black" points="259.045,-192.036 255.22,-182.155 252.048,-192.264 259.045,-192.036"/>
</g>
<!-- 6 -->
<g id="node6" class="node"><title>6</title>
<ellipse fill="none" stroke="black" cx="213.485" cy="-94.8192" rx="18" ry="18"/>
<text text-anchor="middle" x="213.485" y="-91.1192" font-family="Junction" font-size="14.00">6</text>
</g>
<!-- 6&#45;&gt;1 -->
<g id="edge4" class="edge"><title>6&#45;&gt;1</title>
<path fill="none" stroke="white" d="M205.229,-111.075C194.961,-131.295 177.312,-166.046 165.232,-189.832"/>
<polygon fill="white" stroke="white" points="161.997,-188.472 160.59,-198.973 168.238,-191.641 161.997,-188.472"/>
</g>
<!-- 6&#45;&gt;2 -->
<g id="edge5" class="edge"><title>6&#45;&gt;2</title>
<path fill="none" stroke="black" d="M222.82,-110.487C227.922,-119.05 234.354,-129.846 240.097,-139.485"/>
<polygon fill="black" stroke="black" points="237.2,-141.461 245.326,-148.261 243.214,-137.878 237.2,-141.461"/>
</g>
<!-- 6&#45;&gt;3 -->
<g id="edge6" class="edge"><title>6&#45;&gt;3</title>
<path fill="none" stroke="black" d="M199.184,-83.4065C185.039,-72.1185 163.187,-54.6801 146.763,-41.5737"/>
<polygon fill="black" stroke="black" points="148.738,-38.6721 138.739,-35.1703 144.372,-44.1435 148.738,-38.6721"/>
</g>
<!-- 7 -->
<g id="node7" class="node"><title>7</title>
<ellipse fill="#90a9cb" stroke="#0b4faa" cx="99.7816" cy="-118.549" rx="18" ry="18"/>
<ellipse fill="none" stroke="#0b4faa" cx="99.7816" cy="-118.549" rx="22" ry="22"/>
<text text-anchor="middle" x="99.7816" y="-114.849" font-family="Junction" font-size="14.00">7</text>
</g>
<!-- 7&#45;&gt;2 -->
<g id="edge7" class="edge"><title>7&#45;&gt;2</title>
<path fill="none" stroke="#0b4faa" d="M120.987,-124.755C148.549,-132.821 196.734,-146.924 227.092,-155.809"/>
<polygon fill="none" stroke="#0b4faa" points="226.443,-159.266 237.024,-158.716 228.409,-152.548 226.443,-159.266"/>
</g>
<!-- 7&#45;&gt;3 -->
<g id="edge8" class="edge"><title>7&#45;&gt;3</title>
<path fill="none" stroke="#0b4faa" d="M105.384,-97.0455C108.911,-83.5114 113.496,-65.9137 117.289,-51.358"/>
<polygon fill="none" stroke="#0b4faa" points="120.749,-51.9578 119.884,-41.3983 113.975,-50.1927 120.749,-51.9578"/>
</g>
<!-- 7&#45;&gt;4 -->
<g id="edge9" class="edge"><title>7&#45;&gt;4</title>
<path fill="none" stroke="white" d="M85.344,-135.372C74.7144,-147.758 60.1728,-164.702 48.6772,-178.097"/>
<polygon fill="white" stroke="white" points="45.8319,-176.038 41.9754,-185.906 51.144,-180.597 45.8319,-176.038"/>
</g>
</g>
</svg>
