<?xml version="1.0" encoding="UTF-8" standalone="no"?>
<!DOCTYPE svg PUBLIC "-//W3C//DTD SVG 1.1//EN"
 "http://www.w3.org/Graphics/SVG/1.1/DTD/svg11.dtd">
<!-- Generated by graphviz version 2.38.0 (20140413.2041)
 -->
<!-- Title: fgl Pages: 1 -->
<svg width="271pt" height="284pt"
 viewBox="0.00 0.00 270.62 284.10" xmlns="http://www.w3.org/2000/svg" xmlns:xlink="http://www.w3.org/1999/xlink">
<g id="graph0" class="graph" transform="scale(1 1) rotate(0) translate(-7.4189 285.452)">
<title>fgl</title>
<polygon fill="white" stroke="none" points="7.4189,-1.3572 7.4189,-285.452 278.044,-285.452 278.044,-1.3572 7.4189,-1.3572"/>
<!-- 1 -->
<g id="node1" class="node"><title>1</title>
<ellipse fill="white" stroke="white" cx="148.813" cy="-211.475" rx="18" ry="18"/>
<text text-anchor="middle" x="148.813" y="-207.775" font-family="Junction" font-size="14.00" fill="white">1</text>
</g>
<!-- 2 -->
<g id="node2" class="node"><title>2</title>
<ellipse fill="white" stroke="white" cx="248.844" cy="-160.913" rx="18" ry="18"/>
<text text-anchor="middle" x="248.844" y="-157.213" font-family="Junction" font-size="14.00" fill="white">2</text>
</g>
<!-- 3 -->
<g id="node3" class="node"><title>3</title>
<ellipse fill="none" stroke="black" cx="121.647" cy="-23.3572" rx="18" ry="18"/>
<text text-anchor="middle" x="121.647" y="-19.6572" font-family="Junction" font-size="14.00">3</text>
</g>
<!-- 4 -->
<g id="node4" class="node"><title>4</title>
<ellipse fill="white" stroke="white" cx="29.4189" cy="-196.142" rx="18" ry="18"/>
<text text-anchor="middle" x="29.4189" y="-192.442" font-family="Junction" font-size="14.00" fill="white">4</text>
</g>
<!-- 4&#45;&gt;1 -->
<g id="edge1" class="edge"><title>4&#45;&gt;1</title>
<path fill="none" stroke="white" d="M47.2934,-198.437C66.7242,-200.933 98.0349,-204.954 120.751,-207.871"/>
<polygon fill="white" stroke="white" points="120.452,-211.361 130.816,-209.164 121.343,-204.418 120.452,-211.361"/>
</g>
<!-- 5 -->
<g id="node5" class="node"><title>5</title>
<ellipse fill="#90a9cb" stroke="#0b4faa" cx="252.044" cy="-259.452" rx="18" ry="18"/>
<ellipse fill="none" stroke="#0b4faa" cx="252.044" cy="-259.452" rx="22" ry="22"/>
<text text-anchor="middle" x="252.044" y="-255.752" font-family="Junction" font-size="14.00">5</text>
</g>
<!-- 5&#45;&gt;1 -->
<g id="edge2" class="edge"><title>5&#45;&gt;1</title>
<path fill="none" stroke="white" d="M231.648,-249.973C215.288,-242.37 192.223,-231.65 174.585,-223.453"/>
<polygon fill="white" stroke="white" points="175.965,-220.235 165.422,-219.194 173.015,-226.583 175.965,-220.235"/>
</g>
<!-- 5&#45;&gt;2 -->
<g id="edge3" class="edge"><title>5&#45;&gt;2</title>
<path fill="none" stroke="white" d="M251.317,-237.092C250.857,-222.927 250.259,-204.482 249.765,-189.29"/>
<polygon fill="white" stroke="white" points="253.251,-188.791 249.428,-178.91 246.255,-189.018 253.251,-188.791"/>
</g>
<!-- 6 -->
<g id="node6" class="node"><title>6</title>
<ellipse fill="none" stroke="black" cx="208.639" cy="-93.1104" rx="18" ry="18"/>
<text text-anchor="middle" x="208.639" y="-89.4104" font-family="Junction" font-size="14.00">6</text>
</g>
<!-- 6&#45;&gt;1 -->
<g id="edge4" class="edge"><title>6&#45;&gt;1</title>
<path fill="none" stroke="white" d="M200.321,-109.568C190.319,-129.356 173.422,-162.786 161.722,-185.935"/>
<polygon fill="white" stroke="white" points="158.448,-184.653 157.061,-195.157 164.695,-187.811 158.448,-184.653"/>
</g>
<!-- 6&#45;&gt;2 -->
<g id="edge5" class="edge"><title>6&#45;&gt;2</title>
<path fill="none" stroke="white" d="M217.964,-108.836C222.835,-117.051 228.905,-127.288 234.372,-136.507"/>
<polygon fill="white" stroke="white" points="231.459,-138.456 239.569,-145.273 237.48,-134.886 231.459,-138.456"/>
</g>
<!-- 6&#45;&gt;3 -->
<g id="edge6" class="edge"><title>6&#45;&gt;3</title>
<path fill="none" stroke="black" d="M194.274,-81.592C180.593,-70.622 159.796,-53.9459 143.957,-41.2461"/>
<polygon fill="black" stroke="black" points="145.736,-38.1863 135.745,-34.6612 141.357,-43.6475 145.736,-38.1863"/>
</g>
<!-- 7 -->
<g id="node7" class="node"><title>7</title>
<ellipse fill="white" stroke="white" cx="97.5165" cy="-116.412" rx="18" ry="18"/>
<text text-anchor="middle" x="97.5165" y="-112.712" font-family="Junction" font-size="14.00" fill="white">7</text>
</g>
<!-- 7&#45;&gt;2 -->
<g id="edge7" class="edge"><title>7&#45;&gt;2</title>
<path fill="none" stroke="white" d="M114.876,-121.517C140.962,-129.188 190.509,-143.759 221.488,-152.869"/>
<polygon fill="white" stroke="white" points="220.64,-156.267 231.221,-155.731 222.615,-149.552 220.64,-156.267"/>
</g>
<!-- 7&#45;&gt;3 -->
<g id="edge8" class="edge"><title>7&#45;&gt;3</title>
<path fill="none" stroke="white" d="M102.055,-98.9092C105.561,-85.3918 110.477,-66.4326 114.508,-50.8885"/>
<polygon fill="white" stroke="white" points="118.007,-51.34 117.129,-40.7816 111.231,-49.5829 118.007,-51.34"/>
</g>
<!-- 7&#45;&gt;4 -->
<g id="edge9" class="edge"><title>7&#45;&gt;4</title>
<path fill="none" stroke="white" d="M85.6548,-130.3C75.2066,-142.533 59.8213,-160.546 47.7831,-174.641"/>
<polygon fill="white" stroke="white" points="44.9779,-172.536 41.1447,-182.413 50.3007,-177.082 44.9779,-172.536"/>
</g>
</g>
</svg>
