<?xml version="1.0" encoding="UTF-8"?>
<svg width="1200pt" height="1200pt" version="1.1" viewBox="0 0 1200 1200" xmlns="http://www.w3.org/2000/svg">
 <g>
  <path d="m511.11 788.89h-188.89c-6.75 0-13.137-3.0703-17.352-8.3398l-177.78-222.22c-5.3359-6.6719-6.3789-15.809-2.6758-23.508 3.7031-7.7031 11.488-12.598 20.031-12.598h188.89c6.75 0 13.137 3.0703 17.352 8.3398l177.78 222.22c5.3359 6.6719 6.3789 15.809 2.6758 23.508-3.6992 7.6992-11.488 12.598-20.031 12.598zm-178.2-44.445h131.97l-142.22-177.78h-131.97z"/>
  <path d="m700 788.89h-188.89c-6.75 0-13.137-3.0703-17.352-8.3398l-177.78-222.22c-5.3359-6.6719-6.3789-15.809-2.6758-23.508 3.6992-7.6992 11.488-12.594 20.027-12.594h188.89c6.75 0 13.137 3.0703 17.352 8.3398l177.78 222.22c5.3359 6.6719 6.3789 15.809 2.6758 23.508-3.6992 7.6953-11.484 12.594-20.027 12.594zm-178.21-44.445h131.97l-142.22-177.78h-131.97z"/>
  <path d="m888.89 788.89h-188.89c-6.75 0-13.137-3.0703-17.352-8.3398l-177.78-222.22c-5.3359-6.6719-6.3789-15.809-2.6758-23.508 3.6992-7.6992 11.488-12.594 20.027-12.594h188.89c6.75 0 13.137 3.0703 17.352 8.3398l177.78 222.22c5.3359 6.6719 6.3789 15.809 2.6758 23.508-3.6992 7.6953-11.488 12.594-20.027 12.594zm-178.21-44.445h131.97l-142.22-177.78h-131.97z"/>
  <path d="m1077.8 788.89h-188.89c-6.75 0-13.137-3.0703-17.352-8.3398l-177.78-222.22c-5.3359-6.6719-6.3789-15.809-2.6758-23.508 3.6992-7.6992 11.488-12.594 20.027-12.594h188.89c6.75 0 13.137 3.0703 17.352 8.3398l177.78 222.22c5.3359 6.6719 6.3789 15.809 2.6758 23.508-3.6992 7.6953-11.484 12.594-20.027 12.594zm-178.21-44.445h131.97l-142.22-177.78h-131.97z"/>
  <path d="m1144.4 788.89h-1088.9c-12.27 0-22.223-9.9492-22.223-22.223v-222.22c0-12.273 9.9492-22.223 22.223-22.223h1088.9c12.273 0 22.223 9.9492 22.223 22.223v222.22c0 12.27-9.9492 22.223-22.223 22.223zm-1066.7-44.445h1044.4v-177.78h-1044.4z"/>
  <path d="m511.11 455.55h-188.89c-6.75 0-13.137-3.0703-17.352-8.3398l-177.78-222.22c-5.3359-6.6719-6.3789-15.809-2.6758-23.508 3.7031-7.6992 11.488-12.594 20.031-12.594h188.89c6.75 0 13.137 3.0703 17.352 8.3398l177.78 222.22c5.3359 6.6719 6.3789 15.809 2.6758 23.508-3.6992 7.6992-11.488 12.594-20.031 12.594zm-178.2-44.445h131.97l-142.22-177.78h-131.97z"/>
  <path d="m700 455.55h-188.89c-6.75 0-13.137-3.0703-17.352-8.3398l-177.78-222.22c-5.3359-6.6719-6.3789-15.809-2.6758-23.508 3.6992-7.6992 11.488-12.594 20.027-12.594h188.89c6.75 0 13.137 3.0703 17.352 8.3398l177.78 222.22c5.3359 6.6719 6.3789 15.809 2.6758 23.508-3.6992 7.6992-11.484 12.594-20.027 12.594zm-178.21-44.445h131.97l-142.22-177.78h-131.97z"/>
  <path d="m888.89 455.55h-188.89c-6.75 0-13.137-3.0703-17.352-8.3398l-177.78-222.22c-5.3359-6.6719-6.3789-15.809-2.6758-23.508 3.6992-7.6992 11.484-12.594 20.027-12.594h188.89c6.75 0 13.137 3.0703 17.352 8.3398l177.78 222.22c5.3359 6.6719 6.3789 15.809 2.6758 23.508-3.6992 7.6992-11.488 12.594-20.027 12.594zm-178.21-44.445h131.97l-142.22-177.78h-131.97z"/>
  <path d="m1077.8 455.55h-188.89c-6.75 0-13.137-3.0703-17.352-8.3398l-177.78-222.22c-5.3359-6.6719-6.3789-15.809-2.6758-23.508 3.6992-7.6992 11.488-12.594 20.027-12.594h188.89c6.75 0 13.137 3.0703 17.352 8.3398l177.78 222.22c5.3359 6.6719 6.3789 15.809 2.6758 23.508-3.6992 7.6992-11.484 12.594-20.027 12.594zm-178.21-44.445h131.97l-142.22-177.78h-131.97z"/>
  <path d="m1144.4 455.55h-1088.9c-12.27 0-22.223-9.9492-22.223-22.223v-222.22c0-12.27 9.9492-22.223 22.223-22.223h1088.9c12.273 0 22.223 9.9492 22.223 22.223v222.22c0 12.273-9.9492 22.223-22.223 22.223zm-1066.7-44.445h1044.4v-177.78h-1044.4z"/>
  <path d="m211.11 1055.6h-111.11c-12.27 0-22.223-9.9492-22.223-22.223v-266.66c0-12.27 9.9492-22.223 22.223-22.223h111.11c12.27 0 22.223 9.9492 22.223 22.223v266.67c0 12.27-9.9492 22.219-22.223 22.219zm-88.887-44.445h66.668v-222.22h-66.668z"/>
  <path d="m211.11 566.67h-111.11c-12.27 0-22.223-9.9492-22.223-22.223v-111.11c0-12.273 9.9492-22.223 22.223-22.223h111.11c12.27 0 22.223 9.9492 22.223 22.223v111.11c0 12.273-9.9492 22.223-22.223 22.223zm-88.887-44.445h66.668v-66.668h-66.668z"/>
  <path d="m255.55 1144.4h-200c-12.27 0-22.223-9.9492-22.223-22.223v-88.891c0-12.27 9.9492-22.223 22.223-22.223h200c12.27 0 22.223 9.9492 22.223 22.223v88.891c0 12.27-9.9492 22.223-22.223 22.223zm-177.78-44.445h155.55v-44.445h-155.55z"/>
  <path d="m211.11 233.33h-111.11c-12.27 0-22.223-9.9492-22.223-22.223v-33.332c0-42.887 34.891-77.777 77.777-77.777 42.887 0 77.777 34.891 77.777 77.777v33.332c0 12.273-9.9492 22.223-22.223 22.223zm-88.887-44.441h66.668v-11.109c0-18.379-14.953-33.332-33.332-33.332s-33.332 14.953-33.332 33.332z"/>
  <path d="m1100 1055.6h-111.11c-12.27 0-22.223-9.9492-22.223-22.223v-266.66c0-12.27 9.9492-22.223 22.223-22.223h111.11c12.27 0 22.223 9.9492 22.223 22.223v266.67c0 12.27-9.9531 22.219-22.223 22.219zm-88.891-44.445h66.668v-222.22h-66.668z"/>
  <path d="m1100 566.67h-111.11c-12.27 0-22.223-9.9492-22.223-22.223v-111.11c0-12.273 9.9492-22.223 22.223-22.223h111.11c12.27 0 22.223 9.9492 22.223 22.223v111.11c0 12.273-9.9531 22.223-22.223 22.223zm-88.891-44.445h66.668v-66.668h-66.668z"/>
  <path d="m1144.4 1144.4h-200c-12.27 0-22.223-9.9492-22.223-22.223v-88.891c0-12.27 9.9492-22.223 22.223-22.223h200c12.273 0 22.223 9.9492 22.223 22.223v88.891c0 12.27-9.9492 22.223-22.223 22.223zm-177.78-44.445h155.55v-44.445h-155.55z"/>
  <path d="m1100 233.33h-111.11c-12.27 0-22.223-9.9492-22.223-22.223v-33.332c0-42.887 34.891-77.777 77.777-77.777 42.887 0 77.777 34.891 77.777 77.777v33.332c0 12.273-9.9531 22.223-22.223 22.223zm-88.891-44.441h66.668v-11.109c0-18.379-14.949-33.332-33.332-33.332-18.383 0-33.332 14.953-33.332 33.332z"/>
  <path d="m655.55 233.33h-111.11c-12.273 0-22.223-9.9492-22.223-22.223v-77.777c0-42.887 34.891-77.777 77.777-77.777s77.777 34.891 77.777 77.777v77.777c0 12.273-9.9492 22.223-22.223 22.223zm-88.887-44.441h66.668l-0.003907-55.559c0-18.379-14.949-33.332-33.332-33.332s-33.332 14.953-33.332 33.332z"/>
 </g>
</svg>
