<?xml version="1.0" encoding="UTF-8"?>
<svg width="1200pt" height="1200pt" version="1.1" viewBox="0 0 1200 1200" xmlns="http://www.w3.org/2000/svg">
 <g>
  <path d="m1050 543.75h37.5v-375c0-4.9727-1.9766-9.7422-5.4922-13.258-3.5156-3.5156-8.2852-5.4922-13.258-5.4922h-187.5v37.5h168.75z"/>
  <path d="m40.125 1031.1c0.8125 3.543 1.8984 7.0156 3.2422 10.387 0.58203 1.4258 1.4805 2.6797 2.1562 4.0508 1.3867 3.0117 2.9688 5.9219 4.7461 8.7188 2.5625 3.7578 5.4531 7.2773 8.6445 10.52 0.22656 0.22656 0.35547 0.48828 0.58203 0.69531 0.22656 0.20703 0.46875 0.35547 0.69531 0.58203l-0.003906-0.003906c3.2422 3.1914 6.7617 6.082 10.52 8.6445 2.7969 1.7773 5.707 3.3594 8.7188 4.7461 1.3672 0.67578 2.625 1.5742 4.0508 2.1562 3.3711 1.3438 6.8438 2.4297 10.387 3.2422 1.2578 0.32031 2.3984 0.86328 3.75 1.1055 4.8984 1.0039 9.8867 1.5117 14.887 1.5195h431.25v-37.5h-431.25c-2.5195 0-5.0312-0.25-7.5-0.75-0.86328-0.16797-1.668-0.52344-2.5117-0.76953-1.5312-0.36328-3.0352-0.83203-4.5-1.4062-1.2891-0.57812-2.543-1.2383-3.75-1.9688-0.88281-0.50781-1.875-0.89844-2.6641-1.4453v0.003906c-4.0742-2.75-7.582-6.2578-10.332-10.332-0.54297-0.84375-0.9375-1.7812-1.4453-2.6641h0.003906c-0.73047-1.207-1.3906-2.4609-1.9688-3.75-0.57422-1.4648-1.043-2.9688-1.4062-4.5-0.24219-0.84375-0.60156-1.6484-0.76953-2.5117-2.2227-11.035 0.62891-22.488 7.7695-31.191s17.816-13.738 29.074-13.715h56.25c4.9727 0 9.7422-1.9766 13.258-5.4922 3.5156-3.5156 5.4922-8.2852 5.4922-13.258v-768.75h468.75v-37.5h-468.75v-93.75c0-4.9727-1.9766-9.7422-5.4922-13.258-3.5156-3.5156-8.2852-5.4922-13.258-5.4922h-56.25c-19.891 0-38.969 7.9023-53.031 21.969-14.066 14.062-21.969 33.141-21.969 53.031v900c0 5.0391 0.50781 10.062 1.5195 15 0.24219 1.2383 0.78516 2.3828 1.1055 3.6367zm34.875-806.14v-112.5c0-9.9453 3.9492-19.484 10.984-26.516 7.0312-7.0352 16.57-10.984 26.516-10.984h37.5v862.5h-37.5c-13.172-0.019531-26.109 3.4531-37.5 10.07z"/>
  <path d="m675 900c4.9727 0 9.7422-1.9766 13.258-5.4922 3.5156-3.5156 5.4922-8.2852 5.4922-13.258 0.16406-34.801-13.684-68.203-38.418-92.68-15.316-15.578-34.363-26.98-55.332-33.113v-61.707h18.75c4.9727 0 9.7422-1.9766 13.258-5.4922 3.5156-3.5156 5.4922-8.2852 5.4922-13.258v-75c0-4.9727-1.9766-9.7422-5.4922-13.258-3.5156-3.5156-8.2852-5.4922-13.258-5.4922h-18.75v-75h-110.62c4.3477-21.164 15.863-40.18 32.598-53.84 16.738-13.664 37.672-21.137 59.277-21.16h18.75v-56.25h56.25v-37.5h-56.25v-56.25c0-4.9727-1.9766-9.7422-5.4922-13.258-3.5156-3.5156-8.2852-5.4922-13.258-5.4922h-318.75c-4.9727 0-9.7422 1.9766-13.258 5.4922-3.5156 3.5156-5.4922 8.2852-5.4922 13.258v675c0 4.9727 1.9766 9.7422 5.4922 13.258 3.5156 3.5156 8.2852 5.4922 13.258 5.4922h93.75v-91.875c21.164 4.3477 40.18 15.863 53.84 32.598 13.664 16.738 21.137 37.672 21.16 59.277h225v-37.5h-56.25v-37.5zm-75-281.25v37.5h-37.5v-37.5zm-318.75-318.75h37.5v37.5h-37.5zm0 75h56.25c4.9727 0 9.7422-1.9766 13.258-5.4922 3.5156-3.5156 5.4922-8.2852 5.4922-13.258v-56.25h206.25v95.25c-31.211 4.5039-59.758 20.098-80.414 43.922-20.66 23.828-32.051 54.293-32.086 85.828 0 4.9727 1.9766 9.7422 5.4922 13.258 3.5156 3.5156 8.2852 5.4922 13.258 5.4922h93.75v37.5h-18.75c-4.9727 0-9.7422 1.9766-13.258 5.4922-3.5156 3.5156-5.4922 8.2852-5.4922 13.258v18.75h-168.75v-18.75c0-4.9727-1.9766-9.7422-5.4922-13.258-3.5156-3.5156-8.2852-5.4922-13.258-5.4922h-56.25zm0 243.75h37.5v37.5h-37.5zm37.5 318.75h-37.5v-37.5h37.5zm262.5-75c-4.9727 0-9.7422 1.9766-13.258 5.4922-3.5156 3.5156-5.4922 8.2852-5.4922 13.258v56.25h-99.375c-8.0938-27.047-24.68-50.77-47.305-67.656-22.625-16.883-50.09-26.035-78.32-26.094-4.9727 0-9.7422 1.9766-13.258 5.4922-3.5156 3.5156-5.4922 8.2852-5.4922 13.258h-37.5v-168.75h56.25c4.9727 0 9.7422-1.9766 13.258-5.4922 3.5156-3.5156 5.4922-8.2852 5.4922-13.258v-18.75h168.75v18.75c0 4.9727 1.9766 9.7422 5.4922 13.258 3.5156 3.5156 8.2852 5.4922 13.258 5.4922h18.75v76.688c0 4.4648 1.5898 8.7812 4.4883 12.176 2.8945 3.3984 6.9102 5.6484 11.316 6.3477 19.199 3.0547 36.902 12.207 50.496 26.102 13.074 12.902 21.984 29.426 25.574 47.438z"/>
  <path d="m900 450h56.25v187.5h37.5v-281.25c0-4.9727-1.9766-9.7422-5.4922-13.258-3.5156-3.5156-8.2852-5.4922-13.258-5.4922h-75c-4.9727 0-9.7422 1.9766-13.258 5.4922-3.5156 3.5156-5.4922 8.2852-5.4922 13.258v75c0 4.9727 1.9766 9.7422 5.4922 13.258 3.5156 3.5156 8.2852 5.4922 13.258 5.4922zm18.75-75h37.5v37.5h-37.5z"/>
  <path d="m1150.9 545.18c-3.4258-1.4219-7.1953-1.793-10.836-1.0664-3.6367 0.72266-6.9766 2.5117-9.6016 5.1328l-581.25 581.25c-3.5117 3.5195-5.4883 8.2852-5.4883 13.258s1.9766 9.7422 5.4922 13.258c3.5156 3.5156 8.2812 5.4922 13.254 5.4922h581.25c4.9727 0 9.7422-1.9766 13.258-5.4922 3.5156-3.5156 5.4922-8.2852 5.4922-13.258v-581.25c0-3.707-1.0977-7.332-3.1562-10.418-2.0586-3.082-4.9883-5.4883-8.4141-6.9062zm-25.93 579.82h-517.24l517.24-517.24z"/>
  <path d="m826.43 1038.4c1.418 3.4258 3.8242 6.3555 6.9062 8.4141 3.0859 2.0586 6.7109 3.1562 10.418 3.1562h187.5c4.9727 0 9.7422-1.9766 13.258-5.4922 3.5156-3.5156 5.4922-8.2852 5.4922-13.258v-187.5c0-4.9727-1.9766-9.7383-5.4922-13.254-3.5156-3.5156-8.2852-5.4922-13.258-5.4922s-9.7383 1.9766-13.258 5.4883l-187.5 187.5c-2.6211 2.625-4.4102 5.9648-5.1328 9.6016-0.72656 3.6406-0.35547 7.4102 1.0664 10.836zm186.07-149.42v123.49h-123.49z"/>
  <path d="m752.68 722.16c3.3906 5.6406 9.4922 9.0859 16.07 9.0859s12.68-3.4453 16.07-9.0859l56.25-93.75c1.75-2.9141 2.6797-6.2539 2.6797-9.6562v-506.25c0-26.793-14.293-51.555-37.5-64.953-23.207-13.395-51.793-13.395-75 0-23.207 13.398-37.5 38.16-37.5 64.953v506.25c0 3.4023 0.92969 6.7422 2.6797 9.6562zm16.07-46.105-23.137-38.551h46.273zm-37.5-563.55c0-13.398 7.1484-25.777 18.75-32.477 11.602-6.6992 25.898-6.6992 37.5 0 11.602 6.6992 18.75 19.078 18.75 32.477v37.5h-75zm0 75h75v412.5h-75z"/>
 </g>
</svg>
