<?xml version="1.0" encoding="UTF-8"?>
<svg width="1200pt" height="1200pt" version="1.1" viewBox="0 0 1200 1200" xmlns="http://www.w3.org/2000/svg">
 <g>
  <path d="m600 176.04c-112.44 0-220.28 44.668-299.79 124.18-79.508 79.508-124.18 187.34-124.18 299.79s44.668 220.28 124.18 299.79c79.508 79.508 187.34 124.18 299.79 124.18s220.28-44.668 299.79-124.18c79.508-79.508 124.18-187.34 124.18-299.79-0.12891-112.4-44.836-220.16-124.32-299.64s-187.24-124.19-299.64-124.32zm0 800.04c-99.703 0-195.32-39.602-265.83-110.1-70.508-70.496-110.12-166.11-110.13-265.82-0.007812-99.703 39.586-195.33 110.07-265.84 70.492-70.516 166.1-110.14 265.81-110.16 99.703-0.019531 195.33 39.562 265.85 110.05 70.52 70.48 110.16 166.09 110.19 265.79-0.12891 99.672-39.777 195.23-110.26 265.7-70.477 70.48-166.03 110.13-265.7 110.26z"/>
  <path d="m600 659.16c-48.242 0.11719-95.77 11.676-138.68 33.723-42.91 22.051-79.977 53.961-108.16 93.117-5.0156 6.9648-5.9336 16.082-2.4102 23.906 3.5273 7.8281 10.961 13.18 19.5 14.043 8.543 0.85938 16.895-2.9023 21.91-9.8711 31.672-44.258 76.637-77.258 128.36-94.199s107.49-16.941 159.21 0 96.684 49.941 128.35 94.199c3.7266 5.1719 9.3516 8.6523 15.641 9.6797 6.2891 1.0234 12.73-0.49609 17.902-4.2188 5.1719-3.7227 8.6523-9.3477 9.6758-15.637 1.0234-6.293-0.49219-12.73-4.2188-17.902-28.203-39.188-65.312-71.121-108.27-93.172s-90.527-33.59-138.81-33.668z"/>
  <path d="m725.52 541.08c4.5039 4.5078 10.609 7.0391 16.98 7.0391s12.477-2.5312 16.98-7.0391l22.441-22.441 22.078 22.441c6.0664 6.0664 14.91 8.4375 23.195 6.2188 8.2852-2.2227 14.758-8.6953 16.98-16.98 2.2188-8.2891-0.14844-17.129-6.2148-23.195l-21.961-22.441 22.441-22.441c6.0664-6.1523 8.3867-15.07 6.0938-23.402-2.293-8.3281-8.8594-14.801-17.219-16.98-8.3633-2.1758-17.25 0.27344-23.316 6.4258l-22.441 22.441-22.441-22.441h0.003906c-6.0664-6.0664-14.91-8.4375-23.195-6.2148-8.2891 2.2188-14.762 8.6914-16.98 16.977-2.2227 8.2891 0.14844 17.129 6.2148 23.195l22.441 22.441-22.441 22.441c-4.4609 4.5469-6.9258 10.684-6.8594 17.055 0.066407 6.3672 2.6641 12.449 7.2188 16.902z"/>
  <path d="m361.68 541.08c4.5 4.5078 10.609 7.0391 16.98 7.0391s12.477-2.5312 16.98-7.0391l22.441-22.441 22.441 22.441h-0.003907c6.0664 6.0664 14.91 8.4375 23.195 6.2188 8.2852-2.2227 14.762-8.6953 16.98-16.98 2.2188-8.2891-0.14844-17.129-6.2148-23.195l-22.441-22.441 22.441-22.441c6.0664-6.0664 8.4336-14.906 6.2148-23.195-2.2188-8.2852-8.6953-14.758-16.98-16.977-8.2852-2.2227-17.129 0.14844-23.195 6.2148l-22.441 22.441-22.078-22.441c-6.0664-6.0664-14.91-8.4375-23.195-6.2148-8.2852 2.2188-14.758 8.6914-16.98 16.977-2.2188 8.2891 0.14844 17.129 6.2148 23.195l21.961 22.441-22.441 22.441c-4.4883 4.5156-7 10.633-6.9766 17.004 0.023438 6.3711 2.5742 12.469 7.0977 16.953z"/>
 </g>
</svg>
