<svg height='100px' width='100px'  fill="#052d69" xmlns="http://www.w3.org/2000/svg" xmlns:xlink="http://www.w3.org/1999/xlink" version="1.1" x="0px" y="0px" viewBox="0 0 100 100" style="enable-background:new 0 0 100 100;" xml:space="preserve"><g><path d="M50,5C25.1,5,5,25.1,5,50c0,24.9,20.1,45,45,45s45-20.1,45-45C95,25.1,74.9,5,50,5z M66.1,66.4c-0.3,0.3-0.7,0.4-1.1,0.4   s-0.8-0.1-1.1-0.4L48.2,50.6V24.8c0-0.8,0.7-1.5,1.5-1.5s1.5,0.7,1.5,1.5v24.5l14.9,14.9C66.7,64.9,66.7,65.8,66.1,66.4z"></path></g></svg>