<?xml version="1.0" encoding="UTF-8"?>
<!DOCTYPE svg PUBLIC "-//W3C//DTD SVG 1.1//EN"
    "http://www.w3.org/Graphics/SVG/1.1/DTD/svg11.dtd"><svg xmlns="http://www.w3.org/2000/svg" height="213.0272" stroke-opacity="1" viewBox="0 0 400 213" font-size="1" width="400.0000" xmlns:xlink="http://www.w3.org/1999/xlink" stroke="rgb(0,0,0)" version="1.1"><defs></defs><g stroke-linejoin="miter" stroke-opacity="1.0" fill-opacity="0.0" stroke="rgb(0,0,0)" stroke-width="1.1676359934516398" fill="rgb(0,0,0)" stroke-linecap="butt" stroke-miterlimit="10.0"><path d="M 400.0000,202.3758 v -191.7244 c 0.0000,-5.8826 -4.7688,-10.6514 -10.6514 -10.6514h -378.6973 c -5.8826,-0.0000 -10.6514,4.7688 -10.6514 10.6514v 191.7244 c -0.0000,5.8826 4.7688,10.6514 10.6514 10.6514h 378.6973 c 5.8826,0.0000 10.6514,-4.7688 10.6514 -10.6514Z"/></g><g stroke-linejoin="miter" stroke-opacity="1.0" fill-opacity="1.0" stroke="rgb(0,0,0)" stroke-width="0.0" fill="rgb(255,255,255)" stroke-linecap="butt" stroke-miterlimit="10.0"><path d="M 53.2568,132.2146 ZM 69.7726,81.4308 v 17.8406 h 6.9773 c 7.3305,-0.0000 13.1596,-2.9146 13.1596 -10.4217c 0.0000,-9.0086 -7.0656,-10.5984 -12.0115 -10.5984c -7.6838,-0.0000 -8.1254,0.2650 -8.1254 3.1795ZM 69.7726,81.4308 ZM 69.7726,102.3626 v 23.4930 c 0.0000,2.9146 0.6182,3.4445 7.7721 3.4445c 13.4246,-0.0000 16.5158,-8.0371 16.5158 -13.4246c 0.0000,-7.9488 -5.6525,-13.5129 -15.9859 -13.5129h -8.3021 ZM 69.7726,102.3626 ZM 54.7582,130.4482 c 0.0000,-0.4416 0.1766,-0.7066 0.6182 -0.7066h 2.6496 c 3.5328,-0.0000 4.5926,-0.9715 4.5926 -4.0627v -44.1599 c 0.0000,-3.0029 -0.8832,-3.8861 -4.5926 -3.8861h -2.6496 c -0.4416,-0.0000 -0.6182,-0.2650 -0.6182 -0.6182v -1.7664 l 0.1766,-0.0883 l 11.2166,0.0883 c 0.0000,-0.0000 8.0371,-0.0883 11.1283 -0.0883c 16.4275,-0.0000 19.4303,7.5955 19.4303 13.5129c 0.0000,4.8576 -3.7094,9.6268 -8.2137 11.8348c 9.3619,2.1197 13.4246,8.1254 13.4246 16.3391c 0.0000,7.5955 -5.1225,15.4560 -22.6982 15.4560c -6.3590,-0.0000 -13.0713,-0.1766 -13.0713 -0.1766l -11.2166,0.1766 l -0.1766,-0.1766 v -1.6781 ZM 105.5421,132.2146 ZM 131.2431,110.5763 l -6.9773,1.7664 c -7.7721,2.3846 -8.9203,6.4473 -8.9203 10.4217c 0.0000,2.7379 1.3248,6.8889 6.8889 6.8889c 2.6496,-0.0000 6.7123,-2.5613 9.0086 -4.5043v -14.5728 ZM 131.2431,110.5763 ZM 136.8956,133.2745 c -3.3561,-0.0000 -5.2109,-3.0029 -5.5641 -5.1225l -2.0314,1.4131 c -4.0627,2.8262 -5.5641,3.7094 -9.6268 3.7094c -6.1824,-0.0000 -10.6867,-3.5328 -10.6867 -10.1568c 0.0000,-6.7123 5.7408,-11.3049 14.1312 -13.4246l 8.1254,-2.0314 c 0.0000,-9.9801 -4.5926,-11.8348 -7.5955 -11.8348c -3.3561,-0.0000 -7.2422,1.5014 -7.2422 4.2393c 0.0000,0.9715 0.1766,1.5014 0.2650 1.7664c 0.1766,0.3533 0.2650,0.9715 0.2650 1.5898c 0.0000,1.1482 -0.8832,2.9146 -3.4445 2.9146c -2.1197,-0.0000 -3.5328,-1.4131 -3.5328 -3.5328c 0.0000,-5.1225 8.3021,-9.6268 13.9545 -9.6268c 6.4473,-0.0000 13.8662,2.6496 13.8662 15.1910v 12.9830 c 0.0000,5.3875 0.0883,7.6838 2.1197 7.6838c 1.9430,-0.0000 2.4730,-2.4730 2.5613 -4.4160l 2.2080,0.4416 c -0.5299,6.4473 -3.2678,8.2137 -7.7721 8.2137ZM 145.3743,132.2146 ZM 191.9187,114.1091 v 11.7465 c 0.0000,2.5613 0.9715,3.8861 3.7977 3.8861h 0.1766 c 0.4416,-0.0000 0.7949,0.2650 0.7949 0.7066v 1.6781 l -0.1766,0.1766 c 0.0000,-0.0000 -4.5926,-0.1766 -8.0371 -0.1766c -3.0912,-0.0000 -9.0969,0.1766 -9.0969 0.1766l -0.1766,-0.1766 v -1.6781 c 0.0000,-0.4416 0.2650,-0.7066 0.7066 -0.7066h 1.6781 c 2.9146,-0.0000 3.7977,-1.3248 3.7977 -3.8861v -44.6898 c 0.0000,-4.1510 -0.8832,-6.0057 -2.6496 -6.0057c 0.0000,-0.0000 -1.3248,0.1766 -2.2080 0.2650c -0.2650,-0.0000 -0.6182,0.0883 -0.7066 0.0883c -0.2650,-0.0000 -0.4416,-0.2650 -0.4416 -0.4416l -0.1766,-2.2080 c 1.4131,-0.0000 4.6809,-0.5299 6.1824 -0.7949c 1.5898,-0.3533 2.8262,-0.7066 4.5926 -1.5014h 1.9430 v 40.8037 c 3.8861,-1.9430 6.8006,-4.6809 11.6582 -9.8035c 1.3248,-1.4131 1.7664,-2.5613 1.7664 -3.4445c 0.0000,-0.7066 -0.5299,-1.4131 -2.6496 -1.4131h -0.2650 c -0.4416,-0.0000 -0.7949,-0.3533 -0.7949 -0.7066v -1.6781 l 0.2650,-0.1766 c 0.0000,-0.0000 4.2393,0.1766 7.3305 0.1766c 3.4445,-0.0000 8.2137,-0.1766 8.2137 -0.1766l 0.3533,0.1766 v 1.6781 c 0.0000,0.4416 -0.5299,0.7066 -0.8832 0.7066h -0.7066 c -2.3846,-0.0000 -6.2707,1.9430 -8.3904 4.2393l -6.8006,7.4189 c -0.2650,0.2650 -0.3533,0.5299 -0.3533 0.8832c 0.0000,0.4416 0.1766,0.8832 0.4416 1.2365l 10.4217,15.2793 c 1.5898,2.3846 4.3277,3.9744 6.5357 3.9744h 0.2650 c 0.6182,-0.0000 1.1482,0.2650 1.1482 0.7066v 1.5898 l -0.1766,0.2650 c 0.0000,-0.0000 -4.4160,-0.1766 -7.8605 -0.1766c -3.1795,-0.0000 -5.4758,0.1766 -5.4758 0.1766l -0.2650,-0.3533 v -1.5014 c 0.0000,-1.0598 -0.2650,-2.1197 -2.0314 -4.6809l -6.5357,-9.0969 c -1.1482,-1.6781 -2.2080,-3.1795 -4.2393 -3.1795c -0.3533,-0.0000 -0.6182,-0.0000 -0.9715 0.0883v 0.5299 ZM 191.9187,114.1091 ZM 178.4058,123.9126 c -3.8861,6.7123 -8.1254,9.0969 -13.3363 9.0969c -10.5984,-0.0000 -16.4275,-8.1254 -16.4275 -19.5187c 0.0000,-12.5414 7.0656,-20.4902 16.5158 -20.4902c 8.4787,-0.0000 12.9830,4.3277 12.9830 9.0086c 0.0000,2.6496 -1.5898,3.8861 -3.3561 3.8861c -1.9430,-0.0000 -3.7094,-0.9715 -3.9744 -3.0912c -0.2650,-3.0029 -0.8832,-6.8006 -6.0941 -6.8006c -5.8291,-0.0000 -9.2736,6.0057 -9.2736 15.5443c 0.0000,10.3334 4.6809,17.5756 11.5699 17.5756c 3.7977,-0.0000 7.0656,-2.4730 9.8035 -6.4473ZM 219.3862,132.2146 ZM 229.4546,107.7501 h 16.2508 c 0.8832,-0.0000 1.2365,-0.4416 1.2365 -1.2365c 0.0000,-8.2137 -4.1510,-10.3334 -7.3305 -10.3334c -2.0314,-0.0000 -8.6553,0.7949 -10.1568 11.5699ZM 229.4546,107.7501 ZM 252.7710,124.0009 l 1.7664,1.4131 c -3.3561,4.5926 -8.5670,7.8605 -14.9260 7.8605c -12.0998,-0.0000 -17.2223,-9.0086 -17.2223 -18.6355c 0.0000,-13.4246 8.8320,-21.4617 17.2223 -21.4617c 11.6582,-0.0000 14.3961,9.0969 14.3961 16.5158c 0.0000,0.9715 -0.6182,1.5014 -1.5898 1.5014h -23.2281 c -0.0883,0.5299 -0.0883,1.0598 -0.0883 1.7664c 0.0000,9.0086 6.2707,15.9859 12.6297 15.9859c 4.8576,-0.0000 7.9488,-1.5898 11.0400 -4.9459ZM 257.1870,132.2146 ZM 289.3354,125.8556 v -19.3420 c 0.0000,-6.1824 -1.0598,-9.0969 -5.7408 -9.0969c -3.8861,-0.0000 -7.2422,1.5014 -11.7465 6.8006v 21.6383 c 0.0000,2.5613 0.8832,3.8861 3.7977 3.8861h 1.2365 c 0.4416,-0.0000 0.7066,0.2650 0.7066 0.7066v 1.6781 l -0.1766,0.1766 c 0.0000,-0.0000 -5.5641,-0.1766 -9.0086 -0.1766c -3.1795,-0.0000 -9.1853,0.1766 -9.1853 0.1766l -0.1766,-0.1766 v -1.6781 c 0.0000,-0.4416 0.2650,-0.7066 0.7066 -0.7066h 1.6781 c 3.0029,-0.0000 3.7977,-1.3248 3.7977 -3.8861v -21.9916 c 0.0000,-4.7693 -0.7066,-5.3875 -1.9430 -5.3875c -1.1482,-0.0000 -2.2080,0.0883 -3.7094 0.4416l -0.4416,-2.4730 c 3.7094,-0.6182 6.3590,-1.0598 9.0969 -2.5613c 0.9715,-0.4416 1.6781,-0.7066 2.2963 -0.7066h 1.3248 l -0.2650,7.8605 h 0.2650 c 5.6525,-6.6240 9.8918,-7.8605 14.3961 -7.8605c 7.9488,-0.0000 9.6268,6.0941 9.6268 13.9545v 18.7238 c 0.0000,2.5613 0.9715,3.8861 3.7977 3.8861h 1.6781 c 0.4416,-0.0000 0.7949,0.2650 0.7949 0.7066v 1.6781 l -0.1766,0.1766 c 0.0000,-0.0000 -6.0941,-0.1766 -9.5385 -0.1766c -3.0912,-0.0000 -8.6553,0.1766 -8.6553 0.1766l -0.1766,-0.1766 v -1.6781 c 0.0000,-0.4416 0.2650,-0.7066 0.7066 -0.7066h 1.2365 c 2.9146,-0.0000 3.7977,-1.3248 3.7977 -3.8861ZM 303.1133,132.2146 ZM 332.6121,124.3542 v -22.8748 c -2.1197,-3.3561 -4.5043,-5.2109 -8.6553 -5.2109c -1.7664,-0.0000 -5.3875,0.2650 -8.2137 4.4160c -1.2365,1.8547 -2.7379,5.6525 -2.7379 12.0115c 0.0000,11.5699 6.0057,16.8691 10.7750 16.8691c 2.9146,-0.0000 5.2992,-1.7664 8.8320 -5.2109ZM 332.6121,124.3542 ZM 339.2360,70.5675 v 51.0488 c 0.0000,2.6496 0.1766,4.0627 0.3533 4.6809c 0.2650,0.7949 1.2365,1.3248 1.9430 1.3248c 1.0598,-0.0000 3.0029,-0.0000 4.3277 -0.2650l 0.3533,2.4730 c -5.1225,0.8832 -9.7152,1.8547 -11.5699 3.4445h -2.1197 l 0.2650,-6.0941 c -3.3561,3.4445 -6.8006,6.0941 -11.3049 6.0941c -9.5385,-0.0000 -15.3676,-8.1254 -15.3676 -18.9887c 0.0000,-6.5357 1.7664,-12.0115 5.5641 -15.8092c 3.5328,-3.3561 7.4189,-5.2992 13.2480 -5.2992c 1.7664,-0.0000 5.6525,0.7949 7.6838 1.9430v -13.5129 c 0.0000,-5.0342 -0.7949,-6.4473 -2.5613 -6.4473l -2.9146,0.3533 c -0.1766,-0.0000 -0.4416,-0.1766 -0.4416 -0.4416l -0.1766,-2.2080 c 1.4131,-0.0000 4.5926,-0.5299 6.0941 -0.7949c 1.6781,-0.3533 2.9146,-0.7066 4.6809 -1.5014h 1.9430 Z"/></g></svg>