<?xml version="1.0" encoding="UTF-8"?>
<!DOCTYPE svg PUBLIC "-//W3C//DTD SVG 1.1//EN"
    "http://www.w3.org/Graphics/SVG/1.1/DTD/svg11.dtd"><svg xmlns="http://www.w3.org/2000/svg" height="600.0000" stroke-opacity="1" viewBox="0 0 800 600" font-size="1" width="800.0000" xmlns:xlink="http://www.w3.org/1999/xlink" stroke="rgb(0,0,0)" version="1.1"><defs></defs><g stroke-linejoin="bevel" stroke-opacity="0.0" fill-opacity="1.0" stroke="rgb(0,0,0)" stroke-width="0.0" fill="rgb(255,255,255)" stroke-linecap="butt" stroke-miterlimit="10.0"><path d="M 0.0000,0.0000 v 600.0000 h 800.0000 v -600.0000 Z"/></g><g stroke-linejoin="bevel" stroke-opacity="0.0" fill-opacity="1.0" stroke="rgb(0,0,0)" stroke-width="0.0" fill="rgb(5,45,105)" stroke-linecap="butt" stroke-miterlimit="10.0"><defs><clipPath id="myClip1"><path d="M 62.0000,10.0000 v 528.0000 h 725.6261 v -528.0000 Z"/></clipPath></defs><g clip-path="url(#myClip1)"><path d="M 67.0000,538.0000 v -410.6667 h 135.1252 v 410.6667 Z"/></g></g><g stroke-linejoin="bevel" stroke-opacity="0.0" fill-opacity="1.0" stroke="rgb(0,0,0)" stroke-width="0.0" fill="rgb(5,45,105)" stroke-linecap="butt" stroke-miterlimit="10.0"><defs><clipPath id="myClip2"><path d="M 62.0000,10.0000 v 528.0000 h 725.6261 v -528.0000 Z"/></clipPath></defs><g clip-path="url(#myClip2)"><path d="M 212.1252,538.0000 v -410.6667 h 135.1252 v 410.6667 Z"/></g></g><g stroke-linejoin="bevel" stroke-opacity="0.0" fill-opacity="1.0" stroke="rgb(0,0,0)" stroke-width="0.0" fill="rgb(5,45,105)" stroke-linecap="butt" stroke-miterlimit="10.0"><defs><clipPath id="myClip3"><path d="M 62.0000,10.0000 v 528.0000 h 725.6261 v -528.0000 Z"/></clipPath></defs><g clip-path="url(#myClip3)"><path d="M 357.2504,538.0000 v -469.3333 h 135.1252 v 469.3333 Z"/></g></g><g stroke-linejoin="bevel" stroke-opacity="0.0" fill-opacity="1.0" stroke="rgb(0,0,0)" stroke-width="0.0" fill="rgb(5,45,105)" stroke-linecap="butt" stroke-miterlimit="10.0"><defs><clipPath id="myClip4"><path d="M 62.0000,10.0000 v 528.0000 h 725.6261 v -528.0000 Z"/></clipPath></defs><g clip-path="url(#myClip4)"><path d="M 502.3756,538.0000 v -410.6667 h 135.1252 v 410.6667 Z"/></g></g><g stroke-linejoin="bevel" stroke-opacity="0.0" fill-opacity="1.0" stroke="rgb(0,0,0)" stroke-width="0.0" fill="rgb(5,45,105)" stroke-linecap="butt" stroke-miterlimit="10.0"><defs><clipPath id="myClip5"><path d="M 62.0000,10.0000 v 528.0000 h 725.6261 v -528.0000 Z"/></clipPath></defs><g clip-path="url(#myClip5)"><path d="M 647.5008,538.0000 v -410.6667 h 135.1252 v 410.6667 Z"/></g></g><g stroke-linejoin="bevel" stroke-opacity="0.0" fill-opacity="1.0" stroke="rgb(0,0,0)" stroke-width="0.0" fill="rgb(0,0,0)" stroke-linecap="butt" stroke-miterlimit="10.0"><path d="M 42.0000,287.6134 ZM 19.9496,284.5882 l -0.0000,-6.7563 c -0.0000,-1.8151 0.3361,-3.3277 0.3361 -3.3277c 0.3361,-1.5126 1.0924,-2.5714 1.0924 -2.5714c 0.7563,-1.0588 2.0000,-1.6471 2.0000 -1.6471c 1.2437,-0.5882 3.0588,-0.5882 3.0588 -0.5882c 1.7479,-0.0000 3.0252,0.5882 3.0252 0.5882c 1.2773,0.5882 2.1176,1.6639 2.1176 1.6639c 0.8403,1.0756 1.2605,2.5714 1.2605 2.5714c 0.4202,1.4958 0.4202,3.3109 0.4202 3.3109l 0.0000,3.9664 l 8.7395,-0.0000 l 0.0000,2.7899 l -22.0504,0.0000 ZM 19.9496,284.5882 ZM 30.9748,278.1681 c -0.0000,-2.8908 -1.0924,-4.2857 -1.0924 -4.2857c -1.0924,-1.3950 -3.4454,-1.3950 -3.4454 -1.3950c -2.3866,0.0000 -3.3109,1.4118 -3.3109 1.4118c -0.9244,1.4118 -0.9244,4.2689 -0.9244 4.2689l 0.0000,3.6303 l 8.7731,-0.0000 l -0.0000,-3.6303 ZM 42.0000,268.2521 ZM 47.9160,261.0588 c -3.3613,2.0840 -7.0924,3.2605 -7.0924 3.2605c -3.7311,1.1765 -8.1681,1.1765 -8.1681 1.1765c -4.4370,0.0000 -8.1513,-1.1765 -8.1513 -1.1765c -3.7143,-1.1765 -7.1092,-3.2605 -7.1092 -3.2605l 0.8067,-1.7143 c 3.2269,1.9496 6.9076,2.9076 6.9076 2.9076c 3.6807,0.9580 7.5462,0.9580 7.5462 0.9580c 3.8655,-0.0000 7.5462,-0.9580 7.5462 -0.9580c 3.6807,-0.9580 6.9076,-2.9076 6.9076 -2.9076l 0.8067,1.7143 h 0.0000 ZM 42.0000,258.0672 ZM 33.4622,252.2521 l -7.7983,4.9412 l -0.0000,-2.9916 l 3.5966,-2.1849 c 0.6723,-0.3697 1.3613,-0.7731 1.3613 -0.7731c 0.6891,-0.4034 1.3613,-0.8403 1.3613 -0.8403l -0.0000,-0.1345 c -0.6723,-0.3697 -1.3613,-0.7395 -1.3613 -0.7395c -0.6891,-0.3697 -1.3613,-0.7395 -1.3613 -0.7395l -3.5966,-1.9832 l -0.0000,-2.8908 l 8.1008,4.9412 l 8.2353,-5.3109 l 0.0000,2.9916 l -3.7983,2.3866 l -1.4790,0.8739 c 0.0000,0.0000 -1.4454,0.9076 -1.4454 0.9076l 0.0000,0.1345 c 0.7059,0.4370 1.4286,0.8403 1.4286 0.8403c 0.7227,0.4034 1.4958,0.8067 1.4958 0.8067l 3.7983,2.2185 l 0.0000,2.8908 ZM 42.0000,243.0756 ZM 47.1092,241.7983 c -3.2269,-1.9496 -6.9076,-2.9076 -6.9076 -2.9076c -3.6807,-0.9580 -7.5462,-0.9580 -7.5462 -0.9580c -3.8655,0.0000 -7.5462,0.9580 -7.5462 0.9580c -3.6807,0.9580 -6.9076,2.9076 -6.9076 2.9076l -0.8067,-1.7143 c 3.3950,-2.0840 7.1092,-3.2605 7.1092 -3.2605c 3.7143,-1.1765 8.1513,-1.1765 8.1513 -1.1765c 4.4370,-0.0000 8.1681,1.1765 8.1681 1.1765c 3.7311,1.1765 7.0924,3.2605 7.0924 3.2605l -0.8067,1.7143 h 0.0000 Z"/></g><g stroke-linejoin="miter" stroke-opacity="1.0" fill-opacity="0.0" stroke="rgb(0,0,0)" stroke-width="0.9999999999999997" fill="rgb(0,0,0)" stroke-linecap="square" stroke-miterlimit="10.0"><path d="M 62.0000,538.0000 v -528.0000 "/></g><g stroke-linejoin="miter" stroke-opacity="1.0" fill-opacity="0.0" stroke="rgb(0,0,0)" stroke-width="0.9999999999999997" fill="rgb(0,0,0)" stroke-linecap="square" stroke-miterlimit="10.0"><path d="M 62.0000,538.0000 h 725.6261 "/></g><g stroke-linejoin="bevel" stroke-opacity="0.0" fill-opacity="0.0" stroke="rgb(0,0,0)" stroke-width="0.0" fill="rgb(0,0,0)" stroke-linecap="butt" stroke-miterlimit="10.0"><path d="M 132.4145,558.0000 ZM 135.0300,558.1261 c -1.0189,-0.0000 -1.5861,-0.9034 -1.5861 -0.9034c -0.5672,-0.9034 -0.5672,-2.5945 -0.5672 -2.5945c 0.0000,-1.6912 0.5672,-2.5735 0.5672 -2.5735c 0.5672,-0.8824 1.5861,-0.8824 1.5861 -0.8824c 1.0084,0.0000 1.5756,0.8824 1.5756 0.8824c 0.5672,0.8824 0.5672,2.5735 0.5672 2.5735c 0.0000,1.6912 -0.5672,2.5945 -0.5672 2.5945c -0.5672,0.9034 -1.5756,0.9034 -1.5756 0.9034ZM 135.0300,558.1261 ZM 135.0300,557.4328 c 0.2941,0.0000 0.5305,-0.1628 0.5305 -0.1628c 0.2363,-0.1628 0.4097,-0.5042 0.4097 -0.5042c 0.1733,-0.3414 0.2679,-0.8718 0.2679 -0.8718c 0.0945,-0.5305 0.0945,-1.2658 0.0945 -1.2658c 0.0000,-0.7353 -0.0945,-1.2605 -0.0945 -1.2605c -0.0945,-0.5252 -0.2679,-0.8561 -0.2679 -0.8561c -0.1733,-0.3309 -0.4097,-0.4884 -0.4097 -0.4884c -0.2363,-0.1576 -0.5305,-0.1576 -0.5305 -0.1576c -0.2941,-0.0000 -0.5357,0.1576 -0.5357 0.1576c -0.2416,0.1576 -0.4149,0.4884 -0.4149 0.4884c -0.1733,0.3309 -0.2679,0.8561 -0.2679 0.8561c -0.0945,0.5252 -0.0945,1.2605 -0.0945 1.2605c 0.0000,1.4706 0.3624,2.1376 0.3624 2.1376c 0.3624,0.6670 0.9506,0.6670 0.9506 0.6670Z"/></g><g stroke-linejoin="bevel" stroke-opacity="0.0" fill-opacity="0.0" stroke="rgb(0,0,0)" stroke-width="0.0" fill="rgb(0,0,0)" stroke-linecap="butt" stroke-miterlimit="10.0"><path d="M 277.7971,558.0000 ZM 278.6269,557.2857 h 1.5336 v -4.9370 h -1.2185 v -0.5567 c 0.4622,-0.0840 0.8036,-0.2048 0.8036 -0.2048c 0.3414,-0.1208 0.6145,-0.2889 0.6145 -0.2889h 0.6618 v 5.9874 h 1.3866 v 0.7143 h -3.7815 v -0.7143 Z"/></g><g stroke-linejoin="bevel" stroke-opacity="0.0" fill-opacity="0.0" stroke="rgb(0,0,0)" stroke-width="0.0" fill="rgb(0,0,0)" stroke-linecap="butt" stroke-miterlimit="10.0"><path d="M 422.6282,558.0000 ZM 423.0483,557.4853 c 0.7563,-0.7563 1.3445,-1.3655 1.3445 -1.3655c 0.5882,-0.6092 0.9874,-1.1292 0.9874 -1.1292c 0.3992,-0.5200 0.6092,-0.9559 0.6092 -0.9559c 0.2101,-0.4359 0.2101,-0.8456 0.2101 -0.8456c 0.0000,-0.5777 -0.3151,-0.9454 -0.3151 -0.9454c -0.3151,-0.3676 -0.9559,-0.3676 -0.9559 -0.3676c -0.4202,-0.0000 -0.7773,0.2363 -0.7773 0.2363c -0.3571,0.2363 -0.6513,0.5725 -0.6513 0.5725l -0.4937,-0.4937 c 0.4202,-0.4622 0.8929,-0.7405 0.8929 -0.7405c 0.4727,-0.2784 1.1345,-0.2784 1.1345 -0.2784c 0.9349,0.0000 1.4706,0.5410 1.4706 0.5410c 0.5357,0.5410 0.5357,1.4338 0.5357 1.4338c 0.0000,0.4727 -0.2048,0.9506 -0.2048 0.9506c -0.2048,0.4779 -0.5672,0.9874 -0.5672 0.9874c -0.3624,0.5095 -0.8613,1.0609 -0.8613 1.0609c -0.4989,0.5515 -1.0977,1.1712 -1.0977 1.1712c 0.2731,-0.0210 0.5672,-0.0420 0.5672 -0.0420c 0.2941,-0.0210 0.5567,-0.0210 0.5567 -0.0210h 1.9433 v 0.7458 h -4.3277 v -0.5147 Z"/></g><g stroke-linejoin="bevel" stroke-opacity="0.0" fill-opacity="0.0" stroke="rgb(0,0,0)" stroke-width="0.0" fill="rgb(0,0,0)" stroke-linecap="butt" stroke-miterlimit="10.0"><path d="M 567.7324,558.0000 ZM 568.4466,556.6134 c 0.3046,0.3151 0.7090,0.5567 0.7090 0.5567c 0.4044,0.2416 1.0032,0.2416 1.0032 0.2416c 0.6092,0.0000 0.9979,-0.3309 0.9979 -0.3309c 0.3887,-0.3309 0.3887,-0.8981 0.3887 -0.8981c 0.0000,-0.2941 -0.1103,-0.5410 -0.1103 -0.5410c -0.1103,-0.2468 -0.3624,-0.4254 -0.3624 -0.4254c -0.2521,-0.1786 -0.6618,-0.2731 -0.6618 -0.2731c -0.4097,-0.0945 -1.0084,-0.0945 -1.0084 -0.0945v -0.6618 c 0.5357,0.0000 0.8981,-0.0945 0.8981 -0.0945c 0.3624,-0.0945 0.5882,-0.2626 0.5882 -0.2626c 0.2258,-0.1681 0.3204,-0.3992 0.3204 -0.3992c 0.0945,-0.2311 0.0945,-0.4937 0.0945 -0.4937c 0.0000,-0.4937 -0.3099,-0.7773 -0.3099 -0.7773c -0.3099,-0.2836 -0.8456,-0.2836 -0.8456 -0.2836c -0.4202,-0.0000 -0.7721,0.1891 -0.7721 0.1891c -0.3519,0.1891 -0.6565,0.4937 -0.6565 0.4937l -0.4622,-0.5462 c 0.3887,-0.3676 0.8561,-0.6040 0.8561 -0.6040c 0.4674,-0.2363 1.0662,-0.2363 1.0662 -0.2363c 0.4412,0.0000 0.8088,0.1155 0.8088 0.1155c 0.3676,0.1155 0.6355,0.3309 0.6355 0.3309c 0.2679,0.2153 0.4149,0.5305 0.4149 0.5305c 0.1471,0.3151 0.1471,0.7248 0.1471 0.7248c 0.0000,0.6092 -0.3361,0.9979 -0.3361 0.9979c -0.3361,0.3887 -0.8824,0.5987 -0.8824 0.5987v 0.0420 c 0.3046,0.0735 0.5672,0.2153 0.5672 0.2153c 0.2626,0.1418 0.4622,0.3571 0.4622 0.3571c 0.1996,0.2153 0.3099,0.4989 0.3099 0.4989c 0.1103,0.2836 0.1103,0.6303 0.1103 0.6303c 0.0000,0.4412 -0.1733,0.7983 -0.1733 0.7983c -0.1733,0.3571 -0.4727,0.6040 -0.4727 0.6040c -0.2994,0.2468 -0.6985,0.3782 -0.6985 0.3782c -0.3992,0.1313 -0.8613,0.1313 -0.8613 0.1313c -0.3992,-0.0000 -0.7300,-0.0788 -0.7300 -0.0788c -0.3309,-0.0788 -0.6040,-0.2101 -0.6040 -0.2101c -0.2731,-0.1313 -0.4884,-0.2994 -0.4884 -0.2994c -0.2153,-0.1681 -0.3834,-0.3571 -0.3834 -0.3571Z"/></g><g stroke-linejoin="bevel" stroke-opacity="0.0" fill-opacity="0.0" stroke="rgb(0,0,0)" stroke-width="0.0" fill="rgb(0,0,0)" stroke-linecap="butt" stroke-miterlimit="10.0"><path d="M 712.6895,558.0000 ZM 715.8828,555.4580 v -1.9433 c 0.0000,-0.2731 0.0158,-0.6460 0.0158 -0.6460c 0.0158,-0.3729 0.0368,-0.6460 0.0368 -0.6460h -0.0420 c -0.1261,0.2416 -0.2626,0.4727 -0.2626 0.4727c -0.1366,0.2311 -0.2836,0.4727 -0.2836 0.4727l -1.5651,2.2899 h 2.1008 ZM 715.8828,555.4580 ZM 717.6160,556.1513 h -0.9139 v 1.8487 h -0.8193 v -1.8487 h -3.0147 v -0.5672 l 2.8676,-4.2857 h 0.9664 v 4.1597 h 0.9139 v 0.6933 Z"/></g><g stroke-linejoin="bevel" stroke-opacity="0.0" fill-opacity="1.0" stroke="rgb(0,0,0)" stroke-width="0.0" fill="rgb(0,0,0)" stroke-linecap="butt" stroke-miterlimit="10.0"><path d="M 417.7878,579.1429 ZM 423.6029,570.6050 l -4.9412,-7.7983 h 2.9916 l 2.1849,3.5966 c 0.3697,0.6723 0.7731,1.3613 0.7731 1.3613c 0.4034,0.6891 0.8403,1.3613 0.8403 1.3613h 0.1345 c 0.3697,-0.6723 0.7395,-1.3613 0.7395 -1.3613c 0.3697,-0.6891 0.7395,-1.3613 0.7395 -1.3613l 1.9832,-3.5966 h 2.8908 l -4.9412,8.1008 l 5.3109,8.2353 h -2.9916 l -2.3866,-3.7983 l -0.8739,-1.4790 c 0.0000,0.0000 -0.9076,-1.4454 -0.9076 -1.4454h -0.1345 c -0.4370,0.7059 -0.8403,1.4286 -0.8403 1.4286c -0.4034,0.7227 -0.8067,1.4958 -0.8067 1.4958l -2.2185,3.7983 h -2.8908 Z"/></g></svg>