<?xml version="1.0" encoding="UTF-8"?>
<svg class="svg-preview" id="s2tex_0" style="vertical-align:-31.125pt; opacity: 1" xmlns="http://www.w3.org/2000/svg" xmlns:xlink="http://www.w3.org/1999/xlink" width="116" height="83" viewBox="1876.712082 1512.622895 69.339975 49.613948">
<defs>
<path id="s10g1-40" d="m3.610908 2.618181c0-.032727 0-.054545-.185454-.24c-1.363636-1.374545-1.712727-3.436363-1.712727-5.105453c0-1.898181 .414545-3.796363 1.756363-5.159999c.141818-.130909 .141818-.152727 .141818-.185454c0-.076364-.043636-.109091-.109091-.109091c-.109091 0-1.090909 .741818-1.734545 2.127272c-.556363 1.2-.687273 2.410908-.687273 3.327272c0 .850909 .12 2.170908 .72 3.403635c.654545 1.341818 1.592727 2.050909 1.701818 2.050909c.065455 0 .109091-.032727 .109091-.109091z"></path>
<path id="s10g1-41" d="m3.152726-2.727272c0-.850909-.12-2.170908-.72-3.403635c-.654545-1.341818-1.592727-2.050909-1.701818-2.050909c-.065455 0-.109091 .043636-.109091 .109091c0 .032727 0 .054545 .207273 .250909c1.069091 1.08 1.690909 2.814545 1.690909 5.094544c0 1.865454-.403636 3.785453-1.756363 5.159999c-.141818 .130909-.141818 .152727-.141818 .185454c0 .065455 .043636 .109091 .109091 .109091c.109091 0 1.090909-.741818 1.734545-2.127272c.556363-1.2 .687273-2.410908 .687273-3.327272z"></path>
<path id="s10g0-65" d="m1.952727-1.254545c-.436364 .730909-.861818 .883636-1.341818 .916363c-.130909 .010909-.229091 .010909-.229091 .218182c0 .065455 .054545 .12 .141818 .12c.294545 0 .632727-.032727 .938182-.032727c.36 0 .741818 .032727 1.090909 .032727c.065455 0 .207273 0 .207273-.207273c0-.12-.098182-.130909-.174545-.130909c-.250909-.021818-.512727-.109091-.512727-.381818c0-.130909 .065455-.250909 .152727-.403636l.829091-1.396363h2.738181c.021818 .229091 .174545 1.712727 .174545 1.821818c0 .327273-.567273 .36-.785454 .36c-.152727 0-.261818 0-.261818 .218182c0 .12 .130909 .12 .152727 .12c.447273 0 .916363-.032727 1.363636-.032727c.272727 0 .96 .032727 1.232727 .032727c.065455 0 .196364 0 .196364-.218182c0-.12-.109091-.12-.250909-.12c-.676363 0-.676363-.076364-.709091-.392727l-.665454-6.81818c-.021818-.218182-.021818-.261818-.207273-.261818c-.174545 0-.218182 .076364-.283636 .185454l-3.796363 6.370907zm1.309091-1.603636l2.14909-3.599999l.349091 3.599999h-2.498181z"></path>
<path id="s10g0-66" d="m1.745454-.850909c-.109091 .425454-.130909 .512727-.992727 .512727c-.185454 0-.294545 0-.294545 .218182c0 .12 .098182 .12 .294545 .12h3.894544c1.723636 0 3.010908-1.287272 3.010908-2.356363c0-.785454-.632727-1.418181-1.690909-1.538181c1.134545-.207273 2.279999-1.014545 2.279999-2.050909c0-.807273-.72-1.505454-2.02909-1.505454h-3.665454c-.207273 0-.316364 0-.316364 .218182c0 .12 .098182 .12 .305454 .12c.021818 0 .229091 0 .414545 .021818c.196364 .021818 .294545 .032727 .294545 .174545c0 .043636-.010909 .076364-.043636 .207273l-1.461818 5.85818zm1.647272-3.141817l.676363-2.705454c.098182-.381818 .12-.414545 .589091-.414545h1.407272c.96 0 1.189091 .643636 1.189091 1.123636c0 .96-.938182 1.996363-2.26909 1.996363h-1.592727zm-.490909 3.654544c-.152727 0-.174545 0-.24-.010909c-.109091-.010909-.141818-.021818-.141818-.109091c0-.032727 0-.054545 .054545-.250909l.752727-3.043636h2.061818c1.047272 0 1.254545 .807273 1.254545 1.276363c0 1.08-.970909 2.138181-2.258181 2.138181h-1.483636z"></path>
<path id="s10g0-70" d="m3.305454-3.545454h1.058182c.818182 0 .905454 .174545 .905454 .490909c0 .076364 0 .207273-.076364 .534545c-.021818 .054545-.032727 .098182-.032727 .12c0 .087273 .065455 .130909 .130909 .130909c.109091 0 .109091-.032727 .163636-.229091l.6-2.367272c.032727-.12 .032727-.141818 .032727-.174545c0-.021818-.021818-.12-.130909-.12s-.12 .054545-.163636 .229091c-.229091 .850909-.48 1.047272-1.407272 1.047272h-.992727l.698182-2.770908c.098182-.381818 .109091-.425454 .589091-.425454h1.44c1.341818 0 1.592727 .36 1.592727 1.2c0 .250909 0 .294545-.032727 .589091c-.021818 .141818-.021818 .163636-.021818 .196364c0 .054545 .032727 .130909 .130909 .130909c.12 0 .130909-.065455 .152727-.272727l.218182-1.887272c.032727-.294545-.021818-.294545-.294545-.294545h-5.345453c-.218182 0-.327273 0-.327273 .218182c0 .12 .098182 .12 .305454 .12c.403636 0 .709091 0 .709091 .196364c0 .043636 0 .065455-.054545 .261818l-1.44 5.770907c-.109091 .425454-.130909 .512727-.992727 .512727c-.185454 0-.305454 0-.305454 .207273c0 .130909 .130909 .130909 .163636 .130909c.316364 0 1.123636-.032727 1.44-.032727c.36 0 1.265454 .032727 1.625454 .032727c.098182 0 .229091 0 .229091-.207273c0-.087273-.065455-.109091-.065455-.12c-.032727-.010909-.054545-.010909-.305454-.010909c-.24 0-.294545 0-.567273-.021818c-.316364-.032727-.349091-.076364-.349091-.218182c0-.021818 0-.087273 .043636-.250909l.676363-2.716363z"></path>
</defs>
<g id="s10page1">
<!--start 1872.019782 1492.700226 -->
<g transform="matrix(1 0 0 1 -43.91 21.99)">
<use x="1920.942082" y="1498.90196" xlink:href="#s10g0-65"></use>
</g>
<g transform="matrix(1 0 0 1 -52.41 21.99)">
<use x="1973.847355" y="1498.90196" xlink:href="#s10g0-70"></use>
<use x="1982.377681" y="1498.90196" xlink:href="#s10g1-40"></use>
<use x="1986.620119" y="1498.90196" xlink:href="#s10g0-65"></use>
<use x="1994.801956" y="1498.90196" xlink:href="#s10g1-41"></use>
</g>
<g transform="matrix(1 0 0 1 -44.23 21.99)">
<use x="1920.942082" y="1537.432322" xlink:href="#s10g0-66"></use>
</g>
<g transform="matrix(1 0 0 1 -52.73 21.99)">
<use x="1973.847355" y="1537.432322" xlink:href="#s10g0-70"></use>
<use x="1982.377681" y="1537.432322" xlink:href="#s10g1-40"></use>
<use x="1986.620119" y="1537.432322" xlink:href="#s10g0-66"></use>
<use x="1995.442092" y="1537.432322" xlink:href="#s10g1-41"></use>
</g>
<path d="m1890.1094 1518.164h25.9883" stroke="#000" fill="none" stroke-width=".43636" stroke-miterlimit="10"></path>
<path d="m1914.05096 1515.5422c.41406 1.57031 1.339841 2.312502 2.269528 2.61719c-.929687 .304687-1.855468 1.04687-2.269528 2.61719" stroke="#000" fill="none" stroke-width=".43636" stroke-miterlimit="10" stroke-linecap="round" stroke-linejoin="round"></path>
<path d="m1881.125 1525.082v22.25779" stroke="#000" fill="none" stroke-width=".43636" stroke-miterlimit="10"></path>
<path d="m1883.73902 1545.29083c-1.57031 .41407-2.312501 1.339849-2.617189 2.269536c-.308594-.929687-1.050781-1.855466-2.621091-2.269536" stroke="#000" fill="none" stroke-width=".43636" stroke-miterlimit="10" stroke-linecap="round" stroke-linejoin="round"></path>
<path d="m1934.0274 1527.81245v18.80078" stroke="#000" fill="none" stroke-width=".43636" stroke-miterlimit="10"></path>
<path d="m1936.64938 1544.56157c-1.57031 .41406-2.312495 1.335935-2.621089 2.269529c-.304687-.933594-1.046871-1.855469-2.617191-2.269529" stroke="#000" fill="none" stroke-width=".43636" stroke-miterlimit="10" stroke-linecap="round" stroke-linejoin="round"></path>
<path d="m1890.4297 1556.6953h25.34769" stroke="#000" fill="none" stroke-width=".43636" stroke-miterlimit="10"></path>
<path d="m1913.73071 1554.08269c.41407 1.57031 1.339847 2.3125 2.269534 2.617188c-.929687 .304687-1.855464 1.046872-2.269534 2.617192" stroke="#000" fill="none" stroke-width=".43636" stroke-miterlimit="10" stroke-linecap="round" stroke-linejoin="round"></path>
<path d="m1888.8125 1536.574165l35.1329 .664063" stroke="#000" fill="none" stroke-width="2.54999" stroke-miterlimit="10"></path>
<path d="m1888.8125 1536.574165l35.1329 .664063" stroke="#fff" fill="none" stroke-width="1.67728" stroke-miterlimit="10"></path>
<path d="m1922.586525 1534.414587c.660128 1.49216 2.484372 2.793013 3.539094 2.867244c-1.054725 .031254-2.929754 1.265565-3.644576 2.730386" stroke="#000" fill="none" stroke-width=".436346" stroke-miterlimit="10" stroke-linecap="round" stroke-linejoin="round"></path>
</g>
<script type="text/ecmascript">if(window.parent.postMessage)window.parent.postMessage("31.125|87|62.25|"+window.location,"*");</script>
</svg>
