<?xml version="1.0" encoding="UTF-8"?>
<svg width="1200pt" height="1200pt" version="1.1" viewBox="0 0 1200 1200" xmlns="http://www.w3.org/2000/svg">
 <path d="m1125 1089.4v-826.89h9.375c36.188 0 65.625-29.438 65.625-65.625 0-17.586-6.8047-34.07-19.18-46.445s-28.855-19.18-46.445-19.18h-9.375v-37.5c0-10.352-8.3984-18.75-18.75-18.75h-75c-10.352 0-18.75 8.3984-18.75 18.75v37.5h-825v-37.5c0-10.352-8.3984-18.75-18.75-18.75h-75c-10.352 0-18.75 8.3984-18.75 18.75v37.5h-9.375c-17.586 0-34.07 6.8047-46.445 19.18s-19.18 28.859-19.18 46.445c0 36.188 29.438 65.625 65.625 65.625h9.375v826.89c-42.73 8.7188-75 46.594-75 91.855 0 10.352 8.3984 18.75 18.75 18.75h225c10.352 0 18.75-8.3984 18.75-18.75 0-24.824-9.7109-48.355-27.523-66.414-8.4922-8.3828-18.32-14.812-28.895-19.426l393.9-393.9 393.92 393.92c-10.613 4.6328-20.492 11.117-29.082 19.594-17.625 17.887-27.336 41.398-27.336 66.227 0 10.352 8.3984 18.75 18.75 18.75h225c10.352 0 18.75-8.3984 18.75-18.75 0-45.262-32.27-83.137-75-91.855zm9.375-920.64c7.5742 0 14.645 2.9062 19.93 8.1953 5.2891 5.2891 8.1953 12.355 8.1953 19.93 0 15.508-12.617 28.125-28.125 28.125h-9.375v-56.25zm-84.375-56.25h37.5v975h-37.5zm-862.5 176.51 123.49 123.49h-123.49zm0 160.99h150v131.25h-150zm150-64.012-123.49-123.49h123.49zm-150 401.51h146.79c-2.7578 7.7812-7.2188 14.945-13.145 20.961-10.82 10.648-24.992 16.539-39.898 16.539h-93.75zm0-37.5v-131.25h150v131.25zm187.5-487.5h450v160.99l-225 225-225-225zm610.99 0-123.49 123.49v-123.49zm26.512 150h-123.49l123.49-123.49zm0 37.5v131.25h-150v-131.25zm-150 168.75h150v131.25h-150zm150 168.75v37.5h-93.75c-14.906 0-29.082-5.8672-39.711-16.352-6.0391-6.1328-10.539-13.332-13.312-21.148zm0-618.75v56.25h-825v-56.25zm-900-56.25h37.5v975h-37.5zm-46.875 112.5c-15.508 0-28.125-12.617-28.125-28.125 0-7.5742 2.9062-14.645 8.1953-19.93 5.2891-5.2891 12.355-8.1953 19.93-8.1953h9.375v56.25zm156.15 937.5h-181.07c7.7422-21.824 28.594-37.5 53.043-37.5h75c14.906 0 29.082 5.8672 39.711 16.352 6.0391 6.1328 10.539 13.332 13.312 21.148zm-34.273-101.51v-198.49h93.75c24.824 0 48.355-9.7109 66.414-27.523 17.625-17.887 27.336-41.398 27.336-66.227v-292.24l198.49 198.49zm637.5-584.48v292.24c0 24.824 9.7109 48.355 27.523 66.414 17.887 17.625 41.398 27.336 66.227 27.336h93.75v198.49l-385.99-385.99zm153.21 685.99c2.7578-7.7812 7.2188-14.945 13.145-20.961 10.82-10.648 24.992-16.539 39.898-16.539h75c24.449 0 45.301 15.676 53.043 37.5z"/>
</svg>
