<?xml version="1.0" encoding="UTF-8"?>
<!DOCTYPE svg PUBLIC "-//W3C//DTD SVG 1.1//EN"
    "http://www.w3.org/Graphics/SVG/1.1/DTD/svg11.dtd"><svg xmlns="http://www.w3.org/2000/svg" height="371.4286" stroke-opacity="1" viewBox="0 0 400 371" font-size="1" width="400.0000" xmlns:xlink="http://www.w3.org/1999/xlink" stroke="rgb(0,0,0)" version="1.1"><defs></defs><g stroke-linejoin="miter" stroke-opacity="1.0" fill-opacity="1.0" stroke="rgb(0,0,0)" stroke-width="0.0" fill="rgb(255,255,255)" stroke-linecap="butt" font-family="DejaVu Sans Mono" stroke-miterlimit="10.0"><path d="M 400.0000,371.4286 l -0.0000,-371.4286 h -400.0000 l -0.0000,371.4286 Z"/></g><g stroke-linejoin="miter" stroke-opacity="1.0" fill-opacity="0.0" stroke="rgb(0,0,0)" stroke-width="1.5417985786550905" fill="rgb(0,0,0)" stroke-linecap="butt" font-family="DejaVu Sans Mono" stroke-miterlimit="10.0"><path d="M 159.4156,32.4675 l 89.2857,103.8961 "/></g><g stroke-linejoin="miter" stroke-opacity="1.0" fill-opacity="1.0" font-size="25.97402597402597px" stroke="rgb(0,0,0)" stroke-width="1.5417985786550905" fill="rgb(0,0,0)" stroke-linecap="butt" font-family="DejaVu Sans Mono" stroke-miterlimit="10.0"><text dominant-baseline="middle" transform="matrix(1.0000,0.0000,0.0000,1.0000,228.1370,89.6104)" stroke="none" text-anchor="middle">b</text></g><g stroke-linejoin="miter" stroke-opacity="1.0" fill-opacity="0.0" stroke="rgb(0,0,0)" stroke-width="1.5417985786550905" fill="rgb(0,0,0)" stroke-linecap="butt" font-family="DejaVu Sans Mono" stroke-miterlimit="10.0"><path d="M 159.4156,32.4675 l -89.2857,103.8961 "/></g><g stroke-linejoin="miter" stroke-opacity="1.0" fill-opacity="1.0" font-size="25.97402597402597px" stroke="rgb(0,0,0)" stroke-width="1.5417985786550905" fill="rgb(0,0,0)" stroke-linecap="butt" font-family="DejaVu Sans Mono" stroke-miterlimit="10.0"><text dominant-baseline="middle" transform="matrix(1.0000,0.0000,0.0000,1.0000,90.6942,89.6104)" stroke="none" text-anchor="middle">a</text></g><g stroke-linejoin="miter" stroke-opacity="1.0" fill-opacity="0.0" stroke="rgb(0,0,0)" stroke-width="1.5417985786550905" fill="rgb(0,0,0)" stroke-linecap="butt" font-family="DejaVu Sans Mono" stroke-miterlimit="10.0"><path d="M 248.7013,136.3636 l 81.1688,103.8961 "/></g><g stroke-linejoin="miter" stroke-opacity="1.0" fill-opacity="1.0" font-size="25.97402597402597px" stroke="rgb(0,0,0)" stroke-width="1.5417985786550905" fill="rgb(0,0,0)" stroke-linecap="butt" font-family="DejaVu Sans Mono" stroke-miterlimit="10.0"><text dominant-baseline="middle" transform="matrix(1.0000,0.0000,0.0000,1.0000,312.2437,193.5065)" stroke="none" text-anchor="middle">b</text></g><g stroke-linejoin="miter" stroke-opacity="1.0" fill-opacity="0.0" stroke="rgb(0,0,0)" stroke-width="1.5417985786550905" fill="rgb(0,0,0)" stroke-linecap="butt" font-family="DejaVu Sans Mono" stroke-miterlimit="10.0"><path d="M 248.7013,136.3636 l -81.1688,103.8961 "/></g><g stroke-linejoin="miter" stroke-opacity="1.0" fill-opacity="1.0" font-size="25.97402597402597px" stroke="rgb(0,0,0)" stroke-width="1.5417985786550905" fill="rgb(0,0,0)" stroke-linecap="butt" font-family="DejaVu Sans Mono" stroke-miterlimit="10.0"><text dominant-baseline="middle" transform="matrix(1.0000,0.0000,0.0000,1.0000,185.1589,193.5065)" stroke="none" text-anchor="middle">a</text></g><g stroke-linejoin="miter" stroke-opacity="1.0" fill-opacity="0.0" stroke="rgb(0,0,0)" stroke-width="1.5417985786550905" fill="rgb(0,0,0)" stroke-linecap="butt" font-family="DejaVu Sans Mono" stroke-miterlimit="10.0"><path d="M 329.8701,240.2597 l 32.4675,103.8961 "/></g><g stroke-linejoin="miter" stroke-opacity="1.0" fill-opacity="1.0" font-size="25.97402597402597px" stroke="rgb(0,0,0)" stroke-width="1.5417985786550905" fill="rgb(0,0,0)" stroke-linecap="butt" font-family="DejaVu Sans Mono" stroke-miterlimit="10.0"><text dominant-baseline="middle" transform="matrix(1.0000,0.0000,0.0000,1.0000,360.6238,297.4026)" stroke="none" text-anchor="middle">c</text></g><g stroke-linejoin="miter" stroke-opacity="1.0" fill-opacity="0.0" stroke="rgb(0,0,0)" stroke-width="1.5417985786550905" fill="rgb(0,0,0)" stroke-linecap="butt" font-family="DejaVu Sans Mono" stroke-miterlimit="10.0"><path d="M 329.8701,240.2597 l -32.4675,103.8961 "/></g><g stroke-linejoin="miter" stroke-opacity="1.0" fill-opacity="1.0" font-size="25.97402597402597px" stroke="rgb(0,0,0)" stroke-width="1.5417985786550905" fill="rgb(0,0,0)" stroke-linecap="butt" font-family="DejaVu Sans Mono" stroke-miterlimit="10.0"><text dominant-baseline="middle" transform="matrix(1.0000,0.0000,0.0000,1.0000,299.1164,297.4026)" stroke="none" text-anchor="middle">b</text></g><g stroke-linejoin="miter" stroke-opacity="1.0" fill-opacity="1.0" stroke="rgb(0,0,0)" stroke-width="1.5417985786550905" fill="rgb(255,255,255)" stroke-linecap="butt" font-family="DejaVu Sans Mono" stroke-miterlimit="10.0"><path d="M 381.8182,344.1558 c 0.0000,-10.7588 -8.7217,-19.4805 -19.4805 -19.4805c -10.7588,-0.0000 -19.4805,8.7217 -19.4805 19.4805c -0.0000,10.7588 8.7217,19.4805 19.4805 19.4805c 10.7588,0.0000 19.4805,-8.7217 19.4805 -19.4805Z"/></g><g stroke-linejoin="miter" stroke-opacity="1.0" fill-opacity="1.0" font-size="25.97402597402597px" stroke="rgb(0,0,0)" stroke-width="1.5417985786550905" fill="rgb(0,0,0)" stroke-linecap="butt" font-family="DejaVu Sans Mono" stroke-miterlimit="10.0"><text dominant-baseline="middle" transform="matrix(1.0000,0.0000,0.0000,1.0000,362.3377,344.1558)" stroke="none" text-anchor="middle">10</text></g><g stroke-linejoin="miter" stroke-opacity="1.0" fill-opacity="1.0" stroke="rgb(0,0,0)" stroke-width="1.5417985786550905" fill="rgb(255,255,255)" stroke-linecap="butt" font-family="DejaVu Sans Mono" stroke-miterlimit="10.0"><path d="M 316.8831,344.1558 c 0.0000,-10.7588 -8.7217,-19.4805 -19.4805 -19.4805c -10.7588,-0.0000 -19.4805,8.7217 -19.4805 19.4805c -0.0000,10.7588 8.7217,19.4805 19.4805 19.4805c 10.7588,0.0000 19.4805,-8.7217 19.4805 -19.4805Z"/></g><g stroke-linejoin="miter" stroke-opacity="1.0" fill-opacity="1.0" font-size="25.97402597402597px" stroke="rgb(0,0,0)" stroke-width="1.5417985786550905" fill="rgb(0,0,0)" stroke-linecap="butt" font-family="DejaVu Sans Mono" stroke-miterlimit="10.0"><text dominant-baseline="middle" transform="matrix(1.0000,0.0000,0.0000,1.0000,297.4026,344.1558)" stroke="none" text-anchor="middle">9</text></g><g stroke-linejoin="miter" stroke-opacity="1.0" fill-opacity="1.0" stroke="rgb(0,0,0)" stroke-width="1.5417985786550905" fill="rgb(255,255,255)" stroke-linecap="butt" font-family="DejaVu Sans Mono" stroke-miterlimit="10.0"><path d="M 349.3506,240.2597 c 0.0000,-10.7588 -8.7217,-19.4805 -19.4805 -19.4805c -10.7588,-0.0000 -19.4805,8.7217 -19.4805 19.4805c -0.0000,10.7588 8.7217,19.4805 19.4805 19.4805c 10.7588,0.0000 19.4805,-8.7217 19.4805 -19.4805Z"/></g><g stroke-linejoin="miter" stroke-opacity="1.0" fill-opacity="1.0" font-size="25.97402597402597px" stroke="rgb(0,0,0)" stroke-width="1.5417985786550905" fill="rgb(0,0,0)" stroke-linecap="butt" font-family="DejaVu Sans Mono" stroke-miterlimit="10.0"><text dominant-baseline="middle" transform="matrix(1.0000,0.0000,0.0000,1.0000,329.8701,240.2597)" stroke="none" text-anchor="middle">6</text></g><g stroke-linejoin="miter" stroke-opacity="1.0" fill-opacity="0.0" stroke="rgb(0,0,0)" stroke-width="1.5417985786550905" fill="rgb(0,0,0)" stroke-linecap="butt" font-family="DejaVu Sans Mono" stroke-miterlimit="10.0"><path d="M 167.5325,240.2597 l 64.9351,103.8961 "/></g><g stroke-linejoin="miter" stroke-opacity="1.0" fill-opacity="1.0" font-size="25.97402597402597px" stroke="rgb(0,0,0)" stroke-width="1.5417985786550905" fill="rgb(0,0,0)" stroke-linecap="butt" font-family="DejaVu Sans Mono" stroke-miterlimit="10.0"><text dominant-baseline="middle" transform="matrix(1.0000,0.0000,0.0000,1.0000,220.5343,297.4026)" stroke="none" text-anchor="middle">c</text></g><g stroke-linejoin="miter" stroke-opacity="1.0" fill-opacity="0.0" stroke="rgb(0,0,0)" stroke-width="1.5417985786550905" fill="rgb(0,0,0)" stroke-linecap="butt" font-family="DejaVu Sans Mono" stroke-miterlimit="10.0"><path d="M 167.5325,240.2597 v 103.8961 "/></g><g stroke-linejoin="miter" stroke-opacity="1.0" fill-opacity="1.0" font-size="25.97402597402597px" stroke="rgb(0,0,0)" stroke-width="1.5417985786550905" fill="rgb(0,0,255)" stroke-linecap="butt" font-family="DejaVu Sans Mono" stroke-miterlimit="10.0"><text dominant-baseline="middle" transform="matrix(1.0000,0.0000,0.0000,1.0000,177.9221,297.4026)" stroke="none" text-anchor="middle">b</text></g><g stroke-linejoin="miter" stroke-opacity="1.0" fill-opacity="0.0" stroke="rgb(0,0,0)" stroke-width="1.5417985786550905" fill="rgb(0,0,0)" stroke-linecap="butt" font-family="DejaVu Sans Mono" stroke-miterlimit="10.0"><path d="M 167.5325,240.2597 l -64.9351,103.8961 "/></g><g stroke-linejoin="miter" stroke-opacity="1.0" fill-opacity="1.0" font-size="25.97402597402597px" stroke="rgb(0,0,0)" stroke-width="1.5417985786550905" fill="rgb(0,0,0)" stroke-linecap="butt" font-family="DejaVu Sans Mono" stroke-miterlimit="10.0"><text dominant-baseline="middle" transform="matrix(1.0000,0.0000,0.0000,1.0000,114.5307,297.4026)" stroke="none" text-anchor="middle">a</text></g><g stroke-linejoin="miter" stroke-opacity="1.0" fill-opacity="1.0" stroke="rgb(0,0,0)" stroke-width="1.5417985786550905" fill="rgb(255,255,255)" stroke-linecap="butt" font-family="DejaVu Sans Mono" stroke-miterlimit="10.0"><path d="M 251.9481,344.1558 c 0.0000,-10.7588 -8.7217,-19.4805 -19.4805 -19.4805c -10.7588,-0.0000 -19.4805,8.7217 -19.4805 19.4805c -0.0000,10.7588 8.7217,19.4805 19.4805 19.4805c 10.7588,0.0000 19.4805,-8.7217 19.4805 -19.4805Z"/></g><g stroke-linejoin="miter" stroke-opacity="1.0" fill-opacity="1.0" font-size="25.97402597402597px" stroke="rgb(0,0,0)" stroke-width="1.5417985786550905" fill="rgb(0,0,0)" stroke-linecap="butt" font-family="DejaVu Sans Mono" stroke-miterlimit="10.0"><text dominant-baseline="middle" transform="matrix(1.0000,0.0000,0.0000,1.0000,232.4675,344.1558)" stroke="none" text-anchor="middle">8</text></g><g stroke-linejoin="miter" stroke-opacity="1.0" fill-opacity="1.0" stroke="rgb(0,0,0)" stroke-width="1.5417985786550905" fill="rgb(255,255,255)" stroke-linecap="butt" font-family="DejaVu Sans Mono" stroke-miterlimit="10.0"><path d="M 187.0130,344.1558 c 0.0000,-10.7588 -8.7217,-19.4805 -19.4805 -19.4805c -10.7588,-0.0000 -19.4805,8.7217 -19.4805 19.4805c -0.0000,10.7588 8.7217,19.4805 19.4805 19.4805c 10.7588,0.0000 19.4805,-8.7217 19.4805 -19.4805Z"/></g><g stroke-linejoin="miter" stroke-opacity="1.0" fill-opacity="1.0" font-size="25.97402597402597px" stroke="rgb(0,0,0)" stroke-width="1.5417985786550905" fill="rgb(0,0,0)" stroke-linecap="butt" font-family="DejaVu Sans Mono" stroke-miterlimit="10.0"><text dominant-baseline="middle" transform="matrix(1.0000,0.0000,0.0000,1.0000,167.5325,344.1558)" stroke="none" text-anchor="middle">7</text></g><g stroke-linejoin="miter" stroke-opacity="1.0" fill-opacity="1.0" stroke="rgb(0,0,0)" stroke-width="1.5417985786550905" fill="rgb(255,255,255)" stroke-linecap="butt" font-family="DejaVu Sans Mono" stroke-miterlimit="10.0"><path d="M 122.0779,344.1558 c 0.0000,-10.7588 -8.7217,-19.4805 -19.4805 -19.4805c -10.7588,-0.0000 -19.4805,8.7217 -19.4805 19.4805c -0.0000,10.7588 8.7217,19.4805 19.4805 19.4805c 10.7588,0.0000 19.4805,-8.7217 19.4805 -19.4805Z"/></g><g stroke-linejoin="miter" stroke-opacity="1.0" fill-opacity="1.0" font-size="25.97402597402597px" stroke="rgb(0,0,0)" stroke-width="1.5417985786550905" fill="rgb(0,0,0)" stroke-linecap="butt" font-family="DejaVu Sans Mono" stroke-miterlimit="10.0"><text dominant-baseline="middle" transform="matrix(1.0000,0.0000,0.0000,1.0000,102.5974,344.1558)" stroke="none" text-anchor="middle">5</text></g><g stroke-linejoin="miter" stroke-opacity="1.0" fill-opacity="1.0" stroke="rgb(0,0,0)" stroke-width="1.5417985786550905" fill="rgb(255,255,255)" stroke-linecap="butt" font-family="DejaVu Sans Mono" stroke-miterlimit="10.0"><path d="M 174.0260,240.2597 c 0.0000,-3.5863 -2.9072,-6.4935 -6.4935 -6.4935c -3.5863,-0.0000 -6.4935,2.9072 -6.4935 6.4935c -0.0000,3.5863 2.9072,6.4935 6.4935 6.4935c 3.5863,0.0000 6.4935,-2.9072 6.4935 -6.4935Z"/></g><g stroke-linejoin="miter" stroke-opacity="1.0" fill-opacity="1.0" stroke="rgb(0,0,0)" stroke-width="1.5417985786550905" fill="rgb(255,255,255)" stroke-linecap="butt" font-family="DejaVu Sans Mono" stroke-miterlimit="10.0"><path d="M 268.1818,136.3636 c 0.0000,-10.7588 -8.7217,-19.4805 -19.4805 -19.4805c -10.7588,-0.0000 -19.4805,8.7217 -19.4805 19.4805c -0.0000,10.7588 8.7217,19.4805 19.4805 19.4805c 10.7588,0.0000 19.4805,-8.7217 19.4805 -19.4805Z"/></g><g stroke-linejoin="miter" stroke-opacity="1.0" fill-opacity="1.0" font-size="25.97402597402597px" stroke="rgb(0,0,0)" stroke-width="1.5417985786550905" fill="rgb(0,0,0)" stroke-linecap="butt" font-family="DejaVu Sans Mono" stroke-miterlimit="10.0"><text dominant-baseline="middle" transform="matrix(1.0000,0.0000,0.0000,1.0000,248.7013,136.3636)" stroke="none" text-anchor="middle">1</text></g><g stroke-linejoin="miter" stroke-opacity="1.0" fill-opacity="0.0" stroke="rgb(0,0,0)" stroke-width="1.5417985786550905" fill="rgb(0,0,0)" stroke-linecap="butt" font-family="DejaVu Sans Mono" stroke-miterlimit="10.0"><path d="M 70.1299,136.3636 l 32.4675,103.8961 "/></g><g stroke-linejoin="miter" stroke-opacity="1.0" fill-opacity="1.0" font-size="25.97402597402597px" stroke="rgb(0,0,0)" stroke-width="1.5417985786550905" fill="rgb(0,0,0)" stroke-linecap="butt" font-family="DejaVu Sans Mono" stroke-miterlimit="10.0"><text dominant-baseline="middle" transform="matrix(1.0000,0.0000,0.0000,1.0000,100.8836,193.5065)" stroke="none" text-anchor="middle">c</text></g><g stroke-linejoin="miter" stroke-opacity="1.0" fill-opacity="0.0" stroke="rgb(0,0,0)" stroke-width="1.5417985786550905" fill="rgb(0,0,0)" stroke-linecap="butt" font-family="DejaVu Sans Mono" stroke-miterlimit="10.0"><path d="M 70.1299,136.3636 l -32.4675,103.8961 "/></g><g stroke-linejoin="miter" stroke-opacity="1.0" fill-opacity="1.0" font-size="25.97402597402597px" stroke="rgb(0,0,0)" stroke-width="1.5417985786550905" fill="rgb(0,0,0)" stroke-linecap="butt" font-family="DejaVu Sans Mono" stroke-miterlimit="10.0"><text dominant-baseline="middle" transform="matrix(1.0000,0.0000,0.0000,1.0000,39.3762,193.5065)" stroke="none" text-anchor="middle">b</text></g><g stroke-linejoin="miter" stroke-opacity="1.0" fill-opacity="1.0" stroke="rgb(0,0,0)" stroke-width="1.5417985786550905" fill="rgb(255,255,255)" stroke-linecap="butt" font-family="DejaVu Sans Mono" stroke-miterlimit="10.0"><path d="M 122.0779,240.2597 c 0.0000,-10.7588 -8.7217,-19.4805 -19.4805 -19.4805c -10.7588,-0.0000 -19.4805,8.7217 -19.4805 19.4805c -0.0000,10.7588 8.7217,19.4805 19.4805 19.4805c 10.7588,0.0000 19.4805,-8.7217 19.4805 -19.4805Z"/></g><g stroke-linejoin="miter" stroke-opacity="1.0" fill-opacity="1.0" font-size="25.97402597402597px" stroke="rgb(0,0,0)" stroke-width="1.5417985786550905" fill="rgb(0,0,0)" stroke-linecap="butt" font-family="DejaVu Sans Mono" stroke-miterlimit="10.0"><text dominant-baseline="middle" transform="matrix(1.0000,0.0000,0.0000,1.0000,102.5974,240.2597)" stroke="none" text-anchor="middle">4</text></g><g stroke-linejoin="miter" stroke-opacity="1.0" fill-opacity="0.0" stroke="rgb(0,0,0)" stroke-width="1.5417985786550905" fill="rgb(0,0,0)" stroke-linecap="butt" font-family="DejaVu Sans Mono" stroke-miterlimit="10.0"><path d="M 37.6623,240.2597 v 103.8961 "/></g><g stroke-linejoin="miter" stroke-opacity="1.0" fill-opacity="1.0" font-size="25.97402597402597px" stroke="rgb(0,0,0)" stroke-width="1.5417985786550905" fill="rgb(0,0,0)" stroke-linecap="butt" font-family="DejaVu Sans Mono" stroke-miterlimit="10.0"><text dominant-baseline="middle" transform="matrix(1.0000,0.0000,0.0000,1.0000,48.0519,297.4026)" stroke="none" text-anchor="middle">c</text></g><g stroke-linejoin="miter" stroke-opacity="1.0" fill-opacity="1.0" stroke="rgb(0,0,0)" stroke-width="1.5417985786550905" fill="rgb(255,255,255)" stroke-linecap="butt" font-family="DejaVu Sans Mono" stroke-miterlimit="10.0"><path d="M 57.1429,344.1558 c 0.0000,-10.7588 -8.7217,-19.4805 -19.4805 -19.4805c -10.7588,-0.0000 -19.4805,8.7217 -19.4805 19.4805c -0.0000,10.7588 8.7217,19.4805 19.4805 19.4805c 10.7588,0.0000 19.4805,-8.7217 19.4805 -19.4805Z"/></g><g stroke-linejoin="miter" stroke-opacity="1.0" fill-opacity="1.0" font-size="25.97402597402597px" stroke="rgb(0,0,0)" stroke-width="1.5417985786550905" fill="rgb(0,0,0)" stroke-linecap="butt" font-family="DejaVu Sans Mono" stroke-miterlimit="10.0"><text dominant-baseline="middle" transform="matrix(1.0000,0.0000,0.0000,1.0000,37.6623,344.1558)" stroke="none" text-anchor="middle">3</text></g><g stroke-linejoin="miter" stroke-opacity="1.0" fill-opacity="1.0" stroke="rgb(0,0,0)" stroke-width="1.5417985786550905" fill="rgb(255,255,255)" stroke-linecap="butt" font-family="DejaVu Sans Mono" stroke-miterlimit="10.0"><path d="M 57.1429,240.2597 c 0.0000,-10.7588 -8.7217,-19.4805 -19.4805 -19.4805c -10.7588,-0.0000 -19.4805,8.7217 -19.4805 19.4805c -0.0000,10.7588 8.7217,19.4805 19.4805 19.4805c 10.7588,0.0000 19.4805,-8.7217 19.4805 -19.4805Z"/></g><g stroke-linejoin="miter" stroke-opacity="1.0" fill-opacity="1.0" font-size="25.97402597402597px" stroke="rgb(0,0,0)" stroke-width="1.5417985786550905" fill="rgb(0,0,0)" stroke-linecap="butt" font-family="DejaVu Sans Mono" stroke-miterlimit="10.0"><text dominant-baseline="middle" transform="matrix(1.0000,0.0000,0.0000,1.0000,37.6623,240.2597)" stroke="none" text-anchor="middle">2</text></g><g stroke-linejoin="miter" stroke-opacity="1.0" fill-opacity="1.0" stroke="rgb(0,0,0)" stroke-width="1.5417985786550905" fill="rgb(255,255,255)" stroke-linecap="butt" font-family="DejaVu Sans Mono" stroke-miterlimit="10.0"><path d="M 89.6104,136.3636 c 0.0000,-10.7588 -8.7217,-19.4805 -19.4805 -19.4805c -10.7588,-0.0000 -19.4805,8.7217 -19.4805 19.4805c -0.0000,10.7588 8.7217,19.4805 19.4805 19.4805c 10.7588,0.0000 19.4805,-8.7217 19.4805 -19.4805Z"/></g><g stroke-linejoin="miter" stroke-opacity="1.0" fill-opacity="1.0" font-size="25.97402597402597px" stroke="rgb(0,0,0)" stroke-width="1.5417985786550905" fill="rgb(0,0,0)" stroke-linecap="butt" font-family="DejaVu Sans Mono" stroke-miterlimit="10.0"><text dominant-baseline="middle" transform="matrix(1.0000,0.0000,0.0000,1.0000,70.1299,136.3636)" stroke="none" text-anchor="middle">0</text></g><g stroke-linejoin="miter" stroke-opacity="1.0" fill-opacity="1.0" stroke="rgb(0,0,0)" stroke-width="1.5417985786550905" fill="rgb(255,255,255)" stroke-linecap="butt" font-family="DejaVu Sans Mono" stroke-miterlimit="10.0"><path d="M 165.9091,32.4675 c 0.0000,-3.5863 -2.9072,-6.4935 -6.4935 -6.4935c -3.5863,-0.0000 -6.4935,2.9072 -6.4935 6.4935c -0.0000,3.5863 2.9072,6.4935 6.4935 6.4935c 3.5863,0.0000 6.4935,-2.9072 6.4935 -6.4935Z"/></g></svg>