<?xml version="1.0" encoding="UTF-8"?>
<!DOCTYPE svg PUBLIC "-//W3C//DTD SVG 1.1//EN"
    "http://www.w3.org/Graphics/SVG/1.1/DTD/svg11.dtd"><svg xmlns="http://www.w3.org/2000/svg" height="300.0000" stroke-opacity="1" viewBox="0 0 795 300" font-size="1" width="795.0000" xmlns:xlink="http://www.w3.org/1999/xlink" stroke="rgb(0,0,0)" version="1.1"><defs></defs><g stroke-linejoin="miter" stroke-opacity="1.0" fill-opacity="1.0" stroke="rgb(0,0,0)" stroke-width="0.0" fill="rgb(255,255,255)" stroke-linecap="butt" stroke-miterlimit="10.0"><path d="M 795.0000,300.0000 l -0.0000,-300.0000 h -795.0000 l -0.0000,300.0000 Z"/></g><g stroke-linejoin="miter" stroke-opacity="1.0" fill-opacity="0.0" stroke="rgb(0,0,0)" stroke-width="1.953458471531965" fill="rgb(0,0,0)" stroke-linecap="butt" stroke-miterlimit="10.0"><path d="M 445.2273,40.9091 l 286.3636,109.0909 "/></g><g stroke-linejoin="miter" stroke-opacity="1.0" fill-opacity="0.0" stroke="rgb(0,0,0)" stroke-width="1.953458471531965" fill="rgb(0,0,0)" stroke-linecap="butt" stroke-miterlimit="10.0"><path d="M 445.2273,40.9091 l 95.4545,109.0909 "/></g><g stroke-linejoin="miter" stroke-opacity="1.0" fill-opacity="0.0" stroke="rgb(0,0,0)" stroke-width="1.953458471531965" fill="rgb(0,0,0)" stroke-linecap="butt" stroke-miterlimit="10.0"><path d="M 445.2273,40.9091 l -95.4545,109.0909 "/></g><g stroke-linejoin="miter" stroke-opacity="1.0" fill-opacity="0.0" stroke="rgb(0,0,0)" stroke-width="1.953458471531965" fill="rgb(0,0,0)" stroke-linecap="butt" stroke-miterlimit="10.0"><path d="M 445.2273,40.9091 l -286.3636,109.0909 "/></g><g stroke-linejoin="miter" stroke-opacity="1.0" fill-opacity="1.0" stroke="rgb(0,0,0)" stroke-width="0.0" fill="rgb(255,255,255)" stroke-linecap="butt" stroke-miterlimit="10.0"><path d="M 758.8636,177.2727 l -0.0000,-54.5455 h -54.5455 l -0.0000,54.5455 Z"/></g><g stroke-linejoin="miter" stroke-opacity="1.0" fill-opacity="0.0" stroke="rgb(0,0,0)" stroke-width="1.953458471531965" fill="rgb(0,0,0)" stroke-linecap="butt" stroke-miterlimit="10.0"><path d="M 758.8636,150.0000 c 0.0000,-15.0623 -12.2104,-27.2727 -27.2727 -27.2727c -15.0623,-0.0000 -27.2727,12.2104 -27.2727 27.2727c -0.0000,15.0623 12.2104,27.2727 27.2727 27.2727c 15.0623,0.0000 27.2727,-12.2104 27.2727 -27.2727Z"/></g><g stroke-linejoin="miter" stroke-opacity="1.0" fill-opacity="0.0" stroke="rgb(0,0,0)" stroke-width="1.953458471531965" fill="rgb(0,0,0)" stroke-linecap="butt" stroke-miterlimit="10.0"><path d="M 540.6818,150.0000 l 95.4545,109.0909 "/></g><g stroke-linejoin="miter" stroke-opacity="1.0" fill-opacity="0.0" stroke="rgb(0,0,0)" stroke-width="1.953458471531965" fill="rgb(0,0,0)" stroke-linecap="butt" stroke-miterlimit="10.0"><path d="M 540.6818,150.0000 l -95.4545,109.0909 "/></g><g stroke-linejoin="miter" stroke-opacity="1.0" fill-opacity="1.0" stroke="rgb(0,0,0)" stroke-width="0.0" fill="rgb(255,255,255)" stroke-linecap="butt" stroke-miterlimit="10.0"><path d="M 663.4091,286.3636 l -0.0000,-54.5455 h -54.5455 l -0.0000,54.5455 Z"/></g><g stroke-linejoin="miter" stroke-opacity="1.0" fill-opacity="0.0" stroke="rgb(0,0,0)" stroke-width="1.953458471531965" fill="rgb(0,0,0)" stroke-linecap="butt" stroke-miterlimit="10.0"><path d="M 663.4091,259.0909 c 0.0000,-15.0623 -12.2104,-27.2727 -27.2727 -27.2727c -15.0623,-0.0000 -27.2727,12.2104 -27.2727 27.2727c -0.0000,15.0623 12.2104,27.2727 27.2727 27.2727c 15.0623,0.0000 27.2727,-12.2104 27.2727 -27.2727Z"/></g><g stroke-linejoin="miter" stroke-opacity="1.0" fill-opacity="1.0" stroke="rgb(0,0,0)" stroke-width="0.0" fill="rgb(255,255,255)" stroke-linecap="butt" stroke-miterlimit="10.0"><path d="M 472.5000,286.3636 l -0.0000,-54.5455 h -54.5455 l -0.0000,54.5455 Z"/></g><g stroke-linejoin="miter" stroke-opacity="1.0" fill-opacity="0.0" stroke="rgb(0,0,0)" stroke-width="1.953458471531965" fill="rgb(0,0,0)" stroke-linecap="butt" stroke-miterlimit="10.0"><path d="M 472.5000,259.0909 c 0.0000,-15.0623 -12.2104,-27.2727 -27.2727 -27.2727c -15.0623,-0.0000 -27.2727,12.2104 -27.2727 27.2727c -0.0000,15.0623 12.2104,27.2727 27.2727 27.2727c 15.0623,0.0000 27.2727,-12.2104 27.2727 -27.2727Z"/></g><g stroke-linejoin="miter" stroke-opacity="1.0" fill-opacity="1.0" stroke="rgb(0,0,0)" stroke-width="0.0" fill="rgb(255,255,255)" stroke-linecap="butt" stroke-miterlimit="10.0"><path d="M 649.7727,177.2727 l -0.0000,-54.5455 h -54.5455 l -0.0000,54.5455 Z"/></g><g stroke-linejoin="miter" stroke-opacity="1.0" fill-opacity="0.0" stroke="rgb(0,0,0)" stroke-width="1.953458471531965" fill="rgb(0,0,0)" stroke-linecap="butt" stroke-miterlimit="10.0"><path d="M 649.7727,177.2727 l -0.0000,-54.5455 h -54.5455 l -0.0000,54.5455 Z"/></g><g stroke-linejoin="miter" stroke-opacity="1.0" fill-opacity="1.0" stroke="rgb(0,0,0)" stroke-width="1.953458471531965" fill="rgb(0,0,0)" stroke-linecap="butt" stroke-miterlimit="10.0"><path d="M 627.9545,150.0000 c 0.0000,-3.0125 -2.4421,-5.4545 -5.4545 -5.4545c -3.0125,-0.0000 -5.4545,2.4421 -5.4545 5.4545c -0.0000,3.0125 2.4421,5.4545 5.4545 5.4545c 3.0125,0.0000 5.4545,-2.4421 5.4545 -5.4545Z"/></g><g stroke-linejoin="miter" stroke-opacity="1.0" fill-opacity="1.0" stroke="rgb(0,0,0)" stroke-width="0.0" fill="rgb(255,255,255)" stroke-linecap="butt" stroke-miterlimit="10.0"><path d="M 595.2273,177.2727 l -0.0000,-54.5455 h -54.5455 l -0.0000,54.5455 Z"/></g><g stroke-linejoin="miter" stroke-opacity="1.0" fill-opacity="0.0" stroke="rgb(0,0,0)" stroke-width="1.953458471531965" fill="rgb(0,0,0)" stroke-linecap="butt" stroke-miterlimit="10.0"><path d="M 595.2273,177.2727 l -0.0000,-54.5455 h -54.5455 l -0.0000,54.5455 Z"/></g><g stroke-linejoin="miter" stroke-opacity="1.0" fill-opacity="1.0" stroke="rgb(0,0,0)" stroke-width="1.953458471531965" fill="rgb(0,0,0)" stroke-linecap="butt" stroke-miterlimit="10.0"><path d="M 573.4091,150.0000 c 0.0000,-3.0125 -2.4421,-5.4545 -5.4545 -5.4545c -3.0125,-0.0000 -5.4545,2.4421 -5.4545 5.4545c -0.0000,3.0125 2.4421,5.4545 5.4545 5.4545c 3.0125,0.0000 5.4545,-2.4421 5.4545 -5.4545Z"/></g><g stroke-linejoin="miter" stroke-opacity="1.0" fill-opacity="1.0" stroke="rgb(0,0,0)" stroke-width="0.0" fill="rgb(255,255,255)" stroke-linecap="butt" stroke-miterlimit="10.0"><path d="M 540.6818,177.2727 l -0.0000,-54.5455 h -54.5455 l -0.0000,54.5455 Z"/></g><g stroke-linejoin="miter" stroke-opacity="1.0" fill-opacity="0.0" stroke="rgb(0,0,0)" stroke-width="1.953458471531965" fill="rgb(0,0,0)" stroke-linecap="butt" stroke-miterlimit="10.0"><path d="M 540.6818,177.2727 l -0.0000,-54.5455 h -54.5455 l -0.0000,54.5455 Z"/></g><g stroke-linejoin="miter" stroke-opacity="1.0" fill-opacity="1.0" stroke="rgb(0,0,0)" stroke-width="1.953458471531965" fill="rgb(0,0,0)" stroke-linecap="butt" stroke-miterlimit="10.0"><path d="M 518.8636,150.0000 c 0.0000,-3.0125 -2.4421,-5.4545 -5.4545 -5.4545c -3.0125,-0.0000 -5.4545,2.4421 -5.4545 5.4545c -0.0000,3.0125 2.4421,5.4545 5.4545 5.4545c 3.0125,0.0000 5.4545,-2.4421 5.4545 -5.4545Z"/></g><g stroke-linejoin="miter" stroke-opacity="1.0" fill-opacity="1.0" stroke="rgb(0,0,0)" stroke-width="0.0" fill="rgb(255,255,255)" stroke-linecap="butt" stroke-miterlimit="10.0"><path d="M 486.1364,177.2727 l -0.0000,-54.5455 h -54.5455 l -0.0000,54.5455 Z"/></g><g stroke-linejoin="miter" stroke-opacity="1.0" fill-opacity="0.0" stroke="rgb(0,0,0)" stroke-width="1.953458471531965" fill="rgb(0,0,0)" stroke-linecap="butt" stroke-miterlimit="10.0"><path d="M 486.1364,177.2727 l -0.0000,-54.5455 h -54.5455 l -0.0000,54.5455 Z"/></g><g stroke-linejoin="miter" stroke-opacity="1.0" fill-opacity="1.0" stroke="rgb(0,0,0)" stroke-width="1.953458471531965" fill="rgb(0,0,0)" stroke-linecap="butt" stroke-miterlimit="10.0"><path d="M 464.3182,150.0000 c 0.0000,-3.0125 -2.4421,-5.4545 -5.4545 -5.4545c -3.0125,-0.0000 -5.4545,2.4421 -5.4545 5.4545c -0.0000,3.0125 2.4421,5.4545 5.4545 5.4545c 3.0125,0.0000 5.4545,-2.4421 5.4545 -5.4545Z"/></g><g stroke-linejoin="miter" stroke-opacity="1.0" fill-opacity="1.0" stroke="rgb(0,0,0)" stroke-width="0.0" fill="rgb(255,255,255)" stroke-linecap="butt" stroke-miterlimit="10.0"><path d="M 377.0455,177.2727 l -0.0000,-54.5455 h -54.5455 l -0.0000,54.5455 Z"/></g><g stroke-linejoin="miter" stroke-opacity="1.0" fill-opacity="0.0" stroke="rgb(0,0,0)" stroke-width="1.953458471531965" fill="rgb(0,0,0)" stroke-linecap="butt" stroke-miterlimit="10.0"><path d="M 377.0455,150.0000 c 0.0000,-15.0623 -12.2104,-27.2727 -27.2727 -27.2727c -15.0623,-0.0000 -27.2727,12.2104 -27.2727 27.2727c -0.0000,15.0623 12.2104,27.2727 27.2727 27.2727c 15.0623,0.0000 27.2727,-12.2104 27.2727 -27.2727Z"/></g><g stroke-linejoin="miter" stroke-opacity="1.0" fill-opacity="0.0" stroke="rgb(0,0,0)" stroke-width="1.953458471531965" fill="rgb(0,0,0)" stroke-linecap="butt" stroke-miterlimit="10.0"><path d="M 158.8636,150.0000 l 95.4545,109.0909 "/></g><g stroke-linejoin="miter" stroke-opacity="1.0" fill-opacity="0.0" stroke="rgb(0,0,0)" stroke-width="1.953458471531965" fill="rgb(0,0,0)" stroke-linecap="butt" stroke-miterlimit="10.0"><path d="M 158.8636,150.0000 l -95.4545,109.0909 "/></g><g stroke-linejoin="miter" stroke-opacity="1.0" fill-opacity="1.0" stroke="rgb(0,0,0)" stroke-width="0.0" fill="rgb(255,255,255)" stroke-linecap="butt" stroke-miterlimit="10.0"><path d="M 281.5909,286.3636 l -0.0000,-54.5455 h -54.5455 l -0.0000,54.5455 Z"/></g><g stroke-linejoin="miter" stroke-opacity="1.0" fill-opacity="0.0" stroke="rgb(0,0,0)" stroke-width="1.953458471531965" fill="rgb(0,0,0)" stroke-linecap="butt" stroke-miterlimit="10.0"><path d="M 281.5909,259.0909 c 0.0000,-15.0623 -12.2104,-27.2727 -27.2727 -27.2727c -15.0623,-0.0000 -27.2727,12.2104 -27.2727 27.2727c -0.0000,15.0623 12.2104,27.2727 27.2727 27.2727c 15.0623,0.0000 27.2727,-12.2104 27.2727 -27.2727Z"/></g><g stroke-linejoin="miter" stroke-opacity="1.0" fill-opacity="1.0" stroke="rgb(0,0,0)" stroke-width="0.0" fill="rgb(255,255,255)" stroke-linecap="butt" stroke-miterlimit="10.0"><path d="M 90.6818,286.3636 l -0.0000,-54.5455 h -54.5455 l -0.0000,54.5455 Z"/></g><g stroke-linejoin="miter" stroke-opacity="1.0" fill-opacity="0.0" stroke="rgb(0,0,0)" stroke-width="1.953458471531965" fill="rgb(0,0,0)" stroke-linecap="butt" stroke-miterlimit="10.0"><path d="M 90.6818,259.0909 c 0.0000,-15.0623 -12.2104,-27.2727 -27.2727 -27.2727c -15.0623,-0.0000 -27.2727,12.2104 -27.2727 27.2727c -0.0000,15.0623 12.2104,27.2727 27.2727 27.2727c 15.0623,0.0000 27.2727,-12.2104 27.2727 -27.2727Z"/></g><g stroke-linejoin="miter" stroke-opacity="1.0" fill-opacity="1.0" stroke="rgb(0,0,0)" stroke-width="0.0" fill="rgb(255,255,255)" stroke-linecap="butt" stroke-miterlimit="10.0"><path d="M 267.9545,177.2727 l -0.0000,-54.5455 h -54.5455 l -0.0000,54.5455 Z"/></g><g stroke-linejoin="miter" stroke-opacity="1.0" fill-opacity="0.0" stroke="rgb(0,0,0)" stroke-width="1.953458471531965" fill="rgb(0,0,0)" stroke-linecap="butt" stroke-miterlimit="10.0"><path d="M 267.9545,177.2727 l -0.0000,-54.5455 h -54.5455 l -0.0000,54.5455 Z"/></g><g stroke-linejoin="miter" stroke-opacity="1.0" fill-opacity="1.0" stroke="rgb(0,0,0)" stroke-width="1.953458471531965" fill="rgb(0,0,0)" stroke-linecap="butt" stroke-miterlimit="10.0"><path d="M 246.1364,150.0000 c 0.0000,-3.0125 -2.4421,-5.4545 -5.4545 -5.4545c -3.0125,-0.0000 -5.4545,2.4421 -5.4545 5.4545c -0.0000,3.0125 2.4421,5.4545 5.4545 5.4545c 3.0125,0.0000 5.4545,-2.4421 5.4545 -5.4545Z"/></g><g stroke-linejoin="miter" stroke-opacity="1.0" fill-opacity="1.0" stroke="rgb(0,0,0)" stroke-width="0.0" fill="rgb(255,255,255)" stroke-linecap="butt" stroke-miterlimit="10.0"><path d="M 213.4091,177.2727 l -0.0000,-54.5455 h -54.5455 l -0.0000,54.5455 Z"/></g><g stroke-linejoin="miter" stroke-opacity="1.0" fill-opacity="0.0" stroke="rgb(0,0,0)" stroke-width="1.953458471531965" fill="rgb(0,0,0)" stroke-linecap="butt" stroke-miterlimit="10.0"><path d="M 213.4091,177.2727 l -0.0000,-54.5455 h -54.5455 l -0.0000,54.5455 Z"/></g><g stroke-linejoin="miter" stroke-opacity="1.0" fill-opacity="1.0" stroke="rgb(0,0,0)" stroke-width="1.953458471531965" fill="rgb(0,0,0)" stroke-linecap="butt" stroke-miterlimit="10.0"><path d="M 191.5909,150.0000 c 0.0000,-3.0125 -2.4421,-5.4545 -5.4545 -5.4545c -3.0125,-0.0000 -5.4545,2.4421 -5.4545 5.4545c -0.0000,3.0125 2.4421,5.4545 5.4545 5.4545c 3.0125,0.0000 5.4545,-2.4421 5.4545 -5.4545Z"/></g><g stroke-linejoin="miter" stroke-opacity="1.0" fill-opacity="1.0" stroke="rgb(0,0,0)" stroke-width="0.0" fill="rgb(255,255,255)" stroke-linecap="butt" stroke-miterlimit="10.0"><path d="M 158.8636,177.2727 l -0.0000,-54.5455 h -54.5455 l -0.0000,54.5455 Z"/></g><g stroke-linejoin="miter" stroke-opacity="1.0" fill-opacity="0.0" stroke="rgb(0,0,0)" stroke-width="1.953458471531965" fill="rgb(0,0,0)" stroke-linecap="butt" stroke-miterlimit="10.0"><path d="M 158.8636,177.2727 l -0.0000,-54.5455 h -54.5455 l -0.0000,54.5455 Z"/></g><g stroke-linejoin="miter" stroke-opacity="1.0" fill-opacity="1.0" stroke="rgb(0,0,0)" stroke-width="1.953458471531965" fill="rgb(0,0,0)" stroke-linecap="butt" stroke-miterlimit="10.0"><path d="M 137.0455,150.0000 c 0.0000,-3.0125 -2.4421,-5.4545 -5.4545 -5.4545c -3.0125,-0.0000 -5.4545,2.4421 -5.4545 5.4545c -0.0000,3.0125 2.4421,5.4545 5.4545 5.4545c 3.0125,0.0000 5.4545,-2.4421 5.4545 -5.4545Z"/></g><g stroke-linejoin="miter" stroke-opacity="1.0" fill-opacity="1.0" stroke="rgb(0,0,0)" stroke-width="0.0" fill="rgb(255,255,255)" stroke-linecap="butt" stroke-miterlimit="10.0"><path d="M 104.3182,177.2727 l -0.0000,-54.5455 h -54.5455 l -0.0000,54.5455 Z"/></g><g stroke-linejoin="miter" stroke-opacity="1.0" fill-opacity="0.0" stroke="rgb(0,0,0)" stroke-width="1.953458471531965" fill="rgb(0,0,0)" stroke-linecap="butt" stroke-miterlimit="10.0"><path d="M 104.3182,177.2727 l -0.0000,-54.5455 h -54.5455 l -0.0000,54.5455 Z"/></g><g stroke-linejoin="miter" stroke-opacity="1.0" fill-opacity="1.0" stroke="rgb(0,0,0)" stroke-width="1.953458471531965" fill="rgb(0,0,0)" stroke-linecap="butt" stroke-miterlimit="10.0"><path d="M 82.5000,150.0000 c 0.0000,-3.0125 -2.4421,-5.4545 -5.4545 -5.4545c -3.0125,-0.0000 -5.4545,2.4421 -5.4545 5.4545c -0.0000,3.0125 2.4421,5.4545 5.4545 5.4545c 3.0125,0.0000 5.4545,-2.4421 5.4545 -5.4545Z"/></g><g stroke-linejoin="miter" stroke-opacity="1.0" fill-opacity="1.0" stroke="rgb(0,0,0)" stroke-width="0.0" fill="rgb(255,255,255)" stroke-linecap="butt" stroke-miterlimit="10.0"><path d="M 554.3182,68.1818 l -0.0000,-54.5455 h -54.5455 l -0.0000,54.5455 Z"/></g><g stroke-linejoin="miter" stroke-opacity="1.0" fill-opacity="0.0" stroke="rgb(0,0,0)" stroke-width="1.953458471531965" fill="rgb(0,0,0)" stroke-linecap="butt" stroke-miterlimit="10.0"><path d="M 554.3182,68.1818 l -0.0000,-54.5455 h -54.5455 l -0.0000,54.5455 Z"/></g><g stroke-linejoin="miter" stroke-opacity="1.0" fill-opacity="1.0" stroke="rgb(0,0,0)" stroke-width="1.953458471531965" fill="rgb(0,0,0)" stroke-linecap="butt" stroke-miterlimit="10.0"><path d="M 532.5000,40.9091 c 0.0000,-3.0125 -2.4421,-5.4545 -5.4545 -5.4545c -3.0125,-0.0000 -5.4545,2.4421 -5.4545 5.4545c -0.0000,3.0125 2.4421,5.4545 5.4545 5.4545c 3.0125,0.0000 5.4545,-2.4421 5.4545 -5.4545Z"/></g><g stroke-linejoin="miter" stroke-opacity="1.0" fill-opacity="1.0" stroke="rgb(0,0,0)" stroke-width="0.0" fill="rgb(255,255,255)" stroke-linecap="butt" stroke-miterlimit="10.0"><path d="M 499.7727,68.1818 l -0.0000,-54.5455 h -54.5455 l -0.0000,54.5455 Z"/></g><g stroke-linejoin="miter" stroke-opacity="1.0" fill-opacity="0.0" stroke="rgb(0,0,0)" stroke-width="1.953458471531965" fill="rgb(0,0,0)" stroke-linecap="butt" stroke-miterlimit="10.0"><path d="M 499.7727,68.1818 l -0.0000,-54.5455 h -54.5455 l -0.0000,54.5455 Z"/></g><g stroke-linejoin="miter" stroke-opacity="1.0" fill-opacity="1.0" stroke="rgb(0,0,0)" stroke-width="1.953458471531965" fill="rgb(0,0,0)" stroke-linecap="butt" stroke-miterlimit="10.0"><path d="M 477.9545,40.9091 c 0.0000,-3.0125 -2.4421,-5.4545 -5.4545 -5.4545c -3.0125,-0.0000 -5.4545,2.4421 -5.4545 5.4545c -0.0000,3.0125 2.4421,5.4545 5.4545 5.4545c 3.0125,0.0000 5.4545,-2.4421 5.4545 -5.4545Z"/></g><g stroke-linejoin="miter" stroke-opacity="1.0" fill-opacity="1.0" stroke="rgb(0,0,0)" stroke-width="0.0" fill="rgb(255,255,255)" stroke-linecap="butt" stroke-miterlimit="10.0"><path d="M 445.2273,68.1818 l -0.0000,-54.5455 h -54.5455 l -0.0000,54.5455 Z"/></g><g stroke-linejoin="miter" stroke-opacity="1.0" fill-opacity="0.0" stroke="rgb(0,0,0)" stroke-width="1.953458471531965" fill="rgb(0,0,0)" stroke-linecap="butt" stroke-miterlimit="10.0"><path d="M 445.2273,68.1818 l -0.0000,-54.5455 h -54.5455 l -0.0000,54.5455 Z"/></g><g stroke-linejoin="miter" stroke-opacity="1.0" fill-opacity="1.0" stroke="rgb(0,0,0)" stroke-width="1.953458471531965" fill="rgb(0,0,0)" stroke-linecap="butt" stroke-miterlimit="10.0"><path d="M 423.4091,40.9091 c 0.0000,-3.0125 -2.4421,-5.4545 -5.4545 -5.4545c -3.0125,-0.0000 -5.4545,2.4421 -5.4545 5.4545c -0.0000,3.0125 2.4421,5.4545 5.4545 5.4545c 3.0125,0.0000 5.4545,-2.4421 5.4545 -5.4545Z"/></g><g stroke-linejoin="miter" stroke-opacity="1.0" fill-opacity="1.0" stroke="rgb(0,0,0)" stroke-width="0.0" fill="rgb(255,255,255)" stroke-linecap="butt" stroke-miterlimit="10.0"><path d="M 390.6818,68.1818 l -0.0000,-54.5455 h -54.5455 l -0.0000,54.5455 Z"/></g><g stroke-linejoin="miter" stroke-opacity="1.0" fill-opacity="0.0" stroke="rgb(0,0,0)" stroke-width="1.953458471531965" fill="rgb(0,0,0)" stroke-linecap="butt" stroke-miterlimit="10.0"><path d="M 390.6818,68.1818 l -0.0000,-54.5455 h -54.5455 l -0.0000,54.5455 Z"/></g><g stroke-linejoin="miter" stroke-opacity="1.0" fill-opacity="1.0" stroke="rgb(0,0,0)" stroke-width="1.953458471531965" fill="rgb(0,0,0)" stroke-linecap="butt" stroke-miterlimit="10.0"><path d="M 368.8636,40.9091 c 0.0000,-3.0125 -2.4421,-5.4545 -5.4545 -5.4545c -3.0125,-0.0000 -5.4545,2.4421 -5.4545 5.4545c -0.0000,3.0125 2.4421,5.4545 5.4545 5.4545c 3.0125,0.0000 5.4545,-2.4421 5.4545 -5.4545Z"/></g></svg>