<svg xmlns="http://www.w3.org/2000/svg" xmlns:xlink="http://www.w3.org/1999/xlink" xmlns:lucid="lucid" width="1404" height="444"><g transform="translate(-299 -219)" lucid:page-tab-id="YGcM5DNywbTK"><g filter="url(#a)"><path d="M320 240h660v80H320z" stroke="#000" stroke-opacity="0" stroke-width="4" fill="#fff" fill-opacity="0"/><use xlink:href="#b" transform="matrix(1,0,0,1,325,245) translate(15.947265624999943 46.27039930555556)"/><use xlink:href="#c" transform="matrix(1,0,0,1,325,245) translate(334.365234375 46.27039930555556)"/></g><g fill="none" filter="url(#d)"><path d="M637.33 320v80H340v-80z"/><path d="M340 320c0 10.26 8.32 18.58 18.58 18.58h111.5c10.27 0 18.6 8.32 18.6 18.6 0-10.28 8.3-18.6 18.57-18.6h111.5c10.26 0 18.58-8.32 18.58-18.58" stroke="#3d4752" stroke-width="4"/></g><g fill="none" filter="url(#d)"><path d="M957.33 320v80H660v-80z"/><path d="M660 320c0 10.26 8.32 18.58 18.58 18.58h111.5c10.27 0 18.6 8.32 18.6 18.6 0-10.28 8.3-18.6 18.57-18.6h111.5c10.26 0 18.58-8.32 18.58-18.58" stroke="#3d4752" stroke-width="4"/></g><g filter="url(#e)"><path d="M768.67 380h80v40h-80z" stroke="#000" stroke-opacity="0" stroke-width="4" fill="#fff" fill-opacity="0"/><use xlink:href="#f" transform="matrix(1,0,0,1,773.6666666666666,385) translate(18.9453125 24.752604166666668)"/></g><g filter="url(#e)"><path d="M448.67 380h80v40h-80z" stroke="#000" stroke-opacity="0" stroke-width="4" fill="#fff" fill-opacity="0"/><use xlink:href="#g" transform="matrix(1,0,0,1,453.66666666666663,385) translate(18.9453125 24.752604166666668)"/></g><defs><path fill="#3d4752" d="M270-170h314v-1141l-338 76v-184l336-74h202v1323h310V0H270v-170" id="h"/><path fill="#3d4752" d="M614-616c-74 0-131-59-131-134 0-70 61-135 131-135 72 0 136 64 136 135 0 73-63 134-136 134zm2-744c-94 0-159 53-210 152-88 171-88 754 0 925 51 99 116 152 210 152 95 0 161-53 212-152 88-172 88-754 0-925-51-99-117-152-212-152zm0-160c159 0 280 65 362 196s122 324 122 579-40 447-122 578S775 29 616 29 336-36 255-167 133-490 133-745s41-448 122-579 202-196 361-196" id="i"/><g id="b"><use transform="matrix(0.015190972222222224,0,0,0.015190972222222224,0,0)" xlink:href="#h"/><use transform="matrix(0.015190972222222224,0,0,0.015190972222222224,18.730468750000004,0)" xlink:href="#h"/><use transform="matrix(0.015190972222222224,0,0,0.015190972222222224,37.46093750000001,0)" xlink:href="#i"/><use transform="matrix(0.015190972222222224,0,0,0.015190972222222224,56.191406250000014,0)" xlink:href="#h"/><use transform="matrix(0.015190972222222224,0,0,0.015190972222222224,74.92187500000001,0)" xlink:href="#i"/><use transform="matrix(0.015190972222222224,0,0,0.015190972222222224,93.65234375000001,0)" xlink:href="#h"/><use transform="matrix(0.015190972222222224,0,0,0.015190972222222224,112.38281250000001,0)" xlink:href="#i"/><use transform="matrix(0.015190972222222224,0,0,0.015190972222222224,131.11328125000003,0)" xlink:href="#i"/><use transform="matrix(0.015190972222222224,0,0,0.015190972222222224,149.84375000000003,0)" xlink:href="#h"/><use transform="matrix(0.015190972222222224,0,0,0.015190972222222224,168.57421875000003,0)" xlink:href="#i"/><use transform="matrix(0.015190972222222224,0,0,0.015190972222222224,187.30468750000003,0)" xlink:href="#h"/><use transform="matrix(0.015190972222222224,0,0,0.015190972222222224,206.03515625000003,0)" xlink:href="#i"/><use transform="matrix(0.015190972222222224,0,0,0.015190972222222224,224.76562500000003,0)" xlink:href="#h"/><use transform="matrix(0.015190972222222224,0,0,0.015190972222222224,243.49609375000003,0)" xlink:href="#i"/><use transform="matrix(0.015190972222222224,0,0,0.015190972222222224,262.22656250000006,0)" xlink:href="#i"/><use transform="matrix(0.015190972222222224,0,0,0.015190972222222224,280.95703125000006,0)" xlink:href="#h"/></g><g id="c"><use transform="matrix(0.015190972222222224,0,0,0.015190972222222224,0,0)" xlink:href="#i"/><use transform="matrix(0.015190972222222224,0,0,0.015190972222222224,18.730468750000004,0)" xlink:href="#h"/><use transform="matrix(0.015190972222222224,0,0,0.015190972222222224,37.46093750000001,0)" xlink:href="#i"/><use transform="matrix(0.015190972222222224,0,0,0.015190972222222224,56.191406250000014,0)" xlink:href="#h"/><use transform="matrix(0.015190972222222224,0,0,0.015190972222222224,74.92187500000001,0)" xlink:href="#i"/><use transform="matrix(0.015190972222222224,0,0,0.015190972222222224,93.65234375000001,0)" xlink:href="#h"/><use transform="matrix(0.015190972222222224,0,0,0.015190972222222224,112.38281250000001,0)" xlink:href="#h"/><use transform="matrix(0.015190972222222224,0,0,0.015190972222222224,131.11328125000003,0)" xlink:href="#h"/><use transform="matrix(0.015190972222222224,0,0,0.015190972222222224,149.84375000000003,0)" xlink:href="#i"/><use transform="matrix(0.015190972222222224,0,0,0.015190972222222224,168.57421875000003,0)" xlink:href="#h"/><use transform="matrix(0.015190972222222224,0,0,0.015190972222222224,187.30468750000003,0)" xlink:href="#i"/><use transform="matrix(0.015190972222222224,0,0,0.015190972222222224,206.03515625000003,0)" xlink:href="#h"/><use transform="matrix(0.015190972222222224,0,0,0.015190972222222224,224.76562500000003,0)" xlink:href="#i"/><use transform="matrix(0.015190972222222224,0,0,0.015190972222222224,243.49609375000003,0)" xlink:href="#i"/><use transform="matrix(0.015190972222222224,0,0,0.015190972222222224,262.22656250000006,0)" xlink:href="#i"/><use transform="matrix(0.015190972222222224,0,0,0.015190972222222224,280.95703125000006,0)" xlink:href="#i"/></g><filter id="a" filterUnits="objectBoundingBox" x="-.02" y="-.05" width="1.03" height="1.25"><feOffset result="offOut" in="SourceAlpha" dy="6"/><feGaussianBlur result="blurOut" in="offOut" stdDeviation="5"/><feColorMatrix result="colorOut" in="blurOut" values="0 0 0 0 0 0 0 0 0 0 0 0 0 0 0 0 0 0 0.16862745098039217 0"/><feBlend in="SourceGraphic" in2="colorOut"/></filter><filter id="d" filterUnits="objectBoundingBox" x="-.03" y="-.05" width="1.07" height="1.25"><feOffset result="offOut" in="SourceAlpha" dy="6"/><feGaussianBlur result="blurOut" in="offOut" stdDeviation="5"/><feColorMatrix result="colorOut" in="blurOut" values="0 0 0 0 0 0 0 0 0 0 0 0 0 0 0 0 0 0 0.16862745098039217 0"/><feBlend in="SourceGraphic" in2="colorOut"/></filter><path fill="#3d4752" d="M137-1493h203v664l631-664h237L627-883 1225 0H981L494-748 340-584V0H137v-1493" id="j"/><path fill="#3d4752" d="M573-852c169-4 313 85 314 240 0 38-12 77-37 116-69 106-264 278-367 382h410V0H322v-110c111-115 286-263 372-384 28-40 41-78 41-112-1-89-85-140-182-137-90 3-156 34-225 72v-125c75-32 149-55 245-56" id="k"/><g id="f"><use transform="matrix(0.013020833333333334,0,0,0.013020833333333334,0,0)" xlink:href="#j"/><use transform="matrix(0.013020833333333334,0,0,0.013020833333333334,16.0546875,0)" xlink:href="#k"/></g><filter id="e" filterUnits="objectBoundingBox" x="-.13" y="-.1" width="1.25" height="1.5"><feOffset result="offOut" in="SourceAlpha" dy="6"/><feGaussianBlur result="blurOut" in="offOut" stdDeviation="5"/><feColorMatrix result="colorOut" in="blurOut" values="0 0 0 0 0 0 0 0 0 0 0 0 0 0 0 0 0 0 0.16862745098039217 0"/><feBlend in="SourceGraphic" in2="colorOut"/></filter><path fill="#3d4752" d="M362-110h205v-611l-223 41v-116l229-39h138v725h204V0H362v-110" id="l"/><g id="g"><use transform="matrix(0.013020833333333334,0,0,0.013020833333333334,0,0)" xlink:href="#j"/><use transform="matrix(0.013020833333333334,0,0,0.013020833333333334,16.0546875,0)" xlink:href="#l"/></g></defs></g></svg>
