<?xml version="1.0" encoding="UTF-8"?>
<!DOCTYPE svg PUBLIC "-//W3C//DTD SVG 1.1//EN"
    "http://www.w3.org/Graphics/SVG/1.1/DTD/svg11.dtd"><svg xmlns="http://www.w3.org/2000/svg" height="316.9811" stroke-opacity="1" viewBox="0 0 1200 317" font-size="1" width="1200.0000" xmlns:xlink="http://www.w3.org/1999/xlink" stroke="rgb(0,0,0)" version="1.1"><defs></defs><g stroke-linejoin="miter" stroke-opacity="1.0" fill-opacity="0.0" stroke="rgb(0,0,0)" stroke-width="2.466989610000224" fill="rgb(0,0,0)" stroke-linecap="butt" stroke-miterlimit="10.0"><path d="M 936.0206,20.5832 l 216.1235,82.3328 "/></g><g stroke-linejoin="miter" stroke-opacity="1.0" fill-opacity="0.0" stroke="rgb(0,0,0)" stroke-width="2.466989610000224" fill="rgb(0,0,0)" stroke-linecap="butt" stroke-miterlimit="10.0"><path d="M 936.0206,20.5832 l 72.0412,82.3328 "/></g><g stroke-linejoin="miter" stroke-opacity="1.0" fill-opacity="0.0" stroke="rgb(0,0,0)" stroke-width="2.466989610000224" fill="rgb(0,0,0)" stroke-linecap="butt" stroke-miterlimit="10.0"><path d="M 936.0206,20.5832 l -72.0412,82.3328 "/></g><g stroke-linejoin="miter" stroke-opacity="1.0" fill-opacity="0.0" stroke="rgb(0,0,0)" stroke-width="2.466989610000224" fill="rgb(0,0,0)" stroke-linecap="butt" stroke-miterlimit="10.0"><path d="M 936.0206,20.5832 l -216.1235,82.3328 "/></g><g stroke-linejoin="miter" stroke-opacity="1.0" fill-opacity="1.0" stroke="rgb(0,0,0)" stroke-width="2.466989610000224" fill="rgb(255,255,255)" stroke-linecap="butt" stroke-miterlimit="10.0"><path d="M 1172.7273,102.9160 c 0.0000,-11.3678 -9.2154,-20.5832 -20.5832 -20.5832c -11.3678,-0.0000 -20.5832,9.2154 -20.5832 20.5832c -0.0000,11.3678 9.2154,20.5832 20.5832 20.5832c 11.3678,0.0000 20.5832,-9.2154 20.5832 -20.5832Z"/></g><g stroke-linejoin="miter" stroke-opacity="1.0" fill-opacity="0.0" stroke="rgb(0,0,0)" stroke-width="2.466989610000224" fill="rgb(0,0,0)" stroke-linecap="butt" stroke-miterlimit="10.0"><path d="M 1008.0617,102.9160 l 72.0412,82.3328 "/></g><g stroke-linejoin="miter" stroke-opacity="1.0" fill-opacity="0.0" stroke="rgb(0,0,0)" stroke-width="2.466989610000224" fill="rgb(0,0,0)" stroke-linecap="butt" stroke-miterlimit="10.0"><path d="M 1008.0617,102.9160 l -72.0412,82.3328 "/></g><g stroke-linejoin="miter" stroke-opacity="1.0" fill-opacity="1.0" stroke="rgb(0,0,0)" stroke-width="2.466989610000224" fill="rgb(255,255,255)" stroke-linecap="butt" stroke-miterlimit="10.0"><path d="M 1100.6861,185.2487 c 0.0000,-11.3678 -9.2154,-20.5832 -20.5832 -20.5832c -11.3678,-0.0000 -20.5832,9.2154 -20.5832 20.5832c -0.0000,11.3678 9.2154,20.5832 20.5832 20.5832c 11.3678,0.0000 20.5832,-9.2154 20.5832 -20.5832Z"/></g><g stroke-linejoin="miter" stroke-opacity="1.0" fill-opacity="1.0" stroke="rgb(0,0,0)" stroke-width="2.466989610000224" fill="rgb(255,255,255)" stroke-linecap="butt" stroke-miterlimit="10.0"><path d="M 956.6038,185.2487 c 0.0000,-11.3678 -9.2154,-20.5832 -20.5832 -20.5832c -11.3678,-0.0000 -20.5832,9.2154 -20.5832 20.5832c -0.0000,11.3678 9.2154,20.5832 20.5832 20.5832c 11.3678,0.0000 20.5832,-9.2154 20.5832 -20.5832Z"/></g><g stroke-linejoin="miter" stroke-opacity="1.0" fill-opacity="1.0" stroke="rgb(0,0,0)" stroke-width="0.0" fill="rgb(255,255,255)" stroke-linecap="butt" stroke-miterlimit="10.0"><path d="M 1090.3945,123.4991 l -0.0000,-41.1664 h -41.1664 l -0.0000,41.1664 Z"/></g><g stroke-linejoin="miter" stroke-opacity="1.0" fill-opacity="0.0" stroke="rgb(0,0,0)" stroke-width="2.466989610000224" fill="rgb(0,0,0)" stroke-linecap="butt" stroke-miterlimit="10.0"><path d="M 1090.3945,123.4991 l -0.0000,-41.1664 h -41.1664 l -0.0000,41.1664 Z"/></g><g stroke-linejoin="miter" stroke-opacity="1.0" fill-opacity="1.0" stroke="rgb(0,0,0)" stroke-width="2.466989610000224" fill="rgb(0,0,0)" stroke-linecap="butt" stroke-miterlimit="10.0"><path d="M 1073.9280,102.9160 c 0.0000,-2.2736 -1.8431,-4.1166 -4.1166 -4.1166c -2.2736,-0.0000 -4.1166,1.8431 -4.1166 4.1166c -0.0000,2.2736 1.8431,4.1166 4.1166 4.1166c 2.2736,0.0000 4.1166,-1.8431 4.1166 -4.1166Z"/></g><g stroke-linejoin="miter" stroke-opacity="1.0" fill-opacity="1.0" stroke="rgb(0,0,0)" stroke-width="0.0" fill="rgb(255,255,255)" stroke-linecap="butt" stroke-miterlimit="10.0"><path d="M 1049.2281,123.4991 l -0.0000,-41.1664 h -41.1664 l -0.0000,41.1664 Z"/></g><g stroke-linejoin="miter" stroke-opacity="1.0" fill-opacity="0.0" stroke="rgb(0,0,0)" stroke-width="2.466989610000224" fill="rgb(0,0,0)" stroke-linecap="butt" stroke-miterlimit="10.0"><path d="M 1049.2281,123.4991 l -0.0000,-41.1664 h -41.1664 l -0.0000,41.1664 Z"/></g><g stroke-linejoin="miter" stroke-opacity="1.0" fill-opacity="1.0" stroke="rgb(0,0,0)" stroke-width="2.466989610000224" fill="rgb(0,0,0)" stroke-linecap="butt" stroke-miterlimit="10.0"><path d="M 1032.7616,102.9160 c 0.0000,-2.2736 -1.8431,-4.1166 -4.1166 -4.1166c -2.2736,-0.0000 -4.1166,1.8431 -4.1166 4.1166c -0.0000,2.2736 1.8431,4.1166 4.1166 4.1166c 2.2736,0.0000 4.1166,-1.8431 4.1166 -4.1166Z"/></g><g stroke-linejoin="miter" stroke-opacity="1.0" fill-opacity="1.0" stroke="rgb(0,0,0)" stroke-width="0.0" fill="rgb(255,255,255)" stroke-linecap="butt" stroke-miterlimit="10.0"><path d="M 1008.0617,123.4991 l -0.0000,-41.1664 h -41.1664 l -0.0000,41.1664 Z"/></g><g stroke-linejoin="miter" stroke-opacity="1.0" fill-opacity="0.0" stroke="rgb(0,0,0)" stroke-width="2.466989610000224" fill="rgb(0,0,0)" stroke-linecap="butt" stroke-miterlimit="10.0"><path d="M 1008.0617,123.4991 l -0.0000,-41.1664 h -41.1664 l -0.0000,41.1664 Z"/></g><g stroke-linejoin="miter" stroke-opacity="1.0" fill-opacity="1.0" stroke="rgb(0,0,0)" stroke-width="2.466989610000224" fill="rgb(0,0,0)" stroke-linecap="butt" stroke-miterlimit="10.0"><path d="M 991.5952,102.9160 c 0.0000,-2.2736 -1.8431,-4.1166 -4.1166 -4.1166c -2.2736,-0.0000 -4.1166,1.8431 -4.1166 4.1166c -0.0000,2.2736 1.8431,4.1166 4.1166 4.1166c 2.2736,0.0000 4.1166,-1.8431 4.1166 -4.1166Z"/></g><g stroke-linejoin="miter" stroke-opacity="1.0" fill-opacity="1.0" stroke="rgb(0,0,0)" stroke-width="0.0" fill="rgb(255,255,255)" stroke-linecap="butt" stroke-miterlimit="10.0"><path d="M 966.8954,123.4991 l -0.0000,-41.1664 h -41.1664 l -0.0000,41.1664 Z"/></g><g stroke-linejoin="miter" stroke-opacity="1.0" fill-opacity="0.0" stroke="rgb(0,0,0)" stroke-width="2.466989610000224" fill="rgb(0,0,0)" stroke-linecap="butt" stroke-miterlimit="10.0"><path d="M 966.8954,123.4991 l -0.0000,-41.1664 h -41.1664 l -0.0000,41.1664 Z"/></g><g stroke-linejoin="miter" stroke-opacity="1.0" fill-opacity="1.0" stroke="rgb(0,0,0)" stroke-width="2.466989610000224" fill="rgb(0,0,0)" stroke-linecap="butt" stroke-miterlimit="10.0"><path d="M 950.4288,102.9160 c 0.0000,-2.2736 -1.8431,-4.1166 -4.1166 -4.1166c -2.2736,-0.0000 -4.1166,1.8431 -4.1166 4.1166c -0.0000,2.2736 1.8431,4.1166 4.1166 4.1166c 2.2736,0.0000 4.1166,-1.8431 4.1166 -4.1166Z"/></g><g stroke-linejoin="miter" stroke-opacity="1.0" fill-opacity="1.0" stroke="rgb(0,0,0)" stroke-width="2.466989610000224" fill="rgb(255,255,255)" stroke-linecap="butt" stroke-miterlimit="10.0"><path d="M 884.5626,102.9160 c 0.0000,-11.3678 -9.2154,-20.5832 -20.5832 -20.5832c -11.3678,-0.0000 -20.5832,9.2154 -20.5832 20.5832c -0.0000,11.3678 9.2154,20.5832 20.5832 20.5832c 11.3678,0.0000 20.5832,-9.2154 20.5832 -20.5832Z"/></g><g stroke-linejoin="miter" stroke-opacity="1.0" fill-opacity="0.0" stroke="rgb(0,0,0)" stroke-width="2.466989610000224" fill="rgb(0,0,0)" stroke-linecap="butt" stroke-miterlimit="10.0"><path d="M 719.8971,102.9160 l 72.0412,82.3328 "/></g><g stroke-linejoin="miter" stroke-opacity="1.0" fill-opacity="0.0" stroke="rgb(0,0,0)" stroke-width="2.466989610000224" fill="rgb(0,0,0)" stroke-linecap="butt" stroke-miterlimit="10.0"><path d="M 719.8971,102.9160 l -72.0412,82.3328 "/></g><g stroke-linejoin="miter" stroke-opacity="1.0" fill-opacity="1.0" stroke="rgb(0,0,0)" stroke-width="2.466989610000224" fill="rgb(255,255,255)" stroke-linecap="butt" stroke-miterlimit="10.0"><path d="M 812.5214,185.2487 c 0.0000,-11.3678 -9.2154,-20.5832 -20.5832 -20.5832c -11.3678,-0.0000 -20.5832,9.2154 -20.5832 20.5832c -0.0000,11.3678 9.2154,20.5832 20.5832 20.5832c 11.3678,0.0000 20.5832,-9.2154 20.5832 -20.5832Z"/></g><g stroke-linejoin="miter" stroke-opacity="1.0" fill-opacity="1.0" stroke="rgb(0,0,0)" stroke-width="2.466989610000224" fill="rgb(255,255,255)" stroke-linecap="butt" stroke-miterlimit="10.0"><path d="M 668.4391,185.2487 c 0.0000,-11.3678 -9.2154,-20.5832 -20.5832 -20.5832c -11.3678,-0.0000 -20.5832,9.2154 -20.5832 20.5832c -0.0000,11.3678 9.2154,20.5832 20.5832 20.5832c 11.3678,0.0000 20.5832,-9.2154 20.5832 -20.5832Z"/></g><g stroke-linejoin="miter" stroke-opacity="1.0" fill-opacity="1.0" stroke="rgb(0,0,0)" stroke-width="0.0" fill="rgb(255,255,255)" stroke-linecap="butt" stroke-miterlimit="10.0"><path d="M 802.2298,123.4991 l -0.0000,-41.1664 h -41.1664 l -0.0000,41.1664 Z"/></g><g stroke-linejoin="miter" stroke-opacity="1.0" fill-opacity="0.0" stroke="rgb(0,0,0)" stroke-width="2.466989610000224" fill="rgb(0,0,0)" stroke-linecap="butt" stroke-miterlimit="10.0"><path d="M 802.2298,123.4991 l -0.0000,-41.1664 h -41.1664 l -0.0000,41.1664 Z"/></g><g stroke-linejoin="miter" stroke-opacity="1.0" fill-opacity="1.0" stroke="rgb(0,0,0)" stroke-width="2.466989610000224" fill="rgb(0,0,0)" stroke-linecap="butt" stroke-miterlimit="10.0"><path d="M 785.7633,102.9160 c 0.0000,-2.2736 -1.8431,-4.1166 -4.1166 -4.1166c -2.2736,-0.0000 -4.1166,1.8431 -4.1166 4.1166c -0.0000,2.2736 1.8431,4.1166 4.1166 4.1166c 2.2736,0.0000 4.1166,-1.8431 4.1166 -4.1166Z"/></g><g stroke-linejoin="miter" stroke-opacity="1.0" fill-opacity="1.0" stroke="rgb(0,0,0)" stroke-width="0.0" fill="rgb(255,255,255)" stroke-linecap="butt" stroke-miterlimit="10.0"><path d="M 761.0635,123.4991 l -0.0000,-41.1664 h -41.1664 l -0.0000,41.1664 Z"/></g><g stroke-linejoin="miter" stroke-opacity="1.0" fill-opacity="0.0" stroke="rgb(0,0,0)" stroke-width="2.466989610000224" fill="rgb(0,0,0)" stroke-linecap="butt" stroke-miterlimit="10.0"><path d="M 761.0635,123.4991 l -0.0000,-41.1664 h -41.1664 l -0.0000,41.1664 Z"/></g><g stroke-linejoin="miter" stroke-opacity="1.0" fill-opacity="1.0" stroke="rgb(0,0,0)" stroke-width="2.466989610000224" fill="rgb(0,0,0)" stroke-linecap="butt" stroke-miterlimit="10.0"><path d="M 744.5969,102.9160 c 0.0000,-2.2736 -1.8431,-4.1166 -4.1166 -4.1166c -2.2736,-0.0000 -4.1166,1.8431 -4.1166 4.1166c -0.0000,2.2736 1.8431,4.1166 4.1166 4.1166c 2.2736,0.0000 4.1166,-1.8431 4.1166 -4.1166Z"/></g><g stroke-linejoin="miter" stroke-opacity="1.0" fill-opacity="1.0" stroke="rgb(0,0,0)" stroke-width="0.0" fill="rgb(255,255,255)" stroke-linecap="butt" stroke-miterlimit="10.0"><path d="M 719.8971,123.4991 l -0.0000,-41.1664 h -41.1664 l -0.0000,41.1664 Z"/></g><g stroke-linejoin="miter" stroke-opacity="1.0" fill-opacity="0.0" stroke="rgb(0,0,0)" stroke-width="2.466989610000224" fill="rgb(0,0,0)" stroke-linecap="butt" stroke-miterlimit="10.0"><path d="M 719.8971,123.4991 l -0.0000,-41.1664 h -41.1664 l -0.0000,41.1664 Z"/></g><g stroke-linejoin="miter" stroke-opacity="1.0" fill-opacity="1.0" stroke="rgb(0,0,0)" stroke-width="2.466989610000224" fill="rgb(0,0,0)" stroke-linecap="butt" stroke-miterlimit="10.0"><path d="M 703.4305,102.9160 c 0.0000,-2.2736 -1.8431,-4.1166 -4.1166 -4.1166c -2.2736,-0.0000 -4.1166,1.8431 -4.1166 4.1166c -0.0000,2.2736 1.8431,4.1166 4.1166 4.1166c 2.2736,0.0000 4.1166,-1.8431 4.1166 -4.1166Z"/></g><g stroke-linejoin="miter" stroke-opacity="1.0" fill-opacity="1.0" stroke="rgb(0,0,0)" stroke-width="0.0" fill="rgb(255,255,255)" stroke-linecap="butt" stroke-miterlimit="10.0"><path d="M 678.7307,123.4991 l -0.0000,-41.1664 h -41.1664 l -0.0000,41.1664 Z"/></g><g stroke-linejoin="miter" stroke-opacity="1.0" fill-opacity="0.0" stroke="rgb(0,0,0)" stroke-width="2.466989610000224" fill="rgb(0,0,0)" stroke-linecap="butt" stroke-miterlimit="10.0"><path d="M 678.7307,123.4991 l -0.0000,-41.1664 h -41.1664 l -0.0000,41.1664 Z"/></g><g stroke-linejoin="miter" stroke-opacity="1.0" fill-opacity="1.0" stroke="rgb(0,0,0)" stroke-width="2.466989610000224" fill="rgb(0,0,0)" stroke-linecap="butt" stroke-miterlimit="10.0"><path d="M 662.2642,102.9160 c 0.0000,-2.2736 -1.8431,-4.1166 -4.1166 -4.1166c -2.2736,-0.0000 -4.1166,1.8431 -4.1166 4.1166c -0.0000,2.2736 1.8431,4.1166 4.1166 4.1166c 2.2736,0.0000 4.1166,-1.8431 4.1166 -4.1166Z"/></g><g stroke-linejoin="miter" stroke-opacity="1.0" fill-opacity="1.0" stroke="rgb(0,0,0)" stroke-width="0.0" fill="rgb(255,255,255)" stroke-linecap="butt" stroke-miterlimit="10.0"><path d="M 1018.3533,41.1664 l -0.0000,-41.1664 h -41.1664 l -0.0000,41.1664 Z"/></g><g stroke-linejoin="miter" stroke-opacity="1.0" fill-opacity="0.0" stroke="rgb(0,0,0)" stroke-width="2.466989610000224" fill="rgb(0,0,0)" stroke-linecap="butt" stroke-miterlimit="10.0"><path d="M 1018.3533,41.1664 l -0.0000,-41.1664 h -41.1664 l -0.0000,41.1664 Z"/></g><g stroke-linejoin="miter" stroke-opacity="1.0" fill-opacity="1.0" stroke="rgb(0,0,0)" stroke-width="2.466989610000224" fill="rgb(0,0,0)" stroke-linecap="butt" stroke-miterlimit="10.0"><path d="M 1001.8868,20.5832 c 0.0000,-2.2736 -1.8431,-4.1166 -4.1166 -4.1166c -2.2736,-0.0000 -4.1166,1.8431 -4.1166 4.1166c -0.0000,2.2736 1.8431,4.1166 4.1166 4.1166c 2.2736,0.0000 4.1166,-1.8431 4.1166 -4.1166Z"/></g><g stroke-linejoin="miter" stroke-opacity="1.0" fill-opacity="1.0" stroke="rgb(0,0,0)" stroke-width="0.0" fill="rgb(255,255,255)" stroke-linecap="butt" stroke-miterlimit="10.0"><path d="M 977.1870,41.1664 l -0.0000,-41.1664 h -41.1664 l -0.0000,41.1664 Z"/></g><g stroke-linejoin="miter" stroke-opacity="1.0" fill-opacity="0.0" stroke="rgb(0,0,0)" stroke-width="2.466989610000224" fill="rgb(0,0,0)" stroke-linecap="butt" stroke-miterlimit="10.0"><path d="M 977.1870,41.1664 l -0.0000,-41.1664 h -41.1664 l -0.0000,41.1664 Z"/></g><g stroke-linejoin="miter" stroke-opacity="1.0" fill-opacity="1.0" stroke="rgb(0,0,0)" stroke-width="2.466989610000224" fill="rgb(0,0,0)" stroke-linecap="butt" stroke-miterlimit="10.0"><path d="M 960.7204,20.5832 c 0.0000,-2.2736 -1.8431,-4.1166 -4.1166 -4.1166c -2.2736,-0.0000 -4.1166,1.8431 -4.1166 4.1166c -0.0000,2.2736 1.8431,4.1166 4.1166 4.1166c 2.2736,0.0000 4.1166,-1.8431 4.1166 -4.1166Z"/></g><g stroke-linejoin="miter" stroke-opacity="1.0" fill-opacity="1.0" stroke="rgb(0,0,0)" stroke-width="0.0" fill="rgb(255,255,255)" stroke-linecap="butt" stroke-miterlimit="10.0"><path d="M 936.0206,41.1664 l -0.0000,-41.1664 h -41.1664 l -0.0000,41.1664 Z"/></g><g stroke-linejoin="miter" stroke-opacity="1.0" fill-opacity="0.0" stroke="rgb(0,0,0)" stroke-width="2.466989610000224" fill="rgb(0,0,0)" stroke-linecap="butt" stroke-miterlimit="10.0"><path d="M 936.0206,41.1664 l -0.0000,-41.1664 h -41.1664 l -0.0000,41.1664 Z"/></g><g stroke-linejoin="miter" stroke-opacity="1.0" fill-opacity="1.0" stroke="rgb(0,0,0)" stroke-width="2.466989610000224" fill="rgb(0,0,0)" stroke-linecap="butt" stroke-miterlimit="10.0"><path d="M 919.5540,20.5832 c 0.0000,-2.2736 -1.8431,-4.1166 -4.1166 -4.1166c -2.2736,-0.0000 -4.1166,1.8431 -4.1166 4.1166c -0.0000,2.2736 1.8431,4.1166 4.1166 4.1166c 2.2736,0.0000 4.1166,-1.8431 4.1166 -4.1166Z"/></g><g stroke-linejoin="miter" stroke-opacity="1.0" fill-opacity="1.0" stroke="rgb(0,0,0)" stroke-width="0.0" fill="rgb(255,255,255)" stroke-linecap="butt" stroke-miterlimit="10.0"><path d="M 894.8542,41.1664 l -0.0000,-41.1664 h -41.1664 l -0.0000,41.1664 Z"/></g><g stroke-linejoin="miter" stroke-opacity="1.0" fill-opacity="0.0" stroke="rgb(0,0,0)" stroke-width="2.466989610000224" fill="rgb(0,0,0)" stroke-linecap="butt" stroke-miterlimit="10.0"><path d="M 894.8542,41.1664 l -0.0000,-41.1664 h -41.1664 l -0.0000,41.1664 Z"/></g><g stroke-linejoin="miter" stroke-opacity="1.0" fill-opacity="1.0" stroke="rgb(0,0,0)" stroke-width="2.466989610000224" fill="rgb(0,0,0)" stroke-linecap="butt" stroke-miterlimit="10.0"><path d="M 878.3877,20.5832 c 0.0000,-2.2736 -1.8431,-4.1166 -4.1166 -4.1166c -2.2736,-0.0000 -4.1166,1.8431 -4.1166 4.1166c -0.0000,2.2736 1.8431,4.1166 4.1166 4.1166c 2.2736,0.0000 4.1166,-1.8431 4.1166 -4.1166Z"/></g><g stroke-linejoin="miter" stroke-opacity="1.0" fill-opacity="0.0" stroke="rgb(0,0,0)" stroke-width="2.466989610000224" fill="rgb(0,0,0)" stroke-linecap="butt" stroke-miterlimit="10.0"><path d="M 336.0206,20.5832 l 144.0823,82.3328 "/></g><g stroke-linejoin="miter" stroke-opacity="1.0" fill-opacity="0.0" stroke="rgb(0,0,0)" stroke-width="2.466989610000224" fill="rgb(0,0,0)" stroke-linecap="butt" stroke-miterlimit="10.0"><path d="M 336.0206,20.5832 l -144.0823,82.3328 "/></g><g stroke-linejoin="miter" stroke-opacity="1.0" fill-opacity="0.0" stroke="rgb(0,0,0)" stroke-width="2.466989610000224" fill="rgb(0,0,0)" stroke-linecap="butt" stroke-miterlimit="10.0"><path d="M 480.1029,102.9160 l 72.0412,82.3328 "/></g><g stroke-linejoin="miter" stroke-opacity="1.0" fill-opacity="0.0" stroke="rgb(0,0,0)" stroke-width="2.466989610000224" fill="rgb(0,0,0)" stroke-linecap="butt" stroke-miterlimit="10.0"><path d="M 480.1029,102.9160 l -72.0412,82.3328 "/></g><g stroke-linejoin="miter" stroke-opacity="1.0" fill-opacity="1.0" stroke="rgb(0,0,0)" stroke-width="2.466989610000224" fill="rgb(255,255,255)" stroke-linecap="butt" stroke-miterlimit="10.0"><path d="M 572.7273,185.2487 c 0.0000,-11.3678 -9.2154,-20.5832 -20.5832 -20.5832c -11.3678,-0.0000 -20.5832,9.2154 -20.5832 20.5832c -0.0000,11.3678 9.2154,20.5832 20.5832 20.5832c 11.3678,0.0000 20.5832,-9.2154 20.5832 -20.5832Z"/></g><g stroke-linejoin="miter" stroke-opacity="1.0" fill-opacity="0.0" stroke="rgb(0,0,0)" stroke-width="2.466989610000224" fill="rgb(0,0,0)" stroke-linecap="butt" stroke-miterlimit="10.0"><path d="M 408.0617,185.2487 l 72.0412,82.3328 "/></g><g stroke-linejoin="miter" stroke-opacity="1.0" fill-opacity="0.0" stroke="rgb(0,0,0)" stroke-width="2.466989610000224" fill="rgb(0,0,0)" stroke-linecap="butt" stroke-miterlimit="10.0"><path d="M 408.0617,185.2487 l -72.0412,82.3328 "/></g><g stroke-linejoin="miter" stroke-opacity="1.0" fill-opacity="1.0" stroke="rgb(0,0,0)" stroke-width="2.466989610000224" fill="rgb(255,255,255)" stroke-linecap="butt" stroke-miterlimit="10.0"><path d="M 500.6861,267.5815 c 0.0000,-11.3678 -9.2154,-20.5832 -20.5832 -20.5832c -11.3678,-0.0000 -20.5832,9.2154 -20.5832 20.5832c -0.0000,11.3678 9.2154,20.5832 20.5832 20.5832c 11.3678,0.0000 20.5832,-9.2154 20.5832 -20.5832Z"/></g><g stroke-linejoin="miter" stroke-opacity="1.0" fill-opacity="1.0" stroke="rgb(0,0,0)" stroke-width="2.466989610000224" fill="rgb(255,255,255)" stroke-linecap="butt" stroke-miterlimit="10.0"><path d="M 356.6038,267.5815 c 0.0000,-11.3678 -9.2154,-20.5832 -20.5832 -20.5832c -11.3678,-0.0000 -20.5832,9.2154 -20.5832 20.5832c -0.0000,11.3678 9.2154,20.5832 20.5832 20.5832c 11.3678,0.0000 20.5832,-9.2154 20.5832 -20.5832Z"/></g><g stroke-linejoin="miter" stroke-opacity="1.0" fill-opacity="1.0" stroke="rgb(0,0,0)" stroke-width="0.0" fill="rgb(255,255,255)" stroke-linecap="butt" stroke-miterlimit="10.0"><path d="M 449.2281,205.8319 l -0.0000,-41.1664 h -41.1664 l -0.0000,41.1664 Z"/></g><g stroke-linejoin="miter" stroke-opacity="1.0" fill-opacity="0.0" stroke="rgb(0,0,0)" stroke-width="2.466989610000224" fill="rgb(0,0,0)" stroke-linecap="butt" stroke-miterlimit="10.0"><path d="M 449.2281,205.8319 l -0.0000,-41.1664 h -41.1664 l -0.0000,41.1664 Z"/></g><g stroke-linejoin="miter" stroke-opacity="1.0" fill-opacity="1.0" stroke="rgb(0,0,0)" stroke-width="2.466989610000224" fill="rgb(0,0,0)" stroke-linecap="butt" stroke-miterlimit="10.0"><path d="M 432.7616,185.2487 c 0.0000,-2.2736 -1.8431,-4.1166 -4.1166 -4.1166c -2.2736,-0.0000 -4.1166,1.8431 -4.1166 4.1166c -0.0000,2.2736 1.8431,4.1166 4.1166 4.1166c 2.2736,0.0000 4.1166,-1.8431 4.1166 -4.1166Z"/></g><g stroke-linejoin="miter" stroke-opacity="1.0" fill-opacity="1.0" stroke="rgb(0,0,0)" stroke-width="0.0" fill="rgb(255,255,255)" stroke-linecap="butt" stroke-miterlimit="10.0"><path d="M 408.0617,205.8319 l -0.0000,-41.1664 h -41.1664 l -0.0000,41.1664 Z"/></g><g stroke-linejoin="miter" stroke-opacity="1.0" fill-opacity="0.0" stroke="rgb(0,0,0)" stroke-width="2.466989610000224" fill="rgb(0,0,0)" stroke-linecap="butt" stroke-miterlimit="10.0"><path d="M 408.0617,205.8319 l -0.0000,-41.1664 h -41.1664 l -0.0000,41.1664 Z"/></g><g stroke-linejoin="miter" stroke-opacity="1.0" fill-opacity="1.0" stroke="rgb(0,0,0)" stroke-width="2.466989610000224" fill="rgb(0,0,0)" stroke-linecap="butt" stroke-miterlimit="10.0"><path d="M 391.5952,185.2487 c 0.0000,-2.2736 -1.8431,-4.1166 -4.1166 -4.1166c -2.2736,-0.0000 -4.1166,1.8431 -4.1166 4.1166c -0.0000,2.2736 1.8431,4.1166 4.1166 4.1166c 2.2736,0.0000 4.1166,-1.8431 4.1166 -4.1166Z"/></g><g stroke-linejoin="miter" stroke-opacity="1.0" fill-opacity="1.0" stroke="rgb(0,0,0)" stroke-width="0.0" fill="rgb(255,255,255)" stroke-linecap="butt" stroke-miterlimit="10.0"><path d="M 521.2693,123.4991 l -0.0000,-41.1664 h -41.1664 l -0.0000,41.1664 Z"/></g><g stroke-linejoin="miter" stroke-opacity="1.0" fill-opacity="0.0" stroke="rgb(0,0,0)" stroke-width="2.466989610000224" fill="rgb(0,0,0)" stroke-linecap="butt" stroke-miterlimit="10.0"><path d="M 521.2693,123.4991 l -0.0000,-41.1664 h -41.1664 l -0.0000,41.1664 Z"/></g><g stroke-linejoin="miter" stroke-opacity="1.0" fill-opacity="1.0" stroke="rgb(0,0,0)" stroke-width="2.466989610000224" fill="rgb(0,0,0)" stroke-linecap="butt" stroke-miterlimit="10.0"><path d="M 504.8027,102.9160 c 0.0000,-2.2736 -1.8431,-4.1166 -4.1166 -4.1166c -2.2736,-0.0000 -4.1166,1.8431 -4.1166 4.1166c -0.0000,2.2736 1.8431,4.1166 4.1166 4.1166c 2.2736,0.0000 4.1166,-1.8431 4.1166 -4.1166Z"/></g><g stroke-linejoin="miter" stroke-opacity="1.0" fill-opacity="1.0" stroke="rgb(0,0,0)" stroke-width="0.0" fill="rgb(255,255,255)" stroke-linecap="butt" stroke-miterlimit="10.0"><path d="M 480.1029,123.4991 l -0.0000,-41.1664 h -41.1664 l -0.0000,41.1664 Z"/></g><g stroke-linejoin="miter" stroke-opacity="1.0" fill-opacity="0.0" stroke="rgb(0,0,0)" stroke-width="2.466989610000224" fill="rgb(0,0,0)" stroke-linecap="butt" stroke-miterlimit="10.0"><path d="M 480.1029,123.4991 l -0.0000,-41.1664 h -41.1664 l -0.0000,41.1664 Z"/></g><g stroke-linejoin="miter" stroke-opacity="1.0" fill-opacity="1.0" stroke="rgb(0,0,0)" stroke-width="2.466989610000224" fill="rgb(0,0,0)" stroke-linecap="butt" stroke-miterlimit="10.0"><path d="M 463.6364,102.9160 c 0.0000,-2.2736 -1.8431,-4.1166 -4.1166 -4.1166c -2.2736,-0.0000 -4.1166,1.8431 -4.1166 4.1166c -0.0000,2.2736 1.8431,4.1166 4.1166 4.1166c 2.2736,0.0000 4.1166,-1.8431 4.1166 -4.1166Z"/></g><g stroke-linejoin="miter" stroke-opacity="1.0" fill-opacity="0.0" stroke="rgb(0,0,0)" stroke-width="2.466989610000224" fill="rgb(0,0,0)" stroke-linecap="butt" stroke-miterlimit="10.0"><path d="M 191.9383,102.9160 l 72.0412,82.3328 "/></g><g stroke-linejoin="miter" stroke-opacity="1.0" fill-opacity="0.0" stroke="rgb(0,0,0)" stroke-width="2.466989610000224" fill="rgb(0,0,0)" stroke-linecap="butt" stroke-miterlimit="10.0"><path d="M 191.9383,102.9160 l -72.0412,82.3328 "/></g><g stroke-linejoin="miter" stroke-opacity="1.0" fill-opacity="1.0" stroke="rgb(0,0,0)" stroke-width="2.466989610000224" fill="rgb(255,255,255)" stroke-linecap="butt" stroke-miterlimit="10.0"><path d="M 284.5626,185.2487 c 0.0000,-11.3678 -9.2154,-20.5832 -20.5832 -20.5832c -11.3678,-0.0000 -20.5832,9.2154 -20.5832 20.5832c -0.0000,11.3678 9.2154,20.5832 20.5832 20.5832c 11.3678,0.0000 20.5832,-9.2154 20.5832 -20.5832Z"/></g><g stroke-linejoin="miter" stroke-opacity="1.0" fill-opacity="0.0" stroke="rgb(0,0,0)" stroke-width="2.466989610000224" fill="rgb(0,0,0)" stroke-linecap="butt" stroke-miterlimit="10.0"><path d="M 119.8971,185.2487 l 72.0412,82.3328 "/></g><g stroke-linejoin="miter" stroke-opacity="1.0" fill-opacity="0.0" stroke="rgb(0,0,0)" stroke-width="2.466989610000224" fill="rgb(0,0,0)" stroke-linecap="butt" stroke-miterlimit="10.0"><path d="M 119.8971,185.2487 l -72.0412,82.3328 "/></g><g stroke-linejoin="miter" stroke-opacity="1.0" fill-opacity="1.0" stroke="rgb(0,0,0)" stroke-width="2.466989610000224" fill="rgb(255,255,255)" stroke-linecap="butt" stroke-miterlimit="10.0"><path d="M 212.5214,267.5815 c 0.0000,-11.3678 -9.2154,-20.5832 -20.5832 -20.5832c -11.3678,-0.0000 -20.5832,9.2154 -20.5832 20.5832c -0.0000,11.3678 9.2154,20.5832 20.5832 20.5832c 11.3678,0.0000 20.5832,-9.2154 20.5832 -20.5832Z"/></g><g stroke-linejoin="miter" stroke-opacity="1.0" fill-opacity="1.0" stroke="rgb(0,0,0)" stroke-width="2.466989610000224" fill="rgb(255,255,255)" stroke-linecap="butt" stroke-miterlimit="10.0"><path d="M 68.4391,267.5815 c 0.0000,-11.3678 -9.2154,-20.5832 -20.5832 -20.5832c -11.3678,-0.0000 -20.5832,9.2154 -20.5832 20.5832c -0.0000,11.3678 9.2154,20.5832 20.5832 20.5832c 11.3678,0.0000 20.5832,-9.2154 20.5832 -20.5832Z"/></g><g stroke-linejoin="miter" stroke-opacity="1.0" fill-opacity="1.0" stroke="rgb(0,0,0)" stroke-width="0.0" fill="rgb(255,255,255)" stroke-linecap="butt" stroke-miterlimit="10.0"><path d="M 161.0635,205.8319 l -0.0000,-41.1664 h -41.1664 l -0.0000,41.1664 Z"/></g><g stroke-linejoin="miter" stroke-opacity="1.0" fill-opacity="0.0" stroke="rgb(0,0,0)" stroke-width="2.466989610000224" fill="rgb(0,0,0)" stroke-linecap="butt" stroke-miterlimit="10.0"><path d="M 161.0635,205.8319 l -0.0000,-41.1664 h -41.1664 l -0.0000,41.1664 Z"/></g><g stroke-linejoin="miter" stroke-opacity="1.0" fill-opacity="1.0" stroke="rgb(0,0,0)" stroke-width="2.466989610000224" fill="rgb(0,0,0)" stroke-linecap="butt" stroke-miterlimit="10.0"><path d="M 144.5969,185.2487 c 0.0000,-2.2736 -1.8431,-4.1166 -4.1166 -4.1166c -2.2736,-0.0000 -4.1166,1.8431 -4.1166 4.1166c -0.0000,2.2736 1.8431,4.1166 4.1166 4.1166c 2.2736,0.0000 4.1166,-1.8431 4.1166 -4.1166Z"/></g><g stroke-linejoin="miter" stroke-opacity="1.0" fill-opacity="1.0" stroke="rgb(0,0,0)" stroke-width="0.0" fill="rgb(255,255,255)" stroke-linecap="butt" stroke-miterlimit="10.0"><path d="M 119.8971,205.8319 l -0.0000,-41.1664 h -41.1664 l -0.0000,41.1664 Z"/></g><g stroke-linejoin="miter" stroke-opacity="1.0" fill-opacity="0.0" stroke="rgb(0,0,0)" stroke-width="2.466989610000224" fill="rgb(0,0,0)" stroke-linecap="butt" stroke-miterlimit="10.0"><path d="M 119.8971,205.8319 l -0.0000,-41.1664 h -41.1664 l -0.0000,41.1664 Z"/></g><g stroke-linejoin="miter" stroke-opacity="1.0" fill-opacity="1.0" stroke="rgb(0,0,0)" stroke-width="2.466989610000224" fill="rgb(0,0,0)" stroke-linecap="butt" stroke-miterlimit="10.0"><path d="M 103.4305,185.2487 c 0.0000,-2.2736 -1.8431,-4.1166 -4.1166 -4.1166c -2.2736,-0.0000 -4.1166,1.8431 -4.1166 4.1166c -0.0000,2.2736 1.8431,4.1166 4.1166 4.1166c 2.2736,0.0000 4.1166,-1.8431 4.1166 -4.1166Z"/></g><g stroke-linejoin="miter" stroke-opacity="1.0" fill-opacity="1.0" stroke="rgb(0,0,0)" stroke-width="0.0" fill="rgb(255,255,255)" stroke-linecap="butt" stroke-miterlimit="10.0"><path d="M 233.1046,123.4991 l -0.0000,-41.1664 h -41.1664 l -0.0000,41.1664 Z"/></g><g stroke-linejoin="miter" stroke-opacity="1.0" fill-opacity="0.0" stroke="rgb(0,0,0)" stroke-width="2.466989610000224" fill="rgb(0,0,0)" stroke-linecap="butt" stroke-miterlimit="10.0"><path d="M 233.1046,123.4991 l -0.0000,-41.1664 h -41.1664 l -0.0000,41.1664 Z"/></g><g stroke-linejoin="miter" stroke-opacity="1.0" fill-opacity="1.0" stroke="rgb(0,0,0)" stroke-width="2.466989610000224" fill="rgb(0,0,0)" stroke-linecap="butt" stroke-miterlimit="10.0"><path d="M 216.6381,102.9160 c 0.0000,-2.2736 -1.8431,-4.1166 -4.1166 -4.1166c -2.2736,-0.0000 -4.1166,1.8431 -4.1166 4.1166c -0.0000,2.2736 1.8431,4.1166 4.1166 4.1166c 2.2736,0.0000 4.1166,-1.8431 4.1166 -4.1166Z"/></g><g stroke-linejoin="miter" stroke-opacity="1.0" fill-opacity="1.0" stroke="rgb(0,0,0)" stroke-width="0.0" fill="rgb(255,255,255)" stroke-linecap="butt" stroke-miterlimit="10.0"><path d="M 191.9383,123.4991 l -0.0000,-41.1664 h -41.1664 l -0.0000,41.1664 Z"/></g><g stroke-linejoin="miter" stroke-opacity="1.0" fill-opacity="0.0" stroke="rgb(0,0,0)" stroke-width="2.466989610000224" fill="rgb(0,0,0)" stroke-linecap="butt" stroke-miterlimit="10.0"><path d="M 191.9383,123.4991 l -0.0000,-41.1664 h -41.1664 l -0.0000,41.1664 Z"/></g><g stroke-linejoin="miter" stroke-opacity="1.0" fill-opacity="1.0" stroke="rgb(0,0,0)" stroke-width="2.466989610000224" fill="rgb(0,0,0)" stroke-linecap="butt" stroke-miterlimit="10.0"><path d="M 175.4717,102.9160 c 0.0000,-2.2736 -1.8431,-4.1166 -4.1166 -4.1166c -2.2736,-0.0000 -4.1166,1.8431 -4.1166 4.1166c -0.0000,2.2736 1.8431,4.1166 4.1166 4.1166c 2.2736,0.0000 4.1166,-1.8431 4.1166 -4.1166Z"/></g><g stroke-linejoin="miter" stroke-opacity="1.0" fill-opacity="1.0" stroke="rgb(0,0,0)" stroke-width="0.0" fill="rgb(255,255,255)" stroke-linecap="butt" stroke-miterlimit="10.0"><path d="M 377.1870,41.1664 l -0.0000,-41.1664 h -41.1664 l -0.0000,41.1664 Z"/></g><g stroke-linejoin="miter" stroke-opacity="1.0" fill-opacity="0.0" stroke="rgb(0,0,0)" stroke-width="2.466989610000224" fill="rgb(0,0,0)" stroke-linecap="butt" stroke-miterlimit="10.0"><path d="M 377.1870,41.1664 l -0.0000,-41.1664 h -41.1664 l -0.0000,41.1664 Z"/></g><g stroke-linejoin="miter" stroke-opacity="1.0" fill-opacity="1.0" stroke="rgb(0,0,0)" stroke-width="2.466989610000224" fill="rgb(0,0,0)" stroke-linecap="butt" stroke-miterlimit="10.0"><path d="M 360.7204,20.5832 c 0.0000,-2.2736 -1.8431,-4.1166 -4.1166 -4.1166c -2.2736,-0.0000 -4.1166,1.8431 -4.1166 4.1166c -0.0000,2.2736 1.8431,4.1166 4.1166 4.1166c 2.2736,0.0000 4.1166,-1.8431 4.1166 -4.1166Z"/></g><g stroke-linejoin="miter" stroke-opacity="1.0" fill-opacity="1.0" stroke="rgb(0,0,0)" stroke-width="0.0" fill="rgb(255,255,255)" stroke-linecap="butt" stroke-miterlimit="10.0"><path d="M 336.0206,41.1664 l -0.0000,-41.1664 h -41.1664 l -0.0000,41.1664 Z"/></g><g stroke-linejoin="miter" stroke-opacity="1.0" fill-opacity="0.0" stroke="rgb(0,0,0)" stroke-width="2.466989610000224" fill="rgb(0,0,0)" stroke-linecap="butt" stroke-miterlimit="10.0"><path d="M 336.0206,41.1664 l -0.0000,-41.1664 h -41.1664 l -0.0000,41.1664 Z"/></g><g stroke-linejoin="miter" stroke-opacity="1.0" fill-opacity="1.0" stroke="rgb(0,0,0)" stroke-width="2.466989610000224" fill="rgb(0,0,0)" stroke-linecap="butt" stroke-miterlimit="10.0"><path d="M 319.5540,20.5832 c 0.0000,-2.2736 -1.8431,-4.1166 -4.1166 -4.1166c -2.2736,-0.0000 -4.1166,1.8431 -4.1166 4.1166c -0.0000,2.2736 1.8431,4.1166 4.1166 4.1166c 2.2736,0.0000 4.1166,-1.8431 4.1166 -4.1166Z"/></g></svg>