<?xml version="1.0" encoding="UTF-8"?>
<!DOCTYPE svg PUBLIC "-//W3C//DTD SVG 1.1//EN"
    "http://www.w3.org/Graphics/SVG/1.1/DTD/svg11.dtd"><svg xmlns="http://www.w3.org/2000/svg" height="600.0000" stroke-opacity="1" viewBox="0.0 0.0 800.0 600.0" font-size="1" width="800.0000" xmlns:xlink="http://www.w3.org/1999/xlink" stroke="rgb(0,0,0)" version="1.1"><defs></defs><g stroke-linejoin="bevel" stroke-opacity="0.0" fill-opacity="0.0" stroke="rgb(0,0,0)" stroke-width="0.0" fill="rgb(0,0,0)" stroke-linecap="butt" stroke-miterlimit="10.0"><path d="M 0.0000,0.0000 v 600.0000 h 800.0000 v -600.0000 Z"/></g><g stroke-linejoin="bevel" stroke-opacity="0.0" fill-opacity="1.0" stroke="rgb(0,0,0)" stroke-width="0.0" fill="rgb(5,45,105)" stroke-linecap="butt" stroke-miterlimit="10.0"><defs><clipPath id="myClip1"><path d="M 62.0000,10.0000 v 538.0000 h 728.0000 v -538.0000 Z"/></clipPath></defs><g clip-path="url(#myClip1)"><path d="M 67.0000,548.0000 v -448.3333 h 111.3333 v 448.3333 Z"/></g></g><g stroke-linejoin="bevel" stroke-opacity="0.0" fill-opacity="1.0" stroke="rgb(0,0,0)" stroke-width="0.0" fill="rgb(5,45,105)" stroke-linecap="butt" stroke-miterlimit="10.0"><defs><clipPath id="myClip2"><path d="M 62.0000,10.0000 v 538.0000 h 728.0000 v -538.0000 Z"/></clipPath></defs><g clip-path="url(#myClip2)"><path d="M 188.3333,548.0000 v -448.3333 h 111.3333 v 448.3333 Z"/></g></g><g stroke-linejoin="bevel" stroke-opacity="0.0" fill-opacity="1.0" stroke="rgb(0,0,0)" stroke-width="0.0" fill="rgb(5,45,105)" stroke-linecap="butt" stroke-miterlimit="10.0"><defs><clipPath id="myClip3"><path d="M 62.0000,10.0000 v 538.0000 h 728.0000 v -538.0000 Z"/></clipPath></defs><g clip-path="url(#myClip3)"><path d="M 309.6667,548.0000 v -448.3333 h 111.3333 v 448.3333 Z"/></g></g><g stroke-linejoin="bevel" stroke-opacity="0.0" fill-opacity="1.0" stroke="rgb(0,0,0)" stroke-width="0.0" fill="rgb(5,45,105)" stroke-linecap="butt" stroke-miterlimit="10.0"><defs><clipPath id="myClip4"><path d="M 62.0000,10.0000 v 538.0000 h 728.0000 v -538.0000 Z"/></clipPath></defs><g clip-path="url(#myClip4)"><path d="M 431.0000,548.0000 v -448.3333 h 111.3333 v 448.3333 Z"/></g></g><g stroke-linejoin="bevel" stroke-opacity="0.0" fill-opacity="1.0" stroke="rgb(0,0,0)" stroke-width="0.0" fill="rgb(5,45,105)" stroke-linecap="butt" stroke-miterlimit="10.0"><defs><clipPath id="myClip5"><path d="M 62.0000,10.0000 v 538.0000 h 728.0000 v -538.0000 Z"/></clipPath></defs><g clip-path="url(#myClip5)"><path d="M 552.3333,548.0000 v -448.3333 h 111.3333 v 448.3333 Z"/></g></g><g stroke-linejoin="bevel" stroke-opacity="0.0" fill-opacity="1.0" stroke="rgb(0,0,0)" stroke-width="0.0" fill="rgb(5,45,105)" stroke-linecap="butt" stroke-miterlimit="10.0"><defs><clipPath id="myClip6"><path d="M 62.0000,10.0000 v 538.0000 h 728.0000 v -538.0000 Z"/></clipPath></defs><g clip-path="url(#myClip6)"><path d="M 673.6667,548.0000 v -448.3333 h 111.3333 v 448.3333 Z"/></g></g><g stroke-linejoin="bevel" stroke-opacity="0.0" fill-opacity="1.0" stroke="rgb(0,0,0)" stroke-width="0.0" fill="rgb(0,0,0)" stroke-linecap="butt" stroke-miterlimit="10.0"><path d="M 42.0000,292.6134 ZM 19.9496,289.5882 l -0.0000,-6.7563 c -0.0000,-1.8151 0.3361,-3.3277 0.3361 -3.3277c 0.3361,-1.5126 1.0924,-2.5714 1.0924 -2.5714c 0.7563,-1.0588 2.0000,-1.6471 2.0000 -1.6471c 1.2437,-0.5882 3.0588,-0.5882 3.0588 -0.5882c 1.7479,-0.0000 3.0252,0.5882 3.0252 0.5882c 1.2773,0.5882 2.1176,1.6639 2.1176 1.6639c 0.8403,1.0756 1.2605,2.5714 1.2605 2.5714c 0.4202,1.4958 0.4202,3.3109 0.4202 3.3109l 0.0000,3.9664 l 8.7395,-0.0000 l 0.0000,2.7899 l -22.0504,0.0000 ZM 19.9496,289.5882 ZM 30.9748,283.1681 c -0.0000,-2.8908 -1.0924,-4.2857 -1.0924 -4.2857c -1.0924,-1.3950 -3.4454,-1.3950 -3.4454 -1.3950c -2.3866,0.0000 -3.3109,1.4118 -3.3109 1.4118c -0.9244,1.4118 -0.9244,4.2689 -0.9244 4.2689l 0.0000,3.6303 l 8.7731,-0.0000 l -0.0000,-3.6303 ZM 42.0000,273.2521 ZM 47.9160,266.0588 c -3.3613,2.0840 -7.0924,3.2605 -7.0924 3.2605c -3.7311,1.1765 -8.1681,1.1765 -8.1681 1.1765c -4.4370,0.0000 -8.1513,-1.1765 -8.1513 -1.1765c -3.7143,-1.1765 -7.1092,-3.2605 -7.1092 -3.2605l 0.8067,-1.7143 c 3.2269,1.9496 6.9076,2.9076 6.9076 2.9076c 3.6807,0.9580 7.5462,0.9580 7.5462 0.9580c 3.8655,-0.0000 7.5462,-0.9580 7.5462 -0.9580c 3.6807,-0.9580 6.9076,-2.9076 6.9076 -2.9076l 0.8067,1.7143 h 0.0000 ZM 42.0000,263.0672 ZM 33.4622,257.2521 l -7.7983,4.9412 l -0.0000,-2.9916 l 3.5966,-2.1849 c 0.6723,-0.3697 1.3613,-0.7731 1.3613 -0.7731c 0.6891,-0.4034 1.3613,-0.8403 1.3613 -0.8403l -0.0000,-0.1345 c -0.6723,-0.3697 -1.3613,-0.7395 -1.3613 -0.7395c -0.6891,-0.3697 -1.3613,-0.7395 -1.3613 -0.7395l -3.5966,-1.9832 l -0.0000,-2.8908 l 8.1008,4.9412 l 8.2353,-5.3109 l 0.0000,2.9916 l -3.7983,2.3866 l -1.4790,0.8739 c 0.0000,0.0000 -1.4454,0.9076 -1.4454 0.9076l 0.0000,0.1345 c 0.7059,0.4370 1.4286,0.8403 1.4286 0.8403c 0.7227,0.4034 1.4958,0.8067 1.4958 0.8067l 3.7983,2.2185 l 0.0000,2.8908 ZM 42.0000,248.0756 ZM 47.1092,246.7983 c -3.2269,-1.9496 -6.9076,-2.9076 -6.9076 -2.9076c -3.6807,-0.9580 -7.5462,-0.9580 -7.5462 -0.9580c -3.8655,0.0000 -7.5462,0.9580 -7.5462 0.9580c -3.6807,0.9580 -6.9076,2.9076 -6.9076 2.9076l -0.8067,-1.7143 c 3.3950,-2.0840 7.1092,-3.2605 7.1092 -3.2605c 3.7143,-1.1765 8.1513,-1.1765 8.1513 -1.1765c 4.4370,-0.0000 8.1681,1.1765 8.1681 1.1765c 3.7311,1.1765 7.0924,3.2605 7.0924 3.2605l -0.8067,1.7143 h 0.0000 Z"/></g><g stroke-linejoin="miter" stroke-opacity="1.0" fill-opacity="0.0" stroke="rgb(0,0,0)" stroke-width="3.9999999999999987" fill="rgb(0,0,0)" stroke-linecap="square" stroke-miterlimit="10.0"><path d="M 62.0000,548.0000 v -538.0000 "/></g><g stroke-linejoin="miter" stroke-opacity="1.0" fill-opacity="0.0" stroke="rgb(0,0,0)" stroke-width="3.9999999999999987" fill="rgb(0,0,0)" stroke-linecap="square" stroke-miterlimit="10.0"><path d="M 62.0000,548.0000 h 728.0000 "/></g><g stroke-linejoin="bevel" stroke-opacity="0.0" fill-opacity="1.0" stroke="rgb(0,0,0)" stroke-width="0.0" fill="rgb(0,0,0)" stroke-linecap="butt" stroke-miterlimit="10.0"><path d="M 418.9748,579.1429 ZM 424.7899,570.6050 l -4.9412,-7.7983 h 2.9916 l 2.1849,3.5966 c 0.3697,0.6723 0.7731,1.3613 0.7731 1.3613c 0.4034,0.6891 0.8403,1.3613 0.8403 1.3613h 0.1345 c 0.3697,-0.6723 0.7395,-1.3613 0.7395 -1.3613c 0.3697,-0.6891 0.7395,-1.3613 0.7395 -1.3613l 1.9832,-3.5966 h 2.8908 l -4.9412,8.1008 l 5.3109,8.2353 h -2.9916 l -2.3866,-3.7983 l -0.8739,-1.4790 c 0.0000,0.0000 -0.9076,-1.4454 -0.9076 -1.4454h -0.1345 c -0.4370,0.7059 -0.8403,1.4286 -0.8403 1.4286c -0.4034,0.7227 -0.8067,1.4958 -0.8067 1.4958l -2.2185,3.7983 h -2.8908 Z"/></g></svg>