<?xml version="1.0" encoding="UTF-8"?>
<!DOCTYPE svg PUBLIC "-//W3C//DTD SVG 1.1//EN"
    "http://www.w3.org/Graphics/SVG/1.1/DTD/svg11.dtd"><svg xmlns="http://www.w3.org/2000/svg" height="600.0000" stroke-opacity="1" viewBox="0.0 0.0 800.0 600.0" font-size="1" width="800.0000" xmlns:xlink="http://www.w3.org/1999/xlink" stroke="rgb(0,0,0)" version="1.1"><defs></defs><g stroke-linejoin="bevel" stroke-opacity="0.0" fill-opacity="0.0" stroke="rgb(0,0,0)" stroke-width="0.0" fill="rgb(0,0,0)" stroke-linecap="butt" stroke-miterlimit="10.0"><path d="M 0.0000,0.0000 v 600.0000 h 800.0000 v -600.0000 Z"/></g><g stroke-linejoin="round" stroke-opacity="1.0" fill-opacity="0.0" stroke="rgb(0,0,0)" stroke-width="3.9999999999999987" fill="rgb(0,0,0)" stroke-linecap="round" stroke-miterlimit="10.0"><defs><clipPath id="myClip1"><path d="M 62.0000,10.0000 v 538.0000 h 728.0000 v -538.0000 Z"/></clipPath></defs><g clip-path="url(#myClip1)"><path d="M 62.0000,368.6667 h 14.5600 h 14.5600 h 14.5600 h 14.5600 h 14.5600 h 14.5600 h 14.5600 h 14.5600 h 14.5600 h 14.5600 h 14.5600 h 14.5600 h 14.5600 h 14.5600 h 14.5600 h 14.5600 h 14.5600 h 14.5600 h 14.5600 h 14.5600 h 14.5600 h 14.5600 h 14.5600 h 14.5600 h 14.5600 h 14.5600 h 14.5600 h 14.5600 h 14.5600 h 14.5600 h 14.5600 h 14.5600 h 14.5600 h 14.5600 h 14.5600 h 14.5600 h 14.5600 h 14.5600 h 14.5600 h 14.5600 h 14.5600 h 14.5600 h 14.5600 h 14.5600 h 14.5600 h 14.5600 h 14.5600 h 14.5600 h 14.5600 h 14.5600 "/></g></g><g stroke-linejoin="round" stroke-opacity="1.0" fill-opacity="0.0" stroke="rgb(5,45,105)" stroke-width="3.9999999999999987" fill="rgb(0,0,0)" stroke-linecap="round" stroke-miterlimit="10.0"><defs><clipPath id="myClip2"><path d="M 62.0000,10.0000 v 538.0000 h 728.0000 v -538.0000 Z"/></clipPath></defs><g clip-path="url(#myClip2)"><path d="M 62.0000,368.6667 h 14.5600 l 14.5600,-30.0670 l 14.5600,0.3640 l 14.5600,44.5267 l 14.5600,69.1904 l 14.5600,73.8297 l 14.5600,74.8932 l 14.5600,74.7174 l 14.5600,74.4162 l 14.5600,76.4749 l 14.5600,75.3200 l 14.5600,73.6127 l 14.5600,77.3787 l 14.5600,73.0855 l 14.5600,75.9728 l 14.5600,76.4749 l 14.5600,73.0102 l 14.5600,75.4957 l 14.5600,74.6421 l 14.5600,75.0438 l 14.5600,75.4455 l 14.5600,74.3659 l 14.5600,75.1694 l 14.5600,74.5919 l 14.5600,73.3366 l 14.5600,75.1443 l 14.5600,74.5417 l 14.5600,73.9893 l 14.5600,75.6715 l 14.5600,73.8387 l 14.5600,75.2447 l 14.5600,73.2361 l 14.5600,74.6672 l 14.5600,78.5085 l 14.5600,74.4162 l 14.5600,74.5919 l 14.5600,77.8558 l 14.5600,73.8638 l 14.5600,74.7425 l 14.5600,74.5417 l 14.5600,74.6170 l 14.5600,74.5166 l 14.5600,77.0524 l 14.5600,75.0689 l 14.5600,76.4247 l 14.5600,73.2361 l 14.5600,75.2698 l 14.5600,74.6170 l 14.5600,76.4749 l 14.5600,75.7468 "/></g></g><g stroke-linejoin="round" stroke-opacity="1.0" fill-opacity="0.0" stroke="rgb(101,50,125)" stroke-width="3.9999999999999987" fill="rgb(0,0,0)" stroke-linecap="round" stroke-miterlimit="10.0"><defs><clipPath id="myClip3"><path d="M 62.0000,10.0000 v 538.0000 h 728.0000 v -538.0000 Z"/></clipPath></defs><g clip-path="url(#myClip3)"><path d="M 62.0000,368.6667 h 14.5600 l 14.5600,-24.1060 l 14.5600,-7.2756 l 14.5600,15.7885 l 14.5600,30.7485 l 14.5600,40.3895 l 14.5600,43.0884 l 14.5600,44.3509 l 14.5600,44.7042 l 14.5600,44.7186 l 14.5600,44.7473 l 14.5600,43.8775 l 14.5600,46.3182 l 14.5600,46.4079 l 14.5600,46.2160 l 14.5600,45.3337 l 14.5600,43.7466 l 14.5600,45.3606 l 14.5600,45.0449 l 14.5600,44.8835 l 14.5600,42.8983 l 14.5600,46.6285 l 14.5600,46.4384 l 14.5600,46.1783 l 14.5600,44.4227 l 14.5600,43.2050 l 14.5600,44.3742 l 14.5600,45.0378 l 14.5600,44.3240 l 14.5600,43.4220 l 14.5600,45.7928 l 14.5600,46.6715 l 14.5600,45.0880 l 14.5600,44.7168 l 14.5600,44.7670 l 14.5600,47.2597 l 14.5600,45.3355 l 14.5600,43.7573 l 14.5600,43.3090 l 14.5600,47.1091 l 14.5600,45.2010 l 14.5600,45.5381 l 14.5600,45.8717 l 14.5600,46.7970 l 14.5600,45.7766 l 14.5600,45.2279 l 14.5600,43.9976 l 14.5600,44.6110 l 14.5600,45.4036 l 14.5600,45.2601 "/></g></g><g stroke-linejoin="round" stroke-opacity="1.0" fill-opacity="0.0" stroke="rgb(172,50,122)" stroke-width="3.9999999999999987" fill="rgb(0,0,0)" stroke-linecap="round" stroke-miterlimit="10.0"><defs><clipPath id="myClip4"><path d="M 62.0000,10.0000 v 538.0000 h 728.0000 v -538.0000 Z"/></clipPath></defs><g clip-path="url(#myClip4)"><path d="M 62.0000,368.6667 h 14.5600 l 14.5600,-15.7634 l 14.5600,-7.1662 l 14.5600,-1.4239 l 14.5600,4.4349 l 14.5600,6.8003 l 14.5600,10.2005 l 14.5600,14.0328 l 14.5600,12.5802 l 14.5600,13.4715 l 14.5600,13.0949 l 14.5600,11.1492 l 14.5600,15.3832 l 14.5600,14.3628 l 14.5600,16.5883 l 14.5600,16.9075 l 14.5600,15.2415 l 14.5600,15.5303 l 14.5600,15.7473 l 14.5600,16.0808 l 14.5600,16.5327 l 14.5600,14.8111 l 14.5600,13.7638 l 14.5600,15.8351 l 14.5600,16.1095 l 14.5600,14.8918 l 14.5600,16.0306 l 14.5600,15.5213 l 14.5600,15.5482 l 14.5600,14.5045 l 14.5600,15.2218 l 14.5600,17.3953 l 14.5600,16.3283 l 14.5600,14.3323 l 14.5600,14.8398 l 14.5600,13.4751 l 14.5600,16.6888 l 14.5600,16.3193 l 14.5600,14.2911 l 14.5600,15.2918 l 14.5600,16.2584 l 14.5600,14.8578 l 14.5600,14.5386 l 14.5600,17.1317 l 14.5600,14.4901 l 14.5600,16.1454 l 14.5600,17.7361 l 14.5600,17.0636 l 14.5600,14.2337 l 14.5600,16.2906 "/></g></g><g stroke-linejoin="round" stroke-opacity="1.0" fill-opacity="0.0" stroke="rgb(226,66,100)" stroke-width="3.9999999999999987" fill="rgb(0,0,0)" stroke-linecap="round" stroke-miterlimit="10.0"><defs><clipPath id="myClip5"><path d="M 62.0000,10.0000 v 538.0000 h 728.0000 v -538.0000 Z"/></clipPath></defs><g clip-path="url(#myClip5)"><path d="M 62.0000,368.6667 h 14.5600 l 14.5600,-8.8124 l 14.5600,-4.6483 l 14.5600,-3.7248 l 14.5600,-3.8431 l 14.5600,-2.9698 l 14.5600,-2.9716 l 14.5600,-1.5638 l 14.5600,-1.8041 l 14.5600,-2.8604 l 14.5600,-1.7700 l 14.5600,-1.2643 l 14.5600,-1.6606 l 14.5600,-1.7503 l 14.5600,-1.6266 l 14.5600,-1.1979 l 14.5600,-2.0623 l 14.5600,-0.6779 l 14.5600,-0.5272 l 14.5600,-0.4591 l 14.5600,-1.3737 l 14.5600,-1.1836 l 14.5600,-1.2177 l 14.5600,-1.4956 l 14.5600,-0.0448 l 14.5600,1.0294 l 14.5600,1.1908 l 14.5600,0.7353 l 14.5600,0.1291 l 14.5600,0.6779 l 14.5600,1.4257 l 14.5600,0.9003 l 14.5600,0.3694 l 14.5600,2.2363 l 14.5600,1.8274 l 14.5600,1.3845 l 14.5600,2.1753 l 14.5600,1.4400 l 14.5600,1.3414 l 14.5600,1.4131 l 14.5600,1.8920 l 14.5600,2.2381 l 14.5600,1.7718 l 14.5600,1.8310 l 14.5600,2.3277 l 14.5600,2.2596 l 14.5600,3.3912 l 14.5600,2.0803 l 14.5600,1.8489 l 14.5600,4.0207 "/></g></g><g stroke-linejoin="round" stroke-opacity="1.0" fill-opacity="0.0" stroke="rgb(255,110,64)" stroke-width="3.9999999999999987" fill="rgb(0,0,0)" stroke-linecap="round" stroke-miterlimit="10.0"><defs><clipPath id="myClip6"><path d="M 62.0000,10.0000 v 538.0000 h 728.0000 v -538.0000 Z"/></clipPath></defs><g clip-path="url(#myClip6)"><path d="M 62.0000,368.6667 h 14.5600 l 14.5600,-1.9117 l 14.5600,-0.4806 l 14.5600,2.1448 l 14.5600,3.8933 l 14.5600,3.6835 l 14.5600,6.3627 l 14.5600,8.9864 l 14.5600,10.1377 l 14.5600,10.8658 l 14.5600,13.0393 l 14.5600,15.0945 l 14.5600,16.0432 l 14.5600,18.6955 l 14.5600,21.5343 l 14.5600,23.4442 l 14.5600,24.0845 l 14.5600,25.7074 l 14.5600,26.9646 l 14.5600,28.8099 l 14.5600,30.2320 l 14.5600,33.3560 l 14.5600,34.5360 l 14.5600,33.9335 l 14.5600,36.7741 l 14.5600,38.5872 l 14.5600,41.2198 l 14.5600,43.1440 l 14.5600,45.0270 l 14.5600,47.6076 l 14.5600,46.9835 l 14.5600,51.0347 l 14.5600,52.4514 l 14.5600,54.8401 l 14.5600,55.4176 l 14.5600,57.4494 l 14.5600,59.3880 l 14.5600,61.6907 l 14.5600,62.6071 l 14.5600,65.3706 l 14.5600,66.6403 l 14.5600,67.9781 l 14.5600,69.8324 l 14.5600,72.3753 l 14.5600,73.0514 l 14.5600,74.6852 l 14.5600,76.1378 l 14.5600,77.7177 l 14.5600,81.8262 l 14.5600,82.4969 "/></g></g><g stroke-linejoin="round" stroke-opacity="1.0" fill-opacity="0.0" stroke="rgb(255,166,0)" stroke-width="3.9999999999999987" fill="rgb(0,0,0)" stroke-linecap="round" stroke-miterlimit="10.0"><defs><clipPath id="myClip7"><path d="M 62.0000,10.0000 v 538.0000 h 728.0000 v -538.0000 Z"/></clipPath></defs><g clip-path="url(#myClip7)"><path d="M 62.0000,368.6667 h 14.5600 l 14.5600,4.3757 l 14.5600,9.2841 l 14.5600,9.8956 l 14.5600,14.4722 l 14.5600,17.7845 l 14.5600,21.7854 l 14.5600,25.9190 l 14.5600,27.9868 l 14.5600,31.2578 l 14.5600,37.1130 l 14.5600,38.8633 l 14.5600,43.2893 l 14.5600,46.9262 l 14.5600,50.1201 l 14.5600,53.5902 l 14.5600,58.1668 l 14.5600,62.2394 l 14.5600,63.4768 l 14.5600,68.9070 l 14.5600,72.3502 l 14.5600,75.4061 l 14.5600,79.3496 l 14.5600,82.4933 l 14.5600,83.4402 l 14.5600,90.0433 l 14.5600,92.3334 l 14.5600,96.3899 l 14.5600,102.1250 l 14.5600,104.5746 l 14.5600,107.3113 l 14.5600,110.6361 l 14.5600,114.6657 l 14.5600,119.0468 l 14.5600,121.2042 l 14.5600,125.8543 l 14.5600,128.3256 l 14.5600,132.3588 l 14.5600,136.7614 l 14.5600,140.9686 l 14.5600,142.8910 l 14.5600,147.0982 l 14.5600,151.1637 l 14.5600,154.0258 l 14.5600,157.2771 l 14.5600,162.1120 l 14.5600,164.7589 l 14.5600,167.0472 l 14.5600,172.1331 l 14.5600,174.7908 "/></g></g><g stroke-linejoin="round" stroke-opacity="1.0" fill-opacity="0.0" stroke="rgb(5,45,105)" stroke-width="3.9999999999999987" fill="rgb(0,0,0)" stroke-linecap="round" stroke-miterlimit="10.0"><defs><clipPath id="myClip8"><path d="M 62.0000,10.0000 v 538.0000 h 728.0000 v -538.0000 Z"/></clipPath></defs><g clip-path="url(#myClip8)"><path d="M 62.0000,368.6667 h 14.5600 l 14.5600,12.4959 l 14.5600,16.2458 l 14.5600,21.3227 l 14.5600,27.0202 l 14.5600,32.3302 l 14.5600,38.6768 l 14.5600,43.2929 l 14.5600,47.7977 l 14.5600,53.1813 l 14.5600,59.4095 l 14.5600,65.2522 l 14.5600,68.5233 l 14.5600,74.6045 l 14.5600,80.1512 l 14.5600,85.7715 l 14.5600,91.4851 l 14.5600,98.1599 l 14.5600,102.3384 l 14.5600,107.3184 l 14.5600,113.6238 l 14.5600,119.8772 l 14.5600,124.5219 l 14.5600,129.7835 l 14.5600,134.9358 l 14.5600,140.0396 l 14.5600,145.2367 l 14.5600,151.1744 l 14.5600,157.3022 l 14.5600,160.8943 l 14.5600,164.8934 l 14.5600,172.6083 l 14.5600,177.6081 l 14.5600,181.8081 l 14.5600,188.7878 l 14.5600,193.5186 l 14.5600,198.3893 l 14.5600,204.7485 l 14.5600,210.0782 l 14.5600,216.1989 l 14.5600,220.9010 l 14.5600,225.0436 l 14.5600,230.9508 l 14.5600,236.5819 l 14.5600,243.2549 l 14.5600,245.8445 l 14.5600,252.8869 l 14.5600,258.6292 l 14.5600,264.6727 l 14.5600,267.9652 "/></g></g><g stroke-linejoin="round" stroke-opacity="1.0" fill-opacity="0.0" stroke="rgb(101,50,125)" stroke-width="3.9999999999999987" fill="rgb(0,0,0)" stroke-linecap="round" stroke-miterlimit="10.0"><defs><clipPath id="myClip9"><path d="M 62.0000,10.0000 v 538.0000 h 728.0000 v -538.0000 Z"/></clipPath></defs><g clip-path="url(#myClip9)"><path d="M 62.0000,368.6667 h 14.5600 l 14.5600,20.6197 l 14.5600,25.4456 l 14.5600,33.2520 l 14.5600,39.5896 l 14.5600,47.2741 l 14.5600,53.2028 l 14.5600,61.1078 l 14.5600,67.2392 l 14.5600,75.2214 l 14.5600,83.0062 l 14.5600,89.7796 l 14.5600,97.0122 l 14.5600,103.3767 l 14.5600,110.3564 l 14.5600,118.6003 l 14.5600,125.8005 l 14.5600,132.4251 l 14.5600,140.0809 l 14.5600,146.9547 l 14.5600,154.0599 l 14.5600,162.2052 l 14.5600,168.1788 l 14.5600,173.8888 l 14.5600,183.0957 l 14.5600,190.5632 l 14.5600,195.7800 l 14.5600,203.6832 l 14.5600,211.9003 l 14.5600,218.2899 l 14.5600,225.6480 l 14.5600,233.2051 l 14.5600,238.9599 l 14.5600,246.0955 l 14.5600,253.5164 l 14.5600,260.7829 l 14.5600,269.9361 l 14.5600,276.1590 l 14.5600,283.7161 l 14.5600,289.6646 l 14.5600,297.5857 l 14.5600,304.0453 l 14.5600,311.2868 l 14.5600,318.8457 l 14.5600,325.6550 l 14.5600,332.0159 l 14.5600,340.8768 l 14.5600,348.2725 l 14.5600,354.4218 l 14.5600,361.5916 "/></g></g><g stroke-linejoin="round" stroke-opacity="1.0" fill-opacity="0.0" stroke="rgb(172,50,122)" stroke-width="3.9999999999999987" fill="rgb(0,0,0)" stroke-linecap="round" stroke-miterlimit="10.0"><defs><clipPath id="myClip10"><path d="M 62.0000,10.0000 v 538.0000 h 728.0000 v -538.0000 Z"/></clipPath></defs><g clip-path="url(#myClip10)"><path d="M 62.0000,368.6667 h 14.5600 l 14.5600,28.6897 l 14.5600,34.4015 l 14.5600,43.8075 l 14.5600,52.4927 l 14.5600,60.7043 l 14.5600,69.2065 l 14.5600,78.7506 l 14.5600,88.3396 l 14.5600,96.8059 l 14.5600,105.1898 l 14.5600,114.4649 l 14.5600,123.6181 l 14.5600,132.5273 l 14.5600,140.8717 l 14.5600,148.6960 l 14.5600,159.8183 l 14.5600,167.9815 l 14.5600,176.9536 l 14.5600,186.2753 l 14.5600,194.6556 l 14.5600,204.6964 l 14.5600,212.3109 l 14.5600,221.5968 l 14.5600,231.6664 l 14.5600,240.3300 l 14.5600,249.0725 l 14.5600,258.0822 l 14.5600,267.4255 l 14.5600,276.0101 l 14.5600,285.8448 l 14.5600,292.9607 l 14.5600,303.8194 l 14.5600,313.6110 l 14.5600,321.0228 l 14.5600,331.7290 l 14.5600,338.0487 l 14.5600,347.3974 l 14.5600,356.3676 l 14.5600,366.0947 l 14.5600,374.9358 l 14.5600,383.3842 l 14.5600,392.7561 l 14.5600,401.7694 l 14.5600,408.7509 l 14.5600,420.0309 l 14.5600,428.3735 l 14.5600,437.5464 l 14.5600,445.5985 l 14.5600,455.9299 "/></g></g><g stroke-linejoin="bevel" stroke-opacity="0.0" fill-opacity="1.0" stroke="rgb(0,0,0)" stroke-width="0.0" fill="rgb(0,0,0)" stroke-linecap="butt" stroke-miterlimit="10.0"><path d="M 42.0000,397.6723 ZM 33.8655,396.1261 c -2.0504,0.0000 -3.6471,-0.6387 -3.6471 -0.6387c -1.5966,-0.6387 -2.7059,-1.7143 -2.7059 -1.7143c -1.1092,-1.0756 -1.6807,-2.5042 -1.6807 -2.5042c -0.5714,-1.4286 -0.5714,-3.0084 -0.5714 -3.0084c -0.0000,-1.6134 0.5882,-2.7731 0.5882 -2.7731c 0.5882,-1.1597 1.3613,-2.0000 1.3613 -2.0000l 1.7815,1.3782 c -0.6387,0.7395 -1.0420,1.5294 -1.0420 1.5294c -0.4034,0.7899 -0.4034,1.7647 -0.4034 1.7647c 0.0000,1.1092 0.4538,2.0504 0.4538 2.0504c 0.4538,0.9412 1.2941,1.6134 1.2941 1.6134c 0.8403,0.6723 2.0000,1.0588 2.0000 1.0588c 1.1597,0.3866 2.5714,0.3866 2.5714 0.3866c 1.4118,-0.0000 2.5546,-0.3697 2.5546 -0.3697c 1.1429,-0.3697 1.9664,-1.0252 1.9664 -1.0252c 0.8235,-0.6555 1.2773,-1.5966 1.2773 -1.5966c 0.4538,-0.9412 0.4538,-2.0504 0.4538 -2.0504c -0.0000,-1.1765 -0.4874,-2.1345 -0.4874 -2.1345c -0.4874,-0.9580 -1.1597,-1.6975 -1.1597 -1.6975l 1.8151,-1.2437 c 0.9748,1.1092 1.5462,2.4706 1.5462 2.4706c 0.5714,1.3613 0.5714,2.8403 0.5714 2.8403c 0.0000,1.6134 -0.5714,3.0252 -0.5714 3.0252c -0.5714,1.4118 -1.6639,2.4370 -1.6639 2.4370c -1.0924,1.0252 -2.6891,1.6134 -2.6891 1.6134c -1.5966,0.5882 -3.6134,0.5882 -3.6134 0.5882ZM 42.0000,382.3445 ZM 25.6639,379.8235 l -0.0000,-2.7899 l 9.9832,-0.0000 c 2.3193,-0.0000 3.3445,-0.7227 3.3445 -0.7227c 1.0252,-0.7227 1.0252,-2.3361 1.0252 -2.3361c -0.0000,-1.2773 -0.6555,-2.2521 -0.6555 -2.2521c -0.6555,-0.9748 -2.1008,-2.1513 -2.1008 -2.1513l -11.5966,0.0000 l -0.0000,-2.7563 l 16.3361,-0.0000 l 0.0000,2.2857 l -2.5546,0.2353 l 0.0000,0.1008 c 1.3445,1.1429 2.1513,2.4034 2.1513 2.4034c 0.8067,1.2605 0.8067,2.9748 0.8067 2.9748c 0.0000,2.6218 -1.6134,3.8151 -1.6134 3.8151c -1.6134,1.1933 -4.7731,1.1933 -4.7731 1.1933l -10.3529,0.0000 ZM 42.0000,364.0588 ZM 25.6639,361.3025 l -0.0000,-2.2857 l 2.3529,-0.2353 l -0.0000,-0.1008 c -1.1765,-1.0756 -1.9664,-2.3361 -1.9664 -2.3361c -0.7899,-1.2605 -0.7899,-2.7395 -0.7899 -2.7395c -0.0000,-1.8824 0.8235,-2.9412 0.8235 -2.9412c 0.8235,-1.0588 2.3025,-1.5630 2.3025 -1.5630c -1.4118,-1.2773 -2.2689,-2.5714 -2.2689 -2.5714c -0.8571,-1.2941 -0.8571,-2.8067 -0.8571 -2.8067c -0.0000,-2.5210 1.6134,-3.7479 1.6134 -3.7479c 1.6134,-1.2269 4.7731,-1.2269 4.7731 -1.2269l 10.3529,-0.0000 l 0.0000,2.7563 l -9.9832,0.0000 c -2.3193,0.0000 -3.3445,0.7395 -3.3445 0.7395c -1.0252,0.7395 -1.0252,2.2857 -1.0252 2.2857c 0.0000,1.8487 2.5210,4.1008 2.5210 4.1008l 11.8319,-0.0000 l 0.0000,2.7563 l -9.9832,0.0000 c -2.3193,0.0000 -3.3445,0.7395 -3.3445 0.7395c -1.0252,0.7395 -1.0252,2.3193 -1.0252 2.3193c 0.0000,1.8487 2.5210,4.1008 2.5210 4.1008l 11.8319,-0.0000 l 0.0000,2.7563 l -16.3361,0.0000 ZM 42.0000,336.1933 ZM 25.6639,333.6723 l -0.0000,-2.7899 l 9.9832,-0.0000 c 2.3193,-0.0000 3.3445,-0.7227 3.3445 -0.7227c 1.0252,-0.7227 1.0252,-2.3361 1.0252 -2.3361c -0.0000,-1.2773 -0.6555,-2.2521 -0.6555 -2.2521c -0.6555,-0.9748 -2.1008,-2.1513 -2.1008 -2.1513l -11.5966,0.0000 l -0.0000,-2.7563 l 16.3361,-0.0000 l 0.0000,2.2857 l -2.5546,0.2353 l 0.0000,0.1008 c 1.3445,1.1429 2.1513,2.4034 2.1513 2.4034c 0.8067,1.2605 0.8067,2.9748 0.8067 2.9748c 0.0000,2.6218 -1.6134,3.8151 -1.6134 3.8151c -1.6134,1.1933 -4.7731,1.1933 -4.7731 1.1933l -10.3529,0.0000 ZM 42.0000,317.9076 ZM 18.0672,315.1513 l -0.0000,-2.7563 l 20.8403,-0.0000 c 0.6723,-0.0000 0.9412,-0.2353 0.9412 -0.2353c 0.2689,-0.2353 0.2689,-0.5378 0.2689 -0.5378l -0.0000,-0.2521 c 0.0000,0.0000 -0.0672,-0.3529 -0.0672 -0.3529l 2.0840,-0.3697 c 0.1345,0.2689 0.2017,0.6387 0.2017 0.6387c 0.0672,0.3697 0.0672,0.9412 0.0672 0.9412c 0.0000,1.5798 -0.9412,2.2521 -0.9412 2.2521c -0.9412,0.6723 -2.7563,0.6723 -2.7563 0.6723l -20.6387,0.0000 ZM 42.0000,309.3361 ZM 37.7647,307.3866 c -2.6891,0.0000 -4.1176,-2.4034 -4.1176 -2.4034c -1.4286,-2.4034 -2.0000,-7.6471 -2.0000 -7.6471c -0.7731,0.0000 -1.5126,0.1513 -1.5126 0.1513c -0.7395,0.1513 -1.3109,0.5378 -1.3109 0.5378c -0.5714,0.3866 -0.9244,1.0252 -0.9244 1.0252c -0.3529,0.6387 -0.3529,1.6471 -0.3529 1.6471c 0.0000,1.4454 0.5378,2.6723 0.5378 2.6723c 0.5378,1.2269 1.2101,2.2017 1.2101 2.2017l -1.9160,1.1092 c -0.7395,-1.1429 -1.4286,-2.7899 -1.4286 -2.7899c -0.6891,-1.6471 -0.6891,-3.6303 -0.6891 -3.6303c -0.0000,-2.9916 1.8319,-4.3361 1.8319 -4.3361c 1.8319,-1.3445 4.8908,-1.3445 4.8908 -1.3445l 10.0168,-0.0000 l 0.0000,2.2857 l -1.9496,0.2353 l 0.0000,0.0672 c 0.9748,1.1765 1.6639,2.5378 1.6639 2.5378c 0.6891,1.3613 0.6891,2.8739 0.6891 2.8739c 0.0000,2.0840 -1.2101,3.4454 -1.2101 3.4454c -1.2101,1.3613 -3.4286,1.3613 -3.4286 1.3613ZM 37.7647,307.3866 ZM 37.5630,304.6639 c 1.4118,-0.0000 2.0168,-0.8235 2.0168 -0.8235c 0.6050,-0.8235 0.6050,-2.0336 0.6050 -2.0336c -0.0000,-1.1765 -0.5546,-2.2353 -0.5546 -2.2353c -0.5546,-1.0588 -1.6303,-2.2353 -1.6303 -2.2353l -4.5378,0.0000 c 0.2689,2.0504 0.6387,3.4622 0.6387 3.4622c 0.3697,1.4118 0.8739,2.2689 0.8739 2.2689c 0.5042,0.8571 1.1597,1.2269 1.1597 1.2269c 0.6555,0.3697 1.4286,0.3697 1.4286 0.3697ZM 42.0000,292.1261 ZM 27.9160,288.8992 l 0.0000,2.4202 l -2.0840,0.0000 l -0.1681,-2.5546 l -4.5714,-0.3361 l -0.0000,-2.3193 l 4.5714,-0.0000 l -0.0000,-4.4034 l 2.2521,-0.0000 l 0.0000,4.4034 l 9.0756,-0.0000 c 1.5126,-0.0000 2.3361,-0.5546 2.3361 -0.5546c 0.8235,-0.5546 0.8235,-1.9664 0.8235 -1.9664c -0.0000,-0.4370 -0.1345,-0.9412 -0.1345 -0.9412c -0.1345,-0.5042 -0.3025,-0.9076 -0.3025 -0.9076l 2.0840,-0.5378 c 0.2353,0.6723 0.4202,1.4622 0.4202 1.4622c 0.1849,0.7899 0.1849,1.5630 0.1849 1.5630c 0.0000,1.3109 -0.4034,2.2017 -0.4034 2.2017c -0.4034,0.8908 -1.1092,1.4454 -1.1092 1.4454c -0.7059,0.5546 -1.7143,0.7899 -1.7143 0.7899c -1.0084,0.2353 -2.2185,0.2353 -2.2185 0.2353l -9.0420,0.0000 ZM 42.0000,280.7647 ZM 22.3025,276.5966 c 0.0000,0.8067 -0.5042,1.3613 -0.5042 1.3613c -0.5042,0.5546 -1.2773,0.5546 -1.2773 0.5546c -0.8067,0.0000 -1.2941,-0.5546 -1.2941 -0.5546c -0.4874,-0.5546 -0.4874,-1.3613 -0.4874 -1.3613c -0.0000,-0.8067 0.4874,-1.3613 0.4874 -1.3613c 0.4874,-0.5546 1.2941,-0.5546 1.2941 -0.5546c 0.7731,-0.0000 1.2773,0.5546 1.2773 0.5546c 0.5042,0.5546 0.5042,1.3613 0.5042 1.3613ZM 22.3025,276.5966 ZM 25.6639,278.0084 l -0.0000,-2.7563 l 16.3361,-0.0000 l 0.0000,2.7563 l -16.3361,0.0000 ZM 42.0000,272.4958 ZM 25.6639,272.0924 l -0.0000,-2.8571 l 9.2773,-3.0924 c 1.2101,-0.3697 2.4202,-0.7563 2.4202 -0.7563c 1.2101,-0.3866 2.3866,-0.7563 2.3866 -0.7563l -0.0000,-0.1345 c -1.1765,-0.3697 -2.3866,-0.7395 -2.3866 -0.7395l -2.4202,-0.7395 l -9.2773,-3.0924 l -0.0000,-2.7227 l 16.3361,5.7815 l 0.0000,3.2269 ZM 42.0000,256.9328 ZM 33.8655,255.3866 c -2.0168,0.0000 -3.6134,-0.6218 -3.6134 -0.6218c -1.5966,-0.6218 -2.7059,-1.6471 -2.7059 -1.6471c -1.1092,-1.0252 -1.6975,-2.3361 -1.6975 -2.3361c -0.5882,-1.3109 -0.5882,-2.7227 -0.5882 -2.7227c -0.0000,-1.5462 0.5378,-2.7731 0.5378 -2.7731c 0.5378,-1.2269 1.5462,-2.0504 1.5462 -2.0504c 1.0084,-0.8235 2.4202,-1.2605 2.4202 -1.2605c 1.4118,-0.4370 3.1597,-0.4370 3.1597 -0.4370c 0.9076,-0.0000 1.5126,0.1008 1.5126 0.1008l 0.0000,11.0252 c 2.6555,-0.1681 4.2017,-1.6303 4.2017 -1.6303c 1.5462,-1.4622 1.5462,-3.8151 1.5462 -3.8151c -0.0000,-1.1765 -0.3529,-2.1681 -0.3529 -2.1681c -0.3529,-0.9916 -0.9244,-1.8992 -0.9244 -1.8992l 1.8151,-0.9748 c 0.6723,1.0756 1.1765,2.3866 1.1765 2.3866c 0.5042,1.3109 0.5042,2.9916 0.5042 2.9916c 0.0000,1.6471 -0.5882,3.0756 -0.5882 3.0756c -0.5882,1.4286 -1.6807,2.4874 -1.6807 2.4874c -1.0924,1.0588 -2.6723,1.6639 -2.6723 1.6639c -1.5798,0.6050 -3.5966,0.6050 -3.5966 0.6050ZM 33.8655,255.3866 ZM 32.6218,243.9580 c -2.5210,0.0000 -3.8487,1.0588 -3.8487 1.0588c -1.3277,1.0588 -1.3277,2.9748 -1.3277 2.9748c 0.0000,0.8739 0.3529,1.6639 0.3529 1.6639c 0.3529,0.7899 1.0084,1.4286 1.0084 1.4286c 0.6555,0.6387 1.6134,1.0588 1.6134 1.0588c 0.9580,0.4202 2.2017,0.5546 2.2017 0.5546l -0.0000,-8.7395 ZM 42.0000,233.4706 ZM 25.6639,230.7143 l -0.0000,-2.2857 l 2.9580,-0.2353 l -0.0000,-0.1008 c -1.5462,-0.8403 -2.4538,-2.0336 -2.4538 -2.0336c -0.9076,-1.1933 -0.9076,-2.6050 -0.9076 -2.6050c -0.0000,-0.9748 0.3361,-1.7479 0.3361 -1.7479l 2.4202,0.5378 c -0.1345,0.4034 -0.2017,0.7395 -0.2017 0.7395c -0.0672,0.3361 -0.0672,0.8403 -0.0672 0.8403c 0.0000,1.0420 0.8403,2.1681 0.8403 2.1681c 0.8403,1.1261 2.9244,1.9664 2.9244 1.9664l 10.4874,-0.0000 l 0.0000,2.7563 l -16.3361,0.0000 ZM 42.0000,222.1429 ZM 33.8655,220.5966 c -2.0168,0.0000 -3.6134,-0.6218 -3.6134 -0.6218c -1.5966,-0.6218 -2.7059,-1.6471 -2.7059 -1.6471c -1.1092,-1.0252 -1.6975,-2.3361 -1.6975 -2.3361c -0.5882,-1.3109 -0.5882,-2.7227 -0.5882 -2.7227c -0.0000,-1.5462 0.5378,-2.7731 0.5378 -2.7731c 0.5378,-1.2269 1.5462,-2.0504 1.5462 -2.0504c 1.0084,-0.8235 2.4202,-1.2605 2.4202 -1.2605c 1.4118,-0.4370 3.1597,-0.4370 3.1597 -0.4370c 0.9076,-0.0000 1.5126,0.1008 1.5126 0.1008l 0.0000,11.0252 c 2.6555,-0.1681 4.2017,-1.6303 4.2017 -1.6303c 1.5462,-1.4622 1.5462,-3.8151 1.5462 -3.8151c -0.0000,-1.1765 -0.3529,-2.1681 -0.3529 -2.1681c -0.3529,-0.9916 -0.9244,-1.8992 -0.9244 -1.8992l 1.8151,-0.9748 c 0.6723,1.0756 1.1765,2.3866 1.1765 2.3866c 0.5042,1.3109 0.5042,2.9916 0.5042 2.9916c 0.0000,1.6471 -0.5882,3.0756 -0.5882 3.0756c -0.5882,1.4286 -1.6807,2.4874 -1.6807 2.4874c -1.0924,1.0588 -2.6723,1.6639 -2.6723 1.6639c -1.5798,0.6050 -3.5966,0.6050 -3.5966 0.6050ZM 33.8655,220.5966 ZM 32.6218,209.1681 c -2.5210,0.0000 -3.8487,1.0588 -3.8487 1.0588c -1.3277,1.0588 -1.3277,2.9748 -1.3277 2.9748c 0.0000,0.8739 0.3529,1.6639 0.3529 1.6639c 0.3529,0.7899 1.0084,1.4286 1.0084 1.4286c 0.6555,0.6387 1.6134,1.0588 1.6134 1.0588c 0.9580,0.4202 2.2017,0.5546 2.2017 0.5546l -0.0000,-8.7395 ZM 42.0000,205.3025 ZM 25.6639,204.4958 l -0.0000,-2.8235 l 9.4454,-2.4202 c 1.1765,-0.2689 2.2857,-0.5042 2.2857 -0.5042c 1.1092,-0.2353 2.2521,-0.4706 2.2521 -0.4706l -0.0000,-0.1345 c -1.1429,-0.2689 -2.2689,-0.5378 -2.2689 -0.5378c -1.1261,-0.2689 -2.2689,-0.5714 -2.2689 -0.5714l -9.4454,-2.5210 l -0.0000,-2.6891 l 9.4454,-2.5546 c 1.1765,-0.3025 2.2857,-0.5882 2.2857 -0.5882c 1.1092,-0.2857 2.2521,-0.5546 2.2521 -0.5546l -0.0000,-0.1345 c -1.1429,-0.2689 -2.2521,-0.5042 -2.2521 -0.5042c -1.1092,-0.2353 -2.2857,-0.5042 -2.2857 -0.5042l -9.4454,-2.3866 l -0.0000,-2.6218 l 16.3361,4.3697 l 0.0000,3.3613 l -8.7731,2.3529 c -1.1765,0.3025 -2.3193,0.5546 -2.3193 0.5546c -1.1429,0.2521 -2.3866,0.5546 -2.3866 0.5546l 0.0000,0.1345 c 1.2437,0.2689 2.4034,0.5378 2.4034 0.5378c 1.1597,0.2689 2.3361,0.6050 2.3361 0.6050l 8.7395,2.2857 l 0.0000,3.2269 ZM 42.0000,181.5042 ZM 37.7647,179.5546 c -2.6891,0.0000 -4.1176,-2.4034 -4.1176 -2.4034c -1.4286,-2.4034 -2.0000,-7.6471 -2.0000 -7.6471c -0.7731,0.0000 -1.5126,0.1513 -1.5126 0.1513c -0.7395,0.1513 -1.3109,0.5378 -1.3109 0.5378c -0.5714,0.3866 -0.9244,1.0252 -0.9244 1.0252c -0.3529,0.6387 -0.3529,1.6471 -0.3529 1.6471c 0.0000,1.4454 0.5378,2.6723 0.5378 2.6723c 0.5378,1.2269 1.2101,2.2017 1.2101 2.2017l -1.9160,1.1092 c -0.7395,-1.1429 -1.4286,-2.7899 -1.4286 -2.7899c -0.6891,-1.6471 -0.6891,-3.6303 -0.6891 -3.6303c -0.0000,-2.9916 1.8319,-4.3361 1.8319 -4.3361c 1.8319,-1.3445 4.8908,-1.3445 4.8908 -1.3445l 10.0168,-0.0000 l 0.0000,2.2857 l -1.9496,0.2353 l 0.0000,0.0672 c 0.9748,1.1765 1.6639,2.5378 1.6639 2.5378c 0.6891,1.3613 0.6891,2.8739 0.6891 2.8739c 0.0000,2.0840 -1.2101,3.4454 -1.2101 3.4454c -1.2101,1.3613 -3.4286,1.3613 -3.4286 1.3613ZM 37.7647,179.5546 ZM 37.5630,176.8319 c 1.4118,-0.0000 2.0168,-0.8235 2.0168 -0.8235c 0.6050,-0.8235 0.6050,-2.0336 0.6050 -2.0336c -0.0000,-1.1765 -0.5546,-2.2353 -0.5546 -2.2353c -0.5546,-1.0588 -1.6303,-2.2353 -1.6303 -2.2353l -4.5378,0.0000 c 0.2689,2.0504 0.6387,3.4622 0.6387 3.4622c 0.3697,1.4118 0.8739,2.2689 0.8739 2.2689c 0.5042,0.8571 1.1597,1.2269 1.1597 1.2269c 0.6555,0.3697 1.4286,0.3697 1.4286 0.3697ZM 42.0000,164.2941 ZM 25.6639,161.5378 l -0.0000,-2.2857 l 2.9580,-0.2353 l -0.0000,-0.1008 c -1.5462,-0.8403 -2.4538,-2.0336 -2.4538 -2.0336c -0.9076,-1.1933 -0.9076,-2.6050 -0.9076 -2.6050c -0.0000,-0.9748 0.3361,-1.7479 0.3361 -1.7479l 2.4202,0.5378 c -0.1345,0.4034 -0.2017,0.7395 -0.2017 0.7395c -0.0672,0.3361 -0.0672,0.8403 -0.0672 0.8403c 0.0000,1.0420 0.8403,2.1681 0.8403 2.1681c 0.8403,1.1261 2.9244,1.9664 2.9244 1.9664l 10.4874,-0.0000 l 0.0000,2.7563 l -16.3361,0.0000 ZM 42.0000,152.9664 ZM 33.8655,151.3866 c -1.9832,0.0000 -3.5798,-0.5882 -3.5798 -0.5882c -1.5966,-0.5882 -2.7059,-1.5630 -2.7059 -1.5630c -1.1092,-0.9748 -1.7143,-2.2521 -1.7143 -2.2521c -0.6050,-1.2773 -0.6050,-2.6891 -0.6050 -2.6891c -0.0000,-1.4118 0.5042,-2.4538 0.5042 -2.4538c 0.5042,-1.0420 1.3782,-2.1176 1.3782 -2.1176l -2.7899,0.1345 l -6.2857,0.0000 l -0.0000,-2.7899 l 23.9328,-0.0000 l 0.0000,2.2857 l -1.9160,0.2353 l 0.0000,0.1008 c 0.9412,0.9748 1.6303,2.2353 1.6303 2.2353c 0.6891,1.2605 0.6891,2.7059 0.6891 2.7059c 0.0000,3.0924 -2.2185,4.9244 -2.2185 4.9244c -2.2185,1.8319 -6.3193,1.8319 -6.3193 1.8319ZM 33.8655,151.3866 ZM 33.8319,148.5294 c 2.9580,-0.0000 4.6050,-1.1765 4.6050 -1.1765c 1.6471,-1.1765 1.6471,-3.3277 1.6471 -3.3277c -0.0000,-1.1429 -0.5546,-2.1513 -0.5546 -2.1513c -0.5546,-1.0084 -1.6975,-2.0168 -1.6975 -2.0168l -8.5378,0.0000 c -0.9412,1.0420 -1.3277,2.0000 -1.3277 2.0000c -0.3866,0.9580 -0.3866,1.9664 -0.3866 1.9664c 0.0000,0.9748 0.4538,1.8319 0.4538 1.8319c 0.4538,0.8571 1.2773,1.4958 1.2773 1.4958c 0.8235,0.6387 1.9664,1.0084 1.9664 1.0084c 1.1429,0.3697 2.5546,0.3697 2.5546 0.3697Z"/></g><g stroke-linejoin="miter" stroke-opacity="1.0" fill-opacity="0.0" stroke="rgb(0,0,0)" stroke-width="3.9999999999999987" fill="rgb(0,0,0)" stroke-linecap="square" stroke-miterlimit="10.0"><path d="M 62.0000,548.0000 v -538.0000 "/></g><g stroke-linejoin="miter" stroke-opacity="1.0" fill-opacity="0.0" stroke="rgb(0,0,0)" stroke-width="0.0" fill="rgb(0,0,0)" stroke-linecap="square" stroke-miterlimit="10.0"><path d="M 62.0000,548.0000 h 728.0000 "/></g><g stroke-linejoin="bevel" stroke-opacity="0.0" fill-opacity="1.0" stroke="rgb(0,0,0)" stroke-width="0.0" fill="rgb(0,0,0)" stroke-linecap="butt" stroke-miterlimit="10.0"><path d="M 389.7647,579.1429 ZM 391.3445,571.0084 c 0.0000,-1.9832 0.5882,-3.5798 0.5882 -3.5798c 0.5882,-1.5966 1.5630,-2.7059 1.5630 -2.7059c 0.9748,-1.1092 2.2521,-1.7143 2.2521 -1.7143c 1.2773,-0.6050 2.6891,-0.6050 2.6891 -0.6050c 1.4118,0.0000 2.4538,0.5042 2.4538 0.5042c 1.0420,0.5042 2.1176,1.3782 2.1176 1.3782l -0.1345,-2.7899 v -6.2857 h 2.7899 v 23.9328 h -2.2857 l -0.2353,-1.9160 h -0.1008 c -0.9748,0.9412 -2.2353,1.6303 -2.2353 1.6303c -1.2605,0.6891 -2.7059,0.6891 -2.7059 0.6891c -3.0924,-0.0000 -4.9244,-2.2185 -4.9244 -2.2185c -1.8319,-2.2185 -1.8319,-6.3193 -1.8319 -6.3193ZM 391.3445,571.0084 ZM 394.2017,570.9748 c 0.0000,2.9580 1.1765,4.6050 1.1765 4.6050c 1.1765,1.6471 3.3277,1.6471 3.3277 1.6471c 1.1429,0.0000 2.1513,-0.5546 2.1513 -0.5546c 1.0084,-0.5546 2.0168,-1.6975 2.0168 -1.6975v -8.5378 c -1.0420,-0.9412 -2.0000,-1.3277 -2.0000 -1.3277c -0.9580,-0.3866 -1.9664,-0.3866 -1.9664 -0.3866c -0.9748,-0.0000 -1.8319,0.4538 -1.8319 0.4538c -0.8571,0.4538 -1.4958,1.2773 -1.4958 1.2773c -0.6387,0.8235 -1.0084,1.9664 -1.0084 1.9664c -0.3697,1.1429 -0.3697,2.5546 -0.3697 2.5546ZM 408.4202,579.1429 ZM 410.3697,574.9076 c 0.0000,-2.6891 2.4034,-4.1176 2.4034 -4.1176c 2.4034,-1.4286 7.6471,-2.0000 7.6471 -2.0000c 0.0000,-0.7731 -0.1513,-1.5126 -0.1513 -1.5126c -0.1513,-0.7395 -0.5378,-1.3109 -0.5378 -1.3109c -0.3866,-0.5714 -1.0252,-0.9244 -1.0252 -0.9244c -0.6387,-0.3529 -1.6471,-0.3529 -1.6471 -0.3529c -1.4454,-0.0000 -2.6723,0.5378 -2.6723 0.5378c -1.2269,0.5378 -2.2017,1.2101 -2.2017 1.2101l -1.1092,-1.9160 c 1.1429,-0.7395 2.7899,-1.4286 2.7899 -1.4286c 1.6471,-0.6891 3.6303,-0.6891 3.6303 -0.6891c 2.9916,0.0000 4.3361,1.8319 4.3361 1.8319c 1.3445,1.8319 1.3445,4.8908 1.3445 4.8908v 10.0168 h -2.2857 l -0.2353,-1.9496 h -0.0672 c -1.1765,0.9748 -2.5378,1.6639 -2.5378 1.6639c -1.3613,0.6891 -2.8739,0.6891 -2.8739 0.6891c -2.0840,-0.0000 -3.4454,-1.2101 -3.4454 -1.2101c -1.3613,-1.2101 -1.3613,-3.4286 -1.3613 -3.4286ZM 410.3697,574.9076 ZM 413.0924,574.7059 c 0.0000,1.4118 0.8235,2.0168 0.8235 2.0168c 0.8235,0.6050 2.0336,0.6050 2.0336 0.6050c 1.1765,0.0000 2.2353,-0.5546 2.2353 -0.5546c 1.0588,-0.5546 2.2353,-1.6303 2.2353 -1.6303v -4.5378 c -2.0504,0.2689 -3.4622,0.6387 -3.4622 0.6387c -1.4118,0.3697 -2.2689,0.8739 -2.2689 0.8739c -0.8571,0.5042 -1.2269,1.1597 -1.2269 1.1597c -0.3697,0.6555 -0.3697,1.4286 -0.3697 1.4286ZM 425.6303,579.1429 ZM 427.2773,583.6471 l 0.6050,0.1513 c 0.0000,0.0000 0.6387,0.0840 0.6387 0.0840c 1.4118,0.0000 2.3025,-0.9916 2.3025 -0.9916c 0.8908,-0.9916 1.3950,-2.5042 1.3950 -2.5042l 0.3697,-1.2101 l -6.5546,-16.3697 h 2.8571 l 3.3277,9.0420 c 0.3697,1.0756 0.7899,2.2689 0.7899 2.2689c 0.4202,1.1933 0.7899,2.3361 0.7899 2.3361h 0.1345 c 0.3697,-1.1092 0.7059,-2.3193 0.7059 -2.3193c 0.3361,-1.2101 0.6723,-2.2857 0.6723 -2.2857l 2.9244,-9.0420 h 2.6891 l -6.1513,17.6807 c -0.4370,1.2101 -0.9748,2.2521 -0.9748 2.2521c -0.5378,1.0420 -1.2773,1.7983 -1.2773 1.7983c -0.7395,0.7563 -1.6807,1.1933 -1.6807 1.1933c -0.9412,0.4370 -2.1849,0.4370 -2.1849 0.4370c -0.5714,-0.0000 -1.0420,-0.0840 -1.0420 -0.0840c -0.4706,-0.0840 -0.8739,-0.2521 -0.8739 -0.2521l 0.5378,-2.1849 h 0.0000 ZM 448.1176,579.1429 ZM 451.9832,572.2857 h -2.6891 v -1.9160 h 2.9244 l 0.6050,-4.9748 h -2.8571 v -1.9496 h 3.0924 l 0.7731,-6.1513 h 1.7815 l -0.7731,6.1513 h 4.4706 l 0.8067,-6.1513 h 1.7815 l -0.8067,6.1513 h 2.7227 v 1.9496 h -2.9244 l -0.6050,4.9748 h 2.8571 v 1.9160 h -3.0924 l -0.8403,6.8571 h -1.7815 l 0.8067,-6.8571 h -4.4370 l -0.8403,6.8571 h -1.8151 ZM 451.9832,572.2857 ZM 458.4706,570.3697 l 0.6050,-4.9748 h -4.4370 l -0.6050,4.9748 h 4.4370 Z"/></g></svg>