<?xml version="1.0" encoding="UTF-8"?>
<!DOCTYPE svg PUBLIC "-//W3C//DTD SVG 1.1//EN"
    "http://www.w3.org/Graphics/SVG/1.1/DTD/svg11.dtd"><svg xmlns="http://www.w3.org/2000/svg" height="600.0000" stroke-opacity="1" viewBox="0.0 0.0 800.0 600.0" font-size="1" width="800.0000" xmlns:xlink="http://www.w3.org/1999/xlink" stroke="rgb(0,0,0)" version="1.1"><defs></defs><g stroke-linejoin="bevel" stroke-opacity="0.0" fill-opacity="0.0" stroke="rgb(0,0,0)" stroke-width="0.0" fill="rgb(0,0,0)" stroke-linecap="butt" stroke-miterlimit="10.0"><path d="M 0.0000,0.0000 v 600.0000 h 800.0000 v -600.0000 Z"/></g><g stroke-linejoin="round" stroke-opacity="1.0" fill-opacity="0.0" stroke="rgb(0,0,0)" stroke-width="3.9999999999999987" fill="rgb(0,0,0)" stroke-linecap="round" stroke-miterlimit="10.0"><defs><clipPath id="myClip1"><path d="M 62.0000,10.0000 v 538.0000 h 728.0000 v -538.0000 Z"/></clipPath></defs><g clip-path="url(#myClip1)"><path d="M 62.0000,368.6667 h 14.5600 h 14.5600 h 14.5600 h 14.5600 h 14.5600 h 14.5600 h 14.5600 h 14.5600 h 14.5600 h 14.5600 h 14.5600 h 14.5600 h 14.5600 h 14.5600 h 14.5600 h 14.5600 h 14.5600 h 14.5600 h 14.5600 h 14.5600 h 14.5600 h 14.5600 h 14.5600 h 14.5600 h 14.5600 h 14.5600 h 14.5600 h 14.5600 h 14.5600 h 14.5600 h 14.5600 h 14.5600 h 14.5600 h 14.5600 h 14.5600 h 14.5600 h 14.5600 h 14.5600 h 14.5600 h 14.5600 h 14.5600 h 14.5600 h 14.5600 h 14.5600 h 14.5600 h 14.5600 h 14.5600 h 14.5600 h 14.5600 h 14.5600 "/></g></g><g stroke-linejoin="round" stroke-opacity="1.0" fill-opacity="0.0" stroke="rgb(5,45,105)" stroke-width="3.9999999999999987" fill="rgb(0,0,0)" stroke-linecap="round" stroke-miterlimit="10.0"><defs><clipPath id="myClip2"><path d="M 62.0000,10.0000 v 538.0000 h 728.0000 v -538.0000 Z"/></clipPath></defs><g clip-path="url(#myClip2)"><path d="M 62.0000,368.6667 h 14.5600 l 14.5600,-30.4472 l 14.5600,-1.2571 l 14.5600,49.4027 l 14.5600,68.9286 l 14.5600,72.5995 l 14.5600,74.0396 l 14.5600,74.7425 l 14.5600,75.4204 l 14.5600,75.8975 l 14.5600,75.5460 l 14.5600,75.3702 l 14.5600,77.0775 l 14.5600,74.9434 l 14.5600,74.8681 l 14.5600,75.0438 l 14.5600,73.6127 l 14.5600,78.7345 l 14.5600,74.6170 l 14.5600,74.5417 l 14.5600,75.0438 l 14.5600,75.3200 l 14.5600,74.3157 l 14.5600,75.0940 l 14.5600,74.5668 l 14.5600,77.8307 l 14.5600,75.1443 l 14.5600,75.2949 l 14.5600,77.3285 l 14.5600,76.2489 l 14.5600,77.0775 l 14.5600,76.5753 l 14.5600,75.5711 l 14.5600,73.2110 l 14.5600,74.1400 l 14.5600,75.7468 l 14.5600,74.4162 l 14.5600,75.3200 l 14.5600,75.1443 l 14.5600,76.3494 l 14.5600,75.5962 l 14.5600,73.2110 l 14.5600,76.3243 l 14.5600,73.7634 l 14.5600,74.7677 l 14.5600,74.7677 l 14.5600,75.8472 l 14.5600,76.5251 l 14.5600,74.9685 l 14.5600,74.7928 "/></g></g><g stroke-linejoin="round" stroke-opacity="1.0" fill-opacity="0.0" stroke="rgb(101,50,125)" stroke-width="3.9999999999999987" fill="rgb(0,0,0)" stroke-linecap="round" stroke-miterlimit="10.0"><defs><clipPath id="myClip3"><path d="M 62.0000,10.0000 v 538.0000 h 728.0000 v -538.0000 Z"/></clipPath></defs><g clip-path="url(#myClip3)"><path d="M 62.0000,368.6667 h 14.5600 l 14.5600,-22.8973 l 14.5600,-7.0460 l 14.5600,15.6737 l 14.5600,30.5799 l 14.5600,37.4036 l 14.5600,40.0254 l 14.5600,43.5941 l 14.5600,45.6654 l 14.5600,44.1752 l 14.5600,46.6105 l 14.5600,44.1626 l 14.5600,43.5816 l 14.5600,46.7845 l 14.5600,43.8111 l 14.5600,45.6188 l 14.5600,45.3839 l 14.5600,44.8028 l 14.5600,44.5751 l 14.5600,47.0104 l 14.5600,43.6569 l 14.5600,44.9481 l 14.5600,44.8692 l 14.5600,46.5872 l 14.5600,46.0654 l 14.5600,44.7024 l 14.5600,43.0436 l 14.5600,44.6683 l 14.5600,44.4280 l 14.5600,46.7934 l 14.5600,46.1622 l 14.5600,45.8143 l 14.5600,44.9391 l 14.5600,43.9456 l 14.5600,44.1429 l 14.5600,45.2619 l 14.5600,42.9378 l 14.5600,45.0306 l 14.5600,44.9553 l 14.5600,46.7163 l 14.5600,44.3581 l 14.5600,45.0037 l 14.5600,45.1292 l 14.5600,43.6641 l 14.5600,43.0239 l 14.5600,46.0080 l 14.5600,46.3846 l 14.5600,45.2906 l 14.5600,44.8280 l 14.5600,43.9151 "/></g></g><g stroke-linejoin="round" stroke-opacity="1.0" fill-opacity="0.0" stroke="rgb(172,50,122)" stroke-width="3.9999999999999987" fill="rgb(0,0,0)" stroke-linecap="round" stroke-miterlimit="10.0"><defs><clipPath id="myClip4"><path d="M 62.0000,10.0000 v 538.0000 h 728.0000 v -538.0000 Z"/></clipPath></defs><g clip-path="url(#myClip4)"><path d="M 62.0000,368.6667 h 14.5600 l 14.5600,-16.3086 l 14.5600,-8.8519 l 14.5600,-1.8902 l 14.5600,3.6297 l 14.5600,8.2655 l 14.5600,9.1711 l 14.5600,10.9142 l 14.5600,14.5314 l 14.5600,12.4619 l 14.5600,15.3204 l 14.5600,15.2846 l 14.5600,14.2140 l 14.5600,14.2068 l 14.5600,15.4191 l 14.5600,14.9851 l 14.5600,16.6278 l 14.5600,16.2404 l 14.5600,15.2128 l 14.5600,15.3689 l 14.5600,17.2985 l 14.5600,16.3265 l 14.5600,14.4005 l 14.5600,14.5134 l 14.5600,15.2935 l 14.5600,16.0521 l 14.5600,15.5697 l 14.5600,16.1167 l 14.5600,14.8721 l 14.5600,14.8596 l 14.5600,14.3789 l 14.5600,15.3994 l 14.5600,16.6637 l 14.5600,15.8979 l 14.5600,15.3850 l 14.5600,14.3341 l 14.5600,13.4070 l 14.5600,15.4280 l 14.5600,15.8925 l 14.5600,13.9772 l 14.5600,15.5841 l 14.5600,16.2673 l 14.5600,16.1310 l 14.5600,15.4980 l 14.5600,14.6784 l 14.5600,15.9463 l 14.5600,17.0582 l 14.5600,15.5482 l 14.5600,16.0988 l 14.5600,15.1985 "/></g></g><g stroke-linejoin="round" stroke-opacity="1.0" fill-opacity="0.0" stroke="rgb(226,66,100)" stroke-width="3.9999999999999987" fill="rgb(0,0,0)" stroke-linecap="round" stroke-miterlimit="10.0"><defs><clipPath id="myClip5"><path d="M 62.0000,10.0000 v 538.0000 h 728.0000 v -538.0000 Z"/></clipPath></defs><g clip-path="url(#myClip5)"><path d="M 62.0000,368.6667 h 14.5600 l 14.5600,-9.1532 l 14.5600,-5.9664 l 14.5600,-3.8987 l 14.5600,-4.3632 l 14.5600,-3.1312 l 14.5600,-2.7259 l 14.5600,-2.0946 l 14.5600,-1.2966 l 14.5600,-2.7976 l 14.5600,-2.3116 l 14.5600,-2.5143 l 14.5600,-2.1699 l 14.5600,-1.1585 l 14.5600,-1.9207 l 14.5600,-1.2356 l 14.5600,0.5667 l 14.5600,-0.4107 l 14.5600,-0.9164 l 14.5600,0.0412 l 14.5600,0.2152 l 14.5600,0.3569 l 14.5600,0.0610 l 14.5600,0.2923 l 14.5600,0.4824 l 14.5600,0.0753 l 14.5600,0.3300 l 14.5600,1.6517 l 14.5600,1.0150 l 14.5600,1.4669 l 14.5600,1.5512 l 14.5600,1.5710 l 14.5600,0.4896 l 14.5600,2.1090 l 14.5600,1.0473 l 14.5600,2.6165 l 14.5600,1.8830 l 14.5600,2.7008 l 14.5600,2.2614 l 14.5600,2.3869 l 14.5600,1.9296 l 14.5600,2.4587 l 14.5600,2.3421 l 14.5600,4.0888 l 14.5600,2.9500 l 14.5600,3.2459 l 14.5600,2.6577 l 14.5600,4.0027 l 14.5600,4.0117 l 14.5600,3.6584 "/></g></g><g stroke-linejoin="round" stroke-opacity="1.0" fill-opacity="0.0" stroke="rgb(255,110,64)" stroke-width="3.9999999999999987" fill="rgb(0,0,0)" stroke-linecap="round" stroke-miterlimit="10.0"><defs><clipPath id="myClip6"><path d="M 62.0000,10.0000 v 538.0000 h 728.0000 v -538.0000 Z"/></clipPath></defs><g clip-path="url(#myClip6)"><path d="M 62.0000,368.6667 h 14.5600 l 14.5600,-2.6254 l 14.5600,2.0265 l 14.5600,1.8525 l 14.5600,3.1078 l 14.5600,3.6100 l 14.5600,5.9754 l 14.5600,6.8577 l 14.5600,9.5997 l 14.5600,11.5580 l 14.5600,13.5128 l 14.5600,13.7800 l 14.5600,16.7408 l 14.5600,18.5198 l 14.5600,20.6287 l 14.5600,22.2642 l 14.5600,23.6039 l 14.5600,26.3548 l 14.5600,25.9047 l 14.5600,29.3676 l 14.5600,31.6972 l 14.5600,32.7678 l 14.5600,33.6555 l 14.5600,35.7949 l 14.5600,38.6948 l 14.5600,39.5376 l 14.5600,41.5874 l 14.5600,43.0705 l 14.5600,44.6002 l 14.5600,46.1586 l 14.5600,47.2794 l 14.5600,50.9665 l 14.5600,52.4138 l 14.5600,54.6949 l 14.5600,55.7404 l 14.5600,57.7704 l 14.5600,58.6402 l 14.5600,60.8980 l 14.5600,64.1583 l 14.5600,64.5349 l 14.5600,67.6696 l 14.5600,67.9781 l 14.5600,70.0924 l 14.5600,71.4087 l 14.5600,73.2989 l 14.5600,75.4115 l 14.5600,76.1503 l 14.5600,78.6951 l 14.5600,79.1416 l 14.5600,82.2351 "/></g></g><g stroke-linejoin="round" stroke-opacity="1.0" fill-opacity="0.0" stroke="rgb(255,166,0)" stroke-width="3.9999999999999987" fill="rgb(0,0,0)" stroke-linecap="round" stroke-miterlimit="10.0"><defs><clipPath id="myClip7"><path d="M 62.0000,10.0000 v 538.0000 h 728.0000 v -538.0000 Z"/></clipPath></defs><g clip-path="url(#myClip7)"><path d="M 62.0000,368.6667 h 14.5600 l 14.5600,5.6669 l 14.5600,8.7533 l 14.5600,11.1169 l 14.5600,12.5175 l 14.5600,16.6081 l 14.5600,21.7298 l 14.5600,25.9334 l 14.5600,28.8404 l 14.5600,33.7452 l 14.5600,36.4728 l 14.5600,39.0409 l 14.5600,43.1673 l 14.5600,46.8831 l 14.5600,49.8547 l 14.5600,52.3169 l 14.5600,58.3766 l 14.5600,60.5949 l 14.5600,65.3078 l 14.5600,69.9526 l 14.5600,72.5798 l 14.5600,75.2752 l 14.5600,79.0986 l 14.5600,83.0008 l 14.5600,87.1309 l 14.5600,89.7474 l 14.5600,93.4506 l 14.5600,96.3415 l 14.5600,100.2384 l 14.5600,103.8573 l 14.5600,106.9705 l 14.5600,112.2537 l 14.5600,115.5373 l 14.5600,118.1358 l 14.5600,122.8828 l 14.5600,124.6976 l 14.5600,128.7039 l 14.5600,132.5937 l 14.5600,136.0423 l 14.5600,139.0461 l 14.5600,142.9000 l 14.5600,147.4748 l 14.5600,148.9955 l 14.5600,153.8644 l 14.5600,157.7703 l 14.5600,160.1823 l 14.5600,164.6961 l 14.5600,169.5848 l 14.5600,172.6119 l 14.5600,177.0110 "/></g></g><g stroke-linejoin="round" stroke-opacity="1.0" fill-opacity="0.0" stroke="rgb(5,45,105)" stroke-width="3.9999999999999987" fill="rgb(0,0,0)" stroke-linecap="round" stroke-miterlimit="10.0"><defs><clipPath id="myClip8"><path d="M 62.0000,10.0000 v 538.0000 h 728.0000 v -538.0000 Z"/></clipPath></defs><g clip-path="url(#myClip8)"><path d="M 62.0000,368.6667 h 14.5600 l 14.5600,12.5533 l 14.5600,17.1245 l 14.5600,22.3718 l 14.5600,26.9430 l 14.5600,32.2639 l 14.5600,37.1220 l 14.5600,43.1530 l 14.5600,49.4207 l 14.5600,55.3405 l 14.5600,59.4920 l 14.5600,63.9718 l 14.5600,69.8181 l 14.5600,75.3792 l 14.5600,80.2086 l 14.5600,86.9229 l 14.5600,91.9639 l 14.5600,97.2812 l 14.5600,101.7681 l 14.5600,107.7757 l 14.5600,112.8545 l 14.5600,119.1006 l 14.5600,124.6134 l 14.5600,130.0328 l 14.5600,137.0250 l 14.5600,141.1102 l 14.5600,145.2152 l 14.5600,150.8875 l 14.5600,155.4892 l 14.5600,163.1270 l 14.5600,167.6498 l 14.5600,172.0165 l 14.5600,178.3327 l 14.5600,183.9314 l 14.5600,188.5349 l 14.5600,194.1678 l 14.5600,197.5141 l 14.5600,205.6003 l 14.5600,209.4237 l 14.5600,214.9184 l 14.5600,222.1043 l 14.5600,226.5410 l 14.5600,230.6818 l 14.5600,236.6590 l 14.5600,243.2441 l 14.5600,247.5464 l 14.5600,251.6710 l 14.5600,259.3160 l 14.5600,263.3367 l 14.5600,269.2672 "/></g></g><g stroke-linejoin="round" stroke-opacity="1.0" fill-opacity="0.0" stroke="rgb(101,50,125)" stroke-width="3.9999999999999987" fill="rgb(0,0,0)" stroke-linecap="round" stroke-miterlimit="10.0"><defs><clipPath id="myClip9"><path d="M 62.0000,10.0000 v 538.0000 h 728.0000 v -538.0000 Z"/></clipPath></defs><g clip-path="url(#myClip9)"><path d="M 62.0000,368.6667 h 14.5600 l 14.5600,19.6872 l 14.5600,26.1091 l 14.5600,31.2524 l 14.5600,39.9716 l 14.5600,46.5639 l 14.5600,54.6680 l 14.5600,60.9966 l 14.5600,68.4982 l 14.5600,73.9768 l 14.5600,82.6260 l 14.5600,89.0013 l 14.5600,97.6273 l 14.5600,104.6231 l 14.5600,111.1526 l 14.5600,118.0946 l 14.5600,125.8131 l 14.5600,132.5578 l 14.5600,141.6841 l 14.5600,146.5100 l 14.5600,153.7550 l 14.5600,161.5955 l 14.5600,168.7401 l 14.5600,174.8608 l 14.5600,182.3694 l 14.5600,190.4520 l 14.5600,196.5332 l 14.5600,204.9672 l 14.5600,211.9200 l 14.5600,218.6916 l 14.5600,225.5368 l 14.5600,232.6007 l 14.5600,240.0161 l 14.5600,246.1207 l 14.5600,254.3180 l 14.5600,262.9780 l 14.5600,271.3941 l 14.5600,276.7006 l 14.5600,282.4805 l 14.5600,291.6964 l 14.5600,298.2439 l 14.5600,306.3031 l 14.5600,312.2875 l 14.5600,319.9558 l 14.5600,327.6599 l 14.5600,334.6790 l 14.5600,341.4507 l 14.5600,348.8087 l 14.5600,355.6575 l 14.5600,363.3939 "/></g></g><g stroke-linejoin="round" stroke-opacity="1.0" fill-opacity="0.0" stroke="rgb(172,50,122)" stroke-width="3.9999999999999987" fill="rgb(0,0,0)" stroke-linecap="round" stroke-miterlimit="10.0"><defs><clipPath id="myClip10"><path d="M 62.0000,10.0000 v 538.0000 h 728.0000 v -538.0000 Z"/></clipPath></defs><g clip-path="url(#myClip10)"><path d="M 62.0000,368.6667 h 14.5600 l 14.5600,28.4172 l 14.5600,34.6364 l 14.5600,43.0543 l 14.5600,52.1017 l 14.5600,60.8478 l 14.5600,69.9274 l 14.5600,78.6395 l 14.5600,87.7388 l 14.5600,97.5358 l 14.5600,105.7762 l 14.5600,114.3465 l 14.5600,124.8644 l 14.5600,132.5435 l 14.5600,143.2299 l 14.5600,150.9090 l 14.5600,159.9976 l 14.5600,170.1210 l 14.5600,177.7624 l 14.5600,186.7828 l 14.5600,195.6849 l 14.5600,204.4095 l 14.5600,212.8346 l 14.5600,223.3364 l 14.5600,232.4232 l 14.5600,241.0688 l 14.5600,248.9882 l 14.5600,258.8085 l 14.5600,266.9825 l 14.5600,275.9151 l 14.5600,285.9004 l 14.5600,293.9130 l 14.5600,303.4194 l 14.5600,312.8721 l 14.5600,320.7484 l 14.5600,329.7707 l 14.5600,338.8091 l 14.5600,347.1319 l 14.5600,356.3551 l 14.5600,366.2274 l 14.5600,373.6392 l 14.5600,383.7195 l 14.5600,392.9678 l 14.5600,399.8972 l 14.5600,410.5263 l 14.5600,419.4248 l 14.5600,428.2408 l 14.5600,437.7832 l 14.5600,446.0074 l 14.5600,454.5042 "/></g></g><g stroke-linejoin="round" stroke-opacity="1.0" fill-opacity="0.0" stroke="rgb(226,66,100)" stroke-width="3.9999999999999987" fill="rgb(0,0,0)" stroke-linecap="round" stroke-miterlimit="10.0"><defs><clipPath id="myClip11"><path d="M 62.0000,10.0000 v 538.0000 h 728.0000 v -538.0000 Z"/></clipPath></defs><g clip-path="url(#myClip11)"><path d="M 62.0000,368.6667 h 14.5600 l 14.5600,34.4858 l 14.5600,41.6753 l 14.5600,54.5496 l 14.5600,65.9749 l 14.5600,75.2752 l 14.5600,85.3896 l 14.5600,96.8615 l 14.5600,108.6079 l 14.5600,118.8137 l 14.5600,128.7201 l 14.5600,139.8352 l 14.5600,150.2150 l 14.5600,161.4825 l 14.5600,172.1331 l 14.5600,183.0276 l 14.5600,192.1324 l 14.5600,205.0031 l 14.5600,213.9160 l 14.5600,225.9008 l 14.5600,236.1354 l 14.5600,247.1769 l 14.5600,259.5366 l 14.5600,269.0126 l 14.5600,278.6338 l 14.5600,290.3783 l 14.5600,301.9471 l 14.5600,311.1344 l 14.5600,323.2824 l 14.5600,333.1780 l 14.5600,343.9022 l 14.5600,354.6550 l 14.5600,364.7801 l 14.5600,375.7769 l 14.5600,387.2901 l 14.5600,398.2742 l 14.5600,408.2344 l 14.5600,420.1816 l 14.5600,429.7723 l 14.5600,439.9352 l 14.5600,451.5649 l 14.5600,463.7775 l 14.5600,472.4985 l 14.5600,485.0303 l 14.5600,494.9546 l 14.5600,505.6895 l 14.5600,516.3473 l 14.5600,527.3781 l 14.5600,538.0843 l 14.5600,548.3780 "/></g></g><g stroke-linejoin="round" stroke-opacity="1.0" fill-opacity="0.0" stroke="rgb(255,110,64)" stroke-width="3.9999999999999987" fill="rgb(0,0,0)" stroke-linecap="round" stroke-miterlimit="10.0"><defs><clipPath id="myClip12"><path d="M 62.0000,10.0000 v 538.0000 h 728.0000 v -538.0000 Z"/></clipPath></defs><g clip-path="url(#myClip12)"><path d="M 62.0000,368.6667 h 14.5600 l 14.5600,41.5874 l 14.5600,52.0623 l 14.5600,64.6264 l 14.5600,77.7087 l 14.5600,89.4945 l 14.5600,100.8607 l 14.5600,114.2353 l 14.5600,127.6064 l 14.5600,138.8919 l 14.5600,151.3035 l 14.5600,164.7589 l 14.5600,178.6572 l 14.5600,189.8530 l 14.5600,202.2485 l 14.5600,214.1097 l 14.5600,226.5482 l 14.5600,240.1489 l 14.5600,251.5276 l 14.5600,264.7211 l 14.5600,277.4071 l 14.5600,288.7930 l 14.5600,304.2946 l 14.5600,315.1909 l 14.5600,326.8117 l 14.5600,340.2527 l 14.5600,352.8294 l 14.5600,365.0348 l 14.5600,377.8123 l 14.5600,391.1386 l 14.5600,403.4570 l 14.5600,415.3324 l 14.5600,427.6329 l 14.5600,441.5276 l 14.5600,452.2267 l 14.5600,466.3097 l 14.5600,479.1518 l 14.5600,490.0839 l 14.5600,503.0390 l 14.5600,516.9624 l 14.5600,529.5283 l 14.5600,542.1085 l 14.5600,554.5058 l 14.5600,566.4979 l 14.5600,578.8844 l 14.5600,591.3373 l 14.5600,603.7526 l 14.5600,617.9916 l 14.5600,629.5497 l 14.5600,642.1389 "/></g></g><g stroke-linejoin="round" stroke-opacity="1.0" fill-opacity="0.0" stroke="rgb(255,166,0)" stroke-width="3.9999999999999987" fill="rgb(0,0,0)" stroke-linecap="round" stroke-miterlimit="10.0"><defs><clipPath id="myClip13"><path d="M 62.0000,10.0000 v 538.0000 h 728.0000 v -538.0000 Z"/></clipPath></defs><g clip-path="url(#myClip13)"><path d="M 62.0000,368.6667 h 14.5600 l 14.5600,48.4559 l 14.5600,60.6254 l 14.5600,75.0869 l 14.5600,90.9740 l 14.5600,104.4025 l 14.5600,118.8281 l 14.5600,133.2160 l 14.5600,148.7373 l 14.5600,161.6170 l 14.5600,176.2129 l 14.5600,190.0682 l 14.5600,204.9654 l 14.5600,219.7802 l 14.5600,233.3593 l 14.5600,248.0951 l 14.5600,261.9361 l 14.5600,275.8685 l 14.5600,289.8977 l 14.5600,305.0317 l 14.5600,320.2929 l 14.5600,333.4022 l 14.5600,348.4231 l 14.5600,362.6891 l 14.5600,376.7686 l 14.5600,390.2813 l 14.5600,405.7291 l 14.5600,420.6263 l 14.5600,434.6843 l 14.5600,448.1630 l 14.5600,463.8080 l 14.5600,477.2993 l 14.5600,490.7995 l 14.5600,506.2903 l 14.5600,520.7051 l 14.5600,533.4306 l 14.5600,548.1574 l 14.5600,564.6597 l 14.5600,577.9716 l 14.5600,589.5816 l 14.5600,606.7421 l 14.5600,619.1286 l 14.5600,633.9146 l 14.5600,648.6056 l 14.5600,663.7252 l 14.5600,678.0002 l 14.5600,691.9864 l 14.5600,707.2279 l 14.5600,720.5308 l 14.5600,734.6229 "/></g></g><g stroke-linejoin="round" stroke-opacity="1.0" fill-opacity="0.0" stroke="rgb(5,45,105)" stroke-width="3.9999999999999987" fill="rgb(0,0,0)" stroke-linecap="round" stroke-miterlimit="10.0"><defs><clipPath id="myClip14"><path d="M 62.0000,10.0000 v 538.0000 h 728.0000 v -538.0000 Z"/></clipPath></defs><g clip-path="url(#myClip14)"><path d="M 62.0000,368.6667 h 14.5600 l 14.5600,55.9269 l 14.5600,71.0357 l 14.5600,85.9939 l 14.5600,101.8075 l 14.5600,117.9726 l 14.5600,134.5950 l 14.5600,149.0906 l 14.5600,166.7226 l 14.5600,182.4143 l 14.5600,198.9381 l 14.5600,215.7739 l 14.5600,230.3429 l 14.5600,247.1429 l 14.5600,263.5375 l 14.5600,278.4598 l 14.5600,294.1461 l 14.5600,312.4327 l 14.5600,328.3127 l 14.5600,343.9165 l 14.5600,360.1193 l 14.5600,375.4272 l 14.5600,392.4961 l 14.5600,407.6426 l 14.5600,425.5168 l 14.5600,439.6321 l 14.5600,457.0651 l 14.5600,473.5297 l 14.5600,489.2841 l 14.5600,505.0529 l 14.5600,521.8349 l 14.5600,537.6969 l 14.5600,552.0830 l 14.5600,569.7061 l 14.5600,585.3171 l 14.5600,602.0955 l 14.5600,618.7179 l 14.5600,634.5800 l 14.5600,650.1389 l 14.5600,666.6681 l 14.5600,683.7388 l 14.5600,699.3319 l 14.5600,713.8363 l 14.5600,731.5598 l 14.5600,745.6285 l 14.5600,764.5536 l 14.5600,780.8550 l 14.5600,795.5926 l 14.5600,813.6353 l 14.5600,829.1082 "/></g></g><g stroke-linejoin="round" stroke-opacity="1.0" fill-opacity="0.0" stroke="rgb(101,50,125)" stroke-width="3.9999999999999987" fill="rgb(0,0,0)" stroke-linecap="round" stroke-miterlimit="10.0"><defs><clipPath id="myClip15"><path d="M 62.0000,10.0000 v 538.0000 h 728.0000 v -538.0000 Z"/></clipPath></defs><g clip-path="url(#myClip15)"><path d="M 62.0000,368.6667 h 14.5600 l 14.5600,-29.7478 l 14.5600,5.2760 l 14.5600,25.7989 l 14.5600,19.1976 l 14.5600,24.4180 l 14.5600,21.7495 l 14.5600,21.9522 l 14.5600,22.4723 l 14.5600,19.3734 l 14.5600,19.8701 l 14.5600,20.9318 l 14.5600,22.0024 l 14.5600,21.4590 l 14.5600,23.8836 l 14.5600,19.6908 l 14.5600,21.9952 l 14.5600,18.0481 l 14.5600,20.8403 l 14.5600,20.9085 l 14.5600,19.7177 l 14.5600,19.5958 l 14.5600,22.2696 l 14.5600,21.3927 l 14.5600,23.1555 l 14.5600,19.6531 l 14.5600,21.5415 l 14.5600,19.1528 l 14.5600,23.1179 l 14.5600,19.4308 l 14.5600,23.2470 l 14.5600,21.1308 l 14.5600,24.2853 l 14.5600,21.6168 l 14.5600,21.2815 l 14.5600,22.0060 l 14.5600,22.2445 l 14.5600,21.8428 l 14.5600,21.9630 l 14.5600,22.1028 l 14.5600,19.8988 l 14.5600,20.7202 l 14.5600,20.8923 l 14.5600,19.2030 l 14.5600,21.8966 l 14.5600,22.5207 l 14.5600,22.0150 l 14.5600,20.0513 l 14.5600,22.1566 l 14.5600,22.1692 "/></g></g><g stroke-linejoin="round" stroke-opacity="1.0" fill-opacity="0.0" stroke="rgb(172,50,122)" stroke-width="3.9999999999999987" fill="rgb(0,0,0)" stroke-linecap="round" stroke-miterlimit="10.0"><defs><clipPath id="myClip16"><path d="M 62.0000,10.0000 v 538.0000 h 728.0000 v -538.0000 Z"/></clipPath></defs><g clip-path="url(#myClip16)"><path d="M 62.0000,368.6667 h 14.5600 l 14.5600,-31.9608 l 14.5600,15.7670 l 14.5600,9.1550 l 14.5600,14.5332 l 14.5600,12.1534 l 14.5600,10.8568 l 14.5600,10.5376 l 14.5600,10.5878 l 14.5600,10.6524 l 14.5600,12.3076 l 14.5600,9.8580 l 14.5600,9.9369 l 14.5600,10.3170 l 14.5600,13.2509 l 14.5600,10.2543 l 14.5600,11.2012 l 14.5600,12.5856 l 14.5600,10.0911 l 14.5600,10.7080 l 14.5600,10.4623 l 14.5600,8.1686 l 14.5600,13.6885 l 14.5600,11.7176 l 14.5600,12.2736 l 14.5600,12.3686 l 14.5600,9.8346 l 14.5600,11.4845 l 14.5600,9.5136 l 14.5600,13.1093 l 14.5600,11.6603 l 14.5600,11.0631 l 14.5600,11.4415 l 14.5600,11.2532 l 14.5600,12.2036 l 14.5600,11.7123 l 14.5600,12.3041 l 14.5600,10.3332 l 14.5600,10.9591 l 14.5600,8.3300 l 14.5600,11.9884 l 14.5600,10.9716 l 14.5600,13.3424 l 14.5600,9.6141 l 14.5600,13.2653 l 14.5600,10.9644 l 14.5600,9.1944 l 14.5600,13.0429 l 14.5600,8.7335 l 14.5600,13.7154 "/></g></g><g stroke-linejoin="round" stroke-opacity="1.0" fill-opacity="0.0" stroke="rgb(226,66,100)" stroke-width="3.9999999999999987" fill="rgb(0,0,0)" stroke-linecap="round" stroke-miterlimit="10.0"><defs><clipPath id="myClip17"><path d="M 62.0000,10.0000 v 538.0000 h 728.0000 v -538.0000 Z"/></clipPath></defs><g clip-path="url(#myClip17)"><path d="M 62.0000,368.6667 h 14.5600 l 14.5600,-30.4365 l 14.5600,18.9376 l 14.5600,-2.9106 l 14.5600,8.1292 l 14.5600,2.7205 l 14.5600,4.9245 l 14.5600,4.1121 l 14.5600,3.4880 l 14.5600,4.2448 l 14.5600,2.8640 l 14.5600,5.1702 l 14.5600,1.6427 l 14.5600,3.3356 l 14.5600,3.5544 l 14.5600,1.7915 l 14.5600,4.8402 l 14.5600,5.5396 l 14.5600,2.9716 l 14.5600,2.6380 l 14.5600,1.7915 l 14.5600,3.5185 l 14.5600,3.9812 l 14.5600,2.9106 l 14.5600,3.0774 l 14.5600,4.6358 l 14.5600,4.2359 l 14.5600,4.1623 l 14.5600,3.5131 l 14.5600,4.8761 l 14.5600,4.6178 l 14.5600,3.1401 l 14.5600,2.1161 l 14.5600,4.7254 l 14.5600,1.3916 l 14.5600,4.2628 l 14.5600,3.2818 l 14.5600,2.8532 l 14.5600,2.9088 l 14.5600,4.7792 l 14.5600,2.7564 l 14.5600,5.7709 l 14.5600,4.2054 l 14.5600,3.7499 l 14.5600,2.9411 l 14.5600,4.3363 l 14.5600,3.9489 l 14.5600,3.2675 l 14.5600,4.3022 l 14.5600,2.7886 "/></g></g><g stroke-linejoin="round" stroke-opacity="1.0" fill-opacity="0.0" stroke="rgb(255,110,64)" stroke-width="3.9999999999999987" fill="rgb(0,0,0)" stroke-linecap="round" stroke-miterlimit="10.0"><defs><clipPath id="myClip18"><path d="M 62.0000,10.0000 v 538.0000 h 728.0000 v -538.0000 Z"/></clipPath></defs><g clip-path="url(#myClip18)"><path d="M 62.0000,368.6667 h 14.5600 l 14.5600,-23.6828 l 14.5600,7.4370 l 14.5600,-4.6304 l 14.5600,-2.3529 l 14.5600,-1.6050 l 14.5600,-0.5577 l 14.5600,-2.9805 l 14.5600,-0.1255 l 14.5600,-0.1524 l 14.5600,-2.1394 l 14.5600,-1.5154 l 14.5600,-3.0469 l 14.5600,-1.4669 l 14.5600,-2.9357 l 14.5600,-1.5405 l 14.5600,-1.6660 l 14.5600,-3.1599 l 14.5600,-0.6958 l 14.5600,0.0807 l 14.5600,-3.3428 l 14.5600,-0.5003 l 14.5600,-1.6283 l 14.5600,-2.2847 l 14.5600,-2.1305 l 14.5600,-0.9648 l 14.5600,-2.3564 l 14.5600,-0.4537 l 14.5600,-2.3116 l 14.5600,-0.9092 l 14.5600,-2.4425 l 14.5600,-2.5752 l 14.5600,-0.3479 l 14.5600,-1.9350 l 14.5600,-1.7162 l 14.5600,-3.3625 l 14.5600,-0.3156 l 14.5600,-1.8902 l 14.5600,-1.1531 l 14.5600,-3.0612 l 14.5600,1.0204 l 14.5600,-3.0074 l 14.5600,-1.0419 l 14.5600,-1.3576 l 14.5600,-2.5860 l 14.5600,-0.1632 l 14.5600,-1.9422 l 14.5600,-2.8299 l 14.5600,-2.5125 l 14.5600,-0.2959 "/></g></g><g stroke-linejoin="round" stroke-opacity="1.0" fill-opacity="0.0" stroke="rgb(255,166,0)" stroke-width="3.9999999999999987" fill="rgb(0,0,0)" stroke-linecap="round" stroke-miterlimit="10.0"><defs><clipPath id="myClip19"><path d="M 62.0000,10.0000 v 538.0000 h 728.0000 v -538.0000 Z"/></clipPath></defs><g clip-path="url(#myClip19)"><path d="M 62.0000,368.6667 h 14.5600 l 14.5600,-15.7419 l 14.5600,-1.9458 l 14.5600,-6.5008 l 14.5600,-4.8438 l 14.5600,-4.7272 l 14.5600,-4.2628 l 14.5600,-4.5174 l 14.5600,-5.3226 l 14.5600,-5.8068 l 14.5600,-4.4564 l 14.5600,-4.6985 l 14.5600,-4.0135 l 14.5600,-5.4948 l 14.5600,-5.0949 l 14.5600,-6.3807 l 14.5600,-3.3410 l 14.5600,-5.3190 l 14.5600,-5.3997 l 14.5600,-3.6405 l 14.5600,-5.0626 l 14.5600,-4.9693 l 14.5600,-4.8994 l 14.5600,-4.9388 l 14.5600,-5.7100 l 14.5600,-5.5055 l 14.5600,-5.5575 l 14.5600,-5.4481 l 14.5600,-5.2312 l 14.5600,-4.6967 l 14.5600,-6.1296 l 14.5600,-1.9207 l 14.5600,-7.1877 l 14.5600,-3.8090 l 14.5600,-5.0339 l 14.5600,-3.9686 l 14.5600,-6.3143 l 14.5600,-4.5353 l 14.5600,-5.7136 l 14.5600,-3.7875 l 14.5600,-5.4697 l 14.5600,-5.9054 l 14.5600,-6.2013 l 14.5600,-3.6584 l 14.5600,-4.0278 l 14.5600,-5.3280 l 14.5600,-6.2282 l 14.5600,-4.2681 l 14.5600,-5.1379 l 14.5600,-4.0493 "/></g></g><g stroke-linejoin="round" stroke-opacity="1.0" fill-opacity="0.0" stroke="rgb(5,45,105)" stroke-width="3.9999999999999987" fill="rgb(0,0,0)" stroke-linecap="round" stroke-miterlimit="10.0"><defs><clipPath id="myClip20"><path d="M 62.0000,10.0000 v 538.0000 h 728.0000 v -538.0000 Z"/></clipPath></defs><g clip-path="url(#myClip20)"><path d="M 62.0000,368.6667 h 14.5600 l 14.5600,-8.4071 l 14.5600,-4.9711 l 14.5600,-7.0837 l 14.5600,-6.8721 l 14.5600,-7.6826 l 14.5600,-6.5636 l 14.5600,-7.2307 l 14.5600,-5.7566 l 14.5600,-8.0628 l 14.5600,-7.0855 l 14.5600,-5.4858 l 14.5600,-7.1500 l 14.5600,-6.3627 l 14.5600,-6.2103 l 14.5600,-7.8207 l 14.5600,-6.0399 l 14.5600,-8.6403 l 14.5600,-6.7555 l 14.5600,-4.9299 l 14.5600,-7.9911 l 14.5600,-7.0101 l 14.5600,-4.6340 l 14.5600,-8.6618 l 14.5600,-6.9581 l 14.5600,-6.1565 l 14.5600,-6.4452 l 14.5600,-6.5385 l 14.5600,-6.4470 l 14.5600,-6.8846 l 14.5600,-7.9229 l 14.5600,-4.3237 l 14.5600,-8.0359 l 14.5600,-6.5062 l 14.5600,-6.3036 l 14.5600,-5.7369 l 14.5600,-7.9104 l 14.5600,-5.9718 l 14.5600,-7.1500 l 14.5600,-6.6748 l 14.5600,-7.4639 l 14.5600,-5.7745 l 14.5600,-6.0579 l 14.5600,-7.0550 l 14.5600,-7.6468 l 14.5600,-7.3294 l 14.5600,-6.0202 l 14.5600,-6.8577 l 14.5600,-6.3376 l 14.5600,-5.1935 "/></g></g><g stroke-linejoin="round" stroke-opacity="1.0" fill-opacity="0.0" stroke="rgb(101,50,125)" stroke-width="3.9999999999999987" fill="rgb(0,0,0)" stroke-linecap="round" stroke-miterlimit="10.0"><defs><clipPath id="myClip21"><path d="M 62.0000,10.0000 v 538.0000 h 728.0000 v -538.0000 Z"/></clipPath></defs><g clip-path="url(#myClip21)"><path d="M 62.0000,368.6667 h 14.5600 l 14.5600,-1.3450 l 14.5600,-6.9599 l 14.5600,-7.4890 l 14.5600,-6.8685 l 14.5600,-6.3323 l 14.5600,-7.2612 l 14.5600,-6.6102 l 14.5600,-6.7286 l 14.5600,-7.7562 l 14.5600,-5.8570 l 14.5600,-7.6934 l 14.5600,-7.2146 l 14.5600,-6.5636 l 14.5600,-6.3323 l 14.5600,-6.5403 l 14.5600,-8.3103 l 14.5600,-5.8893 l 14.5600,-5.5306 l 14.5600,-8.2475 l 14.5600,-6.7555 l 14.5600,-8.5076 l 14.5600,-6.0399 l 14.5600,-6.9384 l 14.5600,-7.4800 l 14.5600,-6.7071 l 14.5600,-5.6490 l 14.5600,-7.3473 l 14.5600,-7.3042 l 14.5600,-8.3910 l 14.5600,-6.3789 l 14.5600,-6.9420 l 14.5600,-6.8918 l 14.5600,-6.3914 l 14.5600,-7.5966 l 14.5600,-6.7358 l 14.5600,-7.5266 l 14.5600,-6.0686 l 14.5600,-7.3796 l 14.5600,-7.7239 l 14.5600,-5.5486 l 14.5600,-7.2469 l 14.5600,-5.7961 l 14.5600,-7.5266 l 14.5600,-5.5486 l 14.5600,-7.6073 l 14.5600,-6.5941 l 14.5600,-7.5446 l 14.5600,-6.8434 l 14.5600,-5.5844 "/></g></g><g stroke-linejoin="round" stroke-opacity="1.0" fill-opacity="0.0" stroke="rgb(172,50,122)" stroke-width="3.9999999999999987" fill="rgb(0,0,0)" stroke-linecap="round" stroke-miterlimit="10.0"><defs><clipPath id="myClip22"><path d="M 62.0000,10.0000 v 538.0000 h 728.0000 v -538.0000 Z"/></clipPath></defs><g clip-path="url(#myClip22)"><path d="M 62.0000,368.6667 h 14.5600 l 14.5600,5.4481 l 14.5600,-6.4578 l 14.5600,-6.2049 l 14.5600,-4.9084 l 14.5600,-7.3867 l 14.5600,-6.9779 l 14.5600,-4.9568 l 14.5600,-6.3251 l 14.5600,-5.6813 l 14.5600,-5.1182 l 14.5600,-7.4405 l 14.5600,-5.7602 l 14.5600,-7.7382 l 14.5600,-6.7214 l 14.5600,-6.9797 l 14.5600,-5.8875 l 14.5600,-7.0837 l 14.5600,-6.1296 l 14.5600,-7.0173 l 14.5600,-5.4015 l 14.5600,-5.8212 l 14.5600,-6.4363 l 14.5600,-5.3495 l 14.5600,-5.4481 l 14.5600,-6.3054 l 14.5600,-7.0837 l 14.5600,-5.8983 l 14.5600,-6.2480 l 14.5600,-6.4883 l 14.5600,-6.3358 l 14.5600,-6.0238 l 14.5600,-6.1565 l 14.5600,-6.1099 l 14.5600,-5.5934 l 14.5600,-6.7931 l 14.5600,-4.8169 l 14.5600,-5.6831 l 14.5600,-6.5206 l 14.5600,-6.5546 l 14.5600,-7.7902 l 14.5600,-5.2706 l 14.5600,-7.4065 l 14.5600,-4.8725 l 14.5600,-5.3226 l 14.5600,-6.9581 l 14.5600,-6.9330 l 14.5600,-3.6172 l 14.5600,-6.0489 l 14.5600,-6.8380 "/></g></g><g stroke-linejoin="round" stroke-opacity="1.0" fill-opacity="0.0" stroke="rgb(226,66,100)" stroke-width="3.9999999999999987" fill="rgb(0,0,0)" stroke-linecap="round" stroke-miterlimit="10.0"><defs><clipPath id="myClip23"><path d="M 62.0000,10.0000 v 538.0000 h 728.0000 v -538.0000 Z"/></clipPath></defs><g clip-path="url(#myClip23)"><path d="M 62.0000,368.6667 h 14.5600 l 14.5600,14.0203 l 14.5600,-5.2455 l 14.5600,-3.2782 l 14.5600,-4.3470 l 14.5600,-4.8061 l 14.5600,-3.6064 l 14.5600,-5.9449 l 14.5600,-4.9478 l 14.5600,-4.8904 l 14.5600,-4.9711 l 14.5600,-6.5098 l 14.5600,-5.0446 l 14.5600,-5.0375 l 14.5600,-4.5443 l 14.5600,-5.1630 l 14.5600,-5.4499 l 14.5600,-5.6633 l 14.5600,-5.7584 l 14.5600,-4.3452 l 14.5600,-4.4780 l 14.5600,-6.4721 l 14.5600,-3.3015 l 14.5600,-6.2121 l 14.5600,-4.4546 l 14.5600,-6.2336 l 14.5600,-5.4177 l 14.5600,-3.3499 l 14.5600,-4.8241 l 14.5600,-5.1648 l 14.5600,-5.4248 l 14.5600,-5.7225 l 14.5600,-4.2502 l 14.5600,-5.2616 l 14.5600,-4.9191 l 14.5600,-5.4177 l 14.5600,-4.2645 l 14.5600,-4.8294 l 14.5600,-5.8839 l 14.5600,-3.6674 l 14.5600,-5.4948 l 14.5600,-5.1505 l 14.5600,-4.6914 l 14.5600,-4.9263 l 14.5600,-6.1511 l 14.5600,-4.2161 l 14.5600,-5.4105 l 14.5600,-4.8187 l 14.5600,-3.8575 l 14.5600,-5.4858 "/></g></g><g stroke-linejoin="round" stroke-opacity="1.0" fill-opacity="0.0" stroke="rgb(255,110,64)" stroke-width="3.9999999999999987" fill="rgb(0,0,0)" stroke-linecap="round" stroke-miterlimit="10.0"><defs><clipPath id="myClip24"><path d="M 62.0000,10.0000 v 538.0000 h 728.0000 v -538.0000 Z"/></clipPath></defs><g clip-path="url(#myClip24)"><path d="M 62.0000,368.6667 h 14.5600 l 14.5600,20.0710 l 14.5600,-4.1982 l 14.5600,-2.3887 l 14.5600,-5.0877 l 14.5600,-1.9207 l 14.5600,-2.8030 l 14.5600,-3.8610 l 14.5600,-3.2047 l 14.5600,-3.2226 l 14.5600,-3.9884 l 14.5600,-3.7391 l 14.5600,-3.0558 l 14.5600,-4.4528 l 14.5600,-1.8687 l 14.5600,-4.5479 l 14.5600,-3.4827 l 14.5600,-3.6405 l 14.5600,-2.7635 l 14.5600,-3.4611 l 14.5600,-3.5167 l 14.5600,-4.6645 l 14.5600,-3.8879 l 14.5600,-1.4311 l 14.5600,-3.7086 l 14.5600,-3.9041 l 14.5600,-1.5243 l 14.5600,-3.8628 l 14.5600,-4.2179 l 14.5600,-1.8023 l 14.5600,-2.9375 l 14.5600,-2.8586 l 14.5600,-2.7599 l 14.5600,-2.9070 l 14.5600,-3.3679 l 14.5600,-2.3403 l 14.5600,-3.9005 l 14.5600,-4.3560 l 14.5600,-2.4551 l 14.5600,-4.4618 l 14.5600,-2.3654 l 14.5600,-3.5885 l 14.5600,-3.9202 l 14.5600,-4.2556 l 14.5600,-3.1563 l 14.5600,-2.4784 l 14.5600,-3.7857 l 14.5600,-3.3159 l 14.5600,-3.9920 l 14.5600,-3.2190 "/></g></g><g stroke-linejoin="round" stroke-opacity="1.0" fill-opacity="0.0" stroke="rgb(255,166,0)" stroke-width="3.9999999999999987" fill="rgb(0,0,0)" stroke-linecap="round" stroke-miterlimit="10.0"><defs><clipPath id="myClip25"><path d="M 62.0000,10.0000 v 538.0000 h 728.0000 v -538.0000 Z"/></clipPath></defs><g clip-path="url(#myClip25)"><path d="M 62.0000,368.6667 h 14.5600 l 14.5600,27.2874 l 14.5600,-1.2984 l 14.5600,-0.5667 l 14.5600,-2.0587 l 14.5600,-1.5674 l 14.5600,-3.1365 l 14.5600,-1.1208 l 14.5600,-1.8471 l 14.5600,-2.3116 l 14.5600,-0.9971 l 14.5600,0.0484 l 14.5600,-1.5297 l 14.5600,-1.7216 l 14.5600,-0.6313 l 14.5600,-2.4067 l 14.5600,-1.9278 l 14.5600,-1.0957 l 14.5600,-2.5573 l 14.5600,-3.1114 l 14.5600,0.8500 l 14.5600,-2.1233 l 14.5600,-2.1197 l 14.5600,-1.5387 l 14.5600,-2.0964 l 14.5600,-1.6158 l 14.5600,-0.4412 l 14.5600,-1.3199 l 14.5600,-1.6355 l 14.5600,-1.1764 l 14.5600,-1.4813 l 14.5600,-1.3737 l 14.5600,-0.6617 l 14.5600,-2.2991 l 14.5600,-1.9009 l 14.5600,-1.2177 l 14.5600,-3.1096 l 14.5600,-1.4831 l 14.5600,-2.3798 l 14.5600,-0.8841 l 14.5600,-0.7909 l 14.5600,-2.0695 l 14.5600,-0.6510 l 14.5600,-3.1383 l 14.5600,-1.0222 l 14.5600,-1.9996 l 14.5600,-1.9063 l 14.5600,-2.0247 l 14.5600,-1.7306 l 14.5600,-2.0964 "/></g></g><g stroke-linejoin="round" stroke-opacity="1.0" fill-opacity="0.0" stroke="rgb(5,45,105)" stroke-width="3.9999999999999987" fill="rgb(0,0,0)" stroke-linecap="round" stroke-miterlimit="10.0"><defs><clipPath id="myClip26"><path d="M 62.0000,10.0000 v 538.0000 h 728.0000 v -538.0000 Z"/></clipPath></defs><g clip-path="url(#myClip26)"><path d="M 62.0000,368.6667 h 14.5600 l 14.5600,33.7864 l 14.5600,-0.9415 l 14.5600,-0.7120 l 14.5600,0.5900 l 14.5600,0.8303 l 14.5600,-0.5792 l 14.5600,2.1215 l 14.5600,-1.4813 l 14.5600,-0.0897 l 14.5600,-0.1991 l 14.5600,-0.5990 l 14.5600,0.3138 l 14.5600,-0.5344 l 14.5600,0.9325 l 14.5600,-1.4096 l 14.5600,0.1381 l 14.5600,-0.2816 l 14.5600,-0.0305 l 14.5600,0.7586 l 14.5600,0.2009 l 14.5600,0.2726 l 14.5600,-1.0706 l 14.5600,0.7406 l 14.5600,-0.0395 l 14.5600,-0.4340 l 14.5600,1.7575 l 14.5600,1.0760 l 14.5600,-0.5147 l 14.5600,-0.7066 l 14.5600,0.0574 l 14.5600,-1.6517 l 14.5600,0.0735 l 14.5600,-1.8310 l 14.5600,0.9702 l 14.5600,-0.2260 l 14.5600,0.6026 l 14.5600,0.3497 l 14.5600,-0.1973 l 14.5600,-0.4178 l 14.5600,1.8131 l 14.5600,0.5201 l 14.5600,-0.9397 l 14.5600,-0.0502 l 14.5600,-0.7765 l 14.5600,0.7496 l 14.5600,-0.6151 l 14.5600,0.5739 l 14.5600,0.5667 l 14.5600,-2.1592 "/></g></g><g stroke-linejoin="round" stroke-opacity="1.0" fill-opacity="0.0" stroke="rgb(101,50,125)" stroke-width="3.9999999999999987" fill="rgb(0,0,0)" stroke-linecap="round" stroke-miterlimit="10.0"><defs><clipPath id="myClip27"><path d="M 62.0000,10.0000 v 538.0000 h 728.0000 v -538.0000 Z"/></clipPath></defs><g clip-path="url(#myClip27)"><path d="M 62.0000,368.6667 h 14.5600 l 14.5600,40.3572 l 14.5600,2.3134 l 14.5600,1.8131 l 14.5600,-0.0412 l 14.5600,2.2973 l 14.5600,2.3654 l 14.5600,1.1657 l 14.5600,1.5010 l 14.5600,1.0760 l 14.5600,1.2338 l 14.5600,3.3679 l 14.5600,2.7330 l 14.5600,-0.1058 l 14.5600,3.1706 l 14.5600,1.3845 l 14.5600,1.5674 l 14.5600,2.4927 l 14.5600,1.8830 l 14.5600,3.6118 l 14.5600,0.7944 l 14.5600,2.5268 l 14.5600,0.5380 l 14.5600,2.2614 l 14.5600,1.8758 l 14.5600,1.5064 l 14.5600,2.3869 l 14.5600,0.6438 l 14.5600,0.5757 l 14.5600,3.1563 l 14.5600,1.8866 l 14.5600,2.1843 l 14.5600,2.4120 l 14.5600,1.5871 l 14.5600,1.5799 l 14.5600,3.0307 l 14.5600,2.0605 l 14.5600,2.0605 l 14.5600,1.8238 l 14.5600,1.3593 l 14.5600,1.9189 l 14.5600,1.7234 l 14.5600,2.4766 l 14.5600,0.2313 l 14.5600,1.8722 l 14.5600,2.3080 l 14.5600,2.0318 l 14.5600,2.0229 l 14.5600,1.9942 l 14.5600,2.1502 "/></g></g><g stroke-linejoin="bevel" stroke-opacity="0.0" fill-opacity="1.0" stroke="rgb(0,0,0)" stroke-width="0.0" fill="rgb(0,0,0)" stroke-linecap="butt" stroke-miterlimit="10.0"><path d="M 42.0000,397.6723 ZM 33.8655,396.1261 c -2.0504,0.0000 -3.6471,-0.6387 -3.6471 -0.6387c -1.5966,-0.6387 -2.7059,-1.7143 -2.7059 -1.7143c -1.1092,-1.0756 -1.6807,-2.5042 -1.6807 -2.5042c -0.5714,-1.4286 -0.5714,-3.0084 -0.5714 -3.0084c -0.0000,-1.6134 0.5882,-2.7731 0.5882 -2.7731c 0.5882,-1.1597 1.3613,-2.0000 1.3613 -2.0000l 1.7815,1.3782 c -0.6387,0.7395 -1.0420,1.5294 -1.0420 1.5294c -0.4034,0.7899 -0.4034,1.7647 -0.4034 1.7647c 0.0000,1.1092 0.4538,2.0504 0.4538 2.0504c 0.4538,0.9412 1.2941,1.6134 1.2941 1.6134c 0.8403,0.6723 2.0000,1.0588 2.0000 1.0588c 1.1597,0.3866 2.5714,0.3866 2.5714 0.3866c 1.4118,-0.0000 2.5546,-0.3697 2.5546 -0.3697c 1.1429,-0.3697 1.9664,-1.0252 1.9664 -1.0252c 0.8235,-0.6555 1.2773,-1.5966 1.2773 -1.5966c 0.4538,-0.9412 0.4538,-2.0504 0.4538 -2.0504c -0.0000,-1.1765 -0.4874,-2.1345 -0.4874 -2.1345c -0.4874,-0.9580 -1.1597,-1.6975 -1.1597 -1.6975l 1.8151,-1.2437 c 0.9748,1.1092 1.5462,2.4706 1.5462 2.4706c 0.5714,1.3613 0.5714,2.8403 0.5714 2.8403c 0.0000,1.6134 -0.5714,3.0252 -0.5714 3.0252c -0.5714,1.4118 -1.6639,2.4370 -1.6639 2.4370c -1.0924,1.0252 -2.6891,1.6134 -2.6891 1.6134c -1.5966,0.5882 -3.6134,0.5882 -3.6134 0.5882ZM 42.0000,382.3445 ZM 25.6639,379.8235 l -0.0000,-2.7899 l 9.9832,-0.0000 c 2.3193,-0.0000 3.3445,-0.7227 3.3445 -0.7227c 1.0252,-0.7227 1.0252,-2.3361 1.0252 -2.3361c -0.0000,-1.2773 -0.6555,-2.2521 -0.6555 -2.2521c -0.6555,-0.9748 -2.1008,-2.1513 -2.1008 -2.1513l -11.5966,0.0000 l -0.0000,-2.7563 l 16.3361,-0.0000 l 0.0000,2.2857 l -2.5546,0.2353 l 0.0000,0.1008 c 1.3445,1.1429 2.1513,2.4034 2.1513 2.4034c 0.8067,1.2605 0.8067,2.9748 0.8067 2.9748c 0.0000,2.6218 -1.6134,3.8151 -1.6134 3.8151c -1.6134,1.1933 -4.7731,1.1933 -4.7731 1.1933l -10.3529,0.0000 ZM 42.0000,364.0588 ZM 25.6639,361.3025 l -0.0000,-2.2857 l 2.3529,-0.2353 l -0.0000,-0.1008 c -1.1765,-1.0756 -1.9664,-2.3361 -1.9664 -2.3361c -0.7899,-1.2605 -0.7899,-2.7395 -0.7899 -2.7395c -0.0000,-1.8824 0.8235,-2.9412 0.8235 -2.9412c 0.8235,-1.0588 2.3025,-1.5630 2.3025 -1.5630c -1.4118,-1.2773 -2.2689,-2.5714 -2.2689 -2.5714c -0.8571,-1.2941 -0.8571,-2.8067 -0.8571 -2.8067c -0.0000,-2.5210 1.6134,-3.7479 1.6134 -3.7479c 1.6134,-1.2269 4.7731,-1.2269 4.7731 -1.2269l 10.3529,-0.0000 l 0.0000,2.7563 l -9.9832,0.0000 c -2.3193,0.0000 -3.3445,0.7395 -3.3445 0.7395c -1.0252,0.7395 -1.0252,2.2857 -1.0252 2.2857c 0.0000,1.8487 2.5210,4.1008 2.5210 4.1008l 11.8319,-0.0000 l 0.0000,2.7563 l -9.9832,0.0000 c -2.3193,0.0000 -3.3445,0.7395 -3.3445 0.7395c -1.0252,0.7395 -1.0252,2.3193 -1.0252 2.3193c 0.0000,1.8487 2.5210,4.1008 2.5210 4.1008l 11.8319,-0.0000 l 0.0000,2.7563 l -16.3361,0.0000 ZM 42.0000,336.1933 ZM 25.6639,333.6723 l -0.0000,-2.7899 l 9.9832,-0.0000 c 2.3193,-0.0000 3.3445,-0.7227 3.3445 -0.7227c 1.0252,-0.7227 1.0252,-2.3361 1.0252 -2.3361c -0.0000,-1.2773 -0.6555,-2.2521 -0.6555 -2.2521c -0.6555,-0.9748 -2.1008,-2.1513 -2.1008 -2.1513l -11.5966,0.0000 l -0.0000,-2.7563 l 16.3361,-0.0000 l 0.0000,2.2857 l -2.5546,0.2353 l 0.0000,0.1008 c 1.3445,1.1429 2.1513,2.4034 2.1513 2.4034c 0.8067,1.2605 0.8067,2.9748 0.8067 2.9748c 0.0000,2.6218 -1.6134,3.8151 -1.6134 3.8151c -1.6134,1.1933 -4.7731,1.1933 -4.7731 1.1933l -10.3529,0.0000 ZM 42.0000,317.9076 ZM 18.0672,315.1513 l -0.0000,-2.7563 l 20.8403,-0.0000 c 0.6723,-0.0000 0.9412,-0.2353 0.9412 -0.2353c 0.2689,-0.2353 0.2689,-0.5378 0.2689 -0.5378l -0.0000,-0.2521 c 0.0000,0.0000 -0.0672,-0.3529 -0.0672 -0.3529l 2.0840,-0.3697 c 0.1345,0.2689 0.2017,0.6387 0.2017 0.6387c 0.0672,0.3697 0.0672,0.9412 0.0672 0.9412c 0.0000,1.5798 -0.9412,2.2521 -0.9412 2.2521c -0.9412,0.6723 -2.7563,0.6723 -2.7563 0.6723l -20.6387,0.0000 ZM 42.0000,309.3361 ZM 37.7647,307.3866 c -2.6891,0.0000 -4.1176,-2.4034 -4.1176 -2.4034c -1.4286,-2.4034 -2.0000,-7.6471 -2.0000 -7.6471c -0.7731,0.0000 -1.5126,0.1513 -1.5126 0.1513c -0.7395,0.1513 -1.3109,0.5378 -1.3109 0.5378c -0.5714,0.3866 -0.9244,1.0252 -0.9244 1.0252c -0.3529,0.6387 -0.3529,1.6471 -0.3529 1.6471c 0.0000,1.4454 0.5378,2.6723 0.5378 2.6723c 0.5378,1.2269 1.2101,2.2017 1.2101 2.2017l -1.9160,1.1092 c -0.7395,-1.1429 -1.4286,-2.7899 -1.4286 -2.7899c -0.6891,-1.6471 -0.6891,-3.6303 -0.6891 -3.6303c -0.0000,-2.9916 1.8319,-4.3361 1.8319 -4.3361c 1.8319,-1.3445 4.8908,-1.3445 4.8908 -1.3445l 10.0168,-0.0000 l 0.0000,2.2857 l -1.9496,0.2353 l 0.0000,0.0672 c 0.9748,1.1765 1.6639,2.5378 1.6639 2.5378c 0.6891,1.3613 0.6891,2.8739 0.6891 2.8739c 0.0000,2.0840 -1.2101,3.4454 -1.2101 3.4454c -1.2101,1.3613 -3.4286,1.3613 -3.4286 1.3613ZM 37.7647,307.3866 ZM 37.5630,304.6639 c 1.4118,-0.0000 2.0168,-0.8235 2.0168 -0.8235c 0.6050,-0.8235 0.6050,-2.0336 0.6050 -2.0336c -0.0000,-1.1765 -0.5546,-2.2353 -0.5546 -2.2353c -0.5546,-1.0588 -1.6303,-2.2353 -1.6303 -2.2353l -4.5378,0.0000 c 0.2689,2.0504 0.6387,3.4622 0.6387 3.4622c 0.3697,1.4118 0.8739,2.2689 0.8739 2.2689c 0.5042,0.8571 1.1597,1.2269 1.1597 1.2269c 0.6555,0.3697 1.4286,0.3697 1.4286 0.3697ZM 42.0000,292.1261 ZM 27.9160,288.8992 l 0.0000,2.4202 l -2.0840,0.0000 l -0.1681,-2.5546 l -4.5714,-0.3361 l -0.0000,-2.3193 l 4.5714,-0.0000 l -0.0000,-4.4034 l 2.2521,-0.0000 l 0.0000,4.4034 l 9.0756,-0.0000 c 1.5126,-0.0000 2.3361,-0.5546 2.3361 -0.5546c 0.8235,-0.5546 0.8235,-1.9664 0.8235 -1.9664c -0.0000,-0.4370 -0.1345,-0.9412 -0.1345 -0.9412c -0.1345,-0.5042 -0.3025,-0.9076 -0.3025 -0.9076l 2.0840,-0.5378 c 0.2353,0.6723 0.4202,1.4622 0.4202 1.4622c 0.1849,0.7899 0.1849,1.5630 0.1849 1.5630c 0.0000,1.3109 -0.4034,2.2017 -0.4034 2.2017c -0.4034,0.8908 -1.1092,1.4454 -1.1092 1.4454c -0.7059,0.5546 -1.7143,0.7899 -1.7143 0.7899c -1.0084,0.2353 -2.2185,0.2353 -2.2185 0.2353l -9.0420,0.0000 ZM 42.0000,280.7647 ZM 22.3025,276.5966 c 0.0000,0.8067 -0.5042,1.3613 -0.5042 1.3613c -0.5042,0.5546 -1.2773,0.5546 -1.2773 0.5546c -0.8067,0.0000 -1.2941,-0.5546 -1.2941 -0.5546c -0.4874,-0.5546 -0.4874,-1.3613 -0.4874 -1.3613c -0.0000,-0.8067 0.4874,-1.3613 0.4874 -1.3613c 0.4874,-0.5546 1.2941,-0.5546 1.2941 -0.5546c 0.7731,-0.0000 1.2773,0.5546 1.2773 0.5546c 0.5042,0.5546 0.5042,1.3613 0.5042 1.3613ZM 22.3025,276.5966 ZM 25.6639,278.0084 l -0.0000,-2.7563 l 16.3361,-0.0000 l 0.0000,2.7563 l -16.3361,0.0000 ZM 42.0000,272.4958 ZM 25.6639,272.0924 l -0.0000,-2.8571 l 9.2773,-3.0924 c 1.2101,-0.3697 2.4202,-0.7563 2.4202 -0.7563c 1.2101,-0.3866 2.3866,-0.7563 2.3866 -0.7563l -0.0000,-0.1345 c -1.1765,-0.3697 -2.3866,-0.7395 -2.3866 -0.7395l -2.4202,-0.7395 l -9.2773,-3.0924 l -0.0000,-2.7227 l 16.3361,5.7815 l 0.0000,3.2269 ZM 42.0000,256.9328 ZM 33.8655,255.3866 c -2.0168,0.0000 -3.6134,-0.6218 -3.6134 -0.6218c -1.5966,-0.6218 -2.7059,-1.6471 -2.7059 -1.6471c -1.1092,-1.0252 -1.6975,-2.3361 -1.6975 -2.3361c -0.5882,-1.3109 -0.5882,-2.7227 -0.5882 -2.7227c -0.0000,-1.5462 0.5378,-2.7731 0.5378 -2.7731c 0.5378,-1.2269 1.5462,-2.0504 1.5462 -2.0504c 1.0084,-0.8235 2.4202,-1.2605 2.4202 -1.2605c 1.4118,-0.4370 3.1597,-0.4370 3.1597 -0.4370c 0.9076,-0.0000 1.5126,0.1008 1.5126 0.1008l 0.0000,11.0252 c 2.6555,-0.1681 4.2017,-1.6303 4.2017 -1.6303c 1.5462,-1.4622 1.5462,-3.8151 1.5462 -3.8151c -0.0000,-1.1765 -0.3529,-2.1681 -0.3529 -2.1681c -0.3529,-0.9916 -0.9244,-1.8992 -0.9244 -1.8992l 1.8151,-0.9748 c 0.6723,1.0756 1.1765,2.3866 1.1765 2.3866c 0.5042,1.3109 0.5042,2.9916 0.5042 2.9916c 0.0000,1.6471 -0.5882,3.0756 -0.5882 3.0756c -0.5882,1.4286 -1.6807,2.4874 -1.6807 2.4874c -1.0924,1.0588 -2.6723,1.6639 -2.6723 1.6639c -1.5798,0.6050 -3.5966,0.6050 -3.5966 0.6050ZM 33.8655,255.3866 ZM 32.6218,243.9580 c -2.5210,0.0000 -3.8487,1.0588 -3.8487 1.0588c -1.3277,1.0588 -1.3277,2.9748 -1.3277 2.9748c 0.0000,0.8739 0.3529,1.6639 0.3529 1.6639c 0.3529,0.7899 1.0084,1.4286 1.0084 1.4286c 0.6555,0.6387 1.6134,1.0588 1.6134 1.0588c 0.9580,0.4202 2.2017,0.5546 2.2017 0.5546l -0.0000,-8.7395 ZM 42.0000,233.4706 ZM 25.6639,230.7143 l -0.0000,-2.2857 l 2.9580,-0.2353 l -0.0000,-0.1008 c -1.5462,-0.8403 -2.4538,-2.0336 -2.4538 -2.0336c -0.9076,-1.1933 -0.9076,-2.6050 -0.9076 -2.6050c -0.0000,-0.9748 0.3361,-1.7479 0.3361 -1.7479l 2.4202,0.5378 c -0.1345,0.4034 -0.2017,0.7395 -0.2017 0.7395c -0.0672,0.3361 -0.0672,0.8403 -0.0672 0.8403c 0.0000,1.0420 0.8403,2.1681 0.8403 2.1681c 0.8403,1.1261 2.9244,1.9664 2.9244 1.9664l 10.4874,-0.0000 l 0.0000,2.7563 l -16.3361,0.0000 ZM 42.0000,222.1429 ZM 33.8655,220.5966 c -2.0168,0.0000 -3.6134,-0.6218 -3.6134 -0.6218c -1.5966,-0.6218 -2.7059,-1.6471 -2.7059 -1.6471c -1.1092,-1.0252 -1.6975,-2.3361 -1.6975 -2.3361c -0.5882,-1.3109 -0.5882,-2.7227 -0.5882 -2.7227c -0.0000,-1.5462 0.5378,-2.7731 0.5378 -2.7731c 0.5378,-1.2269 1.5462,-2.0504 1.5462 -2.0504c 1.0084,-0.8235 2.4202,-1.2605 2.4202 -1.2605c 1.4118,-0.4370 3.1597,-0.4370 3.1597 -0.4370c 0.9076,-0.0000 1.5126,0.1008 1.5126 0.1008l 0.0000,11.0252 c 2.6555,-0.1681 4.2017,-1.6303 4.2017 -1.6303c 1.5462,-1.4622 1.5462,-3.8151 1.5462 -3.8151c -0.0000,-1.1765 -0.3529,-2.1681 -0.3529 -2.1681c -0.3529,-0.9916 -0.9244,-1.8992 -0.9244 -1.8992l 1.8151,-0.9748 c 0.6723,1.0756 1.1765,2.3866 1.1765 2.3866c 0.5042,1.3109 0.5042,2.9916 0.5042 2.9916c 0.0000,1.6471 -0.5882,3.0756 -0.5882 3.0756c -0.5882,1.4286 -1.6807,2.4874 -1.6807 2.4874c -1.0924,1.0588 -2.6723,1.6639 -2.6723 1.6639c -1.5798,0.6050 -3.5966,0.6050 -3.5966 0.6050ZM 33.8655,220.5966 ZM 32.6218,209.1681 c -2.5210,0.0000 -3.8487,1.0588 -3.8487 1.0588c -1.3277,1.0588 -1.3277,2.9748 -1.3277 2.9748c 0.0000,0.8739 0.3529,1.6639 0.3529 1.6639c 0.3529,0.7899 1.0084,1.4286 1.0084 1.4286c 0.6555,0.6387 1.6134,1.0588 1.6134 1.0588c 0.9580,0.4202 2.2017,0.5546 2.2017 0.5546l -0.0000,-8.7395 ZM 42.0000,205.3025 ZM 25.6639,204.4958 l -0.0000,-2.8235 l 9.4454,-2.4202 c 1.1765,-0.2689 2.2857,-0.5042 2.2857 -0.5042c 1.1092,-0.2353 2.2521,-0.4706 2.2521 -0.4706l -0.0000,-0.1345 c -1.1429,-0.2689 -2.2689,-0.5378 -2.2689 -0.5378c -1.1261,-0.2689 -2.2689,-0.5714 -2.2689 -0.5714l -9.4454,-2.5210 l -0.0000,-2.6891 l 9.4454,-2.5546 c 1.1765,-0.3025 2.2857,-0.5882 2.2857 -0.5882c 1.1092,-0.2857 2.2521,-0.5546 2.2521 -0.5546l -0.0000,-0.1345 c -1.1429,-0.2689 -2.2521,-0.5042 -2.2521 -0.5042c -1.1092,-0.2353 -2.2857,-0.5042 -2.2857 -0.5042l -9.4454,-2.3866 l -0.0000,-2.6218 l 16.3361,4.3697 l 0.0000,3.3613 l -8.7731,2.3529 c -1.1765,0.3025 -2.3193,0.5546 -2.3193 0.5546c -1.1429,0.2521 -2.3866,0.5546 -2.3866 0.5546l 0.0000,0.1345 c 1.2437,0.2689 2.4034,0.5378 2.4034 0.5378c 1.1597,0.2689 2.3361,0.6050 2.3361 0.6050l 8.7395,2.2857 l 0.0000,3.2269 ZM 42.0000,181.5042 ZM 37.7647,179.5546 c -2.6891,0.0000 -4.1176,-2.4034 -4.1176 -2.4034c -1.4286,-2.4034 -2.0000,-7.6471 -2.0000 -7.6471c -0.7731,0.0000 -1.5126,0.1513 -1.5126 0.1513c -0.7395,0.1513 -1.3109,0.5378 -1.3109 0.5378c -0.5714,0.3866 -0.9244,1.0252 -0.9244 1.0252c -0.3529,0.6387 -0.3529,1.6471 -0.3529 1.6471c 0.0000,1.4454 0.5378,2.6723 0.5378 2.6723c 0.5378,1.2269 1.2101,2.2017 1.2101 2.2017l -1.9160,1.1092 c -0.7395,-1.1429 -1.4286,-2.7899 -1.4286 -2.7899c -0.6891,-1.6471 -0.6891,-3.6303 -0.6891 -3.6303c -0.0000,-2.9916 1.8319,-4.3361 1.8319 -4.3361c 1.8319,-1.3445 4.8908,-1.3445 4.8908 -1.3445l 10.0168,-0.0000 l 0.0000,2.2857 l -1.9496,0.2353 l 0.0000,0.0672 c 0.9748,1.1765 1.6639,2.5378 1.6639 2.5378c 0.6891,1.3613 0.6891,2.8739 0.6891 2.8739c 0.0000,2.0840 -1.2101,3.4454 -1.2101 3.4454c -1.2101,1.3613 -3.4286,1.3613 -3.4286 1.3613ZM 37.7647,179.5546 ZM 37.5630,176.8319 c 1.4118,-0.0000 2.0168,-0.8235 2.0168 -0.8235c 0.6050,-0.8235 0.6050,-2.0336 0.6050 -2.0336c -0.0000,-1.1765 -0.5546,-2.2353 -0.5546 -2.2353c -0.5546,-1.0588 -1.6303,-2.2353 -1.6303 -2.2353l -4.5378,0.0000 c 0.2689,2.0504 0.6387,3.4622 0.6387 3.4622c 0.3697,1.4118 0.8739,2.2689 0.8739 2.2689c 0.5042,0.8571 1.1597,1.2269 1.1597 1.2269c 0.6555,0.3697 1.4286,0.3697 1.4286 0.3697ZM 42.0000,164.2941 ZM 25.6639,161.5378 l -0.0000,-2.2857 l 2.9580,-0.2353 l -0.0000,-0.1008 c -1.5462,-0.8403 -2.4538,-2.0336 -2.4538 -2.0336c -0.9076,-1.1933 -0.9076,-2.6050 -0.9076 -2.6050c -0.0000,-0.9748 0.3361,-1.7479 0.3361 -1.7479l 2.4202,0.5378 c -0.1345,0.4034 -0.2017,0.7395 -0.2017 0.7395c -0.0672,0.3361 -0.0672,0.8403 -0.0672 0.8403c 0.0000,1.0420 0.8403,2.1681 0.8403 2.1681c 0.8403,1.1261 2.9244,1.9664 2.9244 1.9664l 10.4874,-0.0000 l 0.0000,2.7563 l -16.3361,0.0000 ZM 42.0000,152.9664 ZM 33.8655,151.3866 c -1.9832,0.0000 -3.5798,-0.5882 -3.5798 -0.5882c -1.5966,-0.5882 -2.7059,-1.5630 -2.7059 -1.5630c -1.1092,-0.9748 -1.7143,-2.2521 -1.7143 -2.2521c -0.6050,-1.2773 -0.6050,-2.6891 -0.6050 -2.6891c -0.0000,-1.4118 0.5042,-2.4538 0.5042 -2.4538c 0.5042,-1.0420 1.3782,-2.1176 1.3782 -2.1176l -2.7899,0.1345 l -6.2857,0.0000 l -0.0000,-2.7899 l 23.9328,-0.0000 l 0.0000,2.2857 l -1.9160,0.2353 l 0.0000,0.1008 c 0.9412,0.9748 1.6303,2.2353 1.6303 2.2353c 0.6891,1.2605 0.6891,2.7059 0.6891 2.7059c 0.0000,3.0924 -2.2185,4.9244 -2.2185 4.9244c -2.2185,1.8319 -6.3193,1.8319 -6.3193 1.8319ZM 33.8655,151.3866 ZM 33.8319,148.5294 c 2.9580,-0.0000 4.6050,-1.1765 4.6050 -1.1765c 1.6471,-1.1765 1.6471,-3.3277 1.6471 -3.3277c -0.0000,-1.1429 -0.5546,-2.1513 -0.5546 -2.1513c -0.5546,-1.0084 -1.6975,-2.0168 -1.6975 -2.0168l -8.5378,0.0000 c -0.9412,1.0420 -1.3277,2.0000 -1.3277 2.0000c -0.3866,0.9580 -0.3866,1.9664 -0.3866 1.9664c 0.0000,0.9748 0.4538,1.8319 0.4538 1.8319c 0.4538,0.8571 1.2773,1.4958 1.2773 1.4958c 0.8235,0.6387 1.9664,1.0084 1.9664 1.0084c 1.1429,0.3697 2.5546,0.3697 2.5546 0.3697Z"/></g><g stroke-linejoin="miter" stroke-opacity="1.0" fill-opacity="0.0" stroke="rgb(0,0,0)" stroke-width="3.9999999999999987" fill="rgb(0,0,0)" stroke-linecap="square" stroke-miterlimit="10.0"><path d="M 62.0000,548.0000 v -538.0000 "/></g><g stroke-linejoin="miter" stroke-opacity="1.0" fill-opacity="0.0" stroke="rgb(0,0,0)" stroke-width="0.0" fill="rgb(0,0,0)" stroke-linecap="square" stroke-miterlimit="10.0"><path d="M 62.0000,548.0000 h 728.0000 "/></g><g stroke-linejoin="bevel" stroke-opacity="0.0" fill-opacity="1.0" stroke="rgb(0,0,0)" stroke-width="0.0" fill="rgb(0,0,0)" stroke-linecap="butt" stroke-miterlimit="10.0"><path d="M 389.7647,579.1429 ZM 391.3445,571.0084 c 0.0000,-1.9832 0.5882,-3.5798 0.5882 -3.5798c 0.5882,-1.5966 1.5630,-2.7059 1.5630 -2.7059c 0.9748,-1.1092 2.2521,-1.7143 2.2521 -1.7143c 1.2773,-0.6050 2.6891,-0.6050 2.6891 -0.6050c 1.4118,0.0000 2.4538,0.5042 2.4538 0.5042c 1.0420,0.5042 2.1176,1.3782 2.1176 1.3782l -0.1345,-2.7899 v -6.2857 h 2.7899 v 23.9328 h -2.2857 l -0.2353,-1.9160 h -0.1008 c -0.9748,0.9412 -2.2353,1.6303 -2.2353 1.6303c -1.2605,0.6891 -2.7059,0.6891 -2.7059 0.6891c -3.0924,-0.0000 -4.9244,-2.2185 -4.9244 -2.2185c -1.8319,-2.2185 -1.8319,-6.3193 -1.8319 -6.3193ZM 391.3445,571.0084 ZM 394.2017,570.9748 c 0.0000,2.9580 1.1765,4.6050 1.1765 4.6050c 1.1765,1.6471 3.3277,1.6471 3.3277 1.6471c 1.1429,0.0000 2.1513,-0.5546 2.1513 -0.5546c 1.0084,-0.5546 2.0168,-1.6975 2.0168 -1.6975v -8.5378 c -1.0420,-0.9412 -2.0000,-1.3277 -2.0000 -1.3277c -0.9580,-0.3866 -1.9664,-0.3866 -1.9664 -0.3866c -0.9748,-0.0000 -1.8319,0.4538 -1.8319 0.4538c -0.8571,0.4538 -1.4958,1.2773 -1.4958 1.2773c -0.6387,0.8235 -1.0084,1.9664 -1.0084 1.9664c -0.3697,1.1429 -0.3697,2.5546 -0.3697 2.5546ZM 408.4202,579.1429 ZM 410.3697,574.9076 c 0.0000,-2.6891 2.4034,-4.1176 2.4034 -4.1176c 2.4034,-1.4286 7.6471,-2.0000 7.6471 -2.0000c 0.0000,-0.7731 -0.1513,-1.5126 -0.1513 -1.5126c -0.1513,-0.7395 -0.5378,-1.3109 -0.5378 -1.3109c -0.3866,-0.5714 -1.0252,-0.9244 -1.0252 -0.9244c -0.6387,-0.3529 -1.6471,-0.3529 -1.6471 -0.3529c -1.4454,-0.0000 -2.6723,0.5378 -2.6723 0.5378c -1.2269,0.5378 -2.2017,1.2101 -2.2017 1.2101l -1.1092,-1.9160 c 1.1429,-0.7395 2.7899,-1.4286 2.7899 -1.4286c 1.6471,-0.6891 3.6303,-0.6891 3.6303 -0.6891c 2.9916,0.0000 4.3361,1.8319 4.3361 1.8319c 1.3445,1.8319 1.3445,4.8908 1.3445 4.8908v 10.0168 h -2.2857 l -0.2353,-1.9496 h -0.0672 c -1.1765,0.9748 -2.5378,1.6639 -2.5378 1.6639c -1.3613,0.6891 -2.8739,0.6891 -2.8739 0.6891c -2.0840,-0.0000 -3.4454,-1.2101 -3.4454 -1.2101c -1.3613,-1.2101 -1.3613,-3.4286 -1.3613 -3.4286ZM 410.3697,574.9076 ZM 413.0924,574.7059 c 0.0000,1.4118 0.8235,2.0168 0.8235 2.0168c 0.8235,0.6050 2.0336,0.6050 2.0336 0.6050c 1.1765,0.0000 2.2353,-0.5546 2.2353 -0.5546c 1.0588,-0.5546 2.2353,-1.6303 2.2353 -1.6303v -4.5378 c -2.0504,0.2689 -3.4622,0.6387 -3.4622 0.6387c -1.4118,0.3697 -2.2689,0.8739 -2.2689 0.8739c -0.8571,0.5042 -1.2269,1.1597 -1.2269 1.1597c -0.3697,0.6555 -0.3697,1.4286 -0.3697 1.4286ZM 425.6303,579.1429 ZM 427.2773,583.6471 l 0.6050,0.1513 c 0.0000,0.0000 0.6387,0.0840 0.6387 0.0840c 1.4118,0.0000 2.3025,-0.9916 2.3025 -0.9916c 0.8908,-0.9916 1.3950,-2.5042 1.3950 -2.5042l 0.3697,-1.2101 l -6.5546,-16.3697 h 2.8571 l 3.3277,9.0420 c 0.3697,1.0756 0.7899,2.2689 0.7899 2.2689c 0.4202,1.1933 0.7899,2.3361 0.7899 2.3361h 0.1345 c 0.3697,-1.1092 0.7059,-2.3193 0.7059 -2.3193c 0.3361,-1.2101 0.6723,-2.2857 0.6723 -2.2857l 2.9244,-9.0420 h 2.6891 l -6.1513,17.6807 c -0.4370,1.2101 -0.9748,2.2521 -0.9748 2.2521c -0.5378,1.0420 -1.2773,1.7983 -1.2773 1.7983c -0.7395,0.7563 -1.6807,1.1933 -1.6807 1.1933c -0.9412,0.4370 -2.1849,0.4370 -2.1849 0.4370c -0.5714,-0.0000 -1.0420,-0.0840 -1.0420 -0.0840c -0.4706,-0.0840 -0.8739,-0.2521 -0.8739 -0.2521l 0.5378,-2.1849 h 0.0000 ZM 448.1176,579.1429 ZM 451.9832,572.2857 h -2.6891 v -1.9160 h 2.9244 l 0.6050,-4.9748 h -2.8571 v -1.9496 h 3.0924 l 0.7731,-6.1513 h 1.7815 l -0.7731,6.1513 h 4.4706 l 0.8067,-6.1513 h 1.7815 l -0.8067,6.1513 h 2.7227 v 1.9496 h -2.9244 l -0.6050,4.9748 h 2.8571 v 1.9160 h -3.0924 l -0.8403,6.8571 h -1.7815 l 0.8067,-6.8571 h -4.4370 l -0.8403,6.8571 h -1.8151 ZM 451.9832,572.2857 ZM 458.4706,570.3697 l 0.6050,-4.9748 h -4.4370 l -0.6050,4.9748 h 4.4370 Z"/></g></svg>