<?xml version="1.0" encoding="UTF-8"?>
<!DOCTYPE svg PUBLIC "-//W3C//DTD SVG 1.1//EN"
    "http://www.w3.org/Graphics/SVG/1.1/DTD/svg11.dtd"><svg xmlns="http://www.w3.org/2000/svg" height="600.0000" stroke-opacity="1" viewBox="0.0 0.0 800.0 600.0" font-size="1" width="800.0000" xmlns:xlink="http://www.w3.org/1999/xlink" stroke="rgb(0,0,0)" version="1.1"><defs></defs><g stroke-linejoin="bevel" stroke-opacity="0.0" fill-opacity="0.0" stroke="rgb(0,0,0)" stroke-width="0.0" fill="rgb(0,0,0)" stroke-linecap="butt" stroke-miterlimit="10.0"><path d="M 0.0000,0.0000 v 600.0000 h 800.0000 v -600.0000 Z"/></g><g stroke-linejoin="round" stroke-opacity="1.0" fill-opacity="0.0" stroke="rgb(5,45,105)" stroke-width="3.9999999999999987" fill="rgb(0,0,0)" stroke-linecap="round" stroke-miterlimit="10.0"><defs><clipPath id="myClip1"><path d="M 62.0000,10.0000 v 538.0000 h 728.0000 v -538.0000 Z"/></clipPath></defs><g clip-path="url(#myClip1)"><path d="M 62.0000,332.8000 l 14.5600,-1.0079 l 14.5600,-5.0859 l 14.5600,-5.9826 l 14.5600,-6.6604 l 14.5600,-5.7961 l 14.5600,-5.7423 l 14.5600,-6.3950 l 14.5600,-6.2803 l 14.5600,-5.5019 l 14.5600,-6.5923 l 14.5600,-6.4883 l 14.5600,-6.1189 l 14.5600,-5.7781 l 14.5600,-4.8456 l 14.5600,-4.7380 l 14.5600,-5.4302 l 14.5600,-4.1856 l 14.5600,-6.2516 l 14.5600,-4.7308 l 14.5600,-5.4159 l 14.5600,-5.0644 l 14.5600,-5.4804 l 14.5600,-3.9848 l 14.5600,-4.6591 l 14.5600,-4.2861 l 14.5600,-3.4611 l 14.5600,-4.2574 l 14.5600,-4.7595 l 14.5600,-3.4970 l 14.5600,-3.8377 l 14.5600,-5.5127 l 14.5600,-3.5365 l 14.5600,-3.6943 l 14.5600,-3.7983 l 14.5600,-3.9310 l 14.5600,-3.3428 l 14.5600,-4.0099 l 14.5600,-5.3405 l 14.5600,-3.7122 l 14.5600,-4.4905 l 14.5600,-4.1139 l 14.5600,-3.3751 l 14.5600,-2.9985 l 14.5600,-3.0343 l 14.5600,-2.9913 l 14.5600,-3.2710 l 14.5600,-4.5873 l 14.5600,-3.4827 l 14.5600,-3.2854 "/></g></g><g stroke-linejoin="bevel" stroke-opacity="0.0" fill-opacity="1.0" stroke="rgb(0,0,0)" stroke-width="0.0" fill="rgb(0,0,0)" stroke-linecap="butt" stroke-miterlimit="10.0"><path d="M 42.0000,334.0756 ZM 22.3025,329.9076 c 0.0000,0.8067 -0.5042,1.3613 -0.5042 1.3613c -0.5042,0.5546 -1.2773,0.5546 -1.2773 0.5546c -0.8067,0.0000 -1.2941,-0.5546 -1.2941 -0.5546c -0.4874,-0.5546 -0.4874,-1.3613 -0.4874 -1.3613c -0.0000,-0.8067 0.4874,-1.3613 0.4874 -1.3613c 0.4874,-0.5546 1.2941,-0.5546 1.2941 -0.5546c 0.7731,-0.0000 1.2773,0.5546 1.2773 0.5546c 0.5042,0.5546 0.5042,1.3613 0.5042 1.3613ZM 22.3025,329.9076 ZM 25.6639,331.3193 l -0.0000,-2.7563 l 16.3361,-0.0000 l 0.0000,2.7563 l -16.3361,0.0000 ZM 42.0000,325.8067 ZM 25.6639,323.0504 l -0.0000,-2.2857 l 2.3529,-0.2353 l -0.0000,-0.1008 c -1.1765,-1.1765 -1.9664,-2.4706 -1.9664 -2.4706c -0.7899,-1.2941 -0.7899,-3.0084 -0.7899 -3.0084c -0.0000,-2.5882 1.6134,-3.7815 1.6134 -3.7815c 1.6134,-1.1933 4.7731,-1.1933 4.7731 -1.1933l 10.3529,-0.0000 l 0.0000,2.7563 l -9.9832,0.0000 c -2.3193,0.0000 -3.3445,0.7395 -3.3445 0.7395c -1.0252,0.7395 -1.0252,2.3529 -1.0252 2.3529c 0.0000,1.2773 0.6387,2.2521 0.6387 2.2521c 0.6387,0.9748 1.8824,2.2185 1.8824 2.2185l 11.8319,-0.0000 l 0.0000,2.7563 l -16.3361,0.0000 ZM 42.0000,307.4202 ZM 25.6639,307.0168 l -0.0000,-2.8571 l 9.2773,-3.0924 c 1.2101,-0.3697 2.4202,-0.7563 2.4202 -0.7563c 1.2101,-0.3866 2.3866,-0.7563 2.3866 -0.7563l -0.0000,-0.1345 c -1.1765,-0.3697 -2.3866,-0.7395 -2.3866 -0.7395l -2.4202,-0.7395 l -9.2773,-3.0924 l -0.0000,-2.7227 l 16.3361,5.7815 l 0.0000,3.2269 ZM 42.0000,291.8571 ZM 33.8655,290.3109 c -2.0168,0.0000 -3.6134,-0.6218 -3.6134 -0.6218c -1.5966,-0.6218 -2.7059,-1.6471 -2.7059 -1.6471c -1.1092,-1.0252 -1.6975,-2.3361 -1.6975 -2.3361c -0.5882,-1.3109 -0.5882,-2.7227 -0.5882 -2.7227c -0.0000,-1.5462 0.5378,-2.7731 0.5378 -2.7731c 0.5378,-1.2269 1.5462,-2.0504 1.5462 -2.0504c 1.0084,-0.8235 2.4202,-1.2605 2.4202 -1.2605c 1.4118,-0.4370 3.1597,-0.4370 3.1597 -0.4370c 0.9076,-0.0000 1.5126,0.1008 1.5126 0.1008l 0.0000,11.0252 c 2.6555,-0.1681 4.2017,-1.6303 4.2017 -1.6303c 1.5462,-1.4622 1.5462,-3.8151 1.5462 -3.8151c -0.0000,-1.1765 -0.3529,-2.1681 -0.3529 -2.1681c -0.3529,-0.9916 -0.9244,-1.8992 -0.9244 -1.8992l 1.8151,-0.9748 c 0.6723,1.0756 1.1765,2.3866 1.1765 2.3866c 0.5042,1.3109 0.5042,2.9916 0.5042 2.9916c 0.0000,1.6471 -0.5882,3.0756 -0.5882 3.0756c -0.5882,1.4286 -1.6807,2.4874 -1.6807 2.4874c -1.0924,1.0588 -2.6723,1.6639 -2.6723 1.6639c -1.5798,0.6050 -3.5966,0.6050 -3.5966 0.6050ZM 33.8655,290.3109 ZM 32.6218,278.8824 c -2.5210,0.0000 -3.8487,1.0588 -3.8487 1.0588c -1.3277,1.0588 -1.3277,2.9748 -1.3277 2.9748c 0.0000,0.8739 0.3529,1.6639 0.3529 1.6639c 0.3529,0.7899 1.0084,1.4286 1.0084 1.4286c 0.6555,0.6387 1.6134,1.0588 1.6134 1.0588c 0.9580,0.4202 2.2017,0.5546 2.2017 0.5546l -0.0000,-8.7395 ZM 42.0000,275.1849 ZM 25.6639,272.4286 l -0.0000,-2.2857 l 2.3529,-0.2353 l -0.0000,-0.1008 c -1.1765,-1.1765 -1.9664,-2.4706 -1.9664 -2.4706c -0.7899,-1.2941 -0.7899,-3.0084 -0.7899 -3.0084c -0.0000,-2.5882 1.6134,-3.7815 1.6134 -3.7815c 1.6134,-1.1933 4.7731,-1.1933 4.7731 -1.1933l 10.3529,-0.0000 l 0.0000,2.7563 l -9.9832,0.0000 c -2.3193,0.0000 -3.3445,0.7395 -3.3445 0.7395c -1.0252,0.7395 -1.0252,2.3529 -1.0252 2.3529c 0.0000,1.2773 0.6387,2.2521 0.6387 2.2521c 0.6387,0.9748 1.8824,2.2185 1.8824 2.2185l 11.8319,-0.0000 l 0.0000,2.7563 l -16.3361,0.0000 ZM 42.0000,256.7983 ZM 27.9160,253.5714 l 0.0000,2.4202 l -2.0840,0.0000 l -0.1681,-2.5546 l -4.5714,-0.3361 l -0.0000,-2.3193 l 4.5714,-0.0000 l -0.0000,-4.4034 l 2.2521,-0.0000 l 0.0000,4.4034 l 9.0756,-0.0000 c 1.5126,-0.0000 2.3361,-0.5546 2.3361 -0.5546c 0.8235,-0.5546 0.8235,-1.9664 0.8235 -1.9664c -0.0000,-0.4370 -0.1345,-0.9412 -0.1345 -0.9412c -0.1345,-0.5042 -0.3025,-0.9076 -0.3025 -0.9076l 2.0840,-0.5378 c 0.2353,0.6723 0.4202,1.4622 0.4202 1.4622c 0.1849,0.7899 0.1849,1.5630 0.1849 1.5630c 0.0000,1.3109 -0.4034,2.2017 -0.4034 2.2017c -0.4034,0.8908 -1.1092,1.4454 -1.1092 1.4454c -0.7059,0.5546 -1.7143,0.7899 -1.7143 0.7899c -1.0084,0.2353 -2.2185,0.2353 -2.2185 0.2353l -9.0420,0.0000 ZM 42.0000,245.7731 ZM 33.8655,244.2269 c -2.0504,0.0000 -3.6471,-0.6218 -3.6471 -0.6218c -1.5966,-0.6218 -2.7059,-1.6639 -2.7059 -1.6639c -1.1092,-1.0420 -1.6807,-2.4034 -1.6807 -2.4034c -0.5714,-1.3613 -0.5714,-2.8739 -0.5714 -2.8739c -0.0000,-1.5126 0.5714,-2.8739 0.5714 -2.8739c 0.5714,-1.3613 1.6807,-2.4034 1.6807 -2.4034c 1.1092,-1.0420 2.7059,-1.6639 2.7059 -1.6639c 1.5966,-0.6218 3.6471,-0.6218 3.6471 -0.6218c 2.0168,-0.0000 3.6134,0.6218 3.6134 0.6218c 1.5966,0.6218 2.6891,1.6639 2.6891 1.6639c 1.0924,1.0420 1.6639,2.4034 1.6639 2.4034c 0.5714,1.3613 0.5714,2.8739 0.5714 2.8739c 0.0000,1.5126 -0.5714,2.8739 -0.5714 2.8739c -0.5714,1.3613 -1.6639,2.4034 -1.6639 2.4034c -1.0924,1.0420 -2.6891,1.6639 -2.6891 1.6639c -1.5966,0.6218 -3.6134,0.6218 -3.6134 0.6218ZM 33.8655,244.2269 ZM 33.8655,241.3697 c 1.4118,-0.0000 2.5546,-0.3361 2.5546 -0.3361c 1.1429,-0.3361 1.9664,-0.9580 1.9664 -0.9580c 0.8235,-0.6218 1.2773,-1.4958 1.2773 -1.4958c 0.4538,-0.8739 0.4538,-1.9160 0.4538 -1.9160c -0.0000,-1.0420 -0.4538,-1.9160 -0.4538 -1.9160c -0.4538,-0.8739 -1.2773,-1.4958 -1.2773 -1.4958c -0.8235,-0.6218 -1.9664,-0.9580 -1.9664 -0.9580c -1.1429,-0.3361 -2.5546,-0.3361 -2.5546 -0.3361c -1.4118,0.0000 -2.5714,0.3361 -2.5714 0.3361c -1.1597,0.3361 -2.0000,0.9580 -2.0000 0.9580c -0.8403,0.6218 -1.2941,1.4958 -1.2941 1.4958c -0.4538,0.8739 -0.4538,1.9160 -0.4538 1.9160c 0.0000,1.0420 0.4538,1.9160 0.4538 1.9160c 0.4538,0.8739 1.2941,1.4958 1.2941 1.4958c 0.8403,0.6218 2.0000,0.9580 2.0000 0.9580c 1.1597,0.3361 2.5714,0.3361 2.5714 0.3361ZM 42.0000,227.5546 ZM 25.6639,224.7983 l -0.0000,-2.2857 l 2.9580,-0.2353 l -0.0000,-0.1008 c -1.5462,-0.8403 -2.4538,-2.0336 -2.4538 -2.0336c -0.9076,-1.1933 -0.9076,-2.6050 -0.9076 -2.6050c -0.0000,-0.9748 0.3361,-1.7479 0.3361 -1.7479l 2.4202,0.5378 c -0.1345,0.4034 -0.2017,0.7395 -0.2017 0.7395c -0.0672,0.3361 -0.0672,0.8403 -0.0672 0.8403c 0.0000,1.0420 0.8403,2.1681 0.8403 2.1681c 0.8403,1.1261 2.9244,1.9664 2.9244 1.9664l 10.4874,-0.0000 l 0.0000,2.7563 l -16.3361,0.0000 ZM 42.0000,215.2521 ZM 46.5042,213.6050 l 0.1513,-0.6050 c 0.0000,0.0000 0.0840,-0.6387 0.0840 -0.6387c -0.0000,-1.4118 -0.9916,-2.3025 -0.9916 -2.3025c -0.9916,-0.8908 -2.5042,-1.3950 -2.5042 -1.3950l -1.2101,-0.3697 l -16.3697,6.5546 l -0.0000,-2.8571 l 9.0420,-3.3277 c 1.0756,-0.3697 2.2689,-0.7899 2.2689 -0.7899c 1.1933,-0.4202 2.3361,-0.7899 2.3361 -0.7899l -0.0000,-0.1345 c -1.1092,-0.3697 -2.3193,-0.7059 -2.3193 -0.7059c -1.2101,-0.3361 -2.2857,-0.6723 -2.2857 -0.6723l -9.0420,-2.9244 l -0.0000,-2.6891 l 17.6807,6.1513 c 1.2101,0.4370 2.2521,0.9748 2.2521 0.9748c 1.0420,0.5378 1.7983,1.2773 1.7983 1.2773c 0.7563,0.7395 1.1933,1.6807 1.1933 1.6807c 0.4370,0.9412 0.4370,2.1849 0.4370 2.1849c 0.0000,0.5714 -0.0840,1.0420 -0.0840 1.0420c -0.0840,0.4706 -0.2521,0.8739 -0.2521 0.8739l -2.1849,-0.5378 h 0.0000 Z"/></g><g stroke-linejoin="miter" stroke-opacity="1.0" fill-opacity="0.0" stroke="rgb(0,0,0)" stroke-width="3.9999999999999987" fill="rgb(0,0,0)" stroke-linecap="square" stroke-miterlimit="10.0"><path d="M 62.0000,548.0000 v -538.0000 "/></g><g stroke-linejoin="miter" stroke-opacity="1.0" fill-opacity="0.0" stroke="rgb(0,0,0)" stroke-width="3.9999999999999987" fill="rgb(0,0,0)" stroke-linecap="square" stroke-miterlimit="10.0"><path d="M 62.0000,548.0000 h 728.0000 "/></g><g stroke-linejoin="bevel" stroke-opacity="0.0" fill-opacity="1.0" stroke="rgb(0,0,0)" stroke-width="0.0" fill="rgb(0,0,0)" stroke-linecap="butt" stroke-miterlimit="10.0"><path d="M 389.7647,579.1429 ZM 391.3445,571.0084 c 0.0000,-1.9832 0.5882,-3.5798 0.5882 -3.5798c 0.5882,-1.5966 1.5630,-2.7059 1.5630 -2.7059c 0.9748,-1.1092 2.2521,-1.7143 2.2521 -1.7143c 1.2773,-0.6050 2.6891,-0.6050 2.6891 -0.6050c 1.4118,0.0000 2.4538,0.5042 2.4538 0.5042c 1.0420,0.5042 2.1176,1.3782 2.1176 1.3782l -0.1345,-2.7899 v -6.2857 h 2.7899 v 23.9328 h -2.2857 l -0.2353,-1.9160 h -0.1008 c -0.9748,0.9412 -2.2353,1.6303 -2.2353 1.6303c -1.2605,0.6891 -2.7059,0.6891 -2.7059 0.6891c -3.0924,-0.0000 -4.9244,-2.2185 -4.9244 -2.2185c -1.8319,-2.2185 -1.8319,-6.3193 -1.8319 -6.3193ZM 391.3445,571.0084 ZM 394.2017,570.9748 c 0.0000,2.9580 1.1765,4.6050 1.1765 4.6050c 1.1765,1.6471 3.3277,1.6471 3.3277 1.6471c 1.1429,0.0000 2.1513,-0.5546 2.1513 -0.5546c 1.0084,-0.5546 2.0168,-1.6975 2.0168 -1.6975v -8.5378 c -1.0420,-0.9412 -2.0000,-1.3277 -2.0000 -1.3277c -0.9580,-0.3866 -1.9664,-0.3866 -1.9664 -0.3866c -0.9748,-0.0000 -1.8319,0.4538 -1.8319 0.4538c -0.8571,0.4538 -1.4958,1.2773 -1.4958 1.2773c -0.6387,0.8235 -1.0084,1.9664 -1.0084 1.9664c -0.3697,1.1429 -0.3697,2.5546 -0.3697 2.5546ZM 408.4202,579.1429 ZM 410.3697,574.9076 c 0.0000,-2.6891 2.4034,-4.1176 2.4034 -4.1176c 2.4034,-1.4286 7.6471,-2.0000 7.6471 -2.0000c 0.0000,-0.7731 -0.1513,-1.5126 -0.1513 -1.5126c -0.1513,-0.7395 -0.5378,-1.3109 -0.5378 -1.3109c -0.3866,-0.5714 -1.0252,-0.9244 -1.0252 -0.9244c -0.6387,-0.3529 -1.6471,-0.3529 -1.6471 -0.3529c -1.4454,-0.0000 -2.6723,0.5378 -2.6723 0.5378c -1.2269,0.5378 -2.2017,1.2101 -2.2017 1.2101l -1.1092,-1.9160 c 1.1429,-0.7395 2.7899,-1.4286 2.7899 -1.4286c 1.6471,-0.6891 3.6303,-0.6891 3.6303 -0.6891c 2.9916,0.0000 4.3361,1.8319 4.3361 1.8319c 1.3445,1.8319 1.3445,4.8908 1.3445 4.8908v 10.0168 h -2.2857 l -0.2353,-1.9496 h -0.0672 c -1.1765,0.9748 -2.5378,1.6639 -2.5378 1.6639c -1.3613,0.6891 -2.8739,0.6891 -2.8739 0.6891c -2.0840,-0.0000 -3.4454,-1.2101 -3.4454 -1.2101c -1.3613,-1.2101 -1.3613,-3.4286 -1.3613 -3.4286ZM 410.3697,574.9076 ZM 413.0924,574.7059 c 0.0000,1.4118 0.8235,2.0168 0.8235 2.0168c 0.8235,0.6050 2.0336,0.6050 2.0336 0.6050c 1.1765,0.0000 2.2353,-0.5546 2.2353 -0.5546c 1.0588,-0.5546 2.2353,-1.6303 2.2353 -1.6303v -4.5378 c -2.0504,0.2689 -3.4622,0.6387 -3.4622 0.6387c -1.4118,0.3697 -2.2689,0.8739 -2.2689 0.8739c -0.8571,0.5042 -1.2269,1.1597 -1.2269 1.1597c -0.3697,0.6555 -0.3697,1.4286 -0.3697 1.4286ZM 425.6303,579.1429 ZM 427.2773,583.6471 l 0.6050,0.1513 c 0.0000,0.0000 0.6387,0.0840 0.6387 0.0840c 1.4118,0.0000 2.3025,-0.9916 2.3025 -0.9916c 0.8908,-0.9916 1.3950,-2.5042 1.3950 -2.5042l 0.3697,-1.2101 l -6.5546,-16.3697 h 2.8571 l 3.3277,9.0420 c 0.3697,1.0756 0.7899,2.2689 0.7899 2.2689c 0.4202,1.1933 0.7899,2.3361 0.7899 2.3361h 0.1345 c 0.3697,-1.1092 0.7059,-2.3193 0.7059 -2.3193c 0.3361,-1.2101 0.6723,-2.2857 0.6723 -2.2857l 2.9244,-9.0420 h 2.6891 l -6.1513,17.6807 c -0.4370,1.2101 -0.9748,2.2521 -0.9748 2.2521c -0.5378,1.0420 -1.2773,1.7983 -1.2773 1.7983c -0.7395,0.7563 -1.6807,1.1933 -1.6807 1.1933c -0.9412,0.4370 -2.1849,0.4370 -2.1849 0.4370c -0.5714,-0.0000 -1.0420,-0.0840 -1.0420 -0.0840c -0.4706,-0.0840 -0.8739,-0.2521 -0.8739 -0.2521l 0.5378,-2.1849 h 0.0000 ZM 448.1176,579.1429 ZM 451.9832,572.2857 h -2.6891 v -1.9160 h 2.9244 l 0.6050,-4.9748 h -2.8571 v -1.9496 h 3.0924 l 0.7731,-6.1513 h 1.7815 l -0.7731,6.1513 h 4.4706 l 0.8067,-6.1513 h 1.7815 l -0.8067,6.1513 h 2.7227 v 1.9496 h -2.9244 l -0.6050,4.9748 h 2.8571 v 1.9160 h -3.0924 l -0.8403,6.8571 h -1.7815 l 0.8067,-6.8571 h -4.4370 l -0.8403,6.8571 h -1.8151 ZM 451.9832,572.2857 ZM 458.4706,570.3697 l 0.6050,-4.9748 h -4.4370 l -0.6050,4.9748 h 4.4370 Z"/></g></svg>