<?xml version="1.0" encoding="UTF-8"?>
<!DOCTYPE svg PUBLIC "-//W3C//DTD SVG 1.1//EN"
    "http://www.w3.org/Graphics/SVG/1.1/DTD/svg11.dtd"><svg xmlns="http://www.w3.org/2000/svg" height="600.0000" stroke-opacity="1" viewBox="0.0 0.0 800.0 600.0" font-size="1" width="800.0000" xmlns:xlink="http://www.w3.org/1999/xlink" stroke="rgb(0,0,0)" version="1.1"><defs></defs><g stroke-linejoin="bevel" stroke-opacity="0.0" fill-opacity="0.0" stroke="rgb(0,0,0)" stroke-width="0.0" fill="rgb(0,0,0)" stroke-linecap="butt" stroke-miterlimit="10.0"><path d="M 0.0000,0.0000 v 600.0000 h 800.0000 v -600.0000 Z"/></g><g stroke-linejoin="bevel" stroke-opacity="0.0" fill-opacity="1.0" stroke="rgb(0,0,0)" stroke-width="0.0" fill="rgb(5,45,105)" stroke-linecap="butt" stroke-miterlimit="10.0"><defs><clipPath id="myClip1"><path d="M 62.0000,10.0000 v 538.0000 h 728.0000 v -538.0000 Z"/></clipPath></defs><g clip-path="url(#myClip1)"><path d="M 67.0000,548.0000 v -0.6725 h 6.5455 v 0.6725 Z"/></g></g><g stroke-linejoin="bevel" stroke-opacity="0.0" fill-opacity="1.0" stroke="rgb(0,0,0)" stroke-width="0.0" fill="rgb(5,45,105)" stroke-linecap="butt" stroke-miterlimit="10.0"><defs><clipPath id="myClip2"><path d="M 62.0000,10.0000 v 538.0000 h 728.0000 v -538.0000 Z"/></clipPath></defs><g clip-path="url(#myClip2)"><path d="M 83.5455,548.0000 v -0.6725 h 6.5455 v 0.6725 Z"/></g></g><g stroke-linejoin="bevel" stroke-opacity="0.0" fill-opacity="1.0" stroke="rgb(0,0,0)" stroke-width="0.0" fill="rgb(5,45,105)" stroke-linecap="butt" stroke-miterlimit="10.0"><defs><clipPath id="myClip3"><path d="M 62.0000,10.0000 v 538.0000 h 728.0000 v -538.0000 Z"/></clipPath></defs><g clip-path="url(#myClip3)"><path d="M 100.0909,548.0000 v -0.6725 h 6.5455 v 0.6725 Z"/></g></g><g stroke-linejoin="bevel" stroke-opacity="0.0" fill-opacity="1.0" stroke="rgb(0,0,0)" stroke-width="0.0" fill="rgb(5,45,105)" stroke-linecap="butt" stroke-miterlimit="10.0"><defs><clipPath id="myClip4"><path d="M 62.0000,10.0000 v 538.0000 h 728.0000 v -538.0000 Z"/></clipPath></defs><g clip-path="url(#myClip4)"><path d="M 116.6364,548.0000 v -0.6725 h 6.5455 v 0.6725 Z"/></g></g><g stroke-linejoin="bevel" stroke-opacity="0.0" fill-opacity="1.0" stroke="rgb(0,0,0)" stroke-width="0.0" fill="rgb(5,45,105)" stroke-linecap="butt" stroke-miterlimit="10.0"><defs><clipPath id="myClip5"><path d="M 62.0000,10.0000 v 538.0000 h 728.0000 v -538.0000 Z"/></clipPath></defs><g clip-path="url(#myClip5)"><path d="M 133.1818,548.0000 v -0.6725 h 6.5455 v 0.6725 Z"/></g></g><g stroke-linejoin="bevel" stroke-opacity="0.0" fill-opacity="1.0" stroke="rgb(0,0,0)" stroke-width="0.0" fill="rgb(5,45,105)" stroke-linecap="butt" stroke-miterlimit="10.0"><defs><clipPath id="myClip6"><path d="M 62.0000,10.0000 v 538.0000 h 728.0000 v -538.0000 Z"/></clipPath></defs><g clip-path="url(#myClip6)"><path d="M 149.7273,548.0000 v -2.0175 h 6.5455 v 2.0175 Z"/></g></g><g stroke-linejoin="bevel" stroke-opacity="0.0" fill-opacity="1.0" stroke="rgb(0,0,0)" stroke-width="0.0" fill="rgb(5,45,105)" stroke-linecap="butt" stroke-miterlimit="10.0"><defs><clipPath id="myClip7"><path d="M 62.0000,10.0000 v 538.0000 h 728.0000 v -538.0000 Z"/></clipPath></defs><g clip-path="url(#myClip7)"><path d="M 166.2727,548.0000 v -1.3450 h 6.5455 v 1.3450 Z"/></g></g><g stroke-linejoin="bevel" stroke-opacity="0.0" fill-opacity="1.0" stroke="rgb(0,0,0)" stroke-width="0.0" fill="rgb(5,45,105)" stroke-linecap="butt" stroke-miterlimit="10.0"><defs><clipPath id="myClip8"><path d="M 62.0000,10.0000 v 538.0000 h 728.0000 v -538.0000 Z"/></clipPath></defs><g clip-path="url(#myClip8)"><path d="M 182.8182,548.0000 v -5.3800 h 6.5455 v 5.3800 Z"/></g></g><g stroke-linejoin="bevel" stroke-opacity="0.0" fill-opacity="1.0" stroke="rgb(0,0,0)" stroke-width="0.0" fill="rgb(5,45,105)" stroke-linecap="butt" stroke-miterlimit="10.0"><defs><clipPath id="myClip9"><path d="M 62.0000,10.0000 v 538.0000 h 728.0000 v -538.0000 Z"/></clipPath></defs><g clip-path="url(#myClip9)"><path d="M 199.3636,548.0000 v -11.4325 h 6.5455 v 11.4325 Z"/></g></g><g stroke-linejoin="bevel" stroke-opacity="0.0" fill-opacity="1.0" stroke="rgb(0,0,0)" stroke-width="0.0" fill="rgb(5,45,105)" stroke-linecap="butt" stroke-miterlimit="10.0"><defs><clipPath id="myClip10"><path d="M 62.0000,10.0000 v 538.0000 h 728.0000 v -538.0000 Z"/></clipPath></defs><g clip-path="url(#myClip10)"><path d="M 215.9091,548.0000 v -15.4675 h 6.5455 v 15.4675 Z"/></g></g><g stroke-linejoin="bevel" stroke-opacity="0.0" fill-opacity="1.0" stroke="rgb(0,0,0)" stroke-width="0.0" fill="rgb(5,45,105)" stroke-linecap="butt" stroke-miterlimit="10.0"><defs><clipPath id="myClip11"><path d="M 62.0000,10.0000 v 538.0000 h 728.0000 v -538.0000 Z"/></clipPath></defs><g clip-path="url(#myClip11)"><path d="M 232.4545,548.0000 v -20.1750 h 6.5455 v 20.1750 Z"/></g></g><g stroke-linejoin="bevel" stroke-opacity="0.0" fill-opacity="1.0" stroke="rgb(0,0,0)" stroke-width="0.0" fill="rgb(5,45,105)" stroke-linecap="butt" stroke-miterlimit="10.0"><defs><clipPath id="myClip12"><path d="M 62.0000,10.0000 v 538.0000 h 728.0000 v -538.0000 Z"/></clipPath></defs><g clip-path="url(#myClip12)"><path d="M 249.0000,548.0000 v -36.3150 h 6.5455 v 36.3150 Z"/></g></g><g stroke-linejoin="bevel" stroke-opacity="0.0" fill-opacity="1.0" stroke="rgb(0,0,0)" stroke-width="0.0" fill="rgb(5,45,105)" stroke-linecap="butt" stroke-miterlimit="10.0"><defs><clipPath id="myClip13"><path d="M 62.0000,10.0000 v 538.0000 h 728.0000 v -538.0000 Z"/></clipPath></defs><g clip-path="url(#myClip13)"><path d="M 265.5455,548.0000 v -53.8000 h 6.5455 v 53.8000 Z"/></g></g><g stroke-linejoin="bevel" stroke-opacity="0.0" fill-opacity="1.0" stroke="rgb(0,0,0)" stroke-width="0.0" fill="rgb(5,45,105)" stroke-linecap="butt" stroke-miterlimit="10.0"><defs><clipPath id="myClip14"><path d="M 62.0000,10.0000 v 538.0000 h 728.0000 v -538.0000 Z"/></clipPath></defs><g clip-path="url(#myClip14)"><path d="M 282.0909,548.0000 v -75.9925 h 6.5455 v 75.9925 Z"/></g></g><g stroke-linejoin="bevel" stroke-opacity="0.0" fill-opacity="1.0" stroke="rgb(0,0,0)" stroke-width="0.0" fill="rgb(5,45,105)" stroke-linecap="butt" stroke-miterlimit="10.0"><defs><clipPath id="myClip15"><path d="M 62.0000,10.0000 v 538.0000 h 728.0000 v -538.0000 Z"/></clipPath></defs><g clip-path="url(#myClip15)"><path d="M 298.6364,548.0000 v -147.9500 h 6.5455 v 147.9500 Z"/></g></g><g stroke-linejoin="bevel" stroke-opacity="0.0" fill-opacity="1.0" stroke="rgb(0,0,0)" stroke-width="0.0" fill="rgb(5,45,105)" stroke-linecap="butt" stroke-miterlimit="10.0"><defs><clipPath id="myClip16"><path d="M 62.0000,10.0000 v 538.0000 h 728.0000 v -538.0000 Z"/></clipPath></defs><g clip-path="url(#myClip16)"><path d="M 315.1818,548.0000 v -201.0775 h 6.5455 v 201.0775 Z"/></g></g><g stroke-linejoin="bevel" stroke-opacity="0.0" fill-opacity="1.0" stroke="rgb(0,0,0)" stroke-width="0.0" fill="rgb(5,45,105)" stroke-linecap="butt" stroke-miterlimit="10.0"><defs><clipPath id="myClip17"><path d="M 62.0000,10.0000 v 538.0000 h 728.0000 v -538.0000 Z"/></clipPath></defs><g clip-path="url(#myClip17)"><path d="M 331.7273,548.0000 v -224.6150 h 6.5455 v 224.6150 Z"/></g></g><g stroke-linejoin="bevel" stroke-opacity="0.0" fill-opacity="1.0" stroke="rgb(0,0,0)" stroke-width="0.0" fill="rgb(5,45,105)" stroke-linecap="butt" stroke-miterlimit="10.0"><defs><clipPath id="myClip18"><path d="M 62.0000,10.0000 v 538.0000 h 728.0000 v -538.0000 Z"/></clipPath></defs><g clip-path="url(#myClip18)"><path d="M 348.2727,548.0000 v -277.0700 h 6.5455 v 277.0700 Z"/></g></g><g stroke-linejoin="bevel" stroke-opacity="0.0" fill-opacity="1.0" stroke="rgb(0,0,0)" stroke-width="0.0" fill="rgb(5,45,105)" stroke-linecap="butt" stroke-miterlimit="10.0"><defs><clipPath id="myClip19"><path d="M 62.0000,10.0000 v 538.0000 h 728.0000 v -538.0000 Z"/></clipPath></defs><g clip-path="url(#myClip19)"><path d="M 364.8182,548.0000 v -330.8700 h 6.5455 v 330.8700 Z"/></g></g><g stroke-linejoin="bevel" stroke-opacity="0.0" fill-opacity="1.0" stroke="rgb(0,0,0)" stroke-width="0.0" fill="rgb(5,45,105)" stroke-linecap="butt" stroke-miterlimit="10.0"><defs><clipPath id="myClip20"><path d="M 62.0000,10.0000 v 538.0000 h 728.0000 v -538.0000 Z"/></clipPath></defs><g clip-path="url(#myClip20)"><path d="M 381.3636,548.0000 v -460.6625 h 6.5455 v 460.6625 Z"/></g></g><g stroke-linejoin="bevel" stroke-opacity="0.0" fill-opacity="1.0" stroke="rgb(0,0,0)" stroke-width="0.0" fill="rgb(5,45,105)" stroke-linecap="butt" stroke-miterlimit="10.0"><defs><clipPath id="myClip21"><path d="M 62.0000,10.0000 v 538.0000 h 728.0000 v -538.0000 Z"/></clipPath></defs><g clip-path="url(#myClip21)"><path d="M 397.9091,548.0000 v -515.1350 h 6.5455 v 515.1350 Z"/></g></g><g stroke-linejoin="bevel" stroke-opacity="0.0" fill-opacity="1.0" stroke="rgb(0,0,0)" stroke-width="0.0" fill="rgb(5,45,105)" stroke-linecap="butt" stroke-miterlimit="10.0"><defs><clipPath id="myClip22"><path d="M 62.0000,10.0000 v 538.0000 h 728.0000 v -538.0000 Z"/></clipPath></defs><g clip-path="url(#myClip22)"><path d="M 414.4545,548.0000 v -484.8725 h 6.5455 v 484.8725 Z"/></g></g><g stroke-linejoin="bevel" stroke-opacity="0.0" fill-opacity="1.0" stroke="rgb(0,0,0)" stroke-width="0.0" fill="rgb(5,45,105)" stroke-linecap="butt" stroke-miterlimit="10.0"><defs><clipPath id="myClip23"><path d="M 62.0000,10.0000 v 538.0000 h 728.0000 v -538.0000 Z"/></clipPath></defs><g clip-path="url(#myClip23)"><path d="M 431.0000,548.0000 v -532.6200 h 6.5455 v 532.6200 Z"/></g></g><g stroke-linejoin="bevel" stroke-opacity="0.0" fill-opacity="1.0" stroke="rgb(0,0,0)" stroke-width="0.0" fill="rgb(5,45,105)" stroke-linecap="butt" stroke-miterlimit="10.0"><defs><clipPath id="myClip24"><path d="M 62.0000,10.0000 v 538.0000 h 728.0000 v -538.0000 Z"/></clipPath></defs><g clip-path="url(#myClip24)"><path d="M 447.5455,548.0000 v -527.2400 h 6.5455 v 527.2400 Z"/></g></g><g stroke-linejoin="bevel" stroke-opacity="0.0" fill-opacity="1.0" stroke="rgb(0,0,0)" stroke-width="0.0" fill="rgb(5,45,105)" stroke-linecap="butt" stroke-miterlimit="10.0"><defs><clipPath id="myClip25"><path d="M 62.0000,10.0000 v 538.0000 h 728.0000 v -538.0000 Z"/></clipPath></defs><g clip-path="url(#myClip25)"><path d="M 464.0909,548.0000 v -470.0775 h 6.5455 v 470.0775 Z"/></g></g><g stroke-linejoin="bevel" stroke-opacity="0.0" fill-opacity="1.0" stroke="rgb(0,0,0)" stroke-width="0.0" fill="rgb(5,45,105)" stroke-linecap="butt" stroke-miterlimit="10.0"><defs><clipPath id="myClip26"><path d="M 62.0000,10.0000 v 538.0000 h 728.0000 v -538.0000 Z"/></clipPath></defs><g clip-path="url(#myClip26)"><path d="M 480.6364,548.0000 v -434.4350 h 6.5455 v 434.4350 Z"/></g></g><g stroke-linejoin="bevel" stroke-opacity="0.0" fill-opacity="1.0" stroke="rgb(0,0,0)" stroke-width="0.0" fill="rgb(5,45,105)" stroke-linecap="butt" stroke-miterlimit="10.0"><defs><clipPath id="myClip27"><path d="M 62.0000,10.0000 v 538.0000 h 728.0000 v -538.0000 Z"/></clipPath></defs><g clip-path="url(#myClip27)"><path d="M 497.1818,548.0000 v -414.2600 h 6.5455 v 414.2600 Z"/></g></g><g stroke-linejoin="bevel" stroke-opacity="0.0" fill-opacity="1.0" stroke="rgb(0,0,0)" stroke-width="0.0" fill="rgb(5,45,105)" stroke-linecap="butt" stroke-miterlimit="10.0"><defs><clipPath id="myClip28"><path d="M 62.0000,10.0000 v 538.0000 h 728.0000 v -538.0000 Z"/></clipPath></defs><g clip-path="url(#myClip28)"><path d="M 513.7273,548.0000 v -376.6000 h 6.5455 v 376.6000 Z"/></g></g><g stroke-linejoin="bevel" stroke-opacity="0.0" fill-opacity="1.0" stroke="rgb(0,0,0)" stroke-width="0.0" fill="rgb(5,45,105)" stroke-linecap="butt" stroke-miterlimit="10.0"><defs><clipPath id="myClip29"><path d="M 62.0000,10.0000 v 538.0000 h 728.0000 v -538.0000 Z"/></clipPath></defs><g clip-path="url(#myClip29)"><path d="M 530.2727,548.0000 v -300.6075 h 6.5455 v 300.6075 Z"/></g></g><g stroke-linejoin="bevel" stroke-opacity="0.0" fill-opacity="1.0" stroke="rgb(0,0,0)" stroke-width="0.0" fill="rgb(5,45,105)" stroke-linecap="butt" stroke-miterlimit="10.0"><defs><clipPath id="myClip30"><path d="M 62.0000,10.0000 v 538.0000 h 728.0000 v -538.0000 Z"/></clipPath></defs><g clip-path="url(#myClip30)"><path d="M 546.8182,548.0000 v -190.9900 h 6.5455 v 190.9900 Z"/></g></g><g stroke-linejoin="bevel" stroke-opacity="0.0" fill-opacity="1.0" stroke="rgb(0,0,0)" stroke-width="0.0" fill="rgb(5,45,105)" stroke-linecap="butt" stroke-miterlimit="10.0"><defs><clipPath id="myClip31"><path d="M 62.0000,10.0000 v 538.0000 h 728.0000 v -538.0000 Z"/></clipPath></defs><g clip-path="url(#myClip31)"><path d="M 563.3636,548.0000 v -162.7450 h 6.5455 v 162.7450 Z"/></g></g><g stroke-linejoin="bevel" stroke-opacity="0.0" fill-opacity="1.0" stroke="rgb(0,0,0)" stroke-width="0.0" fill="rgb(5,45,105)" stroke-linecap="butt" stroke-miterlimit="10.0"><defs><clipPath id="myClip32"><path d="M 62.0000,10.0000 v 538.0000 h 728.0000 v -538.0000 Z"/></clipPath></defs><g clip-path="url(#myClip32)"><path d="M 579.9091,548.0000 v -134.5000 h 6.5455 v 134.5000 Z"/></g></g><g stroke-linejoin="bevel" stroke-opacity="0.0" fill-opacity="1.0" stroke="rgb(0,0,0)" stroke-width="0.0" fill="rgb(5,45,105)" stroke-linecap="butt" stroke-miterlimit="10.0"><defs><clipPath id="myClip33"><path d="M 62.0000,10.0000 v 538.0000 h 728.0000 v -538.0000 Z"/></clipPath></defs><g clip-path="url(#myClip33)"><path d="M 596.4545,548.0000 v -110.2900 h 6.5455 v 110.2900 Z"/></g></g><g stroke-linejoin="bevel" stroke-opacity="0.0" fill-opacity="1.0" stroke="rgb(0,0,0)" stroke-width="0.0" fill="rgb(5,45,105)" stroke-linecap="butt" stroke-miterlimit="10.0"><defs><clipPath id="myClip34"><path d="M 62.0000,10.0000 v 538.0000 h 728.0000 v -538.0000 Z"/></clipPath></defs><g clip-path="url(#myClip34)"><path d="M 613.0000,548.0000 v -86.7525 h 6.5455 v 86.7525 Z"/></g></g><g stroke-linejoin="bevel" stroke-opacity="0.0" fill-opacity="1.0" stroke="rgb(0,0,0)" stroke-width="0.0" fill="rgb(5,45,105)" stroke-linecap="butt" stroke-miterlimit="10.0"><defs><clipPath id="myClip35"><path d="M 62.0000,10.0000 v 538.0000 h 728.0000 v -538.0000 Z"/></clipPath></defs><g clip-path="url(#myClip35)"><path d="M 629.5455,548.0000 v -35.6425 h 6.5455 v 35.6425 Z"/></g></g><g stroke-linejoin="bevel" stroke-opacity="0.0" fill-opacity="1.0" stroke="rgb(0,0,0)" stroke-width="0.0" fill="rgb(5,45,105)" stroke-linecap="butt" stroke-miterlimit="10.0"><defs><clipPath id="myClip36"><path d="M 62.0000,10.0000 v 538.0000 h 728.0000 v -538.0000 Z"/></clipPath></defs><g clip-path="url(#myClip36)"><path d="M 646.0909,548.0000 v -22.8650 h 6.5455 v 22.8650 Z"/></g></g><g stroke-linejoin="bevel" stroke-opacity="0.0" fill-opacity="1.0" stroke="rgb(0,0,0)" stroke-width="0.0" fill="rgb(5,45,105)" stroke-linecap="butt" stroke-miterlimit="10.0"><defs><clipPath id="myClip37"><path d="M 62.0000,10.0000 v 538.0000 h 728.0000 v -538.0000 Z"/></clipPath></defs><g clip-path="url(#myClip37)"><path d="M 662.6364,548.0000 v -28.9175 h 6.5455 v 28.9175 Z"/></g></g><g stroke-linejoin="bevel" stroke-opacity="0.0" fill-opacity="1.0" stroke="rgb(0,0,0)" stroke-width="0.0" fill="rgb(5,45,105)" stroke-linecap="butt" stroke-miterlimit="10.0"><defs><clipPath id="myClip38"><path d="M 62.0000,10.0000 v 538.0000 h 728.0000 v -538.0000 Z"/></clipPath></defs><g clip-path="url(#myClip38)"><path d="M 679.1818,548.0000 v -10.7600 h 6.5455 v 10.7600 Z"/></g></g><g stroke-linejoin="bevel" stroke-opacity="0.0" fill-opacity="1.0" stroke="rgb(0,0,0)" stroke-width="0.0" fill="rgb(5,45,105)" stroke-linecap="butt" stroke-miterlimit="10.0"><defs><clipPath id="myClip39"><path d="M 62.0000,10.0000 v 538.0000 h 728.0000 v -538.0000 Z"/></clipPath></defs><g clip-path="url(#myClip39)"><path d="M 695.7273,548.0000 v -11.4325 h 6.5455 v 11.4325 Z"/></g></g><g stroke-linejoin="bevel" stroke-opacity="0.0" fill-opacity="1.0" stroke="rgb(0,0,0)" stroke-width="0.0" fill="rgb(5,45,105)" stroke-linecap="butt" stroke-miterlimit="10.0"><defs><clipPath id="myClip40"><path d="M 62.0000,10.0000 v 538.0000 h 728.0000 v -538.0000 Z"/></clipPath></defs><g clip-path="url(#myClip40)"><path d="M 712.2727,548.0000 v -1.3450 h 6.5455 v 1.3450 Z"/></g></g><g stroke-linejoin="bevel" stroke-opacity="0.0" fill-opacity="1.0" stroke="rgb(0,0,0)" stroke-width="0.0" fill="rgb(5,45,105)" stroke-linecap="butt" stroke-miterlimit="10.0"><defs><clipPath id="myClip41"><path d="M 62.0000,10.0000 v 538.0000 h 728.0000 v -538.0000 Z"/></clipPath></defs><g clip-path="url(#myClip41)"><path d="M 728.8182,548.0000 v -2.0175 h 6.5455 v 2.0175 Z"/></g></g><g stroke-linejoin="bevel" stroke-opacity="0.0" fill-opacity="1.0" stroke="rgb(0,0,0)" stroke-width="0.0" fill="rgb(5,45,105)" stroke-linecap="butt" stroke-miterlimit="10.0"><defs><clipPath id="myClip42"><path d="M 62.0000,10.0000 v 538.0000 h 728.0000 v -538.0000 Z"/></clipPath></defs><g clip-path="url(#myClip42)"><path d="M 745.3636,548.0000 v -2.0175 h 6.5455 v 2.0175 Z"/></g></g><g stroke-linejoin="bevel" stroke-opacity="0.0" fill-opacity="1.0" stroke="rgb(0,0,0)" stroke-width="0.0" fill="rgb(5,45,105)" stroke-linecap="butt" stroke-miterlimit="10.0"><defs><clipPath id="myClip43"><path d="M 62.0000,10.0000 v 538.0000 h 728.0000 v -538.0000 Z"/></clipPath></defs><g clip-path="url(#myClip43)"><path d="M 761.9091,548.0000 v -0.6725 h 6.5455 v 0.6725 Z"/></g></g><g stroke-linejoin="bevel" stroke-opacity="0.0" fill-opacity="1.0" stroke="rgb(0,0,0)" stroke-width="0.0" fill="rgb(5,45,105)" stroke-linecap="butt" stroke-miterlimit="10.0"><defs><clipPath id="myClip44"><path d="M 62.0000,10.0000 v 538.0000 h 728.0000 v -538.0000 Z"/></clipPath></defs><g clip-path="url(#myClip44)"><path d="M 778.4545,548.0000 v -0.6725 h 6.5455 v 0.6725 Z"/></g></g><g stroke-linejoin="bevel" stroke-opacity="0.0" fill-opacity="1.0" stroke="rgb(0,0,0)" stroke-width="0.0" fill="rgb(0,0,0)" stroke-linecap="butt" stroke-miterlimit="10.0"><path d="M 42.0000,292.6134 ZM 19.9496,289.5882 l -0.0000,-6.7563 c -0.0000,-1.8151 0.3361,-3.3277 0.3361 -3.3277c 0.3361,-1.5126 1.0924,-2.5714 1.0924 -2.5714c 0.7563,-1.0588 2.0000,-1.6471 2.0000 -1.6471c 1.2437,-0.5882 3.0588,-0.5882 3.0588 -0.5882c 1.7479,-0.0000 3.0252,0.5882 3.0252 0.5882c 1.2773,0.5882 2.1176,1.6639 2.1176 1.6639c 0.8403,1.0756 1.2605,2.5714 1.2605 2.5714c 0.4202,1.4958 0.4202,3.3109 0.4202 3.3109l 0.0000,3.9664 l 8.7395,-0.0000 l 0.0000,2.7899 l -22.0504,0.0000 ZM 19.9496,289.5882 ZM 30.9748,283.1681 c -0.0000,-2.8908 -1.0924,-4.2857 -1.0924 -4.2857c -1.0924,-1.3950 -3.4454,-1.3950 -3.4454 -1.3950c -2.3866,0.0000 -3.3109,1.4118 -3.3109 1.4118c -0.9244,1.4118 -0.9244,4.2689 -0.9244 4.2689l 0.0000,3.6303 l 8.7731,-0.0000 l -0.0000,-3.6303 ZM 42.0000,273.2521 ZM 47.9160,266.0588 c -3.3613,2.0840 -7.0924,3.2605 -7.0924 3.2605c -3.7311,1.1765 -8.1681,1.1765 -8.1681 1.1765c -4.4370,0.0000 -8.1513,-1.1765 -8.1513 -1.1765c -3.7143,-1.1765 -7.1092,-3.2605 -7.1092 -3.2605l 0.8067,-1.7143 c 3.2269,1.9496 6.9076,2.9076 6.9076 2.9076c 3.6807,0.9580 7.5462,0.9580 7.5462 0.9580c 3.8655,-0.0000 7.5462,-0.9580 7.5462 -0.9580c 3.6807,-0.9580 6.9076,-2.9076 6.9076 -2.9076l 0.8067,1.7143 h 0.0000 ZM 42.0000,263.0672 ZM 33.4622,257.2521 l -7.7983,4.9412 l -0.0000,-2.9916 l 3.5966,-2.1849 c 0.6723,-0.3697 1.3613,-0.7731 1.3613 -0.7731c 0.6891,-0.4034 1.3613,-0.8403 1.3613 -0.8403l -0.0000,-0.1345 c -0.6723,-0.3697 -1.3613,-0.7395 -1.3613 -0.7395c -0.6891,-0.3697 -1.3613,-0.7395 -1.3613 -0.7395l -3.5966,-1.9832 l -0.0000,-2.8908 l 8.1008,4.9412 l 8.2353,-5.3109 l 0.0000,2.9916 l -3.7983,2.3866 l -1.4790,0.8739 c 0.0000,0.0000 -1.4454,0.9076 -1.4454 0.9076l 0.0000,0.1345 c 0.7059,0.4370 1.4286,0.8403 1.4286 0.8403c 0.7227,0.4034 1.4958,0.8067 1.4958 0.8067l 3.7983,2.2185 l 0.0000,2.8908 ZM 42.0000,248.0756 ZM 47.1092,246.7983 c -3.2269,-1.9496 -6.9076,-2.9076 -6.9076 -2.9076c -3.6807,-0.9580 -7.5462,-0.9580 -7.5462 -0.9580c -3.8655,0.0000 -7.5462,0.9580 -7.5462 0.9580c -3.6807,0.9580 -6.9076,2.9076 -6.9076 2.9076l -0.8067,-1.7143 c 3.3950,-2.0840 7.1092,-3.2605 7.1092 -3.2605c 3.7143,-1.1765 8.1513,-1.1765 8.1513 -1.1765c 4.4370,-0.0000 8.1681,1.1765 8.1681 1.1765c 3.7311,1.1765 7.0924,3.2605 7.0924 3.2605l -0.8067,1.7143 h 0.0000 Z"/></g><g stroke-linejoin="miter" stroke-opacity="1.0" fill-opacity="0.0" stroke="rgb(0,0,0)" stroke-width="3.9999999999999987" fill="rgb(0,0,0)" stroke-linecap="square" stroke-miterlimit="10.0"><path d="M 62.0000,548.0000 v -538.0000 "/></g><g stroke-linejoin="miter" stroke-opacity="1.0" fill-opacity="0.0" stroke="rgb(0,0,0)" stroke-width="3.9999999999999987" fill="rgb(0,0,0)" stroke-linecap="square" stroke-miterlimit="10.0"><path d="M 62.0000,548.0000 h 728.0000 "/></g><g stroke-linejoin="bevel" stroke-opacity="0.0" fill-opacity="1.0" stroke="rgb(0,0,0)" stroke-width="0.0" fill="rgb(0,0,0)" stroke-linecap="butt" stroke-miterlimit="10.0"><path d="M 418.9748,579.1429 ZM 424.7899,570.6050 l -4.9412,-7.7983 h 2.9916 l 2.1849,3.5966 c 0.3697,0.6723 0.7731,1.3613 0.7731 1.3613c 0.4034,0.6891 0.8403,1.3613 0.8403 1.3613h 0.1345 c 0.3697,-0.6723 0.7395,-1.3613 0.7395 -1.3613c 0.3697,-0.6891 0.7395,-1.3613 0.7395 -1.3613l 1.9832,-3.5966 h 2.8908 l -4.9412,8.1008 l 5.3109,8.2353 h -2.9916 l -2.3866,-3.7983 l -0.8739,-1.4790 c 0.0000,0.0000 -0.9076,-1.4454 -0.9076 -1.4454h -0.1345 c -0.4370,0.7059 -0.8403,1.4286 -0.8403 1.4286c -0.4034,0.7227 -0.8067,1.4958 -0.8067 1.4958l -2.2185,3.7983 h -2.8908 Z"/></g></svg>