<?xml version="1.0" encoding="UTF-8"?>
<!DOCTYPE svg PUBLIC "-//W3C//DTD SVG 1.1//EN"
    "http://www.w3.org/Graphics/SVG/1.1/DTD/svg11.dtd"><svg xmlns="http://www.w3.org/2000/svg" height="600.0000" stroke-opacity="1" viewBox="0.0 0.0 800.0 600.0" font-size="1" width="800.0000" xmlns:xlink="http://www.w3.org/1999/xlink" stroke="rgb(0,0,0)" version="1.1"><defs></defs><g stroke-linejoin="bevel" stroke-opacity="0.0" fill-opacity="0.0" stroke="rgb(0,0,0)" stroke-width="0.0" fill="rgb(0,0,0)" stroke-linecap="butt" stroke-miterlimit="10.0"><path d="M 0.0000,0.0000 v 600.0000 h 800.0000 v -600.0000 Z"/></g><g stroke-linejoin="round" stroke-opacity="1.0" fill-opacity="0.0" stroke="rgb(0,0,0)" stroke-width="3.9999999999999987" fill="rgb(0,0,0)" stroke-linecap="round" stroke-miterlimit="10.0"><defs><clipPath id="myClip1"><path d="M 62.0000,10.0000 v 538.0000 h 728.0000 v -538.0000 Z"/></clipPath></defs><g clip-path="url(#myClip1)"><path d="M 62.0000,368.6667 h 14.5600 h 14.5600 h 14.5600 h 14.5600 h 14.5600 h 14.5600 h 14.5600 h 14.5600 h 14.5600 h 14.5600 h 14.5600 h 14.5600 h 14.5600 h 14.5600 h 14.5600 h 14.5600 h 14.5600 h 14.5600 h 14.5600 h 14.5600 h 14.5600 h 14.5600 h 14.5600 h 14.5600 h 14.5600 h 14.5600 h 14.5600 h 14.5600 h 14.5600 h 14.5600 h 14.5600 h 14.5600 h 14.5600 h 14.5600 h 14.5600 h 14.5600 h 14.5600 h 14.5600 h 14.5600 h 14.5600 h 14.5600 h 14.5600 h 14.5600 h 14.5600 h 14.5600 h 14.5600 h 14.5600 h 14.5600 h 14.5600 h 14.5600 "/></g></g><g stroke-linejoin="round" stroke-opacity="1.0" fill-opacity="0.0" stroke="rgb(5,45,105)" stroke-width="3.9999999999999987" fill="rgb(0,0,0)" stroke-linecap="round" stroke-miterlimit="10.0"><defs><clipPath id="myClip2"><path d="M 62.0000,10.0000 v 538.0000 h 728.0000 v -538.0000 Z"/></clipPath></defs><g clip-path="url(#myClip2)"><path d="M 62.0000,368.6667 h 14.5600 l 14.5600,-31.3116 l 14.5600,10.0983 l 14.5600,22.9708 l 14.5600,21.4841 l 14.5600,23.7366 l 14.5600,23.3851 l 14.5600,21.7388 l 14.5600,21.3532 l 14.5600,20.7112 l 14.5600,22.2481 l 14.5600,21.8715 l 14.5600,21.4357 l 14.5600,19.6496 l 14.5600,22.0526 l 14.5600,17.7630 l 14.5600,21.0107 l 14.5600,19.8289 l 14.5600,23.3510 l 14.5600,20.5893 l 14.5600,22.8883 l 14.5600,17.6841 l 14.5600,22.8740 l 14.5600,20.0907 l 14.5600,22.6426 l 14.5600,19.4379 l 14.5600,22.8524 l 14.5600,22.7771 l 14.5600,22.6982 l 14.5600,23.1430 l 14.5600,23.6612 l 14.5600,21.8715 l 14.5600,21.2205 l 14.5600,23.2918 l 14.5600,20.8959 l 14.5600,20.5839 l 14.5600,20.0853 l 14.5600,20.8403 l 14.5600,20.2557 l 14.5600,20.7542 l 14.5600,20.7668 l 14.5600,20.9784 l 14.5600,19.7500 l 14.5600,22.0078 l 14.5600,20.2378 l 14.5600,23.6039 l 14.5600,22.7090 l 14.5600,22.1907 l 14.5600,21.7747 l 14.5600,22.3306 "/></g></g><g stroke-linejoin="round" stroke-opacity="1.0" fill-opacity="0.0" stroke="rgb(101,50,125)" stroke-width="3.9999999999999987" fill="rgb(0,0,0)" stroke-linecap="round" stroke-miterlimit="10.0"><defs><clipPath id="myClip3"><path d="M 62.0000,10.0000 v 538.0000 h 728.0000 v -538.0000 Z"/></clipPath></defs><g clip-path="url(#myClip3)"><path d="M 62.0000,368.6667 h 14.5600 l 14.5600,-30.1639 l 14.5600,12.5677 l 14.5600,12.0369 l 14.5600,13.0232 l 14.5600,13.2760 l 14.5600,10.8640 l 14.5600,11.6800 l 14.5600,12.3166 l 14.5600,9.6141 l 14.5600,13.1559 l 14.5600,9.0796 l 14.5600,12.7506 l 14.5600,11.4845 l 14.5600,11.0344 l 14.5600,11.7571 l 14.5600,10.9878 l 14.5600,12.9461 l 14.5600,10.7008 l 14.5600,9.8006 l 14.5600,12.8098 l 14.5600,10.3422 l 14.5600,12.5318 l 14.5600,12.1714 l 14.5600,9.9440 l 14.5600,13.5702 l 14.5600,9.2572 l 14.5600,12.9676 l 14.5600,12.0655 l 14.5600,12.0135 l 14.5600,11.1187 l 14.5600,9.4383 l 14.5600,11.5347 l 14.5600,11.1886 l 14.5600,11.6746 l 14.5600,9.6625 l 14.5600,11.9382 l 14.5600,11.2639 l 14.5600,13.1559 l 14.5600,11.8683 l 14.5600,11.0182 l 14.5600,11.8055 l 14.5600,12.2395 l 14.5600,10.5161 l 14.5600,8.5542 l 14.5600,11.4199 l 14.5600,12.0422 l 14.5600,12.0135 l 14.5600,10.9644 l 14.5600,13.4195 "/></g></g><g stroke-linejoin="round" stroke-opacity="1.0" fill-opacity="0.0" stroke="rgb(172,50,122)" stroke-width="3.9999999999999987" fill="rgb(0,0,0)" stroke-linecap="round" stroke-miterlimit="10.0"><defs><clipPath id="myClip4"><path d="M 62.0000,10.0000 v 538.0000 h 728.0000 v -538.0000 Z"/></clipPath></defs><g clip-path="url(#myClip4)"><path d="M 62.0000,368.6667 h 14.5600 l 14.5600,-30.7700 l 14.5600,20.0226 l 14.5600,-3.3912 l 14.5600,7.7400 l 14.5600,1.4903 l 14.5600,4.1910 l 14.5600,3.7050 l 14.5600,4.3614 l 14.5600,2.8998 l 14.5600,2.6757 l 14.5600,4.2502 l 14.5600,2.3636 l 14.5600,4.8205 l 14.5600,3.6476 l 14.5600,6.1027 l 14.5600,3.5544 l 14.5600,4.0278 l 14.5600,2.8227 l 14.5600,3.9346 l 14.5600,4.1031 l 14.5600,2.8640 l 14.5600,6.7483 l 14.5600,0.7245 l 14.5600,6.6084 l 14.5600,2.6757 l 14.5600,3.0343 l 14.5600,4.8761 l 14.5600,3.1365 l 14.5600,3.6602 l 14.5600,5.2903 l 14.5600,2.7277 l 14.5600,5.4930 l 14.5600,4.0960 l 14.5600,2.6362 l 14.5600,2.8442 l 14.5600,4.3381 l 14.5600,4.1623 l 14.5600,3.7212 l 14.5600,1.6642 l 14.5600,3.9417 l 14.5600,1.2822 l 14.5600,3.0164 l 14.5600,3.0792 l 14.5600,3.5974 l 14.5600,3.7230 l 14.5600,2.4927 l 14.5600,2.6003 l 14.5600,6.0668 l 14.5600,3.1563 "/></g></g><g stroke-linejoin="round" stroke-opacity="1.0" fill-opacity="0.0" stroke="rgb(226,66,100)" stroke-width="3.9999999999999987" fill="rgb(0,0,0)" stroke-linecap="round" stroke-miterlimit="10.0"><defs><clipPath id="myClip5"><path d="M 62.0000,10.0000 v 538.0000 h 728.0000 v -538.0000 Z"/></clipPath></defs><g clip-path="url(#myClip5)"><path d="M 62.0000,368.6667 h 14.5600 l 14.5600,-23.4747 l 14.5600,7.9194 l 14.5600,-2.6272 l 14.5600,-2.3672 l 14.5600,-2.2955 l 14.5600,-1.4185 l 14.5600,-2.3421 l 14.5600,-0.6474 l 14.5600,-1.7754 l 14.5600,-1.1764 l 14.5600,-1.7037 l 14.5600,-0.9774 l 14.5600,-0.7245 l 14.5600,-1.8059 l 14.5600,-0.0968 l 14.5600,-0.3892 l 14.5600,-1.6839 l 14.5600,-3.0487 l 14.5600,1.2033 l 14.5600,-3.0218 l 14.5600,0.3533 l 14.5600,-0.7891 l 14.5600,-3.0307 l 14.5600,0.0699 l 14.5600,-1.6911 l 14.5600,-1.3324 l 14.5600,-1.1710 l 14.5600,-1.9709 l 14.5600,-2.2722 l 14.5600,-1.0634 l 14.5600,-0.4501 l 14.5600,-1.4795 l 14.5600,-1.3916 l 14.5600,-0.4555 l 14.5600,-2.4730 l 14.5600,-1.9045 l 14.5600,-2.0211 l 14.5600,-2.6792 l 14.5600,0.7891 l 14.5600,-3.4575 l 14.5600,-1.5763 l 14.5600,-0.4178 l 14.5600,-3.2119 l 14.5600,-0.1255 l 14.5600,-1.1047 l 14.5600,-2.9967 l 14.5600,-0.6994 l 14.5600,-1.8059 l 14.5600,-1.0670 "/></g></g><g stroke-linejoin="round" stroke-opacity="1.0" fill-opacity="0.0" stroke="rgb(255,110,64)" stroke-width="3.9999999999999987" fill="rgb(0,0,0)" stroke-linecap="round" stroke-miterlimit="10.0"><defs><clipPath id="myClip6"><path d="M 62.0000,10.0000 v 538.0000 h 728.0000 v -538.0000 Z"/></clipPath></defs><g clip-path="url(#myClip6)"><path d="M 62.0000,368.6667 h 14.5600 l 14.5600,-16.8430 l 14.5600,-0.7191 l 14.5600,-5.7494 l 14.5600,-4.1856 l 14.5600,-4.7649 l 14.5600,-4.2950 l 14.5600,-6.1045 l 14.5600,-5.3872 l 14.5600,-4.2197 l 14.5600,-5.4625 l 14.5600,-4.7846 l 14.5600,-5.3280 l 14.5600,-4.4439 l 14.5600,-4.3668 l 14.5600,-6.5026 l 14.5600,-4.2520 l 14.5600,-6.0597 l 14.5600,-4.7721 l 14.5600,-5.0877 l 14.5600,-6.6066 l 14.5600,-4.5766 l 14.5600,-3.7409 l 14.5600,-6.8290 l 14.5600,-4.2000 l 14.5600,-6.6156 l 14.5600,-3.0863 l 14.5600,-5.5809 l 14.5600,-4.4403 l 14.5600,-4.6250 l 14.5600,-7.3814 l 14.5600,-3.1383 l 14.5600,-4.5353 l 14.5600,-6.1422 l 14.5600,-6.4919 l 14.5600,-3.3571 l 14.5600,-6.3358 l 14.5600,-3.7230 l 14.5600,-5.7028 l 14.5600,-4.2394 l 14.5600,-6.6013 l 14.5600,-2.6739 l 14.5600,-6.6156 l 14.5600,-4.3811 l 14.5600,-5.3531 l 14.5600,-5.7297 l 14.5600,-5.5235 l 14.5600,-6.3825 l 14.5600,-4.0404 l 14.5600,-5.9646 "/></g></g><g stroke-linejoin="round" stroke-opacity="1.0" fill-opacity="0.0" stroke="rgb(255,166,0)" stroke-width="3.9999999999999987" fill="rgb(0,0,0)" stroke-linecap="round" stroke-miterlimit="10.0"><defs><clipPath id="myClip7"><path d="M 62.0000,10.0000 v 538.0000 h 728.0000 v -538.0000 Z"/></clipPath></defs><g clip-path="url(#myClip7)"><path d="M 62.0000,368.6667 h 14.5600 l 14.5600,-8.8196 l 14.5600,-5.6060 l 14.5600,-6.6820 l 14.5600,-7.1034 l 14.5600,-7.2289 l 14.5600,-6.7268 l 14.5600,-6.6945 l 14.5600,-6.3484 l 14.5600,-6.4488 l 14.5600,-7.5607 l 14.5600,-5.8122 l 14.5600,-6.7304 l 14.5600,-5.6472 l 14.5600,-7.0729 l 14.5600,-6.1565 l 14.5600,-5.8319 l 14.5600,-6.8936 l 14.5600,-5.9019 l 14.5600,-6.3072 l 14.5600,-7.3401 l 14.5600,-6.0579 l 14.5600,-6.6515 l 14.5600,-8.2099 l 14.5600,-6.0041 l 14.5600,-8.0754 l 14.5600,-6.1744 l 14.5600,-6.4112 l 14.5600,-7.7382 l 14.5600,-5.8803 l 14.5600,-6.5995 l 14.5600,-5.6257 l 14.5600,-7.8691 l 14.5600,-6.2354 l 14.5600,-5.5719 l 14.5600,-6.4578 l 14.5600,-8.3731 l 14.5600,-6.4972 l 14.5600,-6.8111 l 14.5600,-7.8297 l 14.5600,-4.6501 l 14.5600,-9.2590 l 14.5600,-5.2706 l 14.5600,-6.2085 l 14.5600,-6.4076 l 14.5600,-6.6425 l 14.5600,-6.5636 l 14.5600,-6.6515 l 14.5600,-5.7100 l 14.5600,-8.3247 "/></g></g><g stroke-linejoin="round" stroke-opacity="1.0" fill-opacity="0.0" stroke="rgb(5,45,105)" stroke-width="3.9999999999999987" fill="rgb(0,0,0)" stroke-linecap="round" stroke-miterlimit="10.0"><defs><clipPath id="myClip8"><path d="M 62.0000,10.0000 v 538.0000 h 728.0000 v -538.0000 Z"/></clipPath></defs><g clip-path="url(#myClip8)"><path d="M 62.0000,368.6667 h 14.5600 l 14.5600,-1.7431 l 14.5600,-6.6909 l 14.5600,-7.4746 l 14.5600,-5.6687 l 14.5600,-8.2475 l 14.5600,-7.5571 l 14.5600,-7.2773 l 14.5600,-5.5199 l 14.5600,-6.4201 l 14.5600,-8.1292 l 14.5600,-6.5475 l 14.5600,-6.8469 l 14.5600,-7.5212 l 14.5600,-5.8929 l 14.5600,-7.4872 l 14.5600,-5.6257 l 14.5600,-7.4621 l 14.5600,-5.9054 l 14.5600,-7.0173 l 14.5600,-5.9700 l 14.5600,-7.3957 l 14.5600,-6.0059 l 14.5600,-8.2278 l 14.5600,-8.0682 l 14.5600,-6.1942 l 14.5600,-6.4739 l 14.5600,-6.3753 l 14.5600,-7.7849 l 14.5600,-6.0292 l 14.5600,-7.5876 l 14.5600,-7.5481 l 14.5600,-5.7243 l 14.5600,-5.9377 l 14.5600,-6.2354 l 14.5600,-7.0460 l 14.5600,-6.5295 l 14.5600,-6.6246 l 14.5600,-6.7519 l 14.5600,-7.4800 l 14.5600,-5.7925 l 14.5600,-7.0460 l 14.5600,-6.3484 l 14.5600,-6.5995 l 14.5600,-6.7806 l 14.5600,-7.0424 l 14.5600,-8.5040 l 14.5600,-7.7633 l 14.5600,-7.0048 l 14.5600,-6.8469 "/></g></g><g stroke-linejoin="round" stroke-opacity="1.0" fill-opacity="0.0" stroke="rgb(101,50,125)" stroke-width="3.9999999999999987" fill="rgb(0,0,0)" stroke-linecap="round" stroke-miterlimit="10.0"><defs><clipPath id="myClip9"><path d="M 62.0000,10.0000 v 538.0000 h 728.0000 v -538.0000 Z"/></clipPath></defs><g clip-path="url(#myClip9)"><path d="M 62.0000,368.6667 h 14.5600 l 14.5600,6.0973 l 14.5600,-7.0388 l 14.5600,-6.3018 l 14.5600,-4.7075 l 14.5600,-5.6885 l 14.5600,-6.3072 l 14.5600,-6.5044 l 14.5600,-4.8241 l 14.5600,-7.8315 l 14.5600,-6.4273 l 14.5600,-6.3627 l 14.5600,-4.1964 l 14.5600,-7.2487 l 14.5600,-5.8247 l 14.5600,-6.2031 l 14.5600,-5.6472 l 14.5600,-6.3502 l 14.5600,-4.9765 l 14.5600,-5.7692 l 14.5600,-7.0137 l 14.5600,-6.1009 l 14.5600,-6.0812 l 14.5600,-6.6389 l 14.5600,-5.8696 l 14.5600,-4.5999 l 14.5600,-8.4323 l 14.5600,-5.5665 l 14.5600,-5.7871 l 14.5600,-7.6970 l 14.5600,-5.7692 l 14.5600,-6.4183 l 14.5600,-5.5414 l 14.5600,-6.8810 l 14.5600,-4.8832 l 14.5600,-6.2551 l 14.5600,-5.7853 l 14.5600,-6.7465 l 14.5600,-5.6974 l 14.5600,-6.1673 l 14.5600,-5.7638 l 14.5600,-7.0173 l 14.5600,-6.1691 l 14.5600,-5.5701 l 14.5600,-6.0382 l 14.5600,-6.4650 l 14.5600,-5.6544 l 14.5600,-7.1339 l 14.5600,-5.2096 l 14.5600,-6.5313 "/></g></g><g stroke-linejoin="round" stroke-opacity="1.0" fill-opacity="0.0" stroke="rgb(172,50,122)" stroke-width="3.9999999999999987" fill="rgb(0,0,0)" stroke-linecap="round" stroke-miterlimit="10.0"><defs><clipPath id="myClip10"><path d="M 62.0000,10.0000 v 538.0000 h 728.0000 v -538.0000 Z"/></clipPath></defs><g clip-path="url(#myClip10)"><path d="M 62.0000,368.6667 h 14.5600 l 14.5600,11.3769 l 14.5600,-4.7003 l 14.5600,-5.1522 l 14.5600,-4.2699 l 14.5600,-4.0296 l 14.5600,-5.7530 l 14.5600,-4.2412 l 14.5600,-6.3341 l 14.5600,-4.1283 l 14.5600,-5.7440 l 14.5600,-4.1946 l 14.5600,-4.7326 l 14.5600,-5.6777 l 14.5600,-4.6196 l 14.5600,-4.2699 l 14.5600,-5.8965 l 14.5600,-4.6949 l 14.5600,-4.9604 l 14.5600,-5.8032 l 14.5600,-4.2628 l 14.5600,-4.4959 l 14.5600,-4.4331 l 14.5600,-5.1540 l 14.5600,-5.0267 l 14.5600,-5.6741 l 14.5600,-4.1534 l 14.5600,-4.8223 l 14.5600,-5.9037 l 14.5600,-4.8707 l 14.5600,-4.7918 l 14.5600,-4.4564 l 14.5600,-4.8043 l 14.5600,-4.8528 l 14.5600,-5.8534 l 14.5600,-3.6692 l 14.5600,-5.4589 l 14.5600,-5.0787 l 14.5600,-3.6763 l 14.5600,-4.7739 l 14.5600,-5.5396 l 14.5600,-4.9370 l 14.5600,-4.8994 l 14.5600,-4.3937 l 14.5600,-3.6602 l 14.5600,-6.2175 l 14.5600,-4.8994 l 14.5600,-5.0626 l 14.5600,-5.9359 l 14.5600,-4.3094 "/></g></g><g stroke-linejoin="round" stroke-opacity="1.0" fill-opacity="0.0" stroke="rgb(226,66,100)" stroke-width="3.9999999999999987" fill="rgb(0,0,0)" stroke-linecap="round" stroke-miterlimit="10.0"><defs><clipPath id="myClip11"><path d="M 62.0000,10.0000 v 538.0000 h 728.0000 v -538.0000 Z"/></clipPath></defs><g clip-path="url(#myClip11)"><path d="M 62.0000,368.6667 h 14.5600 l 14.5600,17.8616 l 14.5600,-3.8055 l 14.5600,-3.2513 l 14.5600,-3.2782 l 14.5600,-2.9303 l 14.5600,-3.7265 l 14.5600,-3.9938 l 14.5600,-2.2632 l 14.5600,-3.5795 l 14.5600,-3.5185 l 14.5600,-2.5663 l 14.5600,-3.2423 l 14.5600,-2.7940 l 14.5600,-3.8216 l 14.5600,-2.7761 l 14.5600,-3.5867 l 14.5600,-2.2829 l 14.5600,-3.8395 l 14.5600,-3.7050 l 14.5600,-2.2614 l 14.5600,-3.6763 l 14.5600,-2.6147 l 14.5600,-2.2327 l 14.5600,-3.5006 l 14.5600,-3.4324 l 14.5600,-3.3392 l 14.5600,-3.6405 l 14.5600,-3.1599 l 14.5600,-2.4282 l 14.5600,-4.6752 l 14.5600,-3.2316 l 14.5600,-2.9949 l 14.5600,-3.5849 l 14.5600,-3.3123 l 14.5600,-4.7093 l 14.5600,-4.0171 l 14.5600,-3.3320 l 14.5600,-2.6398 l 14.5600,-3.8682 l 14.5600,-3.8449 l 14.5600,-1.8202 l 14.5600,-3.8915 l 14.5600,-3.0451 l 14.5600,-3.7301 l 14.5600,-4.8205 l 14.5600,-3.4037 l 14.5600,-3.4504 l 14.5600,-3.0146 l 14.5600,-2.8622 "/></g></g><g stroke-linejoin="round" stroke-opacity="1.0" fill-opacity="0.0" stroke="rgb(255,110,64)" stroke-width="3.9999999999999987" fill="rgb(0,0,0)" stroke-linecap="round" stroke-miterlimit="10.0"><defs><clipPath id="myClip12"><path d="M 62.0000,10.0000 v 538.0000 h 728.0000 v -538.0000 Z"/></clipPath></defs><g clip-path="url(#myClip12)"><path d="M 62.0000,368.6667 h 14.5600 l 14.5600,26.5055 l 14.5600,-1.2769 l 14.5600,-2.2829 l 14.5600,-0.5219 l 14.5600,-1.3163 l 14.5600,-1.8525 l 14.5600,-2.1412 l 14.5600,-1.2177 l 14.5600,-2.1897 l 14.5600,-1.0168 l 14.5600,-1.7162 l 14.5600,-0.9953 l 14.5600,-1.9601 l 14.5600,-1.5387 l 14.5600,-1.9063 l 14.5600,-1.4114 l 14.5600,-2.0874 l 14.5600,-1.2786 l 14.5600,-1.7772 l 14.5600,-1.8848 l 14.5600,-1.0814 l 14.5600,-3.1545 l 14.5600,-2.0229 l 14.5600,-0.9307 l 14.5600,-2.6057 l 14.5600,-1.5656 l 14.5600,-1.2123 l 14.5600,-2.4909 l 14.5600,-0.1255 l 14.5600,-2.1072 l 14.5600,-1.8938 l 14.5600,-2.3815 l 14.5600,-1.6122 l 14.5600,-2.2955 l 14.5600,-1.5476 l 14.5600,-2.3690 l 14.5600,-1.3396 l 14.5600,-3.0182 l 14.5600,-1.5441 l 14.5600,-1.0222 l 14.5600,-2.4067 l 14.5600,-2.2937 l 14.5600,-1.5154 l 14.5600,-1.6875 l 14.5600,-1.5100 l 14.5600,-2.3367 l 14.5600,-2.2076 l 14.5600,-1.0796 l 14.5600,-2.5071 "/></g></g><g stroke-linejoin="round" stroke-opacity="1.0" fill-opacity="0.0" stroke="rgb(255,166,0)" stroke-width="3.9999999999999987" fill="rgb(0,0,0)" stroke-linecap="round" stroke-miterlimit="10.0"><defs><clipPath id="myClip13"><path d="M 62.0000,10.0000 v 538.0000 h 728.0000 v -538.0000 Z"/></clipPath></defs><g clip-path="url(#myClip13)"><path d="M 62.0000,368.6667 h 14.5600 l 14.5600,33.4779 l 14.5600,-0.0735 l 14.5600,-0.6438 l 14.5600,0.8536 l 14.5600,0.3712 l 14.5600,0.2439 l 14.5600,0.0879 l 14.5600,-1.5261 l 14.5600,0.6528 l 14.5600,1.8220 l 14.5600,-0.8429 l 14.5600,0.3981 l 14.5600,-0.4232 l 14.5600,-0.4161 l 14.5600,0.5595 l 14.5600,-0.2959 l 14.5600,-0.8106 l 14.5600,1.0599 l 14.5600,0.8590 l 14.5600,0.1775 l 14.5600,0.2331 l 14.5600,-0.8321 l 14.5600,1.4203 l 14.5600,-1.4239 l 14.5600,1.5656 l 14.5600,0.0197 l 14.5600,0.1058 l 14.5600,-0.0054 l 14.5600,-1.0025 l 14.5600,1.0688 l 14.5600,0.0520 l 14.5600,-1.1800 l 14.5600,-0.4555 l 14.5600,0.2529 l 14.5600,0.6348 l 14.5600,0.7030 l 14.5600,0.0915 l 14.5600,0.0825 l 14.5600,2.5160 l 14.5600,-1.2266 l 14.5600,-0.0466 l 14.5600,0.3587 l 14.5600,-0.0395 l 14.5600,1.2733 l 14.5600,-1.9727 l 14.5600,0.7460 l 14.5600,1.0043 l 14.5600,0.1237 l 14.5600,-0.9541 "/></g></g><g stroke-linejoin="round" stroke-opacity="1.0" fill-opacity="0.0" stroke="rgb(5,45,105)" stroke-width="3.9999999999999987" fill="rgb(0,0,0)" stroke-linecap="round" stroke-miterlimit="10.0"><defs><clipPath id="myClip14"><path d="M 62.0000,10.0000 v 538.0000 h 728.0000 v -538.0000 Z"/></clipPath></defs><g clip-path="url(#myClip14)"><path d="M 62.0000,368.6667 h 14.5600 l 14.5600,41.6448 l 14.5600,3.8467 l 14.5600,0.0843 l 14.5600,2.3349 l 14.5600,0.9038 l 14.5600,2.9231 l 14.5600,1.9798 l 14.5600,2.7976 l 14.5600,0.0520 l 14.5600,2.8424 l 14.5600,2.5125 l 14.5600,0.3174 l 14.5600,0.2923 l 14.5600,2.8640 l 14.5600,3.0558 l 14.5600,0.1668 l 14.5600,1.7628 l 14.5600,2.3331 l 14.5600,2.5429 l 14.5600,1.3163 l 14.5600,1.3163 l 14.5600,0.3569 l 14.5600,1.8400 l 14.5600,2.6129 l 14.5600,0.2062 l 14.5600,3.0002 l 14.5600,2.3349 l 14.5600,1.6983 l 14.5600,1.7611 l 14.5600,2.3080 l 14.5600,1.6660 l 14.5600,1.2356 l 14.5600,1.1459 l 14.5600,2.0821 l 14.5600,1.4418 l 14.5600,2.7707 l 14.5600,2.3134 l 14.5600,2.0623 l 14.5600,1.4365 l 14.5600,1.1065 l 14.5600,1.6678 l 14.5600,1.4490 l 14.5600,1.7485 l 14.5600,1.6373 l 14.5600,2.3403 l 14.5600,2.4694 l 14.5600,2.8496 l 14.5600,2.3869 l 14.5600,1.4365 "/></g></g><g stroke-linejoin="bevel" stroke-opacity="0.0" fill-opacity="1.0" stroke="rgb(0,0,0)" stroke-width="0.0" fill="rgb(0,0,0)" stroke-linecap="butt" stroke-miterlimit="10.0"><path d="M 42.0000,397.6723 ZM 33.8655,396.1261 c -2.0504,0.0000 -3.6471,-0.6387 -3.6471 -0.6387c -1.5966,-0.6387 -2.7059,-1.7143 -2.7059 -1.7143c -1.1092,-1.0756 -1.6807,-2.5042 -1.6807 -2.5042c -0.5714,-1.4286 -0.5714,-3.0084 -0.5714 -3.0084c -0.0000,-1.6134 0.5882,-2.7731 0.5882 -2.7731c 0.5882,-1.1597 1.3613,-2.0000 1.3613 -2.0000l 1.7815,1.3782 c -0.6387,0.7395 -1.0420,1.5294 -1.0420 1.5294c -0.4034,0.7899 -0.4034,1.7647 -0.4034 1.7647c 0.0000,1.1092 0.4538,2.0504 0.4538 2.0504c 0.4538,0.9412 1.2941,1.6134 1.2941 1.6134c 0.8403,0.6723 2.0000,1.0588 2.0000 1.0588c 1.1597,0.3866 2.5714,0.3866 2.5714 0.3866c 1.4118,-0.0000 2.5546,-0.3697 2.5546 -0.3697c 1.1429,-0.3697 1.9664,-1.0252 1.9664 -1.0252c 0.8235,-0.6555 1.2773,-1.5966 1.2773 -1.5966c 0.4538,-0.9412 0.4538,-2.0504 0.4538 -2.0504c -0.0000,-1.1765 -0.4874,-2.1345 -0.4874 -2.1345c -0.4874,-0.9580 -1.1597,-1.6975 -1.1597 -1.6975l 1.8151,-1.2437 c 0.9748,1.1092 1.5462,2.4706 1.5462 2.4706c 0.5714,1.3613 0.5714,2.8403 0.5714 2.8403c 0.0000,1.6134 -0.5714,3.0252 -0.5714 3.0252c -0.5714,1.4118 -1.6639,2.4370 -1.6639 2.4370c -1.0924,1.0252 -2.6891,1.6134 -2.6891 1.6134c -1.5966,0.5882 -3.6134,0.5882 -3.6134 0.5882ZM 42.0000,382.3445 ZM 25.6639,379.8235 l -0.0000,-2.7899 l 9.9832,-0.0000 c 2.3193,-0.0000 3.3445,-0.7227 3.3445 -0.7227c 1.0252,-0.7227 1.0252,-2.3361 1.0252 -2.3361c -0.0000,-1.2773 -0.6555,-2.2521 -0.6555 -2.2521c -0.6555,-0.9748 -2.1008,-2.1513 -2.1008 -2.1513l -11.5966,0.0000 l -0.0000,-2.7563 l 16.3361,-0.0000 l 0.0000,2.2857 l -2.5546,0.2353 l 0.0000,0.1008 c 1.3445,1.1429 2.1513,2.4034 2.1513 2.4034c 0.8067,1.2605 0.8067,2.9748 0.8067 2.9748c 0.0000,2.6218 -1.6134,3.8151 -1.6134 3.8151c -1.6134,1.1933 -4.7731,1.1933 -4.7731 1.1933l -10.3529,0.0000 ZM 42.0000,364.0588 ZM 25.6639,361.3025 l -0.0000,-2.2857 l 2.3529,-0.2353 l -0.0000,-0.1008 c -1.1765,-1.0756 -1.9664,-2.3361 -1.9664 -2.3361c -0.7899,-1.2605 -0.7899,-2.7395 -0.7899 -2.7395c -0.0000,-1.8824 0.8235,-2.9412 0.8235 -2.9412c 0.8235,-1.0588 2.3025,-1.5630 2.3025 -1.5630c -1.4118,-1.2773 -2.2689,-2.5714 -2.2689 -2.5714c -0.8571,-1.2941 -0.8571,-2.8067 -0.8571 -2.8067c -0.0000,-2.5210 1.6134,-3.7479 1.6134 -3.7479c 1.6134,-1.2269 4.7731,-1.2269 4.7731 -1.2269l 10.3529,-0.0000 l 0.0000,2.7563 l -9.9832,0.0000 c -2.3193,0.0000 -3.3445,0.7395 -3.3445 0.7395c -1.0252,0.7395 -1.0252,2.2857 -1.0252 2.2857c 0.0000,1.8487 2.5210,4.1008 2.5210 4.1008l 11.8319,-0.0000 l 0.0000,2.7563 l -9.9832,0.0000 c -2.3193,0.0000 -3.3445,0.7395 -3.3445 0.7395c -1.0252,0.7395 -1.0252,2.3193 -1.0252 2.3193c 0.0000,1.8487 2.5210,4.1008 2.5210 4.1008l 11.8319,-0.0000 l 0.0000,2.7563 l -16.3361,0.0000 ZM 42.0000,336.1933 ZM 25.6639,333.6723 l -0.0000,-2.7899 l 9.9832,-0.0000 c 2.3193,-0.0000 3.3445,-0.7227 3.3445 -0.7227c 1.0252,-0.7227 1.0252,-2.3361 1.0252 -2.3361c -0.0000,-1.2773 -0.6555,-2.2521 -0.6555 -2.2521c -0.6555,-0.9748 -2.1008,-2.1513 -2.1008 -2.1513l -11.5966,0.0000 l -0.0000,-2.7563 l 16.3361,-0.0000 l 0.0000,2.2857 l -2.5546,0.2353 l 0.0000,0.1008 c 1.3445,1.1429 2.1513,2.4034 2.1513 2.4034c 0.8067,1.2605 0.8067,2.9748 0.8067 2.9748c 0.0000,2.6218 -1.6134,3.8151 -1.6134 3.8151c -1.6134,1.1933 -4.7731,1.1933 -4.7731 1.1933l -10.3529,0.0000 ZM 42.0000,317.9076 ZM 18.0672,315.1513 l -0.0000,-2.7563 l 20.8403,-0.0000 c 0.6723,-0.0000 0.9412,-0.2353 0.9412 -0.2353c 0.2689,-0.2353 0.2689,-0.5378 0.2689 -0.5378l -0.0000,-0.2521 c 0.0000,0.0000 -0.0672,-0.3529 -0.0672 -0.3529l 2.0840,-0.3697 c 0.1345,0.2689 0.2017,0.6387 0.2017 0.6387c 0.0672,0.3697 0.0672,0.9412 0.0672 0.9412c 0.0000,1.5798 -0.9412,2.2521 -0.9412 2.2521c -0.9412,0.6723 -2.7563,0.6723 -2.7563 0.6723l -20.6387,0.0000 ZM 42.0000,309.3361 ZM 37.7647,307.3866 c -2.6891,0.0000 -4.1176,-2.4034 -4.1176 -2.4034c -1.4286,-2.4034 -2.0000,-7.6471 -2.0000 -7.6471c -0.7731,0.0000 -1.5126,0.1513 -1.5126 0.1513c -0.7395,0.1513 -1.3109,0.5378 -1.3109 0.5378c -0.5714,0.3866 -0.9244,1.0252 -0.9244 1.0252c -0.3529,0.6387 -0.3529,1.6471 -0.3529 1.6471c 0.0000,1.4454 0.5378,2.6723 0.5378 2.6723c 0.5378,1.2269 1.2101,2.2017 1.2101 2.2017l -1.9160,1.1092 c -0.7395,-1.1429 -1.4286,-2.7899 -1.4286 -2.7899c -0.6891,-1.6471 -0.6891,-3.6303 -0.6891 -3.6303c -0.0000,-2.9916 1.8319,-4.3361 1.8319 -4.3361c 1.8319,-1.3445 4.8908,-1.3445 4.8908 -1.3445l 10.0168,-0.0000 l 0.0000,2.2857 l -1.9496,0.2353 l 0.0000,0.0672 c 0.9748,1.1765 1.6639,2.5378 1.6639 2.5378c 0.6891,1.3613 0.6891,2.8739 0.6891 2.8739c 0.0000,2.0840 -1.2101,3.4454 -1.2101 3.4454c -1.2101,1.3613 -3.4286,1.3613 -3.4286 1.3613ZM 37.7647,307.3866 ZM 37.5630,304.6639 c 1.4118,-0.0000 2.0168,-0.8235 2.0168 -0.8235c 0.6050,-0.8235 0.6050,-2.0336 0.6050 -2.0336c -0.0000,-1.1765 -0.5546,-2.2353 -0.5546 -2.2353c -0.5546,-1.0588 -1.6303,-2.2353 -1.6303 -2.2353l -4.5378,0.0000 c 0.2689,2.0504 0.6387,3.4622 0.6387 3.4622c 0.3697,1.4118 0.8739,2.2689 0.8739 2.2689c 0.5042,0.8571 1.1597,1.2269 1.1597 1.2269c 0.6555,0.3697 1.4286,0.3697 1.4286 0.3697ZM 42.0000,292.1261 ZM 27.9160,288.8992 l 0.0000,2.4202 l -2.0840,0.0000 l -0.1681,-2.5546 l -4.5714,-0.3361 l -0.0000,-2.3193 l 4.5714,-0.0000 l -0.0000,-4.4034 l 2.2521,-0.0000 l 0.0000,4.4034 l 9.0756,-0.0000 c 1.5126,-0.0000 2.3361,-0.5546 2.3361 -0.5546c 0.8235,-0.5546 0.8235,-1.9664 0.8235 -1.9664c -0.0000,-0.4370 -0.1345,-0.9412 -0.1345 -0.9412c -0.1345,-0.5042 -0.3025,-0.9076 -0.3025 -0.9076l 2.0840,-0.5378 c 0.2353,0.6723 0.4202,1.4622 0.4202 1.4622c 0.1849,0.7899 0.1849,1.5630 0.1849 1.5630c 0.0000,1.3109 -0.4034,2.2017 -0.4034 2.2017c -0.4034,0.8908 -1.1092,1.4454 -1.1092 1.4454c -0.7059,0.5546 -1.7143,0.7899 -1.7143 0.7899c -1.0084,0.2353 -2.2185,0.2353 -2.2185 0.2353l -9.0420,0.0000 ZM 42.0000,280.7647 ZM 22.3025,276.5966 c 0.0000,0.8067 -0.5042,1.3613 -0.5042 1.3613c -0.5042,0.5546 -1.2773,0.5546 -1.2773 0.5546c -0.8067,0.0000 -1.2941,-0.5546 -1.2941 -0.5546c -0.4874,-0.5546 -0.4874,-1.3613 -0.4874 -1.3613c -0.0000,-0.8067 0.4874,-1.3613 0.4874 -1.3613c 0.4874,-0.5546 1.2941,-0.5546 1.2941 -0.5546c 0.7731,-0.0000 1.2773,0.5546 1.2773 0.5546c 0.5042,0.5546 0.5042,1.3613 0.5042 1.3613ZM 22.3025,276.5966 ZM 25.6639,278.0084 l -0.0000,-2.7563 l 16.3361,-0.0000 l 0.0000,2.7563 l -16.3361,0.0000 ZM 42.0000,272.4958 ZM 25.6639,272.0924 l -0.0000,-2.8571 l 9.2773,-3.0924 c 1.2101,-0.3697 2.4202,-0.7563 2.4202 -0.7563c 1.2101,-0.3866 2.3866,-0.7563 2.3866 -0.7563l -0.0000,-0.1345 c -1.1765,-0.3697 -2.3866,-0.7395 -2.3866 -0.7395l -2.4202,-0.7395 l -9.2773,-3.0924 l -0.0000,-2.7227 l 16.3361,5.7815 l 0.0000,3.2269 ZM 42.0000,256.9328 ZM 33.8655,255.3866 c -2.0168,0.0000 -3.6134,-0.6218 -3.6134 -0.6218c -1.5966,-0.6218 -2.7059,-1.6471 -2.7059 -1.6471c -1.1092,-1.0252 -1.6975,-2.3361 -1.6975 -2.3361c -0.5882,-1.3109 -0.5882,-2.7227 -0.5882 -2.7227c -0.0000,-1.5462 0.5378,-2.7731 0.5378 -2.7731c 0.5378,-1.2269 1.5462,-2.0504 1.5462 -2.0504c 1.0084,-0.8235 2.4202,-1.2605 2.4202 -1.2605c 1.4118,-0.4370 3.1597,-0.4370 3.1597 -0.4370c 0.9076,-0.0000 1.5126,0.1008 1.5126 0.1008l 0.0000,11.0252 c 2.6555,-0.1681 4.2017,-1.6303 4.2017 -1.6303c 1.5462,-1.4622 1.5462,-3.8151 1.5462 -3.8151c -0.0000,-1.1765 -0.3529,-2.1681 -0.3529 -2.1681c -0.3529,-0.9916 -0.9244,-1.8992 -0.9244 -1.8992l 1.8151,-0.9748 c 0.6723,1.0756 1.1765,2.3866 1.1765 2.3866c 0.5042,1.3109 0.5042,2.9916 0.5042 2.9916c 0.0000,1.6471 -0.5882,3.0756 -0.5882 3.0756c -0.5882,1.4286 -1.6807,2.4874 -1.6807 2.4874c -1.0924,1.0588 -2.6723,1.6639 -2.6723 1.6639c -1.5798,0.6050 -3.5966,0.6050 -3.5966 0.6050ZM 33.8655,255.3866 ZM 32.6218,243.9580 c -2.5210,0.0000 -3.8487,1.0588 -3.8487 1.0588c -1.3277,1.0588 -1.3277,2.9748 -1.3277 2.9748c 0.0000,0.8739 0.3529,1.6639 0.3529 1.6639c 0.3529,0.7899 1.0084,1.4286 1.0084 1.4286c 0.6555,0.6387 1.6134,1.0588 1.6134 1.0588c 0.9580,0.4202 2.2017,0.5546 2.2017 0.5546l -0.0000,-8.7395 ZM 42.0000,233.4706 ZM 25.6639,230.7143 l -0.0000,-2.2857 l 2.9580,-0.2353 l -0.0000,-0.1008 c -1.5462,-0.8403 -2.4538,-2.0336 -2.4538 -2.0336c -0.9076,-1.1933 -0.9076,-2.6050 -0.9076 -2.6050c -0.0000,-0.9748 0.3361,-1.7479 0.3361 -1.7479l 2.4202,0.5378 c -0.1345,0.4034 -0.2017,0.7395 -0.2017 0.7395c -0.0672,0.3361 -0.0672,0.8403 -0.0672 0.8403c 0.0000,1.0420 0.8403,2.1681 0.8403 2.1681c 0.8403,1.1261 2.9244,1.9664 2.9244 1.9664l 10.4874,-0.0000 l 0.0000,2.7563 l -16.3361,0.0000 ZM 42.0000,222.1429 ZM 33.8655,220.5966 c -2.0168,0.0000 -3.6134,-0.6218 -3.6134 -0.6218c -1.5966,-0.6218 -2.7059,-1.6471 -2.7059 -1.6471c -1.1092,-1.0252 -1.6975,-2.3361 -1.6975 -2.3361c -0.5882,-1.3109 -0.5882,-2.7227 -0.5882 -2.7227c -0.0000,-1.5462 0.5378,-2.7731 0.5378 -2.7731c 0.5378,-1.2269 1.5462,-2.0504 1.5462 -2.0504c 1.0084,-0.8235 2.4202,-1.2605 2.4202 -1.2605c 1.4118,-0.4370 3.1597,-0.4370 3.1597 -0.4370c 0.9076,-0.0000 1.5126,0.1008 1.5126 0.1008l 0.0000,11.0252 c 2.6555,-0.1681 4.2017,-1.6303 4.2017 -1.6303c 1.5462,-1.4622 1.5462,-3.8151 1.5462 -3.8151c -0.0000,-1.1765 -0.3529,-2.1681 -0.3529 -2.1681c -0.3529,-0.9916 -0.9244,-1.8992 -0.9244 -1.8992l 1.8151,-0.9748 c 0.6723,1.0756 1.1765,2.3866 1.1765 2.3866c 0.5042,1.3109 0.5042,2.9916 0.5042 2.9916c 0.0000,1.6471 -0.5882,3.0756 -0.5882 3.0756c -0.5882,1.4286 -1.6807,2.4874 -1.6807 2.4874c -1.0924,1.0588 -2.6723,1.6639 -2.6723 1.6639c -1.5798,0.6050 -3.5966,0.6050 -3.5966 0.6050ZM 33.8655,220.5966 ZM 32.6218,209.1681 c -2.5210,0.0000 -3.8487,1.0588 -3.8487 1.0588c -1.3277,1.0588 -1.3277,2.9748 -1.3277 2.9748c 0.0000,0.8739 0.3529,1.6639 0.3529 1.6639c 0.3529,0.7899 1.0084,1.4286 1.0084 1.4286c 0.6555,0.6387 1.6134,1.0588 1.6134 1.0588c 0.9580,0.4202 2.2017,0.5546 2.2017 0.5546l -0.0000,-8.7395 ZM 42.0000,205.3025 ZM 25.6639,204.4958 l -0.0000,-2.8235 l 9.4454,-2.4202 c 1.1765,-0.2689 2.2857,-0.5042 2.2857 -0.5042c 1.1092,-0.2353 2.2521,-0.4706 2.2521 -0.4706l -0.0000,-0.1345 c -1.1429,-0.2689 -2.2689,-0.5378 -2.2689 -0.5378c -1.1261,-0.2689 -2.2689,-0.5714 -2.2689 -0.5714l -9.4454,-2.5210 l -0.0000,-2.6891 l 9.4454,-2.5546 c 1.1765,-0.3025 2.2857,-0.5882 2.2857 -0.5882c 1.1092,-0.2857 2.2521,-0.5546 2.2521 -0.5546l -0.0000,-0.1345 c -1.1429,-0.2689 -2.2521,-0.5042 -2.2521 -0.5042c -1.1092,-0.2353 -2.2857,-0.5042 -2.2857 -0.5042l -9.4454,-2.3866 l -0.0000,-2.6218 l 16.3361,4.3697 l 0.0000,3.3613 l -8.7731,2.3529 c -1.1765,0.3025 -2.3193,0.5546 -2.3193 0.5546c -1.1429,0.2521 -2.3866,0.5546 -2.3866 0.5546l 0.0000,0.1345 c 1.2437,0.2689 2.4034,0.5378 2.4034 0.5378c 1.1597,0.2689 2.3361,0.6050 2.3361 0.6050l 8.7395,2.2857 l 0.0000,3.2269 ZM 42.0000,181.5042 ZM 37.7647,179.5546 c -2.6891,0.0000 -4.1176,-2.4034 -4.1176 -2.4034c -1.4286,-2.4034 -2.0000,-7.6471 -2.0000 -7.6471c -0.7731,0.0000 -1.5126,0.1513 -1.5126 0.1513c -0.7395,0.1513 -1.3109,0.5378 -1.3109 0.5378c -0.5714,0.3866 -0.9244,1.0252 -0.9244 1.0252c -0.3529,0.6387 -0.3529,1.6471 -0.3529 1.6471c 0.0000,1.4454 0.5378,2.6723 0.5378 2.6723c 0.5378,1.2269 1.2101,2.2017 1.2101 2.2017l -1.9160,1.1092 c -0.7395,-1.1429 -1.4286,-2.7899 -1.4286 -2.7899c -0.6891,-1.6471 -0.6891,-3.6303 -0.6891 -3.6303c -0.0000,-2.9916 1.8319,-4.3361 1.8319 -4.3361c 1.8319,-1.3445 4.8908,-1.3445 4.8908 -1.3445l 10.0168,-0.0000 l 0.0000,2.2857 l -1.9496,0.2353 l 0.0000,0.0672 c 0.9748,1.1765 1.6639,2.5378 1.6639 2.5378c 0.6891,1.3613 0.6891,2.8739 0.6891 2.8739c 0.0000,2.0840 -1.2101,3.4454 -1.2101 3.4454c -1.2101,1.3613 -3.4286,1.3613 -3.4286 1.3613ZM 37.7647,179.5546 ZM 37.5630,176.8319 c 1.4118,-0.0000 2.0168,-0.8235 2.0168 -0.8235c 0.6050,-0.8235 0.6050,-2.0336 0.6050 -2.0336c -0.0000,-1.1765 -0.5546,-2.2353 -0.5546 -2.2353c -0.5546,-1.0588 -1.6303,-2.2353 -1.6303 -2.2353l -4.5378,0.0000 c 0.2689,2.0504 0.6387,3.4622 0.6387 3.4622c 0.3697,1.4118 0.8739,2.2689 0.8739 2.2689c 0.5042,0.8571 1.1597,1.2269 1.1597 1.2269c 0.6555,0.3697 1.4286,0.3697 1.4286 0.3697ZM 42.0000,164.2941 ZM 25.6639,161.5378 l -0.0000,-2.2857 l 2.9580,-0.2353 l -0.0000,-0.1008 c -1.5462,-0.8403 -2.4538,-2.0336 -2.4538 -2.0336c -0.9076,-1.1933 -0.9076,-2.6050 -0.9076 -2.6050c -0.0000,-0.9748 0.3361,-1.7479 0.3361 -1.7479l 2.4202,0.5378 c -0.1345,0.4034 -0.2017,0.7395 -0.2017 0.7395c -0.0672,0.3361 -0.0672,0.8403 -0.0672 0.8403c 0.0000,1.0420 0.8403,2.1681 0.8403 2.1681c 0.8403,1.1261 2.9244,1.9664 2.9244 1.9664l 10.4874,-0.0000 l 0.0000,2.7563 l -16.3361,0.0000 ZM 42.0000,152.9664 ZM 33.8655,151.3866 c -1.9832,0.0000 -3.5798,-0.5882 -3.5798 -0.5882c -1.5966,-0.5882 -2.7059,-1.5630 -2.7059 -1.5630c -1.1092,-0.9748 -1.7143,-2.2521 -1.7143 -2.2521c -0.6050,-1.2773 -0.6050,-2.6891 -0.6050 -2.6891c -0.0000,-1.4118 0.5042,-2.4538 0.5042 -2.4538c 0.5042,-1.0420 1.3782,-2.1176 1.3782 -2.1176l -2.7899,0.1345 l -6.2857,0.0000 l -0.0000,-2.7899 l 23.9328,-0.0000 l 0.0000,2.2857 l -1.9160,0.2353 l 0.0000,0.1008 c 0.9412,0.9748 1.6303,2.2353 1.6303 2.2353c 0.6891,1.2605 0.6891,2.7059 0.6891 2.7059c 0.0000,3.0924 -2.2185,4.9244 -2.2185 4.9244c -2.2185,1.8319 -6.3193,1.8319 -6.3193 1.8319ZM 33.8655,151.3866 ZM 33.8319,148.5294 c 2.9580,-0.0000 4.6050,-1.1765 4.6050 -1.1765c 1.6471,-1.1765 1.6471,-3.3277 1.6471 -3.3277c -0.0000,-1.1429 -0.5546,-2.1513 -0.5546 -2.1513c -0.5546,-1.0084 -1.6975,-2.0168 -1.6975 -2.0168l -8.5378,0.0000 c -0.9412,1.0420 -1.3277,2.0000 -1.3277 2.0000c -0.3866,0.9580 -0.3866,1.9664 -0.3866 1.9664c 0.0000,0.9748 0.4538,1.8319 0.4538 1.8319c 0.4538,0.8571 1.2773,1.4958 1.2773 1.4958c 0.8235,0.6387 1.9664,1.0084 1.9664 1.0084c 1.1429,0.3697 2.5546,0.3697 2.5546 0.3697Z"/></g><g stroke-linejoin="miter" stroke-opacity="1.0" fill-opacity="0.0" stroke="rgb(0,0,0)" stroke-width="3.9999999999999987" fill="rgb(0,0,0)" stroke-linecap="square" stroke-miterlimit="10.0"><path d="M 62.0000,548.0000 v -538.0000 "/></g><g stroke-linejoin="miter" stroke-opacity="1.0" fill-opacity="0.0" stroke="rgb(0,0,0)" stroke-width="0.0" fill="rgb(0,0,0)" stroke-linecap="square" stroke-miterlimit="10.0"><path d="M 62.0000,548.0000 h 728.0000 "/></g><g stroke-linejoin="bevel" stroke-opacity="0.0" fill-opacity="1.0" stroke="rgb(0,0,0)" stroke-width="0.0" fill="rgb(0,0,0)" stroke-linecap="butt" stroke-miterlimit="10.0"><path d="M 389.7647,579.1429 ZM 391.3445,571.0084 c 0.0000,-1.9832 0.5882,-3.5798 0.5882 -3.5798c 0.5882,-1.5966 1.5630,-2.7059 1.5630 -2.7059c 0.9748,-1.1092 2.2521,-1.7143 2.2521 -1.7143c 1.2773,-0.6050 2.6891,-0.6050 2.6891 -0.6050c 1.4118,0.0000 2.4538,0.5042 2.4538 0.5042c 1.0420,0.5042 2.1176,1.3782 2.1176 1.3782l -0.1345,-2.7899 v -6.2857 h 2.7899 v 23.9328 h -2.2857 l -0.2353,-1.9160 h -0.1008 c -0.9748,0.9412 -2.2353,1.6303 -2.2353 1.6303c -1.2605,0.6891 -2.7059,0.6891 -2.7059 0.6891c -3.0924,-0.0000 -4.9244,-2.2185 -4.9244 -2.2185c -1.8319,-2.2185 -1.8319,-6.3193 -1.8319 -6.3193ZM 391.3445,571.0084 ZM 394.2017,570.9748 c 0.0000,2.9580 1.1765,4.6050 1.1765 4.6050c 1.1765,1.6471 3.3277,1.6471 3.3277 1.6471c 1.1429,0.0000 2.1513,-0.5546 2.1513 -0.5546c 1.0084,-0.5546 2.0168,-1.6975 2.0168 -1.6975v -8.5378 c -1.0420,-0.9412 -2.0000,-1.3277 -2.0000 -1.3277c -0.9580,-0.3866 -1.9664,-0.3866 -1.9664 -0.3866c -0.9748,-0.0000 -1.8319,0.4538 -1.8319 0.4538c -0.8571,0.4538 -1.4958,1.2773 -1.4958 1.2773c -0.6387,0.8235 -1.0084,1.9664 -1.0084 1.9664c -0.3697,1.1429 -0.3697,2.5546 -0.3697 2.5546ZM 408.4202,579.1429 ZM 410.3697,574.9076 c 0.0000,-2.6891 2.4034,-4.1176 2.4034 -4.1176c 2.4034,-1.4286 7.6471,-2.0000 7.6471 -2.0000c 0.0000,-0.7731 -0.1513,-1.5126 -0.1513 -1.5126c -0.1513,-0.7395 -0.5378,-1.3109 -0.5378 -1.3109c -0.3866,-0.5714 -1.0252,-0.9244 -1.0252 -0.9244c -0.6387,-0.3529 -1.6471,-0.3529 -1.6471 -0.3529c -1.4454,-0.0000 -2.6723,0.5378 -2.6723 0.5378c -1.2269,0.5378 -2.2017,1.2101 -2.2017 1.2101l -1.1092,-1.9160 c 1.1429,-0.7395 2.7899,-1.4286 2.7899 -1.4286c 1.6471,-0.6891 3.6303,-0.6891 3.6303 -0.6891c 2.9916,0.0000 4.3361,1.8319 4.3361 1.8319c 1.3445,1.8319 1.3445,4.8908 1.3445 4.8908v 10.0168 h -2.2857 l -0.2353,-1.9496 h -0.0672 c -1.1765,0.9748 -2.5378,1.6639 -2.5378 1.6639c -1.3613,0.6891 -2.8739,0.6891 -2.8739 0.6891c -2.0840,-0.0000 -3.4454,-1.2101 -3.4454 -1.2101c -1.3613,-1.2101 -1.3613,-3.4286 -1.3613 -3.4286ZM 410.3697,574.9076 ZM 413.0924,574.7059 c 0.0000,1.4118 0.8235,2.0168 0.8235 2.0168c 0.8235,0.6050 2.0336,0.6050 2.0336 0.6050c 1.1765,0.0000 2.2353,-0.5546 2.2353 -0.5546c 1.0588,-0.5546 2.2353,-1.6303 2.2353 -1.6303v -4.5378 c -2.0504,0.2689 -3.4622,0.6387 -3.4622 0.6387c -1.4118,0.3697 -2.2689,0.8739 -2.2689 0.8739c -0.8571,0.5042 -1.2269,1.1597 -1.2269 1.1597c -0.3697,0.6555 -0.3697,1.4286 -0.3697 1.4286ZM 425.6303,579.1429 ZM 427.2773,583.6471 l 0.6050,0.1513 c 0.0000,0.0000 0.6387,0.0840 0.6387 0.0840c 1.4118,0.0000 2.3025,-0.9916 2.3025 -0.9916c 0.8908,-0.9916 1.3950,-2.5042 1.3950 -2.5042l 0.3697,-1.2101 l -6.5546,-16.3697 h 2.8571 l 3.3277,9.0420 c 0.3697,1.0756 0.7899,2.2689 0.7899 2.2689c 0.4202,1.1933 0.7899,2.3361 0.7899 2.3361h 0.1345 c 0.3697,-1.1092 0.7059,-2.3193 0.7059 -2.3193c 0.3361,-1.2101 0.6723,-2.2857 0.6723 -2.2857l 2.9244,-9.0420 h 2.6891 l -6.1513,17.6807 c -0.4370,1.2101 -0.9748,2.2521 -0.9748 2.2521c -0.5378,1.0420 -1.2773,1.7983 -1.2773 1.7983c -0.7395,0.7563 -1.6807,1.1933 -1.6807 1.1933c -0.9412,0.4370 -2.1849,0.4370 -2.1849 0.4370c -0.5714,-0.0000 -1.0420,-0.0840 -1.0420 -0.0840c -0.4706,-0.0840 -0.8739,-0.2521 -0.8739 -0.2521l 0.5378,-2.1849 h 0.0000 ZM 448.1176,579.1429 ZM 451.9832,572.2857 h -2.6891 v -1.9160 h 2.9244 l 0.6050,-4.9748 h -2.8571 v -1.9496 h 3.0924 l 0.7731,-6.1513 h 1.7815 l -0.7731,6.1513 h 4.4706 l 0.8067,-6.1513 h 1.7815 l -0.8067,6.1513 h 2.7227 v 1.9496 h -2.9244 l -0.6050,4.9748 h 2.8571 v 1.9160 h -3.0924 l -0.8403,6.8571 h -1.7815 l 0.8067,-6.8571 h -4.4370 l -0.8403,6.8571 h -1.8151 ZM 451.9832,572.2857 ZM 458.4706,570.3697 l 0.6050,-4.9748 h -4.4370 l -0.6050,4.9748 h 4.4370 Z"/></g></svg>