<?xml version="1.0" encoding="UTF-8"?>
<!DOCTYPE svg PUBLIC "-//W3C//DTD SVG 1.1//EN"
    "http://www.w3.org/Graphics/SVG/1.1/DTD/svg11.dtd"><svg xmlns="http://www.w3.org/2000/svg" height="600.0000" stroke-opacity="1" viewBox="0.0 0.0 800.0 600.0" font-size="1" width="800.0000" xmlns:xlink="http://www.w3.org/1999/xlink" stroke="rgb(0,0,0)" version="1.1"><defs></defs><g stroke-linejoin="bevel" stroke-opacity="0.0" fill-opacity="0.0" stroke="rgb(0,0,0)" stroke-width="0.0" fill="rgb(0,0,0)" stroke-linecap="butt" stroke-miterlimit="10.0"><path d="M 0.0000,0.0000 v 600.0000 h 800.0000 v -600.0000 Z"/></g><g stroke-linejoin="round" stroke-opacity="1.0" fill-opacity="0.0" stroke="rgb(5,45,105)" stroke-width="3.9999999999999987" fill="rgb(0,0,0)" stroke-linecap="round" stroke-miterlimit="10.0"><defs><clipPath id="myClip1"><path d="M 62.0000,10.0000 v 538.0000 h 728.0000 v -538.0000 Z"/></clipPath></defs><g clip-path="url(#myClip1)"><path d="M 62.0000,368.6667 h 14.5600 l 14.5600,-30.7915 l 14.5600,0.9774 l 14.5600,48.1026 l 14.5600,41.2126 l 14.5600,54.5048 l 14.5600,44.7311 l 14.5600,50.2349 l 14.5600,46.6769 l 14.5600,49.3866 l 14.5600,47.4480 l 14.5600,49.0961 l 14.5600,44.6325 l 14.5600,50.3604 l 14.5600,46.4384 l 14.5600,48.6191 l 14.5600,47.7798 l 14.5600,46.2859 l 14.5600,47.2794 l 14.5600,48.4756 l 14.5600,48.0595 l 14.5600,47.5036 l 14.5600,48.2640 l 14.5600,47.1969 l 14.5600,46.9513 l 14.5600,49.8439 l 14.5600,45.9936 l 14.5600,49.8529 l 14.5600,47.4068 l 14.5600,48.2873 l 14.5600,47.5233 l 14.5600,48.1636 l 14.5600,47.0786 l 14.5600,49.6215 l 14.5600,46.0869 l 14.5600,48.8361 l 14.5600,48.1133 l 14.5600,45.7964 l 14.5600,51.2947 l 14.5600,46.9925 l 14.5600,51.2768 l 14.5600,46.2590 l 14.5600,48.4595 l 14.5600,48.5222 l 14.5600,49.7919 l 14.5600,46.5854 l 14.5600,50.4716 l 14.5600,47.9376 l 14.5600,48.3106 l 14.5600,46.3810 "/></g></g><g stroke-linejoin="round" stroke-opacity="1.0" fill-opacity="0.0" stroke="rgb(101,50,125)" stroke-width="3.9999999999999987" fill="rgb(0,0,0)" stroke-linecap="round" stroke-miterlimit="10.0"><defs><clipPath id="myClip2"><path d="M 62.0000,10.0000 v 538.0000 h 728.0000 v -538.0000 Z"/></clipPath></defs><g clip-path="url(#myClip2)"><path d="M 62.0000,368.6667 h 14.5600 l 14.5600,-28.6108 l 14.5600,-2.2094 l 14.5600,53.3301 l 14.5600,28.0029 l 14.5600,26.2490 l 14.5600,34.9090 l 14.5600,31.6452 l 14.5600,32.8162 l 14.5600,30.2141 l 14.5600,32.2872 l 14.5600,34.1289 l 14.5600,34.5970 l 14.5600,34.9897 l 14.5600,30.7826 l 14.5600,35.7627 l 14.5600,33.2376 l 14.5600,27.3663 l 14.5600,37.6708 l 14.5600,31.5752 l 14.5600,33.6232 l 14.5600,31.8191 l 14.5600,32.7929 l 14.5600,32.9256 l 14.5600,33.1803 l 14.5600,34.6418 l 14.5600,30.6821 l 14.5600,36.0048 l 14.5600,34.1128 l 14.5600,35.7896 l 14.5600,31.0946 l 14.5600,34.6436 l 14.5600,33.1731 l 14.5600,28.5732 l 14.5600,33.8007 l 14.5600,36.2953 l 14.5600,30.1029 l 14.5600,35.9348 l 14.5600,32.8610 l 14.5600,32.9489 l 14.5600,31.6900 l 14.5600,32.8037 l 14.5600,32.7032 l 14.5600,33.0350 l 14.5600,35.8703 l 14.5600,31.8604 l 14.5600,31.7402 l 14.5600,34.5432 l 14.5600,35.4255 l 14.5600,31.5196 "/></g></g><g stroke-linejoin="round" stroke-opacity="1.0" fill-opacity="0.0" stroke="rgb(172,50,122)" stroke-width="3.9999999999999987" fill="rgb(0,0,0)" stroke-linecap="round" stroke-miterlimit="10.0"><defs><clipPath id="myClip3"><path d="M 62.0000,10.0000 v 538.0000 h 728.0000 v -538.0000 Z"/></clipPath></defs><g clip-path="url(#myClip3)"><path d="M 62.0000,368.6667 h 14.5600 l 14.5600,-30.1388 l 14.5600,3.2944 l 14.5600,59.0473 l 14.5600,25.9477 l 14.5600,9.5100 l 14.5600,29.6725 l 14.5600,31.1968 l 14.5600,22.9296 l 14.5600,21.1201 l 14.5600,28.3329 l 14.5600,29.1578 l 14.5600,20.9641 l 14.5600,25.4133 l 14.5600,25.2501 l 14.5600,24.6135 l 14.5600,22.9188 l 14.5600,26.7852 l 14.5600,25.2196 l 14.5600,23.2093 l 14.5600,26.6543 l 14.5600,25.0600 l 14.5600,24.3804 l 14.5600,23.4281 l 14.5600,28.8745 l 14.5600,24.9650 l 14.5600,23.6756 l 14.5600,26.6597 l 14.5600,25.8132 l 14.5600,23.9374 l 14.5600,21.3102 l 14.5600,28.1876 l 14.5600,26.3530 l 14.5600,23.1089 l 14.5600,25.9746 l 14.5600,28.3060 l 14.5600,23.7348 l 14.5600,23.4640 l 14.5600,25.5460 l 14.5600,27.9258 l 14.5600,26.4786 l 14.5600,23.5787 l 14.5600,24.6135 l 14.5600,30.1944 l 14.5600,24.7964 l 14.5600,21.5236 l 14.5600,29.0771 l 14.5600,24.6081 l 14.5600,21.8105 l 14.5600,28.9067 "/></g></g><g stroke-linejoin="round" stroke-opacity="1.0" fill-opacity="0.0" stroke="rgb(226,66,100)" stroke-width="3.9999999999999987" fill="rgb(0,0,0)" stroke-linecap="round" stroke-miterlimit="10.0"><defs><clipPath id="myClip4"><path d="M 62.0000,10.0000 v 538.0000 h 728.0000 v -538.0000 Z"/></clipPath></defs><g clip-path="url(#myClip4)"><path d="M 62.0000,368.6667 h 14.5600 l 14.5600,-29.7012 l 14.5600,2.4748 l 14.5600,59.7126 l 14.5600,35.9348 l 14.5600,-3.4540 l 14.5600,9.3146 l 14.5600,34.2078 l 14.5600,25.1013 l 14.5600,13.6347 l 14.5600,15.4854 l 14.5600,26.2777 l 14.5600,23.7025 l 14.5600,18.3691 l 14.5600,16.0342 l 14.5600,25.3936 l 14.5600,25.1372 l 14.5600,15.6199 l 14.5600,18.1754 l 14.5600,22.5960 l 14.5600,23.1250 l 14.5600,18.4391 l 14.5600,20.7112 l 14.5600,20.1571 l 14.5600,17.8473 l 14.5600,25.4869 l 14.5600,21.6599 l 14.5600,16.7910 l 14.5600,19.4935 l 14.5600,19.4846 l 14.5600,22.9583 l 14.5600,19.8199 l 14.5600,18.9968 l 14.5600,18.3745 l 14.5600,20.8870 l 14.5600,22.9636 l 14.5600,19.8396 l 14.5600,18.1467 l 14.5600,17.7289 l 14.5600,22.3073 l 14.5600,24.4378 l 14.5600,17.6697 l 14.5600,19.6029 l 14.5600,23.9284 l 14.5600,20.4799 l 14.5600,18.6130 l 14.5600,21.3909 l 14.5600,19.7213 l 14.5600,20.2378 l 14.5600,22.4741 "/></g></g><g stroke-linejoin="round" stroke-opacity="1.0" fill-opacity="0.0" stroke="rgb(255,110,64)" stroke-width="3.9999999999999987" fill="rgb(0,0,0)" stroke-linecap="round" stroke-miterlimit="10.0"><defs><clipPath id="myClip5"><path d="M 62.0000,10.0000 v 538.0000 h 728.0000 v -538.0000 Z"/></clipPath></defs><g clip-path="url(#myClip5)"><path d="M 62.0000,368.6667 h 14.5600 l 14.5600,-31.1574 l 14.5600,4.0296 l 14.5600,74.2081 l 14.5600,36.5822 l 14.5600,-10.1843 l 14.5600,-7.3652 l 14.5600,22.3198 l 14.5600,37.2260 l 14.5600,23.5626 l 14.5600,4.7739 l 14.5600,9.8526 l 14.5600,22.7287 l 14.5600,20.1069 l 14.5600,15.9481 l 14.5600,16.6350 l 14.5600,15.2720 l 14.5600,20.1499 l 14.5600,22.1423 l 14.5600,17.5549 l 14.5600,15.6271 l 14.5600,15.4962 l 14.5600,19.5240 l 14.5600,20.2575 l 14.5600,18.1611 l 14.5600,16.1221 l 14.5600,16.1292 l 14.5600,17.2895 l 14.5600,17.2429 l 14.5600,17.9028 l 14.5600,20.1445 l 14.5600,15.9140 l 14.5600,15.1196 l 14.5600,17.3756 l 14.5600,17.5334 l 14.5600,20.5104 l 14.5600,15.4137 l 14.5600,17.8437 l 14.5600,19.2765 l 14.5600,16.2225 l 14.5600,19.0004 l 14.5600,17.0474 l 14.5600,14.4848 l 14.5600,20.9497 l 14.5600,17.5442 l 14.5600,18.7708 l 14.5600,13.8965 l 14.5600,16.8143 l 14.5600,17.4240 l 14.5600,20.4781 "/></g></g><g stroke-linejoin="bevel" stroke-opacity="0.0" fill-opacity="1.0" stroke="rgb(0,0,0)" stroke-width="0.0" fill="rgb(0,0,0)" stroke-linecap="butt" stroke-miterlimit="10.0"><path d="M 42.0000,397.6723 ZM 33.8655,396.1261 c -2.0504,0.0000 -3.6471,-0.6387 -3.6471 -0.6387c -1.5966,-0.6387 -2.7059,-1.7143 -2.7059 -1.7143c -1.1092,-1.0756 -1.6807,-2.5042 -1.6807 -2.5042c -0.5714,-1.4286 -0.5714,-3.0084 -0.5714 -3.0084c -0.0000,-1.6134 0.5882,-2.7731 0.5882 -2.7731c 0.5882,-1.1597 1.3613,-2.0000 1.3613 -2.0000l 1.7815,1.3782 c -0.6387,0.7395 -1.0420,1.5294 -1.0420 1.5294c -0.4034,0.7899 -0.4034,1.7647 -0.4034 1.7647c 0.0000,1.1092 0.4538,2.0504 0.4538 2.0504c 0.4538,0.9412 1.2941,1.6134 1.2941 1.6134c 0.8403,0.6723 2.0000,1.0588 2.0000 1.0588c 1.1597,0.3866 2.5714,0.3866 2.5714 0.3866c 1.4118,-0.0000 2.5546,-0.3697 2.5546 -0.3697c 1.1429,-0.3697 1.9664,-1.0252 1.9664 -1.0252c 0.8235,-0.6555 1.2773,-1.5966 1.2773 -1.5966c 0.4538,-0.9412 0.4538,-2.0504 0.4538 -2.0504c -0.0000,-1.1765 -0.4874,-2.1345 -0.4874 -2.1345c -0.4874,-0.9580 -1.1597,-1.6975 -1.1597 -1.6975l 1.8151,-1.2437 c 0.9748,1.1092 1.5462,2.4706 1.5462 2.4706c 0.5714,1.3613 0.5714,2.8403 0.5714 2.8403c 0.0000,1.6134 -0.5714,3.0252 -0.5714 3.0252c -0.5714,1.4118 -1.6639,2.4370 -1.6639 2.4370c -1.0924,1.0252 -2.6891,1.6134 -2.6891 1.6134c -1.5966,0.5882 -3.6134,0.5882 -3.6134 0.5882ZM 42.0000,382.3445 ZM 25.6639,379.8235 l -0.0000,-2.7899 l 9.9832,-0.0000 c 2.3193,-0.0000 3.3445,-0.7227 3.3445 -0.7227c 1.0252,-0.7227 1.0252,-2.3361 1.0252 -2.3361c -0.0000,-1.2773 -0.6555,-2.2521 -0.6555 -2.2521c -0.6555,-0.9748 -2.1008,-2.1513 -2.1008 -2.1513l -11.5966,0.0000 l -0.0000,-2.7563 l 16.3361,-0.0000 l 0.0000,2.2857 l -2.5546,0.2353 l 0.0000,0.1008 c 1.3445,1.1429 2.1513,2.4034 2.1513 2.4034c 0.8067,1.2605 0.8067,2.9748 0.8067 2.9748c 0.0000,2.6218 -1.6134,3.8151 -1.6134 3.8151c -1.6134,1.1933 -4.7731,1.1933 -4.7731 1.1933l -10.3529,0.0000 ZM 42.0000,364.0588 ZM 25.6639,361.3025 l -0.0000,-2.2857 l 2.3529,-0.2353 l -0.0000,-0.1008 c -1.1765,-1.0756 -1.9664,-2.3361 -1.9664 -2.3361c -0.7899,-1.2605 -0.7899,-2.7395 -0.7899 -2.7395c -0.0000,-1.8824 0.8235,-2.9412 0.8235 -2.9412c 0.8235,-1.0588 2.3025,-1.5630 2.3025 -1.5630c -1.4118,-1.2773 -2.2689,-2.5714 -2.2689 -2.5714c -0.8571,-1.2941 -0.8571,-2.8067 -0.8571 -2.8067c -0.0000,-2.5210 1.6134,-3.7479 1.6134 -3.7479c 1.6134,-1.2269 4.7731,-1.2269 4.7731 -1.2269l 10.3529,-0.0000 l 0.0000,2.7563 l -9.9832,0.0000 c -2.3193,0.0000 -3.3445,0.7395 -3.3445 0.7395c -1.0252,0.7395 -1.0252,2.2857 -1.0252 2.2857c 0.0000,1.8487 2.5210,4.1008 2.5210 4.1008l 11.8319,-0.0000 l 0.0000,2.7563 l -9.9832,0.0000 c -2.3193,0.0000 -3.3445,0.7395 -3.3445 0.7395c -1.0252,0.7395 -1.0252,2.3193 -1.0252 2.3193c 0.0000,1.8487 2.5210,4.1008 2.5210 4.1008l 11.8319,-0.0000 l 0.0000,2.7563 l -16.3361,0.0000 ZM 42.0000,336.1933 ZM 25.6639,333.6723 l -0.0000,-2.7899 l 9.9832,-0.0000 c 2.3193,-0.0000 3.3445,-0.7227 3.3445 -0.7227c 1.0252,-0.7227 1.0252,-2.3361 1.0252 -2.3361c -0.0000,-1.2773 -0.6555,-2.2521 -0.6555 -2.2521c -0.6555,-0.9748 -2.1008,-2.1513 -2.1008 -2.1513l -11.5966,0.0000 l -0.0000,-2.7563 l 16.3361,-0.0000 l 0.0000,2.2857 l -2.5546,0.2353 l 0.0000,0.1008 c 1.3445,1.1429 2.1513,2.4034 2.1513 2.4034c 0.8067,1.2605 0.8067,2.9748 0.8067 2.9748c 0.0000,2.6218 -1.6134,3.8151 -1.6134 3.8151c -1.6134,1.1933 -4.7731,1.1933 -4.7731 1.1933l -10.3529,0.0000 ZM 42.0000,317.9076 ZM 18.0672,315.1513 l -0.0000,-2.7563 l 20.8403,-0.0000 c 0.6723,-0.0000 0.9412,-0.2353 0.9412 -0.2353c 0.2689,-0.2353 0.2689,-0.5378 0.2689 -0.5378l -0.0000,-0.2521 c 0.0000,0.0000 -0.0672,-0.3529 -0.0672 -0.3529l 2.0840,-0.3697 c 0.1345,0.2689 0.2017,0.6387 0.2017 0.6387c 0.0672,0.3697 0.0672,0.9412 0.0672 0.9412c 0.0000,1.5798 -0.9412,2.2521 -0.9412 2.2521c -0.9412,0.6723 -2.7563,0.6723 -2.7563 0.6723l -20.6387,0.0000 ZM 42.0000,309.3361 ZM 37.7647,307.3866 c -2.6891,0.0000 -4.1176,-2.4034 -4.1176 -2.4034c -1.4286,-2.4034 -2.0000,-7.6471 -2.0000 -7.6471c -0.7731,0.0000 -1.5126,0.1513 -1.5126 0.1513c -0.7395,0.1513 -1.3109,0.5378 -1.3109 0.5378c -0.5714,0.3866 -0.9244,1.0252 -0.9244 1.0252c -0.3529,0.6387 -0.3529,1.6471 -0.3529 1.6471c 0.0000,1.4454 0.5378,2.6723 0.5378 2.6723c 0.5378,1.2269 1.2101,2.2017 1.2101 2.2017l -1.9160,1.1092 c -0.7395,-1.1429 -1.4286,-2.7899 -1.4286 -2.7899c -0.6891,-1.6471 -0.6891,-3.6303 -0.6891 -3.6303c -0.0000,-2.9916 1.8319,-4.3361 1.8319 -4.3361c 1.8319,-1.3445 4.8908,-1.3445 4.8908 -1.3445l 10.0168,-0.0000 l 0.0000,2.2857 l -1.9496,0.2353 l 0.0000,0.0672 c 0.9748,1.1765 1.6639,2.5378 1.6639 2.5378c 0.6891,1.3613 0.6891,2.8739 0.6891 2.8739c 0.0000,2.0840 -1.2101,3.4454 -1.2101 3.4454c -1.2101,1.3613 -3.4286,1.3613 -3.4286 1.3613ZM 37.7647,307.3866 ZM 37.5630,304.6639 c 1.4118,-0.0000 2.0168,-0.8235 2.0168 -0.8235c 0.6050,-0.8235 0.6050,-2.0336 0.6050 -2.0336c -0.0000,-1.1765 -0.5546,-2.2353 -0.5546 -2.2353c -0.5546,-1.0588 -1.6303,-2.2353 -1.6303 -2.2353l -4.5378,0.0000 c 0.2689,2.0504 0.6387,3.4622 0.6387 3.4622c 0.3697,1.4118 0.8739,2.2689 0.8739 2.2689c 0.5042,0.8571 1.1597,1.2269 1.1597 1.2269c 0.6555,0.3697 1.4286,0.3697 1.4286 0.3697ZM 42.0000,292.1261 ZM 27.9160,288.8992 l 0.0000,2.4202 l -2.0840,0.0000 l -0.1681,-2.5546 l -4.5714,-0.3361 l -0.0000,-2.3193 l 4.5714,-0.0000 l -0.0000,-4.4034 l 2.2521,-0.0000 l 0.0000,4.4034 l 9.0756,-0.0000 c 1.5126,-0.0000 2.3361,-0.5546 2.3361 -0.5546c 0.8235,-0.5546 0.8235,-1.9664 0.8235 -1.9664c -0.0000,-0.4370 -0.1345,-0.9412 -0.1345 -0.9412c -0.1345,-0.5042 -0.3025,-0.9076 -0.3025 -0.9076l 2.0840,-0.5378 c 0.2353,0.6723 0.4202,1.4622 0.4202 1.4622c 0.1849,0.7899 0.1849,1.5630 0.1849 1.5630c 0.0000,1.3109 -0.4034,2.2017 -0.4034 2.2017c -0.4034,0.8908 -1.1092,1.4454 -1.1092 1.4454c -0.7059,0.5546 -1.7143,0.7899 -1.7143 0.7899c -1.0084,0.2353 -2.2185,0.2353 -2.2185 0.2353l -9.0420,0.0000 ZM 42.0000,280.7647 ZM 22.3025,276.5966 c 0.0000,0.8067 -0.5042,1.3613 -0.5042 1.3613c -0.5042,0.5546 -1.2773,0.5546 -1.2773 0.5546c -0.8067,0.0000 -1.2941,-0.5546 -1.2941 -0.5546c -0.4874,-0.5546 -0.4874,-1.3613 -0.4874 -1.3613c -0.0000,-0.8067 0.4874,-1.3613 0.4874 -1.3613c 0.4874,-0.5546 1.2941,-0.5546 1.2941 -0.5546c 0.7731,-0.0000 1.2773,0.5546 1.2773 0.5546c 0.5042,0.5546 0.5042,1.3613 0.5042 1.3613ZM 22.3025,276.5966 ZM 25.6639,278.0084 l -0.0000,-2.7563 l 16.3361,-0.0000 l 0.0000,2.7563 l -16.3361,0.0000 ZM 42.0000,272.4958 ZM 25.6639,272.0924 l -0.0000,-2.8571 l 9.2773,-3.0924 c 1.2101,-0.3697 2.4202,-0.7563 2.4202 -0.7563c 1.2101,-0.3866 2.3866,-0.7563 2.3866 -0.7563l -0.0000,-0.1345 c -1.1765,-0.3697 -2.3866,-0.7395 -2.3866 -0.7395l -2.4202,-0.7395 l -9.2773,-3.0924 l -0.0000,-2.7227 l 16.3361,5.7815 l 0.0000,3.2269 ZM 42.0000,256.9328 ZM 33.8655,255.3866 c -2.0168,0.0000 -3.6134,-0.6218 -3.6134 -0.6218c -1.5966,-0.6218 -2.7059,-1.6471 -2.7059 -1.6471c -1.1092,-1.0252 -1.6975,-2.3361 -1.6975 -2.3361c -0.5882,-1.3109 -0.5882,-2.7227 -0.5882 -2.7227c -0.0000,-1.5462 0.5378,-2.7731 0.5378 -2.7731c 0.5378,-1.2269 1.5462,-2.0504 1.5462 -2.0504c 1.0084,-0.8235 2.4202,-1.2605 2.4202 -1.2605c 1.4118,-0.4370 3.1597,-0.4370 3.1597 -0.4370c 0.9076,-0.0000 1.5126,0.1008 1.5126 0.1008l 0.0000,11.0252 c 2.6555,-0.1681 4.2017,-1.6303 4.2017 -1.6303c 1.5462,-1.4622 1.5462,-3.8151 1.5462 -3.8151c -0.0000,-1.1765 -0.3529,-2.1681 -0.3529 -2.1681c -0.3529,-0.9916 -0.9244,-1.8992 -0.9244 -1.8992l 1.8151,-0.9748 c 0.6723,1.0756 1.1765,2.3866 1.1765 2.3866c 0.5042,1.3109 0.5042,2.9916 0.5042 2.9916c 0.0000,1.6471 -0.5882,3.0756 -0.5882 3.0756c -0.5882,1.4286 -1.6807,2.4874 -1.6807 2.4874c -1.0924,1.0588 -2.6723,1.6639 -2.6723 1.6639c -1.5798,0.6050 -3.5966,0.6050 -3.5966 0.6050ZM 33.8655,255.3866 ZM 32.6218,243.9580 c -2.5210,0.0000 -3.8487,1.0588 -3.8487 1.0588c -1.3277,1.0588 -1.3277,2.9748 -1.3277 2.9748c 0.0000,0.8739 0.3529,1.6639 0.3529 1.6639c 0.3529,0.7899 1.0084,1.4286 1.0084 1.4286c 0.6555,0.6387 1.6134,1.0588 1.6134 1.0588c 0.9580,0.4202 2.2017,0.5546 2.2017 0.5546l -0.0000,-8.7395 ZM 42.0000,233.4706 ZM 25.6639,230.7143 l -0.0000,-2.2857 l 2.9580,-0.2353 l -0.0000,-0.1008 c -1.5462,-0.8403 -2.4538,-2.0336 -2.4538 -2.0336c -0.9076,-1.1933 -0.9076,-2.6050 -0.9076 -2.6050c -0.0000,-0.9748 0.3361,-1.7479 0.3361 -1.7479l 2.4202,0.5378 c -0.1345,0.4034 -0.2017,0.7395 -0.2017 0.7395c -0.0672,0.3361 -0.0672,0.8403 -0.0672 0.8403c 0.0000,1.0420 0.8403,2.1681 0.8403 2.1681c 0.8403,1.1261 2.9244,1.9664 2.9244 1.9664l 10.4874,-0.0000 l 0.0000,2.7563 l -16.3361,0.0000 ZM 42.0000,222.1429 ZM 33.8655,220.5966 c -2.0168,0.0000 -3.6134,-0.6218 -3.6134 -0.6218c -1.5966,-0.6218 -2.7059,-1.6471 -2.7059 -1.6471c -1.1092,-1.0252 -1.6975,-2.3361 -1.6975 -2.3361c -0.5882,-1.3109 -0.5882,-2.7227 -0.5882 -2.7227c -0.0000,-1.5462 0.5378,-2.7731 0.5378 -2.7731c 0.5378,-1.2269 1.5462,-2.0504 1.5462 -2.0504c 1.0084,-0.8235 2.4202,-1.2605 2.4202 -1.2605c 1.4118,-0.4370 3.1597,-0.4370 3.1597 -0.4370c 0.9076,-0.0000 1.5126,0.1008 1.5126 0.1008l 0.0000,11.0252 c 2.6555,-0.1681 4.2017,-1.6303 4.2017 -1.6303c 1.5462,-1.4622 1.5462,-3.8151 1.5462 -3.8151c -0.0000,-1.1765 -0.3529,-2.1681 -0.3529 -2.1681c -0.3529,-0.9916 -0.9244,-1.8992 -0.9244 -1.8992l 1.8151,-0.9748 c 0.6723,1.0756 1.1765,2.3866 1.1765 2.3866c 0.5042,1.3109 0.5042,2.9916 0.5042 2.9916c 0.0000,1.6471 -0.5882,3.0756 -0.5882 3.0756c -0.5882,1.4286 -1.6807,2.4874 -1.6807 2.4874c -1.0924,1.0588 -2.6723,1.6639 -2.6723 1.6639c -1.5798,0.6050 -3.5966,0.6050 -3.5966 0.6050ZM 33.8655,220.5966 ZM 32.6218,209.1681 c -2.5210,0.0000 -3.8487,1.0588 -3.8487 1.0588c -1.3277,1.0588 -1.3277,2.9748 -1.3277 2.9748c 0.0000,0.8739 0.3529,1.6639 0.3529 1.6639c 0.3529,0.7899 1.0084,1.4286 1.0084 1.4286c 0.6555,0.6387 1.6134,1.0588 1.6134 1.0588c 0.9580,0.4202 2.2017,0.5546 2.2017 0.5546l -0.0000,-8.7395 ZM 42.0000,205.3025 ZM 25.6639,204.4958 l -0.0000,-2.8235 l 9.4454,-2.4202 c 1.1765,-0.2689 2.2857,-0.5042 2.2857 -0.5042c 1.1092,-0.2353 2.2521,-0.4706 2.2521 -0.4706l -0.0000,-0.1345 c -1.1429,-0.2689 -2.2689,-0.5378 -2.2689 -0.5378c -1.1261,-0.2689 -2.2689,-0.5714 -2.2689 -0.5714l -9.4454,-2.5210 l -0.0000,-2.6891 l 9.4454,-2.5546 c 1.1765,-0.3025 2.2857,-0.5882 2.2857 -0.5882c 1.1092,-0.2857 2.2521,-0.5546 2.2521 -0.5546l -0.0000,-0.1345 c -1.1429,-0.2689 -2.2521,-0.5042 -2.2521 -0.5042c -1.1092,-0.2353 -2.2857,-0.5042 -2.2857 -0.5042l -9.4454,-2.3866 l -0.0000,-2.6218 l 16.3361,4.3697 l 0.0000,3.3613 l -8.7731,2.3529 c -1.1765,0.3025 -2.3193,0.5546 -2.3193 0.5546c -1.1429,0.2521 -2.3866,0.5546 -2.3866 0.5546l 0.0000,0.1345 c 1.2437,0.2689 2.4034,0.5378 2.4034 0.5378c 1.1597,0.2689 2.3361,0.6050 2.3361 0.6050l 8.7395,2.2857 l 0.0000,3.2269 ZM 42.0000,181.5042 ZM 37.7647,179.5546 c -2.6891,0.0000 -4.1176,-2.4034 -4.1176 -2.4034c -1.4286,-2.4034 -2.0000,-7.6471 -2.0000 -7.6471c -0.7731,0.0000 -1.5126,0.1513 -1.5126 0.1513c -0.7395,0.1513 -1.3109,0.5378 -1.3109 0.5378c -0.5714,0.3866 -0.9244,1.0252 -0.9244 1.0252c -0.3529,0.6387 -0.3529,1.6471 -0.3529 1.6471c 0.0000,1.4454 0.5378,2.6723 0.5378 2.6723c 0.5378,1.2269 1.2101,2.2017 1.2101 2.2017l -1.9160,1.1092 c -0.7395,-1.1429 -1.4286,-2.7899 -1.4286 -2.7899c -0.6891,-1.6471 -0.6891,-3.6303 -0.6891 -3.6303c -0.0000,-2.9916 1.8319,-4.3361 1.8319 -4.3361c 1.8319,-1.3445 4.8908,-1.3445 4.8908 -1.3445l 10.0168,-0.0000 l 0.0000,2.2857 l -1.9496,0.2353 l 0.0000,0.0672 c 0.9748,1.1765 1.6639,2.5378 1.6639 2.5378c 0.6891,1.3613 0.6891,2.8739 0.6891 2.8739c 0.0000,2.0840 -1.2101,3.4454 -1.2101 3.4454c -1.2101,1.3613 -3.4286,1.3613 -3.4286 1.3613ZM 37.7647,179.5546 ZM 37.5630,176.8319 c 1.4118,-0.0000 2.0168,-0.8235 2.0168 -0.8235c 0.6050,-0.8235 0.6050,-2.0336 0.6050 -2.0336c -0.0000,-1.1765 -0.5546,-2.2353 -0.5546 -2.2353c -0.5546,-1.0588 -1.6303,-2.2353 -1.6303 -2.2353l -4.5378,0.0000 c 0.2689,2.0504 0.6387,3.4622 0.6387 3.4622c 0.3697,1.4118 0.8739,2.2689 0.8739 2.2689c 0.5042,0.8571 1.1597,1.2269 1.1597 1.2269c 0.6555,0.3697 1.4286,0.3697 1.4286 0.3697ZM 42.0000,164.2941 ZM 25.6639,161.5378 l -0.0000,-2.2857 l 2.9580,-0.2353 l -0.0000,-0.1008 c -1.5462,-0.8403 -2.4538,-2.0336 -2.4538 -2.0336c -0.9076,-1.1933 -0.9076,-2.6050 -0.9076 -2.6050c -0.0000,-0.9748 0.3361,-1.7479 0.3361 -1.7479l 2.4202,0.5378 c -0.1345,0.4034 -0.2017,0.7395 -0.2017 0.7395c -0.0672,0.3361 -0.0672,0.8403 -0.0672 0.8403c 0.0000,1.0420 0.8403,2.1681 0.8403 2.1681c 0.8403,1.1261 2.9244,1.9664 2.9244 1.9664l 10.4874,-0.0000 l 0.0000,2.7563 l -16.3361,0.0000 ZM 42.0000,152.9664 ZM 33.8655,151.3866 c -1.9832,0.0000 -3.5798,-0.5882 -3.5798 -0.5882c -1.5966,-0.5882 -2.7059,-1.5630 -2.7059 -1.5630c -1.1092,-0.9748 -1.7143,-2.2521 -1.7143 -2.2521c -0.6050,-1.2773 -0.6050,-2.6891 -0.6050 -2.6891c -0.0000,-1.4118 0.5042,-2.4538 0.5042 -2.4538c 0.5042,-1.0420 1.3782,-2.1176 1.3782 -2.1176l -2.7899,0.1345 l -6.2857,0.0000 l -0.0000,-2.7899 l 23.9328,-0.0000 l 0.0000,2.2857 l -1.9160,0.2353 l 0.0000,0.1008 c 0.9412,0.9748 1.6303,2.2353 1.6303 2.2353c 0.6891,1.2605 0.6891,2.7059 0.6891 2.7059c 0.0000,3.0924 -2.2185,4.9244 -2.2185 4.9244c -2.2185,1.8319 -6.3193,1.8319 -6.3193 1.8319ZM 33.8655,151.3866 ZM 33.8319,148.5294 c 2.9580,-0.0000 4.6050,-1.1765 4.6050 -1.1765c 1.6471,-1.1765 1.6471,-3.3277 1.6471 -3.3277c -0.0000,-1.1429 -0.5546,-2.1513 -0.5546 -2.1513c -0.5546,-1.0084 -1.6975,-2.0168 -1.6975 -2.0168l -8.5378,0.0000 c -0.9412,1.0420 -1.3277,2.0000 -1.3277 2.0000c -0.3866,0.9580 -0.3866,1.9664 -0.3866 1.9664c 0.0000,0.9748 0.4538,1.8319 0.4538 1.8319c 0.4538,0.8571 1.2773,1.4958 1.2773 1.4958c 0.8235,0.6387 1.9664,1.0084 1.9664 1.0084c 1.1429,0.3697 2.5546,0.3697 2.5546 0.3697Z"/></g><g stroke-linejoin="miter" stroke-opacity="1.0" fill-opacity="0.0" stroke="rgb(0,0,0)" stroke-width="3.9999999999999987" fill="rgb(0,0,0)" stroke-linecap="square" stroke-miterlimit="10.0"><path d="M 62.0000,548.0000 v -538.0000 "/></g><g stroke-linejoin="miter" stroke-opacity="1.0" fill-opacity="0.0" stroke="rgb(0,0,0)" stroke-width="3.9999999999999987" fill="rgb(0,0,0)" stroke-linecap="square" stroke-miterlimit="10.0"><path d="M 62.0000,548.0000 h 728.0000 "/></g><g stroke-linejoin="bevel" stroke-opacity="0.0" fill-opacity="1.0" stroke="rgb(0,0,0)" stroke-width="0.0" fill="rgb(0,0,0)" stroke-linecap="butt" stroke-miterlimit="10.0"><path d="M 389.7647,579.1429 ZM 391.3445,571.0084 c 0.0000,-1.9832 0.5882,-3.5798 0.5882 -3.5798c 0.5882,-1.5966 1.5630,-2.7059 1.5630 -2.7059c 0.9748,-1.1092 2.2521,-1.7143 2.2521 -1.7143c 1.2773,-0.6050 2.6891,-0.6050 2.6891 -0.6050c 1.4118,0.0000 2.4538,0.5042 2.4538 0.5042c 1.0420,0.5042 2.1176,1.3782 2.1176 1.3782l -0.1345,-2.7899 v -6.2857 h 2.7899 v 23.9328 h -2.2857 l -0.2353,-1.9160 h -0.1008 c -0.9748,0.9412 -2.2353,1.6303 -2.2353 1.6303c -1.2605,0.6891 -2.7059,0.6891 -2.7059 0.6891c -3.0924,-0.0000 -4.9244,-2.2185 -4.9244 -2.2185c -1.8319,-2.2185 -1.8319,-6.3193 -1.8319 -6.3193ZM 391.3445,571.0084 ZM 394.2017,570.9748 c 0.0000,2.9580 1.1765,4.6050 1.1765 4.6050c 1.1765,1.6471 3.3277,1.6471 3.3277 1.6471c 1.1429,0.0000 2.1513,-0.5546 2.1513 -0.5546c 1.0084,-0.5546 2.0168,-1.6975 2.0168 -1.6975v -8.5378 c -1.0420,-0.9412 -2.0000,-1.3277 -2.0000 -1.3277c -0.9580,-0.3866 -1.9664,-0.3866 -1.9664 -0.3866c -0.9748,-0.0000 -1.8319,0.4538 -1.8319 0.4538c -0.8571,0.4538 -1.4958,1.2773 -1.4958 1.2773c -0.6387,0.8235 -1.0084,1.9664 -1.0084 1.9664c -0.3697,1.1429 -0.3697,2.5546 -0.3697 2.5546ZM 408.4202,579.1429 ZM 410.3697,574.9076 c 0.0000,-2.6891 2.4034,-4.1176 2.4034 -4.1176c 2.4034,-1.4286 7.6471,-2.0000 7.6471 -2.0000c 0.0000,-0.7731 -0.1513,-1.5126 -0.1513 -1.5126c -0.1513,-0.7395 -0.5378,-1.3109 -0.5378 -1.3109c -0.3866,-0.5714 -1.0252,-0.9244 -1.0252 -0.9244c -0.6387,-0.3529 -1.6471,-0.3529 -1.6471 -0.3529c -1.4454,-0.0000 -2.6723,0.5378 -2.6723 0.5378c -1.2269,0.5378 -2.2017,1.2101 -2.2017 1.2101l -1.1092,-1.9160 c 1.1429,-0.7395 2.7899,-1.4286 2.7899 -1.4286c 1.6471,-0.6891 3.6303,-0.6891 3.6303 -0.6891c 2.9916,0.0000 4.3361,1.8319 4.3361 1.8319c 1.3445,1.8319 1.3445,4.8908 1.3445 4.8908v 10.0168 h -2.2857 l -0.2353,-1.9496 h -0.0672 c -1.1765,0.9748 -2.5378,1.6639 -2.5378 1.6639c -1.3613,0.6891 -2.8739,0.6891 -2.8739 0.6891c -2.0840,-0.0000 -3.4454,-1.2101 -3.4454 -1.2101c -1.3613,-1.2101 -1.3613,-3.4286 -1.3613 -3.4286ZM 410.3697,574.9076 ZM 413.0924,574.7059 c 0.0000,1.4118 0.8235,2.0168 0.8235 2.0168c 0.8235,0.6050 2.0336,0.6050 2.0336 0.6050c 1.1765,0.0000 2.2353,-0.5546 2.2353 -0.5546c 1.0588,-0.5546 2.2353,-1.6303 2.2353 -1.6303v -4.5378 c -2.0504,0.2689 -3.4622,0.6387 -3.4622 0.6387c -1.4118,0.3697 -2.2689,0.8739 -2.2689 0.8739c -0.8571,0.5042 -1.2269,1.1597 -1.2269 1.1597c -0.3697,0.6555 -0.3697,1.4286 -0.3697 1.4286ZM 425.6303,579.1429 ZM 427.2773,583.6471 l 0.6050,0.1513 c 0.0000,0.0000 0.6387,0.0840 0.6387 0.0840c 1.4118,0.0000 2.3025,-0.9916 2.3025 -0.9916c 0.8908,-0.9916 1.3950,-2.5042 1.3950 -2.5042l 0.3697,-1.2101 l -6.5546,-16.3697 h 2.8571 l 3.3277,9.0420 c 0.3697,1.0756 0.7899,2.2689 0.7899 2.2689c 0.4202,1.1933 0.7899,2.3361 0.7899 2.3361h 0.1345 c 0.3697,-1.1092 0.7059,-2.3193 0.7059 -2.3193c 0.3361,-1.2101 0.6723,-2.2857 0.6723 -2.2857l 2.9244,-9.0420 h 2.6891 l -6.1513,17.6807 c -0.4370,1.2101 -0.9748,2.2521 -0.9748 2.2521c -0.5378,1.0420 -1.2773,1.7983 -1.2773 1.7983c -0.7395,0.7563 -1.6807,1.1933 -1.6807 1.1933c -0.9412,0.4370 -2.1849,0.4370 -2.1849 0.4370c -0.5714,-0.0000 -1.0420,-0.0840 -1.0420 -0.0840c -0.4706,-0.0840 -0.8739,-0.2521 -0.8739 -0.2521l 0.5378,-2.1849 h 0.0000 ZM 448.1176,579.1429 ZM 451.9832,572.2857 h -2.6891 v -1.9160 h 2.9244 l 0.6050,-4.9748 h -2.8571 v -1.9496 h 3.0924 l 0.7731,-6.1513 h 1.7815 l -0.7731,6.1513 h 4.4706 l 0.8067,-6.1513 h 1.7815 l -0.8067,6.1513 h 2.7227 v 1.9496 h -2.9244 l -0.6050,4.9748 h 2.8571 v 1.9160 h -3.0924 l -0.8403,6.8571 h -1.7815 l 0.8067,-6.8571 h -4.4370 l -0.8403,6.8571 h -1.8151 ZM 451.9832,572.2857 ZM 458.4706,570.3697 l 0.6050,-4.9748 h -4.4370 l -0.6050,4.9748 h 4.4370 Z"/></g></svg>