<?xml version="1.0" encoding="UTF-8"?>
<!DOCTYPE svg PUBLIC "-//W3C//DTD SVG 1.1//EN"
    "http://www.w3.org/Graphics/SVG/1.1/DTD/svg11.dtd"><svg xmlns="http://www.w3.org/2000/svg" height="376.3158" stroke-opacity="1" viewBox="0 0 550 376" font-size="1" width="550.0000" xmlns:xlink="http://www.w3.org/1999/xlink" stroke="rgb(0,0,0)" version="1.1"><defs></defs><g stroke-linejoin="miter" stroke-opacity="1.0" fill-opacity="0.0" stroke="rgb(0,0,0)" stroke-width="1.8197744221107244" fill="rgb(0,0,0)" stroke-linecap="butt" font-family="DejaVu Sans Mono" stroke-miterlimit="10.0"><path d="M 275.0000,32.8947 l 131.5789,105.2632 "/></g><g stroke-linejoin="miter" stroke-opacity="1.0" fill-opacity="1.0" font-size="26.31578947368421px" stroke="rgb(0,0,0)" stroke-width="1.8197744221107244" fill="rgb(0,0,0)" stroke-linecap="butt" font-family="DejaVu Sans Mono" stroke-miterlimit="10.0"><text dominant-baseline="middle" transform="matrix(1.0000,0.0000,0.0000,1.0000,370.2114,90.7895)" stroke="none" text-anchor="middle">1</text></g><g stroke-linejoin="miter" stroke-opacity="1.0" fill-opacity="0.0" stroke="rgb(0,0,0)" stroke-width="1.8197744221107244" fill="rgb(0,0,0)" stroke-linecap="butt" font-family="DejaVu Sans Mono" stroke-miterlimit="10.0"><path d="M 275.0000,32.8947 l -131.5789,105.2632 "/></g><g stroke-linejoin="miter" stroke-opacity="1.0" fill-opacity="1.0" font-size="26.31578947368421px" stroke="rgb(0,0,0)" stroke-width="1.8197744221107244" fill="rgb(0,0,0)" stroke-linecap="butt" font-family="DejaVu Sans Mono" stroke-miterlimit="10.0"><text dominant-baseline="middle" transform="matrix(1.0000,0.0000,0.0000,1.0000,179.7886,90.7895)" stroke="none" text-anchor="middle">0</text></g><g stroke-linejoin="miter" stroke-opacity="1.0" fill-opacity="0.0" stroke="rgb(0,0,0)" stroke-width="1.8197744221107244" fill="rgb(0,0,0)" stroke-linecap="butt" font-family="DejaVu Sans Mono" stroke-miterlimit="10.0"><path d="M 406.5789,138.1579 l 65.7895,105.2632 "/></g><g stroke-linejoin="miter" stroke-opacity="1.0" fill-opacity="1.0" font-size="26.31578947368421px" stroke="rgb(0,0,0)" stroke-width="1.8197744221107244" fill="rgb(0,0,0)" stroke-linecap="butt" font-family="DejaVu Sans Mono" stroke-miterlimit="10.0"><text dominant-baseline="middle" transform="matrix(1.0000,0.0000,0.0000,1.0000,460.2781,196.0526)" stroke="none" text-anchor="middle">1</text></g><g stroke-linejoin="miter" stroke-opacity="1.0" fill-opacity="0.0" stroke="rgb(0,0,0)" stroke-width="1.8197744221107244" fill="rgb(0,0,0)" stroke-linecap="butt" font-family="DejaVu Sans Mono" stroke-miterlimit="10.0"><path d="M 406.5789,138.1579 l -65.7895,105.2632 "/></g><g stroke-linejoin="miter" stroke-opacity="1.0" fill-opacity="1.0" font-size="26.31578947368421px" stroke="rgb(0,0,0)" stroke-width="1.8197744221107244" fill="rgb(0,0,0)" stroke-linecap="butt" font-family="DejaVu Sans Mono" stroke-miterlimit="10.0"><text dominant-baseline="middle" transform="matrix(1.0000,0.0000,0.0000,1.0000,352.8798,196.0526)" stroke="none" text-anchor="middle">0</text></g><g stroke-linejoin="miter" stroke-opacity="1.0" fill-opacity="0.0" stroke="rgb(0,0,0)" stroke-width="1.8197744221107244" fill="rgb(0,0,0)" stroke-linecap="butt" font-family="DejaVu Sans Mono" stroke-miterlimit="10.0"><path d="M 472.3684,243.4211 l 32.8947,105.2632 "/></g><g stroke-linejoin="miter" stroke-opacity="1.0" fill-opacity="1.0" font-size="26.31578947368421px" stroke="rgb(0,0,0)" stroke-width="1.8197744221107244" fill="rgb(0,0,0)" stroke-linecap="butt" font-family="DejaVu Sans Mono" stroke-miterlimit="10.0"><text dominant-baseline="middle" transform="matrix(1.0000,0.0000,0.0000,1.0000,503.5268,301.3158)" stroke="none" text-anchor="middle">1</text></g><g stroke-linejoin="miter" stroke-opacity="1.0" fill-opacity="0.0" stroke="rgb(0,0,0)" stroke-width="1.8197744221107244" fill="rgb(0,0,0)" stroke-linecap="butt" font-family="DejaVu Sans Mono" stroke-miterlimit="10.0"><path d="M 472.3684,243.4211 l -32.8947,105.2632 "/></g><g stroke-linejoin="miter" stroke-opacity="1.0" fill-opacity="1.0" font-size="26.31578947368421px" stroke="rgb(0,0,0)" stroke-width="1.8197744221107244" fill="rgb(0,0,0)" stroke-linecap="butt" font-family="DejaVu Sans Mono" stroke-miterlimit="10.0"><text dominant-baseline="middle" transform="matrix(1.0000,0.0000,0.0000,1.0000,441.2101,301.3158)" stroke="none" text-anchor="middle">0</text></g><g stroke-linejoin="miter" stroke-opacity="1.0" fill-opacity="1.0" stroke="rgb(0,0,0)" stroke-width="1.8197744221107244" fill="rgb(255,255,255)" stroke-linecap="butt" font-family="DejaVu Sans Mono" stroke-miterlimit="10.0"><path d="M 525.0000,348.6842 c 0.0000,-10.9004 -8.8365,-19.7368 -19.7368 -19.7368c -10.9004,-0.0000 -19.7368,8.8365 -19.7368 19.7368c -0.0000,10.9004 8.8365,19.7368 19.7368 19.7368c 10.9004,0.0000 19.7368,-8.8365 19.7368 -19.7368Z"/></g><g stroke-linejoin="miter" stroke-opacity="1.0" fill-opacity="1.0" font-size="26.31578947368421px" stroke="rgb(0,0,0)" stroke-width="1.8197744221107244" fill="rgb(0,0,0)" stroke-linecap="butt" font-family="DejaVu Sans Mono" stroke-miterlimit="10.0"><text dominant-baseline="middle" transform="matrix(1.0000,0.0000,0.0000,1.0000,505.2632,348.6842)" stroke="none" text-anchor="middle">7</text></g><g stroke-linejoin="miter" stroke-opacity="1.0" fill-opacity="1.0" stroke="rgb(0,0,0)" stroke-width="1.8197744221107244" fill="rgb(255,255,255)" stroke-linecap="butt" font-family="DejaVu Sans Mono" stroke-miterlimit="10.0"><path d="M 459.2105,348.6842 c 0.0000,-10.9004 -8.8365,-19.7368 -19.7368 -19.7368c -10.9004,-0.0000 -19.7368,8.8365 -19.7368 19.7368c -0.0000,10.9004 8.8365,19.7368 19.7368 19.7368c 10.9004,0.0000 19.7368,-8.8365 19.7368 -19.7368Z"/></g><g stroke-linejoin="miter" stroke-opacity="1.0" fill-opacity="1.0" font-size="26.31578947368421px" stroke="rgb(0,0,0)" stroke-width="1.8197744221107244" fill="rgb(0,0,0)" stroke-linecap="butt" font-family="DejaVu Sans Mono" stroke-miterlimit="10.0"><text dominant-baseline="middle" transform="matrix(1.0000,0.0000,0.0000,1.0000,439.4737,348.6842)" stroke="none" text-anchor="middle">6</text></g><g stroke-linejoin="miter" stroke-opacity="1.0" fill-opacity="1.0" stroke="rgb(0,0,0)" stroke-width="1.8197744221107244" fill="rgb(255,255,255)" stroke-linecap="butt" font-family="DejaVu Sans Mono" stroke-miterlimit="10.0"><path d="M 478.9474,243.4211 c 0.0000,-3.6335 -2.9455,-6.5789 -6.5789 -6.5789c -3.6335,-0.0000 -6.5789,2.9455 -6.5789 6.5789c -0.0000,3.6335 2.9455,6.5789 6.5789 6.5789c 3.6335,0.0000 6.5789,-2.9455 6.5789 -6.5789Z"/></g><g stroke-linejoin="miter" stroke-opacity="1.0" fill-opacity="0.0" stroke="rgb(0,0,0)" stroke-width="1.8197744221107244" fill="rgb(0,0,0)" stroke-linecap="butt" font-family="DejaVu Sans Mono" stroke-miterlimit="10.0"><path d="M 340.7895,243.4211 l 32.8947,105.2632 "/></g><g stroke-linejoin="miter" stroke-opacity="1.0" fill-opacity="1.0" font-size="26.31578947368421px" stroke="rgb(0,0,0)" stroke-width="1.8197744221107244" fill="rgb(0,0,0)" stroke-linecap="butt" font-family="DejaVu Sans Mono" stroke-miterlimit="10.0"><text dominant-baseline="middle" transform="matrix(1.0000,0.0000,0.0000,1.0000,371.9478,301.3158)" stroke="none" text-anchor="middle">1</text></g><g stroke-linejoin="miter" stroke-opacity="1.0" fill-opacity="0.0" stroke="rgb(0,0,0)" stroke-width="1.8197744221107244" fill="rgb(0,0,0)" stroke-linecap="butt" font-family="DejaVu Sans Mono" stroke-miterlimit="10.0"><path d="M 340.7895,243.4211 l -32.8947,105.2632 "/></g><g stroke-linejoin="miter" stroke-opacity="1.0" fill-opacity="1.0" font-size="26.31578947368421px" stroke="rgb(0,0,0)" stroke-width="1.8197744221107244" fill="rgb(0,0,0)" stroke-linecap="butt" font-family="DejaVu Sans Mono" stroke-miterlimit="10.0"><text dominant-baseline="middle" transform="matrix(1.0000,0.0000,0.0000,1.0000,309.6311,301.3158)" stroke="none" text-anchor="middle">0</text></g><g stroke-linejoin="miter" stroke-opacity="1.0" fill-opacity="1.0" stroke="rgb(0,0,0)" stroke-width="1.8197744221107244" fill="rgb(255,255,255)" stroke-linecap="butt" font-family="DejaVu Sans Mono" stroke-miterlimit="10.0"><path d="M 393.4211,348.6842 c 0.0000,-10.9004 -8.8365,-19.7368 -19.7368 -19.7368c -10.9004,-0.0000 -19.7368,8.8365 -19.7368 19.7368c -0.0000,10.9004 8.8365,19.7368 19.7368 19.7368c 10.9004,0.0000 19.7368,-8.8365 19.7368 -19.7368Z"/></g><g stroke-linejoin="miter" stroke-opacity="1.0" fill-opacity="1.0" font-size="26.31578947368421px" stroke="rgb(0,0,0)" stroke-width="1.8197744221107244" fill="rgb(0,0,0)" stroke-linecap="butt" font-family="DejaVu Sans Mono" stroke-miterlimit="10.0"><text dominant-baseline="middle" transform="matrix(1.0000,0.0000,0.0000,1.0000,373.6842,348.6842)" stroke="none" text-anchor="middle">5</text></g><g stroke-linejoin="miter" stroke-opacity="1.0" fill-opacity="1.0" stroke="rgb(0,0,0)" stroke-width="1.8197744221107244" fill="rgb(255,255,255)" stroke-linecap="butt" font-family="DejaVu Sans Mono" stroke-miterlimit="10.0"><path d="M 327.6316,348.6842 c 0.0000,-10.9004 -8.8365,-19.7368 -19.7368 -19.7368c -10.9004,-0.0000 -19.7368,8.8365 -19.7368 19.7368c -0.0000,10.9004 8.8365,19.7368 19.7368 19.7368c 10.9004,0.0000 19.7368,-8.8365 19.7368 -19.7368Z"/></g><g stroke-linejoin="miter" stroke-opacity="1.0" fill-opacity="1.0" font-size="26.31578947368421px" stroke="rgb(0,0,0)" stroke-width="1.8197744221107244" fill="rgb(0,0,0)" stroke-linecap="butt" font-family="DejaVu Sans Mono" stroke-miterlimit="10.0"><text dominant-baseline="middle" transform="matrix(1.0000,0.0000,0.0000,1.0000,307.8947,348.6842)" stroke="none" text-anchor="middle">4</text></g><g stroke-linejoin="miter" stroke-opacity="1.0" fill-opacity="1.0" stroke="rgb(0,0,0)" stroke-width="1.8197744221107244" fill="rgb(255,255,255)" stroke-linecap="butt" font-family="DejaVu Sans Mono" stroke-miterlimit="10.0"><path d="M 347.3684,243.4211 c 0.0000,-3.6335 -2.9455,-6.5789 -6.5789 -6.5789c -3.6335,-0.0000 -6.5789,2.9455 -6.5789 6.5789c -0.0000,3.6335 2.9455,6.5789 6.5789 6.5789c 3.6335,0.0000 6.5789,-2.9455 6.5789 -6.5789Z"/></g><g stroke-linejoin="miter" stroke-opacity="1.0" fill-opacity="1.0" stroke="rgb(0,0,0)" stroke-width="1.8197744221107244" fill="rgb(255,255,255)" stroke-linecap="butt" font-family="DejaVu Sans Mono" stroke-miterlimit="10.0"><path d="M 413.1579,138.1579 c 0.0000,-3.6335 -2.9455,-6.5789 -6.5789 -6.5789c -3.6335,-0.0000 -6.5789,2.9455 -6.5789 6.5789c -0.0000,3.6335 2.9455,6.5789 6.5789 6.5789c 3.6335,0.0000 6.5789,-2.9455 6.5789 -6.5789Z"/></g><g stroke-linejoin="miter" stroke-opacity="1.0" fill-opacity="0.0" stroke="rgb(0,0,0)" stroke-width="1.8197744221107244" fill="rgb(0,0,0)" stroke-linecap="butt" font-family="DejaVu Sans Mono" stroke-miterlimit="10.0"><path d="M 143.4211,138.1579 l 65.7895,105.2632 "/></g><g stroke-linejoin="miter" stroke-opacity="1.0" fill-opacity="1.0" font-size="26.31578947368421px" stroke="rgb(0,0,0)" stroke-width="1.8197744221107244" fill="rgb(0,0,0)" stroke-linecap="butt" font-family="DejaVu Sans Mono" stroke-miterlimit="10.0"><text dominant-baseline="middle" transform="matrix(1.0000,0.0000,0.0000,1.0000,197.1202,196.0526)" stroke="none" text-anchor="middle">1</text></g><g stroke-linejoin="miter" stroke-opacity="1.0" fill-opacity="0.0" stroke="rgb(0,0,0)" stroke-width="1.8197744221107244" fill="rgb(0,0,0)" stroke-linecap="butt" font-family="DejaVu Sans Mono" stroke-miterlimit="10.0"><path d="M 143.4211,138.1579 l -65.7895,105.2632 "/></g><g stroke-linejoin="miter" stroke-opacity="1.0" fill-opacity="1.0" font-size="26.31578947368421px" stroke="rgb(0,0,0)" stroke-width="1.8197744221107244" fill="rgb(0,0,0)" stroke-linecap="butt" font-family="DejaVu Sans Mono" stroke-miterlimit="10.0"><text dominant-baseline="middle" transform="matrix(1.0000,0.0000,0.0000,1.0000,89.7219,196.0526)" stroke="none" text-anchor="middle">0</text></g><g stroke-linejoin="miter" stroke-opacity="1.0" fill-opacity="0.0" stroke="rgb(0,0,0)" stroke-width="1.8197744221107244" fill="rgb(0,0,0)" stroke-linecap="butt" font-family="DejaVu Sans Mono" stroke-miterlimit="10.0"><path d="M 209.2105,243.4211 l 32.8947,105.2632 "/></g><g stroke-linejoin="miter" stroke-opacity="1.0" fill-opacity="1.0" font-size="26.31578947368421px" stroke="rgb(0,0,0)" stroke-width="1.8197744221107244" fill="rgb(0,0,0)" stroke-linecap="butt" font-family="DejaVu Sans Mono" stroke-miterlimit="10.0"><text dominant-baseline="middle" transform="matrix(1.0000,0.0000,0.0000,1.0000,240.3689,301.3158)" stroke="none" text-anchor="middle">1</text></g><g stroke-linejoin="miter" stroke-opacity="1.0" fill-opacity="0.0" stroke="rgb(0,0,0)" stroke-width="1.8197744221107244" fill="rgb(0,0,0)" stroke-linecap="butt" font-family="DejaVu Sans Mono" stroke-miterlimit="10.0"><path d="M 209.2105,243.4211 l -32.8947,105.2632 "/></g><g stroke-linejoin="miter" stroke-opacity="1.0" fill-opacity="1.0" font-size="26.31578947368421px" stroke="rgb(0,0,0)" stroke-width="1.8197744221107244" fill="rgb(0,0,0)" stroke-linecap="butt" font-family="DejaVu Sans Mono" stroke-miterlimit="10.0"><text dominant-baseline="middle" transform="matrix(1.0000,0.0000,0.0000,1.0000,178.0522,301.3158)" stroke="none" text-anchor="middle">0</text></g><g stroke-linejoin="miter" stroke-opacity="1.0" fill-opacity="1.0" stroke="rgb(0,0,0)" stroke-width="1.8197744221107244" fill="rgb(255,255,255)" stroke-linecap="butt" font-family="DejaVu Sans Mono" stroke-miterlimit="10.0"><path d="M 261.8421,348.6842 c 0.0000,-10.9004 -8.8365,-19.7368 -19.7368 -19.7368c -10.9004,-0.0000 -19.7368,8.8365 -19.7368 19.7368c -0.0000,10.9004 8.8365,19.7368 19.7368 19.7368c 10.9004,0.0000 19.7368,-8.8365 19.7368 -19.7368Z"/></g><g stroke-linejoin="miter" stroke-opacity="1.0" fill-opacity="1.0" font-size="26.31578947368421px" stroke="rgb(0,0,0)" stroke-width="1.8197744221107244" fill="rgb(0,0,0)" stroke-linecap="butt" font-family="DejaVu Sans Mono" stroke-miterlimit="10.0"><text dominant-baseline="middle" transform="matrix(1.0000,0.0000,0.0000,1.0000,242.1053,348.6842)" stroke="none" text-anchor="middle">3</text></g><g stroke-linejoin="miter" stroke-opacity="1.0" fill-opacity="1.0" stroke="rgb(0,0,0)" stroke-width="1.8197744221107244" fill="rgb(255,255,255)" stroke-linecap="butt" font-family="DejaVu Sans Mono" stroke-miterlimit="10.0"><path d="M 196.0526,348.6842 c 0.0000,-10.9004 -8.8365,-19.7368 -19.7368 -19.7368c -10.9004,-0.0000 -19.7368,8.8365 -19.7368 19.7368c -0.0000,10.9004 8.8365,19.7368 19.7368 19.7368c 10.9004,0.0000 19.7368,-8.8365 19.7368 -19.7368Z"/></g><g stroke-linejoin="miter" stroke-opacity="1.0" fill-opacity="1.0" font-size="26.31578947368421px" stroke="rgb(0,0,0)" stroke-width="1.8197744221107244" fill="rgb(0,0,0)" stroke-linecap="butt" font-family="DejaVu Sans Mono" stroke-miterlimit="10.0"><text dominant-baseline="middle" transform="matrix(1.0000,0.0000,0.0000,1.0000,176.3158,348.6842)" stroke="none" text-anchor="middle">2</text></g><g stroke-linejoin="miter" stroke-opacity="1.0" fill-opacity="1.0" stroke="rgb(0,0,0)" stroke-width="1.8197744221107244" fill="rgb(255,255,255)" stroke-linecap="butt" font-family="DejaVu Sans Mono" stroke-miterlimit="10.0"><path d="M 215.7895,243.4211 c 0.0000,-3.6335 -2.9455,-6.5789 -6.5789 -6.5789c -3.6335,-0.0000 -6.5789,2.9455 -6.5789 6.5789c -0.0000,3.6335 2.9455,6.5789 6.5789 6.5789c 3.6335,0.0000 6.5789,-2.9455 6.5789 -6.5789Z"/></g><g stroke-linejoin="miter" stroke-opacity="1.0" fill-opacity="0.0" stroke="rgb(0,0,0)" stroke-width="1.8197744221107244" fill="rgb(0,0,0)" stroke-linecap="butt" font-family="DejaVu Sans Mono" stroke-miterlimit="10.0"><path d="M 77.6316,243.4211 l 32.8947,105.2632 "/></g><g stroke-linejoin="miter" stroke-opacity="1.0" fill-opacity="1.0" font-size="26.31578947368421px" stroke="rgb(0,0,0)" stroke-width="1.8197744221107244" fill="rgb(0,0,0)" stroke-linecap="butt" font-family="DejaVu Sans Mono" stroke-miterlimit="10.0"><text dominant-baseline="middle" transform="matrix(1.0000,0.0000,0.0000,1.0000,108.7899,301.3158)" stroke="none" text-anchor="middle">1</text></g><g stroke-linejoin="miter" stroke-opacity="1.0" fill-opacity="0.0" stroke="rgb(0,0,0)" stroke-width="1.8197744221107244" fill="rgb(0,0,0)" stroke-linecap="butt" font-family="DejaVu Sans Mono" stroke-miterlimit="10.0"><path d="M 77.6316,243.4211 l -32.8947,105.2632 "/></g><g stroke-linejoin="miter" stroke-opacity="1.0" fill-opacity="1.0" font-size="26.31578947368421px" stroke="rgb(0,0,0)" stroke-width="1.8197744221107244" fill="rgb(0,0,0)" stroke-linecap="butt" font-family="DejaVu Sans Mono" stroke-miterlimit="10.0"><text dominant-baseline="middle" transform="matrix(1.0000,0.0000,0.0000,1.0000,46.4732,301.3158)" stroke="none" text-anchor="middle">0</text></g><g stroke-linejoin="miter" stroke-opacity="1.0" fill-opacity="1.0" stroke="rgb(0,0,0)" stroke-width="1.8197744221107244" fill="rgb(255,255,255)" stroke-linecap="butt" font-family="DejaVu Sans Mono" stroke-miterlimit="10.0"><path d="M 130.2632,348.6842 c 0.0000,-10.9004 -8.8365,-19.7368 -19.7368 -19.7368c -10.9004,-0.0000 -19.7368,8.8365 -19.7368 19.7368c -0.0000,10.9004 8.8365,19.7368 19.7368 19.7368c 10.9004,0.0000 19.7368,-8.8365 19.7368 -19.7368Z"/></g><g stroke-linejoin="miter" stroke-opacity="1.0" fill-opacity="1.0" font-size="26.31578947368421px" stroke="rgb(0,0,0)" stroke-width="1.8197744221107244" fill="rgb(0,0,0)" stroke-linecap="butt" font-family="DejaVu Sans Mono" stroke-miterlimit="10.0"><text dominant-baseline="middle" transform="matrix(1.0000,0.0000,0.0000,1.0000,110.5263,348.6842)" stroke="none" text-anchor="middle">1</text></g><g stroke-linejoin="miter" stroke-opacity="1.0" fill-opacity="1.0" stroke="rgb(0,0,0)" stroke-width="1.8197744221107244" fill="rgb(255,255,255)" stroke-linecap="butt" font-family="DejaVu Sans Mono" stroke-miterlimit="10.0"><path d="M 64.4737,348.6842 c 0.0000,-10.9004 -8.8365,-19.7368 -19.7368 -19.7368c -10.9004,-0.0000 -19.7368,8.8365 -19.7368 19.7368c -0.0000,10.9004 8.8365,19.7368 19.7368 19.7368c 10.9004,0.0000 19.7368,-8.8365 19.7368 -19.7368Z"/></g><g stroke-linejoin="miter" stroke-opacity="1.0" fill-opacity="1.0" font-size="26.31578947368421px" stroke="rgb(0,0,0)" stroke-width="1.8197744221107244" fill="rgb(0,0,0)" stroke-linecap="butt" font-family="DejaVu Sans Mono" stroke-miterlimit="10.0"><text dominant-baseline="middle" transform="matrix(1.0000,0.0000,0.0000,1.0000,44.7368,348.6842)" stroke="none" text-anchor="middle">0</text></g><g stroke-linejoin="miter" stroke-opacity="1.0" fill-opacity="1.0" stroke="rgb(0,0,0)" stroke-width="1.8197744221107244" fill="rgb(255,255,255)" stroke-linecap="butt" font-family="DejaVu Sans Mono" stroke-miterlimit="10.0"><path d="M 84.2105,243.4211 c 0.0000,-3.6335 -2.9455,-6.5789 -6.5789 -6.5789c -3.6335,-0.0000 -6.5789,2.9455 -6.5789 6.5789c -0.0000,3.6335 2.9455,6.5789 6.5789 6.5789c 3.6335,0.0000 6.5789,-2.9455 6.5789 -6.5789Z"/></g><g stroke-linejoin="miter" stroke-opacity="1.0" fill-opacity="1.0" stroke="rgb(0,0,0)" stroke-width="1.8197744221107244" fill="rgb(255,255,255)" stroke-linecap="butt" font-family="DejaVu Sans Mono" stroke-miterlimit="10.0"><path d="M 150.0000,138.1579 c 0.0000,-3.6335 -2.9455,-6.5789 -6.5789 -6.5789c -3.6335,-0.0000 -6.5789,2.9455 -6.5789 6.5789c -0.0000,3.6335 2.9455,6.5789 6.5789 6.5789c 3.6335,0.0000 6.5789,-2.9455 6.5789 -6.5789Z"/></g><g stroke-linejoin="miter" stroke-opacity="1.0" fill-opacity="1.0" stroke="rgb(0,0,0)" stroke-width="1.8197744221107244" fill="rgb(255,255,255)" stroke-linecap="butt" font-family="DejaVu Sans Mono" stroke-miterlimit="10.0"><path d="M 281.5789,32.8947 c 0.0000,-3.6335 -2.9455,-6.5789 -6.5789 -6.5789c -3.6335,-0.0000 -6.5789,2.9455 -6.5789 6.5789c -0.0000,3.6335 2.9455,6.5789 6.5789 6.5789c 3.6335,0.0000 6.5789,-2.9455 6.5789 -6.5789Z"/></g></svg>