<?xml version="1.0" encoding="UTF-8"?>
<!DOCTYPE svg PUBLIC "-//W3C//DTD SVG 1.1//EN"
    "http://www.w3.org/Graphics/SVG/1.1/DTD/svg11.dtd"><svg xmlns="http://www.w3.org/2000/svg" height="273.6842" stroke-opacity="1" viewBox="0 0 400 274" font-size="1" width="400.0000" xmlns:xlink="http://www.w3.org/1999/xlink" stroke="rgb(0,0,0)" version="1.1"><defs></defs><g stroke-linejoin="miter" stroke-opacity="1.0" fill-opacity="1.0" stroke="rgb(0,0,0)" stroke-width="0.0" fill="rgb(255,255,255)" stroke-linecap="butt" font-family="DejaVu Sans Mono" stroke-miterlimit="10.0"><path d="M 400.0000,273.6842 l -0.0000,-273.6842 h -400.0000 l -0.0000,273.6842 Z"/></g><g stroke-linejoin="miter" stroke-opacity="1.0" fill-opacity="0.0" stroke="rgb(0,0,0)" stroke-width="1.3234723069896175" fill="rgb(0,0,0)" stroke-linecap="butt" font-family="DejaVu Sans Mono" stroke-miterlimit="10.0"><path d="M 200.0000,23.9234 l 95.6938,76.5550 "/></g><g stroke-linejoin="miter" stroke-opacity="1.0" fill-opacity="1.0" font-size="19.138755980861237px" stroke="rgb(0,0,0)" stroke-width="1.3234723069896175" fill="rgb(0,0,0)" stroke-linecap="butt" font-family="DejaVu Sans Mono" stroke-miterlimit="10.0"><text dominant-baseline="middle" transform="matrix(1.0000,0.0000,0.0000,1.0000,269.2447,66.0287)" stroke="none" text-anchor="middle">1</text></g><g stroke-linejoin="miter" stroke-opacity="1.0" fill-opacity="0.0" stroke="rgb(0,0,0)" stroke-width="1.3234723069896175" fill="rgb(0,0,0)" stroke-linecap="butt" font-family="DejaVu Sans Mono" stroke-miterlimit="10.0"><path d="M 200.0000,23.9234 l -95.6938,76.5550 "/></g><g stroke-linejoin="miter" stroke-opacity="1.0" fill-opacity="1.0" font-size="19.138755980861237px" stroke="rgb(0,0,0)" stroke-width="1.3234723069896175" fill="rgb(0,0,0)" stroke-linecap="butt" font-family="DejaVu Sans Mono" stroke-miterlimit="10.0"><text dominant-baseline="middle" transform="matrix(1.0000,0.0000,0.0000,1.0000,130.7553,66.0287)" stroke="none" text-anchor="middle">0</text></g><g stroke-linejoin="miter" stroke-opacity="1.0" fill-opacity="0.0" stroke="rgb(0,0,0)" stroke-width="1.3234723069896175" fill="rgb(0,0,0)" stroke-linecap="butt" font-family="DejaVu Sans Mono" stroke-miterlimit="10.0"><path d="M 295.6938,100.4785 l 47.8469,76.5550 "/></g><g stroke-linejoin="miter" stroke-opacity="1.0" fill-opacity="1.0" font-size="19.138755980861237px" stroke="rgb(0,0,0)" stroke-width="1.3234723069896175" fill="rgb(0,0,0)" stroke-linecap="butt" font-family="DejaVu Sans Mono" stroke-miterlimit="10.0"><text dominant-baseline="middle" transform="matrix(1.0000,0.0000,0.0000,1.0000,334.7477,142.5837)" stroke="none" text-anchor="middle">1</text></g><g stroke-linejoin="miter" stroke-opacity="1.0" fill-opacity="0.0" stroke="rgb(0,0,0)" stroke-width="1.3234723069896175" fill="rgb(0,0,0)" stroke-linecap="butt" font-family="DejaVu Sans Mono" stroke-miterlimit="10.0"><path d="M 295.6938,100.4785 l -47.8469,76.5550 "/></g><g stroke-linejoin="miter" stroke-opacity="1.0" fill-opacity="1.0" font-size="19.138755980861237px" stroke="rgb(0,0,0)" stroke-width="1.3234723069896175" fill="rgb(0,0,0)" stroke-linecap="butt" font-family="DejaVu Sans Mono" stroke-miterlimit="10.0"><text dominant-baseline="middle" transform="matrix(1.0000,0.0000,0.0000,1.0000,256.6398,142.5837)" stroke="none" text-anchor="middle">0</text></g><g stroke-linejoin="miter" stroke-opacity="1.0" fill-opacity="0.0" stroke="rgb(0,0,0)" stroke-width="1.3234723069896175" fill="rgb(0,0,0)" stroke-linecap="butt" font-family="DejaVu Sans Mono" stroke-miterlimit="10.0"><path d="M 343.5407,177.0335 l 23.9234,76.5550 "/></g><g stroke-linejoin="miter" stroke-opacity="1.0" fill-opacity="1.0" font-size="19.138755980861237px" stroke="rgb(0,0,0)" stroke-width="1.3234723069896175" fill="rgb(0,0,0)" stroke-linecap="butt" font-family="DejaVu Sans Mono" stroke-miterlimit="10.0"><text dominant-baseline="middle" transform="matrix(1.0000,0.0000,0.0000,1.0000,366.2013,219.1388)" stroke="none" text-anchor="middle">1</text></g><g stroke-linejoin="miter" stroke-opacity="1.0" fill-opacity="0.0" stroke="rgb(0,0,0)" stroke-width="1.3234723069896175" fill="rgb(0,0,0)" stroke-linecap="butt" font-family="DejaVu Sans Mono" stroke-miterlimit="10.0"><path d="M 343.5407,177.0335 l -23.9234,76.5550 "/></g><g stroke-linejoin="miter" stroke-opacity="1.0" fill-opacity="1.0" font-size="19.138755980861237px" stroke="rgb(0,0,0)" stroke-width="1.3234723069896175" fill="rgb(0,0,0)" stroke-linecap="butt" font-family="DejaVu Sans Mono" stroke-miterlimit="10.0"><text dominant-baseline="middle" transform="matrix(1.0000,0.0000,0.0000,1.0000,320.8801,219.1388)" stroke="none" text-anchor="middle">0</text></g><g stroke-linejoin="miter" stroke-opacity="1.0" fill-opacity="1.0" stroke="rgb(0,0,0)" stroke-width="1.3234723069896175" fill="rgb(255,255,255)" stroke-linecap="butt" font-family="DejaVu Sans Mono" stroke-miterlimit="10.0"><path d="M 381.8182,253.5885 c 0.0000,-7.9275 -6.4265,-14.3541 -14.3541 -14.3541c -7.9275,-0.0000 -14.3541,6.4265 -14.3541 14.3541c -0.0000,7.9275 6.4265,14.3541 14.3541 14.3541c 7.9275,0.0000 14.3541,-6.4265 14.3541 -14.3541Z"/></g><g stroke-linejoin="miter" stroke-opacity="1.0" fill-opacity="1.0" font-size="19.138755980861237px" stroke="rgb(0,0,0)" stroke-width="1.3234723069896175" fill="rgb(0,0,0)" stroke-linecap="butt" font-family="DejaVu Sans Mono" stroke-miterlimit="10.0"><text dominant-baseline="middle" transform="matrix(1.0000,0.0000,0.0000,1.0000,367.4641,253.5885)" stroke="none" text-anchor="middle">7</text></g><g stroke-linejoin="miter" stroke-opacity="1.0" fill-opacity="1.0" stroke="rgb(0,0,0)" stroke-width="1.3234723069896175" fill="rgb(255,255,255)" stroke-linecap="butt" font-family="DejaVu Sans Mono" stroke-miterlimit="10.0"><path d="M 333.9713,253.5885 c 0.0000,-7.9275 -6.4265,-14.3541 -14.3541 -14.3541c -7.9275,-0.0000 -14.3541,6.4265 -14.3541 14.3541c -0.0000,7.9275 6.4265,14.3541 14.3541 14.3541c 7.9275,0.0000 14.3541,-6.4265 14.3541 -14.3541Z"/></g><g stroke-linejoin="miter" stroke-opacity="1.0" fill-opacity="1.0" font-size="19.138755980861237px" stroke="rgb(0,0,0)" stroke-width="1.3234723069896175" fill="rgb(0,0,0)" stroke-linecap="butt" font-family="DejaVu Sans Mono" stroke-miterlimit="10.0"><text dominant-baseline="middle" transform="matrix(1.0000,0.0000,0.0000,1.0000,319.6172,253.5885)" stroke="none" text-anchor="middle">6</text></g><g stroke-linejoin="miter" stroke-opacity="1.0" fill-opacity="1.0" stroke="rgb(0,0,0)" stroke-width="1.3234723069896175" fill="rgb(255,255,255)" stroke-linecap="butt" font-family="DejaVu Sans Mono" stroke-miterlimit="10.0"><path d="M 348.3254,177.0335 c 0.0000,-2.6425 -2.1422,-4.7847 -4.7847 -4.7847c -2.6425,-0.0000 -4.7847,2.1422 -4.7847 4.7847c -0.0000,2.6425 2.1422,4.7847 4.7847 4.7847c 2.6425,0.0000 4.7847,-2.1422 4.7847 -4.7847Z"/></g><g stroke-linejoin="miter" stroke-opacity="1.0" fill-opacity="0.0" stroke="rgb(0,0,0)" stroke-width="1.3234723069896175" fill="rgb(0,0,0)" stroke-linecap="butt" font-family="DejaVu Sans Mono" stroke-miterlimit="10.0"><path d="M 247.8469,177.0335 l 23.9234,76.5550 "/></g><g stroke-linejoin="miter" stroke-opacity="1.0" fill-opacity="1.0" font-size="19.138755980861237px" stroke="rgb(0,0,0)" stroke-width="1.3234723069896175" fill="rgb(0,0,0)" stroke-linecap="butt" font-family="DejaVu Sans Mono" stroke-miterlimit="10.0"><text dominant-baseline="middle" transform="matrix(1.0000,0.0000,0.0000,1.0000,270.5075,219.1388)" stroke="none" text-anchor="middle">1</text></g><g stroke-linejoin="miter" stroke-opacity="1.0" fill-opacity="0.0" stroke="rgb(0,0,0)" stroke-width="1.3234723069896175" fill="rgb(0,0,0)" stroke-linecap="butt" font-family="DejaVu Sans Mono" stroke-miterlimit="10.0"><path d="M 247.8469,177.0335 l -23.9234,76.5550 "/></g><g stroke-linejoin="miter" stroke-opacity="1.0" fill-opacity="1.0" font-size="19.138755980861237px" stroke="rgb(0,0,0)" stroke-width="1.3234723069896175" fill="rgb(0,0,0)" stroke-linecap="butt" font-family="DejaVu Sans Mono" stroke-miterlimit="10.0"><text dominant-baseline="middle" transform="matrix(1.0000,0.0000,0.0000,1.0000,225.1863,219.1388)" stroke="none" text-anchor="middle">0</text></g><g stroke-linejoin="miter" stroke-opacity="1.0" fill-opacity="1.0" stroke="rgb(0,0,0)" stroke-width="1.3234723069896175" fill="rgb(255,255,255)" stroke-linecap="butt" font-family="DejaVu Sans Mono" stroke-miterlimit="10.0"><path d="M 286.1244,253.5885 c 0.0000,-7.9275 -6.4265,-14.3541 -14.3541 -14.3541c -7.9275,-0.0000 -14.3541,6.4265 -14.3541 14.3541c -0.0000,7.9275 6.4265,14.3541 14.3541 14.3541c 7.9275,0.0000 14.3541,-6.4265 14.3541 -14.3541Z"/></g><g stroke-linejoin="miter" stroke-opacity="1.0" fill-opacity="1.0" font-size="19.138755980861237px" stroke="rgb(0,0,0)" stroke-width="1.3234723069896175" fill="rgb(0,0,0)" stroke-linecap="butt" font-family="DejaVu Sans Mono" stroke-miterlimit="10.0"><text dominant-baseline="middle" transform="matrix(1.0000,0.0000,0.0000,1.0000,271.7703,253.5885)" stroke="none" text-anchor="middle">5</text></g><g stroke-linejoin="miter" stroke-opacity="1.0" fill-opacity="1.0" stroke="rgb(0,0,0)" stroke-width="1.3234723069896175" fill="rgb(255,255,255)" stroke-linecap="butt" font-family="DejaVu Sans Mono" stroke-miterlimit="10.0"><path d="M 238.2775,253.5885 c 0.0000,-7.9275 -6.4265,-14.3541 -14.3541 -14.3541c -7.9275,-0.0000 -14.3541,6.4265 -14.3541 14.3541c -0.0000,7.9275 6.4265,14.3541 14.3541 14.3541c 7.9275,0.0000 14.3541,-6.4265 14.3541 -14.3541Z"/></g><g stroke-linejoin="miter" stroke-opacity="1.0" fill-opacity="1.0" font-size="19.138755980861237px" stroke="rgb(0,0,0)" stroke-width="1.3234723069896175" fill="rgb(0,0,0)" stroke-linecap="butt" font-family="DejaVu Sans Mono" stroke-miterlimit="10.0"><text dominant-baseline="middle" transform="matrix(1.0000,0.0000,0.0000,1.0000,223.9234,253.5885)" stroke="none" text-anchor="middle">4</text></g><g stroke-linejoin="miter" stroke-opacity="1.0" fill-opacity="1.0" stroke="rgb(0,0,0)" stroke-width="1.3234723069896175" fill="rgb(255,255,255)" stroke-linecap="butt" font-family="DejaVu Sans Mono" stroke-miterlimit="10.0"><path d="M 252.6316,177.0335 c 0.0000,-2.6425 -2.1422,-4.7847 -4.7847 -4.7847c -2.6425,-0.0000 -4.7847,2.1422 -4.7847 4.7847c -0.0000,2.6425 2.1422,4.7847 4.7847 4.7847c 2.6425,0.0000 4.7847,-2.1422 4.7847 -4.7847Z"/></g><g stroke-linejoin="miter" stroke-opacity="1.0" fill-opacity="1.0" stroke="rgb(0,0,0)" stroke-width="1.3234723069896175" fill="rgb(255,255,255)" stroke-linecap="butt" font-family="DejaVu Sans Mono" stroke-miterlimit="10.0"><path d="M 300.4785,100.4785 c 0.0000,-2.6425 -2.1422,-4.7847 -4.7847 -4.7847c -2.6425,-0.0000 -4.7847,2.1422 -4.7847 4.7847c -0.0000,2.6425 2.1422,4.7847 4.7847 4.7847c 2.6425,0.0000 4.7847,-2.1422 4.7847 -4.7847Z"/></g><g stroke-linejoin="miter" stroke-opacity="1.0" fill-opacity="0.0" stroke="rgb(0,0,0)" stroke-width="1.3234723069896175" fill="rgb(0,0,0)" stroke-linecap="butt" font-family="DejaVu Sans Mono" stroke-miterlimit="10.0"><path d="M 104.3062,100.4785 l 47.8469,76.5550 "/></g><g stroke-linejoin="miter" stroke-opacity="1.0" fill-opacity="1.0" font-size="19.138755980861237px" stroke="rgb(0,0,0)" stroke-width="1.3234723069896175" fill="rgb(0,0,0)" stroke-linecap="butt" font-family="DejaVu Sans Mono" stroke-miterlimit="10.0"><text dominant-baseline="middle" transform="matrix(1.0000,0.0000,0.0000,1.0000,143.3602,142.5837)" stroke="none" text-anchor="middle">1</text></g><g stroke-linejoin="miter" stroke-opacity="1.0" fill-opacity="0.0" stroke="rgb(0,0,0)" stroke-width="1.3234723069896175" fill="rgb(0,0,0)" stroke-linecap="butt" font-family="DejaVu Sans Mono" stroke-miterlimit="10.0"><path d="M 104.3062,100.4785 l -47.8469,76.5550 "/></g><g stroke-linejoin="miter" stroke-opacity="1.0" fill-opacity="1.0" font-size="19.138755980861237px" stroke="rgb(0,0,0)" stroke-width="1.3234723069896175" fill="rgb(0,0,0)" stroke-linecap="butt" font-family="DejaVu Sans Mono" stroke-miterlimit="10.0"><text dominant-baseline="middle" transform="matrix(1.0000,0.0000,0.0000,1.0000,65.2523,142.5837)" stroke="none" text-anchor="middle">0</text></g><g stroke-linejoin="miter" stroke-opacity="1.0" fill-opacity="0.0" stroke="rgb(0,0,0)" stroke-width="1.3234723069896175" fill="rgb(0,0,0)" stroke-linecap="butt" font-family="DejaVu Sans Mono" stroke-miterlimit="10.0"><path d="M 152.1531,177.0335 l 23.9234,76.5550 "/></g><g stroke-linejoin="miter" stroke-opacity="1.0" fill-opacity="1.0" font-size="19.138755980861237px" stroke="rgb(0,0,0)" stroke-width="1.3234723069896175" fill="rgb(0,0,0)" stroke-linecap="butt" font-family="DejaVu Sans Mono" stroke-miterlimit="10.0"><text dominant-baseline="middle" transform="matrix(1.0000,0.0000,0.0000,1.0000,174.8137,219.1388)" stroke="none" text-anchor="middle">1</text></g><g stroke-linejoin="miter" stroke-opacity="1.0" fill-opacity="0.0" stroke="rgb(0,0,0)" stroke-width="1.3234723069896175" fill="rgb(0,0,0)" stroke-linecap="butt" font-family="DejaVu Sans Mono" stroke-miterlimit="10.0"><path d="M 152.1531,177.0335 l -23.9234,76.5550 "/></g><g stroke-linejoin="miter" stroke-opacity="1.0" fill-opacity="1.0" font-size="19.138755980861237px" stroke="rgb(0,0,0)" stroke-width="1.3234723069896175" fill="rgb(0,0,0)" stroke-linecap="butt" font-family="DejaVu Sans Mono" stroke-miterlimit="10.0"><text dominant-baseline="middle" transform="matrix(1.0000,0.0000,0.0000,1.0000,129.4925,219.1388)" stroke="none" text-anchor="middle">0</text></g><g stroke-linejoin="miter" stroke-opacity="1.0" fill-opacity="1.0" stroke="rgb(0,0,0)" stroke-width="1.3234723069896175" fill="rgb(255,255,255)" stroke-linecap="butt" font-family="DejaVu Sans Mono" stroke-miterlimit="10.0"><path d="M 190.4306,253.5885 c 0.0000,-7.9275 -6.4265,-14.3541 -14.3541 -14.3541c -7.9275,-0.0000 -14.3541,6.4265 -14.3541 14.3541c -0.0000,7.9275 6.4265,14.3541 14.3541 14.3541c 7.9275,0.0000 14.3541,-6.4265 14.3541 -14.3541Z"/></g><g stroke-linejoin="miter" stroke-opacity="1.0" fill-opacity="1.0" font-size="19.138755980861237px" stroke="rgb(0,0,0)" stroke-width="1.3234723069896175" fill="rgb(0,0,0)" stroke-linecap="butt" font-family="DejaVu Sans Mono" stroke-miterlimit="10.0"><text dominant-baseline="middle" transform="matrix(1.0000,0.0000,0.0000,1.0000,176.0766,253.5885)" stroke="none" text-anchor="middle">3</text></g><g stroke-linejoin="miter" stroke-opacity="1.0" fill-opacity="1.0" stroke="rgb(0,0,0)" stroke-width="1.3234723069896175" fill="rgb(255,255,255)" stroke-linecap="butt" font-family="DejaVu Sans Mono" stroke-miterlimit="10.0"><path d="M 142.5837,253.5885 c 0.0000,-7.9275 -6.4265,-14.3541 -14.3541 -14.3541c -7.9275,-0.0000 -14.3541,6.4265 -14.3541 14.3541c -0.0000,7.9275 6.4265,14.3541 14.3541 14.3541c 7.9275,0.0000 14.3541,-6.4265 14.3541 -14.3541Z"/></g><g stroke-linejoin="miter" stroke-opacity="1.0" fill-opacity="1.0" font-size="19.138755980861237px" stroke="rgb(0,0,0)" stroke-width="1.3234723069896175" fill="rgb(0,0,0)" stroke-linecap="butt" font-family="DejaVu Sans Mono" stroke-miterlimit="10.0"><text dominant-baseline="middle" transform="matrix(1.0000,0.0000,0.0000,1.0000,128.2297,253.5885)" stroke="none" text-anchor="middle">2</text></g><g stroke-linejoin="miter" stroke-opacity="1.0" fill-opacity="1.0" stroke="rgb(0,0,0)" stroke-width="1.3234723069896175" fill="rgb(255,255,255)" stroke-linecap="butt" font-family="DejaVu Sans Mono" stroke-miterlimit="10.0"><path d="M 156.9378,177.0335 c 0.0000,-2.6425 -2.1422,-4.7847 -4.7847 -4.7847c -2.6425,-0.0000 -4.7847,2.1422 -4.7847 4.7847c -0.0000,2.6425 2.1422,4.7847 4.7847 4.7847c 2.6425,0.0000 4.7847,-2.1422 4.7847 -4.7847Z"/></g><g stroke-linejoin="miter" stroke-opacity="1.0" fill-opacity="0.0" stroke="rgb(0,0,0)" stroke-width="1.3234723069896175" fill="rgb(0,0,0)" stroke-linecap="butt" font-family="DejaVu Sans Mono" stroke-miterlimit="10.0"><path d="M 56.4593,177.0335 l 23.9234,76.5550 "/></g><g stroke-linejoin="miter" stroke-opacity="1.0" fill-opacity="1.0" font-size="19.138755980861237px" stroke="rgb(0,0,0)" stroke-width="1.3234723069896175" fill="rgb(0,0,0)" stroke-linecap="butt" font-family="DejaVu Sans Mono" stroke-miterlimit="10.0"><text dominant-baseline="middle" transform="matrix(1.0000,0.0000,0.0000,1.0000,79.1199,219.1388)" stroke="none" text-anchor="middle">1</text></g><g stroke-linejoin="miter" stroke-opacity="1.0" fill-opacity="0.0" stroke="rgb(0,0,0)" stroke-width="1.3234723069896175" fill="rgb(0,0,0)" stroke-linecap="butt" font-family="DejaVu Sans Mono" stroke-miterlimit="10.0"><path d="M 56.4593,177.0335 l -23.9234,76.5550 "/></g><g stroke-linejoin="miter" stroke-opacity="1.0" fill-opacity="1.0" font-size="19.138755980861237px" stroke="rgb(0,0,0)" stroke-width="1.3234723069896175" fill="rgb(0,0,0)" stroke-linecap="butt" font-family="DejaVu Sans Mono" stroke-miterlimit="10.0"><text dominant-baseline="middle" transform="matrix(1.0000,0.0000,0.0000,1.0000,33.7987,219.1388)" stroke="none" text-anchor="middle">0</text></g><g stroke-linejoin="miter" stroke-opacity="1.0" fill-opacity="1.0" stroke="rgb(0,0,0)" stroke-width="1.3234723069896175" fill="rgb(255,255,255)" stroke-linecap="butt" font-family="DejaVu Sans Mono" stroke-miterlimit="10.0"><path d="M 94.7368,253.5885 c 0.0000,-7.9275 -6.4265,-14.3541 -14.3541 -14.3541c -7.9275,-0.0000 -14.3541,6.4265 -14.3541 14.3541c -0.0000,7.9275 6.4265,14.3541 14.3541 14.3541c 7.9275,0.0000 14.3541,-6.4265 14.3541 -14.3541Z"/></g><g stroke-linejoin="miter" stroke-opacity="1.0" fill-opacity="1.0" font-size="19.138755980861237px" stroke="rgb(0,0,0)" stroke-width="1.3234723069896175" fill="rgb(0,0,0)" stroke-linecap="butt" font-family="DejaVu Sans Mono" stroke-miterlimit="10.0"><text dominant-baseline="middle" transform="matrix(1.0000,0.0000,0.0000,1.0000,80.3828,253.5885)" stroke="none" text-anchor="middle">1</text></g><g stroke-linejoin="miter" stroke-opacity="1.0" fill-opacity="1.0" stroke="rgb(0,0,0)" stroke-width="1.3234723069896175" fill="rgb(255,255,255)" stroke-linecap="butt" font-family="DejaVu Sans Mono" stroke-miterlimit="10.0"><path d="M 46.8900,253.5885 c 0.0000,-7.9275 -6.4265,-14.3541 -14.3541 -14.3541c -7.9275,-0.0000 -14.3541,6.4265 -14.3541 14.3541c -0.0000,7.9275 6.4265,14.3541 14.3541 14.3541c 7.9275,0.0000 14.3541,-6.4265 14.3541 -14.3541Z"/></g><g stroke-linejoin="miter" stroke-opacity="1.0" fill-opacity="1.0" font-size="19.138755980861237px" stroke="rgb(0,0,0)" stroke-width="1.3234723069896175" fill="rgb(0,0,0)" stroke-linecap="butt" font-family="DejaVu Sans Mono" stroke-miterlimit="10.0"><text dominant-baseline="middle" transform="matrix(1.0000,0.0000,0.0000,1.0000,32.5359,253.5885)" stroke="none" text-anchor="middle">0</text></g><g stroke-linejoin="miter" stroke-opacity="1.0" fill-opacity="1.0" stroke="rgb(0,0,0)" stroke-width="1.3234723069896175" fill="rgb(255,255,255)" stroke-linecap="butt" font-family="DejaVu Sans Mono" stroke-miterlimit="10.0"><path d="M 61.2440,177.0335 c 0.0000,-2.6425 -2.1422,-4.7847 -4.7847 -4.7847c -2.6425,-0.0000 -4.7847,2.1422 -4.7847 4.7847c -0.0000,2.6425 2.1422,4.7847 4.7847 4.7847c 2.6425,0.0000 4.7847,-2.1422 4.7847 -4.7847Z"/></g><g stroke-linejoin="miter" stroke-opacity="1.0" fill-opacity="1.0" stroke="rgb(0,0,0)" stroke-width="1.3234723069896175" fill="rgb(255,255,255)" stroke-linecap="butt" font-family="DejaVu Sans Mono" stroke-miterlimit="10.0"><path d="M 109.0909,100.4785 c 0.0000,-2.6425 -2.1422,-4.7847 -4.7847 -4.7847c -2.6425,-0.0000 -4.7847,2.1422 -4.7847 4.7847c -0.0000,2.6425 2.1422,4.7847 4.7847 4.7847c 2.6425,0.0000 4.7847,-2.1422 4.7847 -4.7847Z"/></g><g stroke-linejoin="miter" stroke-opacity="1.0" fill-opacity="1.0" stroke="rgb(0,0,0)" stroke-width="1.3234723069896175" fill="rgb(255,255,255)" stroke-linecap="butt" font-family="DejaVu Sans Mono" stroke-miterlimit="10.0"><path d="M 204.7847,23.9234 c 0.0000,-2.6425 -2.1422,-4.7847 -4.7847 -4.7847c -2.6425,-0.0000 -4.7847,2.1422 -4.7847 4.7847c -0.0000,2.6425 2.1422,4.7847 4.7847 4.7847c 2.6425,0.0000 4.7847,-2.1422 4.7847 -4.7847Z"/></g></svg>