<?xml version="1.0" encoding="UTF-8"?>
<!DOCTYPE svg PUBLIC "-//W3C//DTD SVG 1.1//EN"
    "http://www.w3.org/Graphics/SVG/1.1/DTD/svg11.dtd"><svg xmlns="http://www.w3.org/2000/svg" height="400.0000" stroke-opacity="1" viewBox="0 0 164 400" font-size="1" width="164.1026" xmlns:xlink="http://www.w3.org/1999/xlink" stroke="rgb(0,0,0)" version="1.1"><defs></defs><g stroke-linejoin="miter" stroke-opacity="1.0" fill-opacity="1.0" stroke="rgb(0,0,0)" stroke-width="0.0" fill="rgb(255,255,255)" stroke-linecap="butt" font-family="DejaVu Sans Mono" stroke-miterlimit="10.0"><path d="M 164.1026,400.0000 l -0.0000,-400.0000 h -164.1026 l -0.0000,400.0000 Z"/></g><g stroke-linejoin="miter" stroke-opacity="1.0" fill-opacity="0.0" stroke="rgb(0,0,0)" stroke-width="1.0248201843525575" fill="rgb(0,0,0)" stroke-linecap="butt" font-family="DejaVu Sans Mono" stroke-miterlimit="10.0"><path d="M 82.0513,74.5921 l 46.6200,149.1841 "/></g><g stroke-linejoin="miter" stroke-opacity="1.0" fill-opacity="1.0" font-size="37.2960372960373px" stroke="rgb(0,0,0)" stroke-width="1.0248201843525575" fill="rgb(0,0,0)" stroke-linecap="butt" font-family="DejaVu Sans Mono" stroke-miterlimit="10.0"><text dominant-baseline="middle" transform="matrix(1.0000,0.0000,0.0000,1.0000,126.2104,156.6434)" stroke="none" text-anchor="middle">1</text></g><g stroke-linejoin="miter" stroke-opacity="1.0" fill-opacity="0.0" stroke="rgb(0,0,0)" stroke-width="1.0248201843525575" fill="rgb(0,0,0)" stroke-linecap="butt" font-family="DejaVu Sans Mono" stroke-miterlimit="10.0"><path d="M 82.0513,74.5921 l -46.6200,149.1841 "/></g><g stroke-linejoin="miter" stroke-opacity="1.0" fill-opacity="1.0" font-size="37.2960372960373px" stroke="rgb(0,0,0)" stroke-width="1.0248201843525575" fill="rgb(0,0,0)" stroke-linecap="butt" font-family="DejaVu Sans Mono" stroke-miterlimit="10.0"><text dominant-baseline="middle" transform="matrix(1.0000,0.0000,0.0000,1.0000,37.8921,156.6434)" stroke="none" text-anchor="middle">0</text></g><g stroke-linejoin="miter" stroke-opacity="1.0" fill-opacity="0.0" stroke="rgb(0,0,0)" stroke-width="1.0248201843525575" fill="rgb(0,0,0)" stroke-linecap="butt" font-family="DejaVu Sans Mono" stroke-miterlimit="10.0"><path d="M 128.6713,223.7762 v 149.1841 "/></g><g stroke-linejoin="miter" stroke-opacity="1.0" fill-opacity="1.0" font-size="37.2960372960373px" stroke="rgb(0,0,0)" stroke-width="1.0248201843525575" fill="rgb(0,0,0)" stroke-linecap="butt" font-family="DejaVu Sans Mono" stroke-miterlimit="10.0"><text dominant-baseline="middle" transform="matrix(1.0000,0.0000,0.0000,1.0000,143.5897,305.8275)" stroke="none" text-anchor="middle">1</text></g><g stroke-linejoin="miter" stroke-opacity="1.0" fill-opacity="1.0" stroke="rgb(0,0,0)" stroke-width="1.0248201843525575" fill="rgb(255,255,255)" stroke-linecap="butt" font-family="DejaVu Sans Mono" stroke-miterlimit="10.0"><path d="M 156.6434,372.9604 c 0.0000,-15.4485 -12.5235,-27.9720 -27.9720 -27.9720c -15.4485,-0.0000 -27.9720,12.5235 -27.9720 27.9720c -0.0000,15.4485 12.5235,27.9720 27.9720 27.9720c 15.4485,0.0000 27.9720,-12.5235 27.9720 -27.9720Z"/></g><g stroke-linejoin="miter" stroke-opacity="1.0" fill-opacity="1.0" font-size="37.2960372960373px" stroke="rgb(0,0,0)" stroke-width="1.0248201843525575" fill="rgb(0,0,0)" stroke-linecap="butt" font-family="DejaVu Sans Mono" stroke-miterlimit="10.0"><text dominant-baseline="middle" transform="matrix(1.0000,0.0000,0.0000,1.0000,128.6713,372.9604)" stroke="none" text-anchor="middle">2</text></g><g stroke-linejoin="miter" stroke-opacity="1.0" fill-opacity="1.0" stroke="rgb(0,0,0)" stroke-width="1.0248201843525575" fill="rgb(255,255,255)" stroke-linecap="butt" font-family="DejaVu Sans Mono" stroke-miterlimit="10.0"><path d="M 137.9953,223.7762 c 0.0000,-5.1495 -4.1745,-9.3240 -9.3240 -9.3240c -5.1495,-0.0000 -9.3240,4.1745 -9.3240 9.3240c -0.0000,5.1495 4.1745,9.3240 9.3240 9.3240c 5.1495,0.0000 9.3240,-4.1745 9.3240 -9.3240Z"/></g><g stroke-linejoin="miter" stroke-opacity="1.0" fill-opacity="0.0" stroke="rgb(0,0,0)" stroke-width="1.0248201843525575" fill="rgb(0,0,0)" stroke-linecap="butt" font-family="DejaVu Sans Mono" stroke-miterlimit="10.0"><path d="M 35.4312,223.7762 v 149.1841 "/></g><g stroke-linejoin="miter" stroke-opacity="1.0" fill-opacity="1.0" font-size="37.2960372960373px" stroke="rgb(0,0,0)" stroke-width="1.0248201843525575" fill="rgb(0,0,0)" stroke-linecap="butt" font-family="DejaVu Sans Mono" stroke-miterlimit="10.0"><text dominant-baseline="middle" transform="matrix(1.0000,0.0000,0.0000,1.0000,50.3497,305.8275)" stroke="none" text-anchor="middle">1</text></g><g stroke-linejoin="miter" stroke-opacity="1.0" fill-opacity="1.0" stroke="rgb(0,0,0)" stroke-width="1.0248201843525575" fill="rgb(255,255,255)" stroke-linecap="butt" font-family="DejaVu Sans Mono" stroke-miterlimit="10.0"><path d="M 63.4033,372.9604 c 0.0000,-15.4485 -12.5235,-27.9720 -27.9720 -27.9720c -15.4485,-0.0000 -27.9720,12.5235 -27.9720 27.9720c -0.0000,15.4485 12.5235,27.9720 27.9720 27.9720c 15.4485,0.0000 27.9720,-12.5235 27.9720 -27.9720Z"/></g><g stroke-linejoin="miter" stroke-opacity="1.0" fill-opacity="1.0" font-size="37.2960372960373px" stroke="rgb(0,0,0)" stroke-width="1.0248201843525575" fill="rgb(0,0,0)" stroke-linecap="butt" font-family="DejaVu Sans Mono" stroke-miterlimit="10.0"><text dominant-baseline="middle" transform="matrix(1.0000,0.0000,0.0000,1.0000,35.4312,372.9604)" stroke="none" text-anchor="middle">1</text></g><g stroke-linejoin="miter" stroke-opacity="1.0" fill-opacity="1.0" stroke="rgb(0,0,0)" stroke-width="1.0248201843525575" fill="rgb(255,255,255)" stroke-linecap="butt" font-family="DejaVu Sans Mono" stroke-miterlimit="10.0"><path d="M 44.7552,223.7762 c 0.0000,-5.1495 -4.1745,-9.3240 -9.3240 -9.3240c -5.1495,-0.0000 -9.3240,4.1745 -9.3240 9.3240c -0.0000,5.1495 4.1745,9.3240 9.3240 9.3240c 5.1495,0.0000 9.3240,-4.1745 9.3240 -9.3240Z"/></g><g stroke-linejoin="miter" stroke-opacity="1.0" fill-opacity="1.0" stroke="rgb(0,0,0)" stroke-width="0.0" fill="rgb(255,255,255)" stroke-linecap="butt" font-family="DejaVu Sans Mono" stroke-miterlimit="10.0"><path d="M 126.8065,111.8881 l -0.0000,-74.5921 h -89.5105 l -0.0000,74.5921 Z"/></g><g stroke-linejoin="miter" stroke-opacity="1.0" fill-opacity="0.0" stroke="rgb(0,0,0)" stroke-width="1.0248201843525575" fill="rgb(0,0,0)" stroke-linecap="butt" font-family="DejaVu Sans Mono" stroke-miterlimit="10.0"><path d="M 126.8065,111.8881 l -0.0000,-74.5921 h -89.5105 l -0.0000,74.5921 Z"/></g><g stroke-linejoin="miter" stroke-opacity="1.0" fill-opacity="1.0" font-size="37.2960372960373px" stroke="rgb(0,0,0)" stroke-width="1.0248201843525575" fill="rgb(0,0,0)" stroke-linecap="butt" font-family="DejaVu Sans Mono" stroke-miterlimit="10.0"><text dominant-baseline="middle" transform="matrix(1.0000,0.0000,0.0000,1.0000,82.0513,74.5921)" stroke="none" text-anchor="middle">000</text></g></svg>