<?xml version="1.0" encoding="UTF-8"?>
<!DOCTYPE svg PUBLIC "-//W3C//DTD SVG 1.1//EN"
    "http://www.w3.org/Graphics/SVG/1.1/DTD/svg11.dtd"><svg xmlns="http://www.w3.org/2000/svg" height="500.0000" stroke-opacity="1" viewBox="0 0 205 500" font-size="1" width="205.1282" xmlns:xlink="http://www.w3.org/1999/xlink" stroke="rgb(0,0,0)" version="1.1"><defs></defs><g stroke-linejoin="miter" stroke-opacity="1.0" fill-opacity="0.0" stroke="rgb(0,0,0)" stroke-width="1.281025230440697" fill="rgb(0,0,0)" stroke-linecap="butt" font-family="DejaVu Sans Mono" stroke-miterlimit="10.0"><path d="M 102.5641,46.6200 l 58.2751,186.4802 "/></g><g stroke-linejoin="miter" stroke-opacity="1.0" fill-opacity="1.0" font-size="46.62004662004662px" stroke="rgb(0,0,0)" stroke-width="1.281025230440697" fill="rgb(0,0,0)" stroke-linecap="butt" font-family="DejaVu Sans Mono" stroke-miterlimit="10.0"><text dominant-baseline="middle" transform="matrix(1.0000,0.0000,0.0000,1.0000,157.7630,149.1841)" stroke="none" text-anchor="middle">1</text></g><g stroke-linejoin="miter" stroke-opacity="1.0" fill-opacity="0.0" stroke="rgb(0,0,0)" stroke-width="1.281025230440697" fill="rgb(0,0,0)" stroke-linecap="butt" font-family="DejaVu Sans Mono" stroke-miterlimit="10.0"><path d="M 102.5641,46.6200 l -58.2751,186.4802 "/></g><g stroke-linejoin="miter" stroke-opacity="1.0" fill-opacity="1.0" font-size="46.62004662004662px" stroke="rgb(0,0,0)" stroke-width="1.281025230440697" fill="rgb(0,0,0)" stroke-linecap="butt" font-family="DejaVu Sans Mono" stroke-miterlimit="10.0"><text dominant-baseline="middle" transform="matrix(1.0000,0.0000,0.0000,1.0000,47.3652,149.1841)" stroke="none" text-anchor="middle">0</text></g><g stroke-linejoin="miter" stroke-opacity="1.0" fill-opacity="0.0" stroke="rgb(0,0,0)" stroke-width="1.281025230440697" fill="rgb(0,0,0)" stroke-linecap="butt" font-family="DejaVu Sans Mono" stroke-miterlimit="10.0"><path d="M 160.8392,233.1002 v 186.4802 "/></g><g stroke-linejoin="miter" stroke-opacity="1.0" fill-opacity="1.0" font-size="46.62004662004662px" stroke="rgb(0,0,0)" stroke-width="1.281025230440697" fill="rgb(0,0,0)" stroke-linecap="butt" font-family="DejaVu Sans Mono" stroke-miterlimit="10.0"><text dominant-baseline="middle" transform="matrix(1.0000,0.0000,0.0000,1.0000,179.4872,335.6643)" stroke="none" text-anchor="middle">1</text></g><g stroke-linejoin="miter" stroke-opacity="1.0" fill-opacity="1.0" stroke="rgb(0,0,0)" stroke-width="1.281025230440697" fill="rgb(255,255,255)" stroke-linecap="butt" font-family="DejaVu Sans Mono" stroke-miterlimit="10.0"><path d="M 195.8042,419.5804 c 0.0000,-19.3107 -15.6544,-34.9650 -34.9650 -34.9650c -19.3107,-0.0000 -34.9650,15.6544 -34.9650 34.9650c -0.0000,19.3107 15.6544,34.9650 34.9650 34.9650c 19.3107,0.0000 34.9650,-15.6544 34.9650 -34.9650Z"/></g><g stroke-linejoin="miter" stroke-opacity="1.0" fill-opacity="1.0" font-size="46.62004662004662px" stroke="rgb(0,0,0)" stroke-width="1.281025230440697" fill="rgb(0,0,0)" stroke-linecap="butt" font-family="DejaVu Sans Mono" stroke-miterlimit="10.0"><text dominant-baseline="middle" transform="matrix(1.0000,0.0000,0.0000,1.0000,160.8392,419.5804)" stroke="none" text-anchor="middle">2</text></g><g stroke-linejoin="miter" stroke-opacity="1.0" fill-opacity="1.0" stroke="rgb(0,0,0)" stroke-width="1.281025230440697" fill="rgb(255,255,255)" stroke-linecap="butt" font-family="DejaVu Sans Mono" stroke-miterlimit="10.0"><path d="M 172.4942,233.1002 c 0.0000,-6.4369 -5.2181,-11.6550 -11.6550 -11.6550c -6.4369,-0.0000 -11.6550,5.2181 -11.6550 11.6550c -0.0000,6.4369 5.2181,11.6550 11.6550 11.6550c 6.4369,0.0000 11.6550,-5.2181 11.6550 -11.6550Z"/></g><g stroke-linejoin="miter" stroke-opacity="1.0" fill-opacity="0.0" stroke="rgb(0,0,0)" stroke-width="1.281025230440697" fill="rgb(0,0,0)" stroke-linecap="butt" font-family="DejaVu Sans Mono" stroke-miterlimit="10.0"><path d="M 44.2890,233.1002 v 186.4802 "/></g><g stroke-linejoin="miter" stroke-opacity="1.0" fill-opacity="1.0" font-size="46.62004662004662px" stroke="rgb(0,0,0)" stroke-width="1.281025230440697" fill="rgb(0,0,0)" stroke-linecap="butt" font-family="DejaVu Sans Mono" stroke-miterlimit="10.0"><text dominant-baseline="middle" transform="matrix(1.0000,0.0000,0.0000,1.0000,62.9371,335.6643)" stroke="none" text-anchor="middle">1</text></g><g stroke-linejoin="miter" stroke-opacity="1.0" fill-opacity="1.0" stroke="rgb(0,0,0)" stroke-width="1.281025230440697" fill="rgb(255,255,255)" stroke-linecap="butt" font-family="DejaVu Sans Mono" stroke-miterlimit="10.0"><path d="M 79.2541,419.5804 c 0.0000,-19.3107 -15.6544,-34.9650 -34.9650 -34.9650c -19.3107,-0.0000 -34.9650,15.6544 -34.9650 34.9650c -0.0000,19.3107 15.6544,34.9650 34.9650 34.9650c 19.3107,0.0000 34.9650,-15.6544 34.9650 -34.9650Z"/></g><g stroke-linejoin="miter" stroke-opacity="1.0" fill-opacity="1.0" font-size="46.62004662004662px" stroke="rgb(0,0,0)" stroke-width="1.281025230440697" fill="rgb(0,0,0)" stroke-linecap="butt" font-family="DejaVu Sans Mono" stroke-miterlimit="10.0"><text dominant-baseline="middle" transform="matrix(1.0000,0.0000,0.0000,1.0000,44.2890,419.5804)" stroke="none" text-anchor="middle">1</text></g><g stroke-linejoin="miter" stroke-opacity="1.0" fill-opacity="1.0" stroke="rgb(0,0,0)" stroke-width="1.281025230440697" fill="rgb(255,255,255)" stroke-linecap="butt" font-family="DejaVu Sans Mono" stroke-miterlimit="10.0"><path d="M 55.9441,233.1002 c 0.0000,-6.4369 -5.2181,-11.6550 -11.6550 -11.6550c -6.4369,-0.0000 -11.6550,5.2181 -11.6550 11.6550c -0.0000,6.4369 5.2181,11.6550 11.6550 11.6550c 6.4369,0.0000 11.6550,-5.2181 11.6550 -11.6550Z"/></g><g stroke-linejoin="miter" stroke-opacity="1.0" fill-opacity="1.0" stroke="rgb(0,0,0)" stroke-width="0.0" fill="rgb(255,255,255)" stroke-linecap="butt" font-family="DejaVu Sans Mono" stroke-miterlimit="10.0"><path d="M 158.5082,93.2401 l -0.0000,-93.2401 h -111.8881 l -0.0000,93.2401 Z"/></g><g stroke-linejoin="miter" stroke-opacity="1.0" fill-opacity="0.0" stroke="rgb(0,0,0)" stroke-width="1.281025230440697" fill="rgb(0,0,0)" stroke-linecap="butt" font-family="DejaVu Sans Mono" stroke-miterlimit="10.0"><path d="M 158.5082,93.2401 l -0.0000,-93.2401 h -111.8881 l -0.0000,93.2401 Z"/></g><g stroke-linejoin="miter" stroke-opacity="1.0" fill-opacity="1.0" font-size="46.62004662004662px" stroke="rgb(0,0,0)" stroke-width="1.281025230440697" fill="rgb(0,0,0)" stroke-linecap="butt" font-family="DejaVu Sans Mono" stroke-miterlimit="10.0"><text dominant-baseline="middle" transform="matrix(1.0000,0.0000,0.0000,1.0000,102.5641,46.6200)" stroke="none" text-anchor="middle">000</text></g></svg>