<?xml version="1.0" encoding="UTF-8"?>
<!DOCTYPE svg PUBLIC "-//W3C//DTD SVG 1.1//EN"
    "http://www.w3.org/Graphics/SVG/1.1/DTD/svg11.dtd"><svg xmlns="http://www.w3.org/2000/svg" height="400.0000" stroke-opacity="1" viewBox="0 0 124 400" font-size="1" width="123.8095" xmlns:xlink="http://www.w3.org/1999/xlink" stroke="rgb(0,0,0)" version="1.1"><defs></defs><g stroke-linejoin="miter" stroke-opacity="1.0" fill-opacity="1.0" stroke="rgb(0,0,0)" stroke-width="0.0" fill="rgb(255,255,255)" stroke-linecap="butt" font-family="DejaVu Sans Mono" stroke-miterlimit="10.0"><path d="M 123.8095,400.0000 l -0.0000,-400.0000 h -123.8095 l -0.0000,400.0000 Z"/></g><g stroke-linejoin="miter" stroke-opacity="1.0" fill-opacity="0.0" stroke="rgb(0,0,0)" stroke-width="0.890157824422699" fill="rgb(0,0,0)" stroke-linecap="butt" font-family="DejaVu Sans Mono" stroke-miterlimit="10.0"><path d="M 72.7273,21.6450 l 32.4675,69.2641 "/></g><g stroke-linejoin="miter" stroke-opacity="1.0" fill-opacity="1.0" font-size="17.316017316017316px" stroke="rgb(0,0,0)" stroke-width="0.890157824422699" fill="rgb(0,0,0)" stroke-linecap="butt" font-family="DejaVu Sans Mono" stroke-miterlimit="10.0"><text dominant-baseline="middle" transform="matrix(1.0000,0.0000,0.0000,1.0000,100.8165,59.7403)" stroke="none" text-anchor="middle">1</text></g><g stroke-linejoin="miter" stroke-opacity="1.0" fill-opacity="0.0" stroke="rgb(0,0,0)" stroke-width="0.890157824422699" fill="rgb(0,0,0)" stroke-linecap="butt" font-family="DejaVu Sans Mono" stroke-miterlimit="10.0"><path d="M 72.7273,21.6450 l -32.4675,69.2641 "/></g><g stroke-linejoin="miter" stroke-opacity="1.0" fill-opacity="1.0" font-size="17.316017316017316px" stroke="rgb(0,0,0)" stroke-width="0.890157824422699" fill="rgb(0,0,0)" stroke-linecap="butt" font-family="DejaVu Sans Mono" stroke-miterlimit="10.0"><text dominant-baseline="middle" transform="matrix(1.0000,0.0000,0.0000,1.0000,44.6380,59.7403)" stroke="none" text-anchor="middle">0</text></g><g stroke-linejoin="miter" stroke-opacity="1.0" fill-opacity="0.0" stroke="rgb(0,0,0)" stroke-width="0.890157824422699" fill="rgb(0,0,0)" stroke-linecap="butt" font-family="DejaVu Sans Mono" stroke-miterlimit="10.0"><path d="M 105.1948,90.9091 v 69.2641 "/></g><g stroke-linejoin="miter" stroke-opacity="1.0" fill-opacity="1.0" font-size="17.316017316017316px" stroke="rgb(0,0,0)" stroke-width="0.890157824422699" fill="rgb(0,0,0)" stroke-linecap="butt" font-family="DejaVu Sans Mono" stroke-miterlimit="10.0"><text dominant-baseline="middle" transform="matrix(1.0000,0.0000,0.0000,1.0000,112.1212,129.0043)" stroke="none" text-anchor="middle">0</text></g><g stroke-linejoin="miter" stroke-opacity="1.0" fill-opacity="0.0" stroke="rgb(0,0,0)" stroke-width="0.890157824422699" fill="rgb(0,0,0)" stroke-linecap="butt" font-family="DejaVu Sans Mono" stroke-miterlimit="10.0"><path d="M 105.1948,160.1732 v 69.2641 "/></g><g stroke-linejoin="miter" stroke-opacity="1.0" fill-opacity="1.0" font-size="17.316017316017316px" stroke="rgb(0,0,0)" stroke-width="0.890157824422699" fill="rgb(0,0,0)" stroke-linecap="butt" font-family="DejaVu Sans Mono" stroke-miterlimit="10.0"><text dominant-baseline="middle" transform="matrix(1.0000,0.0000,0.0000,1.0000,112.1212,198.2684)" stroke="none" text-anchor="middle">0</text></g><g stroke-linejoin="miter" stroke-opacity="1.0" fill-opacity="0.0" stroke="rgb(0,0,0)" stroke-width="0.890157824422699" fill="rgb(0,0,0)" stroke-linecap="butt" font-family="DejaVu Sans Mono" stroke-miterlimit="10.0"><path d="M 105.1948,229.4372 v 69.2641 "/></g><g stroke-linejoin="miter" stroke-opacity="1.0" fill-opacity="1.0" font-size="17.316017316017316px" stroke="rgb(0,0,0)" stroke-width="0.890157824422699" fill="rgb(0,0,0)" stroke-linecap="butt" font-family="DejaVu Sans Mono" stroke-miterlimit="10.0"><text dominant-baseline="middle" transform="matrix(1.0000,0.0000,0.0000,1.0000,112.1212,267.5325)" stroke="none" text-anchor="middle">1</text></g><g stroke-linejoin="miter" stroke-opacity="1.0" fill-opacity="0.0" stroke="rgb(0,0,0)" stroke-width="0.890157824422699" fill="rgb(0,0,0)" stroke-linecap="butt" font-family="DejaVu Sans Mono" stroke-miterlimit="10.0"><path d="M 105.1948,298.7013 v 69.2641 "/></g><g stroke-linejoin="miter" stroke-opacity="1.0" fill-opacity="1.0" font-size="17.316017316017316px" stroke="rgb(0,0,0)" stroke-width="0.890157824422699" fill="rgb(0,0,0)" stroke-linecap="butt" font-family="DejaVu Sans Mono" stroke-miterlimit="10.0"><text dominant-baseline="middle" transform="matrix(1.0000,0.0000,0.0000,1.0000,112.1212,336.7965)" stroke="none" text-anchor="middle">1</text></g><g stroke-linejoin="miter" stroke-opacity="1.0" fill-opacity="1.0" stroke="rgb(0,0,0)" stroke-width="0.890157824422699" fill="rgb(255,255,255)" stroke-linecap="butt" font-family="DejaVu Sans Mono" stroke-miterlimit="10.0"><path d="M 118.1818,367.9654 c 0.0000,-7.1725 -5.8145,-12.9870 -12.9870 -12.9870c -7.1725,-0.0000 -12.9870,5.8145 -12.9870 12.9870c -0.0000,7.1725 5.8145,12.9870 12.9870 12.9870c 7.1725,0.0000 12.9870,-5.8145 12.9870 -12.9870Z"/></g><g stroke-linejoin="miter" stroke-opacity="1.0" fill-opacity="1.0" font-size="17.316017316017316px" stroke="rgb(0,0,0)" stroke-width="0.890157824422699" fill="rgb(0,0,0)" stroke-linecap="butt" font-family="DejaVu Sans Mono" stroke-miterlimit="10.0"><text dominant-baseline="middle" transform="matrix(1.0000,0.0000,0.0000,1.0000,105.1948,367.9654)" stroke="none" text-anchor="middle">3</text></g><g stroke-linejoin="miter" stroke-opacity="1.0" fill-opacity="1.0" stroke="rgb(0,0,0)" stroke-width="0.890157824422699" fill="rgb(255,255,255)" stroke-linecap="butt" font-family="DejaVu Sans Mono" stroke-miterlimit="10.0"><path d="M 109.5238,298.7013 c 0.0000,-2.3908 -1.9382,-4.3290 -4.3290 -4.3290c -2.3908,-0.0000 -4.3290,1.9382 -4.3290 4.3290c -0.0000,2.3908 1.9382,4.3290 4.3290 4.3290c 2.3908,0.0000 4.3290,-1.9382 4.3290 -4.3290Z"/></g><g stroke-linejoin="miter" stroke-opacity="1.0" fill-opacity="1.0" stroke="rgb(0,0,0)" stroke-width="0.890157824422699" fill="rgb(255,255,255)" stroke-linecap="butt" font-family="DejaVu Sans Mono" stroke-miterlimit="10.0"><path d="M 109.5238,229.4372 c 0.0000,-2.3908 -1.9382,-4.3290 -4.3290 -4.3290c -2.3908,-0.0000 -4.3290,1.9382 -4.3290 4.3290c -0.0000,2.3908 1.9382,4.3290 4.3290 4.3290c 2.3908,0.0000 4.3290,-1.9382 4.3290 -4.3290Z"/></g><g stroke-linejoin="miter" stroke-opacity="1.0" fill-opacity="1.0" stroke="rgb(0,0,0)" stroke-width="0.890157824422699" fill="rgb(255,255,255)" stroke-linecap="butt" font-family="DejaVu Sans Mono" stroke-miterlimit="10.0"><path d="M 109.5238,160.1732 c 0.0000,-2.3908 -1.9382,-4.3290 -4.3290 -4.3290c -2.3908,-0.0000 -4.3290,1.9382 -4.3290 4.3290c -0.0000,2.3908 1.9382,4.3290 4.3290 4.3290c 2.3908,0.0000 4.3290,-1.9382 4.3290 -4.3290Z"/></g><g stroke-linejoin="miter" stroke-opacity="1.0" fill-opacity="1.0" stroke="rgb(0,0,0)" stroke-width="0.890157824422699" fill="rgb(255,255,255)" stroke-linecap="butt" font-family="DejaVu Sans Mono" stroke-miterlimit="10.0"><path d="M 109.5238,90.9091 c 0.0000,-2.3908 -1.9382,-4.3290 -4.3290 -4.3290c -2.3908,-0.0000 -4.3290,1.9382 -4.3290 4.3290c -0.0000,2.3908 1.9382,4.3290 4.3290 4.3290c 2.3908,0.0000 4.3290,-1.9382 4.3290 -4.3290Z"/></g><g stroke-linejoin="miter" stroke-opacity="1.0" fill-opacity="0.0" stroke="rgb(0,0,0)" stroke-width="0.890157824422699" fill="rgb(0,0,0)" stroke-linecap="butt" font-family="DejaVu Sans Mono" stroke-miterlimit="10.0"><path d="M 40.2597,90.9091 l 21.6450,69.2641 "/></g><g stroke-linejoin="miter" stroke-opacity="1.0" fill-opacity="1.0" font-size="17.316017316017316px" stroke="rgb(0,0,0)" stroke-width="0.890157824422699" fill="rgb(0,0,0)" stroke-linecap="butt" font-family="DejaVu Sans Mono" stroke-miterlimit="10.0"><text dominant-baseline="middle" transform="matrix(1.0000,0.0000,0.0000,1.0000,60.7622,129.0043)" stroke="none" text-anchor="middle">1</text></g><g stroke-linejoin="miter" stroke-opacity="1.0" fill-opacity="0.0" stroke="rgb(0,0,0)" stroke-width="0.890157824422699" fill="rgb(0,0,0)" stroke-linecap="butt" font-family="DejaVu Sans Mono" stroke-miterlimit="10.0"><path d="M 40.2597,90.9091 l -21.6450,69.2641 "/></g><g stroke-linejoin="miter" stroke-opacity="1.0" fill-opacity="1.0" font-size="17.316017316017316px" stroke="rgb(0,0,0)" stroke-width="0.890157824422699" fill="rgb(0,0,0)" stroke-linecap="butt" font-family="DejaVu Sans Mono" stroke-miterlimit="10.0"><text dominant-baseline="middle" transform="matrix(1.0000,0.0000,0.0000,1.0000,19.7573,129.0043)" stroke="none" text-anchor="middle">0</text></g><g stroke-linejoin="miter" stroke-opacity="1.0" fill-opacity="0.0" stroke="rgb(0,0,0)" stroke-width="0.890157824422699" fill="rgb(0,0,0)" stroke-linecap="butt" font-family="DejaVu Sans Mono" stroke-miterlimit="10.0"><path d="M 61.9048,160.1732 v 69.2641 "/></g><g stroke-linejoin="miter" stroke-opacity="1.0" fill-opacity="1.0" font-size="17.316017316017316px" stroke="rgb(0,0,0)" stroke-width="0.890157824422699" fill="rgb(0,0,0)" stroke-linecap="butt" font-family="DejaVu Sans Mono" stroke-miterlimit="10.0"><text dominant-baseline="middle" transform="matrix(1.0000,0.0000,0.0000,1.0000,68.8312,198.2684)" stroke="none" text-anchor="middle">1</text></g><g stroke-linejoin="miter" stroke-opacity="1.0" fill-opacity="1.0" stroke="rgb(0,0,0)" stroke-width="0.890157824422699" fill="rgb(255,255,255)" stroke-linecap="butt" font-family="DejaVu Sans Mono" stroke-miterlimit="10.0"><path d="M 74.8918,229.4372 c 0.0000,-7.1725 -5.8145,-12.9870 -12.9870 -12.9870c -7.1725,-0.0000 -12.9870,5.8145 -12.9870 12.9870c -0.0000,7.1725 5.8145,12.9870 12.9870 12.9870c 7.1725,0.0000 12.9870,-5.8145 12.9870 -12.9870Z"/></g><g stroke-linejoin="miter" stroke-opacity="1.0" fill-opacity="1.0" font-size="17.316017316017316px" stroke="rgb(0,0,0)" stroke-width="0.890157824422699" fill="rgb(0,0,0)" stroke-linecap="butt" font-family="DejaVu Sans Mono" stroke-miterlimit="10.0"><text dominant-baseline="middle" transform="matrix(1.0000,0.0000,0.0000,1.0000,61.9048,229.4372)" stroke="none" text-anchor="middle">2</text></g><g stroke-linejoin="miter" stroke-opacity="1.0" fill-opacity="1.0" stroke="rgb(0,0,0)" stroke-width="0.890157824422699" fill="rgb(255,255,255)" stroke-linecap="butt" font-family="DejaVu Sans Mono" stroke-miterlimit="10.0"><path d="M 66.2338,160.1732 c 0.0000,-2.3908 -1.9382,-4.3290 -4.3290 -4.3290c -2.3908,-0.0000 -4.3290,1.9382 -4.3290 4.3290c -0.0000,2.3908 1.9382,4.3290 4.3290 4.3290c 2.3908,0.0000 4.3290,-1.9382 4.3290 -4.3290Z"/></g><g stroke-linejoin="miter" stroke-opacity="1.0" fill-opacity="0.0" stroke="rgb(0,0,0)" stroke-width="0.890157824422699" fill="rgb(0,0,0)" stroke-linecap="butt" font-family="DejaVu Sans Mono" stroke-miterlimit="10.0"><path d="M 18.6147,160.1732 v 69.2641 "/></g><g stroke-linejoin="miter" stroke-opacity="1.0" fill-opacity="1.0" font-size="17.316017316017316px" stroke="rgb(0,0,0)" stroke-width="0.890157824422699" fill="rgb(0,0,0)" stroke-linecap="butt" font-family="DejaVu Sans Mono" stroke-miterlimit="10.0"><text dominant-baseline="middle" transform="matrix(1.0000,0.0000,0.0000,1.0000,25.5411,198.2684)" stroke="none" text-anchor="middle">1</text></g><g stroke-linejoin="miter" stroke-opacity="1.0" fill-opacity="1.0" stroke="rgb(0,0,0)" stroke-width="0.890157824422699" fill="rgb(255,255,255)" stroke-linecap="butt" font-family="DejaVu Sans Mono" stroke-miterlimit="10.0"><path d="M 31.6017,229.4372 c 0.0000,-7.1725 -5.8145,-12.9870 -12.9870 -12.9870c -7.1725,-0.0000 -12.9870,5.8145 -12.9870 12.9870c -0.0000,7.1725 5.8145,12.9870 12.9870 12.9870c 7.1725,0.0000 12.9870,-5.8145 12.9870 -12.9870Z"/></g><g stroke-linejoin="miter" stroke-opacity="1.0" fill-opacity="1.0" font-size="17.316017316017316px" stroke="rgb(0,0,0)" stroke-width="0.890157824422699" fill="rgb(0,0,0)" stroke-linecap="butt" font-family="DejaVu Sans Mono" stroke-miterlimit="10.0"><text dominant-baseline="middle" transform="matrix(1.0000,0.0000,0.0000,1.0000,18.6147,229.4372)" stroke="none" text-anchor="middle">1</text></g><g stroke-linejoin="miter" stroke-opacity="1.0" fill-opacity="1.0" stroke="rgb(0,0,0)" stroke-width="0.890157824422699" fill="rgb(255,255,255)" stroke-linecap="butt" font-family="DejaVu Sans Mono" stroke-miterlimit="10.0"><path d="M 22.9437,160.1732 c 0.0000,-2.3908 -1.9382,-4.3290 -4.3290 -4.3290c -2.3908,-0.0000 -4.3290,1.9382 -4.3290 4.3290c -0.0000,2.3908 1.9382,4.3290 4.3290 4.3290c 2.3908,0.0000 4.3290,-1.9382 4.3290 -4.3290Z"/></g><g stroke-linejoin="miter" stroke-opacity="1.0" fill-opacity="1.0" stroke="rgb(0,0,0)" stroke-width="0.0" fill="rgb(255,255,255)" stroke-linecap="butt" font-family="DejaVu Sans Mono" stroke-miterlimit="10.0"><path d="M 54.1126,108.2251 l -0.0000,-34.6320 h -27.7056 l -0.0000,34.6320 Z"/></g><g stroke-linejoin="miter" stroke-opacity="1.0" fill-opacity="0.0" stroke="rgb(0,0,0)" stroke-width="0.890157824422699" fill="rgb(0,0,0)" stroke-linecap="butt" font-family="DejaVu Sans Mono" stroke-miterlimit="10.0"><path d="M 54.1126,108.2251 l -0.0000,-34.6320 h -27.7056 l -0.0000,34.6320 Z"/></g><g stroke-linejoin="miter" stroke-opacity="1.0" fill-opacity="1.0" font-size="17.316017316017316px" stroke="rgb(0,0,0)" stroke-width="0.890157824422699" fill="rgb(0,0,0)" stroke-linecap="butt" font-family="DejaVu Sans Mono" stroke-miterlimit="10.0"><text dominant-baseline="middle" transform="matrix(1.0000,0.0000,0.0000,1.0000,40.2597,90.9091)" stroke="none" text-anchor="middle">00</text></g><g stroke-linejoin="miter" stroke-opacity="1.0" fill-opacity="1.0" stroke="rgb(0,0,0)" stroke-width="0.890157824422699" fill="rgb(255,255,255)" stroke-linecap="butt" font-family="DejaVu Sans Mono" stroke-miterlimit="10.0"><path d="M 77.0563,21.6450 c 0.0000,-2.3908 -1.9382,-4.3290 -4.3290 -4.3290c -2.3908,-0.0000 -4.3290,1.9382 -4.3290 4.3290c -0.0000,2.3908 1.9382,4.3290 4.3290 4.3290c 2.3908,0.0000 4.3290,-1.9382 4.3290 -4.3290Z"/></g></svg>