<?xml version="1.0" encoding="UTF-8"?>
<!DOCTYPE svg PUBLIC "-//W3C//DTD SVG 1.1//EN"
    "http://www.w3.org/Graphics/SVG/1.1/DTD/svg11.dtd"><svg xmlns="http://www.w3.org/2000/svg" height="700.0000" stroke-opacity="1" viewBox="0 0 217 700" font-size="1" width="216.6667" xmlns:xlink="http://www.w3.org/1999/xlink" stroke="rgb(0,0,0)" version="1.1"><defs></defs><g stroke-linejoin="miter" stroke-opacity="1.0" fill-opacity="0.0" stroke="rgb(0,0,0)" stroke-width="1.5577761927397231" fill="rgb(0,0,0)" stroke-linecap="butt" font-family="DejaVu Sans Mono" stroke-miterlimit="10.0"><path d="M 127.2727,7.5758 l 56.8182,121.2121 "/></g><g stroke-linejoin="miter" stroke-opacity="1.0" fill-opacity="1.0" font-size="30.3030303030303px" stroke="rgb(0,0,0)" stroke-width="1.5577761927397231" fill="rgb(0,0,0)" stroke-linecap="butt" font-family="DejaVu Sans Mono" stroke-miterlimit="10.0"><text dominant-baseline="middle" transform="matrix(1.0000,0.0000,0.0000,1.0000,176.4289,74.2424)" stroke="none" text-anchor="middle">1</text></g><g stroke-linejoin="miter" stroke-opacity="1.0" fill-opacity="0.0" stroke="rgb(0,0,0)" stroke-width="1.5577761927397231" fill="rgb(0,0,0)" stroke-linecap="butt" font-family="DejaVu Sans Mono" stroke-miterlimit="10.0"><path d="M 127.2727,7.5758 l -56.8182,121.2121 "/></g><g stroke-linejoin="miter" stroke-opacity="1.0" fill-opacity="1.0" font-size="30.3030303030303px" stroke="rgb(0,0,0)" stroke-width="1.5577761927397231" fill="rgb(0,0,0)" stroke-linecap="butt" font-family="DejaVu Sans Mono" stroke-miterlimit="10.0"><text dominant-baseline="middle" transform="matrix(1.0000,0.0000,0.0000,1.0000,78.1166,74.2424)" stroke="none" text-anchor="middle">0</text></g><g stroke-linejoin="miter" stroke-opacity="1.0" fill-opacity="0.0" stroke="rgb(0,0,0)" stroke-width="1.5577761927397231" fill="rgb(0,0,0)" stroke-linecap="butt" font-family="DejaVu Sans Mono" stroke-miterlimit="10.0"><path d="M 184.0909,128.7879 v 121.2121 "/></g><g stroke-linejoin="miter" stroke-opacity="1.0" fill-opacity="1.0" font-size="30.3030303030303px" stroke="rgb(0,0,0)" stroke-width="1.5577761927397231" fill="rgb(0,0,0)" stroke-linecap="butt" font-family="DejaVu Sans Mono" stroke-miterlimit="10.0"><text dominant-baseline="middle" transform="matrix(1.0000,0.0000,0.0000,1.0000,196.2121,195.4545)" stroke="none" text-anchor="middle">0</text></g><g stroke-linejoin="miter" stroke-opacity="1.0" fill-opacity="0.0" stroke="rgb(0,0,0)" stroke-width="1.5577761927397231" fill="rgb(0,0,0)" stroke-linecap="butt" font-family="DejaVu Sans Mono" stroke-miterlimit="10.0"><path d="M 184.0909,250.0000 v 121.2121 "/></g><g stroke-linejoin="miter" stroke-opacity="1.0" fill-opacity="1.0" font-size="30.3030303030303px" stroke="rgb(0,0,0)" stroke-width="1.5577761927397231" fill="rgb(0,0,0)" stroke-linecap="butt" font-family="DejaVu Sans Mono" stroke-miterlimit="10.0"><text dominant-baseline="middle" transform="matrix(1.0000,0.0000,0.0000,1.0000,196.2121,316.6667)" stroke="none" text-anchor="middle">0</text></g><g stroke-linejoin="miter" stroke-opacity="1.0" fill-opacity="0.0" stroke="rgb(0,0,0)" stroke-width="1.5577761927397231" fill="rgb(0,0,0)" stroke-linecap="butt" font-family="DejaVu Sans Mono" stroke-miterlimit="10.0"><path d="M 184.0909,371.2121 v 121.2121 "/></g><g stroke-linejoin="miter" stroke-opacity="1.0" fill-opacity="1.0" font-size="30.3030303030303px" stroke="rgb(0,0,0)" stroke-width="1.5577761927397231" fill="rgb(0,0,0)" stroke-linecap="butt" font-family="DejaVu Sans Mono" stroke-miterlimit="10.0"><text dominant-baseline="middle" transform="matrix(1.0000,0.0000,0.0000,1.0000,196.2121,437.8788)" stroke="none" text-anchor="middle">1</text></g><g stroke-linejoin="miter" stroke-opacity="1.0" fill-opacity="0.0" stroke="rgb(0,0,0)" stroke-width="1.5577761927397231" fill="rgb(0,0,0)" stroke-linecap="butt" font-family="DejaVu Sans Mono" stroke-miterlimit="10.0"><path d="M 184.0909,492.4242 v 121.2121 "/></g><g stroke-linejoin="miter" stroke-opacity="1.0" fill-opacity="1.0" font-size="30.3030303030303px" stroke="rgb(0,0,0)" stroke-width="1.5577761927397231" fill="rgb(0,0,0)" stroke-linecap="butt" font-family="DejaVu Sans Mono" stroke-miterlimit="10.0"><text dominant-baseline="middle" transform="matrix(1.0000,0.0000,0.0000,1.0000,196.2121,559.0909)" stroke="none" text-anchor="middle">1</text></g><g stroke-linejoin="miter" stroke-opacity="1.0" fill-opacity="1.0" stroke="rgb(0,0,0)" stroke-width="1.5577761927397231" fill="rgb(255,255,255)" stroke-linecap="butt" font-family="DejaVu Sans Mono" stroke-miterlimit="10.0"><path d="M 206.8182,613.6364 c 0.0000,-12.5519 -10.1753,-22.7273 -22.7273 -22.7273c -12.5519,-0.0000 -22.7273,10.1753 -22.7273 22.7273c -0.0000,12.5519 10.1753,22.7273 22.7273 22.7273c 12.5519,0.0000 22.7273,-10.1753 22.7273 -22.7273Z"/></g><g stroke-linejoin="miter" stroke-opacity="1.0" fill-opacity="1.0" font-size="30.3030303030303px" stroke="rgb(0,0,0)" stroke-width="1.5577761927397231" fill="rgb(0,0,0)" stroke-linecap="butt" font-family="DejaVu Sans Mono" stroke-miterlimit="10.0"><text dominant-baseline="middle" transform="matrix(1.0000,0.0000,0.0000,1.0000,184.0909,613.6364)" stroke="none" text-anchor="middle">3</text></g><g stroke-linejoin="miter" stroke-opacity="1.0" fill-opacity="1.0" stroke="rgb(0,0,0)" stroke-width="1.5577761927397231" fill="rgb(255,255,255)" stroke-linecap="butt" font-family="DejaVu Sans Mono" stroke-miterlimit="10.0"><path d="M 191.6667,492.4242 c 0.0000,-4.1840 -3.3918,-7.5758 -7.5758 -7.5758c -4.1840,-0.0000 -7.5758,3.3918 -7.5758 7.5758c -0.0000,4.1840 3.3918,7.5758 7.5758 7.5758c 4.1840,0.0000 7.5758,-3.3918 7.5758 -7.5758Z"/></g><g stroke-linejoin="miter" stroke-opacity="1.0" fill-opacity="1.0" stroke="rgb(0,0,0)" stroke-width="1.5577761927397231" fill="rgb(255,255,255)" stroke-linecap="butt" font-family="DejaVu Sans Mono" stroke-miterlimit="10.0"><path d="M 191.6667,371.2121 c 0.0000,-4.1840 -3.3918,-7.5758 -7.5758 -7.5758c -4.1840,-0.0000 -7.5758,3.3918 -7.5758 7.5758c -0.0000,4.1840 3.3918,7.5758 7.5758 7.5758c 4.1840,0.0000 7.5758,-3.3918 7.5758 -7.5758Z"/></g><g stroke-linejoin="miter" stroke-opacity="1.0" fill-opacity="1.0" stroke="rgb(0,0,0)" stroke-width="1.5577761927397231" fill="rgb(255,255,255)" stroke-linecap="butt" font-family="DejaVu Sans Mono" stroke-miterlimit="10.0"><path d="M 191.6667,250.0000 c 0.0000,-4.1840 -3.3918,-7.5758 -7.5758 -7.5758c -4.1840,-0.0000 -7.5758,3.3918 -7.5758 7.5758c -0.0000,4.1840 3.3918,7.5758 7.5758 7.5758c 4.1840,0.0000 7.5758,-3.3918 7.5758 -7.5758Z"/></g><g stroke-linejoin="miter" stroke-opacity="1.0" fill-opacity="1.0" stroke="rgb(0,0,0)" stroke-width="1.5577761927397231" fill="rgb(255,255,255)" stroke-linecap="butt" font-family="DejaVu Sans Mono" stroke-miterlimit="10.0"><path d="M 191.6667,128.7879 c 0.0000,-4.1840 -3.3918,-7.5758 -7.5758 -7.5758c -4.1840,-0.0000 -7.5758,3.3918 -7.5758 7.5758c -0.0000,4.1840 3.3918,7.5758 7.5758 7.5758c 4.1840,0.0000 7.5758,-3.3918 7.5758 -7.5758Z"/></g><g stroke-linejoin="miter" stroke-opacity="1.0" fill-opacity="0.0" stroke="rgb(0,0,0)" stroke-width="1.5577761927397231" fill="rgb(0,0,0)" stroke-linecap="butt" font-family="DejaVu Sans Mono" stroke-miterlimit="10.0"><path d="M 70.4545,128.7879 l 37.8788,121.2121 "/></g><g stroke-linejoin="miter" stroke-opacity="1.0" fill-opacity="1.0" font-size="30.3030303030303px" stroke="rgb(0,0,0)" stroke-width="1.5577761927397231" fill="rgb(0,0,0)" stroke-linecap="butt" font-family="DejaVu Sans Mono" stroke-miterlimit="10.0"><text dominant-baseline="middle" transform="matrix(1.0000,0.0000,0.0000,1.0000,106.3338,195.4545)" stroke="none" text-anchor="middle">1</text></g><g stroke-linejoin="miter" stroke-opacity="1.0" fill-opacity="0.0" stroke="rgb(0,0,0)" stroke-width="1.5577761927397231" fill="rgb(0,0,0)" stroke-linecap="butt" font-family="DejaVu Sans Mono" stroke-miterlimit="10.0"><path d="M 70.4545,128.7879 l -37.8788,121.2121 "/></g><g stroke-linejoin="miter" stroke-opacity="1.0" fill-opacity="1.0" font-size="30.3030303030303px" stroke="rgb(0,0,0)" stroke-width="1.5577761927397231" fill="rgb(0,0,0)" stroke-linecap="butt" font-family="DejaVu Sans Mono" stroke-miterlimit="10.0"><text dominant-baseline="middle" transform="matrix(1.0000,0.0000,0.0000,1.0000,34.5752,195.4545)" stroke="none" text-anchor="middle">0</text></g><g stroke-linejoin="miter" stroke-opacity="1.0" fill-opacity="0.0" stroke="rgb(0,0,0)" stroke-width="1.5577761927397231" fill="rgb(0,0,0)" stroke-linecap="butt" font-family="DejaVu Sans Mono" stroke-miterlimit="10.0"><path d="M 108.3333,250.0000 v 121.2121 "/></g><g stroke-linejoin="miter" stroke-opacity="1.0" fill-opacity="1.0" font-size="30.3030303030303px" stroke="rgb(0,0,0)" stroke-width="1.5577761927397231" fill="rgb(0,0,0)" stroke-linecap="butt" font-family="DejaVu Sans Mono" stroke-miterlimit="10.0"><text dominant-baseline="middle" transform="matrix(1.0000,0.0000,0.0000,1.0000,120.4545,316.6667)" stroke="none" text-anchor="middle">1</text></g><g stroke-linejoin="miter" stroke-opacity="1.0" fill-opacity="1.0" stroke="rgb(0,0,0)" stroke-width="1.5577761927397231" fill="rgb(255,255,255)" stroke-linecap="butt" font-family="DejaVu Sans Mono" stroke-miterlimit="10.0"><path d="M 131.0606,371.2121 c 0.0000,-12.5519 -10.1753,-22.7273 -22.7273 -22.7273c -12.5519,-0.0000 -22.7273,10.1753 -22.7273 22.7273c -0.0000,12.5519 10.1753,22.7273 22.7273 22.7273c 12.5519,0.0000 22.7273,-10.1753 22.7273 -22.7273Z"/></g><g stroke-linejoin="miter" stroke-opacity="1.0" fill-opacity="1.0" font-size="30.3030303030303px" stroke="rgb(0,0,0)" stroke-width="1.5577761927397231" fill="rgb(0,0,0)" stroke-linecap="butt" font-family="DejaVu Sans Mono" stroke-miterlimit="10.0"><text dominant-baseline="middle" transform="matrix(1.0000,0.0000,0.0000,1.0000,108.3333,371.2121)" stroke="none" text-anchor="middle">2</text></g><g stroke-linejoin="miter" stroke-opacity="1.0" fill-opacity="1.0" stroke="rgb(0,0,0)" stroke-width="1.5577761927397231" fill="rgb(255,255,255)" stroke-linecap="butt" font-family="DejaVu Sans Mono" stroke-miterlimit="10.0"><path d="M 115.9091,250.0000 c 0.0000,-4.1840 -3.3918,-7.5758 -7.5758 -7.5758c -4.1840,-0.0000 -7.5758,3.3918 -7.5758 7.5758c -0.0000,4.1840 3.3918,7.5758 7.5758 7.5758c 4.1840,0.0000 7.5758,-3.3918 7.5758 -7.5758Z"/></g><g stroke-linejoin="miter" stroke-opacity="1.0" fill-opacity="0.0" stroke="rgb(0,0,0)" stroke-width="1.5577761927397231" fill="rgb(0,0,0)" stroke-linecap="butt" font-family="DejaVu Sans Mono" stroke-miterlimit="10.0"><path d="M 32.5758,250.0000 v 121.2121 "/></g><g stroke-linejoin="miter" stroke-opacity="1.0" fill-opacity="1.0" font-size="30.3030303030303px" stroke="rgb(0,0,0)" stroke-width="1.5577761927397231" fill="rgb(0,0,0)" stroke-linecap="butt" font-family="DejaVu Sans Mono" stroke-miterlimit="10.0"><text dominant-baseline="middle" transform="matrix(1.0000,0.0000,0.0000,1.0000,44.6970,316.6667)" stroke="none" text-anchor="middle">1</text></g><g stroke-linejoin="miter" stroke-opacity="1.0" fill-opacity="1.0" stroke="rgb(0,0,0)" stroke-width="1.5577761927397231" fill="rgb(255,255,255)" stroke-linecap="butt" font-family="DejaVu Sans Mono" stroke-miterlimit="10.0"><path d="M 55.3030,371.2121 c 0.0000,-12.5519 -10.1753,-22.7273 -22.7273 -22.7273c -12.5519,-0.0000 -22.7273,10.1753 -22.7273 22.7273c -0.0000,12.5519 10.1753,22.7273 22.7273 22.7273c 12.5519,0.0000 22.7273,-10.1753 22.7273 -22.7273Z"/></g><g stroke-linejoin="miter" stroke-opacity="1.0" fill-opacity="1.0" font-size="30.3030303030303px" stroke="rgb(0,0,0)" stroke-width="1.5577761927397231" fill="rgb(0,0,0)" stroke-linecap="butt" font-family="DejaVu Sans Mono" stroke-miterlimit="10.0"><text dominant-baseline="middle" transform="matrix(1.0000,0.0000,0.0000,1.0000,32.5758,371.2121)" stroke="none" text-anchor="middle">1</text></g><g stroke-linejoin="miter" stroke-opacity="1.0" fill-opacity="1.0" stroke="rgb(0,0,0)" stroke-width="1.5577761927397231" fill="rgb(255,255,255)" stroke-linecap="butt" font-family="DejaVu Sans Mono" stroke-miterlimit="10.0"><path d="M 40.1515,250.0000 c 0.0000,-4.1840 -3.3918,-7.5758 -7.5758 -7.5758c -4.1840,-0.0000 -7.5758,3.3918 -7.5758 7.5758c -0.0000,4.1840 3.3918,7.5758 7.5758 7.5758c 4.1840,0.0000 7.5758,-3.3918 7.5758 -7.5758Z"/></g><g stroke-linejoin="miter" stroke-opacity="1.0" fill-opacity="1.0" stroke="rgb(0,0,0)" stroke-width="0.0" fill="rgb(255,255,255)" stroke-linecap="butt" font-family="DejaVu Sans Mono" stroke-miterlimit="10.0"><path d="M 94.6970,159.0909 l -0.0000,-60.6061 h -48.4848 l -0.0000,60.6061 Z"/></g><g stroke-linejoin="miter" stroke-opacity="1.0" fill-opacity="0.0" stroke="rgb(0,0,0)" stroke-width="1.5577761927397231" fill="rgb(0,0,0)" stroke-linecap="butt" font-family="DejaVu Sans Mono" stroke-miterlimit="10.0"><path d="M 94.6970,159.0909 l -0.0000,-60.6061 h -48.4848 l -0.0000,60.6061 Z"/></g><g stroke-linejoin="miter" stroke-opacity="1.0" fill-opacity="1.0" font-size="30.3030303030303px" stroke="rgb(0,0,0)" stroke-width="1.5577761927397231" fill="rgb(0,0,0)" stroke-linecap="butt" font-family="DejaVu Sans Mono" stroke-miterlimit="10.0"><text dominant-baseline="middle" transform="matrix(1.0000,0.0000,0.0000,1.0000,70.4545,128.7879)" stroke="none" text-anchor="middle">00</text></g><g stroke-linejoin="miter" stroke-opacity="1.0" fill-opacity="1.0" stroke="rgb(0,0,0)" stroke-width="1.5577761927397231" fill="rgb(255,255,255)" stroke-linecap="butt" font-family="DejaVu Sans Mono" stroke-miterlimit="10.0"><path d="M 134.8485,7.5758 c 0.0000,-4.1840 -3.3918,-7.5758 -7.5758 -7.5758c -4.1840,-0.0000 -7.5758,3.3918 -7.5758 7.5758c -0.0000,4.1840 3.3918,7.5758 7.5758 7.5758c 4.1840,0.0000 7.5758,-3.3918 7.5758 -7.5758Z"/></g></svg>