<?xml version="1.0" encoding="UTF-8"?>
<!DOCTYPE svg PUBLIC "-//W3C//DTD SVG 1.1//EN"
    "http://www.w3.org/Graphics/SVG/1.1/DTD/svg11.dtd"><svg xmlns="http://www.w3.org/2000/svg" height="150.9434" stroke-opacity="1" viewBox="0 0 400 151" font-size="1" width="400.0000" xmlns:xlink="http://www.w3.org/1999/xlink" stroke="rgb(0,0,0)" version="1.1"><defs></defs><g stroke-linejoin="miter" stroke-opacity="1.0" fill-opacity="1.0" stroke="rgb(0,0,0)" stroke-width="0.0" fill="rgb(255,255,255)" stroke-linecap="butt" stroke-miterlimit="10.0"><path d="M 400.0000,150.9434 l -0.0000,-150.9434 h -400.0000 l -0.0000,150.9434 Z"/></g><g stroke-linejoin="miter" stroke-opacity="1.0" fill-opacity="0.0" stroke="rgb(0,0,0)" stroke-width="0.9828721869343219" fill="rgb(0,0,0)" stroke-linecap="butt" stroke-miterlimit="10.0"><path d="M 224.0137,20.5832 l 144.0823,54.8885 "/></g><g stroke-linejoin="miter" stroke-opacity="1.0" fill-opacity="0.0" stroke="rgb(0,0,0)" stroke-width="0.9828721869343219" fill="rgb(0,0,0)" stroke-linecap="butt" stroke-miterlimit="10.0"><path d="M 224.0137,20.5832 l 48.0274,54.8885 "/></g><g stroke-linejoin="miter" stroke-opacity="1.0" fill-opacity="0.0" stroke="rgb(0,0,0)" stroke-width="0.9828721869343219" fill="rgb(0,0,0)" stroke-linecap="butt" stroke-miterlimit="10.0"><path d="M 224.0137,20.5832 l -48.0274,54.8885 "/></g><g stroke-linejoin="miter" stroke-opacity="1.0" fill-opacity="0.0" stroke="rgb(0,0,0)" stroke-width="0.9828721869343219" fill="rgb(0,0,0)" stroke-linecap="butt" stroke-miterlimit="10.0"><path d="M 224.0137,20.5832 l -144.0823,54.8885 "/></g><g stroke-linejoin="miter" stroke-opacity="1.0" fill-opacity="1.0" stroke="rgb(0,0,0)" stroke-width="0.0" fill="rgb(255,255,255)" stroke-linecap="butt" stroke-miterlimit="10.0"><path d="M 381.8182,89.1938 l -0.0000,-27.4443 h -27.4443 l -0.0000,27.4443 Z"/></g><g stroke-linejoin="miter" stroke-opacity="1.0" fill-opacity="0.0" stroke="rgb(0,0,0)" stroke-width="0.9828721869343219" fill="rgb(0,0,0)" stroke-linecap="butt" stroke-miterlimit="10.0"><path d="M 381.8182,75.4717 c 0.0000,-7.5785 -6.1436,-13.7221 -13.7221 -13.7221c -7.5785,-0.0000 -13.7221,6.1436 -13.7221 13.7221c -0.0000,7.5785 6.1436,13.7221 13.7221 13.7221c 7.5785,0.0000 13.7221,-6.1436 13.7221 -13.7221Z"/></g><g stroke-linejoin="miter" stroke-opacity="1.0" fill-opacity="0.0" stroke="rgb(0,0,0)" stroke-width="0.9828721869343219" fill="rgb(0,0,0)" stroke-linecap="butt" stroke-miterlimit="10.0"><path d="M 272.0412,75.4717 l 48.0274,54.8885 "/></g><g stroke-linejoin="miter" stroke-opacity="1.0" fill-opacity="0.0" stroke="rgb(0,0,0)" stroke-width="0.9828721869343219" fill="rgb(0,0,0)" stroke-linecap="butt" stroke-miterlimit="10.0"><path d="M 272.0412,75.4717 l -48.0274,54.8885 "/></g><g stroke-linejoin="miter" stroke-opacity="1.0" fill-opacity="1.0" stroke="rgb(0,0,0)" stroke-width="0.0" fill="rgb(255,255,255)" stroke-linecap="butt" stroke-miterlimit="10.0"><path d="M 333.7907,144.0823 l -0.0000,-27.4443 h -27.4443 l -0.0000,27.4443 Z"/></g><g stroke-linejoin="miter" stroke-opacity="1.0" fill-opacity="0.0" stroke="rgb(0,0,0)" stroke-width="0.9828721869343219" fill="rgb(0,0,0)" stroke-linecap="butt" stroke-miterlimit="10.0"><path d="M 333.7907,130.3602 c 0.0000,-7.5785 -6.1436,-13.7221 -13.7221 -13.7221c -7.5785,-0.0000 -13.7221,6.1436 -13.7221 13.7221c -0.0000,7.5785 6.1436,13.7221 13.7221 13.7221c 7.5785,0.0000 13.7221,-6.1436 13.7221 -13.7221Z"/></g><g stroke-linejoin="miter" stroke-opacity="1.0" fill-opacity="1.0" stroke="rgb(0,0,0)" stroke-width="0.0" fill="rgb(255,255,255)" stroke-linecap="butt" stroke-miterlimit="10.0"><path d="M 237.7358,144.0823 l -0.0000,-27.4443 h -27.4443 l -0.0000,27.4443 Z"/></g><g stroke-linejoin="miter" stroke-opacity="1.0" fill-opacity="0.0" stroke="rgb(0,0,0)" stroke-width="0.9828721869343219" fill="rgb(0,0,0)" stroke-linecap="butt" stroke-miterlimit="10.0"><path d="M 237.7358,130.3602 c 0.0000,-7.5785 -6.1436,-13.7221 -13.7221 -13.7221c -7.5785,-0.0000 -13.7221,6.1436 -13.7221 13.7221c -0.0000,7.5785 6.1436,13.7221 13.7221 13.7221c 7.5785,0.0000 13.7221,-6.1436 13.7221 -13.7221Z"/></g><g stroke-linejoin="miter" stroke-opacity="1.0" fill-opacity="1.0" stroke="rgb(0,0,0)" stroke-width="0.0" fill="rgb(255,255,255)" stroke-linecap="butt" stroke-miterlimit="10.0"><path d="M 326.9297,89.1938 l -0.0000,-27.4443 h -27.4443 l -0.0000,27.4443 Z"/></g><g stroke-linejoin="miter" stroke-opacity="1.0" fill-opacity="0.0" stroke="rgb(0,0,0)" stroke-width="0.9828721869343219" fill="rgb(0,0,0)" stroke-linecap="butt" stroke-miterlimit="10.0"><path d="M 326.9297,89.1938 l -0.0000,-27.4443 h -27.4443 l -0.0000,27.4443 Z"/></g><g stroke-linejoin="miter" stroke-opacity="1.0" fill-opacity="1.0" stroke="rgb(0,0,0)" stroke-width="0.9828721869343219" fill="rgb(0,0,0)" stroke-linecap="butt" stroke-miterlimit="10.0"><path d="M 315.9520,75.4717 c 0.0000,-1.5157 -1.2287,-2.7444 -2.7444 -2.7444c -1.5157,-0.0000 -2.7444,1.2287 -2.7444 2.7444c -0.0000,1.5157 1.2287,2.7444 2.7444 2.7444c 1.5157,0.0000 2.7444,-1.2287 2.7444 -2.7444Z"/></g><g stroke-linejoin="miter" stroke-opacity="1.0" fill-opacity="1.0" stroke="rgb(0,0,0)" stroke-width="0.0" fill="rgb(255,255,255)" stroke-linecap="butt" stroke-miterlimit="10.0"><path d="M 299.4854,89.1938 l -0.0000,-27.4443 h -27.4443 l -0.0000,27.4443 Z"/></g><g stroke-linejoin="miter" stroke-opacity="1.0" fill-opacity="0.0" stroke="rgb(0,0,0)" stroke-width="0.9828721869343219" fill="rgb(0,0,0)" stroke-linecap="butt" stroke-miterlimit="10.0"><path d="M 299.4854,89.1938 l -0.0000,-27.4443 h -27.4443 l -0.0000,27.4443 Z"/></g><g stroke-linejoin="miter" stroke-opacity="1.0" fill-opacity="1.0" stroke="rgb(0,0,0)" stroke-width="0.9828721869343219" fill="rgb(0,0,0)" stroke-linecap="butt" stroke-miterlimit="10.0"><path d="M 288.5077,75.4717 c 0.0000,-1.5157 -1.2287,-2.7444 -2.7444 -2.7444c -1.5157,-0.0000 -2.7444,1.2287 -2.7444 2.7444c -0.0000,1.5157 1.2287,2.7444 2.7444 2.7444c 1.5157,0.0000 2.7444,-1.2287 2.7444 -2.7444Z"/></g><g stroke-linejoin="miter" stroke-opacity="1.0" fill-opacity="1.0" stroke="rgb(0,0,0)" stroke-width="0.0" fill="rgb(255,255,255)" stroke-linecap="butt" stroke-miterlimit="10.0"><path d="M 272.0412,89.1938 l -0.0000,-27.4443 h -27.4443 l -0.0000,27.4443 Z"/></g><g stroke-linejoin="miter" stroke-opacity="1.0" fill-opacity="0.0" stroke="rgb(0,0,0)" stroke-width="0.9828721869343219" fill="rgb(0,0,0)" stroke-linecap="butt" stroke-miterlimit="10.0"><path d="M 272.0412,89.1938 l -0.0000,-27.4443 h -27.4443 l -0.0000,27.4443 Z"/></g><g stroke-linejoin="miter" stroke-opacity="1.0" fill-opacity="1.0" stroke="rgb(0,0,0)" stroke-width="0.9828721869343219" fill="rgb(0,0,0)" stroke-linecap="butt" stroke-miterlimit="10.0"><path d="M 261.0635,75.4717 c 0.0000,-1.5157 -1.2287,-2.7444 -2.7444 -2.7444c -1.5157,-0.0000 -2.7444,1.2287 -2.7444 2.7444c -0.0000,1.5157 1.2287,2.7444 2.7444 2.7444c 1.5157,0.0000 2.7444,-1.2287 2.7444 -2.7444Z"/></g><g stroke-linejoin="miter" stroke-opacity="1.0" fill-opacity="1.0" stroke="rgb(0,0,0)" stroke-width="0.0" fill="rgb(255,255,255)" stroke-linecap="butt" stroke-miterlimit="10.0"><path d="M 244.5969,89.1938 l -0.0000,-27.4443 h -27.4443 l -0.0000,27.4443 Z"/></g><g stroke-linejoin="miter" stroke-opacity="1.0" fill-opacity="0.0" stroke="rgb(0,0,0)" stroke-width="0.9828721869343219" fill="rgb(0,0,0)" stroke-linecap="butt" stroke-miterlimit="10.0"><path d="M 244.5969,89.1938 l -0.0000,-27.4443 h -27.4443 l -0.0000,27.4443 Z"/></g><g stroke-linejoin="miter" stroke-opacity="1.0" fill-opacity="1.0" stroke="rgb(0,0,0)" stroke-width="0.9828721869343219" fill="rgb(0,0,0)" stroke-linecap="butt" stroke-miterlimit="10.0"><path d="M 233.6192,75.4717 c 0.0000,-1.5157 -1.2287,-2.7444 -2.7444 -2.7444c -1.5157,-0.0000 -2.7444,1.2287 -2.7444 2.7444c -0.0000,1.5157 1.2287,2.7444 2.7444 2.7444c 1.5157,0.0000 2.7444,-1.2287 2.7444 -2.7444Z"/></g><g stroke-linejoin="miter" stroke-opacity="1.0" fill-opacity="1.0" stroke="rgb(0,0,0)" stroke-width="0.0" fill="rgb(255,255,255)" stroke-linecap="butt" stroke-miterlimit="10.0"><path d="M 189.7084,89.1938 l -0.0000,-27.4443 h -27.4443 l -0.0000,27.4443 Z"/></g><g stroke-linejoin="miter" stroke-opacity="1.0" fill-opacity="0.0" stroke="rgb(0,0,0)" stroke-width="0.9828721869343219" fill="rgb(0,0,0)" stroke-linecap="butt" stroke-miterlimit="10.0"><path d="M 189.7084,75.4717 c 0.0000,-7.5785 -6.1436,-13.7221 -13.7221 -13.7221c -7.5785,-0.0000 -13.7221,6.1436 -13.7221 13.7221c -0.0000,7.5785 6.1436,13.7221 13.7221 13.7221c 7.5785,0.0000 13.7221,-6.1436 13.7221 -13.7221Z"/></g><g stroke-linejoin="miter" stroke-opacity="1.0" fill-opacity="0.0" stroke="rgb(0,0,0)" stroke-width="0.9828721869343219" fill="rgb(0,0,0)" stroke-linecap="butt" stroke-miterlimit="10.0"><path d="M 79.9314,75.4717 l 48.0274,54.8885 "/></g><g stroke-linejoin="miter" stroke-opacity="1.0" fill-opacity="0.0" stroke="rgb(0,0,0)" stroke-width="0.9828721869343219" fill="rgb(0,0,0)" stroke-linecap="butt" stroke-miterlimit="10.0"><path d="M 79.9314,75.4717 l -48.0274,54.8885 "/></g><g stroke-linejoin="miter" stroke-opacity="1.0" fill-opacity="1.0" stroke="rgb(0,0,0)" stroke-width="0.0" fill="rgb(255,255,255)" stroke-linecap="butt" stroke-miterlimit="10.0"><path d="M 141.6810,144.0823 l -0.0000,-27.4443 h -27.4443 l -0.0000,27.4443 Z"/></g><g stroke-linejoin="miter" stroke-opacity="1.0" fill-opacity="0.0" stroke="rgb(0,0,0)" stroke-width="0.9828721869343219" fill="rgb(0,0,0)" stroke-linecap="butt" stroke-miterlimit="10.0"><path d="M 141.6810,130.3602 c 0.0000,-7.5785 -6.1436,-13.7221 -13.7221 -13.7221c -7.5785,-0.0000 -13.7221,6.1436 -13.7221 13.7221c -0.0000,7.5785 6.1436,13.7221 13.7221 13.7221c 7.5785,0.0000 13.7221,-6.1436 13.7221 -13.7221Z"/></g><g stroke-linejoin="miter" stroke-opacity="1.0" fill-opacity="1.0" stroke="rgb(0,0,0)" stroke-width="0.0" fill="rgb(255,255,255)" stroke-linecap="butt" stroke-miterlimit="10.0"><path d="M 45.6261,144.0823 l -0.0000,-27.4443 h -27.4443 l -0.0000,27.4443 Z"/></g><g stroke-linejoin="miter" stroke-opacity="1.0" fill-opacity="0.0" stroke="rgb(0,0,0)" stroke-width="0.9828721869343219" fill="rgb(0,0,0)" stroke-linecap="butt" stroke-miterlimit="10.0"><path d="M 45.6261,130.3602 c 0.0000,-7.5785 -6.1436,-13.7221 -13.7221 -13.7221c -7.5785,-0.0000 -13.7221,6.1436 -13.7221 13.7221c -0.0000,7.5785 6.1436,13.7221 13.7221 13.7221c 7.5785,0.0000 13.7221,-6.1436 13.7221 -13.7221Z"/></g><g stroke-linejoin="miter" stroke-opacity="1.0" fill-opacity="1.0" stroke="rgb(0,0,0)" stroke-width="0.0" fill="rgb(255,255,255)" stroke-linecap="butt" stroke-miterlimit="10.0"><path d="M 134.8199,89.1938 l -0.0000,-27.4443 h -27.4443 l -0.0000,27.4443 Z"/></g><g stroke-linejoin="miter" stroke-opacity="1.0" fill-opacity="0.0" stroke="rgb(0,0,0)" stroke-width="0.9828721869343219" fill="rgb(0,0,0)" stroke-linecap="butt" stroke-miterlimit="10.0"><path d="M 134.8199,89.1938 l -0.0000,-27.4443 h -27.4443 l -0.0000,27.4443 Z"/></g><g stroke-linejoin="miter" stroke-opacity="1.0" fill-opacity="1.0" stroke="rgb(0,0,0)" stroke-width="0.9828721869343219" fill="rgb(0,0,0)" stroke-linecap="butt" stroke-miterlimit="10.0"><path d="M 123.8422,75.4717 c 0.0000,-1.5157 -1.2287,-2.7444 -2.7444 -2.7444c -1.5157,-0.0000 -2.7444,1.2287 -2.7444 2.7444c -0.0000,1.5157 1.2287,2.7444 2.7444 2.7444c 1.5157,0.0000 2.7444,-1.2287 2.7444 -2.7444Z"/></g><g stroke-linejoin="miter" stroke-opacity="1.0" fill-opacity="1.0" stroke="rgb(0,0,0)" stroke-width="0.0" fill="rgb(255,255,255)" stroke-linecap="butt" stroke-miterlimit="10.0"><path d="M 107.3756,89.1938 l -0.0000,-27.4443 h -27.4443 l -0.0000,27.4443 Z"/></g><g stroke-linejoin="miter" stroke-opacity="1.0" fill-opacity="0.0" stroke="rgb(0,0,0)" stroke-width="0.9828721869343219" fill="rgb(0,0,0)" stroke-linecap="butt" stroke-miterlimit="10.0"><path d="M 107.3756,89.1938 l -0.0000,-27.4443 h -27.4443 l -0.0000,27.4443 Z"/></g><g stroke-linejoin="miter" stroke-opacity="1.0" fill-opacity="1.0" stroke="rgb(0,0,0)" stroke-width="0.9828721869343219" fill="rgb(0,0,0)" stroke-linecap="butt" stroke-miterlimit="10.0"><path d="M 96.3979,75.4717 c 0.0000,-1.5157 -1.2287,-2.7444 -2.7444 -2.7444c -1.5157,-0.0000 -2.7444,1.2287 -2.7444 2.7444c -0.0000,1.5157 1.2287,2.7444 2.7444 2.7444c 1.5157,0.0000 2.7444,-1.2287 2.7444 -2.7444Z"/></g><g stroke-linejoin="miter" stroke-opacity="1.0" fill-opacity="1.0" stroke="rgb(0,0,0)" stroke-width="0.0" fill="rgb(255,255,255)" stroke-linecap="butt" stroke-miterlimit="10.0"><path d="M 79.9314,89.1938 l -0.0000,-27.4443 h -27.4443 l -0.0000,27.4443 Z"/></g><g stroke-linejoin="miter" stroke-opacity="1.0" fill-opacity="0.0" stroke="rgb(0,0,0)" stroke-width="0.9828721869343219" fill="rgb(0,0,0)" stroke-linecap="butt" stroke-miterlimit="10.0"><path d="M 79.9314,89.1938 l -0.0000,-27.4443 h -27.4443 l -0.0000,27.4443 Z"/></g><g stroke-linejoin="miter" stroke-opacity="1.0" fill-opacity="1.0" stroke="rgb(0,0,0)" stroke-width="0.9828721869343219" fill="rgb(0,0,0)" stroke-linecap="butt" stroke-miterlimit="10.0"><path d="M 68.9537,75.4717 c 0.0000,-1.5157 -1.2287,-2.7444 -2.7444 -2.7444c -1.5157,-0.0000 -2.7444,1.2287 -2.7444 2.7444c -0.0000,1.5157 1.2287,2.7444 2.7444 2.7444c 1.5157,0.0000 2.7444,-1.2287 2.7444 -2.7444Z"/></g><g stroke-linejoin="miter" stroke-opacity="1.0" fill-opacity="1.0" stroke="rgb(0,0,0)" stroke-width="0.0" fill="rgb(255,255,255)" stroke-linecap="butt" stroke-miterlimit="10.0"><path d="M 52.4871,89.1938 l -0.0000,-27.4443 h -27.4443 l -0.0000,27.4443 Z"/></g><g stroke-linejoin="miter" stroke-opacity="1.0" fill-opacity="0.0" stroke="rgb(0,0,0)" stroke-width="0.9828721869343219" fill="rgb(0,0,0)" stroke-linecap="butt" stroke-miterlimit="10.0"><path d="M 52.4871,89.1938 l -0.0000,-27.4443 h -27.4443 l -0.0000,27.4443 Z"/></g><g stroke-linejoin="miter" stroke-opacity="1.0" fill-opacity="1.0" stroke="rgb(0,0,0)" stroke-width="0.9828721869343219" fill="rgb(0,0,0)" stroke-linecap="butt" stroke-miterlimit="10.0"><path d="M 41.5094,75.4717 c 0.0000,-1.5157 -1.2287,-2.7444 -2.7444 -2.7444c -1.5157,-0.0000 -2.7444,1.2287 -2.7444 2.7444c -0.0000,1.5157 1.2287,2.7444 2.7444 2.7444c 1.5157,0.0000 2.7444,-1.2287 2.7444 -2.7444Z"/></g><g stroke-linejoin="miter" stroke-opacity="1.0" fill-opacity="1.0" stroke="rgb(0,0,0)" stroke-width="0.0" fill="rgb(255,255,255)" stroke-linecap="butt" stroke-miterlimit="10.0"><path d="M 278.9022,34.3053 l -0.0000,-27.4443 h -27.4443 l -0.0000,27.4443 Z"/></g><g stroke-linejoin="miter" stroke-opacity="1.0" fill-opacity="0.0" stroke="rgb(0,0,0)" stroke-width="0.9828721869343219" fill="rgb(0,0,0)" stroke-linecap="butt" stroke-miterlimit="10.0"><path d="M 278.9022,34.3053 l -0.0000,-27.4443 h -27.4443 l -0.0000,27.4443 Z"/></g><g stroke-linejoin="miter" stroke-opacity="1.0" fill-opacity="1.0" stroke="rgb(0,0,0)" stroke-width="0.9828721869343219" fill="rgb(0,0,0)" stroke-linecap="butt" stroke-miterlimit="10.0"><path d="M 267.9245,20.5832 c 0.0000,-1.5157 -1.2287,-2.7444 -2.7444 -2.7444c -1.5157,-0.0000 -2.7444,1.2287 -2.7444 2.7444c -0.0000,1.5157 1.2287,2.7444 2.7444 2.7444c 1.5157,0.0000 2.7444,-1.2287 2.7444 -2.7444Z"/></g><g stroke-linejoin="miter" stroke-opacity="1.0" fill-opacity="1.0" stroke="rgb(0,0,0)" stroke-width="0.0" fill="rgb(255,255,255)" stroke-linecap="butt" stroke-miterlimit="10.0"><path d="M 251.4580,34.3053 l -0.0000,-27.4443 h -27.4443 l -0.0000,27.4443 Z"/></g><g stroke-linejoin="miter" stroke-opacity="1.0" fill-opacity="0.0" stroke="rgb(0,0,0)" stroke-width="0.9828721869343219" fill="rgb(0,0,0)" stroke-linecap="butt" stroke-miterlimit="10.0"><path d="M 251.4580,34.3053 l -0.0000,-27.4443 h -27.4443 l -0.0000,27.4443 Z"/></g><g stroke-linejoin="miter" stroke-opacity="1.0" fill-opacity="1.0" stroke="rgb(0,0,0)" stroke-width="0.9828721869343219" fill="rgb(0,0,0)" stroke-linecap="butt" stroke-miterlimit="10.0"><path d="M 240.4803,20.5832 c 0.0000,-1.5157 -1.2287,-2.7444 -2.7444 -2.7444c -1.5157,-0.0000 -2.7444,1.2287 -2.7444 2.7444c -0.0000,1.5157 1.2287,2.7444 2.7444 2.7444c 1.5157,0.0000 2.7444,-1.2287 2.7444 -2.7444Z"/></g><g stroke-linejoin="miter" stroke-opacity="1.0" fill-opacity="1.0" stroke="rgb(0,0,0)" stroke-width="0.0" fill="rgb(255,255,255)" stroke-linecap="butt" stroke-miterlimit="10.0"><path d="M 224.0137,34.3053 l -0.0000,-27.4443 h -27.4443 l -0.0000,27.4443 Z"/></g><g stroke-linejoin="miter" stroke-opacity="1.0" fill-opacity="0.0" stroke="rgb(0,0,0)" stroke-width="0.9828721869343219" fill="rgb(0,0,0)" stroke-linecap="butt" stroke-miterlimit="10.0"><path d="M 224.0137,34.3053 l -0.0000,-27.4443 h -27.4443 l -0.0000,27.4443 Z"/></g><g stroke-linejoin="miter" stroke-opacity="1.0" fill-opacity="1.0" stroke="rgb(0,0,0)" stroke-width="0.9828721869343219" fill="rgb(0,0,0)" stroke-linecap="butt" stroke-miterlimit="10.0"><path d="M 213.0360,20.5832 c 0.0000,-1.5157 -1.2287,-2.7444 -2.7444 -2.7444c -1.5157,-0.0000 -2.7444,1.2287 -2.7444 2.7444c -0.0000,1.5157 1.2287,2.7444 2.7444 2.7444c 1.5157,0.0000 2.7444,-1.2287 2.7444 -2.7444Z"/></g><g stroke-linejoin="miter" stroke-opacity="1.0" fill-opacity="1.0" stroke="rgb(0,0,0)" stroke-width="0.0" fill="rgb(255,255,255)" stroke-linecap="butt" stroke-miterlimit="10.0"><path d="M 196.5695,34.3053 l -0.0000,-27.4443 h -27.4443 l -0.0000,27.4443 Z"/></g><g stroke-linejoin="miter" stroke-opacity="1.0" fill-opacity="0.0" stroke="rgb(0,0,0)" stroke-width="0.9828721869343219" fill="rgb(0,0,0)" stroke-linecap="butt" stroke-miterlimit="10.0"><path d="M 196.5695,34.3053 l -0.0000,-27.4443 h -27.4443 l -0.0000,27.4443 Z"/></g><g stroke-linejoin="miter" stroke-opacity="1.0" fill-opacity="1.0" stroke="rgb(0,0,0)" stroke-width="0.9828721869343219" fill="rgb(0,0,0)" stroke-linecap="butt" stroke-miterlimit="10.0"><path d="M 185.5918,20.5832 c 0.0000,-1.5157 -1.2287,-2.7444 -2.7444 -2.7444c -1.5157,-0.0000 -2.7444,1.2287 -2.7444 2.7444c -0.0000,1.5157 1.2287,2.7444 2.7444 2.7444c 1.5157,0.0000 2.7444,-1.2287 2.7444 -2.7444Z"/></g></svg>