<?xml version="1.0" encoding="UTF-8"?>
<!DOCTYPE svg PUBLIC "-//W3C//DTD SVG 1.1//EN"
    "http://www.w3.org/Graphics/SVG/1.1/DTD/svg11.dtd"><svg xmlns="http://www.w3.org/2000/svg" height="500.0000" stroke-opacity="1" viewBox="0 0 95 500" font-size="1" width="95.2381" xmlns:xlink="http://www.w3.org/1999/xlink" stroke="rgb(0,0,0)" version="1.1"><defs></defs><g stroke-linejoin="miter" stroke-opacity="1.0" fill-opacity="0.0" stroke="rgb(0,0,0)" stroke-width="0.8728715609439694" fill="rgb(0,0,0)" stroke-linecap="butt" font-family="DejaVu Sans Mono" stroke-miterlimit="10.0"><path d="M 47.6190,27.0563 v 86.5801 "/></g><g stroke-linejoin="miter" stroke-opacity="1.0" fill-opacity="1.0" font-size="21.645021645021643px" stroke="rgb(0,0,0)" stroke-width="0.8728715609439694" fill="rgb(0,0,0)" stroke-linecap="butt" font-family="DejaVu Sans Mono" stroke-miterlimit="10.0"><text dominant-baseline="middle" transform="matrix(1.0000,0.0000,0.0000,1.0000,56.2771,74.6753)" stroke="none" text-anchor="middle">0</text></g><g stroke-linejoin="miter" stroke-opacity="1.0" fill-opacity="0.0" stroke="rgb(0,0,0)" stroke-width="0.8728715609439694" fill="rgb(0,0,0)" stroke-linecap="butt" font-family="DejaVu Sans Mono" stroke-miterlimit="10.0"><path d="M 47.6190,113.6364 v 86.5801 "/></g><g stroke-linejoin="miter" stroke-opacity="1.0" fill-opacity="1.0" font-size="21.645021645021643px" stroke="rgb(0,0,0)" stroke-width="0.8728715609439694" fill="rgb(0,0,0)" stroke-linecap="butt" font-family="DejaVu Sans Mono" stroke-miterlimit="10.0"><text dominant-baseline="middle" transform="matrix(1.0000,0.0000,0.0000,1.0000,56.2771,161.2554)" stroke="none" text-anchor="middle">0</text></g><g stroke-linejoin="miter" stroke-opacity="1.0" fill-opacity="0.0" stroke="rgb(0,0,0)" stroke-width="0.8728715609439694" fill="rgb(0,0,0)" stroke-linecap="butt" font-family="DejaVu Sans Mono" stroke-miterlimit="10.0"><path d="M 47.6190,200.2165 v 86.5801 "/></g><g stroke-linejoin="miter" stroke-opacity="1.0" fill-opacity="1.0" font-size="21.645021645021643px" stroke="rgb(0,0,0)" stroke-width="0.8728715609439694" fill="rgb(0,0,0)" stroke-linecap="butt" font-family="DejaVu Sans Mono" stroke-miterlimit="10.0"><text dominant-baseline="middle" transform="matrix(1.0000,0.0000,0.0000,1.0000,56.2771,247.8355)" stroke="none" text-anchor="middle">0</text></g><g stroke-linejoin="miter" stroke-opacity="1.0" fill-opacity="0.0" stroke="rgb(0,0,0)" stroke-width="0.8728715609439694" fill="rgb(0,0,0)" stroke-linecap="butt" font-family="DejaVu Sans Mono" stroke-miterlimit="10.0"><path d="M 47.6190,286.7965 l 27.0563,86.5801 "/></g><g stroke-linejoin="miter" stroke-opacity="1.0" fill-opacity="1.0" font-size="21.645021645021643px" stroke="rgb(0,0,0)" stroke-width="0.8728715609439694" fill="rgb(0,0,0)" stroke-linecap="butt" font-family="DejaVu Sans Mono" stroke-miterlimit="10.0"><text dominant-baseline="middle" transform="matrix(1.0000,0.0000,0.0000,1.0000,73.2471,334.4156)" stroke="none" text-anchor="middle">0</text></g><g stroke-linejoin="miter" stroke-opacity="1.0" fill-opacity="0.0" stroke="rgb(0,0,0)" stroke-width="0.8728715609439694" fill="rgb(0,0,0)" stroke-linecap="butt" font-family="DejaVu Sans Mono" stroke-miterlimit="10.0"><path d="M 47.6190,286.7965 l -27.0563,86.5801 "/></g><g stroke-linejoin="miter" stroke-opacity="1.0" fill-opacity="1.0" font-size="21.645021645021643px" stroke="rgb(0,0,0)" stroke-width="0.8728715609439694" fill="rgb(0,0,0)" stroke-linecap="butt" font-family="DejaVu Sans Mono" stroke-miterlimit="10.0"><text dominant-baseline="middle" transform="matrix(1.0000,0.0000,0.0000,1.0000,21.9910,334.4156)" stroke="none" text-anchor="middle">1</text></g><g stroke-linejoin="miter" stroke-opacity="1.0" fill-opacity="0.0" stroke="rgb(0,0,0)" stroke-width="0.8728715609439694" fill="rgb(0,0,0)" stroke-linecap="butt" font-family="DejaVu Sans Mono" stroke-miterlimit="10.0"><path d="M 74.6753,373.3766 v 86.5801 "/></g><g stroke-linejoin="miter" stroke-opacity="1.0" fill-opacity="1.0" font-size="21.645021645021643px" stroke="rgb(0,0,0)" stroke-width="0.8728715609439694" fill="rgb(0,0,0)" stroke-linecap="butt" font-family="DejaVu Sans Mono" stroke-miterlimit="10.0"><text dominant-baseline="middle" transform="matrix(1.0000,0.0000,0.0000,1.0000,83.3333,420.9957)" stroke="none" text-anchor="middle">1</text></g><g stroke-linejoin="miter" stroke-opacity="1.0" fill-opacity="1.0" stroke="rgb(0,0,0)" stroke-width="0.8728715609439694" fill="rgb(255,255,255)" stroke-linecap="butt" font-family="DejaVu Sans Mono" stroke-miterlimit="10.0"><path d="M 90.9091,459.9567 c 0.0000,-8.9657 -7.2681,-16.2338 -16.2338 -16.2338c -8.9657,-0.0000 -16.2338,7.2681 -16.2338 16.2338c -0.0000,8.9657 7.2681,16.2338 16.2338 16.2338c 8.9657,0.0000 16.2338,-7.2681 16.2338 -16.2338Z"/></g><g stroke-linejoin="miter" stroke-opacity="1.0" fill-opacity="1.0" font-size="21.645021645021643px" stroke="rgb(0,0,0)" stroke-width="0.8728715609439694" fill="rgb(0,0,0)" stroke-linecap="butt" font-family="DejaVu Sans Mono" stroke-miterlimit="10.0"><text dominant-baseline="middle" transform="matrix(1.0000,0.0000,0.0000,1.0000,74.6753,459.9567)" stroke="none" text-anchor="middle">2</text></g><g stroke-linejoin="miter" stroke-opacity="1.0" fill-opacity="1.0" stroke="rgb(0,0,0)" stroke-width="0.8728715609439694" fill="rgb(255,255,255)" stroke-linecap="butt" font-family="DejaVu Sans Mono" stroke-miterlimit="10.0"><path d="M 80.0866,373.3766 c 0.0000,-2.9886 -2.4227,-5.4113 -5.4113 -5.4113c -2.9886,-0.0000 -5.4113,2.4227 -5.4113 5.4113c -0.0000,2.9886 2.4227,5.4113 5.4113 5.4113c 2.9886,0.0000 5.4113,-2.4227 5.4113 -5.4113Z"/></g><g stroke-linejoin="miter" stroke-opacity="1.0" fill-opacity="0.0" stroke="rgb(0,0,0)" stroke-width="0.8728715609439694" fill="rgb(0,0,0)" stroke-linecap="butt" font-family="DejaVu Sans Mono" stroke-miterlimit="10.0"><path d="M 20.5628,373.3766 v 86.5801 "/></g><g stroke-linejoin="miter" stroke-opacity="1.0" fill-opacity="1.0" font-size="21.645021645021643px" stroke="rgb(0,0,0)" stroke-width="0.8728715609439694" fill="rgb(0,0,0)" stroke-linecap="butt" font-family="DejaVu Sans Mono" stroke-miterlimit="10.0"><text dominant-baseline="middle" transform="matrix(1.0000,0.0000,0.0000,1.0000,29.2208,420.9957)" stroke="none" text-anchor="middle">1</text></g><g stroke-linejoin="miter" stroke-opacity="1.0" fill-opacity="1.0" stroke="rgb(0,0,0)" stroke-width="0.8728715609439694" fill="rgb(255,255,255)" stroke-linecap="butt" font-family="DejaVu Sans Mono" stroke-miterlimit="10.0"><path d="M 36.7965,459.9567 c 0.0000,-8.9657 -7.2681,-16.2338 -16.2338 -16.2338c -8.9657,-0.0000 -16.2338,7.2681 -16.2338 16.2338c -0.0000,8.9657 7.2681,16.2338 16.2338 16.2338c 8.9657,0.0000 16.2338,-7.2681 16.2338 -16.2338Z"/></g><g stroke-linejoin="miter" stroke-opacity="1.0" fill-opacity="1.0" font-size="21.645021645021643px" stroke="rgb(0,0,0)" stroke-width="0.8728715609439694" fill="rgb(0,0,0)" stroke-linecap="butt" font-family="DejaVu Sans Mono" stroke-miterlimit="10.0"><text dominant-baseline="middle" transform="matrix(1.0000,0.0000,0.0000,1.0000,20.5628,459.9567)" stroke="none" text-anchor="middle">1</text></g><g stroke-linejoin="miter" stroke-opacity="1.0" fill-opacity="1.0" stroke="rgb(0,0,0)" stroke-width="0.8728715609439694" fill="rgb(255,255,255)" stroke-linecap="butt" font-family="DejaVu Sans Mono" stroke-miterlimit="10.0"><path d="M 25.9740,373.3766 c 0.0000,-2.9886 -2.4227,-5.4113 -5.4113 -5.4113c -2.9886,-0.0000 -5.4113,2.4227 -5.4113 5.4113c -0.0000,2.9886 2.4227,5.4113 5.4113 5.4113c 2.9886,0.0000 5.4113,-2.4227 5.4113 -5.4113Z"/></g><g stroke-linejoin="miter" stroke-opacity="1.0" fill-opacity="1.0" stroke="rgb(0,0,0)" stroke-width="0.8728715609439694" fill="rgb(255,255,255)" stroke-linecap="butt" font-family="DejaVu Sans Mono" stroke-miterlimit="10.0"><path d="M 53.0303,286.7965 c 0.0000,-2.9886 -2.4227,-5.4113 -5.4113 -5.4113c -2.9886,-0.0000 -5.4113,2.4227 -5.4113 5.4113c -0.0000,2.9886 2.4227,5.4113 5.4113 5.4113c 2.9886,0.0000 5.4113,-2.4227 5.4113 -5.4113Z"/></g><g stroke-linejoin="miter" stroke-opacity="1.0" fill-opacity="1.0" stroke="rgb(0,0,0)" stroke-width="0.8728715609439694" fill="rgb(255,255,255)" stroke-linecap="butt" font-family="DejaVu Sans Mono" stroke-miterlimit="10.0"><path d="M 53.0303,200.2165 c 0.0000,-2.9886 -2.4227,-5.4113 -5.4113 -5.4113c -2.9886,-0.0000 -5.4113,2.4227 -5.4113 5.4113c -0.0000,2.9886 2.4227,5.4113 5.4113 5.4113c 2.9886,0.0000 5.4113,-2.4227 5.4113 -5.4113Z"/></g><g stroke-linejoin="miter" stroke-opacity="1.0" fill-opacity="1.0" stroke="rgb(0,0,0)" stroke-width="0.8728715609439694" fill="rgb(255,255,255)" stroke-linecap="butt" font-family="DejaVu Sans Mono" stroke-miterlimit="10.0"><path d="M 53.0303,113.6364 c 0.0000,-2.9886 -2.4227,-5.4113 -5.4113 -5.4113c -2.9886,-0.0000 -5.4113,2.4227 -5.4113 5.4113c -0.0000,2.9886 2.4227,5.4113 5.4113 5.4113c 2.9886,0.0000 5.4113,-2.4227 5.4113 -5.4113Z"/></g><g stroke-linejoin="miter" stroke-opacity="1.0" fill-opacity="1.0" stroke="rgb(0,0,0)" stroke-width="0.8728715609439694" fill="rgb(255,255,255)" stroke-linecap="butt" font-family="DejaVu Sans Mono" stroke-miterlimit="10.0"><path d="M 53.0303,27.0563 c 0.0000,-2.9886 -2.4227,-5.4113 -5.4113 -5.4113c -2.9886,-0.0000 -5.4113,2.4227 -5.4113 5.4113c -0.0000,2.9886 2.4227,5.4113 5.4113 5.4113c 2.9886,0.0000 5.4113,-2.4227 5.4113 -5.4113Z"/></g></svg>