<?xml version="1.0" encoding="UTF-8"?>
<!DOCTYPE svg PUBLIC "-//W3C//DTD SVG 1.1//EN"
    "http://www.w3.org/Graphics/SVG/1.1/DTD/svg11.dtd"><svg xmlns="http://www.w3.org/2000/svg" height="307.6923" stroke-opacity="1" viewBox="0 0 400 308" font-size="1" width="400.0000" xmlns:xlink="http://www.w3.org/1999/xlink" stroke="rgb(0,0,0)" version="1.1"><defs></defs><g stroke-linejoin="miter" stroke-opacity="1.0" fill-opacity="0.0" stroke="rgb(0,0,0)" stroke-width="1.4032928308912467" fill="rgb(0,0,0)" stroke-linecap="butt" font-family="DejaVu Sans Mono" stroke-miterlimit="10.0"><path d="M 200.0000,13.9860 l 139.8601,223.7762 "/></g><g stroke-linejoin="miter" stroke-opacity="1.0" fill-opacity="1.0" font-size="55.94405594405594px" stroke="rgb(0,0,0)" stroke-width="1.4032928308912467" fill="rgb(0,0,0)" stroke-linecap="butt" font-family="DejaVu Sans Mono" stroke-miterlimit="10.0"><text dominant-baseline="middle" transform="matrix(1.0000,0.0000,0.0000,1.0000,314.1577,137.0629)" stroke="none" text-anchor="middle">c</text></g><g stroke-linejoin="miter" stroke-opacity="1.0" fill-opacity="0.0" stroke="rgb(0,0,0)" stroke-width="1.4032928308912467" fill="rgb(0,0,0)" stroke-linecap="butt" font-family="DejaVu Sans Mono" stroke-miterlimit="10.0"><path d="M 200.0000,13.9860 v 223.7762 "/></g><g stroke-linejoin="miter" stroke-opacity="1.0" fill-opacity="1.0" font-size="55.94405594405594px" stroke="rgb(0,0,0)" stroke-width="1.4032928308912467" fill="rgb(0,0,0)" stroke-linecap="butt" font-family="DejaVu Sans Mono" stroke-miterlimit="10.0"><text dominant-baseline="middle" transform="matrix(1.0000,0.0000,0.0000,1.0000,222.3776,137.0629)" stroke="none" text-anchor="middle">b</text></g><g stroke-linejoin="miter" stroke-opacity="1.0" fill-opacity="0.0" stroke="rgb(0,0,0)" stroke-width="1.4032928308912467" fill="rgb(0,0,0)" stroke-linecap="butt" font-family="DejaVu Sans Mono" stroke-miterlimit="10.0"><path d="M 200.0000,13.9860 l -139.8601,223.7762 "/></g><g stroke-linejoin="miter" stroke-opacity="1.0" fill-opacity="1.0" font-size="55.94405594405594px" stroke="rgb(0,0,0)" stroke-width="1.4032928308912467" fill="rgb(0,0,0)" stroke-linecap="butt" font-family="DejaVu Sans Mono" stroke-miterlimit="10.0"><text dominant-baseline="middle" transform="matrix(1.0000,0.0000,0.0000,1.0000,85.8423,137.0629)" stroke="none" text-anchor="middle">a</text></g><g stroke-linejoin="miter" stroke-opacity="1.0" fill-opacity="1.0" stroke="rgb(0,0,0)" stroke-width="1.4032928308912467" fill="rgb(255,255,255)" stroke-linecap="butt" font-family="DejaVu Sans Mono" stroke-miterlimit="10.0"><path d="M 381.8182,237.7622 c 0.0000,-23.1728 -18.7853,-41.9580 -41.9580 -41.9580c -23.1728,-0.0000 -41.9580,18.7853 -41.9580 41.9580c -0.0000,23.1728 18.7853,41.9580 41.9580 41.9580c 23.1728,0.0000 41.9580,-18.7853 41.9580 -41.9580Z"/></g><g stroke-linejoin="miter" stroke-opacity="1.0" fill-opacity="1.0" font-size="55.94405594405594px" stroke="rgb(0,0,0)" stroke-width="1.4032928308912467" fill="rgb(0,0,0)" stroke-linecap="butt" font-family="DejaVu Sans Mono" stroke-miterlimit="10.0"><text dominant-baseline="middle" transform="matrix(1.0000,0.0000,0.0000,1.0000,339.8601,237.7622)" stroke="none" text-anchor="middle">7</text></g><g stroke-linejoin="miter" stroke-opacity="1.0" fill-opacity="1.0" stroke="rgb(0,0,0)" stroke-width="1.4032928308912467" fill="rgb(255,255,255)" stroke-linecap="butt" font-family="DejaVu Sans Mono" stroke-miterlimit="10.0"><path d="M 241.9580,237.7622 c 0.0000,-23.1728 -18.7853,-41.9580 -41.9580 -41.9580c -23.1728,-0.0000 -41.9580,18.7853 -41.9580 41.9580c -0.0000,23.1728 18.7853,41.9580 41.9580 41.9580c 23.1728,0.0000 41.9580,-18.7853 41.9580 -41.9580Z"/></g><g stroke-linejoin="miter" stroke-opacity="1.0" fill-opacity="1.0" font-size="55.94405594405594px" stroke="rgb(0,0,0)" stroke-width="1.4032928308912467" fill="rgb(0,0,0)" stroke-linecap="butt" font-family="DejaVu Sans Mono" stroke-miterlimit="10.0"><text dominant-baseline="middle" transform="matrix(1.0000,0.0000,0.0000,1.0000,200.0000,237.7622)" stroke="none" text-anchor="middle">6</text></g><g stroke-linejoin="miter" stroke-opacity="1.0" fill-opacity="1.0" stroke="rgb(0,0,0)" stroke-width="1.4032928308912467" fill="rgb(255,255,255)" stroke-linecap="butt" font-family="DejaVu Sans Mono" stroke-miterlimit="10.0"><path d="M 102.0979,237.7622 c 0.0000,-23.1728 -18.7853,-41.9580 -41.9580 -41.9580c -23.1728,-0.0000 -41.9580,18.7853 -41.9580 41.9580c -0.0000,23.1728 18.7853,41.9580 41.9580 41.9580c 23.1728,0.0000 41.9580,-18.7853 41.9580 -41.9580Z"/></g><g stroke-linejoin="miter" stroke-opacity="1.0" fill-opacity="1.0" font-size="55.94405594405594px" stroke="rgb(0,0,0)" stroke-width="1.4032928308912467" fill="rgb(0,0,0)" stroke-linecap="butt" font-family="DejaVu Sans Mono" stroke-miterlimit="10.0"><text dominant-baseline="middle" transform="matrix(1.0000,0.0000,0.0000,1.0000,60.1399,237.7622)" stroke="none" text-anchor="middle">5</text></g><g stroke-linejoin="miter" stroke-opacity="1.0" fill-opacity="1.0" stroke="rgb(0,0,0)" stroke-width="1.4032928308912467" fill="rgb(255,255,255)" stroke-linecap="butt" font-family="DejaVu Sans Mono" stroke-miterlimit="10.0"><path d="M 213.9860,13.9860 c 0.0000,-7.7243 -6.2618,-13.9860 -13.9860 -13.9860c -7.7243,-0.0000 -13.9860,6.2618 -13.9860 13.9860c -0.0000,7.7243 6.2618,13.9860 13.9860 13.9860c 7.7243,0.0000 13.9860,-6.2618 13.9860 -13.9860Z"/></g></svg>