<?xml version="1.0" encoding="UTF-8"?>
<!DOCTYPE svg PUBLIC "-//W3C//DTD SVG 1.1//EN"
    "http://www.w3.org/Graphics/SVG/1.1/DTD/svg11.dtd"><svg xmlns="http://www.w3.org/2000/svg" height="500.0000" stroke-opacity="1" viewBox="0 0 650 500" font-size="1" width="650.0000" xmlns:xlink="http://www.w3.org/1999/xlink" stroke="rgb(0,0,0)" version="1.1"><defs></defs><g stroke-linejoin="miter" stroke-opacity="1.0" fill-opacity="1.0" stroke="rgb(0,0,0)" stroke-width="0.0" fill="rgb(255,255,255)" stroke-linecap="butt" font-family="DejaVu Sans Mono" stroke-miterlimit="10.0"><path d="M 650.0000,500.0000 l -0.0000,-500.0000 h -650.0000 l -0.0000,500.0000 Z"/></g><g stroke-linejoin="miter" stroke-opacity="1.0" fill-opacity="0.0" stroke="rgb(0,0,0)" stroke-width="2.280350850198276" fill="rgb(0,0,0)" stroke-linecap="butt" font-family="DejaVu Sans Mono" stroke-miterlimit="10.0"><path d="M 325.0000,25.0000 l 250.0000,400.0000 "/></g><g stroke-linejoin="miter" stroke-opacity="1.0" fill-opacity="1.0" font-size="100.0px" stroke="rgb(0,0,0)" stroke-width="2.280350850198276" fill="rgb(0,0,0)" stroke-linecap="butt" font-family="DejaVu Sans Mono" stroke-miterlimit="10.0"><text dominant-baseline="middle" transform="matrix(1.0000,0.0000,0.0000,1.0000,529.0569,245.0000)" stroke="none" text-anchor="middle">c</text></g><g stroke-linejoin="miter" stroke-opacity="1.0" fill-opacity="0.0" stroke="rgb(0,0,0)" stroke-width="2.280350850198276" fill="rgb(0,0,0)" stroke-linecap="butt" font-family="DejaVu Sans Mono" stroke-miterlimit="10.0"><path d="M 325.0000,25.0000 v 400.0000 "/></g><g stroke-linejoin="miter" stroke-opacity="1.0" fill-opacity="1.0" font-size="100.0px" stroke="rgb(0,0,0)" stroke-width="2.280350850198276" fill="rgb(0,0,0)" stroke-linecap="butt" font-family="DejaVu Sans Mono" stroke-miterlimit="10.0"><text dominant-baseline="middle" transform="matrix(1.0000,0.0000,0.0000,1.0000,365.0000,245.0000)" stroke="none" text-anchor="middle">b</text></g><g stroke-linejoin="miter" stroke-opacity="1.0" fill-opacity="0.0" stroke="rgb(0,0,0)" stroke-width="2.280350850198276" fill="rgb(0,0,0)" stroke-linecap="butt" font-family="DejaVu Sans Mono" stroke-miterlimit="10.0"><path d="M 325.0000,25.0000 l -250.0000,400.0000 "/></g><g stroke-linejoin="miter" stroke-opacity="1.0" fill-opacity="1.0" font-size="100.0px" stroke="rgb(0,0,0)" stroke-width="2.280350850198276" fill="rgb(0,0,0)" stroke-linecap="butt" font-family="DejaVu Sans Mono" stroke-miterlimit="10.0"><text dominant-baseline="middle" transform="matrix(1.0000,0.0000,0.0000,1.0000,120.9431,245.0000)" stroke="none" text-anchor="middle">a</text></g><g stroke-linejoin="miter" stroke-opacity="1.0" fill-opacity="1.0" stroke="rgb(0,0,0)" stroke-width="2.280350850198276" fill="rgb(255,255,255)" stroke-linecap="butt" font-family="DejaVu Sans Mono" stroke-miterlimit="10.0"><path d="M 650.0000,425.0000 c 0.0000,-41.4214 -33.5786,-75.0000 -75.0000 -75.0000c -41.4214,-0.0000 -75.0000,33.5786 -75.0000 75.0000c -0.0000,41.4214 33.5786,75.0000 75.0000 75.0000c 41.4214,0.0000 75.0000,-33.5786 75.0000 -75.0000Z"/></g><g stroke-linejoin="miter" stroke-opacity="1.0" fill-opacity="1.0" font-size="100.0px" stroke="rgb(0,0,0)" stroke-width="2.280350850198276" fill="rgb(0,0,0)" stroke-linecap="butt" font-family="DejaVu Sans Mono" stroke-miterlimit="10.0"><text dominant-baseline="middle" transform="matrix(1.0000,0.0000,0.0000,1.0000,575.0000,425.0000)" stroke="none" text-anchor="middle">7</text></g><g stroke-linejoin="miter" stroke-opacity="1.0" fill-opacity="1.0" stroke="rgb(0,0,0)" stroke-width="2.280350850198276" fill="rgb(255,255,255)" stroke-linecap="butt" font-family="DejaVu Sans Mono" stroke-miterlimit="10.0"><path d="M 400.0000,425.0000 c 0.0000,-41.4214 -33.5786,-75.0000 -75.0000 -75.0000c -41.4214,-0.0000 -75.0000,33.5786 -75.0000 75.0000c -0.0000,41.4214 33.5786,75.0000 75.0000 75.0000c 41.4214,0.0000 75.0000,-33.5786 75.0000 -75.0000Z"/></g><g stroke-linejoin="miter" stroke-opacity="1.0" fill-opacity="1.0" font-size="100.0px" stroke="rgb(0,0,0)" stroke-width="2.280350850198276" fill="rgb(0,0,0)" stroke-linecap="butt" font-family="DejaVu Sans Mono" stroke-miterlimit="10.0"><text dominant-baseline="middle" transform="matrix(1.0000,0.0000,0.0000,1.0000,325.0000,425.0000)" stroke="none" text-anchor="middle">6</text></g><g stroke-linejoin="miter" stroke-opacity="1.0" fill-opacity="1.0" stroke="rgb(0,0,0)" stroke-width="2.280350850198276" fill="rgb(255,255,255)" stroke-linecap="butt" font-family="DejaVu Sans Mono" stroke-miterlimit="10.0"><path d="M 150.0000,425.0000 c 0.0000,-41.4214 -33.5786,-75.0000 -75.0000 -75.0000c -41.4214,-0.0000 -75.0000,33.5786 -75.0000 75.0000c -0.0000,41.4214 33.5786,75.0000 75.0000 75.0000c 41.4214,0.0000 75.0000,-33.5786 75.0000 -75.0000Z"/></g><g stroke-linejoin="miter" stroke-opacity="1.0" fill-opacity="1.0" font-size="100.0px" stroke="rgb(0,0,0)" stroke-width="2.280350850198276" fill="rgb(0,0,0)" stroke-linecap="butt" font-family="DejaVu Sans Mono" stroke-miterlimit="10.0"><text dominant-baseline="middle" transform="matrix(1.0000,0.0000,0.0000,1.0000,75.0000,425.0000)" stroke="none" text-anchor="middle">5</text></g><g stroke-linejoin="miter" stroke-opacity="1.0" fill-opacity="1.0" stroke="rgb(0,0,0)" stroke-width="2.280350850198276" fill="rgb(255,255,255)" stroke-linecap="butt" font-family="DejaVu Sans Mono" stroke-miterlimit="10.0"><path d="M 350.0000,25.0000 c 0.0000,-13.8071 -11.1929,-25.0000 -25.0000 -25.0000c -13.8071,-0.0000 -25.0000,11.1929 -25.0000 25.0000c -0.0000,13.8071 11.1929,25.0000 25.0000 25.0000c 13.8071,0.0000 25.0000,-11.1929 25.0000 -25.0000Z"/></g></svg>