<?xml version="1.0" encoding="UTF-8"?>
<!DOCTYPE svg PUBLIC "-//W3C//DTD SVG 1.1//EN"
    "http://www.w3.org/Graphics/SVG/1.1/DTD/svg11.dtd"><svg xmlns="http://www.w3.org/2000/svg" height="264.1509" stroke-opacity="1" viewBox="0 0 500 264" font-size="1" width="500.0000" xmlns:xlink="http://www.w3.org/1999/xlink" stroke="rgb(0,0,0)" version="1.1"><defs></defs><g stroke-linejoin="miter" stroke-opacity="1.0" fill-opacity="1.0" stroke="rgb(0,0,0)" stroke-width="0.0" fill="rgb(255,255,255)" stroke-linecap="butt" stroke-miterlimit="10.0"><path d="M 500.0000,264.1509 l -0.0000,-264.1509 h -500.0000 l -0.0000,264.1509 Z"/></g><g stroke-linejoin="miter" stroke-opacity="1.0" fill-opacity="0.0" stroke="rgb(0,0,0)" stroke-width="1.4536875686232618" fill="rgb(0,0,0)" stroke-linecap="butt" stroke-miterlimit="10.0"><path d="M 280.0172,25.7290 l 120.0686,68.6106 "/></g><g stroke-linejoin="miter" stroke-opacity="1.0" fill-opacity="0.0" stroke="rgb(0,0,0)" stroke-width="1.4536875686232618" fill="rgb(0,0,0)" stroke-linecap="butt" stroke-miterlimit="10.0"><path d="M 280.0172,25.7290 l -120.0686,68.6106 "/></g><g stroke-linejoin="miter" stroke-opacity="1.0" fill-opacity="0.0" stroke="rgb(0,0,0)" stroke-width="1.4536875686232618" fill="rgb(0,0,0)" stroke-linecap="butt" stroke-miterlimit="10.0"><path d="M 400.0858,94.3396 l 60.0343,68.6106 "/></g><g stroke-linejoin="miter" stroke-opacity="1.0" fill-opacity="0.0" stroke="rgb(0,0,0)" stroke-width="1.4536875686232618" fill="rgb(0,0,0)" stroke-linecap="butt" stroke-miterlimit="10.0"><path d="M 400.0858,94.3396 l -60.0343,68.6106 "/></g><g stroke-linejoin="miter" stroke-opacity="1.0" fill-opacity="1.0" stroke="rgb(0,0,0)" stroke-width="0.0" fill="rgb(255,255,255)" stroke-linecap="butt" stroke-miterlimit="10.0"><path d="M 477.2727,180.1029 l -0.0000,-34.3053 h -34.3053 l -0.0000,34.3053 Z"/></g><g stroke-linejoin="miter" stroke-opacity="1.0" fill-opacity="0.0" stroke="rgb(0,0,0)" stroke-width="1.4536875686232618" fill="rgb(0,0,0)" stroke-linecap="butt" stroke-miterlimit="10.0"><path d="M 477.2727,162.9503 c 0.0000,-9.4732 -7.6795,-17.1527 -17.1527 -17.1527c -9.4732,-0.0000 -17.1527,7.6795 -17.1527 17.1527c -0.0000,9.4732 7.6795,17.1527 17.1527 17.1527c 9.4732,0.0000 17.1527,-7.6795 17.1527 -17.1527Z"/></g><g stroke-linejoin="miter" stroke-opacity="1.0" fill-opacity="0.0" stroke="rgb(0,0,0)" stroke-width="1.4536875686232618" fill="rgb(0,0,0)" stroke-linecap="butt" stroke-miterlimit="10.0"><path d="M 340.0515,162.9503 l 60.0343,68.6106 "/></g><g stroke-linejoin="miter" stroke-opacity="1.0" fill-opacity="0.0" stroke="rgb(0,0,0)" stroke-width="1.4536875686232618" fill="rgb(0,0,0)" stroke-linecap="butt" stroke-miterlimit="10.0"><path d="M 340.0515,162.9503 l -60.0343,68.6106 "/></g><g stroke-linejoin="miter" stroke-opacity="1.0" fill-opacity="1.0" stroke="rgb(0,0,0)" stroke-width="0.0" fill="rgb(255,255,255)" stroke-linecap="butt" stroke-miterlimit="10.0"><path d="M 417.2384,248.7136 l -0.0000,-34.3053 h -34.3053 l -0.0000,34.3053 Z"/></g><g stroke-linejoin="miter" stroke-opacity="1.0" fill-opacity="0.0" stroke="rgb(0,0,0)" stroke-width="1.4536875686232618" fill="rgb(0,0,0)" stroke-linecap="butt" stroke-miterlimit="10.0"><path d="M 417.2384,231.5609 c 0.0000,-9.4732 -7.6795,-17.1527 -17.1527 -17.1527c -9.4732,-0.0000 -17.1527,7.6795 -17.1527 17.1527c -0.0000,9.4732 7.6795,17.1527 17.1527 17.1527c 9.4732,0.0000 17.1527,-7.6795 17.1527 -17.1527Z"/></g><g stroke-linejoin="miter" stroke-opacity="1.0" fill-opacity="1.0" stroke="rgb(0,0,0)" stroke-width="0.0" fill="rgb(255,255,255)" stroke-linecap="butt" stroke-miterlimit="10.0"><path d="M 297.1698,248.7136 l -0.0000,-34.3053 h -34.3053 l -0.0000,34.3053 Z"/></g><g stroke-linejoin="miter" stroke-opacity="1.0" fill-opacity="0.0" stroke="rgb(0,0,0)" stroke-width="1.4536875686232618" fill="rgb(0,0,0)" stroke-linecap="butt" stroke-miterlimit="10.0"><path d="M 297.1698,231.5609 c 0.0000,-9.4732 -7.6795,-17.1527 -17.1527 -17.1527c -9.4732,-0.0000 -17.1527,7.6795 -17.1527 17.1527c -0.0000,9.4732 7.6795,17.1527 17.1527 17.1527c 9.4732,0.0000 17.1527,-7.6795 17.1527 -17.1527Z"/></g><g stroke-linejoin="miter" stroke-opacity="1.0" fill-opacity="1.0" stroke="rgb(0,0,0)" stroke-width="0.0" fill="rgb(255,255,255)" stroke-linecap="butt" stroke-miterlimit="10.0"><path d="M 374.3568,180.1029 l -0.0000,-34.3053 h -34.3053 l -0.0000,34.3053 Z"/></g><g stroke-linejoin="miter" stroke-opacity="1.0" fill-opacity="0.0" stroke="rgb(0,0,0)" stroke-width="1.4536875686232618" fill="rgb(0,0,0)" stroke-linecap="butt" stroke-miterlimit="10.0"><path d="M 374.3568,180.1029 l -0.0000,-34.3053 h -34.3053 l -0.0000,34.3053 Z"/></g><g stroke-linejoin="miter" stroke-opacity="1.0" fill-opacity="1.0" stroke="rgb(0,0,0)" stroke-width="1.4536875686232618" fill="rgb(0,0,0)" stroke-linecap="butt" stroke-miterlimit="10.0"><path d="M 360.6346,162.9503 c 0.0000,-1.8946 -1.5359,-3.4305 -3.4305 -3.4305c -1.8946,-0.0000 -3.4305,1.5359 -3.4305 3.4305c -0.0000,1.8946 1.5359,3.4305 3.4305 3.4305c 1.8946,0.0000 3.4305,-1.5359 3.4305 -3.4305Z"/></g><g stroke-linejoin="miter" stroke-opacity="1.0" fill-opacity="1.0" stroke="rgb(0,0,0)" stroke-width="0.0" fill="rgb(255,255,255)" stroke-linecap="butt" stroke-miterlimit="10.0"><path d="M 340.0515,180.1029 l -0.0000,-34.3053 h -34.3053 l -0.0000,34.3053 Z"/></g><g stroke-linejoin="miter" stroke-opacity="1.0" fill-opacity="0.0" stroke="rgb(0,0,0)" stroke-width="1.4536875686232618" fill="rgb(0,0,0)" stroke-linecap="butt" stroke-miterlimit="10.0"><path d="M 340.0515,180.1029 l -0.0000,-34.3053 h -34.3053 l -0.0000,34.3053 Z"/></g><g stroke-linejoin="miter" stroke-opacity="1.0" fill-opacity="1.0" stroke="rgb(0,0,0)" stroke-width="1.4536875686232618" fill="rgb(0,0,0)" stroke-linecap="butt" stroke-miterlimit="10.0"><path d="M 326.3293,162.9503 c 0.0000,-1.8946 -1.5359,-3.4305 -3.4305 -3.4305c -1.8946,-0.0000 -3.4305,1.5359 -3.4305 3.4305c -0.0000,1.8946 1.5359,3.4305 3.4305 3.4305c 1.8946,0.0000 3.4305,-1.5359 3.4305 -3.4305Z"/></g><g stroke-linejoin="miter" stroke-opacity="1.0" fill-opacity="1.0" stroke="rgb(0,0,0)" stroke-width="0.0" fill="rgb(255,255,255)" stroke-linecap="butt" stroke-miterlimit="10.0"><path d="M 434.3911,111.4923 l -0.0000,-34.3053 h -34.3053 l -0.0000,34.3053 Z"/></g><g stroke-linejoin="miter" stroke-opacity="1.0" fill-opacity="0.0" stroke="rgb(0,0,0)" stroke-width="1.4536875686232618" fill="rgb(0,0,0)" stroke-linecap="butt" stroke-miterlimit="10.0"><path d="M 434.3911,111.4923 l -0.0000,-34.3053 h -34.3053 l -0.0000,34.3053 Z"/></g><g stroke-linejoin="miter" stroke-opacity="1.0" fill-opacity="1.0" stroke="rgb(0,0,0)" stroke-width="1.4536875686232618" fill="rgb(0,0,0)" stroke-linecap="butt" stroke-miterlimit="10.0"><path d="M 420.6690,94.3396 c 0.0000,-1.8946 -1.5359,-3.4305 -3.4305 -3.4305c -1.8946,-0.0000 -3.4305,1.5359 -3.4305 3.4305c -0.0000,1.8946 1.5359,3.4305 3.4305 3.4305c 1.8946,0.0000 3.4305,-1.5359 3.4305 -3.4305Z"/></g><g stroke-linejoin="miter" stroke-opacity="1.0" fill-opacity="1.0" stroke="rgb(0,0,0)" stroke-width="0.0" fill="rgb(255,255,255)" stroke-linecap="butt" stroke-miterlimit="10.0"><path d="M 400.0858,111.4923 l -0.0000,-34.3053 h -34.3053 l -0.0000,34.3053 Z"/></g><g stroke-linejoin="miter" stroke-opacity="1.0" fill-opacity="0.0" stroke="rgb(0,0,0)" stroke-width="1.4536875686232618" fill="rgb(0,0,0)" stroke-linecap="butt" stroke-miterlimit="10.0"><path d="M 400.0858,111.4923 l -0.0000,-34.3053 h -34.3053 l -0.0000,34.3053 Z"/></g><g stroke-linejoin="miter" stroke-opacity="1.0" fill-opacity="1.0" stroke="rgb(0,0,0)" stroke-width="1.4536875686232618" fill="rgb(0,0,0)" stroke-linecap="butt" stroke-miterlimit="10.0"><path d="M 386.3636,94.3396 c 0.0000,-1.8946 -1.5359,-3.4305 -3.4305 -3.4305c -1.8946,-0.0000 -3.4305,1.5359 -3.4305 3.4305c -0.0000,1.8946 1.5359,3.4305 3.4305 3.4305c 1.8946,0.0000 3.4305,-1.5359 3.4305 -3.4305Z"/></g><g stroke-linejoin="miter" stroke-opacity="1.0" fill-opacity="0.0" stroke="rgb(0,0,0)" stroke-width="1.4536875686232618" fill="rgb(0,0,0)" stroke-linecap="butt" stroke-miterlimit="10.0"><path d="M 159.9485,94.3396 l 60.0343,68.6106 "/></g><g stroke-linejoin="miter" stroke-opacity="1.0" fill-opacity="0.0" stroke="rgb(0,0,0)" stroke-width="1.4536875686232618" fill="rgb(0,0,0)" stroke-linecap="butt" stroke-miterlimit="10.0"><path d="M 159.9485,94.3396 l -60.0343,68.6106 "/></g><g stroke-linejoin="miter" stroke-opacity="1.0" fill-opacity="1.0" stroke="rgb(0,0,0)" stroke-width="0.0" fill="rgb(255,255,255)" stroke-linecap="butt" stroke-miterlimit="10.0"><path d="M 237.1355,180.1029 l -0.0000,-34.3053 h -34.3053 l -0.0000,34.3053 Z"/></g><g stroke-linejoin="miter" stroke-opacity="1.0" fill-opacity="0.0" stroke="rgb(0,0,0)" stroke-width="1.4536875686232618" fill="rgb(0,0,0)" stroke-linecap="butt" stroke-miterlimit="10.0"><path d="M 237.1355,162.9503 c 0.0000,-9.4732 -7.6795,-17.1527 -17.1527 -17.1527c -9.4732,-0.0000 -17.1527,7.6795 -17.1527 17.1527c -0.0000,9.4732 7.6795,17.1527 17.1527 17.1527c 9.4732,0.0000 17.1527,-7.6795 17.1527 -17.1527Z"/></g><g stroke-linejoin="miter" stroke-opacity="1.0" fill-opacity="0.0" stroke="rgb(0,0,0)" stroke-width="1.4536875686232618" fill="rgb(0,0,0)" stroke-linecap="butt" stroke-miterlimit="10.0"><path d="M 99.9142,162.9503 l 60.0343,68.6106 "/></g><g stroke-linejoin="miter" stroke-opacity="1.0" fill-opacity="0.0" stroke="rgb(0,0,0)" stroke-width="1.4536875686232618" fill="rgb(0,0,0)" stroke-linecap="butt" stroke-miterlimit="10.0"><path d="M 99.9142,162.9503 l -60.0343,68.6106 "/></g><g stroke-linejoin="miter" stroke-opacity="1.0" fill-opacity="1.0" stroke="rgb(0,0,0)" stroke-width="0.0" fill="rgb(255,255,255)" stroke-linecap="butt" stroke-miterlimit="10.0"><path d="M 177.1012,248.7136 l -0.0000,-34.3053 h -34.3053 l -0.0000,34.3053 Z"/></g><g stroke-linejoin="miter" stroke-opacity="1.0" fill-opacity="0.0" stroke="rgb(0,0,0)" stroke-width="1.4536875686232618" fill="rgb(0,0,0)" stroke-linecap="butt" stroke-miterlimit="10.0"><path d="M 177.1012,231.5609 c 0.0000,-9.4732 -7.6795,-17.1527 -17.1527 -17.1527c -9.4732,-0.0000 -17.1527,7.6795 -17.1527 17.1527c -0.0000,9.4732 7.6795,17.1527 17.1527 17.1527c 9.4732,0.0000 17.1527,-7.6795 17.1527 -17.1527Z"/></g><g stroke-linejoin="miter" stroke-opacity="1.0" fill-opacity="1.0" stroke="rgb(0,0,0)" stroke-width="0.0" fill="rgb(255,255,255)" stroke-linecap="butt" stroke-miterlimit="10.0"><path d="M 57.0326,248.7136 l -0.0000,-34.3053 h -34.3053 l -0.0000,34.3053 Z"/></g><g stroke-linejoin="miter" stroke-opacity="1.0" fill-opacity="0.0" stroke="rgb(0,0,0)" stroke-width="1.4536875686232618" fill="rgb(0,0,0)" stroke-linecap="butt" stroke-miterlimit="10.0"><path d="M 57.0326,231.5609 c 0.0000,-9.4732 -7.6795,-17.1527 -17.1527 -17.1527c -9.4732,-0.0000 -17.1527,7.6795 -17.1527 17.1527c -0.0000,9.4732 7.6795,17.1527 17.1527 17.1527c 9.4732,0.0000 17.1527,-7.6795 17.1527 -17.1527Z"/></g><g stroke-linejoin="miter" stroke-opacity="1.0" fill-opacity="1.0" stroke="rgb(0,0,0)" stroke-width="0.0" fill="rgb(255,255,255)" stroke-linecap="butt" stroke-miterlimit="10.0"><path d="M 134.2196,180.1029 l -0.0000,-34.3053 h -34.3053 l -0.0000,34.3053 Z"/></g><g stroke-linejoin="miter" stroke-opacity="1.0" fill-opacity="0.0" stroke="rgb(0,0,0)" stroke-width="1.4536875686232618" fill="rgb(0,0,0)" stroke-linecap="butt" stroke-miterlimit="10.0"><path d="M 134.2196,180.1029 l -0.0000,-34.3053 h -34.3053 l -0.0000,34.3053 Z"/></g><g stroke-linejoin="miter" stroke-opacity="1.0" fill-opacity="1.0" stroke="rgb(0,0,0)" stroke-width="1.4536875686232618" fill="rgb(0,0,0)" stroke-linecap="butt" stroke-miterlimit="10.0"><path d="M 120.4974,162.9503 c 0.0000,-1.8946 -1.5359,-3.4305 -3.4305 -3.4305c -1.8946,-0.0000 -3.4305,1.5359 -3.4305 3.4305c -0.0000,1.8946 1.5359,3.4305 3.4305 3.4305c 1.8946,0.0000 3.4305,-1.5359 3.4305 -3.4305Z"/></g><g stroke-linejoin="miter" stroke-opacity="1.0" fill-opacity="1.0" stroke="rgb(0,0,0)" stroke-width="0.0" fill="rgb(255,255,255)" stroke-linecap="butt" stroke-miterlimit="10.0"><path d="M 99.9142,180.1029 l -0.0000,-34.3053 h -34.3053 l -0.0000,34.3053 Z"/></g><g stroke-linejoin="miter" stroke-opacity="1.0" fill-opacity="0.0" stroke="rgb(0,0,0)" stroke-width="1.4536875686232618" fill="rgb(0,0,0)" stroke-linecap="butt" stroke-miterlimit="10.0"><path d="M 99.9142,180.1029 l -0.0000,-34.3053 h -34.3053 l -0.0000,34.3053 Z"/></g><g stroke-linejoin="miter" stroke-opacity="1.0" fill-opacity="1.0" stroke="rgb(0,0,0)" stroke-width="1.4536875686232618" fill="rgb(0,0,0)" stroke-linecap="butt" stroke-miterlimit="10.0"><path d="M 86.1921,162.9503 c 0.0000,-1.8946 -1.5359,-3.4305 -3.4305 -3.4305c -1.8946,-0.0000 -3.4305,1.5359 -3.4305 3.4305c -0.0000,1.8946 1.5359,3.4305 3.4305 3.4305c 1.8946,0.0000 3.4305,-1.5359 3.4305 -3.4305Z"/></g><g stroke-linejoin="miter" stroke-opacity="1.0" fill-opacity="1.0" stroke="rgb(0,0,0)" stroke-width="0.0" fill="rgb(255,255,255)" stroke-linecap="butt" stroke-miterlimit="10.0"><path d="M 194.2539,111.4923 l -0.0000,-34.3053 h -34.3053 l -0.0000,34.3053 Z"/></g><g stroke-linejoin="miter" stroke-opacity="1.0" fill-opacity="0.0" stroke="rgb(0,0,0)" stroke-width="1.4536875686232618" fill="rgb(0,0,0)" stroke-linecap="butt" stroke-miterlimit="10.0"><path d="M 194.2539,111.4923 l -0.0000,-34.3053 h -34.3053 l -0.0000,34.3053 Z"/></g><g stroke-linejoin="miter" stroke-opacity="1.0" fill-opacity="1.0" stroke="rgb(0,0,0)" stroke-width="1.4536875686232618" fill="rgb(0,0,0)" stroke-linecap="butt" stroke-miterlimit="10.0"><path d="M 180.5317,94.3396 c 0.0000,-1.8946 -1.5359,-3.4305 -3.4305 -3.4305c -1.8946,-0.0000 -3.4305,1.5359 -3.4305 3.4305c -0.0000,1.8946 1.5359,3.4305 3.4305 3.4305c 1.8946,0.0000 3.4305,-1.5359 3.4305 -3.4305Z"/></g><g stroke-linejoin="miter" stroke-opacity="1.0" fill-opacity="1.0" stroke="rgb(0,0,0)" stroke-width="0.0" fill="rgb(255,255,255)" stroke-linecap="butt" stroke-miterlimit="10.0"><path d="M 159.9485,111.4923 l -0.0000,-34.3053 h -34.3053 l -0.0000,34.3053 Z"/></g><g stroke-linejoin="miter" stroke-opacity="1.0" fill-opacity="0.0" stroke="rgb(0,0,0)" stroke-width="1.4536875686232618" fill="rgb(0,0,0)" stroke-linecap="butt" stroke-miterlimit="10.0"><path d="M 159.9485,111.4923 l -0.0000,-34.3053 h -34.3053 l -0.0000,34.3053 Z"/></g><g stroke-linejoin="miter" stroke-opacity="1.0" fill-opacity="1.0" stroke="rgb(0,0,0)" stroke-width="1.4536875686232618" fill="rgb(0,0,0)" stroke-linecap="butt" stroke-miterlimit="10.0"><path d="M 146.2264,94.3396 c 0.0000,-1.8946 -1.5359,-3.4305 -3.4305 -3.4305c -1.8946,-0.0000 -3.4305,1.5359 -3.4305 3.4305c -0.0000,1.8946 1.5359,3.4305 3.4305 3.4305c 1.8946,0.0000 3.4305,-1.5359 3.4305 -3.4305Z"/></g><g stroke-linejoin="miter" stroke-opacity="1.0" fill-opacity="1.0" stroke="rgb(0,0,0)" stroke-width="0.0" fill="rgb(255,255,255)" stroke-linecap="butt" stroke-miterlimit="10.0"><path d="M 314.3225,42.8816 l -0.0000,-34.3053 h -34.3053 l -0.0000,34.3053 Z"/></g><g stroke-linejoin="miter" stroke-opacity="1.0" fill-opacity="0.0" stroke="rgb(0,0,0)" stroke-width="1.4536875686232618" fill="rgb(0,0,0)" stroke-linecap="butt" stroke-miterlimit="10.0"><path d="M 314.3225,42.8816 l -0.0000,-34.3053 h -34.3053 l -0.0000,34.3053 Z"/></g><g stroke-linejoin="miter" stroke-opacity="1.0" fill-opacity="1.0" stroke="rgb(0,0,0)" stroke-width="1.4536875686232618" fill="rgb(0,0,0)" stroke-linecap="butt" stroke-miterlimit="10.0"><path d="M 300.6003,25.7290 c 0.0000,-1.8946 -1.5359,-3.4305 -3.4305 -3.4305c -1.8946,-0.0000 -3.4305,1.5359 -3.4305 3.4305c -0.0000,1.8946 1.5359,3.4305 3.4305 3.4305c 1.8946,0.0000 3.4305,-1.5359 3.4305 -3.4305Z"/></g><g stroke-linejoin="miter" stroke-opacity="1.0" fill-opacity="1.0" stroke="rgb(0,0,0)" stroke-width="0.0" fill="rgb(255,255,255)" stroke-linecap="butt" stroke-miterlimit="10.0"><path d="M 280.0172,42.8816 l -0.0000,-34.3053 h -34.3053 l -0.0000,34.3053 Z"/></g><g stroke-linejoin="miter" stroke-opacity="1.0" fill-opacity="0.0" stroke="rgb(0,0,0)" stroke-width="1.4536875686232618" fill="rgb(0,0,0)" stroke-linecap="butt" stroke-miterlimit="10.0"><path d="M 280.0172,42.8816 l -0.0000,-34.3053 h -34.3053 l -0.0000,34.3053 Z"/></g><g stroke-linejoin="miter" stroke-opacity="1.0" fill-opacity="1.0" stroke="rgb(0,0,0)" stroke-width="1.4536875686232618" fill="rgb(0,0,0)" stroke-linecap="butt" stroke-miterlimit="10.0"><path d="M 266.2950,25.7290 c 0.0000,-1.8946 -1.5359,-3.4305 -3.4305 -3.4305c -1.8946,-0.0000 -3.4305,1.5359 -3.4305 3.4305c -0.0000,1.8946 1.5359,3.4305 3.4305 3.4305c 1.8946,0.0000 3.4305,-1.5359 3.4305 -3.4305Z"/></g></svg>