<?xml version="1.0" encoding="UTF-8"?>
<!DOCTYPE svg PUBLIC "-//W3C//DTD SVG 1.1//EN"
    "http://www.w3.org/Graphics/SVG/1.1/DTD/svg11.dtd"><svg xmlns="http://www.w3.org/2000/svg" height="418.6916" stroke-opacity="1" viewBox="0 0 400 419" font-size="1" width="400.0000" xmlns:xlink="http://www.w3.org/1999/xlink" stroke="rgb(0,0,0)" version="1.1"><defs></defs><g stroke-linejoin="miter" stroke-opacity="1.0" fill-opacity="1.0" stroke="rgb(0,0,0)" stroke-width="0.0" fill="rgb(255,255,255)" stroke-linecap="butt" stroke-miterlimit="10.0"><path d="M 400.0000,418.6916 l -0.0000,-418.6916 h -400.0000 l -0.0000,418.6916 Z"/></g><g stroke-linejoin="miter" stroke-opacity="1.0" fill-opacity="0.0" stroke="rgb(0,0,0)" stroke-width="1.6369563733417882" fill="rgb(0,0,0)" stroke-linecap="butt" stroke-miterlimit="10.0"><path d="M 222.0901,40.7816 l 88.3602,108.7511 "/></g><g stroke-linejoin="miter" stroke-opacity="1.0" fill-opacity="0.0" stroke="rgb(0,0,0)" stroke-width="1.6369563733417882" fill="rgb(0,0,0)" stroke-linecap="butt" stroke-miterlimit="10.0"><path d="M 222.0901,40.7816 l -88.3602,108.7511 "/></g><g stroke-linejoin="miter" stroke-opacity="1.0" fill-opacity="0.0" stroke="rgb(0,0,0)" stroke-width="1.6369563733417882" fill="rgb(0,0,0)" stroke-linecap="butt" stroke-miterlimit="10.0"><path d="M 310.4503,149.5327 l 44.1801,108.7511 "/></g><g stroke-linejoin="miter" stroke-opacity="1.0" fill-opacity="0.0" stroke="rgb(0,0,0)" stroke-width="1.6369563733417882" fill="rgb(0,0,0)" stroke-linecap="butt" stroke-miterlimit="10.0"><path d="M 310.4503,149.5327 l -44.1801,108.7511 "/></g><g stroke-linejoin="miter" stroke-opacity="1.0" fill-opacity="1.0" stroke="rgb(0,0,0)" stroke-width="0.0" fill="rgb(255,255,255)" stroke-linecap="butt" stroke-miterlimit="10.0"><path d="M 381.8182,285.4715 l -0.0000,-54.3755 h -54.3755 l -0.0000,54.3755 Z"/></g><g stroke-linejoin="miter" stroke-opacity="1.0" fill-opacity="0.0" stroke="rgb(0,0,0)" stroke-width="1.6369563733417882" fill="rgb(0,0,0)" stroke-linecap="butt" stroke-miterlimit="10.0"><path d="M 381.8182,258.2838 c 0.0000,-15.0154 -12.1724,-27.1878 -27.1878 -27.1878c -15.0154,-0.0000 -27.1878,12.1724 -27.1878 27.1878c -0.0000,15.0154 12.1724,27.1878 27.1878 27.1878c 15.0154,0.0000 27.1878,-12.1724 27.1878 -27.1878Z"/></g><g stroke-linejoin="miter" stroke-opacity="1.0" fill-opacity="0.0" stroke="rgb(0,0,0)" stroke-width="1.6369563733417882" fill="rgb(0,0,0)" stroke-linecap="butt" stroke-miterlimit="10.0"><path d="M 266.2702,258.2838 l 44.1801,108.7511 "/></g><g stroke-linejoin="miter" stroke-opacity="1.0" fill-opacity="0.0" stroke="rgb(0,0,0)" stroke-width="1.6369563733417882" fill="rgb(0,0,0)" stroke-linecap="butt" stroke-miterlimit="10.0"><path d="M 266.2702,258.2838 l -44.1801,108.7511 "/></g><g stroke-linejoin="miter" stroke-opacity="1.0" fill-opacity="1.0" stroke="rgb(0,0,0)" stroke-width="0.0" fill="rgb(255,255,255)" stroke-linecap="butt" stroke-miterlimit="10.0"><path d="M 337.6381,394.2226 l -0.0000,-54.3755 h -54.3755 l -0.0000,54.3755 Z"/></g><g stroke-linejoin="miter" stroke-opacity="1.0" fill-opacity="0.0" stroke="rgb(0,0,0)" stroke-width="1.6369563733417882" fill="rgb(0,0,0)" stroke-linecap="butt" stroke-miterlimit="10.0"><path d="M 337.6381,367.0348 c 0.0000,-15.0154 -12.1724,-27.1878 -27.1878 -27.1878c -15.0154,-0.0000 -27.1878,12.1724 -27.1878 27.1878c -0.0000,15.0154 12.1724,27.1878 27.1878 27.1878c 15.0154,0.0000 27.1878,-12.1724 27.1878 -27.1878Z"/></g><g stroke-linejoin="miter" stroke-opacity="1.0" fill-opacity="1.0" stroke="rgb(0,0,0)" stroke-width="0.0" fill="rgb(255,255,255)" stroke-linecap="butt" stroke-miterlimit="10.0"><path d="M 249.2778,394.2226 l -0.0000,-54.3755 h -54.3755 l -0.0000,54.3755 Z"/></g><g stroke-linejoin="miter" stroke-opacity="1.0" fill-opacity="0.0" stroke="rgb(0,0,0)" stroke-width="1.6369563733417882" fill="rgb(0,0,0)" stroke-linecap="butt" stroke-miterlimit="10.0"><path d="M 249.2778,367.0348 c 0.0000,-15.0154 -12.1724,-27.1878 -27.1878 -27.1878c -15.0154,-0.0000 -27.1878,12.1724 -27.1878 27.1878c -0.0000,15.0154 12.1724,27.1878 27.1878 27.1878c 15.0154,0.0000 27.1878,-12.1724 27.1878 -27.1878Z"/></g><g stroke-linejoin="miter" stroke-opacity="1.0" fill-opacity="1.0" stroke="rgb(0,0,0)" stroke-width="0.0" fill="rgb(255,255,255)" stroke-linecap="butt" stroke-miterlimit="10.0"><path d="M 320.6457,285.4715 l -0.0000,-54.3755 h -54.3755 l -0.0000,54.3755 Z"/></g><g stroke-linejoin="miter" stroke-opacity="1.0" fill-opacity="0.0" stroke="rgb(0,0,0)" stroke-width="1.6369563733417882" fill="rgb(0,0,0)" stroke-linecap="butt" stroke-miterlimit="10.0"><path d="M 320.6457,285.4715 l -0.0000,-54.3755 h -54.3755 l -0.0000,54.3755 Z"/></g><g stroke-linejoin="miter" stroke-opacity="1.0" fill-opacity="1.0" stroke="rgb(0,0,0)" stroke-width="1.6369563733417882" fill="rgb(0,0,0)" stroke-linecap="butt" stroke-miterlimit="10.0"><path d="M 298.8955,258.2838 c 0.0000,-3.0031 -2.4345,-5.4376 -5.4376 -5.4376c -3.0031,-0.0000 -5.4376,2.4345 -5.4376 5.4376c -0.0000,3.0031 2.4345,5.4376 5.4376 5.4376c 3.0031,0.0000 5.4376,-2.4345 5.4376 -5.4376Z"/></g><g stroke-linejoin="miter" stroke-opacity="1.0" fill-opacity="1.0" stroke="rgb(0,0,0)" stroke-width="0.0" fill="rgb(255,255,255)" stroke-linecap="butt" stroke-miterlimit="10.0"><path d="M 266.2702,285.4715 l -0.0000,-54.3755 h -54.3755 l -0.0000,54.3755 Z"/></g><g stroke-linejoin="miter" stroke-opacity="1.0" fill-opacity="0.0" stroke="rgb(0,0,0)" stroke-width="1.6369563733417882" fill="rgb(0,0,0)" stroke-linecap="butt" stroke-miterlimit="10.0"><path d="M 266.2702,285.4715 l -0.0000,-54.3755 h -54.3755 l -0.0000,54.3755 Z"/></g><g stroke-linejoin="miter" stroke-opacity="1.0" fill-opacity="1.0" stroke="rgb(0,0,0)" stroke-width="1.6369563733417882" fill="rgb(0,0,0)" stroke-linecap="butt" stroke-miterlimit="10.0"><path d="M 244.5200,258.2838 c 0.0000,-3.0031 -2.4345,-5.4376 -5.4376 -5.4376c -3.0031,-0.0000 -5.4376,2.4345 -5.4376 5.4376c -0.0000,3.0031 2.4345,5.4376 5.4376 5.4376c 3.0031,0.0000 5.4376,-2.4345 5.4376 -5.4376Z"/></g><g stroke-linejoin="miter" stroke-opacity="1.0" fill-opacity="1.0" stroke="rgb(0,0,0)" stroke-width="0.0" fill="rgb(255,255,255)" stroke-linecap="butt" stroke-miterlimit="10.0"><path d="M 364.8258,176.7205 l -0.0000,-54.3755 h -54.3755 l -0.0000,54.3755 Z"/></g><g stroke-linejoin="miter" stroke-opacity="1.0" fill-opacity="0.0" stroke="rgb(0,0,0)" stroke-width="1.6369563733417882" fill="rgb(0,0,0)" stroke-linecap="butt" stroke-miterlimit="10.0"><path d="M 364.8258,176.7205 l -0.0000,-54.3755 h -54.3755 l -0.0000,54.3755 Z"/></g><g stroke-linejoin="miter" stroke-opacity="1.0" fill-opacity="1.0" stroke="rgb(0,0,0)" stroke-width="1.6369563733417882" fill="rgb(0,0,0)" stroke-linecap="butt" stroke-miterlimit="10.0"><path d="M 343.0756,149.5327 c 0.0000,-3.0031 -2.4345,-5.4376 -5.4376 -5.4376c -3.0031,-0.0000 -5.4376,2.4345 -5.4376 5.4376c -0.0000,3.0031 2.4345,5.4376 5.4376 5.4376c 3.0031,0.0000 5.4376,-2.4345 5.4376 -5.4376Z"/></g><g stroke-linejoin="miter" stroke-opacity="1.0" fill-opacity="1.0" stroke="rgb(0,0,0)" stroke-width="0.0" fill="rgb(255,255,255)" stroke-linecap="butt" stroke-miterlimit="10.0"><path d="M 310.4503,176.7205 l -0.0000,-54.3755 h -54.3755 l -0.0000,54.3755 Z"/></g><g stroke-linejoin="miter" stroke-opacity="1.0" fill-opacity="0.0" stroke="rgb(0,0,0)" stroke-width="1.6369563733417882" fill="rgb(0,0,0)" stroke-linecap="butt" stroke-miterlimit="10.0"><path d="M 310.4503,176.7205 l -0.0000,-54.3755 h -54.3755 l -0.0000,54.3755 Z"/></g><g stroke-linejoin="miter" stroke-opacity="1.0" fill-opacity="1.0" stroke="rgb(0,0,0)" stroke-width="1.6369563733417882" fill="rgb(0,0,0)" stroke-linecap="butt" stroke-miterlimit="10.0"><path d="M 288.7001,149.5327 c 0.0000,-3.0031 -2.4345,-5.4376 -5.4376 -5.4376c -3.0031,-0.0000 -5.4376,2.4345 -5.4376 5.4376c -0.0000,3.0031 2.4345,5.4376 5.4376 5.4376c 3.0031,0.0000 5.4376,-2.4345 5.4376 -5.4376Z"/></g><g stroke-linejoin="miter" stroke-opacity="1.0" fill-opacity="0.0" stroke="rgb(0,0,0)" stroke-width="1.6369563733417882" fill="rgb(0,0,0)" stroke-linecap="butt" stroke-miterlimit="10.0"><path d="M 133.7298,149.5327 l 44.1801,108.7511 "/></g><g stroke-linejoin="miter" stroke-opacity="1.0" fill-opacity="0.0" stroke="rgb(0,0,0)" stroke-width="1.6369563733417882" fill="rgb(0,0,0)" stroke-linecap="butt" stroke-miterlimit="10.0"><path d="M 133.7298,149.5327 l -44.1801,108.7511 "/></g><g stroke-linejoin="miter" stroke-opacity="1.0" fill-opacity="1.0" stroke="rgb(0,0,0)" stroke-width="0.0" fill="rgb(255,255,255)" stroke-linecap="butt" stroke-miterlimit="10.0"><path d="M 205.0977,285.4715 l -0.0000,-54.3755 h -54.3755 l -0.0000,54.3755 Z"/></g><g stroke-linejoin="miter" stroke-opacity="1.0" fill-opacity="0.0" stroke="rgb(0,0,0)" stroke-width="1.6369563733417882" fill="rgb(0,0,0)" stroke-linecap="butt" stroke-miterlimit="10.0"><path d="M 205.0977,258.2838 c 0.0000,-15.0154 -12.1724,-27.1878 -27.1878 -27.1878c -15.0154,-0.0000 -27.1878,12.1724 -27.1878 27.1878c -0.0000,15.0154 12.1724,27.1878 27.1878 27.1878c 15.0154,0.0000 27.1878,-12.1724 27.1878 -27.1878Z"/></g><g stroke-linejoin="miter" stroke-opacity="1.0" fill-opacity="0.0" stroke="rgb(0,0,0)" stroke-width="1.6369563733417882" fill="rgb(0,0,0)" stroke-linecap="butt" stroke-miterlimit="10.0"><path d="M 89.5497,258.2838 l 44.1801,108.7511 "/></g><g stroke-linejoin="miter" stroke-opacity="1.0" fill-opacity="0.0" stroke="rgb(0,0,0)" stroke-width="1.6369563733417882" fill="rgb(0,0,0)" stroke-linecap="butt" stroke-miterlimit="10.0"><path d="M 89.5497,258.2838 l -44.1801,108.7511 "/></g><g stroke-linejoin="miter" stroke-opacity="1.0" fill-opacity="1.0" stroke="rgb(0,0,0)" stroke-width="0.0" fill="rgb(255,255,255)" stroke-linecap="butt" stroke-miterlimit="10.0"><path d="M 160.9176,394.2226 l -0.0000,-54.3755 h -54.3755 l -0.0000,54.3755 Z"/></g><g stroke-linejoin="miter" stroke-opacity="1.0" fill-opacity="0.0" stroke="rgb(0,0,0)" stroke-width="1.6369563733417882" fill="rgb(0,0,0)" stroke-linecap="butt" stroke-miterlimit="10.0"><path d="M 160.9176,367.0348 c 0.0000,-15.0154 -12.1724,-27.1878 -27.1878 -27.1878c -15.0154,-0.0000 -27.1878,12.1724 -27.1878 27.1878c -0.0000,15.0154 12.1724,27.1878 27.1878 27.1878c 15.0154,0.0000 27.1878,-12.1724 27.1878 -27.1878Z"/></g><g stroke-linejoin="miter" stroke-opacity="1.0" fill-opacity="1.0" stroke="rgb(0,0,0)" stroke-width="0.0" fill="rgb(255,255,255)" stroke-linecap="butt" stroke-miterlimit="10.0"><path d="M 72.5573,394.2226 l -0.0000,-54.3755 h -54.3755 l -0.0000,54.3755 Z"/></g><g stroke-linejoin="miter" stroke-opacity="1.0" fill-opacity="0.0" stroke="rgb(0,0,0)" stroke-width="1.6369563733417882" fill="rgb(0,0,0)" stroke-linecap="butt" stroke-miterlimit="10.0"><path d="M 72.5573,367.0348 c 0.0000,-15.0154 -12.1724,-27.1878 -27.1878 -27.1878c -15.0154,-0.0000 -27.1878,12.1724 -27.1878 27.1878c -0.0000,15.0154 12.1724,27.1878 27.1878 27.1878c 15.0154,0.0000 27.1878,-12.1724 27.1878 -27.1878Z"/></g><g stroke-linejoin="miter" stroke-opacity="1.0" fill-opacity="1.0" stroke="rgb(0,0,0)" stroke-width="0.0" fill="rgb(255,255,255)" stroke-linecap="butt" stroke-miterlimit="10.0"><path d="M 143.9252,285.4715 l -0.0000,-54.3755 h -54.3755 l -0.0000,54.3755 Z"/></g><g stroke-linejoin="miter" stroke-opacity="1.0" fill-opacity="0.0" stroke="rgb(0,0,0)" stroke-width="1.6369563733417882" fill="rgb(0,0,0)" stroke-linecap="butt" stroke-miterlimit="10.0"><path d="M 143.9252,285.4715 l -0.0000,-54.3755 h -54.3755 l -0.0000,54.3755 Z"/></g><g stroke-linejoin="miter" stroke-opacity="1.0" fill-opacity="1.0" stroke="rgb(0,0,0)" stroke-width="1.6369563733417882" fill="rgb(0,0,0)" stroke-linecap="butt" stroke-miterlimit="10.0"><path d="M 122.1750,258.2838 c 0.0000,-3.0031 -2.4345,-5.4376 -5.4376 -5.4376c -3.0031,-0.0000 -5.4376,2.4345 -5.4376 5.4376c -0.0000,3.0031 2.4345,5.4376 5.4376 5.4376c 3.0031,0.0000 5.4376,-2.4345 5.4376 -5.4376Z"/></g><g stroke-linejoin="miter" stroke-opacity="1.0" fill-opacity="1.0" stroke="rgb(0,0,0)" stroke-width="0.0" fill="rgb(255,255,255)" stroke-linecap="butt" stroke-miterlimit="10.0"><path d="M 89.5497,285.4715 l -0.0000,-54.3755 h -54.3755 l -0.0000,54.3755 Z"/></g><g stroke-linejoin="miter" stroke-opacity="1.0" fill-opacity="0.0" stroke="rgb(0,0,0)" stroke-width="1.6369563733417882" fill="rgb(0,0,0)" stroke-linecap="butt" stroke-miterlimit="10.0"><path d="M 89.5497,285.4715 l -0.0000,-54.3755 h -54.3755 l -0.0000,54.3755 Z"/></g><g stroke-linejoin="miter" stroke-opacity="1.0" fill-opacity="1.0" stroke="rgb(0,0,0)" stroke-width="1.6369563733417882" fill="rgb(0,0,0)" stroke-linecap="butt" stroke-miterlimit="10.0"><path d="M 67.7995,258.2838 c 0.0000,-3.0031 -2.4345,-5.4376 -5.4376 -5.4376c -3.0031,-0.0000 -5.4376,2.4345 -5.4376 5.4376c -0.0000,3.0031 2.4345,5.4376 5.4376 5.4376c 3.0031,0.0000 5.4376,-2.4345 5.4376 -5.4376Z"/></g><g stroke-linejoin="miter" stroke-opacity="1.0" fill-opacity="1.0" stroke="rgb(0,0,0)" stroke-width="0.0" fill="rgb(255,255,255)" stroke-linecap="butt" stroke-miterlimit="10.0"><path d="M 188.1054,176.7205 l -0.0000,-54.3755 h -54.3755 l -0.0000,54.3755 Z"/></g><g stroke-linejoin="miter" stroke-opacity="1.0" fill-opacity="0.0" stroke="rgb(0,0,0)" stroke-width="1.6369563733417882" fill="rgb(0,0,0)" stroke-linecap="butt" stroke-miterlimit="10.0"><path d="M 188.1054,176.7205 l -0.0000,-54.3755 h -54.3755 l -0.0000,54.3755 Z"/></g><g stroke-linejoin="miter" stroke-opacity="1.0" fill-opacity="1.0" stroke="rgb(0,0,0)" stroke-width="1.6369563733417882" fill="rgb(0,0,0)" stroke-linecap="butt" stroke-miterlimit="10.0"><path d="M 166.3551,149.5327 c 0.0000,-3.0031 -2.4345,-5.4376 -5.4376 -5.4376c -3.0031,-0.0000 -5.4376,2.4345 -5.4376 5.4376c -0.0000,3.0031 2.4345,5.4376 5.4376 5.4376c 3.0031,0.0000 5.4376,-2.4345 5.4376 -5.4376Z"/></g><g stroke-linejoin="miter" stroke-opacity="1.0" fill-opacity="1.0" stroke="rgb(0,0,0)" stroke-width="0.0" fill="rgb(255,255,255)" stroke-linecap="butt" stroke-miterlimit="10.0"><path d="M 133.7298,176.7205 l -0.0000,-54.3755 h -54.3755 l -0.0000,54.3755 Z"/></g><g stroke-linejoin="miter" stroke-opacity="1.0" fill-opacity="0.0" stroke="rgb(0,0,0)" stroke-width="1.6369563733417882" fill="rgb(0,0,0)" stroke-linecap="butt" stroke-miterlimit="10.0"><path d="M 133.7298,176.7205 l -0.0000,-54.3755 h -54.3755 l -0.0000,54.3755 Z"/></g><g stroke-linejoin="miter" stroke-opacity="1.0" fill-opacity="1.0" stroke="rgb(0,0,0)" stroke-width="1.6369563733417882" fill="rgb(0,0,0)" stroke-linecap="butt" stroke-miterlimit="10.0"><path d="M 111.9796,149.5327 c 0.0000,-3.0031 -2.4345,-5.4376 -5.4376 -5.4376c -3.0031,-0.0000 -5.4376,2.4345 -5.4376 5.4376c -0.0000,3.0031 2.4345,5.4376 5.4376 5.4376c 3.0031,0.0000 5.4376,-2.4345 5.4376 -5.4376Z"/></g><g stroke-linejoin="miter" stroke-opacity="1.0" fill-opacity="1.0" stroke="rgb(0,0,0)" stroke-width="0.0" fill="rgb(255,255,255)" stroke-linecap="butt" stroke-miterlimit="10.0"><path d="M 276.4656,67.9694 l -0.0000,-54.3755 h -54.3755 l -0.0000,54.3755 Z"/></g><g stroke-linejoin="miter" stroke-opacity="1.0" fill-opacity="0.0" stroke="rgb(0,0,0)" stroke-width="1.6369563733417882" fill="rgb(0,0,0)" stroke-linecap="butt" stroke-miterlimit="10.0"><path d="M 276.4656,67.9694 l -0.0000,-54.3755 h -54.3755 l -0.0000,54.3755 Z"/></g><g stroke-linejoin="miter" stroke-opacity="1.0" fill-opacity="1.0" stroke="rgb(0,0,0)" stroke-width="1.6369563733417882" fill="rgb(0,0,0)" stroke-linecap="butt" stroke-miterlimit="10.0"><path d="M 254.7154,40.7816 c 0.0000,-3.0031 -2.4345,-5.4376 -5.4376 -5.4376c -3.0031,-0.0000 -5.4376,2.4345 -5.4376 5.4376c -0.0000,3.0031 2.4345,5.4376 5.4376 5.4376c 3.0031,0.0000 5.4376,-2.4345 5.4376 -5.4376Z"/></g><g stroke-linejoin="miter" stroke-opacity="1.0" fill-opacity="1.0" stroke="rgb(0,0,0)" stroke-width="0.0" fill="rgb(255,255,255)" stroke-linecap="butt" stroke-miterlimit="10.0"><path d="M 222.0901,67.9694 l -0.0000,-54.3755 h -54.3755 l -0.0000,54.3755 Z"/></g><g stroke-linejoin="miter" stroke-opacity="1.0" fill-opacity="0.0" stroke="rgb(0,0,0)" stroke-width="1.6369563733417882" fill="rgb(0,0,0)" stroke-linecap="butt" stroke-miterlimit="10.0"><path d="M 222.0901,67.9694 l -0.0000,-54.3755 h -54.3755 l -0.0000,54.3755 Z"/></g><g stroke-linejoin="miter" stroke-opacity="1.0" fill-opacity="1.0" stroke="rgb(0,0,0)" stroke-width="1.6369563733417882" fill="rgb(0,0,0)" stroke-linecap="butt" stroke-miterlimit="10.0"><path d="M 200.3398,40.7816 c 0.0000,-3.0031 -2.4345,-5.4376 -5.4376 -5.4376c -3.0031,-0.0000 -5.4376,2.4345 -5.4376 5.4376c -0.0000,3.0031 2.4345,5.4376 5.4376 5.4376c 3.0031,0.0000 5.4376,-2.4345 5.4376 -5.4376Z"/></g></svg>