<?xml version="1.0" encoding="UTF-8"?>
<!DOCTYPE svg PUBLIC "-//W3C//DTD SVG 1.1//EN"
    "http://www.w3.org/Graphics/SVG/1.1/DTD/svg11.dtd"><svg xmlns="http://www.w3.org/2000/svg" height="510.7143" stroke-opacity="1" viewBox="0 0 550 511" font-size="1" width="550.0000" xmlns:xlink="http://www.w3.org/1999/xlink" stroke="rgb(0,0,0)" version="1.1"><defs></defs><g stroke-linejoin="miter" stroke-opacity="1.0" fill-opacity="0.0" stroke="rgb(0,0,0)" stroke-width="2.1199730456507497" fill="rgb(0,0,0)" stroke-linecap="butt" font-family="DejaVu Sans Mono" stroke-miterlimit="10.0"><path d="M 219.1964,44.6429 l 122.7679,142.8571 "/></g><g stroke-linejoin="miter" stroke-opacity="1.0" fill-opacity="1.0" font-size="35.714285714285715px" stroke="rgb(0,0,0)" stroke-width="2.1199730456507497" fill="rgb(0,0,255)" stroke-linecap="butt" font-family="DejaVu Sans Mono" stroke-miterlimit="10.0"><text dominant-baseline="middle" transform="matrix(1.0000,0.0000,0.0000,1.0000,313.6884,123.2143)" stroke="none" text-anchor="middle">b</text></g><g stroke-linejoin="miter" stroke-opacity="1.0" fill-opacity="0.0" stroke="rgb(0,0,0)" stroke-width="2.1199730456507497" fill="rgb(0,0,0)" stroke-linecap="butt" font-family="DejaVu Sans Mono" stroke-miterlimit="10.0"><path d="M 219.1964,44.6429 l -122.7679,142.8571 "/></g><g stroke-linejoin="miter" stroke-opacity="1.0" fill-opacity="1.0" font-size="35.714285714285715px" stroke="rgb(0,0,0)" stroke-width="2.1199730456507497" fill="rgb(0,0,0)" stroke-linecap="butt" font-family="DejaVu Sans Mono" stroke-miterlimit="10.0"><text dominant-baseline="middle" transform="matrix(1.0000,0.0000,0.0000,1.0000,124.7045,123.2143)" stroke="none" text-anchor="middle">a</text></g><g stroke-linejoin="miter" stroke-opacity="1.0" fill-opacity="0.0" stroke="rgb(0,0,0)" stroke-width="2.1199730456507497" fill="rgb(0,0,0)" stroke-linecap="butt" font-family="DejaVu Sans Mono" stroke-miterlimit="10.0"><path d="M 341.9643,187.5000 l 111.6071,142.8571 "/></g><g stroke-linejoin="miter" stroke-opacity="1.0" fill-opacity="1.0" font-size="35.714285714285715px" stroke="rgb(0,0,0)" stroke-width="2.1199730456507497" fill="rgb(0,0,0)" stroke-linecap="butt" font-family="DejaVu Sans Mono" stroke-miterlimit="10.0"><text dominant-baseline="middle" transform="matrix(1.0000,0.0000,0.0000,1.0000,429.3351,266.0714)" stroke="none" text-anchor="middle">b</text></g><g stroke-linejoin="miter" stroke-opacity="1.0" fill-opacity="0.0" stroke="rgb(0,0,0)" stroke-width="2.1199730456507497" fill="rgb(0,0,0)" stroke-linecap="butt" font-family="DejaVu Sans Mono" stroke-miterlimit="10.0"><path d="M 341.9643,187.5000 l -111.6071,142.8571 "/></g><g stroke-linejoin="miter" stroke-opacity="1.0" fill-opacity="1.0" font-size="35.714285714285715px" stroke="rgb(0,0,0)" stroke-width="2.1199730456507497" fill="rgb(0,0,255)" stroke-linecap="butt" font-family="DejaVu Sans Mono" stroke-miterlimit="10.0"><text dominant-baseline="middle" transform="matrix(1.0000,0.0000,0.0000,1.0000,254.5934,266.0714)" stroke="none" text-anchor="middle">a</text></g><g stroke-linejoin="miter" stroke-opacity="1.0" fill-opacity="0.0" stroke="rgb(0,0,0)" stroke-width="2.1199730456507497" fill="rgb(0,0,0)" stroke-linecap="butt" font-family="DejaVu Sans Mono" stroke-miterlimit="10.0"><path d="M 453.5714,330.3571 l 44.6429,142.8571 "/></g><g stroke-linejoin="miter" stroke-opacity="1.0" fill-opacity="1.0" font-size="35.714285714285715px" stroke="rgb(0,0,0)" stroke-width="2.1199730456507497" fill="rgb(0,0,0)" stroke-linecap="butt" font-family="DejaVu Sans Mono" stroke-miterlimit="10.0"><text dominant-baseline="middle" transform="matrix(1.0000,0.0000,0.0000,1.0000,495.8577,408.9286)" stroke="none" text-anchor="middle">c</text></g><g stroke-linejoin="miter" stroke-opacity="1.0" fill-opacity="0.0" stroke="rgb(0,0,0)" stroke-width="2.1199730456507497" fill="rgb(0,0,0)" stroke-linecap="butt" font-family="DejaVu Sans Mono" stroke-miterlimit="10.0"><path d="M 453.5714,330.3571 l -44.6429,142.8571 "/></g><g stroke-linejoin="miter" stroke-opacity="1.0" fill-opacity="1.0" font-size="35.714285714285715px" stroke="rgb(0,0,0)" stroke-width="2.1199730456507497" fill="rgb(0,0,0)" stroke-linecap="butt" font-family="DejaVu Sans Mono" stroke-miterlimit="10.0"><text dominant-baseline="middle" transform="matrix(1.0000,0.0000,0.0000,1.0000,411.2851,408.9286)" stroke="none" text-anchor="middle">b</text></g><g stroke-linejoin="miter" stroke-opacity="1.0" fill-opacity="1.0" stroke="rgb(0,0,0)" stroke-width="2.1199730456507497" fill="rgb(255,255,255)" stroke-linecap="butt" font-family="DejaVu Sans Mono" stroke-miterlimit="10.0"><path d="M 525.0000,473.2143 c 0.0000,-14.7933 -11.9924,-26.7857 -26.7857 -26.7857c -14.7933,-0.0000 -26.7857,11.9924 -26.7857 26.7857c -0.0000,14.7933 11.9924,26.7857 26.7857 26.7857c 14.7933,0.0000 26.7857,-11.9924 26.7857 -26.7857Z"/></g><g stroke-linejoin="miter" stroke-opacity="1.0" fill-opacity="1.0" font-size="35.714285714285715px" stroke="rgb(0,0,0)" stroke-width="2.1199730456507497" fill="rgb(0,0,0)" stroke-linecap="butt" font-family="DejaVu Sans Mono" stroke-miterlimit="10.0"><text dominant-baseline="middle" transform="matrix(1.0000,0.0000,0.0000,1.0000,498.2143,473.2143)" stroke="none" text-anchor="middle">10</text></g><g stroke-linejoin="miter" stroke-opacity="1.0" fill-opacity="1.0" stroke="rgb(0,0,0)" stroke-width="2.1199730456507497" fill="rgb(255,255,255)" stroke-linecap="butt" font-family="DejaVu Sans Mono" stroke-miterlimit="10.0"><path d="M 435.7143,473.2143 c 0.0000,-14.7933 -11.9924,-26.7857 -26.7857 -26.7857c -14.7933,-0.0000 -26.7857,11.9924 -26.7857 26.7857c -0.0000,14.7933 11.9924,26.7857 26.7857 26.7857c 14.7933,0.0000 26.7857,-11.9924 26.7857 -26.7857Z"/></g><g stroke-linejoin="miter" stroke-opacity="1.0" fill-opacity="1.0" font-size="35.714285714285715px" stroke="rgb(0,0,0)" stroke-width="2.1199730456507497" fill="rgb(0,0,0)" stroke-linecap="butt" font-family="DejaVu Sans Mono" stroke-miterlimit="10.0"><text dominant-baseline="middle" transform="matrix(1.0000,0.0000,0.0000,1.0000,408.9286,473.2143)" stroke="none" text-anchor="middle">9</text></g><g stroke-linejoin="miter" stroke-opacity="1.0" fill-opacity="1.0" stroke="rgb(0,0,0)" stroke-width="2.1199730456507497" fill="rgb(255,255,255)" stroke-linecap="butt" font-family="DejaVu Sans Mono" stroke-miterlimit="10.0"><path d="M 480.3571,330.3571 c 0.0000,-14.7933 -11.9924,-26.7857 -26.7857 -26.7857c -14.7933,-0.0000 -26.7857,11.9924 -26.7857 26.7857c -0.0000,14.7933 11.9924,26.7857 26.7857 26.7857c 14.7933,0.0000 26.7857,-11.9924 26.7857 -26.7857Z"/></g><g stroke-linejoin="miter" stroke-opacity="1.0" fill-opacity="1.0" font-size="35.714285714285715px" stroke="rgb(0,0,0)" stroke-width="2.1199730456507497" fill="rgb(0,0,0)" stroke-linecap="butt" font-family="DejaVu Sans Mono" stroke-miterlimit="10.0"><text dominant-baseline="middle" transform="matrix(1.0000,0.0000,0.0000,1.0000,453.5714,330.3571)" stroke="none" text-anchor="middle">6</text></g><g stroke-linejoin="miter" stroke-opacity="1.0" fill-opacity="0.0" stroke="rgb(0,0,0)" stroke-width="2.1199730456507497" fill="rgb(0,0,0)" stroke-linecap="butt" font-family="DejaVu Sans Mono" stroke-miterlimit="10.0"><path d="M 230.3571,330.3571 l 89.2857,142.8571 "/></g><g stroke-linejoin="miter" stroke-opacity="1.0" fill-opacity="1.0" font-size="35.714285714285715px" stroke="rgb(0,0,0)" stroke-width="2.1199730456507497" fill="rgb(0,0,0)" stroke-linecap="butt" font-family="DejaVu Sans Mono" stroke-miterlimit="10.0"><text dominant-baseline="middle" transform="matrix(1.0000,0.0000,0.0000,1.0000,303.2346,408.9286)" stroke="none" text-anchor="middle">c</text></g><g stroke-linejoin="miter" stroke-opacity="1.0" fill-opacity="0.0" stroke="rgb(0,0,0)" stroke-width="2.1199730456507497" fill="rgb(0,0,0)" stroke-linecap="butt" font-family="DejaVu Sans Mono" stroke-miterlimit="10.0"><path d="M 230.3571,330.3571 v 142.8571 "/></g><g stroke-linejoin="miter" stroke-opacity="1.0" fill-opacity="1.0" font-size="35.714285714285715px" stroke="rgb(0,0,0)" stroke-width="2.1199730456507497" fill="rgb(0,0,0)" stroke-linecap="butt" font-family="DejaVu Sans Mono" stroke-miterlimit="10.0"><text dominant-baseline="middle" transform="matrix(1.0000,0.0000,0.0000,1.0000,244.6429,408.9286)" stroke="none" text-anchor="middle">b</text></g><g stroke-linejoin="miter" stroke-opacity="1.0" fill-opacity="0.0" stroke="rgb(0,0,0)" stroke-width="2.1199730456507497" fill="rgb(0,0,0)" stroke-linecap="butt" font-family="DejaVu Sans Mono" stroke-miterlimit="10.0"><path d="M 230.3571,330.3571 l -89.2857,142.8571 "/></g><g stroke-linejoin="miter" stroke-opacity="1.0" fill-opacity="1.0" font-size="35.714285714285715px" stroke="rgb(0,0,0)" stroke-width="2.1199730456507497" fill="rgb(0,0,0)" stroke-linecap="butt" font-family="DejaVu Sans Mono" stroke-miterlimit="10.0"><text dominant-baseline="middle" transform="matrix(1.0000,0.0000,0.0000,1.0000,157.4797,408.9286)" stroke="none" text-anchor="middle">a</text></g><g stroke-linejoin="miter" stroke-opacity="1.0" fill-opacity="1.0" stroke="rgb(0,0,0)" stroke-width="2.1199730456507497" fill="rgb(255,255,255)" stroke-linecap="butt" font-family="DejaVu Sans Mono" stroke-miterlimit="10.0"><path d="M 346.4286,473.2143 c 0.0000,-14.7933 -11.9924,-26.7857 -26.7857 -26.7857c -14.7933,-0.0000 -26.7857,11.9924 -26.7857 26.7857c -0.0000,14.7933 11.9924,26.7857 26.7857 26.7857c 14.7933,0.0000 26.7857,-11.9924 26.7857 -26.7857Z"/></g><g stroke-linejoin="miter" stroke-opacity="1.0" fill-opacity="1.0" font-size="35.714285714285715px" stroke="rgb(0,0,0)" stroke-width="2.1199730456507497" fill="rgb(0,0,0)" stroke-linecap="butt" font-family="DejaVu Sans Mono" stroke-miterlimit="10.0"><text dominant-baseline="middle" transform="matrix(1.0000,0.0000,0.0000,1.0000,319.6429,473.2143)" stroke="none" text-anchor="middle">8</text></g><g stroke-linejoin="miter" stroke-opacity="1.0" fill-opacity="1.0" stroke="rgb(0,0,0)" stroke-width="2.1199730456507497" fill="rgb(255,255,255)" stroke-linecap="butt" font-family="DejaVu Sans Mono" stroke-miterlimit="10.0"><path d="M 257.1429,473.2143 c 0.0000,-14.7933 -11.9924,-26.7857 -26.7857 -26.7857c -14.7933,-0.0000 -26.7857,11.9924 -26.7857 26.7857c -0.0000,14.7933 11.9924,26.7857 26.7857 26.7857c 14.7933,0.0000 26.7857,-11.9924 26.7857 -26.7857Z"/></g><g stroke-linejoin="miter" stroke-opacity="1.0" fill-opacity="1.0" font-size="35.714285714285715px" stroke="rgb(0,0,0)" stroke-width="2.1199730456507497" fill="rgb(0,0,0)" stroke-linecap="butt" font-family="DejaVu Sans Mono" stroke-miterlimit="10.0"><text dominant-baseline="middle" transform="matrix(1.0000,0.0000,0.0000,1.0000,230.3571,473.2143)" stroke="none" text-anchor="middle">7</text></g><g stroke-linejoin="miter" stroke-opacity="1.0" fill-opacity="1.0" stroke="rgb(0,0,0)" stroke-width="2.1199730456507497" fill="rgb(255,255,255)" stroke-linecap="butt" font-family="DejaVu Sans Mono" stroke-miterlimit="10.0"><path d="M 167.8571,473.2143 c 0.0000,-14.7933 -11.9924,-26.7857 -26.7857 -26.7857c -14.7933,-0.0000 -26.7857,11.9924 -26.7857 26.7857c -0.0000,14.7933 11.9924,26.7857 26.7857 26.7857c 14.7933,0.0000 26.7857,-11.9924 26.7857 -26.7857Z"/></g><g stroke-linejoin="miter" stroke-opacity="1.0" fill-opacity="1.0" font-size="35.714285714285715px" stroke="rgb(0,0,0)" stroke-width="2.1199730456507497" fill="rgb(0,0,0)" stroke-linecap="butt" font-family="DejaVu Sans Mono" stroke-miterlimit="10.0"><text dominant-baseline="middle" transform="matrix(1.0000,0.0000,0.0000,1.0000,141.0714,473.2143)" stroke="none" text-anchor="middle">5</text></g><g stroke-linejoin="miter" stroke-opacity="1.0" fill-opacity="1.0" stroke="rgb(0,0,0)" stroke-width="2.1199730456507497" fill="rgb(255,255,255)" stroke-linecap="butt" font-family="DejaVu Sans Mono" stroke-miterlimit="10.0"><path d="M 239.2857,330.3571 c 0.0000,-4.9311 -3.9975,-8.9286 -8.9286 -8.9286c -4.9311,-0.0000 -8.9286,3.9975 -8.9286 8.9286c -0.0000,4.9311 3.9975,8.9286 8.9286 8.9286c 4.9311,0.0000 8.9286,-3.9975 8.9286 -8.9286Z"/></g><g stroke-linejoin="miter" stroke-opacity="1.0" fill-opacity="1.0" stroke="rgb(0,0,0)" stroke-width="2.1199730456507497" fill="rgb(255,255,255)" stroke-linecap="butt" font-family="DejaVu Sans Mono" stroke-miterlimit="10.0"><path d="M 368.7500,187.5000 c 0.0000,-14.7933 -11.9924,-26.7857 -26.7857 -26.7857c -14.7933,-0.0000 -26.7857,11.9924 -26.7857 26.7857c -0.0000,14.7933 11.9924,26.7857 26.7857 26.7857c 14.7933,0.0000 26.7857,-11.9924 26.7857 -26.7857Z"/></g><g stroke-linejoin="miter" stroke-opacity="1.0" fill-opacity="1.0" font-size="35.714285714285715px" stroke="rgb(0,0,0)" stroke-width="2.1199730456507497" fill="rgb(0,0,0)" stroke-linecap="butt" font-family="DejaVu Sans Mono" stroke-miterlimit="10.0"><text dominant-baseline="middle" transform="matrix(1.0000,0.0000,0.0000,1.0000,341.9643,187.5000)" stroke="none" text-anchor="middle">1</text></g><g stroke-linejoin="miter" stroke-opacity="1.0" fill-opacity="0.0" stroke="rgb(0,0,0)" stroke-width="2.1199730456507497" fill="rgb(0,0,0)" stroke-linecap="butt" font-family="DejaVu Sans Mono" stroke-miterlimit="10.0"><path d="M 96.4286,187.5000 l 44.6429,142.8571 "/></g><g stroke-linejoin="miter" stroke-opacity="1.0" fill-opacity="1.0" font-size="35.714285714285715px" stroke="rgb(0,0,0)" stroke-width="2.1199730456507497" fill="rgb(0,0,0)" stroke-linecap="butt" font-family="DejaVu Sans Mono" stroke-miterlimit="10.0"><text dominant-baseline="middle" transform="matrix(1.0000,0.0000,0.0000,1.0000,138.7149,266.0714)" stroke="none" text-anchor="middle">c</text></g><g stroke-linejoin="miter" stroke-opacity="1.0" fill-opacity="0.0" stroke="rgb(0,0,0)" stroke-width="2.1199730456507497" fill="rgb(0,0,0)" stroke-linecap="butt" font-family="DejaVu Sans Mono" stroke-miterlimit="10.0"><path d="M 96.4286,187.5000 l -44.6429,142.8571 "/></g><g stroke-linejoin="miter" stroke-opacity="1.0" fill-opacity="1.0" font-size="35.714285714285715px" stroke="rgb(0,0,0)" stroke-width="2.1199730456507497" fill="rgb(0,0,0)" stroke-linecap="butt" font-family="DejaVu Sans Mono" stroke-miterlimit="10.0"><text dominant-baseline="middle" transform="matrix(1.0000,0.0000,0.0000,1.0000,54.1423,266.0714)" stroke="none" text-anchor="middle">b</text></g><g stroke-linejoin="miter" stroke-opacity="1.0" fill-opacity="1.0" stroke="rgb(0,0,0)" stroke-width="2.1199730456507497" fill="rgb(255,255,255)" stroke-linecap="butt" font-family="DejaVu Sans Mono" stroke-miterlimit="10.0"><path d="M 167.8571,330.3571 c 0.0000,-14.7933 -11.9924,-26.7857 -26.7857 -26.7857c -14.7933,-0.0000 -26.7857,11.9924 -26.7857 26.7857c -0.0000,14.7933 11.9924,26.7857 26.7857 26.7857c 14.7933,0.0000 26.7857,-11.9924 26.7857 -26.7857Z"/></g><g stroke-linejoin="miter" stroke-opacity="1.0" fill-opacity="1.0" font-size="35.714285714285715px" stroke="rgb(0,0,0)" stroke-width="2.1199730456507497" fill="rgb(0,0,0)" stroke-linecap="butt" font-family="DejaVu Sans Mono" stroke-miterlimit="10.0"><text dominant-baseline="middle" transform="matrix(1.0000,0.0000,0.0000,1.0000,141.0714,330.3571)" stroke="none" text-anchor="middle">4</text></g><g stroke-linejoin="miter" stroke-opacity="1.0" fill-opacity="0.0" stroke="rgb(0,0,0)" stroke-width="2.1199730456507497" fill="rgb(0,0,0)" stroke-linecap="butt" font-family="DejaVu Sans Mono" stroke-miterlimit="10.0"><path d="M 51.7857,330.3571 v 142.8571 "/></g><g stroke-linejoin="miter" stroke-opacity="1.0" fill-opacity="1.0" font-size="35.714285714285715px" stroke="rgb(0,0,0)" stroke-width="2.1199730456507497" fill="rgb(0,0,0)" stroke-linecap="butt" font-family="DejaVu Sans Mono" stroke-miterlimit="10.0"><text dominant-baseline="middle" transform="matrix(1.0000,0.0000,0.0000,1.0000,66.0714,408.9286)" stroke="none" text-anchor="middle">c</text></g><g stroke-linejoin="miter" stroke-opacity="1.0" fill-opacity="1.0" stroke="rgb(0,0,0)" stroke-width="2.1199730456507497" fill="rgb(255,255,255)" stroke-linecap="butt" font-family="DejaVu Sans Mono" stroke-miterlimit="10.0"><path d="M 78.5714,473.2143 c 0.0000,-14.7933 -11.9924,-26.7857 -26.7857 -26.7857c -14.7933,-0.0000 -26.7857,11.9924 -26.7857 26.7857c -0.0000,14.7933 11.9924,26.7857 26.7857 26.7857c 14.7933,0.0000 26.7857,-11.9924 26.7857 -26.7857Z"/></g><g stroke-linejoin="miter" stroke-opacity="1.0" fill-opacity="1.0" font-size="35.714285714285715px" stroke="rgb(0,0,0)" stroke-width="2.1199730456507497" fill="rgb(0,0,0)" stroke-linecap="butt" font-family="DejaVu Sans Mono" stroke-miterlimit="10.0"><text dominant-baseline="middle" transform="matrix(1.0000,0.0000,0.0000,1.0000,51.7857,473.2143)" stroke="none" text-anchor="middle">3</text></g><g stroke-linejoin="miter" stroke-opacity="1.0" fill-opacity="1.0" stroke="rgb(0,0,0)" stroke-width="2.1199730456507497" fill="rgb(255,255,255)" stroke-linecap="butt" font-family="DejaVu Sans Mono" stroke-miterlimit="10.0"><path d="M 78.5714,330.3571 c 0.0000,-14.7933 -11.9924,-26.7857 -26.7857 -26.7857c -14.7933,-0.0000 -26.7857,11.9924 -26.7857 26.7857c -0.0000,14.7933 11.9924,26.7857 26.7857 26.7857c 14.7933,0.0000 26.7857,-11.9924 26.7857 -26.7857Z"/></g><g stroke-linejoin="miter" stroke-opacity="1.0" fill-opacity="1.0" font-size="35.714285714285715px" stroke="rgb(0,0,0)" stroke-width="2.1199730456507497" fill="rgb(0,0,0)" stroke-linecap="butt" font-family="DejaVu Sans Mono" stroke-miterlimit="10.0"><text dominant-baseline="middle" transform="matrix(1.0000,0.0000,0.0000,1.0000,51.7857,330.3571)" stroke="none" text-anchor="middle">2</text></g><g stroke-linejoin="miter" stroke-opacity="1.0" fill-opacity="1.0" stroke="rgb(0,0,0)" stroke-width="2.1199730456507497" fill="rgb(255,255,255)" stroke-linecap="butt" font-family="DejaVu Sans Mono" stroke-miterlimit="10.0"><path d="M 123.2143,187.5000 c 0.0000,-14.7933 -11.9924,-26.7857 -26.7857 -26.7857c -14.7933,-0.0000 -26.7857,11.9924 -26.7857 26.7857c -0.0000,14.7933 11.9924,26.7857 26.7857 26.7857c 14.7933,0.0000 26.7857,-11.9924 26.7857 -26.7857Z"/></g><g stroke-linejoin="miter" stroke-opacity="1.0" fill-opacity="1.0" font-size="35.714285714285715px" stroke="rgb(0,0,0)" stroke-width="2.1199730456507497" fill="rgb(0,0,0)" stroke-linecap="butt" font-family="DejaVu Sans Mono" stroke-miterlimit="10.0"><text dominant-baseline="middle" transform="matrix(1.0000,0.0000,0.0000,1.0000,96.4286,187.5000)" stroke="none" text-anchor="middle">0</text></g><g stroke-linejoin="miter" stroke-opacity="1.0" fill-opacity="1.0" stroke="rgb(0,0,0)" stroke-width="2.1199730456507497" fill="rgb(255,255,255)" stroke-linecap="butt" font-family="DejaVu Sans Mono" stroke-miterlimit="10.0"><path d="M 228.1250,44.6429 c 0.0000,-4.9311 -3.9975,-8.9286 -8.9286 -8.9286c -4.9311,-0.0000 -8.9286,3.9975 -8.9286 8.9286c -0.0000,4.9311 3.9975,8.9286 8.9286 8.9286c 4.9311,0.0000 8.9286,-3.9975 8.9286 -8.9286Z"/></g></svg>