<?xml version="1.0" encoding="UTF-8"?>
<!DOCTYPE svg PUBLIC "-//W3C//DTD SVG 1.1//EN"
    "http://www.w3.org/Graphics/SVG/1.1/DTD/svg11.dtd"><svg xmlns="http://www.w3.org/2000/svg" height="600.0000" stroke-opacity="1" viewBox="0 0 800 600" font-size="1" width="800.0000" xmlns:xlink="http://www.w3.org/1999/xlink" stroke="rgb(0,0,0)" version="1.1"><defs></defs><g stroke-linejoin="bevel" stroke-opacity="0.0" fill-opacity="1.0" stroke="rgb(0,0,0)" stroke-width="0.0" fill="rgb(255,255,255)" stroke-linecap="butt" stroke-miterlimit="10.0"><path d="M 0.0000,0.0000 v 600.0000 h 800.0000 v -600.0000 Z"/></g><g stroke-linejoin="bevel" stroke-opacity="0.0" fill-opacity="1.0" stroke="rgb(0,0,0)" stroke-width="0.0" fill="rgb(5,45,105)" stroke-linecap="butt" stroke-miterlimit="10.0"><defs><clipPath id="myClip1"><path d="M 62.0000,10.0000 v 528.0000 h 725.7731 v -528.0000 Z"/></clipPath></defs><g clip-path="url(#myClip1)"><path d="M 419.8866,538.0000 v -528.0000 h 10.0000 v 528.0000 Z"/></g></g><g stroke-linejoin="bevel" stroke-opacity="0.0" fill-opacity="1.0" stroke="rgb(0,0,0)" stroke-width="0.0" fill="rgb(0,0,0)" stroke-linecap="butt" stroke-miterlimit="10.0"><path d="M 42.0000,287.6134 ZM 19.9496,284.5882 l -0.0000,-6.7563 c -0.0000,-1.8151 0.3361,-3.3277 0.3361 -3.3277c 0.3361,-1.5126 1.0924,-2.5714 1.0924 -2.5714c 0.7563,-1.0588 2.0000,-1.6471 2.0000 -1.6471c 1.2437,-0.5882 3.0588,-0.5882 3.0588 -0.5882c 1.7479,-0.0000 3.0252,0.5882 3.0252 0.5882c 1.2773,0.5882 2.1176,1.6639 2.1176 1.6639c 0.8403,1.0756 1.2605,2.5714 1.2605 2.5714c 0.4202,1.4958 0.4202,3.3109 0.4202 3.3109l 0.0000,3.9664 l 8.7395,-0.0000 l 0.0000,2.7899 l -22.0504,0.0000 ZM 19.9496,284.5882 ZM 30.9748,278.1681 c -0.0000,-2.8908 -1.0924,-4.2857 -1.0924 -4.2857c -1.0924,-1.3950 -3.4454,-1.3950 -3.4454 -1.3950c -2.3866,0.0000 -3.3109,1.4118 -3.3109 1.4118c -0.9244,1.4118 -0.9244,4.2689 -0.9244 4.2689l 0.0000,3.6303 l 8.7731,-0.0000 l -0.0000,-3.6303 ZM 42.0000,268.2521 ZM 47.9160,261.0588 c -3.3613,2.0840 -7.0924,3.2605 -7.0924 3.2605c -3.7311,1.1765 -8.1681,1.1765 -8.1681 1.1765c -4.4370,0.0000 -8.1513,-1.1765 -8.1513 -1.1765c -3.7143,-1.1765 -7.1092,-3.2605 -7.1092 -3.2605l 0.8067,-1.7143 c 3.2269,1.9496 6.9076,2.9076 6.9076 2.9076c 3.6807,0.9580 7.5462,0.9580 7.5462 0.9580c 3.8655,-0.0000 7.5462,-0.9580 7.5462 -0.9580c 3.6807,-0.9580 6.9076,-2.9076 6.9076 -2.9076l 0.8067,1.7143 h 0.0000 ZM 42.0000,258.0672 ZM 33.4622,252.2521 l -7.7983,4.9412 l -0.0000,-2.9916 l 3.5966,-2.1849 c 0.6723,-0.3697 1.3613,-0.7731 1.3613 -0.7731c 0.6891,-0.4034 1.3613,-0.8403 1.3613 -0.8403l -0.0000,-0.1345 c -0.6723,-0.3697 -1.3613,-0.7395 -1.3613 -0.7395c -0.6891,-0.3697 -1.3613,-0.7395 -1.3613 -0.7395l -3.5966,-1.9832 l -0.0000,-2.8908 l 8.1008,4.9412 l 8.2353,-5.3109 l 0.0000,2.9916 l -3.7983,2.3866 l -1.4790,0.8739 c 0.0000,0.0000 -1.4454,0.9076 -1.4454 0.9076l 0.0000,0.1345 c 0.7059,0.4370 1.4286,0.8403 1.4286 0.8403c 0.7227,0.4034 1.4958,0.8067 1.4958 0.8067l 3.7983,2.2185 l 0.0000,2.8908 ZM 42.0000,243.0756 ZM 47.1092,241.7983 c -3.2269,-1.9496 -6.9076,-2.9076 -6.9076 -2.9076c -3.6807,-0.9580 -7.5462,-0.9580 -7.5462 -0.9580c -3.8655,0.0000 -7.5462,0.9580 -7.5462 0.9580c -3.6807,0.9580 -6.9076,2.9076 -6.9076 2.9076l -0.8067,-1.7143 c 3.3950,-2.0840 7.1092,-3.2605 7.1092 -3.2605c 3.7143,-1.1765 8.1513,-1.1765 8.1513 -1.1765c 4.4370,-0.0000 8.1681,1.1765 8.1681 1.1765c 3.7311,1.1765 7.0924,3.2605 7.0924 3.2605l -0.8067,1.7143 h 0.0000 Z"/></g><g stroke-linejoin="miter" stroke-opacity="1.0" fill-opacity="0.0" stroke="rgb(0,0,0)" stroke-width="0.9999999999999997" fill="rgb(0,0,0)" stroke-linecap="square" stroke-miterlimit="10.0"><path d="M 62.0000,538.0000 v -528.0000 "/></g><g stroke-linejoin="miter" stroke-opacity="1.0" fill-opacity="0.0" stroke="rgb(0,0,0)" stroke-width="0.9999999999999997" fill="rgb(0,0,0)" stroke-linecap="square" stroke-miterlimit="10.0"><path d="M 62.0000,538.0000 h 725.7731 "/></g><g stroke-linejoin="bevel" stroke-opacity="0.0" fill-opacity="0.0" stroke="rgb(0,0,0)" stroke-width="0.0" fill="rgb(0,0,0)" stroke-linecap="butt" stroke-miterlimit="10.0"><path d="M 422.6597,558.0000 ZM 423.3424,556.6450 c 0.2941,0.3046 0.6985,0.5357 0.6985 0.5357c 0.4044,0.2311 0.9926,0.2311 0.9926 0.2311c 0.3046,0.0000 0.5725,-0.1103 0.5725 -0.1103c 0.2679,-0.1103 0.4674,-0.3099 0.4674 -0.3099c 0.1996,-0.1996 0.3151,-0.4832 0.3151 -0.4832c 0.1155,-0.2836 0.1155,-0.6303 0.1155 -0.6303c 0.0000,-0.6933 -0.3887,-1.0819 -0.3887 -1.0819c -0.3887,-0.3887 -1.0399,-0.3887 -1.0399 -0.3887c -0.3466,-0.0000 -0.5935,0.1050 -0.5935 0.1050c -0.2468,0.1050 -0.5515,0.3046 -0.5515 0.3046l -0.4622,-0.2941 l 0.2206,-3.2248 h 3.3508 v 0.7458 h -2.5945 l -0.1786,1.9853 c 0.2416,-0.1261 0.4832,-0.1996 0.4832 -0.1996c 0.2416,-0.0735 0.5462,-0.0735 0.5462 -0.0735c 0.4307,0.0000 0.8088,0.1261 0.8088 0.1261c 0.3782,0.1261 0.6618,0.3834 0.6618 0.3834c 0.2836,0.2574 0.4464,0.6513 0.4464 0.6513c 0.1628,0.3939 0.1628,0.9401 0.1628 0.9401c 0.0000,0.5462 -0.1891,0.9664 -0.1891 0.9664c -0.1891,0.4202 -0.5042,0.7090 -0.5042 0.7090c -0.3151,0.2889 -0.7195,0.4412 -0.7195 0.4412c -0.4044,0.1523 -0.8456,0.1523 -0.8456 0.1523c -0.3992,-0.0000 -0.7300,-0.0788 -0.7300 -0.0788c -0.3309,-0.0788 -0.5987,-0.2048 -0.5987 -0.2048c -0.2679,-0.1261 -0.4832,-0.2889 -0.4832 -0.2889c -0.2153,-0.1628 -0.3834,-0.3414 -0.3834 -0.3414Z"/></g><g stroke-linejoin="bevel" stroke-opacity="0.0" fill-opacity="1.0" stroke="rgb(0,0,0)" stroke-width="0.0" fill="rgb(0,0,0)" stroke-linecap="butt" stroke-miterlimit="10.0"><path d="M 417.8613,579.1429 ZM 423.6765,570.6050 l -4.9412,-7.7983 h 2.9916 l 2.1849,3.5966 c 0.3697,0.6723 0.7731,1.3613 0.7731 1.3613c 0.4034,0.6891 0.8403,1.3613 0.8403 1.3613h 0.1345 c 0.3697,-0.6723 0.7395,-1.3613 0.7395 -1.3613c 0.3697,-0.6891 0.7395,-1.3613 0.7395 -1.3613l 1.9832,-3.5966 h 2.8908 l -4.9412,8.1008 l 5.3109,8.2353 h -2.9916 l -2.3866,-3.7983 l -0.8739,-1.4790 c 0.0000,0.0000 -0.9076,-1.4454 -0.9076 -1.4454h -0.1345 c -0.4370,0.7059 -0.8403,1.4286 -0.8403 1.4286c -0.4034,0.7227 -0.8067,1.4958 -0.8067 1.4958l -2.2185,3.7983 h -2.8908 Z"/></g></svg>