<?xml version="1.0" encoding="UTF-8"?>
<!DOCTYPE svg PUBLIC "-//W3C//DTD SVG 1.1//EN"
    "http://www.w3.org/Graphics/SVG/1.1/DTD/svg11.dtd"><svg xmlns="http://www.w3.org/2000/svg" height="600.0000" stroke-opacity="1" viewBox="0 0 800 600" font-size="1" width="800.0000" xmlns:xlink="http://www.w3.org/1999/xlink" stroke="rgb(0,0,0)" version="1.1"><defs></defs><g stroke-linejoin="bevel" stroke-opacity="0.0" fill-opacity="1.0" stroke="rgb(0,0,0)" stroke-width="0.0" fill="rgb(192,217,251)" stroke-linecap="butt" stroke-miterlimit="10.0"><path d="M 0.0000,0.0000 v 600.0000 h 800.0000 v -600.0000 Z"/></g><g stroke-linejoin="bevel" stroke-opacity="0.0" fill-opacity="1.0" stroke="rgb(0,0,0)" stroke-width="0.0" fill="rgb(5,45,105)" stroke-linecap="butt" stroke-miterlimit="10.0"><defs><clipPath id="myClip1"><path d="M 62.0000,10.0000 v 538.0000 h 728.0000 v -538.0000 Z"/></clipPath></defs><g clip-path="url(#myClip1)"><path d="M 101.2667,272.9798 c 0.0000,8.2843 -6.7157,15.0000 -15.0000 15.0000c -8.2843,0.0000 -15.0000,-6.7157 -15.0000 -15.0000c -0.0000,-8.2843 6.7157,-15.0000 15.0000 -15.0000c 8.2843,-0.0000 15.0000,6.7157 15.0000 15.0000Z"/></g></g><g stroke-linejoin="bevel" stroke-opacity="0.0" fill-opacity="0.0" stroke="rgb(0,0,0)" stroke-width="0.0" fill="rgb(0,0,0)" stroke-linecap="butt" stroke-miterlimit="10.0"><defs><clipPath id="myClip2"><path d="M 62.0000,10.0000 v 538.0000 h 728.0000 v -538.0000 Z"/></clipPath></defs><g clip-path="url(#myClip2)"><path d="M 101.2667,272.9798 c 0.0000,8.2843 -6.7157,15.0000 -15.0000 15.0000c -8.2843,0.0000 -15.0000,-6.7157 -15.0000 -15.0000c -0.0000,-8.2843 6.7157,-15.0000 15.0000 -15.0000c 8.2843,-0.0000 15.0000,6.7157 15.0000 15.0000"/></g></g><g stroke-linejoin="bevel" stroke-opacity="0.0" fill-opacity="1.0" stroke="rgb(0,0,0)" stroke-width="0.0" fill="rgb(5,45,105)" stroke-linecap="butt" stroke-miterlimit="10.0"><defs><clipPath id="myClip3"><path d="M 62.0000,10.0000 v 538.0000 h 728.0000 v -538.0000 Z"/></clipPath></defs><g clip-path="url(#myClip3)"><path d="M 259.0000,251.8321 c 0.0000,8.2843 -6.7157,15.0000 -15.0000 15.0000c -8.2843,0.0000 -15.0000,-6.7157 -15.0000 -15.0000c -0.0000,-8.2843 6.7157,-15.0000 15.0000 -15.0000c 8.2843,-0.0000 15.0000,6.7157 15.0000 15.0000Z"/></g></g><g stroke-linejoin="bevel" stroke-opacity="0.0" fill-opacity="0.0" stroke="rgb(0,0,0)" stroke-width="0.0" fill="rgb(0,0,0)" stroke-linecap="butt" stroke-miterlimit="10.0"><defs><clipPath id="myClip4"><path d="M 62.0000,10.0000 v 538.0000 h 728.0000 v -538.0000 Z"/></clipPath></defs><g clip-path="url(#myClip4)"><path d="M 259.0000,251.8321 c 0.0000,8.2843 -6.7157,15.0000 -15.0000 15.0000c -8.2843,0.0000 -15.0000,-6.7157 -15.0000 -15.0000c -0.0000,-8.2843 6.7157,-15.0000 15.0000 -15.0000c 8.2843,-0.0000 15.0000,6.7157 15.0000 15.0000"/></g></g><g stroke-linejoin="bevel" stroke-opacity="0.0" fill-opacity="1.0" stroke="rgb(0,0,0)" stroke-width="0.0" fill="rgb(5,45,105)" stroke-linecap="butt" stroke-miterlimit="10.0"><defs><clipPath id="myClip5"><path d="M 62.0000,10.0000 v 538.0000 h 728.0000 v -538.0000 Z"/></clipPath></defs><g clip-path="url(#myClip5)"><path d="M 343.9333,301.0816 c 0.0000,8.2843 -6.7157,15.0000 -15.0000 15.0000c -8.2843,0.0000 -15.0000,-6.7157 -15.0000 -15.0000c -0.0000,-8.2843 6.7157,-15.0000 15.0000 -15.0000c 8.2843,-0.0000 15.0000,6.7157 15.0000 15.0000Z"/></g></g><g stroke-linejoin="bevel" stroke-opacity="0.0" fill-opacity="0.0" stroke="rgb(0,0,0)" stroke-width="0.0" fill="rgb(0,0,0)" stroke-linecap="butt" stroke-miterlimit="10.0"><defs><clipPath id="myClip6"><path d="M 62.0000,10.0000 v 538.0000 h 728.0000 v -538.0000 Z"/></clipPath></defs><g clip-path="url(#myClip6)"><path d="M 343.9333,301.0816 c 0.0000,8.2843 -6.7157,15.0000 -15.0000 15.0000c -8.2843,0.0000 -15.0000,-6.7157 -15.0000 -15.0000c -0.0000,-8.2843 6.7157,-15.0000 15.0000 -15.0000c 8.2843,-0.0000 15.0000,6.7157 15.0000 15.0000"/></g></g><g stroke-linejoin="bevel" stroke-opacity="0.0" fill-opacity="1.0" stroke="rgb(0,0,0)" stroke-width="0.0" fill="rgb(5,45,105)" stroke-linecap="butt" stroke-miterlimit="10.0"><defs><clipPath id="myClip7"><path d="M 62.0000,10.0000 v 538.0000 h 728.0000 v -538.0000 Z"/></clipPath></defs><g clip-path="url(#myClip7)"><path d="M 441.0000,200.1706 c 0.0000,8.2843 -6.7157,15.0000 -15.0000 15.0000c -8.2843,0.0000 -15.0000,-6.7157 -15.0000 -15.0000c -0.0000,-8.2843 6.7157,-15.0000 15.0000 -15.0000c 8.2843,-0.0000 15.0000,6.7157 15.0000 15.0000Z"/></g></g><g stroke-linejoin="bevel" stroke-opacity="0.0" fill-opacity="0.0" stroke="rgb(0,0,0)" stroke-width="0.0" fill="rgb(0,0,0)" stroke-linecap="butt" stroke-miterlimit="10.0"><defs><clipPath id="myClip8"><path d="M 62.0000,10.0000 v 538.0000 h 728.0000 v -538.0000 Z"/></clipPath></defs><g clip-path="url(#myClip8)"><path d="M 441.0000,200.1706 c 0.0000,8.2843 -6.7157,15.0000 -15.0000 15.0000c -8.2843,0.0000 -15.0000,-6.7157 -15.0000 -15.0000c -0.0000,-8.2843 6.7157,-15.0000 15.0000 -15.0000c 8.2843,-0.0000 15.0000,6.7157 15.0000 15.0000"/></g></g><g stroke-linejoin="bevel" stroke-opacity="0.0" fill-opacity="1.0" stroke="rgb(0,0,0)" stroke-width="0.0" fill="rgb(5,45,105)" stroke-linecap="butt" stroke-miterlimit="10.0"><defs><clipPath id="myClip9"><path d="M 62.0000,10.0000 v 538.0000 h 728.0000 v -538.0000 Z"/></clipPath></defs><g clip-path="url(#myClip9)"><path d="M 525.9333,268.7865 c 0.0000,8.2843 -6.7157,15.0000 -15.0000 15.0000c -8.2843,0.0000 -15.0000,-6.7157 -15.0000 -15.0000c -0.0000,-8.2843 6.7157,-15.0000 15.0000 -15.0000c 8.2843,-0.0000 15.0000,6.7157 15.0000 15.0000Z"/></g></g><g stroke-linejoin="bevel" stroke-opacity="0.0" fill-opacity="0.0" stroke="rgb(0,0,0)" stroke-width="0.0" fill="rgb(0,0,0)" stroke-linecap="butt" stroke-miterlimit="10.0"><defs><clipPath id="myClip10"><path d="M 62.0000,10.0000 v 538.0000 h 728.0000 v -538.0000 Z"/></clipPath></defs><g clip-path="url(#myClip10)"><path d="M 525.9333,268.7865 c 0.0000,8.2843 -6.7157,15.0000 -15.0000 15.0000c -8.2843,0.0000 -15.0000,-6.7157 -15.0000 -15.0000c -0.0000,-8.2843 6.7157,-15.0000 15.0000 -15.0000c 8.2843,-0.0000 15.0000,6.7157 15.0000 15.0000"/></g></g><g stroke-linejoin="bevel" stroke-opacity="0.0" fill-opacity="1.0" stroke="rgb(0,0,0)" stroke-width="0.0" fill="rgb(5,45,105)" stroke-linecap="butt" stroke-miterlimit="10.0"><defs><clipPath id="myClip11"><path d="M 62.0000,10.0000 v 538.0000 h 728.0000 v -538.0000 Z"/></clipPath></defs><g clip-path="url(#myClip11)"><path d="M 586.6000,382.7282 c 0.0000,8.2843 -6.7157,15.0000 -15.0000 15.0000c -8.2843,0.0000 -15.0000,-6.7157 -15.0000 -15.0000c -0.0000,-8.2843 6.7157,-15.0000 15.0000 -15.0000c 8.2843,-0.0000 15.0000,6.7157 15.0000 15.0000Z"/></g></g><g stroke-linejoin="bevel" stroke-opacity="0.0" fill-opacity="0.0" stroke="rgb(0,0,0)" stroke-width="0.0" fill="rgb(0,0,0)" stroke-linecap="butt" stroke-miterlimit="10.0"><defs><clipPath id="myClip12"><path d="M 62.0000,10.0000 v 538.0000 h 728.0000 v -538.0000 Z"/></clipPath></defs><g clip-path="url(#myClip12)"><path d="M 586.6000,382.7282 c 0.0000,8.2843 -6.7157,15.0000 -15.0000 15.0000c -8.2843,0.0000 -15.0000,-6.7157 -15.0000 -15.0000c -0.0000,-8.2843 6.7157,-15.0000 15.0000 -15.0000c 8.2843,-0.0000 15.0000,6.7157 15.0000 15.0000"/></g></g><g stroke-linejoin="bevel" stroke-opacity="0.0" fill-opacity="1.0" stroke="rgb(0,0,0)" stroke-width="0.0" fill="rgb(5,45,105)" stroke-linecap="butt" stroke-miterlimit="10.0"><defs><clipPath id="myClip13"><path d="M 62.0000,10.0000 v 538.0000 h 728.0000 v -538.0000 Z"/></clipPath></defs><g clip-path="url(#myClip13)"><path d="M 683.6667,340.7727 c 0.0000,8.2843 -6.7157,15.0000 -15.0000 15.0000c -8.2843,0.0000 -15.0000,-6.7157 -15.0000 -15.0000c -0.0000,-8.2843 6.7157,-15.0000 15.0000 -15.0000c 8.2843,-0.0000 15.0000,6.7157 15.0000 15.0000Z"/></g></g><g stroke-linejoin="bevel" stroke-opacity="0.0" fill-opacity="0.0" stroke="rgb(0,0,0)" stroke-width="0.0" fill="rgb(0,0,0)" stroke-linecap="butt" stroke-miterlimit="10.0"><defs><clipPath id="myClip14"><path d="M 62.0000,10.0000 v 538.0000 h 728.0000 v -538.0000 Z"/></clipPath></defs><g clip-path="url(#myClip14)"><path d="M 683.6667,340.7727 c 0.0000,8.2843 -6.7157,15.0000 -15.0000 15.0000c -8.2843,0.0000 -15.0000,-6.7157 -15.0000 -15.0000c -0.0000,-8.2843 6.7157,-15.0000 15.0000 -15.0000c 8.2843,-0.0000 15.0000,6.7157 15.0000 15.0000"/></g></g><g stroke-linejoin="bevel" stroke-opacity="0.0" fill-opacity="1.0" stroke="rgb(0,0,0)" stroke-width="0.0" fill="rgb(5,45,105)" stroke-linecap="butt" stroke-miterlimit="10.0"><defs><clipPath id="myClip15"><path d="M 62.0000,10.0000 v 538.0000 h 728.0000 v -538.0000 Z"/></clipPath></defs><g clip-path="url(#myClip15)"><path d="M 780.7333,260.7615 c 0.0000,8.2843 -6.7157,15.0000 -15.0000 15.0000c -8.2843,0.0000 -15.0000,-6.7157 -15.0000 -15.0000c -0.0000,-8.2843 6.7157,-15.0000 15.0000 -15.0000c 8.2843,-0.0000 15.0000,6.7157 15.0000 15.0000Z"/></g></g><g stroke-linejoin="bevel" stroke-opacity="0.0" fill-opacity="0.0" stroke="rgb(0,0,0)" stroke-width="0.0" fill="rgb(0,0,0)" stroke-linecap="butt" stroke-miterlimit="10.0"><defs><clipPath id="myClip16"><path d="M 62.0000,10.0000 v 538.0000 h 728.0000 v -538.0000 Z"/></clipPath></defs><g clip-path="url(#myClip16)"><path d="M 780.7333,260.7615 c 0.0000,8.2843 -6.7157,15.0000 -15.0000 15.0000c -8.2843,0.0000 -15.0000,-6.7157 -15.0000 -15.0000c -0.0000,-8.2843 6.7157,-15.0000 15.0000 -15.0000c 8.2843,-0.0000 15.0000,6.7157 15.0000 15.0000"/></g></g><g stroke-linejoin="bevel" stroke-opacity="0.0" fill-opacity="1.0" stroke="rgb(0,0,0)" stroke-width="0.0" fill="rgb(5,45,105)" stroke-linecap="butt" stroke-miterlimit="10.0"><defs><clipPath id="myClip17"><path d="M 62.0000,10.0000 v 538.0000 h 728.0000 v -538.0000 Z"/></clipPath></defs><g clip-path="url(#myClip17)"><path d="M 902.0667,253.3889 c 0.0000,8.2843 -6.7157,15.0000 -15.0000 15.0000c -8.2843,0.0000 -15.0000,-6.7157 -15.0000 -15.0000c -0.0000,-8.2843 6.7157,-15.0000 15.0000 -15.0000c 8.2843,-0.0000 15.0000,6.7157 15.0000 15.0000Z"/></g></g><g stroke-linejoin="bevel" stroke-opacity="0.0" fill-opacity="0.0" stroke="rgb(0,0,0)" stroke-width="0.0" fill="rgb(0,0,0)" stroke-linecap="butt" stroke-miterlimit="10.0"><defs><clipPath id="myClip18"><path d="M 62.0000,10.0000 v 538.0000 h 728.0000 v -538.0000 Z"/></clipPath></defs><g clip-path="url(#myClip18)"><path d="M 902.0667,253.3889 c 0.0000,8.2843 -6.7157,15.0000 -15.0000 15.0000c -8.2843,0.0000 -15.0000,-6.7157 -15.0000 -15.0000c -0.0000,-8.2843 6.7157,-15.0000 15.0000 -15.0000c 8.2843,-0.0000 15.0000,6.7157 15.0000 15.0000"/></g></g><g stroke-linejoin="bevel" stroke-opacity="0.0" fill-opacity="1.0" stroke="rgb(0,0,0)" stroke-width="0.0" fill="rgb(0,0,0)" stroke-linecap="butt" stroke-miterlimit="10.0"><path d="M 42.0000,305.1849 ZM 25.6639,304.7815 l -0.0000,-2.8571 l 9.2773,-3.0924 c 1.2101,-0.3697 2.4202,-0.7563 2.4202 -0.7563c 1.2101,-0.3866 2.3866,-0.7563 2.3866 -0.7563l -0.0000,-0.1345 c -1.1765,-0.3697 -2.3866,-0.7395 -2.3866 -0.7395l -2.4202,-0.7395 l -9.2773,-3.0924 l -0.0000,-2.7227 l 16.3361,5.7815 l 0.0000,3.2269 ZM 42.0000,290.1597 ZM 37.7647,288.2101 c -2.6891,0.0000 -4.1176,-2.4034 -4.1176 -2.4034c -1.4286,-2.4034 -2.0000,-7.6471 -2.0000 -7.6471c -0.7731,0.0000 -1.5126,0.1513 -1.5126 0.1513c -0.7395,0.1513 -1.3109,0.5378 -1.3109 0.5378c -0.5714,0.3866 -0.9244,1.0252 -0.9244 1.0252c -0.3529,0.6387 -0.3529,1.6471 -0.3529 1.6471c 0.0000,1.4454 0.5378,2.6723 0.5378 2.6723c 0.5378,1.2269 1.2101,2.2017 1.2101 2.2017l -1.9160,1.1092 c -0.7395,-1.1429 -1.4286,-2.7899 -1.4286 -2.7899c -0.6891,-1.6471 -0.6891,-3.6303 -0.6891 -3.6303c -0.0000,-2.9916 1.8319,-4.3361 1.8319 -4.3361c 1.8319,-1.3445 4.8908,-1.3445 4.8908 -1.3445l 10.0168,-0.0000 l 0.0000,2.2857 l -1.9496,0.2353 l 0.0000,0.0672 c 0.9748,1.1765 1.6639,2.5378 1.6639 2.5378c 0.6891,1.3613 0.6891,2.8739 0.6891 2.8739c 0.0000,2.0840 -1.2101,3.4454 -1.2101 3.4454c -1.2101,1.3613 -3.4286,1.3613 -3.4286 1.3613ZM 37.7647,288.2101 ZM 37.5630,285.4874 c 1.4118,-0.0000 2.0168,-0.8235 2.0168 -0.8235c 0.6050,-0.8235 0.6050,-2.0336 0.6050 -2.0336c -0.0000,-1.1765 -0.5546,-2.2353 -0.5546 -2.2353c -0.5546,-1.0588 -1.6303,-2.2353 -1.6303 -2.2353l -4.5378,0.0000 c 0.2689,2.0504 0.6387,3.4622 0.6387 3.4622c 0.3697,1.4118 0.8739,2.2689 0.8739 2.2689c 0.5042,0.8571 1.1597,1.2269 1.1597 1.2269c 0.6555,0.3697 1.4286,0.3697 1.4286 0.3697ZM 42.0000,272.9496 ZM 18.0672,270.1933 l -0.0000,-2.7563 l 20.8403,-0.0000 c 0.6723,-0.0000 0.9412,-0.2353 0.9412 -0.2353c 0.2689,-0.2353 0.2689,-0.5378 0.2689 -0.5378l -0.0000,-0.2521 c 0.0000,0.0000 -0.0672,-0.3529 -0.0672 -0.3529l 2.0840,-0.3697 c 0.1345,0.2689 0.2017,0.6387 0.2017 0.6387c 0.0672,0.3697 0.0672,0.9412 0.0672 0.9412c 0.0000,1.5798 -0.9412,2.2521 -0.9412 2.2521c -0.9412,0.6723 -2.7563,0.6723 -2.7563 0.6723l -20.6387,0.0000 ZM 42.0000,264.3782 ZM 25.6639,261.8571 l -0.0000,-2.7899 l 9.9832,-0.0000 c 2.3193,-0.0000 3.3445,-0.7227 3.3445 -0.7227c 1.0252,-0.7227 1.0252,-2.3361 1.0252 -2.3361c -0.0000,-1.2773 -0.6555,-2.2521 -0.6555 -2.2521c -0.6555,-0.9748 -2.1008,-2.1513 -2.1008 -2.1513l -11.5966,0.0000 l -0.0000,-2.7563 l 16.3361,-0.0000 l 0.0000,2.2857 l -2.5546,0.2353 l 0.0000,0.1008 c 1.3445,1.1429 2.1513,2.4034 2.1513 2.4034c 0.8067,1.2605 0.8067,2.9748 0.8067 2.9748c 0.0000,2.6218 -1.6134,3.8151 -1.6134 3.8151c -1.6134,1.1933 -4.7731,1.1933 -4.7731 1.1933l -10.3529,0.0000 ZM 42.0000,246.0924 ZM 33.8655,244.5462 c -2.0168,0.0000 -3.6134,-0.6218 -3.6134 -0.6218c -1.5966,-0.6218 -2.7059,-1.6471 -2.7059 -1.6471c -1.1092,-1.0252 -1.6975,-2.3361 -1.6975 -2.3361c -0.5882,-1.3109 -0.5882,-2.7227 -0.5882 -2.7227c -0.0000,-1.5462 0.5378,-2.7731 0.5378 -2.7731c 0.5378,-1.2269 1.5462,-2.0504 1.5462 -2.0504c 1.0084,-0.8235 2.4202,-1.2605 2.4202 -1.2605c 1.4118,-0.4370 3.1597,-0.4370 3.1597 -0.4370c 0.9076,-0.0000 1.5126,0.1008 1.5126 0.1008l 0.0000,11.0252 c 2.6555,-0.1681 4.2017,-1.6303 4.2017 -1.6303c 1.5462,-1.4622 1.5462,-3.8151 1.5462 -3.8151c -0.0000,-1.1765 -0.3529,-2.1681 -0.3529 -2.1681c -0.3529,-0.9916 -0.9244,-1.8992 -0.9244 -1.8992l 1.8151,-0.9748 c 0.6723,1.0756 1.1765,2.3866 1.1765 2.3866c 0.5042,1.3109 0.5042,2.9916 0.5042 2.9916c 0.0000,1.6471 -0.5882,3.0756 -0.5882 3.0756c -0.5882,1.4286 -1.6807,2.4874 -1.6807 2.4874c -1.0924,1.0588 -2.6723,1.6639 -2.6723 1.6639c -1.5798,0.6050 -3.5966,0.6050 -3.5966 0.6050ZM 33.8655,244.5462 ZM 32.6218,233.1176 c -2.5210,0.0000 -3.8487,1.0588 -3.8487 1.0588c -1.3277,1.0588 -1.3277,2.9748 -1.3277 2.9748c 0.0000,0.8739 0.3529,1.6639 0.3529 1.6639c 0.3529,0.7899 1.0084,1.4286 1.0084 1.4286c 0.6555,0.6387 1.6134,1.0588 1.6134 1.0588c 0.9580,0.4202 2.2017,0.5546 2.2017 0.5546l -0.0000,-8.7395 Z"/></g><g stroke-linejoin="miter" stroke-opacity="1.0" fill-opacity="0.0" stroke="rgb(0,0,0)" stroke-width="0.9999999999999997" fill="rgb(0,0,0)" stroke-linecap="square" stroke-miterlimit="10.0"><path d="M 62.0000,548.0000 v -538.0000 "/></g><g stroke-linejoin="miter" stroke-opacity="1.0" fill-opacity="0.0" stroke="rgb(0,0,0)" stroke-width="0.9999999999999997" fill="rgb(0,0,0)" stroke-linecap="square" stroke-miterlimit="10.0"><path d="M 62.0000,548.0000 h 728.0000 "/></g><g stroke-linejoin="bevel" stroke-opacity="0.0" fill-opacity="1.0" stroke="rgb(0,0,0)" stroke-width="0.0" fill="rgb(0,0,0)" stroke-linecap="butt" stroke-miterlimit="10.0"><path d="M 394.9580,579.1429 ZM 398.1849,565.0588 h -2.4202 v -2.0840 l 2.5546,-0.1681 l 0.3361,-4.5714 h 2.3193 v 4.5714 h 4.4034 v 2.2521 h -4.4034 v 9.0756 c 0.0000,1.5126 0.5546,2.3361 0.5546 2.3361c 0.5546,0.8235 1.9664,0.8235 1.9664 0.8235c 0.4370,0.0000 0.9412,-0.1345 0.9412 -0.1345c 0.5042,-0.1345 0.9076,-0.3025 0.9076 -0.3025l 0.5378,2.0840 c -0.6723,0.2353 -1.4622,0.4202 -1.4622 0.4202c -0.7899,0.1849 -1.5630,0.1849 -1.5630 0.1849c -1.3109,-0.0000 -2.2017,-0.4034 -2.2017 -0.4034c -0.8908,-0.4034 -1.4454,-1.1092 -1.4454 -1.1092c -0.5546,-0.7059 -0.7899,-1.7143 -0.7899 -1.7143c -0.2353,-1.0084 -0.2353,-2.2185 -0.2353 -2.2185v -9.0420 ZM 406.3193,579.1429 ZM 410.4874,559.4454 c -0.8067,-0.0000 -1.3613,-0.5042 -1.3613 -0.5042c -0.5546,-0.5042 -0.5546,-1.2773 -0.5546 -1.2773c 0.0000,-0.8067 0.5546,-1.2941 0.5546 -1.2941c 0.5546,-0.4874 1.3613,-0.4874 1.3613 -0.4874c 0.8067,0.0000 1.3613,0.4874 1.3613 0.4874c 0.5546,0.4874 0.5546,1.2941 0.5546 1.2941c 0.0000,0.7731 -0.5546,1.2773 -0.5546 1.2773c -0.5546,0.5042 -1.3613,0.5042 -1.3613 0.5042ZM 410.4874,559.4454 ZM 409.0756,562.8067 h 2.7563 v 16.3361 h -2.7563 v -16.3361 ZM 414.5882,579.1429 ZM 417.3445,562.8067 h 2.2857 l 0.2353,2.3529 h 0.1008 c 1.0756,-1.1765 2.3361,-1.9664 2.3361 -1.9664c 1.2605,-0.7899 2.7395,-0.7899 2.7395 -0.7899c 1.8824,0.0000 2.9412,0.8235 2.9412 0.8235c 1.0588,0.8235 1.5630,2.3025 1.5630 2.3025c 1.2773,-1.4118 2.5714,-2.2689 2.5714 -2.2689c 1.2941,-0.8571 2.8067,-0.8571 2.8067 -0.8571c 2.5210,0.0000 3.7479,1.6134 3.7479 1.6134c 1.2269,1.6134 1.2269,4.7731 1.2269 4.7731v 10.3529 h -2.7563 v -9.9832 c 0.0000,-2.3193 -0.7395,-3.3445 -0.7395 -3.3445c -0.7395,-1.0252 -2.2857,-1.0252 -2.2857 -1.0252c -1.8487,-0.0000 -4.1008,2.5210 -4.1008 2.5210v 11.8319 h -2.7563 v -9.9832 c 0.0000,-2.3193 -0.7395,-3.3445 -0.7395 -3.3445c -0.7395,-1.0252 -2.3193,-1.0252 -2.3193 -1.0252c -1.8487,-0.0000 -4.1008,2.5210 -4.1008 2.5210v 11.8319 h -2.7563 v -16.3361 ZM 442.4538,579.1429 ZM 444.0000,571.0084 c 0.0000,-2.0168 0.6218,-3.6134 0.6218 -3.6134c 0.6218,-1.5966 1.6471,-2.7059 1.6471 -2.7059c 1.0252,-1.1092 2.3361,-1.6975 2.3361 -1.6975c 1.3109,-0.5882 2.7227,-0.5882 2.7227 -0.5882c 1.5462,0.0000 2.7731,0.5378 2.7731 0.5378c 1.2269,0.5378 2.0504,1.5462 2.0504 1.5462c 0.8235,1.0084 1.2605,2.4202 1.2605 2.4202c 0.4370,1.4118 0.4370,3.1597 0.4370 3.1597c 0.0000,0.9076 -0.1008,1.5126 -0.1008 1.5126h -11.0252 c 0.1681,2.6555 1.6303,4.2017 1.6303 4.2017c 1.4622,1.5462 3.8151,1.5462 3.8151 1.5462c 1.1765,0.0000 2.1681,-0.3529 2.1681 -0.3529c 0.9916,-0.3529 1.8992,-0.9244 1.8992 -0.9244l 0.9748,1.8151 c -1.0756,0.6723 -2.3866,1.1765 -2.3866 1.1765c -1.3109,0.5042 -2.9916,0.5042 -2.9916 0.5042c -1.6471,-0.0000 -3.0756,-0.5882 -3.0756 -0.5882c -1.4286,-0.5882 -2.4874,-1.6807 -2.4874 -1.6807c -1.0588,-1.0924 -1.6639,-2.6723 -1.6639 -2.6723c -0.6050,-1.5798 -0.6050,-3.5966 -0.6050 -3.5966ZM 444.0000,571.0084 ZM 455.4286,569.7647 c 0.0000,-2.5210 -1.0588,-3.8487 -1.0588 -3.8487c -1.0588,-1.3277 -2.9748,-1.3277 -2.9748 -1.3277c -0.8739,-0.0000 -1.6639,0.3529 -1.6639 0.3529c -0.7899,0.3529 -1.4286,1.0084 -1.4286 1.0084c -0.6387,0.6555 -1.0588,1.6134 -1.0588 1.6134c -0.4202,0.9580 -0.5546,2.2017 -0.5546 2.2017h 8.7395 Z"/></g></svg>