<?xml version="1.0" encoding="UTF-8"?>
<!DOCTYPE svg PUBLIC "-//W3C//DTD SVG 1.1//EN"
    "http://www.w3.org/Graphics/SVG/1.1/DTD/svg11.dtd"><svg xmlns="http://www.w3.org/2000/svg" height="720.0000" stroke-opacity="1" viewBox="0 0 1200 720" font-size="1" width="1200.0000" xmlns:xlink="http://www.w3.org/1999/xlink" stroke="rgb(0,0,0)" version="1.1"><defs></defs><g stroke-linejoin="miter" stroke-opacity="1.0" fill-opacity="1.0" stroke="rgb(255,255,255)" stroke-width="3.71806401235912" fill="rgb(255,255,255)" stroke-linecap="butt" stroke-miterlimit="10.0"><path d="M 1200.0000,720.0000 l -0.0000,-720.0000 h -1200.0000 l -0.0000,720.0000 Z"/></g><g stroke-linejoin="miter" stroke-opacity="1.0" fill-opacity="1.0" stroke="rgb(5,45,105)" stroke-width="5.0" fill="rgb(192,217,251)" stroke-linecap="butt" stroke-miterlimit="10.0"><path d="M 708.0000,576.0000 l -0.0000,-96.0000 h -192.0000 l -0.0000,96.0000 Z"/></g><g stroke-linejoin="miter" stroke-opacity="1.0" fill-opacity="1.0" stroke="rgb(5,45,105)" stroke-width="0.0" fill="rgb(5,45,105)" stroke-linecap="butt" stroke-miterlimit="10.0"><path d="M 565.9303,539.5821 ZM 568.9950,513.8706 h 16.8358 c 0.8358,-0.0000 0.8756,-0.6766 0.8756 -0.9154l 1.0348,-0.1592 c 0.1592,1.9502 0.4378,4.0199 0.8756 6.1294l -1.1542,0.1990 c -0.7960,-3.1841 -1.3532,-3.6617 -3.5423 -3.6617h -2.6269 c -1.4328,-0.0000 -1.9104,0.3184 -1.9104 1.6716v 19.5821 c 0.0000,1.2338 0.6368,1.7512 2.1891 1.7512h 1.0348 c 0.1990,-0.0000 0.3582,0.1194 0.3582 0.3184v 0.7562 l -0.0796,0.0796 c 0.0000,-0.0000 -3.5025,-0.0796 -5.0547 -0.0796c -1.3930,-0.0000 -5.0945,0.0796 -5.0945 0.0796l -0.0796,-0.0796 v -0.7562 c 0.0000,-0.1990 0.1194,-0.3184 0.3184 -0.3184h 1.0348 c 1.6318,-0.0000 2.1891,-0.6368 2.1891 -1.7512v -19.7015 c 0.0000,-1.2338 -0.4776,-1.5522 -1.9502 -1.5522h -3.3433 c -2.1891,-0.0000 -2.7065,0.4776 -3.5025 3.6617l -1.1940,-0.1990 c 0.4776,-2.1095 0.7164,-4.1791 0.8756 -6.1294l 1.0746,0.1592 c 0.0000,0.2388 0.0000,0.9154 0.8358 0.9154ZM 586.9453,539.5821 ZM 595.2239,523.2637 c 0.0000,0.1990 -0.2388,0.3184 -0.4378 0.3184c -1.1940,-0.0000 -1.7114,0.2388 -1.7114 0.8756c 0.0000,0.2388 0.0796,0.5572 0.2388 0.9154l 4.3781,10.2687 l 4.4179,-10.1095 c 0.1990,-0.3582 0.2786,-0.6766 0.2786 -0.9154c 0.0000,-0.8358 -0.7960,-1.0348 -1.6716 -1.0348h -0.1592 c -0.1990,-0.0000 -0.3980,-0.1592 -0.3980 -0.2786v -0.7562 l 0.0796,-0.1194 c 0.0000,-0.0000 2.3483,0.0796 3.7413 0.0796c 1.1144,-0.0000 2.7463,-0.0796 2.7463 -0.0796l 0.1194,0.0796 v 0.7562 c 0.0000,0.1990 -0.1592,0.3184 -0.4378 0.3184c -1.5124,-0.0000 -2.2687,1.5522 -2.8259 2.7065c -2.1095,4.4577 -3.8607,8.5572 -7.0448 16.2388c -1.1940,2.8657 -2.6269,6.2090 -5.4527 6.2090c -0.7562,-0.0000 -2.3085,-0.4378 -2.3085 -1.8706c 0.0000,-1.1940 0.8756,-1.5522 1.5124 -1.5522c 0.5970,-0.0000 0.9950,0.2388 1.2338 0.5572c 0.3980,0.3980 0.6766,0.6766 1.0746 0.6766c 0.5970,-0.0000 1.9900,-3.4229 2.9851 -5.8507c 0.2388,-0.4776 0.3184,-0.8756 0.3184 -1.2338c 0.0000,-0.3980 -0.3582,-1.4726 -0.6766 -2.2687l -5.0149,-11.6617 c -0.6368,-1.5124 -1.0746,-1.9502 -2.4279 -1.9502c -0.2388,-0.0000 -0.3980,-0.1194 -0.3980 -0.2786v -0.7960 l 0.0796,-0.0796 c 0.0000,-0.0000 1.7512,0.0796 2.9453 0.0796c 1.8706,-0.0000 4.7363,-0.0796 4.7363 -0.0796l 0.0796,0.1194 v 0.7164 ZM 607.2040,539.5821 ZM 613.1343,527.0846 v 9.9104 c 1.3930,1.6318 2.7065,1.7114 3.3433 1.7114c 4.2587,-0.0000 5.2139,-3.9801 5.2139 -7.4030c 0.0000,-4.8159 -1.9502,-7.4826 -4.3781 -7.4826c -1.3532,-0.0000 -3.3035,1.1542 -4.1791 3.2637ZM 613.1343,527.0846 ZM 610.1891,545.8706 v -19.7015 c 0.0000,-1.5124 -0.3582,-1.7910 -0.9154 -1.7910c -0.5174,-0.0000 -0.9950,0.0398 -1.6716 0.1990l -0.1990,-1.1144 c 2.5473,-0.4378 3.0249,-0.5970 4.1393 -1.1542c 0.4378,-0.1990 0.7164,-0.3184 0.9950 -0.3184h 0.5970 l -0.1194,3.1841 h 0.1194 c 1.8308,-2.7861 3.9801,-3.1841 5.2537 -3.1841c 3.8607,-0.0000 6.4080,4.0199 6.4080 8.2388c 0.0000,3.2239 -0.9950,5.6915 -2.7861 7.5224c -1.5522,1.5522 -3.1841,2.3085 -5.2935 2.3085c -1.4328,-0.0000 -2.5473,-0.3184 -3.5821 -0.8756v 6.6866 c 0.0000,1.1542 0.4378,1.7512 1.7114 1.7512h 0.7562 c 0.1990,-0.0000 0.3582,0.1194 0.3582 0.3184v 0.7562 l -0.0796,0.0796 c 0.0000,-0.0000 -2.7463,-0.0796 -4.2985 -0.0796c -1.3930,-0.0000 -4.0995,0.0796 -4.0995 0.0796l -0.0796,-0.0796 v -0.7562 c 0.0000,-0.1990 0.1194,-0.3184 0.3184 -0.3184h 0.7562 c 1.3134,-0.0000 1.7114,-0.5970 1.7114 -1.7512ZM 626.2687,539.5821 ZM 630.8060,528.5572 h 7.3234 c 0.3980,-0.0000 0.5572,-0.1990 0.5572 -0.5572c 0.0000,-3.7015 -1.8706,-4.6567 -3.3035 -4.6567c -0.9154,-0.0000 -3.9005,0.3582 -4.5771 5.2139ZM 630.8060,528.5572 ZM 641.3134,535.8806 l 0.7960,0.6368 c -1.5124,2.0697 -3.8607,3.5423 -6.7264 3.5423c -5.4527,-0.0000 -7.7612,-4.0597 -7.7612 -8.3980c 0.0000,-6.0498 3.9801,-9.6716 7.7612 -9.6716c 5.2537,-0.0000 6.4876,4.0995 6.4876 7.4428c 0.0000,0.4378 -0.2786,0.6766 -0.7164 0.6766h -10.4677 c -0.0398,0.2388 -0.0398,0.4776 -0.0398 0.7960c 0.0000,4.0597 2.8259,7.2040 5.6915 7.2040c 2.1891,-0.0000 3.5821,-0.7164 4.9751 -2.2289ZM 643.3035,539.5821 ZM 645.0149,534.0100 l 1.0746,-0.0398 c 0.1194,0.9950 0.5572,2.9055 1.4328 3.8209c 0.3980,0.4378 1.4726,1.1542 2.9453 1.1542c 1.3930,-0.0000 3.4627,-1.1144 3.4627 -3.0647c 0.0000,-1.7114 -0.9552,-2.8657 -4.0995 -4.2189c -2.9055,-1.2736 -4.4179,-2.1095 -4.4179 -5.0945c 0.0000,-2.6667 2.3483,-4.5771 5.4925 -4.5771c 1.9900,-0.0000 3.4627,0.3582 4.6965 0.9950c 0.2388,1.2736 0.3582,2.6269 0.4378 4.0597l -1.0746,0.0398 c -0.8358,-3.2637 -3.2239,-3.9005 -4.0597 -3.9005c -1.5124,-0.0000 -3.0647,0.5970 -3.0647 2.7861c 0.0000,1.5920 0.7562,2.3881 2.9453 3.1841c 3.2239,1.1940 5.8109,2.6269 5.8109 5.8109c 0.0000,3.9403 -4.1791,5.0945 -6.0498 5.0945c -1.3930,-0.0000 -2.5473,-0.1592 -3.5821 -0.4378c -0.2786,-0.0398 -0.4776,-0.0796 -0.7562 -0.0796c -0.1990,-0.0000 -0.5174,0.0398 -0.9154 0.1194c 0.0000,-1.6716 -0.1194,-3.7015 -0.2786 -5.6517Z"/></g><g stroke-linejoin="miter" stroke-opacity="1.0" fill-opacity="1.0" stroke="rgb(5,45,105)" stroke-width="5.0" fill="rgb(192,217,251)" stroke-linecap="butt" stroke-miterlimit="10.0"><path d="M 924.0000,408.0000 l -0.0000,-96.0000 h -192.0000 l -0.0000,96.0000 Z"/></g><g stroke-linejoin="miter" stroke-opacity="1.0" fill-opacity="1.0" stroke="rgb(5,45,105)" stroke-width="0.0" fill="rgb(5,45,105)" stroke-linecap="butt" stroke-miterlimit="10.0"><path d="M 744.7761,371.5821 ZM 765.2338,368.7164 v -10.0299 h -13.0149 v 10.0299 c 0.0000,1.2338 0.5970,1.7512 2.1891 1.7512h 1.0348 c 0.1592,-0.0000 0.3184,0.1194 0.3184 0.3184v 0.7562 l -0.0796,0.0796 c 0.0000,-0.0000 -3.4229,-0.0796 -5.0149 -0.0796c -1.3930,-0.0000 -5.0945,0.0796 -5.0945 0.0796l -0.0796,-0.0796 v -0.7562 c 0.0000,-0.1990 0.1194,-0.3184 0.2786 -0.3184h 1.0746 c 1.6318,-0.0000 2.1493,-0.6368 2.1493 -1.7512v -19.9801 c 0.0000,-1.1940 -0.5970,-1.7512 -2.1493 -1.7512h -1.0746 c -0.1592,-0.0000 -0.3184,-0.1194 -0.3184 -0.3184v -0.7562 l 0.0796,-0.0398 c 0.0000,-0.0000 3.4627,0.0398 5.0149 0.0398c 1.4328,-0.0000 5.1343,-0.0398 5.1343 -0.0398l 0.0796,0.0398 v 0.7562 c 0.0000,0.1990 -0.1194,0.3184 -0.3184 0.3184h -1.0348 c -1.6318,-0.0000 -2.1891,0.6368 -2.1891 1.7512v 8.3980 h 13.0149 v -8.3980 c 0.0000,-1.1940 -0.5970,-1.7512 -2.1891 -1.7512h -1.0348 c -0.1990,-0.0000 -0.3582,-0.1194 -0.3582 -0.3184v -0.7562 l 0.0796,-0.0398 c 0.0000,-0.0000 3.4627,0.0398 5.0149 0.0398c 1.4328,-0.0000 5.1343,-0.0398 5.1343 -0.0398l 0.0796,0.0398 v 0.7562 c 0.0000,0.1990 -0.1194,0.3184 -0.3184 0.3184h -1.0348 c -1.6318,-0.0000 -2.1891,0.6368 -2.1891 1.7512v 19.9801 c 0.0000,1.2338 0.5970,1.7512 2.1891 1.7512h 1.0348 c 0.1990,-0.0000 0.3582,0.1194 0.3582 0.3184v 0.7562 l -0.0796,0.0796 c 0.0000,-0.0000 -3.4627,-0.0796 -5.0149 -0.0796c -1.4328,-0.0000 -5.1343,0.0796 -5.1343 0.0796l -0.0796,-0.0796 v -0.7562 c 0.0000,-0.1990 0.1194,-0.3184 0.3184 -0.3184h 1.0348 c 1.6318,-0.0000 2.1891,-0.6368 2.1891 -1.7512ZM 772.6368,371.5821 ZM 775.7015,345.8706 h 16.8358 c 0.8358,-0.0000 0.8756,-0.6766 0.8756 -0.9154l 1.0348,-0.1592 c 0.1592,1.9502 0.4378,4.0199 0.8756 6.1294l -1.1542,0.1990 c -0.7960,-3.1841 -1.3532,-3.6617 -3.5423 -3.6617h -2.6269 c -1.4328,-0.0000 -1.9104,0.3184 -1.9104 1.6716v 19.5821 c 0.0000,1.2338 0.6368,1.7512 2.1891 1.7512h 1.0348 c 0.1990,-0.0000 0.3582,0.1194 0.3582 0.3184v 0.7562 l -0.0796,0.0796 c 0.0000,-0.0000 -3.5025,-0.0796 -5.0547 -0.0796c -1.3930,-0.0000 -5.0945,0.0796 -5.0945 0.0796l -0.0796,-0.0796 v -0.7562 c 0.0000,-0.1990 0.1194,-0.3184 0.3184 -0.3184h 1.0348 c 1.6318,-0.0000 2.1891,-0.6368 2.1891 -1.7512v -19.7015 c 0.0000,-1.2338 -0.4776,-1.5522 -1.9502 -1.5522h -3.3433 c -2.1891,-0.0000 -2.7065,0.4776 -3.5025 3.6617l -1.1940,-0.1990 c 0.4776,-2.1095 0.7164,-4.1791 0.8756 -6.1294l 1.0746,0.1592 c 0.0000,0.2388 0.0000,0.9154 0.8358 0.9154ZM 796.5572,371.5821 ZM 799.6219,345.8706 h 16.8358 c 0.8358,-0.0000 0.8756,-0.6766 0.8756 -0.9154l 1.0348,-0.1592 c 0.1592,1.9502 0.4378,4.0199 0.8756 6.1294l -1.1542,0.1990 c -0.7960,-3.1841 -1.3532,-3.6617 -3.5423 -3.6617h -2.6269 c -1.4328,-0.0000 -1.9104,0.3184 -1.9104 1.6716v 19.5821 c 0.0000,1.2338 0.6368,1.7512 2.1891 1.7512h 1.0348 c 0.1990,-0.0000 0.3582,0.1194 0.3582 0.3184v 0.7562 l -0.0796,0.0796 c 0.0000,-0.0000 -3.5025,-0.0796 -5.0547 -0.0796c -1.3930,-0.0000 -5.0945,0.0796 -5.0945 0.0796l -0.0796,-0.0796 v -0.7562 c 0.0000,-0.1990 0.1194,-0.3184 0.3184 -0.3184h 1.0348 c 1.6318,-0.0000 2.1891,-0.6368 2.1891 -1.7512v -19.7015 c 0.0000,-1.2338 -0.4776,-1.5522 -1.9502 -1.5522h -3.3433 c -2.1891,-0.0000 -2.7065,0.4776 -3.5025 3.6617l -1.1940,-0.1990 c 0.4776,-2.1095 0.7164,-4.1791 0.8756 -6.1294l 1.0746,0.1592 c 0.0000,0.2388 0.0000,0.9154 0.8358 0.9154ZM 820.4776,371.5821 ZM 827.9204,348.7363 v 10.1095 c 0.4378,0.1194 1.8308,0.1990 2.8259 0.1990c 3.8607,-0.0000 6.1294,-1.7910 6.1294 -6.0896c 0.0000,-5.0547 -2.9453,-6.0498 -5.6915 -6.0498c -2.8657,-0.0000 -3.2637,0.6766 -3.2637 1.8308ZM 827.9204,348.7363 ZM 824.6965,368.7562 v -20.0199 c 0.0000,-1.2736 -1.0746,-1.7512 -1.7512 -1.7512h -1.5522 c -0.1592,-0.0000 -0.2388,-0.0796 -0.2388 -0.2388v -0.8358 l 0.0796,-0.0398 c 0.0000,-0.0000 3.2239,0.0398 5.0547 0.0398c 1.1940,-0.0000 4.1393,-0.3582 5.1741 -0.3582c 7.3632,-0.0000 8.7960,4.3383 8.7960 6.6866c 0.0000,3.3831 -2.0697,8.1194 -9.3134 8.1194c -1.3930,-0.0000 -2.1493,-0.1194 -3.0249 -0.3980v 8.7960 c 0.0000,1.1940 0.5970,1.7114 2.1493 1.7114h 1.0746 c 0.1592,-0.0000 0.3184,0.1194 0.3184 0.3184v 0.7562 l -0.0796,0.0796 c 0.0000,-0.0000 -3.4627,-0.0796 -5.0149 -0.0796c -1.4328,-0.0000 -5.1343,0.0796 -5.1343 0.0796l -0.0796,-0.0796 v -0.7562 c 0.0000,-0.1990 0.1194,-0.3184 0.3184 -0.3184h 1.0348 c 1.6318,-0.0000 2.1891,-0.5970 2.1891 -1.7114ZM 851.1642,371.5821 ZM 861.4726,360.3184 h 7.1244 l -3.9403,-10.6269 l -4.1393,9.9104 c -0.0398,0.1592 -0.0796,0.2388 -0.0796 0.3582c 0.0000,0.2388 0.2786,0.3582 1.0348 0.3582ZM 861.4726,360.3184 ZM 856.7363,368.7164 c -0.1194,0.2786 -0.1592,0.5174 -0.1592 0.7562c 0.0000,0.6368 0.6368,0.9950 1.8308 0.9950h 1.1542 c 0.1592,-0.0000 0.3184,0.1194 0.3184 0.3184v 0.7562 l -0.0796,0.0796 c 0.0000,-0.0000 -3.9403,-0.0796 -4.8955 -0.0796c -1.0348,-0.0000 -3.5821,0.0796 -3.5821 0.0796l -0.0796,-0.0796 v -0.7562 c 0.0000,-0.1990 0.1194,-0.3184 0.3184 -0.3184h 0.4776 c 1.6318,-0.0000 2.3483,-0.7562 2.9055 -2.1095l 9.3134,-21.7711 c 0.3582,-0.9154 0.6766,-1.1940 1.0746 -1.1940c 0.7164,-0.0000 1.0348,0.3980 1.3532 1.1940l 8.1592,21.5721 c 0.5572,1.5522 1.3532,2.3085 2.9453 2.3085h 0.4378 c 0.1990,-0.0000 0.3980,0.1194 0.3980 0.3184v 0.7562 l -0.1194,0.0796 c 0.0000,-0.0000 -3.0647,-0.0796 -4.6169 -0.0796c -1.3930,-0.0000 -5.2935,0.0796 -5.2935 0.0796l -0.0398,-0.0796 v -0.7562 c 0.0000,-0.1990 0.0796,-0.3184 0.2786 -0.3184h 1.1144 c 1.2338,-0.0000 1.8706,-0.4378 1.8706 -1.0746c 0.0000,-0.1990 -0.0398,-0.4378 -0.1194 -0.6766l -2.5473,-6.8458 h -8.3980 c -0.9552,-0.0000 -1.2736,0.2388 -1.4328 0.6766ZM 878.8259,371.5821 ZM 886.2687,348.7363 v 10.1095 c 0.4378,0.1194 1.8308,0.1990 2.8259 0.1990c 3.8607,-0.0000 6.1294,-1.7910 6.1294 -6.0896c 0.0000,-5.0547 -2.9453,-6.0498 -5.6915 -6.0498c -2.8657,-0.0000 -3.2637,0.6766 -3.2637 1.8308ZM 886.2687,348.7363 ZM 883.0448,368.7562 v -20.0199 c 0.0000,-1.2736 -1.0746,-1.7512 -1.7512 -1.7512h -1.5522 c -0.1592,-0.0000 -0.2388,-0.0796 -0.2388 -0.2388v -0.8358 l 0.0796,-0.0398 c 0.0000,-0.0000 3.2239,0.0398 5.0547 0.0398c 1.1940,-0.0000 4.1393,-0.3582 5.1741 -0.3582c 7.3632,-0.0000 8.7960,4.3383 8.7960 6.6866c 0.0000,3.3831 -2.0697,8.1194 -9.3134 8.1194c -1.3930,-0.0000 -2.1493,-0.1194 -3.0249 -0.3980v 8.7960 c 0.0000,1.1940 0.5970,1.7114 2.1493 1.7114h 1.0746 c 0.1592,-0.0000 0.3184,0.1194 0.3184 0.3184v 0.7562 l -0.0796,0.0796 c 0.0000,-0.0000 -3.4627,-0.0796 -5.0149 -0.0796c -1.4328,-0.0000 -5.1343,0.0796 -5.1343 0.0796l -0.0796,-0.0796 v -0.7562 c 0.0000,-0.1990 0.1194,-0.3184 0.3184 -0.3184h 1.0348 c 1.6318,-0.0000 2.1891,-0.5970 2.1891 -1.7114ZM 899.5622,371.5821 ZM 907.0050,348.7363 v 20.0199 c 0.0000,1.1940 0.5970,1.7114 2.1891 1.7114h 1.0348 c 0.1592,-0.0000 0.3184,0.1194 0.3184 0.3184v 0.7562 l -0.0796,0.0796 c 0.0000,-0.0000 -3.4229,-0.0796 -5.0149 -0.0796c -1.3930,-0.0000 -5.0945,0.0796 -5.0945 0.0796l -0.0796,-0.0796 v -0.7562 c 0.0000,-0.1990 0.1194,-0.3184 0.2786 -0.3184h 1.0746 c 1.6318,-0.0000 2.1493,-0.5970 2.1493 -1.7114v -20.0199 c 0.0000,-1.1940 -0.5970,-1.7512 -2.1493 -1.7512h -1.0746 c -0.1592,-0.0000 -0.3184,-0.1194 -0.3184 -0.3184v -0.7562 l 0.0796,-0.0398 c 0.0000,-0.0000 3.4627,0.0398 5.0149 0.0398c 1.4328,-0.0000 5.1343,-0.0398 5.1343 -0.0398l 0.0796,0.0398 v 0.7562 c 0.0000,0.1990 -0.1194,0.3184 -0.3184 0.3184h -1.0348 c -1.6318,-0.0000 -2.1891,0.6368 -2.1891 1.7512Z"/></g><g stroke-linejoin="miter" stroke-opacity="1.0" fill-opacity="1.0" stroke="rgb(5,45,105)" stroke-width="5.0" fill="rgb(192,217,251)" stroke-linecap="butt" stroke-miterlimit="10.0"><path d="M 1020.0000,240.0000 l -0.0000,-96.0000 h -192.0000 l -0.0000,96.0000 Z"/></g><g stroke-linejoin="miter" stroke-opacity="1.0" fill-opacity="1.0" stroke="rgb(5,45,105)" stroke-width="0.0" fill="rgb(5,45,105)" stroke-linecap="butt" stroke-miterlimit="10.0"><path d="M 905.0149,203.5821 ZM 917.7910,204.0597 c -3.5821,-0.0000 -9.2338,-1.6716 -9.2338 -9.7910v -13.5323 c 0.0000,-1.2338 -0.5970,-1.7512 -2.1493 -1.7512h -1.0746 c -0.1592,-0.0000 -0.3184,-0.1194 -0.3184 -0.3184v -0.7562 l 0.0796,-0.0398 c 0.0000,-0.0000 3.4627,0.0398 5.0149 0.0398c 1.4328,-0.0000 5.1343,-0.0398 5.1343 -0.0398l 0.0796,0.0398 v 0.7562 c 0.0000,0.1990 -0.1194,0.3184 -0.3184 0.3184h -1.0348 c -1.6318,-0.0000 -2.1891,0.6368 -2.1891 1.7512v 12.2189 c 0.0000,2.5871 0.0000,5.3731 2.1095 7.4826c 1.1940,1.1542 2.8259,1.9900 4.7363 1.9900c 6.7264,-0.0000 7.3234,-5.3333 7.3234 -9.7910v -11.9005 c 0.0000,-1.2338 -0.5970,-1.7512 -2.1493 -1.7512h -1.0746 c -0.1592,-0.0000 -0.3184,-0.1194 -0.3184 -0.3184v -0.7562 l 0.0796,-0.0398 c 0.0000,-0.0000 2.8259,0.0398 4.3781 0.0398c 1.4328,-0.0000 4.3781,-0.0398 4.3781 -0.0398l 0.0796,0.0398 v 0.7562 c 0.0000,0.1990 -0.1194,0.3184 -0.3184 0.3184h -1.0348 c -1.6318,-0.0000 -2.1891,0.6368 -2.1891 1.7512v 11.1841 c 0.0000,7.0846 -1.8308,12.1393 -9.9900 12.1393ZM 931.3234,203.5821 ZM 938.7662,180.7363 v 20.0199 c 0.0000,1.1940 0.5970,1.7114 2.1891 1.7114h 1.0348 c 0.1592,-0.0000 0.3184,0.1194 0.3184 0.3184v 0.7562 l -0.0796,0.0796 c 0.0000,-0.0000 -3.4229,-0.0796 -5.0149 -0.0796c -1.3930,-0.0000 -5.0945,0.0796 -5.0945 0.0796l -0.0796,-0.0796 v -0.7562 c 0.0000,-0.1990 0.1194,-0.3184 0.2786 -0.3184h 1.0746 c 1.6318,-0.0000 2.1493,-0.5970 2.1493 -1.7114v -20.0199 c 0.0000,-1.1940 -0.5970,-1.7512 -2.1493 -1.7512h -1.0746 c -0.1592,-0.0000 -0.3184,-0.1194 -0.3184 -0.3184v -0.7562 l 0.0796,-0.0398 c 0.0000,-0.0000 3.4627,0.0398 5.0149 0.0398c 1.4328,-0.0000 5.1343,-0.0398 5.1343 -0.0398l 0.0796,0.0398 v 0.7562 c 0.0000,0.1990 -0.1194,0.3184 -0.3184 0.3184h -1.0348 c -1.6318,-0.0000 -2.1891,0.6368 -2.1891 1.7512Z"/></g><g stroke-linejoin="miter" stroke-opacity="1.0" fill-opacity="1.0" stroke="rgb(5,45,105)" stroke-width="5.0" fill="rgb(192,217,251)" stroke-linecap="butt" stroke-miterlimit="10.0"><path d="M 468.0000,408.0000 l -0.0000,-96.0000 h -192.0000 l -0.0000,96.0000 Z"/></g><g stroke-linejoin="miter" stroke-opacity="1.0" fill-opacity="1.0" stroke="rgb(5,45,105)" stroke-width="0.0" fill="rgb(5,45,105)" stroke-linecap="butt" stroke-miterlimit="10.0"><path d="M 288.7761,371.5821 ZM 309.2338,368.7164 v -10.0299 h -13.0149 v 10.0299 c 0.0000,1.2338 0.5970,1.7512 2.1891 1.7512h 1.0348 c 0.1592,-0.0000 0.3184,0.1194 0.3184 0.3184v 0.7562 l -0.0796,0.0796 c 0.0000,-0.0000 -3.4229,-0.0796 -5.0149 -0.0796c -1.3930,-0.0000 -5.0945,0.0796 -5.0945 0.0796l -0.0796,-0.0796 v -0.7562 c 0.0000,-0.1990 0.1194,-0.3184 0.2786 -0.3184h 1.0746 c 1.6318,-0.0000 2.1493,-0.6368 2.1493 -1.7512v -19.9801 c 0.0000,-1.1940 -0.5970,-1.7512 -2.1493 -1.7512h -1.0746 c -0.1592,-0.0000 -0.3184,-0.1194 -0.3184 -0.3184v -0.7562 l 0.0796,-0.0398 c 0.0000,-0.0000 3.4627,0.0398 5.0149 0.0398c 1.4328,-0.0000 5.1343,-0.0398 5.1343 -0.0398l 0.0796,0.0398 v 0.7562 c 0.0000,0.1990 -0.1194,0.3184 -0.3184 0.3184h -1.0348 c -1.6318,-0.0000 -2.1891,0.6368 -2.1891 1.7512v 8.3980 h 13.0149 v -8.3980 c 0.0000,-1.1940 -0.5970,-1.7512 -2.1891 -1.7512h -1.0348 c -0.1990,-0.0000 -0.3582,-0.1194 -0.3582 -0.3184v -0.7562 l 0.0796,-0.0398 c 0.0000,-0.0000 3.4627,0.0398 5.0149 0.0398c 1.4328,-0.0000 5.1343,-0.0398 5.1343 -0.0398l 0.0796,0.0398 v 0.7562 c 0.0000,0.1990 -0.1194,0.3184 -0.3184 0.3184h -1.0348 c -1.6318,-0.0000 -2.1891,0.6368 -2.1891 1.7512v 19.9801 c 0.0000,1.2338 0.5970,1.7512 2.1891 1.7512h 1.0348 c 0.1990,-0.0000 0.3582,0.1194 0.3582 0.3184v 0.7562 l -0.0796,0.0796 c 0.0000,-0.0000 -3.4627,-0.0796 -5.0149 -0.0796c -1.4328,-0.0000 -5.1343,0.0796 -5.1343 0.0796l -0.0796,-0.0796 v -0.7562 c 0.0000,-0.1990 0.1194,-0.3184 0.3184 -0.3184h 1.0348 c 1.6318,-0.0000 2.1891,-0.6368 2.1891 -1.7512ZM 316.6368,371.5821 ZM 319.7015,345.8706 h 16.8358 c 0.8358,-0.0000 0.8756,-0.6766 0.8756 -0.9154l 1.0348,-0.1592 c 0.1592,1.9502 0.4378,4.0199 0.8756 6.1294l -1.1542,0.1990 c -0.7960,-3.1841 -1.3532,-3.6617 -3.5423 -3.6617h -2.6269 c -1.4328,-0.0000 -1.9104,0.3184 -1.9104 1.6716v 19.5821 c 0.0000,1.2338 0.6368,1.7512 2.1891 1.7512h 1.0348 c 0.1990,-0.0000 0.3582,0.1194 0.3582 0.3184v 0.7562 l -0.0796,0.0796 c 0.0000,-0.0000 -3.5025,-0.0796 -5.0547 -0.0796c -1.3930,-0.0000 -5.0945,0.0796 -5.0945 0.0796l -0.0796,-0.0796 v -0.7562 c 0.0000,-0.1990 0.1194,-0.3184 0.3184 -0.3184h 1.0348 c 1.6318,-0.0000 2.1891,-0.6368 2.1891 -1.7512v -19.7015 c 0.0000,-1.2338 -0.4776,-1.5522 -1.9502 -1.5522h -3.3433 c -2.1891,-0.0000 -2.7065,0.4776 -3.5025 3.6617l -1.1940,-0.1990 c 0.4776,-2.1095 0.7164,-4.1791 0.8756 -6.1294l 1.0746,0.1592 c 0.0000,0.2388 0.0000,0.9154 0.8358 0.9154ZM 340.5572,371.5821 ZM 343.6219,345.8706 h 16.8358 c 0.8358,-0.0000 0.8756,-0.6766 0.8756 -0.9154l 1.0348,-0.1592 c 0.1592,1.9502 0.4378,4.0199 0.8756 6.1294l -1.1542,0.1990 c -0.7960,-3.1841 -1.3532,-3.6617 -3.5423 -3.6617h -2.6269 c -1.4328,-0.0000 -1.9104,0.3184 -1.9104 1.6716v 19.5821 c 0.0000,1.2338 0.6368,1.7512 2.1891 1.7512h 1.0348 c 0.1990,-0.0000 0.3582,0.1194 0.3582 0.3184v 0.7562 l -0.0796,0.0796 c 0.0000,-0.0000 -3.5025,-0.0796 -5.0547 -0.0796c -1.3930,-0.0000 -5.0945,0.0796 -5.0945 0.0796l -0.0796,-0.0796 v -0.7562 c 0.0000,-0.1990 0.1194,-0.3184 0.3184 -0.3184h 1.0348 c 1.6318,-0.0000 2.1891,-0.6368 2.1891 -1.7512v -19.7015 c 0.0000,-1.2338 -0.4776,-1.5522 -1.9502 -1.5522h -3.3433 c -2.1891,-0.0000 -2.7065,0.4776 -3.5025 3.6617l -1.1940,-0.1990 c 0.4776,-2.1095 0.7164,-4.1791 0.8756 -6.1294l 1.0746,0.1592 c 0.0000,0.2388 0.0000,0.9154 0.8358 0.9154ZM 364.4776,371.5821 ZM 371.9204,348.7363 v 10.1095 c 0.4378,0.1194 1.8308,0.1990 2.8259 0.1990c 3.8607,-0.0000 6.1294,-1.7910 6.1294 -6.0896c 0.0000,-5.0547 -2.9453,-6.0498 -5.6915 -6.0498c -2.8657,-0.0000 -3.2637,0.6766 -3.2637 1.8308ZM 371.9204,348.7363 ZM 368.6965,368.7562 v -20.0199 c 0.0000,-1.2736 -1.0746,-1.7512 -1.7512 -1.7512h -1.5522 c -0.1592,-0.0000 -0.2388,-0.0796 -0.2388 -0.2388v -0.8358 l 0.0796,-0.0398 c 0.0000,-0.0000 3.2239,0.0398 5.0547 0.0398c 1.1940,-0.0000 4.1393,-0.3582 5.1741 -0.3582c 7.3632,-0.0000 8.7960,4.3383 8.7960 6.6866c 0.0000,3.3831 -2.0697,8.1194 -9.3134 8.1194c -1.3930,-0.0000 -2.1493,-0.1194 -3.0249 -0.3980v 8.7960 c 0.0000,1.1940 0.5970,1.7114 2.1493 1.7114h 1.0746 c 0.1592,-0.0000 0.3184,0.1194 0.3184 0.3184v 0.7562 l -0.0796,0.0796 c 0.0000,-0.0000 -3.4627,-0.0796 -5.0149 -0.0796c -1.4328,-0.0000 -5.1343,0.0796 -5.1343 0.0796l -0.0796,-0.0796 v -0.7562 c 0.0000,-0.1990 0.1194,-0.3184 0.3184 -0.3184h 1.0348 c 1.6318,-0.0000 2.1891,-0.5970 2.1891 -1.7114ZM 395.1642,371.5821 ZM 405.4726,360.3184 h 7.1244 l -3.9403,-10.6269 l -4.1393,9.9104 c -0.0398,0.1592 -0.0796,0.2388 -0.0796 0.3582c 0.0000,0.2388 0.2786,0.3582 1.0348 0.3582ZM 405.4726,360.3184 ZM 400.7363,368.7164 c -0.1194,0.2786 -0.1592,0.5174 -0.1592 0.7562c 0.0000,0.6368 0.6368,0.9950 1.8308 0.9950h 1.1542 c 0.1592,-0.0000 0.3184,0.1194 0.3184 0.3184v 0.7562 l -0.0796,0.0796 c 0.0000,-0.0000 -3.9403,-0.0796 -4.8955 -0.0796c -1.0348,-0.0000 -3.5821,0.0796 -3.5821 0.0796l -0.0796,-0.0796 v -0.7562 c 0.0000,-0.1990 0.1194,-0.3184 0.3184 -0.3184h 0.4776 c 1.6318,-0.0000 2.3483,-0.7562 2.9055 -2.1095l 9.3134,-21.7711 c 0.3582,-0.9154 0.6766,-1.1940 1.0746 -1.1940c 0.7164,-0.0000 1.0348,0.3980 1.3532 1.1940l 8.1592,21.5721 c 0.5572,1.5522 1.3532,2.3085 2.9453 2.3085h 0.4378 c 0.1990,-0.0000 0.3980,0.1194 0.3980 0.3184v 0.7562 l -0.1194,0.0796 c 0.0000,-0.0000 -3.0647,-0.0796 -4.6169 -0.0796c -1.3930,-0.0000 -5.2935,0.0796 -5.2935 0.0796l -0.0398,-0.0796 v -0.7562 c 0.0000,-0.1990 0.0796,-0.3184 0.2786 -0.3184h 1.1144 c 1.2338,-0.0000 1.8706,-0.4378 1.8706 -1.0746c 0.0000,-0.1990 -0.0398,-0.4378 -0.1194 -0.6766l -2.5473,-6.8458 h -8.3980 c -0.9552,-0.0000 -1.2736,0.2388 -1.4328 0.6766ZM 422.8259,371.5821 ZM 430.2687,348.7363 v 10.1095 c 0.4378,0.1194 1.8308,0.1990 2.8259 0.1990c 3.8607,-0.0000 6.1294,-1.7910 6.1294 -6.0896c 0.0000,-5.0547 -2.9453,-6.0498 -5.6915 -6.0498c -2.8657,-0.0000 -3.2637,0.6766 -3.2637 1.8308ZM 430.2687,348.7363 ZM 427.0448,368.7562 v -20.0199 c 0.0000,-1.2736 -1.0746,-1.7512 -1.7512 -1.7512h -1.5522 c -0.1592,-0.0000 -0.2388,-0.0796 -0.2388 -0.2388v -0.8358 l 0.0796,-0.0398 c 0.0000,-0.0000 3.2239,0.0398 5.0547 0.0398c 1.1940,-0.0000 4.1393,-0.3582 5.1741 -0.3582c 7.3632,-0.0000 8.7960,4.3383 8.7960 6.6866c 0.0000,3.3831 -2.0697,8.1194 -9.3134 8.1194c -1.3930,-0.0000 -2.1493,-0.1194 -3.0249 -0.3980v 8.7960 c 0.0000,1.1940 0.5970,1.7114 2.1493 1.7114h 1.0746 c 0.1592,-0.0000 0.3184,0.1194 0.3184 0.3184v 0.7562 l -0.0796,0.0796 c 0.0000,-0.0000 -3.4627,-0.0796 -5.0149 -0.0796c -1.4328,-0.0000 -5.1343,0.0796 -5.1343 0.0796l -0.0796,-0.0796 v -0.7562 c 0.0000,-0.1990 0.1194,-0.3184 0.3184 -0.3184h 1.0348 c 1.6318,-0.0000 2.1891,-0.5970 2.1891 -1.7114ZM 443.5622,371.5821 ZM 451.0050,348.7363 v 20.0199 c 0.0000,1.1940 0.5970,1.7114 2.1891 1.7114h 1.0348 c 0.1592,-0.0000 0.3184,0.1194 0.3184 0.3184v 0.7562 l -0.0796,0.0796 c 0.0000,-0.0000 -3.4229,-0.0796 -5.0149 -0.0796c -1.3930,-0.0000 -5.0945,0.0796 -5.0945 0.0796l -0.0796,-0.0796 v -0.7562 c 0.0000,-0.1990 0.1194,-0.3184 0.2786 -0.3184h 1.0746 c 1.6318,-0.0000 2.1493,-0.5970 2.1493 -1.7114v -20.0199 c 0.0000,-1.1940 -0.5970,-1.7512 -2.1493 -1.7512h -1.0746 c -0.1592,-0.0000 -0.3184,-0.1194 -0.3184 -0.3184v -0.7562 l 0.0796,-0.0398 c 0.0000,-0.0000 3.4627,0.0398 5.0149 0.0398c 1.4328,-0.0000 5.1343,-0.0398 5.1343 -0.0398l 0.0796,0.0398 v 0.7562 c 0.0000,0.1990 -0.1194,0.3184 -0.3184 0.3184h -1.0348 c -1.6318,-0.0000 -2.1891,0.6368 -2.1891 1.7512Z"/></g><g stroke-linejoin="miter" stroke-opacity="1.0" fill-opacity="1.0" stroke="rgb(5,45,105)" stroke-width="5.0" fill="rgb(192,217,251)" stroke-linecap="butt" stroke-miterlimit="10.0"><path d="M 372.0000,240.0000 l -0.0000,-96.0000 h -192.0000 l -0.0000,96.0000 Z"/></g><g stroke-linejoin="miter" stroke-opacity="1.0" fill-opacity="1.0" stroke="rgb(5,45,105)" stroke-width="0.0" fill="rgb(5,45,105)" stroke-linecap="butt" stroke-miterlimit="10.0"><path d="M 209.8706,203.5821 ZM 217.3134,180.6965 v 8.0398 h 3.1443 c 3.3035,-0.0000 5.9303,-1.3134 5.9303 -4.6965c 0.0000,-4.0597 -3.1841,-4.7761 -5.4129 -4.7761c -3.4627,-0.0000 -3.6617,0.1194 -3.6617 1.4328ZM 217.3134,180.6965 ZM 217.3134,190.1294 v 10.5871 c 0.0000,1.3134 0.2786,1.5522 3.5025 1.5522c 6.0498,-0.0000 7.4428,-3.6219 7.4428 -6.0498c 0.0000,-3.5821 -2.5473,-6.0896 -7.2040 -6.0896h -3.7413 ZM 217.3134,190.1294 ZM 210.5473,202.7861 c 0.0000,-0.1990 0.0796,-0.3184 0.2786 -0.3184h 1.1940 c 1.5920,-0.0000 2.0697,-0.4378 2.0697 -1.8308v -19.9005 c 0.0000,-1.3532 -0.3980,-1.7512 -2.0697 -1.7512h -1.1940 c -0.1990,-0.0000 -0.2786,-0.1194 -0.2786 -0.2786v -0.7960 l 0.0796,-0.0398 l 5.0547,0.0398 c 0.0000,-0.0000 3.6219,-0.0398 5.0149 -0.0398c 7.4030,-0.0000 8.7562,3.4229 8.7562 6.0896c 0.0000,2.1891 -1.6716,4.3383 -3.7015 5.3333c 4.2189,0.9552 6.0498,3.6617 6.0498 7.3632c 0.0000,3.4229 -2.3085,6.9652 -10.2289 6.9652c -2.8657,-0.0000 -5.8905,-0.0796 -5.8905 -0.0796l -5.0547,0.0796 l -0.0796,-0.0796 v -0.7562 ZM 233.4328,203.5821 ZM 245.0149,193.8308 l -3.1443,0.7960 c -3.5025,1.0746 -4.0199,2.9055 -4.0199 4.6965c 0.0000,1.2338 0.5970,3.1045 3.1045 3.1045c 1.1940,-0.0000 3.0249,-1.1542 4.0597 -2.0299v -6.5672 ZM 245.0149,193.8308 ZM 247.5622,204.0597 c -1.5124,-0.0000 -2.3483,-1.3532 -2.5075 -2.3085l -0.9154,0.6368 c -1.8308,1.2736 -2.5075,1.6716 -4.3383 1.6716c -2.7861,-0.0000 -4.8159,-1.5920 -4.8159 -4.5771c 0.0000,-3.0249 2.5871,-5.0945 6.3682 -6.0498l 3.6617,-0.9154 c 0.0000,-4.4975 -2.0697,-5.3333 -3.4229 -5.3333c -1.5124,-0.0000 -3.2637,0.6766 -3.2637 1.9104c 0.0000,0.4378 0.0796,0.6766 0.1194 0.7960c 0.0796,0.1592 0.1194,0.4378 0.1194 0.7164c 0.0000,0.5174 -0.3980,1.3134 -1.5522 1.3134c -0.9552,-0.0000 -1.5920,-0.6368 -1.5920 -1.5920c 0.0000,-2.3085 3.7413,-4.3383 6.2886 -4.3383c 2.9055,-0.0000 6.2488,1.1940 6.2488 6.8458v 5.8507 c 0.0000,2.4279 0.0398,3.4627 0.9552 3.4627c 0.8756,-0.0000 1.1144,-1.1144 1.1542 -1.9900l 0.9950,0.1990 c -0.2388,2.9055 -1.4726,3.7015 -3.5025 3.7015ZM 251.3831,203.5821 ZM 272.3582,195.4229 v 5.2935 c 0.0000,1.1542 0.4378,1.7512 1.7114 1.7512h 0.0796 c 0.1990,-0.0000 0.3582,0.1194 0.3582 0.3184v 0.7562 l -0.0796,0.0796 c 0.0000,-0.0000 -2.0697,-0.0796 -3.6219 -0.0796c -1.3930,-0.0000 -4.0995,0.0796 -4.0995 0.0796l -0.0796,-0.0796 v -0.7562 c 0.0000,-0.1990 0.1194,-0.3184 0.3184 -0.3184h 0.7562 c 1.3134,-0.0000 1.7114,-0.5970 1.7114 -1.7512v -20.1393 c 0.0000,-1.8706 -0.3980,-2.7065 -1.1940 -2.7065c 0.0000,-0.0000 -0.5970,0.0796 -0.9950 0.1194c -0.1194,-0.0000 -0.2786,0.0398 -0.3184 0.0398c -0.1194,-0.0000 -0.1990,-0.1194 -0.1990 -0.1990l -0.0796,-0.9950 c 0.6368,-0.0000 2.1095,-0.2388 2.7861 -0.3582c 0.7164,-0.1592 1.2736,-0.3184 2.0697 -0.6766h 0.8756 v 18.3881 c 1.7512,-0.8756 3.0647,-2.1095 5.2537 -4.4179c 0.5970,-0.6368 0.7960,-1.1542 0.7960 -1.5522c 0.0000,-0.3184 -0.2388,-0.6368 -1.1940 -0.6368h -0.1194 c -0.1990,-0.0000 -0.3582,-0.1592 -0.3582 -0.3184v -0.7562 l 0.1194,-0.0796 c 0.0000,-0.0000 1.9104,0.0796 3.3035 0.0796c 1.5522,-0.0000 3.7015,-0.0796 3.7015 -0.0796l 0.1592,0.0796 v 0.7562 c 0.0000,0.1990 -0.2388,0.3184 -0.3980 0.3184h -0.3184 c -1.0746,-0.0000 -2.8259,0.8756 -3.7811 1.9104l -3.0647,3.3433 c -0.1194,0.1194 -0.1592,0.2388 -0.1592 0.3980c 0.0000,0.1990 0.0796,0.3980 0.1990 0.5572l 4.6965,6.8856 c 0.7164,1.0746 1.9502,1.7910 2.9453 1.7910h 0.1194 c 0.2786,-0.0000 0.5174,0.1194 0.5174 0.3184v 0.7164 l -0.0796,0.1194 c 0.0000,-0.0000 -1.9900,-0.0796 -3.5423 -0.0796c -1.4328,-0.0000 -2.4677,0.0796 -2.4677 0.0796l -0.1194,-0.1592 v -0.6766 c 0.0000,-0.4776 -0.1194,-0.9552 -0.9154 -2.1095l -2.9453,-4.0995 c -0.5174,-0.7562 -0.9950,-1.4328 -1.9104 -1.4328c -0.1592,-0.0000 -0.2786,-0.0000 -0.4378 0.0398v 0.2388 ZM 272.3582,195.4229 ZM 266.2687,199.8408 c -1.7512,3.0249 -3.6617,4.0995 -6.0100 4.0995c -4.7761,-0.0000 -7.4030,-3.6617 -7.4030 -8.7960c 0.0000,-5.6517 3.1841,-9.2338 7.4428 -9.2338c 3.8209,-0.0000 5.8507,1.9502 5.8507 4.0597c 0.0000,1.1940 -0.7164,1.7512 -1.5124 1.7512c -0.8756,-0.0000 -1.6716,-0.4378 -1.7910 -1.3930c -0.1194,-1.3532 -0.3980,-3.0647 -2.7463 -3.0647c -2.6269,-0.0000 -4.1791,2.7065 -4.1791 7.0050c 0.0000,4.6567 2.1095,7.9204 5.2139 7.9204c 1.7114,-0.0000 3.1841,-1.1144 4.4179 -2.9055ZM 284.7363,203.5821 ZM 289.2736,192.5572 h 7.3234 c 0.3980,-0.0000 0.5572,-0.1990 0.5572 -0.5572c 0.0000,-3.7015 -1.8706,-4.6567 -3.3035 -4.6567c -0.9154,-0.0000 -3.9005,0.3582 -4.5771 5.2139ZM 289.2736,192.5572 ZM 299.7811,199.8806 l 0.7960,0.6368 c -1.5124,2.0697 -3.8607,3.5423 -6.7264 3.5423c -5.4527,-0.0000 -7.7612,-4.0597 -7.7612 -8.3980c 0.0000,-6.0498 3.9801,-9.6716 7.7612 -9.6716c 5.2537,-0.0000 6.4876,4.0995 6.4876 7.4428c 0.0000,0.4378 -0.2786,0.6766 -0.7164 0.6766h -10.4677 c -0.0398,0.2388 -0.0398,0.4776 -0.0398 0.7960c 0.0000,4.0597 2.8259,7.2040 5.6915 7.2040c 2.1891,-0.0000 3.5821,-0.7164 4.9751 -2.2289ZM 301.7711,203.5821 ZM 316.2587,200.7164 v -8.7164 c 0.0000,-2.7861 -0.4776,-4.0995 -2.5871 -4.0995c -1.7512,-0.0000 -3.2637,0.6766 -5.2935 3.0647v 9.7512 c 0.0000,1.1542 0.3980,1.7512 1.7114 1.7512h 0.5572 c 0.1990,-0.0000 0.3184,0.1194 0.3184 0.3184v 0.7562 l -0.0796,0.0796 c 0.0000,-0.0000 -2.5075,-0.0796 -4.0597 -0.0796c -1.4328,-0.0000 -4.1393,0.0796 -4.1393 0.0796l -0.0796,-0.0796 v -0.7562 c 0.0000,-0.1990 0.1194,-0.3184 0.3184 -0.3184h 0.7562 c 1.3532,-0.0000 1.7114,-0.5970 1.7114 -1.7512v -9.9104 c 0.0000,-2.1493 -0.3184,-2.4279 -0.8756 -2.4279c -0.5174,-0.0000 -0.9950,0.0398 -1.6716 0.1990l -0.1990,-1.1144 c 1.6716,-0.2786 2.8657,-0.4776 4.0995 -1.1542c 0.4378,-0.1990 0.7562,-0.3184 1.0348 -0.3184h 0.5970 l -0.1194,3.5423 h 0.1194 c 2.5473,-2.9851 4.4577,-3.5423 6.4876 -3.5423c 3.5821,-0.0000 4.3383,2.7463 4.3383 6.2886v 8.4378 c 0.0000,1.1542 0.4378,1.7512 1.7114 1.7512h 0.7562 c 0.1990,-0.0000 0.3582,0.1194 0.3582 0.3184v 0.7562 l -0.0796,0.0796 c 0.0000,-0.0000 -2.7463,-0.0796 -4.2985 -0.0796c -1.3930,-0.0000 -3.9005,0.0796 -3.9005 0.0796l -0.0796,-0.0796 v -0.7562 c 0.0000,-0.1990 0.1194,-0.3184 0.3184 -0.3184h 0.5572 c 1.3134,-0.0000 1.7114,-0.5970 1.7114 -1.7512ZM 322.4677,203.5821 ZM 335.7612,200.0398 v -10.3085 c -0.9552,-1.5124 -2.0299,-2.3483 -3.9005 -2.3483c -0.7960,-0.0000 -2.4279,0.1194 -3.7015 1.9900c -0.5572,0.8358 -1.2338,2.5473 -1.2338 5.4129c 0.0000,5.2139 2.7065,7.6020 4.8557 7.6020c 1.3134,-0.0000 2.3881,-0.7960 3.9801 -2.3483ZM 335.7612,200.0398 ZM 338.7463,175.8010 v 23.0050 c 0.0000,1.1940 0.0796,1.8308 0.1592 2.1095c 0.1194,0.3582 0.5572,0.5970 0.8756 0.5970c 0.4776,-0.0000 1.3532,-0.0000 1.9502 -0.1194l 0.1592,1.1144 c -2.3085,0.3980 -4.3781,0.8358 -5.2139 1.5522h -0.9552 l 0.1194,-2.7463 c -1.5124,1.5522 -3.0647,2.7463 -5.0945 2.7463c -4.2985,-0.0000 -6.9254,-3.6617 -6.9254 -8.5572c 0.0000,-2.9453 0.7960,-5.4129 2.5075 -7.1244c 1.5920,-1.5124 3.3433,-2.3881 5.9701 -2.3881c 0.7960,-0.0000 2.5473,0.3582 3.4627 0.8756v -6.0896 c 0.0000,-2.2687 -0.3582,-2.9055 -1.1542 -2.9055l -1.3134,0.1592 c -0.0796,-0.0000 -0.1990,-0.0796 -0.1990 -0.1990l -0.0796,-0.9950 c 0.6368,-0.0000 2.0697,-0.2388 2.7463 -0.3582c 0.7562,-0.1592 1.3134,-0.3184 2.1095 -0.6766h 0.8756 Z"/></g><g stroke-linejoin="miter" stroke-opacity="1.0" fill-opacity="0.0" stroke="rgb(0,0,0)" stroke-width="10.0" fill="rgb(0,0,0)" stroke-linecap="butt" stroke-miterlimit="10.0"><path d="M 669.6000,470.4000 l 142.8592,-46.2192 "/></g><g stroke-linejoin="miter" stroke-opacity="1.0" fill-opacity="1.0" stroke="rgb(0,0,0)" stroke-width="0.0" fill="rgb(0,0,0)" stroke-linecap="butt" stroke-miterlimit="10.0"></g><g stroke-linejoin="miter" stroke-opacity="1.0" fill-opacity="1.0" stroke="rgb(0,0,0)" stroke-width="0.0" fill="rgb(0,0,0)" stroke-linecap="butt" stroke-miterlimit="10.0"></g><g stroke-linejoin="miter" stroke-opacity="1.0" fill-opacity="1.0" stroke="rgb(0,0,0)" stroke-width="5.0" fill="rgb(0,0,0)" stroke-linecap="butt" stroke-miterlimit="10.0"><path d="M 832.8000,417.6000 l -24.1403,-5.1629 l 7.5989,23.4875 Z"/></g><g stroke-linejoin="miter" stroke-opacity="1.0" fill-opacity="1.0" stroke="rgb(0,0,0)" stroke-width="0.0" fill="rgb(0,0,0)" stroke-linecap="butt" stroke-miterlimit="10.0"></g><g stroke-linejoin="miter" stroke-opacity="1.0" fill-opacity="0.0" stroke="rgb(0,0,0)" stroke-width="10.0" fill="rgb(0,0,0)" stroke-linecap="butt" stroke-miterlimit="10.0"><path d="M 847.2000,302.4000 l 59.1829,-40.6883 "/></g><g stroke-linejoin="miter" stroke-opacity="1.0" fill-opacity="1.0" stroke="rgb(0,0,0)" stroke-width="0.0" fill="rgb(0,0,0)" stroke-linecap="butt" stroke-miterlimit="10.0"></g><g stroke-linejoin="miter" stroke-opacity="1.0" fill-opacity="1.0" stroke="rgb(0,0,0)" stroke-width="0.0" fill="rgb(0,0,0)" stroke-linecap="butt" stroke-miterlimit="10.0"></g><g stroke-linejoin="miter" stroke-opacity="1.0" fill-opacity="1.0" stroke="rgb(0,0,0)" stroke-width="5.0" fill="rgb(0,0,0)" stroke-linecap="butt" stroke-miterlimit="10.0"><path d="M 924.0000,249.6000 l -24.6098,1.9405 l 13.9854,20.3425 Z"/></g><g stroke-linejoin="miter" stroke-opacity="1.0" fill-opacity="1.0" stroke="rgb(0,0,0)" stroke-width="0.0" fill="rgb(0,0,0)" stroke-linecap="butt" stroke-miterlimit="10.0"></g><g stroke-linejoin="miter" stroke-opacity="1.0" fill-opacity="0.0" stroke="rgb(0,0,0)" stroke-width="10.0" fill="rgb(0,0,0)" stroke-linecap="butt" stroke-miterlimit="10.0"><path d="M 386.4000,417.6000 l 142.8592,46.2192 "/></g><g stroke-linejoin="miter" stroke-opacity="1.0" fill-opacity="1.0" stroke="rgb(0,0,0)" stroke-width="0.0" fill="rgb(0,0,0)" stroke-linecap="butt" stroke-miterlimit="10.0"></g><g stroke-linejoin="miter" stroke-opacity="1.0" fill-opacity="1.0" stroke="rgb(0,0,0)" stroke-width="0.0" fill="rgb(0,0,0)" stroke-linecap="butt" stroke-miterlimit="10.0"></g><g stroke-linejoin="miter" stroke-opacity="1.0" fill-opacity="1.0" stroke="rgb(0,0,0)" stroke-width="5.0" fill="rgb(0,0,0)" stroke-linecap="butt" stroke-miterlimit="10.0"><path d="M 549.6000,470.4000 l -16.5414,-18.3246 l -7.5989,23.4875 Z"/></g><g stroke-linejoin="miter" stroke-opacity="1.0" fill-opacity="1.0" stroke="rgb(0,0,0)" stroke-width="0.0" fill="rgb(0,0,0)" stroke-linecap="butt" stroke-miterlimit="10.0"></g><g stroke-linejoin="miter" stroke-opacity="1.0" fill-opacity="0.0" stroke="rgb(0,0,0)" stroke-width="10.0" fill="rgb(0,0,0)" stroke-linecap="butt" stroke-miterlimit="10.0"><path d="M 290.4000,249.6000 l 50.3894,39.5917 "/></g><g stroke-linejoin="miter" stroke-opacity="1.0" fill-opacity="1.0" stroke="rgb(0,0,0)" stroke-width="0.0" fill="rgb(0,0,0)" stroke-linecap="butt" stroke-miterlimit="10.0"></g><g stroke-linejoin="miter" stroke-opacity="1.0" fill-opacity="1.0" stroke="rgb(0,0,0)" stroke-width="0.0" fill="rgb(0,0,0)" stroke-linecap="butt" stroke-miterlimit="10.0"></g><g stroke-linejoin="miter" stroke-opacity="1.0" fill-opacity="1.0" stroke="rgb(0,0,0)" stroke-width="5.0" fill="rgb(0,0,0)" stroke-linecap="butt" stroke-miterlimit="10.0"><path d="M 357.6000,302.4000 l -9.1848,-22.9139 l -15.2517,19.4112 Z"/></g><g stroke-linejoin="miter" stroke-opacity="1.0" fill-opacity="1.0" stroke="rgb(0,0,0)" stroke-width="0.0" fill="rgb(0,0,0)" stroke-linecap="butt" stroke-miterlimit="10.0"></g></svg>